<svg width="407" height="589" viewBox="0 0 407 589" fill="none" xmlns="http://www.w3.org/2000/svg">
<path d="M406.433 581.735C402.038 543.161 353.409 532.241 337.247 569.397C337.956 555.782 335.688 531.815 321.085 525.575C308.609 520.186 294.289 530.823 293.581 543.87C293.581 529.263 293.297 517.634 275.717 516.499C260.973 515.506 247.362 525.575 241.549 538.623C247.504 514.23 259.98 486.15 229.357 471.685C197.599 456.794 163.574 477.499 152.799 498.772C155.776 487.285 159.179 477.783 142.591 470.267C133.092 466.012 114.094 466.012 107.289 475.514C114.236 452.965 64.6151 446.725 61.2125 470.267C62.0632 458.354 57.9517 450.838 51.5719 447.009C51.4301 441.194 48.8782 436.089 43.2072 437.507C44.4832 416.518 3.79395 410.703 6.48766 430.416C0.249588 400.634 -60.8551 422.9 -43.2751 446.725C-66.3843 425.736 -93.605 485.583 -63.4071 491.823C-98.2835 497.495 -109.484 565.568 -73.3313 576.346C-100.268 632.506 -5.98847 664.131 32.2906 641.582C51.1466 667.818 91.9775 674.058 121.892 674.342C140.748 674.484 178.885 676.753 190.227 657.607C208.941 693.771 297.976 684.694 318.249 652.36C321.652 669.945 363.759 652.644 372.124 648.106C396.792 634.633 409.694 609.531 406.433 581.735Z" fill="#FEFEFE"/>
<path d="M406.433 581.735C406.433 581.735 406.433 582.586 406.575 584.004C406.575 584.713 406.716 585.706 406.858 586.84C406.858 587.975 406.858 589.393 406.858 590.811C406.858 591.52 406.858 592.371 406.858 593.222C406.858 594.073 406.716 594.924 406.716 595.917C406.716 596.91 406.575 597.902 406.433 598.895C406.291 599.888 406.149 601.022 406.008 602.157C405.157 606.553 403.881 611.659 401.471 617.048C399.061 622.437 395.658 628.251 390.696 633.64C385.876 639.029 379.638 644.135 371.982 648.247C368.154 650.233 364.042 651.935 359.789 653.637C355.536 655.338 350.999 656.757 346.179 658.033C341.359 659.309 336.396 660.302 331.151 660.302C329.875 660.302 328.457 660.16 327.181 660.018C326.472 659.876 325.905 659.735 325.196 659.593C324.487 659.309 323.92 659.167 323.211 658.884C321.935 658.317 320.659 657.466 319.667 656.331L319.1 655.48C318.958 655.338 318.816 655.055 318.816 654.913C318.533 654.487 318.391 654.062 318.391 653.637V653.353L318.249 653.495L317.966 653.92L317.399 654.771L317.115 655.197L316.973 655.338L316.832 655.622L315.839 656.757L314.847 657.891C314.563 658.316 314.138 658.6 313.713 659.026C313.004 659.735 312.153 660.586 311.444 661.153C308.183 663.989 304.639 666.258 300.811 668.386C296.983 670.513 292.872 672.215 288.619 673.916C284.365 675.476 279.97 676.753 275.433 677.887C270.897 678.88 266.218 679.873 261.398 680.44C258.988 680.724 256.578 680.865 254.167 681.149C251.757 681.291 249.205 681.433 246.795 681.433C244.243 681.433 241.833 681.433 239.281 681.291C236.729 681.149 234.177 681.007 231.625 680.582C226.521 680.015 221.417 679.022 216.314 677.32C211.21 675.76 206.248 673.633 201.711 670.513C201.144 670.087 200.577 669.804 200.01 669.378L198.45 668.102C197.883 667.676 197.316 667.251 196.891 666.826L195.473 665.266C195.047 664.698 194.48 664.273 194.055 663.706L192.779 662.004C191.645 660.586 191.645 660.444 191.22 659.876L190.936 659.451C190.794 659.593 190.794 659.735 190.652 659.735C190.511 660.018 190.369 660.16 190.227 660.444L189.66 661.011L188.951 661.862L188.242 662.713L187.392 663.422C185.265 665.407 182.713 666.967 180.161 668.244C174.916 670.796 169.245 672.356 163.574 673.349C152.09 675.335 140.181 675.335 128.272 675.193C122.317 675.193 116.221 675.051 110.125 674.767C104.028 674.342 97.7903 673.775 91.694 672.782C79.3597 670.796 66.7417 667.535 55.1163 661.436C49.3035 658.458 43.6325 654.629 38.8122 650.091C38.2451 649.524 37.5362 648.957 36.9691 648.247C36.402 647.68 35.8349 647.113 35.2679 646.404L33.5666 644.418L32.7159 643.426C32.7159 643.426 32.7159 643.426 32.5741 643.284H32.4324L32.1488 643.426L30.0222 644.418C28.4627 645.127 26.9032 645.837 25.2019 646.262C18.6803 648.531 11.8751 649.524 4.92815 649.807C-1.87701 650.091 -8.82396 649.666 -15.7709 648.531C-22.5761 647.397 -29.3812 645.695 -36.0446 643.284C-42.708 640.873 -49.0879 637.753 -55.1841 633.924C-61.1387 629.953 -66.8096 625.131 -71.3464 619.317C-73.6148 616.339 -75.4579 613.077 -76.8756 609.673C-78.2934 606.27 -79.2858 602.44 -79.7111 598.753C-80.1364 594.924 -79.9946 591.095 -79.2858 587.408C-79.0022 585.564 -78.4351 583.721 -77.868 581.877C-77.5845 581.026 -77.3009 580.033 -77.0174 579.182L-76.4503 577.906L-76.1667 577.197V577.055L-76.025 576.913C-76.025 576.913 -75.8832 576.771 -76.025 576.771H-76.1667L-76.8756 576.488C-78.5769 575.637 -80.42 574.786 -81.9795 573.651C-85.2403 571.524 -88.0758 568.688 -90.3442 565.426C-92.6126 562.164 -94.1721 558.619 -95.3063 554.932C-95.8734 553.088 -96.2987 551.244 -96.724 549.259C-97.0076 547.415 -97.2911 545.43 -97.4329 543.586C-98 535.928 -97.0076 528.128 -94.7392 520.754C-93.605 517.066 -92.1872 513.521 -90.3442 509.975C-88.5011 506.572 -86.2327 503.31 -83.6808 500.332C-81.1288 497.354 -78.0098 494.659 -74.4655 492.674C-73.6148 492.106 -72.7642 491.681 -71.7717 491.256L-70.354 490.546L-70.4958 490.405C-71.4882 489.837 -72.3388 488.987 -73.3313 488.136C-73.7566 487.71 -74.1819 487.285 -74.4655 486.717C-74.8908 486.292 -75.1743 485.725 -75.4579 485.299L-76.4503 483.739L-77.1592 482.037C-77.3009 481.754 -77.4427 481.47 -77.4427 481.187L-77.7263 480.336C-77.868 479.768 -78.0098 479.201 -78.1516 478.634C-78.2934 477.499 -78.5769 476.365 -78.5769 475.088C-78.5769 474.521 -78.7187 473.954 -78.7187 473.387V471.685C-78.5769 467.005 -77.3009 462.467 -75.5996 458.212C-73.8984 453.958 -71.3464 449.987 -68.0856 446.441C-67.235 445.449 -66.3843 444.739 -65.3919 443.889C-64.9666 443.463 -64.3995 443.179 -63.9742 442.754C-63.5488 442.329 -62.9817 442.045 -62.4146 441.761C-61.8475 441.478 -61.4222 441.052 -60.7133 440.769L-59.0121 440.059C-58.445 439.776 -57.7361 439.634 -57.169 439.492C-56.6019 439.35 -55.893 439.209 -55.1841 439.067C-53.9082 438.783 -52.4904 438.925 -51.2145 439.067L-49.2296 439.492L-48.8043 439.634C-48.6625 439.634 -48.6625 439.634 -48.6625 439.634L-48.379 439.776C-47.9537 439.918 -48.0954 439.918 -48.0954 439.918V439.776V439.634V439.492V439.067C-48.0954 438.074 -48.379 437.081 -48.2372 436.089C-47.9537 432.118 -46.1106 428.43 -43.8422 425.736C-41.432 422.9 -38.5966 420.772 -35.6193 418.929C-32.642 417.085 -29.3812 415.809 -25.9786 414.816C-22.7178 413.823 -19.1735 413.114 -15.7709 412.972C-12.2265 412.831 -8.68217 412.972 -5.27959 413.965C-1.87701 414.958 1.52557 416.66 4.21928 419.354C6.91299 422.049 8.47251 425.594 9.32315 428.998C7.76363 429.281 6.20412 429.565 4.64461 429.849L4.50284 427.863C4.50284 427.154 4.64461 426.445 4.64461 425.736C4.78638 425.027 4.92816 424.318 5.21171 423.609C5.49525 422.9 5.7788 422.19 6.20412 421.623C7.76364 419.07 10.1738 417.369 12.584 416.376C15.1359 415.383 17.6878 415.1 20.098 415.1C22.6499 415.1 25.0601 415.383 27.4703 415.95C32.2906 417.085 36.8274 419.354 40.5135 422.9C42.3566 424.601 43.9161 426.87 44.7667 429.281C45.0503 429.849 45.192 430.558 45.3338 431.125C45.4756 431.692 45.7592 432.401 45.7592 432.969L45.9009 433.961C45.9009 434.245 45.9009 434.103 45.9009 434.103C45.9009 434.103 45.9009 434.103 45.7592 434.103L46.6098 434.245C47.8858 434.387 49.02 434.954 50.0124 435.805C51.0048 436.514 51.7137 437.507 52.2808 438.499C52.8479 439.492 53.1314 440.485 53.415 441.478C53.6985 442.47 53.8403 443.463 53.9821 444.456L54.1238 445.165C54.1238 445.023 54.1238 445.165 54.1238 445.165L54.2656 445.307C54.2656 445.307 54.2656 445.307 54.4074 445.449L54.9745 445.874C55.3998 446.158 55.6833 446.441 56.1087 446.867C56.8175 447.434 57.5264 448.143 58.0935 448.994C60.6454 451.972 62.205 455.518 62.9138 459.205C63.7645 462.892 63.9062 466.438 63.6227 469.983C62.0632 469.841 60.6454 469.699 59.2277 469.558C59.653 466.438 60.929 463.318 63.0556 460.907C65.0405 458.496 67.7342 456.652 70.4279 455.376C75.9571 452.965 81.9116 452.398 87.7243 452.965C90.5598 453.248 93.3953 453.816 96.2308 454.809C98.9245 455.801 101.618 457.078 104.028 458.921C106.439 460.765 108.423 463.318 109.416 466.296C109.699 467.005 109.841 467.856 109.983 468.565C109.983 468.848 109.983 468.848 109.983 468.848V468.99V469.274C109.983 469.416 109.983 469.557 109.841 469.841C109.983 469.699 110.125 469.557 110.266 469.416L110.408 469.274L110.834 468.99C110.975 468.848 111.259 468.707 111.401 468.707C112.11 468.281 112.96 467.856 113.669 467.572C116.788 466.296 120.049 465.587 123.168 465.161C126.429 464.878 129.548 464.878 132.809 465.161C135.928 465.445 139.188 466.154 142.166 467.288L143.3 467.714C143.725 467.856 144.009 467.998 144.434 468.281L146.561 469.274L148.687 470.55C149.396 470.976 149.963 471.543 150.672 471.968C153.224 473.954 155.634 476.648 156.627 480.052C157.619 483.314 157.477 486.717 156.91 489.837C156.343 492.957 155.492 495.794 154.784 498.63C153.508 498.205 152.373 497.779 151.239 497.212C154.925 490.263 160.171 484.307 165.984 479.485C171.796 474.663 178.46 470.834 185.407 468.281C192.354 465.587 199.726 464.168 206.957 464.31C210.643 464.31 214.187 464.736 217.731 465.445C221.276 466.154 224.678 467.288 227.939 468.565C231.2 469.983 234.319 471.543 237.296 473.67C240.132 475.656 242.825 478.208 244.952 481.045C247.079 483.881 248.638 487.143 249.631 490.546C250.623 493.95 250.907 497.354 250.907 500.757C250.907 507.565 249.489 513.946 247.929 520.186C246.37 526.426 244.527 532.383 243.109 538.339C242.258 538.055 241.408 537.772 240.557 537.488C243.676 530.539 248.922 524.724 254.876 520.612C260.973 516.499 268.203 514.372 275.15 514.655C278.553 514.797 282.097 515.365 285.358 516.925C288.618 518.343 291.312 521.037 292.588 524.299C294.006 527.419 294.431 530.823 294.715 533.943C294.998 537.204 294.998 540.324 294.998 543.303C294.289 543.303 293.581 543.303 293.013 543.303C293.297 538.764 294.998 534.51 297.834 531.248C300.528 527.986 304.072 525.292 307.9 524.015C311.728 522.597 316.123 522.455 319.809 523.732C323.637 524.866 326.898 527.277 329.308 530.255C331.718 533.092 333.419 536.495 334.553 539.757C335.829 543.019 336.538 546.423 337.247 549.826C338.381 556.492 338.665 563.015 338.24 569.113C337.814 568.971 337.531 568.972 337.105 568.83C340.366 561.597 345.186 555.215 351.283 551.386C357.237 547.415 363.901 545.713 369.997 545.855C376.093 545.855 381.764 547.557 386.301 549.968C390.838 552.379 394.524 555.499 397.218 558.619C399.911 561.739 401.896 564.859 403.172 567.837C403.597 568.546 403.739 569.255 404.023 569.964C404.306 570.673 404.59 571.241 404.732 571.95C405.157 573.226 405.582 574.361 405.724 575.353C406.008 576.346 406.149 577.339 406.291 578.048C406.433 578.899 406.433 579.466 406.575 580.033C406.433 581.168 406.433 581.735 406.433 581.735C406.433 581.735 406.291 581.168 406.149 580.175C406.008 579.608 406.008 579.041 405.866 578.19C405.724 577.481 405.44 576.488 405.157 575.495C404.873 574.502 404.448 573.368 404.165 572.091C404.023 571.524 403.739 570.815 403.456 570.248C403.172 569.539 402.889 568.83 402.605 568.121C401.329 565.284 399.344 562.164 396.65 559.044C393.957 555.924 390.412 552.946 385.734 550.677C381.197 548.408 375.668 546.706 369.713 546.848C363.759 546.848 357.237 548.55 351.424 552.521C345.612 556.35 340.933 562.448 337.814 569.681L336.538 572.517L336.68 569.539C336.964 563.441 336.68 557.059 335.546 550.535C334.979 547.273 334.128 544.012 332.852 540.75C331.576 537.488 330.017 534.368 327.748 531.674C325.48 528.979 322.503 526.852 318.958 525.717C315.556 524.583 311.586 524.866 308.042 526.143C304.497 527.419 301.236 529.83 298.826 532.808C296.274 535.928 294.857 539.757 294.573 543.87H292.588C292.588 540.75 292.588 537.772 292.305 534.652C292.021 531.532 291.596 528.554 290.32 525.717C289.044 523.023 286.917 520.754 284.082 519.477C281.246 518.201 277.985 517.775 274.866 517.492C268.345 517.208 261.681 519.335 256.152 523.164C250.481 526.994 245.803 532.524 242.825 539.048L240.273 538.197C241.691 532.099 243.534 526.143 244.952 519.903C246.37 513.805 247.646 507.423 247.646 501.183C247.646 494.943 246.086 488.419 242.117 483.456C238.289 478.35 232.476 474.805 226.38 472.252C223.261 470.976 220 469.983 216.739 469.274C213.478 468.565 210.076 468.281 206.673 468.281C199.868 468.281 192.921 469.699 186.399 472.252C179.878 474.805 173.64 478.492 168.11 483.03C162.581 487.568 157.761 493.241 154.5 499.623L146.844 514.372L150.956 498.205C151.665 495.368 152.515 492.532 152.941 489.696C153.366 486.859 153.508 484.165 152.799 481.754C152.09 479.343 150.389 477.357 148.12 475.656C147.553 475.23 146.986 474.805 146.419 474.521L144.576 473.387L142.591 472.394C142.307 472.252 141.882 472.11 141.599 471.968L140.606 471.543C138.054 470.55 135.077 469.983 132.241 469.699C129.406 469.416 126.429 469.416 123.451 469.699C120.616 469.983 117.639 470.692 115.087 471.827C114.378 472.11 113.811 472.394 113.244 472.819C113.102 472.819 112.96 472.961 112.818 473.103L112.535 473.245C112.393 473.245 112.393 473.245 112.251 473.387L110.408 474.805L110.125 474.947L109.841 475.23L109.274 475.797L108.282 476.932L106.297 479.343L102.752 483.456L103.887 478.776L105.163 473.245L105.304 471.401V470.408C105.304 470.125 105.304 469.699 105.304 469.699C105.163 469.132 105.163 468.565 104.879 468.139C104.17 466.012 102.611 464.168 100.768 462.75C96.9397 459.772 91.8358 458.212 86.7319 457.645C81.6281 457.078 76.2406 457.645 71.7038 459.772C69.4355 460.765 67.3088 462.183 65.8911 464.027C64.3316 465.87 63.4809 468.139 63.0556 470.55L58.6606 470.125C58.8024 466.863 58.8024 463.601 58.0935 460.623C57.3846 457.645 56.1087 454.667 54.1238 452.398C53.6985 451.83 53.1314 451.263 52.5643 450.838C52.2808 450.554 51.9972 450.27 51.7137 450.129L51.2883 449.845C51.2883 449.845 51.0048 449.703 50.863 449.561L50.4377 449.278C49.8706 448.852 48.8782 448.569 49.1617 447.576V446.299V445.732C49.02 445.023 48.8782 444.314 48.7364 443.605C48.5946 442.896 48.3111 442.329 48.0275 441.761C47.744 441.194 47.3187 440.769 46.8933 440.485C46.468 440.201 46.0427 440.059 45.6174 439.918H45.192C44.7667 439.918 44.625 439.918 44.4832 440.059L43.7743 440.201C42.7819 440.343 41.9312 440.485 41.0806 440.627V437.365C41.0806 437.081 41.0806 436.798 41.0806 436.514C41.0806 436.23 41.0806 435.805 41.0806 435.805L40.9388 435.096C40.9388 434.67 40.7971 434.103 40.6553 433.678C40.5135 433.252 40.3717 432.827 40.2299 432.401C39.5211 430.7 38.3869 428.998 36.9691 427.58C34.1337 424.743 30.164 422.9 26.1943 421.907C22.0828 420.914 17.6878 420.914 14.0017 422.19C12.1586 422.9 10.7409 424.034 9.89025 425.452C9.0396 426.87 8.75606 428.714 9.03961 430.7L4.36105 431.55C3.79395 428.714 2.51799 426.161 0.53315 424.176C-1.45169 422.19 -4.00362 420.772 -6.8391 420.063C-12.5101 418.503 -19.0317 419.212 -24.9862 420.914C-27.9635 421.765 -30.799 423.041 -33.4927 424.601C-36.1864 426.161 -38.5966 428.147 -40.5814 430.416C-42.4245 432.685 -43.7004 435.379 -43.8422 438.074C-43.984 438.783 -43.8422 439.35 -43.7004 440.059V440.343V440.485L-43.5587 440.769L-42.9916 442.045L-41.9991 444.456L-41.8574 444.739L-41.5738 445.165L-41.0067 446.158L-39.7308 448.001L-37.3206 451.83L-33.3509 458.07L-40.7232 452.256L-45.1182 448.852L-46.2524 448.001C-46.3941 448.001 -46.3941 447.859 -46.5359 447.859L-46.6777 447.718L-46.9612 447.576L-48.379 446.867L-49.7967 446.158L-50.0803 446.016C-50.222 446.016 -50.3638 445.874 -50.3638 445.874H-50.6474L-52.0651 445.59C-52.9158 445.59 -53.9082 445.449 -54.7588 445.59C-55.1841 445.59 -55.6095 445.732 -56.1766 445.874C-56.6019 446.016 -57.0272 446.158 -57.5943 446.299L-58.8703 446.867C-59.2956 447.009 -59.7209 447.292 -60.1462 447.576C-60.5716 447.859 -60.9969 448.143 -61.4222 448.427L-62.6982 449.278C-63.4071 449.987 -64.2577 450.554 -64.9666 451.405C-67.8021 454.383 -69.9287 457.928 -71.4882 461.758C-73.0477 465.587 -74.1819 469.557 -74.3237 473.528V474.947L-74.1819 476.365C-74.1819 477.357 -73.8984 478.208 -73.7566 479.201C-73.6148 479.627 -73.473 480.052 -73.3313 480.619L-73.1895 481.328C-73.0477 481.612 -73.0477 481.754 -72.9059 481.896L-72.3388 483.172L-71.63 484.307C-71.4882 484.732 -71.2046 485.016 -70.9211 485.441C-70.6375 485.725 -70.354 486.15 -70.0704 486.434C-69.3616 487.001 -68.7945 487.71 -68.0856 487.994L-67.9438 488.136L-67.5185 488.277L-66.8096 488.703L-66.1008 489.128L-65.6754 489.27L-65.1083 489.412C-63.6906 489.837 -62.4146 490.263 -60.9969 490.688L-58.8703 491.256L-57.0272 491.823C-55.7512 492.106 -54.6171 492.532 -53.3411 492.816L-59.2956 494.092C-61.2804 494.517 -63.4071 495.085 -65.3919 495.652L-66.9514 496.077L-67.6603 496.219L-68.0856 496.361C-68.2274 496.361 -68.3692 496.361 -68.3692 496.503L-69.6451 497.07C-70.4958 497.496 -71.3464 497.779 -72.0553 498.346C-75.0325 500.048 -77.868 502.317 -80.1364 505.012C-82.5466 507.706 -84.5314 510.685 -86.2327 513.805C-87.934 516.924 -89.21 520.328 -90.3442 523.732C-92.4708 530.539 -93.3214 537.772 -92.8961 544.863C-92.7543 546.564 -92.4708 548.408 -92.329 550.11C-91.9037 551.812 -91.6201 553.513 -91.053 555.215C-90.0606 558.477 -88.6429 561.739 -86.658 564.433C-84.6732 567.27 -82.263 569.681 -79.5693 571.524C-78.1516 572.517 -76.7338 573.226 -75.1743 573.935L-70.9211 575.495L-70.354 575.779C-70.2122 575.779 -70.0704 575.779 -70.0704 575.921L-70.2122 576.204L-70.7793 577.339L-71.7717 579.608L-72.3388 580.742L-72.6224 581.31L-73.0477 582.586C-73.3313 583.437 -73.6148 584.146 -73.8984 584.997C-74.4655 586.699 -74.8908 588.259 -75.1743 589.96C-75.7414 593.364 -76.025 596.768 -75.5996 600.03C-75.0325 606.695 -72.1971 613.077 -68.2274 618.466C-64.1159 623.855 -59.0121 628.393 -53.3411 632.08C-47.6701 635.768 -41.5738 638.746 -35.194 641.157C-28.8141 643.426 -22.2925 645.269 -15.7709 646.262C-9.24928 647.397 -2.58588 647.822 4.07751 647.538C10.5991 647.255 17.1207 646.262 23.217 644.277C24.7766 643.709 26.1943 643.142 27.612 642.575L28.7462 642.008L29.3133 641.724C29.4551 641.582 29.5969 641.582 30.0222 641.298L32.007 640.164L32.9995 639.597C33.283 639.738 33.4248 640.164 33.7083 640.448L35.8349 643.284L37.3945 645.127C37.9616 645.695 38.5287 646.262 38.954 646.829C39.5211 647.397 40.0882 647.964 40.6553 648.531C45.1921 652.927 50.4377 656.473 55.9669 659.451C67.1671 665.266 79.3597 668.527 91.4105 670.655C97.5068 671.647 103.461 672.356 109.558 672.782C115.654 673.207 121.608 673.349 127.563 673.349C139.472 673.633 151.097 673.633 162.298 671.789C167.827 670.796 173.214 669.378 178.176 667.109C180.586 665.975 182.855 664.415 184.84 662.713L185.549 662.004L186.257 661.295L186.966 660.586L187.25 660.16L187.675 659.451L188.668 658.033L189.518 656.757C189.802 656.331 190.085 655.906 190.369 655.48L191.22 656.898C192.212 658.6 193.488 660.869 194.197 661.578L195.331 663.138C195.756 663.706 196.182 664.131 196.607 664.556L198.025 665.975C198.45 666.4 199.017 666.826 199.584 667.251L201.144 668.527C201.711 668.953 202.278 669.236 202.703 669.662C206.957 672.498 211.777 674.625 216.597 676.185C221.417 677.745 226.521 678.738 231.483 679.447C233.894 679.873 236.446 680.015 238.856 680.156C241.266 680.298 243.818 680.44 246.228 680.298C248.638 680.298 251.048 680.156 253.458 680.156C255.869 680.015 258.279 679.873 260.547 679.447C265.226 678.88 269.904 678.029 274.299 677.036C278.836 676.044 283.089 674.767 287.342 673.207C291.454 671.647 295.565 669.946 299.252 667.96C302.938 665.833 306.624 663.706 309.743 661.011C310.594 660.444 311.302 659.593 312.011 658.884C312.437 658.6 312.72 658.175 313.145 657.891L314.138 656.757L315.13 655.622L315.272 655.48L315.414 655.197C315.556 655.055 315.556 654.913 315.697 654.771L316.264 653.92L317.399 652.218L317.966 651.367C318.108 651.226 318.108 651.084 318.249 651.084H318.391L318.816 652.502C318.958 652.927 319.1 653.495 319.384 653.92C319.525 654.346 319.667 654.913 319.951 655.197C320.092 655.48 320.234 655.48 320.234 655.622L320.518 656.047C321.368 656.898 322.361 657.749 323.495 658.175C325.763 659.167 328.457 659.451 330.867 659.451C335.971 659.451 340.933 658.458 345.612 657.324C350.29 656.189 354.827 654.629 359.08 653.069C363.334 651.509 367.445 649.807 371.273 647.822C378.787 643.851 385.025 638.888 389.845 633.498C394.666 628.109 398.21 622.579 400.62 617.189C403.03 611.8 404.448 606.837 405.299 602.44C405.441 601.306 405.582 600.313 405.724 599.179C405.866 598.186 406.008 597.193 406.149 596.2C406.149 595.208 406.291 594.357 406.291 593.506C406.291 592.655 406.433 591.804 406.433 591.095C406.433 589.535 406.433 588.259 406.433 587.124C406.291 585.99 406.291 584.997 406.291 584.288C406.575 582.444 406.433 581.735 406.433 581.735Z" fill="black"/>
<path d="M163.432 535.503C163.432 535.503 163.29 534.652 163.148 533.092C162.865 531.674 162.581 529.405 161.447 527.135C160.455 524.866 158.753 522.314 156.201 520.328C153.649 518.343 150.389 517.066 146.702 516.357C139.33 515.223 132.1 517.066 127.563 519.477C125.295 520.754 123.593 522.03 122.459 523.023C121.892 523.448 121.467 523.874 121.183 524.157C120.899 524.441 120.758 524.583 120.758 524.583C120.758 524.583 120.899 524.441 121.041 524.015C121.183 523.732 121.467 523.165 121.892 522.455C122.743 521.179 124.16 519.335 126.287 517.492C128.414 515.648 131.391 513.805 135.077 512.67C138.763 511.394 143.016 510.968 147.553 511.677C151.948 512.386 156.201 514.372 159.037 517.35C160.455 518.768 161.589 520.328 162.298 521.888C163.148 523.448 163.574 525.008 163.857 526.426C164.424 529.263 164.141 531.532 163.999 533.092C163.715 534.652 163.432 535.503 163.432 535.503Z" fill="black"/>
<path d="M189.093 523.732C189.093 523.732 188.809 523.164 188.242 522.172C187.675 521.179 186.825 519.903 185.549 518.485C184.273 517.066 182.713 515.648 180.728 514.514C178.743 513.379 176.333 512.528 173.781 512.103C168.536 511.252 163.574 512.245 160.171 513.805C158.47 514.655 157.194 515.506 156.343 516.074C155.918 516.357 155.634 516.641 155.351 516.925C155.067 517.066 155.067 517.208 155.067 517.208C155.067 517.208 155.067 517.066 155.209 516.783C155.351 516.499 155.492 516.074 155.776 515.648C156.343 514.655 157.335 513.237 158.895 511.819C160.455 510.401 162.581 508.983 165.275 508.132C167.969 507.281 171.229 506.855 174.49 507.423C177.751 507.99 180.87 509.408 182.997 511.252C185.265 513.095 186.683 515.365 187.533 517.208C188.384 519.194 188.668 520.754 188.809 521.888C189.093 523.023 189.093 523.732 189.093 523.732Z" fill="black"/>
<path d="M212.486 569.539C212.486 569.539 212.769 568.546 213.195 566.844C213.478 565.142 214.045 562.732 213.903 559.753C213.762 559.044 213.762 558.193 213.62 557.484C213.478 557.059 213.478 556.633 213.336 556.35C213.195 555.924 213.053 555.499 212.911 555.073C212.769 554.222 212.344 553.513 212.06 552.663C211.635 551.812 211.21 550.961 210.784 550.252C210.359 549.401 209.65 548.692 209.083 547.841C208.374 547.132 207.807 546.281 206.957 545.713C205.397 544.295 203.696 543.019 201.853 541.884C198.025 539.757 193.913 538.481 190.227 538.197C186.399 537.913 182.997 538.481 180.161 539.615C177.326 540.75 175.341 542.168 173.923 543.303C173.214 543.87 172.789 544.295 172.364 544.579C172.08 544.863 171.797 545.004 171.797 545.004C171.797 545.004 171.938 544.863 172.222 544.437C172.505 544.012 172.789 543.444 173.356 542.735C174.49 541.317 176.191 539.332 179.027 537.488C181.862 535.644 185.69 534.226 190.227 534.084C194.764 533.943 199.726 535.077 204.263 537.63C206.531 538.906 208.516 540.608 210.217 542.31C211.068 543.161 211.777 544.153 212.486 545.146C213.053 546.139 213.762 547.132 214.187 548.124C214.754 549.117 215.038 550.252 215.463 551.244C215.747 552.237 216.03 553.23 216.172 554.222C216.172 554.79 216.314 555.215 216.314 555.641C216.314 556.066 216.314 556.633 216.314 557.059C216.314 557.91 216.172 558.902 216.172 559.753C215.747 563.015 214.612 565.568 213.762 567.128C213.053 568.83 212.486 569.539 212.486 569.539Z" fill="black"/>
<path d="M237.154 573.793C237.154 573.793 237.013 573.226 236.871 572.375C236.729 571.95 236.729 571.382 236.587 570.815C236.446 570.248 236.304 569.539 236.02 568.83C236.02 568.404 235.737 568.121 235.595 567.695C235.453 567.27 235.311 566.986 235.17 566.561C235.028 566.135 234.744 565.852 234.602 565.426C234.319 565.001 234.177 564.575 234.035 564.291C233.043 562.731 231.909 561.313 230.349 560.037C228.79 558.761 227.088 557.768 225.387 556.917C225.245 556.775 224.962 556.775 224.82 556.633C224.678 556.492 224.395 556.492 224.253 556.35C223.828 556.208 223.402 556.066 222.977 555.924C222.126 555.641 221.417 555.357 220.709 555.215C220.283 555.073 220 555.073 219.716 554.932C219.433 554.79 219.007 554.79 218.724 554.79C218.157 554.648 217.59 554.648 217.164 554.506C216.314 554.364 215.747 554.364 215.747 554.364C215.747 554.364 216.172 554.081 217.022 553.797C217.448 553.655 218.015 553.372 218.582 553.23C218.866 553.088 219.291 553.088 219.574 552.946C220 552.946 220.283 552.804 220.709 552.804C221.559 552.662 222.41 552.662 223.402 552.662C223.969 552.662 224.395 552.662 224.962 552.804C225.245 552.804 225.529 552.804 225.812 552.946C226.096 552.946 226.38 553.088 226.663 553.088C227.23 553.23 227.797 553.372 228.364 553.513C228.932 553.655 229.499 553.939 230.066 554.222C230.633 554.506 231.2 554.79 231.767 555.215C232.334 555.499 232.901 556.066 233.327 556.35C235.453 558.052 236.871 560.462 237.58 562.59C237.722 563.157 237.863 563.724 238.005 564.291C238.147 564.859 238.289 565.284 238.289 565.851C238.289 566.419 238.289 566.844 238.289 567.27C238.289 567.695 238.289 568.121 238.289 568.546C238.147 569.397 238.005 570.106 238.005 570.815C237.863 571.382 237.58 571.95 237.438 572.375C237.296 573.368 237.154 573.793 237.154 573.793Z" fill="black"/>
<path d="M56.8175 518.343C56.8175 518.343 56.3922 517.634 55.6833 516.215C55.258 515.506 54.6909 514.797 54.1238 513.946C53.8403 513.521 53.4149 513.095 53.1314 512.67C52.7061 512.244 52.2807 511.819 51.8554 511.252C50.0123 509.408 47.6022 507.565 44.4832 506.572C42.9236 506.005 41.2223 505.579 39.5211 505.437C37.8198 505.154 35.9767 505.295 34.1336 505.437C30.4475 505.863 27.0449 507.281 24.7765 509.266C22.3664 511.252 21.2322 513.946 21.0904 516.357C20.9486 518.91 21.5157 521.037 21.941 522.455C22.5081 523.873 22.7917 524.724 22.7917 524.724C22.7917 524.724 22.2246 524.157 21.2322 522.881C20.3815 521.604 19.1056 519.619 18.6802 516.641C18.3967 515.223 18.5385 513.379 18.9638 511.677C19.3891 509.834 20.5233 508.132 21.7993 506.572C24.6348 503.452 28.888 501.466 33.4248 500.899C35.6931 500.615 37.9615 500.615 40.0882 501.041C42.2148 501.466 44.1996 502.034 46.0427 503.026C49.587 504.87 52.139 507.565 53.6985 509.975C54.1238 510.543 54.4073 511.11 54.6909 511.819C54.9744 512.386 55.258 512.954 55.3998 513.521C55.8251 514.514 56.1087 515.506 56.2504 516.215C56.6757 517.492 56.8175 518.343 56.8175 518.343Z" fill="black"/>
<path d="M69.5772 503.452C69.5772 503.452 69.2937 502.885 68.8684 502.034C68.443 501.183 67.7342 499.906 66.6 498.772C65.4658 497.637 64.048 496.503 62.205 495.652C60.3619 494.801 58.2353 494.376 55.9669 494.376C53.6985 494.376 51.5719 494.801 49.8706 495.652C49.02 496.077 48.3111 496.645 47.744 497.212C47.1769 497.779 46.6098 498.488 46.3263 499.197C45.6174 500.616 45.3338 502.034 45.1921 502.885C45.0503 503.877 45.0503 504.445 45.0503 504.445C45.0503 504.445 44.7667 503.877 44.4832 503.026C44.1996 502.034 43.7743 500.474 44.0579 498.488C44.1996 497.496 44.4832 496.361 45.1921 495.368C45.7592 494.234 46.6098 493.241 47.744 492.39C49.8706 490.688 52.9896 489.554 56.1087 489.696C59.2277 489.696 62.205 490.688 64.3316 492.248C66.6 493.808 68.0177 495.794 68.7266 497.637C69.5772 499.481 69.5772 501.041 69.719 502.034C69.719 502.885 69.5772 503.452 69.5772 503.452Z" fill="black"/>
<path d="M20.5233 472.536C20.5233 472.536 20.9486 471.968 21.7993 470.976C22.5082 469.983 23.6424 468.423 24.3512 466.438C24.493 465.87 24.6348 465.445 24.7765 464.878C24.9183 464.31 24.9183 463.743 24.9183 463.176C24.9183 462.041 24.6348 460.765 24.2094 459.63C23.217 457.219 21.374 454.808 18.9638 452.823C16.5536 450.838 13.7181 449.419 11.1662 448.71C8.4725 448.001 5.92057 448.001 3.79395 448.427C1.66734 448.852 -0.0339534 449.703 -1.16815 450.27C-2.30234 450.979 -2.86945 451.263 -2.86945 451.263C-2.86945 451.263 -2.44412 450.696 -1.59347 449.561C-0.601055 448.569 0.816692 447.15 3.08508 446.016C5.35347 444.881 8.4725 444.172 11.8751 444.598C15.2777 445.023 18.9638 446.441 22.0828 448.994C25.2019 451.547 27.3285 454.95 28.1791 458.354C28.6045 460.056 28.6044 461.899 28.3209 463.459C28.1791 464.168 28.0374 465.019 27.612 465.587C27.3285 466.296 27.0449 466.863 26.6196 467.43C25.2019 469.558 23.5006 470.692 22.3664 471.543C21.2322 472.11 20.5233 472.536 20.5233 472.536Z" fill="black"/>
<path d="M55.8251 452.256C55.8251 452.256 55.258 451.972 54.4074 451.405C53.5567 450.838 52.139 450.27 50.5795 449.419C47.3186 448.001 42.7819 446.299 37.8198 446.016C35.4096 445.874 33.1412 446.158 31.1564 446.867C29.1715 447.576 27.612 448.71 26.336 449.845C25.0601 450.979 24.2094 452.256 23.6423 452.965C23.0752 453.816 22.7917 454.241 22.7917 454.241C22.7917 454.241 22.7917 453.674 22.9335 452.681C23.217 451.689 23.5006 450.129 24.493 448.285C25.4854 446.583 27.0449 444.598 29.4551 443.179C31.8652 441.761 34.9843 441.052 38.1033 441.194C41.2223 441.336 44.0578 442.329 46.3262 443.463C48.5946 444.598 50.4377 446.016 51.8554 447.292C53.2732 448.568 54.2656 449.845 54.8327 450.696C55.3998 451.688 55.8251 452.256 55.8251 452.256Z" fill="black"/>
<path d="M318.108 587.691C318.108 587.691 318.108 587.55 317.966 587.124C317.824 586.841 317.824 586.273 317.682 585.706C317.399 584.43 316.832 582.728 315.697 580.884C313.713 577.055 309.176 573.084 303.221 570.815C301.803 570.248 300.244 569.822 298.826 569.539C297.408 569.255 295.991 569.113 294.573 569.113C293.155 569.113 291.879 569.255 290.745 569.539C289.611 569.822 288.477 570.106 287.484 570.673C285.499 571.524 284.082 572.659 283.089 573.51C282.664 573.935 282.239 574.361 282.097 574.502C281.813 574.786 281.672 574.928 281.672 574.928C281.672 574.928 281.672 574.786 281.813 574.502C281.955 574.219 282.097 573.652 282.38 573.084C282.947 571.95 284.082 570.248 286.067 568.688C287.059 567.837 288.193 567.128 289.611 566.561C291.029 565.993 292.446 565.426 294.148 565.284C295.849 565.001 297.55 565.001 299.393 565.142C301.236 565.284 303.079 565.852 304.781 566.419C308.325 567.837 311.444 569.964 313.571 572.517C314.705 573.793 315.556 575.07 316.264 576.346C316.973 577.622 317.399 578.899 317.682 580.175C318.249 582.586 318.249 584.571 318.108 585.848C318.108 586.557 317.966 586.982 317.824 587.408C318.249 587.55 318.108 587.691 318.108 587.691Z" fill="black"/>
<path d="M296.841 567.412C296.841 567.412 296.7 567.27 296.558 566.986C296.416 566.702 296.133 566.277 295.849 565.71C295.282 564.575 294.148 563.157 292.588 561.597C289.611 558.335 284.649 554.932 278.694 552.946C275.717 551.953 272.74 551.528 270.046 551.67C268.77 551.812 267.494 552.095 266.36 552.379C265.226 552.804 264.233 553.23 263.383 553.797C261.681 554.932 260.405 556.35 259.555 557.343C258.846 558.335 258.421 558.903 258.421 558.903C258.421 558.903 258.562 558.193 258.988 556.917C259.413 555.641 260.122 553.797 261.823 551.953C262.674 550.961 263.666 550.11 264.942 549.259C266.218 548.55 267.778 547.841 269.337 547.557C272.598 546.848 276.426 546.99 280.112 548.266C281.955 548.833 283.656 549.684 285.074 550.535C286.634 551.386 287.91 552.379 289.186 553.513C291.596 555.641 293.297 558.052 294.431 560.179C295.565 562.306 296.133 564.15 296.416 565.426C296.558 565.993 296.558 566.561 296.7 566.986C296.841 567.27 296.841 567.412 296.841 567.412Z" fill="black"/>
</svg>
