<?xml version="1.0" encoding="UTF-8"?>
<svg enable-background="new 0 0 2481 2073" viewBox="0 0 2481 2073" xmlns="http://www.w3.org/2000/svg">
 <path d="m730.94 1839.6c-38.766-190.3-107.12-348.66-189.9-495.44-61.407-108.87-132.54-209.36-198.36-314.94-21.972-35.244-40.934-72.477-62.047-109.05-42.216-73.137-76.444-157.94-74.269-267.93 2.125-107.47 33.208-193.68 78.03-264.17 73.719-115.94 197.2-210.99 362.88-235.97 135.47-20.424 262.48 14.082 352.54 66.748 73.6 43.038 130.6 100.53 173.92 168.28 45.22 70.716 76.359 154.26 78.971 263.23 1.337 55.83-7.805 107.53-20.684 150.42-13.034 43.409-33.996 79.695-52.646 118.45-36.406 75.659-82.049 144.98-127.86 214.35-136.44 206.61-264.5 417.31-320.58 706.03z" fill="#e81e25" fill-rule="evenodd" stroke="#000" stroke-miterlimit="10" stroke-width="37"/>
 <path d="m731.38 1934.4c131.6-120.86 211.31-235.98 269.14-350.49 42.892-84.942 70.542-169.17 106.95-254.06 12.156-28.34 28.508-56.568 42.519-85.3 28.018-57.449 72.657-118.13 169.03-178.1 94.16-58.588 193.96-93.756 291.58-114.7 160.56-34.442 344.28-37.299 502.59 15.593 129.44 43.246 204.67 113.47 233.78 178.86 23.783 53.438 21.428 108.18-1.045 163.1-23.455 57.32-69.568 116.06-161.1 177.39-46.898 31.417-98.9 56.333-146.41 74.868-48.088 18.761-96.6 30.392-145.33 44.32-95.119 27.188-192.42 47.153-289.89 67.076-290.32 59.339-577.25 124.32-871.81 261.43z" fill-rule="evenodd" opacity=".09"/>
 <path d="m912.88 651.05a183.33 183.33 0 1 0 -366.67 0 183.33 183.33 0 1 0 366.67 0" fill-rule="evenodd"/>
</svg>
