<svg width="1920" height="1323" viewBox="0 0 1920 1323" fill="none" xmlns="http://www.w3.org/2000/svg">
<g clip-path="url(#clip0)">
<path d="M1180.96 -144.818L1113.13 183.404L1215.16 -144.818H1180.96Z" fill="black"/>
<path d="M1528.95 -144.818L1248.61 307.247L1581.17 -144.818H1528.95Z" fill="black"/>
<path d="M105.343 -144.818L716.893 427.772L180.461 -144.818H105.343Z" fill="black"/>
<path d="M-541.898 1373.01V1394.31L-508.076 1414.96L614.82 868.858L-541.898 1373.01Z" fill="black"/>
<path d="M-541.898 848.35V873.577L289.308 766.785L-541.898 848.35Z" fill="black"/>
<path d="M2466.43 472.806L1731.04 586.838L2466.43 495.416V472.806Z" fill="black"/>
<path d="M515.317 1449.53L811.819 958.458L458.931 1449.53H515.317Z" fill="black"/>
<path d="M62.365 1449.53L570.207 1042.45L0.18689 1449.53H62.365Z" fill="black"/>
<path d="M2466.43 260.018L1528.2 544.327L2466.43 294.82V260.018Z" fill="black"/>
<path d="M1106.17 1449.53L1039.56 1102.34L1070.44 1449.53H1106.17Z" fill="black"/>
<path d="M2466.43 1052.73L1423.93 809.764L2466.43 1089.45V1052.73Z" fill="black"/>
<path d="M-541.898 -32.8876V24.2452L517.045 483.644L-541.898 -32.8876Z" fill="black"/>
<path d="M2466.43 964.111L1510.49 798.926L2466.43 995.13V964.111Z" fill="black"/>
<path d="M-541.898 540.637V568.245L387.831 642.803L-541.898 540.637Z" fill="black"/>
<path d="M2466.43 -44.2394L2432.7 -63.0657L1344.98 516.578L2466.43 -19.4803V-44.2394Z" fill="black"/>
<path d="M-541.898 86.9373V125.945L363.725 455.661L-541.898 86.9373Z" fill="black"/>
<path d="M1991.52 1449.53L1450.14 1057.54L1932.24 1449.53H1991.52Z" fill="black"/>
<path d="M1342.83 1449.53L1179.19 1094.96L1304.85 1449.53H1342.83Z" fill="black"/>
<path d="M1487.18 1449.53L1210.67 1027.88L1437.1 1449.53H1487.18Z" fill="black"/>
<path d="M-541.898 555.445V580.812L315.702 641.915L-541.898 555.445Z" fill="black"/>
<path d="M1296.44 -144.818L1120.89 359.615L1350.35 -144.818H1296.44Z" fill="black"/>
<path d="M-541.898 1387.68V1418.79L73.4832 1118.97L-541.898 1387.68Z" fill="black"/>
<path d="M2466.43 1323.26L1353.02 861.524L2466.43 1377.26V1323.26Z" fill="black"/>
<path d="M1045.77 -144.818L1028.76 301.734L1091.55 -144.818H1045.77Z" fill="black"/>
<path d="M2466.43 773.232L1641.3 737.448L2466.43 797.291V773.232Z" fill="black"/>
<path d="M980.274 1449.53L986.628 986.721L932.999 1449.53H980.274Z" fill="black"/>
<path d="M2213.61 1449.53L1575.8 1089.64L2147.6 1449.53H2213.61Z" fill="black"/>
<path d="M-435.761 -144.818L594.312 456.222L-328.689 -144.818H-435.761Z" fill="black"/>
<path d="M2466.43 363.632L1479.8 592.491L2466.43 396.707V363.632Z" fill="black"/>
<path d="M2270.74 -144.818L1472.98 399.696L2366.27 -144.818H2270.74Z" fill="black"/>
<path d="M636.823 1467.38L863.626 959.112L581.886 1471.44L636.823 1467.38Z" fill="black"/>
<path d="M2466.43 715.165L1655.82 711.801L2466.43 738.523V715.165Z" fill="black"/>
<path d="M2343.43 1449.53L1308.64 886.423L2236.68 1449.53H2343.43Z" fill="black"/>
<path d="M-541.898 194.336V231.988L418.009 519.288L-541.898 194.336Z" fill="black"/>
<path d="M1216.98 1449.53L1089.59 1029.56L1173.26 1449.53H1216.98Z" fill="black"/>
<path d="M1818.86 1449.53L1270.24 967.755L1753.69 1449.53H1818.86Z" fill="black"/>
<path d="M-541.898 366.575V391.428L205.267 536.012L-541.898 366.575Z" fill="black"/>
<path d="M1632.93 1449.53L1327.79 1110.56L1591.4 1449.53H1632.93Z" fill="black"/>
<path d="M-541.898 393.81V416.654L159.86 540.637L-541.898 393.81Z" fill="black"/>
<path d="M2466.43 633.88L1766.63 670.085L2466.43 654.108V633.88Z" fill="black"/>
<path d="M883.48 -144.818L955.609 375.685L936.829 -144.818H883.48Z" fill="black"/>
<path d="M-541.898 460.94V493.828L518.961 631.825L-541.898 460.94Z" fill="black"/>
<path d="M2466.43 200.362L1408.47 562.266L2466.43 242.079V200.362Z" fill="black"/>
<path d="M2466.43 1449.53V1419.59L1897.76 1152.7L2464.98 1449.53H2466.43Z" fill="black"/>
<path d="M2466.43 -101.98L1650.64 349.431L2466.43 -55.5445V-101.98Z" fill="black"/>
<path d="M2119.71 -144.818L1451.68 362.885L2200.01 -144.818H2119.71Z" fill="black"/>
<path d="M2466.43 1271.64L1385.53 861.15L2466.43 1320.64V1271.64Z" fill="black"/>
<path d="M-165.699 -144.818L643.924 428.987L-83.3401 -144.818H-165.699Z" fill="black"/>
<path d="M-541.898 -144.818V-104.175L451.223 405.676L-507.889 -144.818H-541.898Z" fill="black"/>
<path d="M-541.898 285.711V311.638L181.536 488.829L-541.898 285.711Z" fill="black"/>
<path d="M-541.898 1381.65V1417.06L160.747 1076.55L-541.898 1381.65Z" fill="black"/>
<path d="M2466.43 263.474L1693.15 497.612L2466.43 292.158V263.474Z" fill="black"/>
<path d="M-541.898 1250.2V1297.24L485.139 870.12L-541.898 1250.2Z" fill="black"/>
<path d="M-541.898 166.4V188.917L9.90369 366.528L-541.898 166.4Z" fill="black"/>
<path d="M319.206 1449.53L710.54 994.616L261.512 1449.53H319.206Z" fill="black"/>
<path d="M-541.898 908.146V935.334L314.114 804.765L-541.898 908.146Z" fill="black"/>
<path d="M-541.898 756.274V782.715L369.612 727.545L-541.898 756.274Z" fill="black"/>
<path d="M870.727 1449.53L928.888 998.914L824.198 1449.53H870.727Z" fill="black"/>
<path d="M-541.898 1156.53V1182.32L134.587 964.858L-541.898 1156.53Z" fill="black"/>
<path d="M247.358 -144.818L631.685 265.343L298.324 -144.818H247.358Z" fill="black"/>
<path d="M-541.898 1091.08V1130.84L554.978 814.762L-541.898 1091.08Z" fill="black"/>
<path d="M-354.196 1449.53L607.626 901.793L-464.49 1449.53H-354.196Z" fill="black"/>
<path d="M2466.43 1151.86L1405.52 834.055L2466.43 1193.48V1151.86Z" fill="black"/>
<path d="M2466.43 112.444L1558.66 479.44L2466.43 152.152V112.444Z" fill="black"/>
<path d="M444.917 -144.818L723.667 279.685L492.753 -144.818H444.917Z" fill="black"/>
<path d="M388.158 1449.53L601.787 1166.76L353.822 1449.53H388.158Z" fill="black"/>
<path d="M712.362 -144.818L890.394 384.607L767.72 -144.818H712.362Z" fill="black"/>
<path d="M1852.82 -144.818L1283.13 420.018L1923.6 -144.818H1852.82Z" fill="black"/>
<path d="M-186.675 1449.53L622.201 956.637L-279.778 1449.53H-186.675Z" fill="black"/>
<path d="M770.943 1449.53L889.507 996.905L723.387 1449.53H770.943Z" fill="black"/>
<path d="M-541.898 627.667V655.79L430.762 678.447L-541.898 627.667Z" fill="black"/>
<path d="M-541.898 693.115V716.707L276.695 701.898L-541.898 693.115Z" fill="black"/>
<path d="M2043.52 -144.818L1564.17 249.039L2102.7 -144.818H2043.52Z" fill="black"/>
<path d="M-541.898 783.089V805.045L209.004 747.399L-541.898 783.089Z" fill="black"/>
<path d="M-541.898 1001.95V1036.05L482.056 804.251L-541.898 1001.95Z" fill="black"/>
<path d="M-541.898 234.745V266.277L295.521 497.051L-541.898 234.745Z" fill="black"/>
<path d="M2032.35 -144.818L1705.06 129.308L2073.09 -144.818H2032.35Z" fill="black"/>
<path d="M1660.54 -144.818L1275.38 350.505L1721.23 -144.818H1660.54Z" fill="black"/>
<path d="M565.349 -144.818L751.089 209.939L603.842 -144.818H565.349Z" fill="black"/>
<path d="M2466.43 530.966L1508.44 644.765L2466.43 559.603V530.966Z" fill="black"/>
<path d="M2466.43 861.104L1474.71 757.863L2466.43 891.095V861.104Z" fill="black"/>
<path d="M2466.43 1167.09L1434.49 847.836L2466.43 1208.25V1167.09Z" fill="black"/>
<path d="M2466.43 1341.8L1776.26 1051.7L2466.43 1375.63V1341.8Z" fill="black"/>
<path d="M2466.43 684.847L1462.84 699.328L2466.43 713.763V684.847Z" fill="black"/>
</g>
<defs>
<clipPath id="clip0">
<rect width="1920" height="1322.04" fill="white"/>
</clipPath>
</defs>
</svg>
