<svg fill="none" xmlns="http://www.w3.org/2000/svg" viewBox="0 0 411 283">
  <g clip-path="url(#clip0)" fill="#000">
    <path d="M0 3a3 3 0 100-6 3 3 0 000 6z"/>
    <path d="M5 3a3 3 0 100-6 3 3 0 000 6z"/>
    <path d="M11 3a3 3 0 100-6 3 3 0 000 6z"/>
    <path d="M16 3a3 3 0 100-6 3 3 0 000 6z"/>
    <path d="M21 3a3 3 0 100-6 3 3 0 000 6z"/>
    <path d="M26 3a3 3 0 100-6 3 3 0 000 6z"/>
    <path d="M31 3a3 3 0 100-6 3 3 0 100 6zM36 2a3 3 0 100-5 3 3 0 000 5z"/>
    <path d="M41 2a3 3 0 100-5 3 3 0 000 5z"/>
    <path d="M47 2a3 3 0 100-5 3 3 0 000 5z"/>
    <path d="M52 2a3 3 0 100-5 3 3 0 000 5z"/>
    <path d="M57 2a2 2 0 100-5 2 2 0 000 5z"/>
    <path d="M62 2a2 2 0 100-5 2 2 0 000 5z"/>
    <path d="M67 2a2 2 0 100-5 2 2 0 000 5z"/>
    <path d="M72 2a2 2 0 100-5 2 2 0 000 5z"/>
    <path d="M77 2a2 2 0 100-5 2 2 0 100 5zM83 2a2 2 0 100-4 2 2 0 000 4zM88 2a2 2 0 100-4 2 2 0 000 4zM93 2a2 2 0 100-4 2 2 0 000 4zM98 2a2 2 0 100-4 2 2 0 000 4zM103 2a2 2 0 100-4 2 2 0 000 4zM108 2a2 2 0 100-4 2 2 0 000 4zM113 2a2 2 0 100-4 2 2 0 000 4zM119 2a2 2 0 100-4 2 2 0 000 4zM124 2a2 2 0 100-4 2 2 0 000 4zM129 1a2 2 0 100-3 2 2 0 000 3zM134 1a2 2 0 100-3 2 2 0 000 3zM139 1a2 2 0 100-3 2 2 0 000 3zM144 1l2-1-2-2-1 2 1 1zM149 1l2-1-2-2-1 2 1 1zM155 1a1 1 0 100-3 1 1 0 000 3zM160 1l1-1-1-2-2 2 2 1zM165 1a1 1 0 100-3 1 1 0 000 3zM170 1a1 1 0 100-3 1 1 0 000 3zM175 1a1 1 0 100-2 1 1 0 000 2zM180 1a1 1 0 100-2 1 1 0 000 2zM185 1a1 1 0 100-2 1 1 0 000 2zM191 1a1 1 0 100-2 1 1 0 000 2zM196 1a1 1 0 100-2 1 1 0 000 2zM201 1a1 1 0 100-2 1 1 0 000 2zM206 1a1 1 0 100-2 1 1 0 100 2zM211 1a1 1 0 100-2 1 1 0 000 2zM216 0a1 1 0 100-1 1 1 0 000 1zM221 0h1l-1-1v1zM227 0v-1 1zM232 0v0zM237 0v-1 1zM242 0v-1 1zM247 0v-1 1zM0 8a3 3 0 100-6 3 3 0 000 6z"/>
    <path d="M5 8a3 3 0 100-6 3 3 0 000 6z"/>
    <path d="M11 8a3 3 0 100-6 3 3 0 000 6z"/>
    <path d="M16 8a3 3 0 100-6 3 3 0 000 6z"/>
    <path d="M21 8a3 3 0 100-6 3 3 0 000 6z"/>
    <path d="M26 8a3 3 0 100-6 3 3 0 000 6z"/>
    <path d="M31 8a3 3 0 100-6 3 3 0 000 6z"/>
    <path d="M36 8a3 3 0 100-6 3 3 0 000 6z"/>
    <path d="M41 8a3 3 0 100-6 3 3 0 000 6zM47 7a3 3 0 100-5 3 3 0 000 5z"/>
    <path d="M52 7a3 3 0 100-5 3 3 0 000 5z"/>
    <path d="M57 7a2 2 0 100-5 2 2 0 000 5z"/>
    <path d="M62 7a2 2 0 100-5 2 2 0 000 5zM67 7a2 2 0 100-4 2 2 0 000 4zM72 7a2 2 0 000-4 2 2 0 000 4zM77 7a2 2 0 000-4 2 2 0 000 4zM83 7a2 2 0 100-4 2 2 0 000 4zM88 7a2 2 0 100-4 2 2 0 000 4zM93 7a2 2 0 100-4 2 2 0 000 4zM98 7a2 2 0 100-4 2 2 0 000 4zM103 7a2 2 0 100-4 2 2 0 000 4zM108 7a2 2 0 100-4 2 2 0 000 4zM113 7a2 2 0 100-4 2 2 0 000 4zM119 7a2 2 0 100-4 2 2 0 100 4zM124 7a2 2 0 100-4 2 2 0 100 4zM129 7l1-2-1-2-2 2 2 2zM134 7l2-2-2-2-2 2 2 2zM139 6a2 2 0 000-3 2 2 0 000 3zM144 6a1 1 0 100-3 1 1 0 000 3zM149 6a1 1 0 100-3 1 1 0 000 3zM155 6a1 1 0 100-2 1 1 0 000 2zM160 6a1 1 0 100-2 1 1 0 000 2zM165 6a1 1 0 100-2 1 1 0 100 2zM170 6a1 1 0 100-2 1 1 0 100 2zM175 6a1 1 0 100-2 1 1 0 000 2zM180 6a1 1 0 100-2 1 1 0 000 2zM185 6a1 1 0 100-2 1 1 0 000 2zM191 6V5 4l-1 1 1 1zM196 6l1-1-1-1-1 1 1 1zM201 6l1-1-1-1-1 1 1 1zM206 6l1-1-1-1-1 1 1 1zM211 6l1-1-1-1-1 1 1 1zM216 5a1 1 0 100-1 1 1 0 000 1zM221 5a1 1 0 100-1 1 1 0 000 1zM227 5V4l-1 1h1zM232 5V4l-1 1h1zM237 5zM242 5zM247 5zM252 5zM257 5zM396 5zM401 5zM407 5h-1 1zM0 13a3 3 0 100-6 3 3 0 000 6z"/>
    <path d="M5 13a3 3 0 100-6 3 3 0 000 6z"/>
    <path d="M11 13a3 3 0 100-6 3 3 0 000 6z"/>
    <path d="M16 13a3 3 0 100-6 3 3 0 000 6z"/>
    <path d="M21 13a3 3 0 100-6 3 3 0 000 6z"/>
    <path d="M26 13a3 3 0 100-6 3 3 0 000 6z"/>
    <path d="M31 13a3 3 0 100-6 3 3 0 000 6z"/>
    <path d="M36 13a3 3 0 100-6 3 3 0 000 6zM41 13a3 3 0 100-5 3 3 0 000 5z"/>
    <path d="M47 12a2 2 0 100-4 2 2 0 000 4zM52 12a2 2 0 100-4 2 2 0 000 4zM57 12a2 2 0 100-4 2 2 0 000 4zM62 12a2 2 0 100-4 2 2 0 000 4zM67 12a2 2 0 100-4 2 2 0 000 4zM72 12a2 2 0 100-4 2 2 0 000 4zM77 12a2 2 0 100-4 2 2 0 000 4zM83 12a2 2 0 000-4 2 2 0 000 4zM88 12a2 2 0 000-4 2 2 0 000 4zM93 12a2 2 0 100-4 2 2 0 000 4zM98 12a2 2 0 100-4 2 2 0 000 4zM103 12a2 2 0 100-4 2 2 0 000 4zM108 12a2 2 0 100-4 2 2 0 000 4zM113 12a2 2 0 000-4 2 2 0 000 4zM119 12a2 2 0 100-4 2 2 0 000 4zM124 12a2 2 0 000-4 2 2 0 000 4zM129 12a2 2 0 100-4 2 2 0 000 4zM134 12a2 2 0 100-4 2 2 0 000 4zM139 12a2 2 0 100-3 2 2 0 000 3zM144 11l2-1-2-1-1 1 1 1zM149 11l2-1-2-1a1 1 0 000 2zM155 11a1 1 0 100-2 1 1 0 000 2zM160 11a1 1 0 100-2 1 1 0 000 2zM165 11l1-1-1-1-1 1 1 1zM170 11l1-1-1-1-1 1 1 1zM175 11a1 1 0 100-2 1 1 0 000 2zM180 11l1-1-1-1-1 1 1 1zM185 11l1-1-1-1-1 1 1 1zM191 11a1 1 0 100-2 1 1 0 000 2zM196 11v-1-1l-1 1 1 1zM201 11a1 1 0 100-2 1 1 0 000 2zM206 11a1 1 0 100-2 1 1 0 000 2zM211 11l1-1-1-1-1 1 1 1zM216 11v-1 1zM221 11v-1 1zM227 10zM232 10h-1 1zM237 10zM242 10zM247 10zM391 10zM396 10zM401 10zM407 10h-1 1zM0 18a3 3 0 100-6 3 3 0 000 6z"/>
    <path d="M5 18a3 3 0 100-6 3 3 0 000 6z"/>
    <path d="M11 18a3 3 0 100-6 3 3 0 000 6z"/>
    <path d="M16 18a3 3 0 100-6 3 3 0 000 6z"/>
    <path d="M21 18a3 3 0 100-6 3 3 0 000 6z"/>
    <path d="M26 18a3 3 0 100-6 3 3 0 000 6zM31 18a3 3 0 100-5 3 3 0 000 5z"/>
    <path d="M36 18a3 3 0 100-5 3 3 0 000 5z"/>
    <path d="M41 18a3 3 0 100-5 3 3 0 000 5z"/>
    <path d="M47 18a2 2 0 100-5 2 2 0 000 5z"/>
    <path d="M52 18a2 2 0 100-5 2 2 0 000 5z"/>
    <path d="M57 18a2 2 0 100-5 2 2 0 000 5z"/>
    <path d="M62 18a2 2 0 100-5 2 2 0 000 5zM67 17a2 2 0 100-4 2 2 0 000 4zM72 17a2 2 0 100-4 2 2 0 000 4zM77 17a2 2 0 100-4 2 2 0 000 4zM83 17a2 2 0 000-4 2 2 0 000 4zM88 17a2 2 0 000-4 2 2 0 000 4zM93 17a2 2 0 100-4 2 2 0 000 4zM98 17a2 2 0 100-4 2 2 0 000 4zM103 17a2 2 0 100-4 2 2 0 000 4zM108 17a2 2 0 000-4 2 2 0 000 4zM113 17a2 2 0 000-4 2 2 0 000 4zM119 17a2 2 0 000-3 2 2 0 000 3zM124 17a2 2 0 000-3 2 2 0 000 3zM129 17a2 2 0 100-3 2 2 0 000 3zM134 17a2 2 0 100-3 2 2 0 000 3zM139 17a2 2 0 100-3 2 2 0 000 3zM144 17l2-2-2-1-1 1 1 2zM149 17l2-2-2-1-1 1 1 2zM155 16a1 1 0 100-2 1 1 0 000 2zM160 16a1 1 0 100-2 1 1 0 000 2zM165 16l1-1-1-1-1 1 1 1zM170 16l1-1-1-1-1 1 1 1zM175 16a1 1 0 100-2 1 1 0 000 2zM180 16l1-1-1-1-1 1 1 1zM185 16l1-1-1-1-1 1 1 1zM191 16a1 1 0 100-2 1 1 0 000 2zM196 16v-1-1l-1 1 1 1zM201 16a1 1 0 100-1 1 1 0 000 1zM206 16a1 1 0 100-1 1 1 0 000 1zM211 16l1-1h-1-1l1 1zM216 16v-1 1zM221 16v-1 1zM227 16v-1 1zM232 16v-1h-1l1 1zM237 15zM242 15zM247 15zM391 15zM396 15zM401 15zM407 16v-1h-1l1 1zM0 23a3 3 0 100-5 3 3 0 000 5z"/>
    <path d="M5 23a3 3 0 100-5 3 3 0 000 5z"/>
    <path d="M11 23a3 3 0 100-5 3 3 0 000 5z"/>
    <path d="M16 23a3 3 0 100-5 3 3 0 000 5z"/>
    <path d="M21 23a3 3 0 100-5 3 3 0 000 5z"/>
    <path d="M26 23a3 3 0 100-5 3 3 0 000 5z"/>
    <path d="M31 23a3 3 0 100-5 3 3 0 000 5z"/>
    <path d="M36 23a3 3 0 100-5 3 3 0 100 5z"/>
    <path d="M41 23a3 3 0 100-5 3 3 0 100 5z"/>
    <path d="M47 23a2 2 0 100-5 2 2 0 000 5z"/>
    <path d="M52 23a2 2 0 100-5 2 2 0 000 5z"/>
    <path d="M57 23a2 2 0 100-5 2 2 0 000 5z"/>
    <path d="M62 23a2 2 0 100-5 2 2 0 000 5z"/>
    <path d="M67 23a2 2 0 100-5 2 2 0 000 5zM72 22a2 2 0 100-4 2 2 0 000 4zM77 22a2 2 0 100-4 2 2 0 000 4zM83 22a2 2 0 100-4 2 2 0 000 4zM88 22a2 2 0 000-4l-2 2 2 2zM93 22a2 2 0 100-4 2 2 0 000 4zM98 22a2 2 0 100-4 2 2 0 000 4zM103 22a2 2 0 100-4 2 2 0 000 4zM108 22a2 2 0 100-3 2 2 0 000 3zM113 22a2 2 0 100-3 2 2 0 000 3zM119 22a2 2 0 100-3 2 2 0 000 3zM124 22a2 2 0 100-3 2 2 0 000 3zM129 22a2 2 0 100-3 2 2 0 000 3zM134 22a2 2 0 100-3 2 2 0 000 3zM139 22l2-2-2-1-1 1 1 2zM144 22a1 1 0 100-3 1 1 0 000 3zM149 22a1 1 0 100-3 1 1 0 000 3zM155 22a1 1 0 100-3 1 1 0 000 3zM160 22l1-2-1-1-2 1 2 2zM165 21a1 1 0 100-2 1 1 0 000 2zM170 21a1 1 0 100-2 1 1 0 000 2zM175 21l1-1-1-1-1 1 1 1zM180 21a1 1 0 100-2 1 1 0 000 2zM185 21l1-1-1-1a1 1 0 000 2zM191 21a1 1 0 100-1 1 1 0 000 1zM196 21a1 1 0 100-1 1 1 0 000 1zM201 21a1 1 0 100-1 1 1 0 000 1zM206 21l1-1h-1-1l1 1zM211 21a1 1 0 100-1 1 1 0 000 1zM216 21l1-1h-1v1zM221 21l1-1h-1v1zM227 21v-1h-1l1 1zM232 21v-1h-1l1 1zM237 20zM242 20zM247 20zM381 20zM386 20zM391 20zM396 21v-1 1zM401 21l1-1h-1v1zM407 21v-1 1zM0 28a3 3 0 100-5 3 3 0 000 5z"/>
    <path d="M5 28a3 3 0 100-5 3 3 0 000 5z"/>
    <path d="M11 28a3 3 0 100-5 3 3 0 000 5z"/>
    <path d="M16 28a3 3 0 100-5 3 3 0 000 5z"/>
    <path d="M21 28a3 3 0 100-5 3 3 0 000 5z"/>
    <path d="M26 28a3 3 0 100-5 3 3 0 000 5z"/>
    <path d="M31 28a3 3 0 100-5 3 3 0 000 5z"/>
    <path d="M36 28a2 2 0 100-5 2 2 0 000 5z"/>
    <path d="M41 28a2 2 0 100-5 2 2 0 000 5zM47 28a2 2 0 100-5 2 2 0 000 5z"/>
    <path d="M52 28a2 2 0 100-5 2 2 0 000 5z"/>
    <path d="M57 28a2 2 0 100-5 2 2 0 000 5z"/>
    <path d="M62 28a2 2 0 100-5 2 2 0 000 5z"/>
    <path d="M67 28a2 2 0 100-5 2 2 0 000 5z"/>
    <path d="M72 28a2 2 0 100-5 2 2 0 000 5z"/>
    <path d="M77 28a2 2 0 100-5 2 2 0 000 5zM83 27a2 2 0 100-3 2 2 0 000 3zM88 27a2 2 0 100-3 2 2 0 000 3zM93 27a2 2 0 100-3 2 2 0 000 3zM98 27a2 2 0 100-3 2 2 0 000 3z"/>
    <path d="M103 27a2 2 0 100-3 2 2 0 100 3zM108 27a2 2 0 100-3 2 2 0 000 3zM113 27a2 2 0 100-3 2 2 0 000 3zM119 27a2 2 0 100-3 2 2 0 000 3zM124 27a2 2 0 100-3 2 2 0 000 3zM129 27a1 1 0 100-3 1 1 0 000 3zM134 27a1 1 0 100-3 1 1 0 000 3zM139 27a1 1 0 100-3 1 1 0 000 3zM144 27a1 1 0 100-3 1 1 0 000 3zM149 27a1 1 0 100-3 1 1 0 000 3zM155 27a1 1 0 100-3 1 1 0 000 3zM160 27l1-2-1-1-1 1 1 2zM165 26l1-1h-2l1 1zM170 26l1-1h-2l1 1zM175 26l1-1h-1-1l1 1zM180 26a1 1 0 100-1 1 1 0 000 1zM185 26a1 1 0 100-1 1 1 0 000 1zM191 26v-1h-1l1 1zM196 26v-1h-1l1 1zM201 26v-1h-1l1 1zM206 26v-1h-1l1 1zM211 26v-1 1zM216 26v-1 1zM221 26l1-1h-1v1zM227 26v-1h-1l1 1zM232 26v-1h-1l1 1zM237 26v-1 1zM242 26v-1 1zM371 26v-1h-1l1 1zM376 26v-1 1zM381 26v-1 1zM386 26v-1 1zM391 26v-1 1zM396 26l1-1h-1v1zM401 26l1-1h-1v1zM407 26v-1h-1l1 1zM0 33a3 3 0 100-5 3 3 0 000 5z"/>
    <path d="M5 33a3 3 0 100-5 3 3 0 000 5z"/>
    <path d="M11 33a3 3 0 100-5 3 3 0 000 5z"/>
    <path d="M16 33a3 3 0 100-5 3 3 0 000 5z"/>
    <path d="M21 33a3 3 0 100-5 3 3 0 000 5z"/>
    <path d="M26 33a3 3 0 100-5 3 3 0 000 5z"/>
    <path d="M31 33a3 3 0 100-5 3 3 0 000 5z"/>
    <path d="M36 33a2 2 0 100-5 2 2 0 000 5z"/>
    <path d="M41 33a2 2 0 100-5 2 2 0 000 5zM47 33a2 2 0 100-5 2 2 0 000 5z"/>
    <path d="M52 33a2 2 0 100-5 2 2 0 000 5z"/>
    <path d="M57 33a2 2 0 100-5 2 2 0 000 5z"/>
    <path d="M62 33a2 2 0 100-5 2 2 0 000 5z"/>
    <path d="M67 33a2 2 0 100-5 2 2 0 000 5zM72 33a2 2 0 100-4 2 2 0 000 4zM77 33a2 2 0 100-4 2 2 0 000 4zM83 33a2 2 0 100-4 2 2 0 000 4zM88 33a2 2 0 100-4 2 2 0 000 4zM93 32a2 2 0 100-3 2 2 0 000 3zM98 32a2 2 0 100-3 2 2 0 000 3z"/>
    <path d="M103 32a2 2 0 100-3 2 2 0 100 3zM108 32l2-1-2-2-1 2 1 1zM113 32l2-1-2-2-1 2 1 1zM119 32a2 2 0 100-3 2 2 0 000 3zM124 32a2 2 0 100-3 2 2 0 000 3zM129 32a1 1 0 100-3 1 1 0 000 3zM134 32a1 1 0 100-3 1 1 0 000 3zM139 32a1 1 0 100-3 1 1 0 000 3zM144 32a1 1 0 100-3 1 1 0 000 3zM149 32a1 1 0 100-3 1 1 0 000 3zM155 32a1 1 0 100-2 1 1 0 000 2zM160 32l1-1-1-1-1 1 1 1zM165 32l1-1-1-1-1 1 1 1zM170 32l1-1-1-1-1 1 1 1zM175 32l1-1-1-1-1 1 1 1zM180 31a1 1 0 100-1 1 1 0 000 1zM185 31a1 1 0 100-1 1 1 0 000 1zM191 31v-1l-1 1h1zM196 31v-1l-1 1h1zM201 31v-1l-1 1h1zM206 31v-1l-1 1h1zM211 31v-1 1zM216 31h1l-1-1v1zM221 31h1l-1-1v1zM227 31v-1l-1 1h1zM232 31v-1l-1 1h1zM237 31zM242 31zM371 31h-1 1zM376 31zM381 31v-1 1zM386 31v-1 1zM391 31v-1 1zM396 31h1l-1-1v1zM401 31h1l-1-1v1zM407 31v-1l-1 1h1zM0 38a3 3 0 100-5 3 3 0 000 5z"/>
    <path d="M5 38a3 3 0 100-5 3 3 0 000 5z"/>
    <path d="M11 38a3 3 0 100-5 3 3 0 000 5z"/>
    <path d="M16 38a3 3 0 100-5 3 3 0 000 5z"/>
    <path d="M21 38a3 3 0 100-5 3 3 0 000 5z"/>
    <path d="M26 38a3 3 0 100-5 3 3 0 000 5z"/>
    <path d="M31 38a2 2 0 100-5 2 2 0 000 5z"/>
    <path d="M36 38a2 2 0 100-5 2 2 0 000 5z"/>
    <path d="M41 38a2 2 0 100-5 2 2 0 000 5zM47 38a2 2 0 100-5 2 2 0 000 5z"/>
    <path d="M52 38a2 2 0 100-5 2 2 0 000 5zM57 38a2 2 0 100-4 2 2 0 000 4zM62 38a2 2 0 100-4 2 2 0 000 4zM67 38a2 2 0 100-4 2 2 0 000 4zM72 38a2 2 0 100-4 2 2 0 000 4zM77 38a2 2 0 100-4 2 2 0 000 4zM83 38a2 2 0 100-4 2 2 0 000 4zM88 38a2 2 0 100-4 2 2 0 000 4zM93 38a2 2 0 100-4 2 2 0 000 4zM98 38a2 2 0 100-4 2 2 0 100 4zM103 37a2 2 0 100-3 2 2 0 000 3zM108 37l2-1-2-2-1 2 1 1zM113 37l2-1-2-2-1 2 1 1zM119 37a1 1 0 100-3 1 1 0 000 3zM124 37a1 1 0 100-3 1 1 0 100 3zM129 37a1 1 0 100-3 1 1 0 000 3zM134 37a1 1 0 100-3 1 1 0 000 3zM139 37a1 1 0 100-3 1 1 0 100 3zM144 37a1 1 0 100-2 1 1 0 000 2zM149 37a1 1 0 100-2 1 1 0 000 2zM155 37l1-1a1 1 0 10-1 1zM160 37l1-1a1 1 0 10-1 1zM165 37a1 1 0 100-2 1 1 0 000 2zM170 37a1 1 0 100-2 1 1 0 000 2zM175 37a1 1 0 100-2 1 1 0 000 2zM180 36a1 1 0 100-1 1 1 0 000 1zM185 36a1 1 0 100-1 1 1 0 000 1zM191 36a1 1 0 100-1 1 1 0 000 1zM196 36a1 1 0 100-1 1 1 0 000 1zM201 36v-1l-1 1h1zM206 36v-1l-1 1h1zM211 36zM216 36zM221 36h0zM227 36zM232 36zM371 36h-1 1zM376 36zM381 36zM386 36zM391 36zM396 36h0zM401 36h0zM407 36a1 1 0 100-1 1 1 0 000 1zM0 44a3 3 0 100-6 3 3 0 000 6z"/>
    <path d="M5 44a3 3 0 100-6 3 3 0 000 6z"/>
    <path d="M11 44a3 3 0 100-6 3 3 0 000 6z"/>
    <path d="M16 44a3 3 0 100-6 3 3 0 000 6zM21 43a3 3 0 100-5 3 3 0 000 5z"/>
    <path d="M26 43a3 3 0 100-5 3 3 0 000 5z"/>
    <path d="M31 43a2 2 0 100-5 2 2 0 000 5zM36 43a2 2 0 100-4 2 2 0 000 4zM41 43a2 2 0 100-4 2 2 0 000 4zM47 43a2 2 0 100-4 2 2 0 000 4zM52 43a2 2 0 100-4 2 2 0 000 4zM57 43a2 2 0 100-4 2 2 0 000 4zM62 43a2 2 0 100-4 2 2 0 000 4zM67 43a2 2 0 000-4 2 2 0 000 4zM72 43a2 2 0 100-4 2 2 0 000 4zM77 43a2 2 0 100-4 2 2 0 000 4zM83 43a2 2 0 100-4 2 2 0 000 4zM88 43a2 2 0 100-4 2 2 0 000 4zM93 43a2 2 0 100-4 2 2 0 000 4zM98 43a2 2 0 100-4 2 2 0 000 4zM103 43a2 2 0 000-4 2 2 0 000 4zM108 42a2 2 0 100-3 2 2 0 000 3zM113 42a2 2 0 100-3 2 2 0 000 3zM119 42a1 1 0 100-3 1 1 0 000 3zM124 42a1 1 0 100-3 1 1 0 000 3zM129 42l1-1-1-1-2 1 2 1zM134 42l1-1-1-1-1 1 1 1zM139 42l1-1-1-1-1 1 1 1zM144 42l1-1-1-1-1 1 1 1zM149 42l1-1-1-1-1 1 1 1zM155 42l1-1-1-1-1 1 1 1zM160 42l1-1-1-1-1 1 1 1zM165 42a1 1 0 100-2 1 1 0 000 2zM170 42a1 1 0 100-2 1 1 0 000 2zM175 42l1-1-1-1-1 1 1 1zM180 42a1 1 0 100-2 1 1 0 000 2zM185 42a1 1 0 100-2 1 1 0 000 2zM191 41v-1l-1 1h1zM196 41v-1l-1 1h1zM201 41h-1 1zM206 41zM211 41zM216 41zM221 41zM227 41h-1 1zM232 41zM371 41h-1 1zM376 41zM381 41zM386 41zM391 41zM396 41h1l-1-1v1zM401 41h1l-1-1v1zM407 41a1 1 0 10-1 0h1zM0 49a3 3 0 100-6 3 3 0 000 6z"/>
    <path d="M5 49a3 3 0 100-6 3 3 0 000 6zM11 49a3 3 0 100-5 3 3 0 000 5z"/>
    <path d="M16 49a3 3 0 100-5 3 3 0 000 5z"/>
    <path d="M21 48a2 2 0 100-4 2 2 0 000 4zM26 48a2 2 0 100-4 2 2 0 000 4zM31 48a2 2 0 100-4 2 2 0 000 4zM36 48a2 2 0 100-4 2 2 0 000 4zM41 48a2 2 0 100-4 2 2 0 000 4zM47 48a2 2 0 100-4 2 2 0 000 4zM52 48a2 2 0 100-4 2 2 0 000 4zM57 48a2 2 0 100-4 2 2 0 000 4zM62 48a2 2 0 100-4 2 2 0 100 4zM67 48a2 2 0 100-4 2 2 0 000 4zM72 48a2 2 0 100-4 2 2 0 000 4zM77 48a2 2 0 100-4 2 2 0 000 4zM83 48a2 2 0 100-4 2 2 0 000 4zM88 48a2 2 0 100-4 2 2 0 000 4zM93 48a2 2 0 100-4 2 2 0 000 4zM98 48a2 2 0 100-4 2 2 0 000 4zM103 48a2 2 0 100-4 2 2 0 000 4zM108 47a1 1 0 100-2 1 1 0 000 2zM113 48a1 1 0 100-3 1 1 0 000 3zM119 47a1 1 0 100-2 1 1 0 000 2zM124 47a1 1 0 100-2 1 1 0 000 2zM129 47a1 1 0 100-2 1 1 0 000 2zM134 47a1 1 0 100-2 1 1 0 100 2zM139 47a1 1 0 100-2 1 1 0 000 2zM144 47l1-1-1-1-1 1 1 1zM149 47l1-1-1-1-1 1 1 1zM155 47v-1-1l-1 1 1 1zM160 47l1-1-1-1-1 1 1 1zM165 47a1 1 0 100-2 1 1 0 000 2zM170 47a1 1 0 100-2 1 1 0 000 2zM175 47a1 1 0 100-2 1 1 0 000 2zM180 47a1 1 0 100-1v1zM185 47a1 1 0 100-2 1 1 0 000 2zM191 46zM196 46h-1 1zM201 46zM206 46zM211 46zM216 46zM221 46zM360 46zM365 46zM371 46zM376 46h-1 1zM381 46zM386 46zM391 46h0zM396 47a1 1 0 100-2 1 1 0 000 2zM401 47l1-1h-1v1zM407 47a1 1 0 100-2 1 1 0 000 2zM412 47a1 1 0 100-2 1 1 0 000 2zM0 54a3 3 0 100-5 3 3 0 000 5z"/>
    <path d="M5 54a3 3 0 100-5 3 3 0 000 5z"/>
    <path d="M11 54a3 3 0 100-5 3 3 0 000 5z"/>
    <path d="M16 54a3 3 0 100-5 3 3 0 000 5z"/>
    <path d="M21 54a2 2 0 100-5 2 2 0 000 5z"/>
    <path d="M26 54a2 2 0 100-5 2 2 0 000 5z"/>
    <path d="M31 54a2 2 0 100-5 2 2 0 000 5zM36 53a2 2 0 100-4 2 2 0 000 4zM41 53a2 2 0 100-4 2 2 0 000 4zM47 53a2 2 0 100-4 2 2 0 000 4zM52 53a2 2 0 100-4 2 2 0 000 4zM57 53a2 2 0 100-4 2 2 0 100 4zM62 53a2 2 0 100-4 2 2 0 100 4zM67 53a2 2 0 000-4 2 2 0 000 4zM72 53a2 2 0 100-4 2 2 0 000 4zM77 53a2 2 0 100-4 2 2 0 000 4zM83 53a2 2 0 100-4 2 2 0 000 4zM88 53a2 2 0 100-4 2 2 0 000 4zM93 53a2 2 0 100-3 2 2 0 000 3zM98 53a2 2 0 100-3 2 2 0 000 3zM103 53a2 2 0 100-3 2 2 0 000 3zM108 53a1 1 0 100-3 1 1 0 000 3zM113 53a1 1 0 100-3 1 1 0 000 3zM119 53a1 1 0 100-3 1 1 0 000 3zM124 53a1 1 0 100-3 1 1 0 000 3zM129 52a1 1 0 100-2 1 1 0 100 2zM134 52a1 1 0 100-2 1 1 0 100 2zM139 52a1 1 0 100-2 1 1 0 000 2zM144 52l1-1-1-1-1 1 1 1zM149 52l1-1-1-1-1 1 1 1zM155 52v-1-1l-1 1 1 1zM160 52l1-1-1-1-1 1 1 1zM165 52a1 1 0 100-2 1 1 0 000 2zM170 52a1 1 0 100-2 1 1 0 000 2zM175 52a1 1 0 100-2 1 1 0 000 2zM180 52a1 1 0 100-1 1 1 0 000 1zM185 52a1 1 0 100-1 1 1 0 000 1zM191 52v-1h-1l1 1zM196 52v-1h-1l1 1zM201 51zM206 51zM211 51zM216 51zM221 51zM360 51zM365 51zM371 51h-1 1zM376 51h-1 1zM381 52v-1h-1l1 1zM386 52v-1 1zM391 52l1-1h-1v1zM396 52l1-1h-1v1zM401 52l1-1h-1v1zM407 52a1 1 0 100-1 1 1 0 000 1zM412 52a1 1 0 100-1 1 1 0 000 1zM0 59a3 3 0 100-5 3 3 0 000 5z"/>
    <path d="M5 59a3 3 0 100-5 3 3 0 000 5z"/>
    <path d="M11 59a2 2 0 100-5 2 2 0 000 5z"/>
    <path d="M16 59a2 2 0 100-5 2 2 0 000 5z"/>
    <path d="M21 59a2 2 0 100-5 2 2 0 000 5z"/>
    <path d="M26 59a2 2 0 100-5 2 2 0 000 5z"/>
    <path d="M31 59a2 2 0 100-5 2 2 0 000 5z"/>
    <path d="M36 59a2 2 0 100-5 2 2 0 000 5z"/>
    <path d="M41 59a2 2 0 100-5 2 2 0 000 5zM47 58a2 2 0 100-4 2 2 0 000 4zM52 58c1 0 2 0 2-2a2 2 0 10-2 2zM57 58a2 2 0 100-4 2 2 0 000 4zM62 58a2 2 0 100-4 2 2 0 000 4zM67 58a2 2 0 100-4 2 2 0 000 4zM72 58a2 2 0 100-3 2 2 0 000 3zM77 58a2 2 0 100-3 2 2 0 000 3zM83 58a2 2 0 100-3 2 2 0 000 3zM88 58a2 2 0 100-3 2 2 0 000 3zM93 58a2 2 0 000-3 2 2 0 000 3zM98 58a2 2 0 000-3 2 2 0 000 3zM103 58a2 2 0 100-3 2 2 0 000 3zM108 58a1 1 0 100-3 1 1 0 000 3zM113 58a1 1 0 100-3 1 1 0 000 3zM119 58a1 1 0 100-3 1 1 0 000 3zM124 58l1-2-1-1-2 1 2 2zM129 58a1 1 0 100-3 1 1 0 000 3zM134 58a1 1 0 100-3 1 1 0 000 3zM139 57a1 1 0 100-2 1 1 0 000 2zM144 57l1-1-1-1-1 1 1 1zM149 57l1-1-1-1-1 1 1 1zM155 57a1 1 0 100-2 1 1 0 000 2zM160 57l1-1-1-1-1 1 1 1zM165 57l1-1h-2l1 1zM170 57l1-1h-1-1l1 1zM175 57l1-1h-1-1l1 1zM180 57a1 1 0 100-1 1 1 0 000 1zM185 57a1 1 0 100-1 1 1 0 000 1zM191 57v-1 1zM196 57v-1h-1l1 1zM201 57v-1 1zM206 57v-1 1zM211 57v-1 1zM216 56zM221 56zM355 56zM360 56zM365 56zM371 57v-1h-1l1 1zM376 57v-1h-1l1 1zM381 57v-1 1zM386 57v-1 1zM391 57l1-1h-1v1zM396 57a1 1 0 100-1 1 1 0 000 1zM401 57a1 1 0 100-1 1 1 0 000 1zM407 57v-1h-1l1 1zM412 57v-1h-1l1 1zM0 64a3 3 0 100-5 3 3 0 000 5z"/>
    <path d="M5 64a3 3 0 100-5 3 3 0 000 5z"/>
    <path d="M11 64a2 2 0 100-5 2 2 0 000 5z"/>
    <path d="M16 64a2 2 0 100-5 2 2 0 000 5z"/>
    <path d="M21 64a2 2 0 100-5 2 2 0 000 5z"/>
    <path d="M26 64a2 2 0 100-5 2 2 0 000 5z"/>
    <path d="M31 64a2 2 0 100-5 2 2 0 000 5z"/>
    <path d="M36 64a2 2 0 100-5 2 2 0 000 5z"/>
    <path d="M41 64a2 2 0 100-5 2 2 0 000 5zM47 64a2 2 0 100-5 2 2 0 000 5zM52 64a2 2 0 000-5l-2 2c0 2 1 3 2 3zM57 63a2 2 0 100-3 2 2 0 000 3zM62 63a2 2 0 100-3 2 2 0 000 3zM67 63a2 2 0 100-3 2 2 0 000 3zM72 63a2 2 0 100-3 2 2 0 000 3zM77 63a2 2 0 100-3 2 2 0 000 3zM83 63a2 2 0 100-3 2 2 0 000 3zM88 63a2 2 0 100-3 2 2 0 000 3zM93 63a2 2 0 100-3 2 2 0 000 3zM98 63a2 2 0 100-3 2 2 0 000 3zM103 63a1 1 0 100-3 1 1 0 000 3zM108 63a1 1 0 100-3 1 1 0 000 3zM113 63a1 1 0 100-3 1 1 0 000 3zM119 63a1 1 0 000-3 1 1 0 000 3zM124 63a1 1 0 000-3 1 1 0 000 3zM129 63a1 1 0 100-3 1 1 0 000 3zM134 63a1 1 0 100-3 1 1 0 000 3zM139 62l1-1-1-1-1 1 1 1zM144 62a1 1 0 100-1 1 1 0 000 1zM149 62a1 1 0 100-1 1 1 0 000 1zM155 62a1 1 0 100-1 1 1 0 000 1zM160 62a1 1 0 100-1 1 1 0 100 1zM165 62v-1h-1l1 1zM170 62l1-1h-1-1l1 1zM175 62a1 1 0 100-1 1 1 0 000 1zM180 62v-1 1zM185 62v-1 1zM191 62v-1 1zM196 62v-1h-1l1 1zM201 62v-1 1zM206 62v-1 1zM211 62v-1 1zM345 62v-1 1zM350 62v-1 1zM355 62v-1 1zM360 62v-1 1zM365 62v-1 1zM371 62v-1 1zM376 62v-1h-1l1 1zM381 62v-1h-1l1 1zM386 62v-1h-1l1 1zM391 62a1 1 0 100-1 1 1 0 000 1zM396 62a1 1 0 100-1 1 1 0 000 1zM401 62a1 1 0 100-1 1 1 0 000 1zM407 62a1 1 0 100-1 1 1 0 000 1zM412 62v-1h-1l1 1zM0 69a3 3 0 100-5 3 3 0 000 5z"/>
    <path d="M5 69a3 3 0 100-5 3 3 0 000 5z"/>
    <path d="M11 69a2 2 0 100-5 2 2 0 000 5z"/>
    <path d="M16 69a2 2 0 100-5 2 2 0 000 5z"/>
    <path d="M21 69a2 2 0 100-5 2 2 0 000 5z"/>
    <path d="M26 69a2 2 0 100-5 2 2 0 000 5z"/>
    <path d="M31 69a2 2 0 100-5 2 2 0 000 5z"/>
    <path d="M36 69a2 2 0 100-5 2 2 0 000 5z"/>
    <path d="M41 69a2 2 0 100-5 2 2 0 000 5zM47 69l2-2c0-2-1-2-2-2-2 0-3 1-3 2s1 2 3 2zM52 69l2-2a2 2 0 10-2 2zM57 69a2 2 0 100-4 2 2 0 000 4zM62 69a2 2 0 100-4 2 2 0 000 4zM67 68a2 2 0 100-3 2 2 0 000 3zM72 68a2 2 0 100-3 2 2 0 000 3zM77 68a2 2 0 100-3 2 2 0 000 3zM83 68a2 2 0 100-3 2 2 0 000 3z"/>
    <path d="M88 68l1-1-1-2-2 2 2 1zM93 68a2 2 0 100-3 2 2 0 000 3zM98 68a2 2 0 100-3 2 2 0 000 3zM103 68a1 1 0 100-3 1 1 0 000 3zM108 68a1 1 0 100-3 1 1 0 000 3zM113 68a1 1 0 100-3 1 1 0 000 3zM119 68a1 1 0 000-3 1 1 0 000 3zM124 68a1 1 0 000-3 1 1 0 000 3zM129 68a1 1 0 100-2 1 1 0 000 2zM134 68a1 1 0 100-2 1 1 0 000 2zM139 68l1-1-1-1-1 1 1 1zM144 67a1 1 0 100-1 1 1 0 000 1zM149 67a1 1 0 100-1 1 1 0 000 1zM155 67a1 1 0 100-1 1 1 0 100 1zM160 67a1 1 0 100-1 1 1 0 100 1zM165 67v-1l-1 1h1zM170 67h1l-1-1-1 1h1zM175 67h1l-1-1v1zM180 67v-1 1zM185 67v-1 1zM191 67v-1 1zM196 67v-1l-1 1h1zM201 67v-1 1zM206 67v-1 1zM211 67zM345 67zM350 67zM355 67v-1 1zM360 67v-1 1zM365 67v-1 1zM371 67v-1l-1 1h1zM376 67v-1l-1 1h1zM381 67v-1l-1 1h1zM386 67v-1l-1 1h1zM391 67a1 1 0 100-1 1 1 0 000 1zM396 67a1 1 0 100-1 1 1 0 000 1zM401 67a1 1 0 100-1 1 1 0 000 1zM407 67v-1l-1 1h1zM412 67v-1l-1 1h1zM0 74a2 2 0 100-5 2 2 0 000 5z"/>
    <path d="M5 74a2 2 0 100-5 2 2 0 000 5zM11 74a2 2 0 100-5 2 2 0 000 5z"/>
    <path d="M16 74a2 2 0 100-5 2 2 0 000 5zM21 74a2 2 0 100-4 2 2 0 000 4zM26 74a2 2 0 100-4 2 2 0 000 4zM31 74a2 2 0 100-4 2 2 0 000 4zM36 74a2 2 0 100-4 2 2 0 000 4zM41 74a2 2 0 100-4 2 2 0 000 4zM47 74a2 2 0 100-4 2 2 0 000 4zM52 74a2 2 0 100-4 2 2 0 000 4zM57 74a2 2 0 100-4 2 2 0 000 4zM62 74a2 2 0 100-4 2 2 0 000 4zM67 74a2 2 0 100-4 2 2 0 000 4zM72 73a2 2 0 100-3 2 2 0 000 3zM77 73a2 2 0 100-3 2 2 0 000 3zM83 73a2 2 0 100-3 2 2 0 000 3zM88 73a2 2 0 100-3 2 2 0 000 3zM93 73a1 1 0 100-3 1 1 0 000 3zM98 73l1-1-1-2-1 2 1 1zM103 73a1 1 0 100-3 1 1 0 000 3zM108 73l1-1-1-1-1 1 1 1zM113 73l2-1-2-1-1 1 1 1zM119 73a1 1 0 100-2 1 1 0 000 2zM124 73a1 1 0 100-2 1 1 0 000 2zM129 73a1 1 0 100-2 1 1 0 000 2zM134 73l1-1-1-1-1 1 1 1zM139 73a1 1 0 100-2 1 1 0 000 2zM144 73a1 1 0 100-2 1 1 0 000 2zM149 73l1-1-1-1v2zM155 72a1 1 0 100-1 1 1 0 000 1zM160 72a1 1 0 10-1 0h1zM165 72a1 1 0 100-1 1 1 0 000 1zM170 72a1 1 0 10-1 0h1zM175 72v-1 1zM180 72h1l-1-1v1zM185 72h1l-1-1v1zM191 72h-1 1zM196 72h-1 1zM201 72zM206 72zM345 72zM350 72zM355 72zM360 72v-1 1zM365 72h1l-1-1v1zM371 72v-1 1zM376 72v-1l-1 1h1zM381 72a1 1 0 100-1 1 1 0 000 1zM386 72a1 1 0 10-1 0h1zM391 72a1 1 0 100-1 1 1 0 000 1zM396 73a1 1 0 100-2 1 1 0 100 2zM401 73a1 1 0 100-2 1 1 0 100 2zM407 73a1 1 0 100-2 1 1 0 000 2zM412 73a1 1 0 100-2 1 1 0 000 2zM0 79a2 2 0 100-5 2 2 0 000 5z"/>
    <path d="M5 79a2 2 0 100-5 2 2 0 000 5zM11 79a2 2 0 100-4 2 2 0 100 4zM16 79a2 2 0 100-4 2 2 0 100 4zM21 79a2 2 0 100-4 2 2 0 000 4zM26 79a2 2 0 100-4 2 2 0 000 4zM31 79a2 2 0 100-4 2 2 0 000 4zM36 79a2 2 0 100-4 2 2 0 100 4zM41 79a2 2 0 100-4 2 2 0 100 4zM47 79a2 2 0 100-4 2 2 0 000 4zM52 79a2 2 0 100-4 2 2 0 000 4zM57 79a2 2 0 100-4 2 2 0 000 4zM62 79a2 2 0 100-4 2 2 0 000 4zM67 79a2 2 0 100-4 2 2 0 000 4zM72 79l2-2-2-2-1 2 1 2zM77 79l2-2-2-2-1 2 1 2zM83 78l1-1-1-2-2 2 2 1zM88 78l1-1-1-2-2 2 2 1zM93 78l1-1-1-1-2 1 2 1zM98 78l1-1-1-1-1 1 1 1zM103 78a1 1 0 100-2 1 1 0 000 2zM108 78a1 1 0 100-2 1 1 0 100 2zM113 78a1 1 0 100-2 1 1 0 100 2zM119 78a1 1 0 100-2 1 1 0 000 2zM124 78a1 1 0 100-2 1 1 0 000 2zM129 78a1 1 0 100-2 1 1 0 000 2zM134 78a1 1 0 10-1-1l1 1zM139 78l1-1-1-1-1 1 1 1zM144 78l1-1-1-1-1 1 1 1zM149 78l1-1-1-1v2zM155 78v-1-1l-1 1 1 1zM160 78v-1-1l-1 1 1 1zM165 77v-1l-1 1h1zM170 77v-1l-1 1h1zM175 77h1l-1-1v1zM180 77h0zM185 77h0zM191 77h-1 1zM196 77zM201 77zM206 77zM335 77h-1 1zM340 77zM345 77zM350 77zM355 77zM360 77h0zM365 77h0zM371 77v-1 1zM376 77v-1 1zM381 78v-1-1l-1 1 1 1zM386 78l1-1-1-1-1 1 1 1zM391 78a1 1 0 100-2l-1 1 1 1zM396 78a1 1 0 100-2 1 1 0 000 2zM401 78a1 1 0 100-2 1 1 0 000 2zM407 78v-1-1l-1 1 1 1zM412 78l1-1-1-1-1 1 1 1zM0 84a2 2 0 100-4 2 2 0 000 4zM5 84a2 2 0 100-4 2 2 0 000 4zM11 84a2 2 0 100-4 2 2 0 000 4zM16 84a2 2 0 100-4 2 2 0 000 4zM21 84a2 2 0 100-4 2 2 0 000 4zM26 84a2 2 0 100-4 2 2 0 000 4zM31 84a2 2 0 000-4 2 2 0 000 4zM36 84a2 2 0 100-4 2 2 0 100 4zM41 84a2 2 0 100-4 2 2 0 100 4zM47 84a2 2 0 100-4 2 2 0 000 4zM52 84l2-2-2-2-2 2 2 2zM57 84a2 2 0 100-4 2 2 0 000 4zM62 84a2 2 0 100-4 2 2 0 000 4zM67 84a2 2 0 000-4 2 2 0 000 4zM72 84a2 2 0 100-4 2 2 0 000 4zM77 84a2 2 0 100-4 2 2 0 000 4zM83 83a1 1 0 100-2 1 1 0 000 2zM88 83a1 1 0 100-2 1 1 0 000 2zM93 83a1 1 0 100-2 1 1 0 100 2zM98 83a1 1 0 100-2 1 1 0 100 2zM103 83a1 1 0 100-2 1 1 0 000 2zM108 83l1-1-1-1-1 1 1 1zM113 83l1-1-1-1-1 1 1 1zM119 83a1 1 0 100-2 1 1 0 000 2zM124 83a1 1 0 100-2 1 1 0 000 2zM129 83a1 1 0 100-2 1 1 0 000 2zM134 83a1 1 0 100-2 1 1 0 000 2zM139 83a1 1 0 100-2 1 1 0 000 2zM144 83a1 1 0 100-2 1 1 0 000 2zM149 83a1 1 0 100-2 1 1 0 000 2zM155 83v-1h-1l1 1zM160 83v-1h-1l1 1zM165 82h-1 1zM170 82zM175 82zM180 82zM185 82zM191 82zM196 82zM335 82h-1 1zM340 82zM345 82zM350 82zM355 82zM360 83l1-1h-1v1zM365 83l1-1h-1v1zM371 83a1 1 0 100-2 1 1 0 000 2zM376 83a1 1 0 10-1-1l1 1zM381 83a1 1 0 100-2 1 1 0 000 2zM386 83a1 1 0 100-2 1 1 0 000 2zM391 83a1 1 0 100-2 1 1 0 000 2zM396 83a1 1 0 100-2 1 1 0 000 2zM401 83a1 1 0 100-2 1 1 0 000 2zM407 83a1 1 0 100-2 1 1 0 000 2zM412 83l1-1-1-1-1 1 1 1zM0 90a2 2 0 100-5 2 2 0 000 5z"/>
    <path d="M5 90a2 2 0 100-5 2 2 0 000 5zM11 89a2 2 0 100-4 2 2 0 000 4zM16 89a2 2 0 100-4 2 2 0 000 4zM21 89a2 2 0 100-4 2 2 0 000 4zM26 89a2 2 0 100-4 2 2 0 000 4zM31 89a2 2 0 000-4 2 2 0 000 4zM36 89a2 2 0 100-4 2 2 0 100 4zM41 89a2 2 0 100-4 2 2 0 100 4zM47 89l1-2-1-2c-2 0-2 1-2 2l2 2zM52 89l2-2-2-2-2 2 2 2zM57 89a2 2 0 100-4 2 2 0 000 4zM62 89a2 2 0 100-4 2 2 0 000 4zM67 89a2 2 0 000-3 2 2 0 000 3zM72 89a2 2 0 100-3 2 2 0 000 3zM77 89a2 2 0 100-3 2 2 0 000 3zM83 89a1 1 0 100-3 1 1 0 000 3zM88 89a1 1 0 100-3 1 1 0 000 3zM93 88a1 1 0 100-2 1 1 0 100 2zM98 88a1 1 0 100-2 1 1 0 100 2zM103 88a1 1 0 100-2 1 1 0 000 2zM108 88l1-1-1-1-1 1 1 1zM113 88l1-1-1-1-1 1 1 1zM119 88a1 1 0 100-2 1 1 0 000 2zM124 88a1 1 0 100-2 1 1 0 000 2zM129 88a1 1 0 100-2 1 1 0 000 2zM134 88a1 1 0 100-2 1 1 0 000 2zM139 88a1 1 0 100-2 1 1 0 000 2zM144 88a1 1 0 100-1 1 1 0 000 1zM149 88a1 1 0 100-1 1 1 0 000 1zM155 88v-1h-1l1 1zM160 88v-1h-1l1 1zM165 88l-1-1 1 1zM170 88v-1 1zM175 88v-1 1zM180 87zM185 87zM191 87h-1 1zM196 87zM335 87h-1 1zM340 87zM345 87zM350 87zM355 88v-1 1zM360 88l1-1h-1v1zM365 88l1-1h-1v1zM371 88a1 1 0 100-1 1 1 0 000 1zM376 88a1 1 0 100-1 1 1 0 000 1zM381 88a1 1 0 100-2 1 1 0 000 2zM386 88a1 1 0 100-2 1 1 0 000 2zM391 88a1 1 0 100-2 1 1 0 000 2zM396 88a1 1 0 100-2 1 1 0 000 2zM401 88a1 1 0 100-2 1 1 0 000 2zM407 88l1-1-1-1-1 1 1 1zM412 88l1-1-1-1-1 1 1 1zM0 95a2 2 0 100-5 2 2 0 000 5z"/>
    <path d="M5 95a2 2 0 100-5 2 2 0 000 5zM11 95a2 2 0 100-5 2 2 0 000 5z"/>
    <path d="M16 95a2 2 0 100-5 2 2 0 000 5zM21 94a2 2 0 100-4 2 2 0 000 4zM26 94a2 2 0 100-4 2 2 0 000 4zM31 94a2 2 0 100-4 2 2 0 000 4zM36 94a2 2 0 100-4 2 2 0 000 4zM41 94a2 2 0 100-4 2 2 0 000 4zM47 94a2 2 0 100-3 2 2 0 000 3zM52 94a2 2 0 100-3 2 2 0 000 3zM57 94a2 2 0 000-3 2 2 0 000 3zM62 94a2 2 0 000-3 2 2 0 000 3zM67 94a2 2 0 100-3 2 2 0 000 3zM72 94a2 2 0 100-3 2 2 0 000 3zM77 94a2 2 0 100-3 2 2 0 000 3zM83 94l1-2-1-1-2 1 2 2zM88 94l1-2-1-1-2 1 2 2zM93 94l1-2-1-1-1 1 1 2zM98 94a1 1 0 100-3 1 1 0 000 3zM103 94a1 1 0 000-3 1 1 0 000 3zM108 93a1 1 0 100-2 1 1 0 000 2zM113 93a1 1 0 100-2 1 1 0 000 2zM119 93a1 1 0 100-2 1 1 0 000 2zM124 93a1 1 0 100-2 1 1 0 000 2zM129 93a1 1 0 100-1 1 1 0 000 1zM134 93l1-1h-1-1l1 1zM139 93a1 1 0 100-1h-1l1 1zM144 93l1-1h-1v1zM149 93l1-1h-1v1zM155 93v-1 1zM160 93v-1 1zM165 93v-1h-1l1 1zM170 93v-1 1zM175 93v-1 1zM180 92zM185 92h0zM324 92zM329 92zM335 93v-1 1zM340 93v0zM345 93v-1h-1l1 1zM350 93v-1 1zM355 93v-1 1zM360 93l1-1h-1v1zM365 93l1-1h-1v1zM371 93a1 1 0 100-1 1 1 0 000 1zM376 93v-1h-1l1 1zM381 93a1 1 0 100-1 1 1 0 100 1zM386 93a1 1 0 100-1 1 1 0 100 1zM391 93a1 1 0 100-1 1 1 0 000 1zM396 93l1-1-1-1-1 1 1 1zM401 93l1-1-1-1-1 1 1 1zM407 93a1 1 0 100-2 1 1 0 000 2zM412 93a1 1 0 100-2 1 1 0 000 2zM0 100a2 2 0 100-5 2 2 0 000 5z"/>
    <path d="M5 100a2 2 0 100-5 2 2 0 000 5zM11 100a2 2 0 100-5 2 2 0 000 5z"/>
    <path d="M16 100a2 2 0 100-5 2 2 0 000 5zM21 99a2 2 0 100-4 2 2 0 000 4zM26 99a2 2 0 000-4 2 2 0 000 4zM31 99a2 2 0 100-3 2 2 0 000 3zM36 99a2 2 0 100-3 2 2 0 000 3zM41 99a2 2 0 100-3 2 2 0 000 3zM47 99a2 2 0 100-3 2 2 0 000 3zM52 99a2 2 0 100-3 2 2 0 000 3zM57 99a2 2 0 000-3 2 2 0 000 3zM62 99a2 2 0 000-3 2 2 0 000 3zM67 99a2 2 0 100-3 2 2 0 000 3zM72 99a1 1 0 100-3 1 1 0 000 3zM77 99l2-2-2-1-1 1 1 2zM83 99a1 1 0 100-3 1 1 0 000 3zM88 99a1 1 0 100-3 1 1 0 000 3zM93 99a1 1 0 100-3 1 1 0 000 3zM98 99a1 1 0 10-1-2l1 2zM103 99a1 1 0 000-3l-1 1 1 2zM108 98a1 1 0 100-1 1 1 0 000 1zM113 98a1 1 0 100-1 1 1 0 000 1zM119 98a1 1 0 100-1 1 1 0 000 1zM124 98l1-1h-2l1 1zM129 98a1 1 0 100-1 1 1 0 000 1zM134 98a1 1 0 100-1 1 1 0 000 1zM139 98a1 1 0 100-1 1 1 0 000 1zM144 98l1-1h-1v1zM149 98l1-1h-1v1zM155 98v-1 1zM160 98v-1h-1l1 1zM165 98v-1 1zM170 98v-1 1zM175 98v-1 1zM180 97zM185 97zM319 98v-1 1zM324 98v-1 1zM329 98l1-1h-1v1zM335 98v-1 1zM340 98v-1 1zM345 98v-1h-1l1 1zM350 98v-1 1zM355 98v-1 1zM360 98l1-1h-1v1zM365 98l1-1h-1v1zM371 98a1 1 0 100-1 1 1 0 000 1zM376 98v-1h-1l1 1zM381 98a1 1 0 100-1 1 1 0 000 1zM386 98a1 1 0 100-1 1 1 0 000 1zM391 98l1-1h-1-1l1 1zM396 99a1 1 0 100-3 1 1 0 000 3zM401 99a1 1 0 100-3 1 1 0 000 3zM407 99a1 1 0 100-3 1 1 0 000 3zM412 99a1 1 0 100-3 1 1 0 000 3zM0 105a2 2 0 100-5 2 2 0 000 5z"/>
    <path d="M5 105a2 2 0 100-5 2 2 0 000 5zM11 105a2 2 0 100-4 2 2 0 000 4zM16 105a2 2 0 100-4 2 2 0 000 4zM21 105a2 2 0 000-4 2 2 0 000 4zM26 105a2 2 0 000-4 2 2 0 000 4zM31 105a2 2 0 100-4 2 2 0 000 4zM36 104a2 2 0 100-3 2 2 0 000 3zM41 104a2 2 0 100-3 2 2 0 000 3zM47 104a2 2 0 100-3 2 2 0 000 3zM52 104a2 2 0 100-3 2 2 0 000 3zM57 104a2 2 0 000-3 2 2 0 000 3zM62 104a2 2 0 000-3 2 2 0 000 3zM67 104a2 2 0 100-3 2 2 0 000 3zM72 104l2-1-2-2-1 2 1 1zM77 104l2-1-2-2-1 2 1 1zM83 104a1 1 0 100-3 1 1 0 000 3zM88 104a1 1 0 100-3 1 1 0 000 3zM93 104a1 1 0 100-3 1 1 0 000 3zM98 104a1 1 0 10-1-1l1 1zM103 104a1 1 0 000-2l-1 1 1 1zM108 104a1 1 0 100-2 1 1 0 000 2zM113 104a1 1 0 100-2 1 1 0 000 2zM119 103a1 1 0 100-1 1 1 0 000 1zM124 103h1l-1-1-1 1h1zM129 103h1l-1-1-1 1h1zM134 103h1l-1-1-1 1h1zM139 103h1l-1-1-1 1h1zM144 103h1l-1-1v1zM149 103h1l-1-1v1zM155 103v-1l-1 1h1zM160 103v-1l-1 1h1zM165 103v-1 1zM170 103v-1 1zM175 103v-1 1zM180 103zM185 103zM319 103zM324 103v-1 1zM329 103h1l-1-1v1zM335 103h-1 1zM340 103v-1 1zM345 103v-1l-1 1h1zM350 103v-1 1zM355 103v-1 1zM360 103h1l-1-1v1zM365 103h1l-1-1v1zM371 103a1 1 0 100-1 1 1 0 000 1zM376 103v-1l-1 1h1zM381 103a1 1 0 100-1 1 1 0 000 1zM386 103a1 1 0 100-1 1 1 0 000 1zM391 104l1-1-1-1-1 1 1 1zM396 104a1 1 0 100-2 1 1 0 000 2zM401 104a1 1 0 100-2 1 1 0 000 2zM407 104a1 1 0 100-3 1 1 0 000 3zM412 104a1 1 0 100-3 1 1 0 000 3zM0 110a2 2 0 100-4 2 2 0 000 4zM5 110a2 2 0 100-4 2 2 0 000 4zM11 110a2 2 0 100-4 2 2 0 000 4zM16 110a2 2 0 100-4 2 2 0 000 4zM21 110a2 2 0 100-4 2 2 0 000 4zM26 110a2 2 0 100-4 2 2 0 000 4zM31 110a2 2 0 100-4 2 2 0 000 4zM36 110a2 2 0 100-4 2 2 0 100 4zM41 110a2 2 0 100-4 2 2 0 100 4zM47 109a2 2 0 100-3 2 2 0 000 3zM52 109a2 2 0 100-3 2 2 0 000 3zM57 109a2 2 0 100-3 2 2 0 000 3zM62 109a2 2 0 100-3 2 2 0 000 3zM67 109a1 1 0 100-3 1 1 0 000 3zM72 109a1 1 0 100-3 1 1 0 000 3zM77 109a1 1 0 100-3 1 1 0 000 3zM83 109a1 1 0 100-2 1 1 0 000 2zM88 109a1 1 0 100-2 1 1 0 000 2zM93 109a1 1 0 100-2 1 1 0 000 2zM98 109a1 1 0 100-2 1 1 0 000 2zM103 109l1-1-1-1-1 1 1 1zM108 109a1 1 0 100-2 1 1 0 000 2zM113 109a1 1 0 100-2 1 1 0 000 2zM119 109a1 1 0 100-2 1 1 0 000 2zM124 109a1 1 0 100-2 1 1 0 000 2zM129 108v-1l-1 1h1zM134 108h1l-1-1-1 1h1zM139 108a1 1 0 100-1 1 1 0 000 1zM144 108v-1 1zM149 108v-1 1zM155 108v-1 1zM160 108v-1l-1 1h1zM165 108zM170 108zM175 108zM309 108zM314 108zM319 108zM324 108zM329 108h0zM335 108v-1 1zM340 108v-1l-1 1h1zM345 108v-1l-1 1h1zM350 108v-1l-1 1h1zM355 108h1l-1-1v1zM360 108h1l-1-1v1zM365 108h1l-1-1v1zM371 109a1 1 0 100-2 1 1 0 000 2zM376 109v-1-1l-1 1 1 1zM381 109a1 1 0 100-2 1 1 0 000 2zM386 109l1-1-1-1-1 1 1 1zM391 109a1 1 0 100-2 1 1 0 000 2zM396 109a1 1 0 100-2 1 1 0 000 2zM401 109a1 1 0 100-2 1 1 0 000 2zM407 109a1 1 0 100-2 1 1 0 000 2zM412 109l1-1-1-1-2 1 2 1zM0 115a2 2 0 100-4 2 2 0 000 4zM5 115a2 2 0 100-4 2 2 0 000 4zM11 115a2 2 0 100-4 2 2 0 000 4zM16 115a2 2 0 100-4 2 2 0 000 4zM21 115a2 2 0 100-4 2 2 0 000 4zM26 115a2 2 0 100-4 2 2 0 000 4zM31 115a2 2 0 100-4 2 2 0 000 4zM36 115a2 2 0 000-4 2 2 0 000 4zM41 115a2 2 0 000-4 2 2 0 000 4zM47 114a2 2 0 100-3 2 2 0 000 3zM52 114a2 2 0 100-3 2 2 0 000 3z"/>
    <path d="M57 114l1-1-1-2-2 2 2 1zM62 114l1-1-1-2-1 2 1 1zM67 114a1 1 0 000-2 1 1 0 000 2zM72 114l1-1-1-1-1 1 1 1zM77 114l2-1-2-1-1 1 1 1zM83 114a1 1 0 100-2 1 1 0 000 2zM88 114a1 1 0 100-2 1 1 0 000 2zM93 114l1-1-1-1-1 1 1 1zM98 114l1-1-1-1-1 1 1 1zM103 114a1 1 0 100-2 1 1 0 000 2zM108 114l1-1-1-1-1 1 1 1zM113 114l1-1-1-1v2zM119 114a1 1 0 100-2 1 1 0 000 2zM124 114a1 1 0 10-1-1l1 1zM129 113v-1l-1 1h1zM134 113v-1l-1 1h1zM139 113v-1 1zM144 113h0zM149 113h0zM155 113h-1 1zM160 113h-1 1zM165 113zM170 113zM309 113zM314 113zM319 113zM324 113h0zM329 113h0zM335 113v-1l-1 1h1zM340 113v-1l-1 1h1zM345 113a1 1 0 100-1 1 1 0 000 1zM350 113a1 1 0 10-1 0h1zM355 114l1-1-1-1-1 1 1 1zM360 114a1 1 0 100-2 1 1 0 100 2zM365 114a1 1 0 100-2 1 1 0 100 2zM371 114a1 1 0 100-2 1 1 0 000 2zM376 114a1 1 0 100-2 1 1 0 000 2zM381 114a1 1 0 100-2 1 1 0 000 2zM386 114a1 1 0 100-2 1 1 0 000 2zM391 114l1-1-1-1-1 1 1 1zM396 114a1 1 0 100-2 1 1 0 000 2zM401 114a1 1 0 100-2 1 1 0 000 2zM407 114l1-1-1-1-2 1 2 1zM412 114l1-1-1-1-2 1 2 1zM0 120a2 2 0 100-4 2 2 0 000 4zM5 120a2 2 0 100-4 2 2 0 100 4zM11 120a2 2 0 100-4 2 2 0 000 4zM16 120a2 2 0 100-4 2 2 0 000 4zM21 120a2 2 0 100-4 2 2 0 000 4zM26 120a2 2 0 100-4 2 2 0 000 4zM31 120a2 2 0 100-4 2 2 0 000 4zM36 120a2 2 0 100-4 2 2 0 000 4zM41 120a2 2 0 100-4 2 2 0 000 4zM47 120a2 2 0 100-3 2 2 0 000 3z"/>
    <path d="M52 120l1-2-1-1-2 1 2 2zM57 119a1 1 0 100-2 1 1 0 000 2zM62 119a1 1 0 000-2 1 1 0 000 2zM67 119a1 1 0 100-2 1 1 0 000 2zM72 119a1 1 0 100-2 1 1 0 000 2zM77 119l2-1-2-1-1 1 1 1zM83 119a1 1 0 100-2 1 1 0 000 2zM88 119a1 1 0 100-2 1 1 0 000 2zM93 119a1 1 0 100-2 1 1 0 000 2zM98 119a1 1 0 10-1-1l1 1zM103 119a1 1 0 100-2 1 1 0 000 2zM108 119a1 1 0 100-2 1 1 0 000 2zM113 119a1 1 0 100-2 1 1 0 000 2zM119 119a1 1 0 100-2 1 1 0 000 2zM124 119v-1-1l-1 1 1 1zM129 119v-1 1zM134 119l-1-1 1 1zM139 118h0zM144 118zM149 118zM155 118h-1 1zM160 118zM299 118h-1 1zM304 118zM309 118zM314 118zM319 118zM324 118zM329 118h0zM335 119v-1 1zM340 119l-1-1 1 1zM345 119a1 1 0 100-2 1 1 0 000 2zM350 119l1-1-1-1-1 1 1 1zM355 119a1 1 0 100-2 1 1 0 000 2zM360 119a1 1 0 100-2 1 1 0 000 2zM365 119a1 1 0 100-2 1 1 0 000 2zM371 119a1 1 0 100-2 1 1 0 000 2zM376 119l1-1-1-1-1 1 1 1zM381 119a1 1 0 100-2 1 1 0 000 2zM386 119l1-1-1-1a1 1 0 100 2zM391 119a1 1 0 100-2 1 1 0 000 2zM396 119a1 1 0 100-2 1 1 0 000 2zM401 119a1 1 0 100-2 1 1 0 100 2zM407 119a1 1 0 100-2 1 1 0 000 2zM412 119a1 1 0 100-2 1 1 0 000 2zM0 125a2 2 0 100-4 2 2 0 100 4zM5 125a2 2 0 100-4 2 2 0 100 4zM11 125a2 2 0 100-4 2 2 0 000 4zM16 125a2 2 0 100-4 2 2 0 000 4zM21 125a2 2 0 100-4 2 2 0 000 4zM26 125a2 2 0 100-4 2 2 0 000 4zM31 125a2 2 0 100-4 2 2 0 000 4zM36 125a2 2 0 100-3 2 2 0 000 3zM41 125a2 2 0 100-3 2 2 0 000 3zM47 125l1-2-1-1-2 1 2 2zM52 125l1-2-1-1-2 1 2 2zM57 125a1 1 0 100-3 1 1 0 000 3zM62 125a1 1 0 000-3 1 1 0 000 3zM67 125a1 1 0 100-3 1 1 0 000 3zM72 124l1-1-1-1-1 1 1 1zM77 124l2-1-2-1-1 1 1 1zM83 124a1 1 0 10-2-1l2 1zM88 124a1 1 0 100-2 1 1 0 000 2zM93 124a1 1 0 100-2 1 1 0 000 2zM98 124a1 1 0 10-1-1l1 1zM103 124a1 1 0 000-2l-1 1 1 1zM108 124a1 1 0 100-2 1 1 0 000 2zM113 124a1 1 0 100-2 1 1 0 000 2zM119 124v-1h-1l1 1zM124 124v-1h-1l1 1zM129 124v-1 1zM134 124l-1-1 1 1zM139 124l1-1h-1v1zM144 123zM149 123zM155 123h-1 1zM160 123zM299 123h-1 1zM304 123zM309 123zM314 123zM319 123zM324 124l1-1h-1v1zM329 124l1-1h-1v1zM335 124l-1-1 1 1zM340 124l-1-1 1 1zM345 124v-1h-1l1 1zM350 124l1-1h-1-1l1 1zM355 124a1 1 0 100-1 1 1 0 000 1zM360 124a1 1 0 100-2 1 1 0 000 2zM365 124a1 1 0 100-2 1 1 0 000 2zM371 124a1 1 0 100-2 1 1 0 000 2zM376 124l1-1-1-1-1 1 1 1zM381 124a1 1 0 100-2 1 1 0 000 2zM386 124l1-1-1-1a1 1 0 100 2zM391 124a1 1 0 100-2 1 1 0 000 2zM396 124a1 1 0 100-2 1 1 0 100 2zM401 124a1 1 0 100-2 1 1 0 100 2zM407 125a1 1 0 100-3 1 1 0 000 3zM412 125a1 1 0 100-3 1 1 0 000 3zM0 130a2 2 0 100-4 2 2 0 000 4zM5 130a2 2 0 100-4 2 2 0 000 4zM11 130a2 2 0 100-4 2 2 0 000 4zM16 130a2 2 0 100-4 2 2 0 000 4zM21 130a2 2 0 100-3 2 2 0 000 3zM26 130a2 2 0 100-3 2 2 0 000 3zM31 130a2 2 0 100-3 2 2 0 000 3zM36 130a2 2 0 000-3 2 2 0 000 3zM41 130a2 2 0 000-3 2 2 0 000 3zM47 130a1 1 0 100-3 1 1 0 000 3zM52 130a1 1 0 100-3 1 1 0 000 3zM57 130a1 1 0 100-3 1 1 0 000 3zM62 130a1 1 0 100-3 1 1 0 000 3zM67 130a1 1 0 100-3 1 1 0 000 3zM72 129a1 1 0 100-2 1 1 0 000 2zM77 129a1 1 0 100-2 1 1 0 000 2zM83 129a1 1 0 100-2 1 1 0 000 2zM88 129a1 1 0 100-2 1 1 0 000 2zM93 129l1-1-1-1-1 1 1 1zM98 129l1-1-1-1-1 1 1 1zM103 129a1 1 0 100-2 1 1 0 000 2zM108 129a1 1 0 100-1 1 1 0 000 1zM113 129a1 1 0 100-1 1 1 0 000 1zM119 129a1 1 0 100-1 1 1 0 000 1zM124 129a1 1 0 100-1 1 1 0 000 1zM129 129v-1h-1l1 1zM134 129v-1 1zM139 129v-1 1zM144 129v-1 1zM149 129l1-1h-1v1zM155 128h-1 1zM160 128zM299 128h-1 1zM304 128zM309 129v-1 1zM314 129v-1 1zM319 129v-1 1zM324 129l1-1h-1v1zM329 129l1-1h-1v1zM335 129a1 1 0 100-1 1 1 0 000 1zM340 129v-1h-1l1 1zM345 129a1 1 0 100-1 1 1 0 000 1zM350 129a1 1 0 100-1 1 1 0 000 1zM355 129a1 1 0 100-1 1 1 0 000 1zM360 129a1 1 0 100-2 1 1 0 000 2zM365 129a1 1 0 100-2 1 1 0 000 2zM371 129v-1-1l-1 1 1 1zM376 129l1-1-1-1-1 1 1 1zM381 129a1 1 0 000-2l-1 1 1 1zM386 129a1 1 0 100-2 1 1 0 000 2zM391 129a1 1 0 100-2 1 1 0 000 2zM396 130a1 1 0 100-3 1 1 0 000 3zM401 130a1 1 0 100-3 1 1 0 000 3zM407 130a1 1 0 100-3 1 1 0 000 3zM412 130a1 1 0 000-3 1 1 0 000 3zM0 135a2 2 0 100-3 2 2 0 000 3zM5 135a2 2 0 100-3 2 2 0 000 3zM11 135a2 2 0 100-3 2 2 0 000 3zM16 135a2 2 0 000-3 2 2 0 000 3zM21 135a2 2 0 000-3 2 2 0 000 3zM26 135a2 2 0 000-3 2 2 0 000 3zM31 135l2-2-2-1-2 1 2 2zM36 135a1 1 0 100-3 1 1 0 100 3zM41 135a1 1 0 100-3 1 1 0 100 3zM47 135l1-2-1-1-2 1 2 2zM52 135l1-2-1-1-2 1 2 2zM57 135a1 1 0 100-3 1 1 0 000 3zM62 135a1 1 0 100-3 1 1 0 000 3zM67 135a1 1 0 100-3 1 1 0 000 3zM72 135a1 1 0 100-3 1 1 0 000 3zM77 135a1 1 0 100-3 1 1 0 000 3zM83 134a1 1 0 100-1 1 1 0 000 1zM88 134a1 1 0 100-1 1 1 0 000 1zM93 134a1 1 0 100-1 1 1 0 000 1zM98 134l1-1h-1-1l1 1zM103 134a1 1 0 100-1 1 1 0 000 1zM108 134l1-1h-1v1zM113 134l1-1h-1v1zM119 134v-1h-1l1 1zM124 134v-1h-1l1 1zM129 134v-1 1zM134 134v-1 1zM139 134v0zM144 134v-1 1zM149 134v-1 1zM288 134v-1 1zM293 134v-1 1zM299 134v-1h-1l1 1zM304 134v-1h-1l1 1zM309 134v-1h-1l1 1zM314 134v-1 1zM319 134v-1 1zM324 134a1 1 0 100-1 1 1 0 000 1zM329 134a1 1 0 100-1 1 1 0 000 1zM335 134v-1h-1l1 1zM340 134v-1h-1l1 1zM345 134a1 1 0 100-1 1 1 0 000 1zM350 134a1 1 0 10-1-1l1 1zM355 134a1 1 0 100-1 1 1 0 000 1zM360 134a1 1 0 100-1 1 1 0 000 1zM365 134a1 1 0 100-1 1 1 0 000 1zM371 135a1 1 0 100-3 1 1 0 000 3zM376 135a1 1 0 100-3 1 1 0 000 3zM381 135a1 1 0 000-3 1 1 0 000 3zM386 135a1 1 0 000-3 1 1 0 000 3zM391 135a1 1 0 100-3 1 1 0 000 3zM396 135a1 1 0 100-3 1 1 0 000 3zM401 135a1 1 0 100-3 1 1 0 000 3zM407 135a1 1 0 100-3 1 1 0 000 3zM412 135a1 1 0 100-3 1 1 0 000 3zM0 141a2 2 0 100-4 2 2 0 000 4zM5 141a2 2 0 100-4 2 2 0 000 4zM11 140a2 2 0 000-3 2 2 0 000 3zM16 140a2 2 0 000-3 2 2 0 000 3zM21 140a2 2 0 000-3 2 2 0 000 3zM26 140a2 2 0 000-3 2 2 0 000 3zM31 140l2-1-2-2-2 2 2 1zM36 140a1 1 0 100-3 1 1 0 100 3zM41 140a1 1 0 100-3 1 1 0 100 3zM47 140l1-1-1-2-2 2 2 1zM52 140l1-1-1-2-2 2 2 1zM57 140a1 1 0 100-3 1 1 0 000 3zM62 140a1 1 0 100-3 1 1 0 000 3zM67 140a1 1 0 100-3 1 1 0 000 3zM72 140a1 1 0 100-2 1 1 0 000 2zM77 140a1 1 0 100-2 1 1 0 000 2zM83 140v-1-1l-1 1 1 1zM88 140l1-1-1-1-1 1 1 1zM93 139h1l-1-1-1 1h1zM98 139h1l-1-1-1 1h1zM103 139a1 1 0 100-1 1 1 0 000 1zM108 139h1l-1-1v1zM113 139h1l-1-1v1zM119 139v-1l-1 1h1zM124 139v-1l-1 1h1zM129 139v-1 1zM134 139v-1 1zM139 139v0zM144 139zM149 139zM288 139zM293 139zM299 139v-1l-1 1h1zM304 139v-1l-1 1h1zM309 139v-1l-1 1h1zM314 139v-1 1zM319 139zM324 139a1 1 0 100-1 1 1 0 000 1zM329 139a1 1 0 100-1 1 1 0 000 1zM335 139v-1l-1 1h1zM340 139v-1l-1 1h1zM345 139a1 1 0 100-1 1 1 0 000 1zM350 139a1 1 0 10-1 0h1zM355 139h1l-1-1-1 1h1zM360 140a1 1 0 100-2 1 1 0 000 2zM365 140a1 1 0 100-2 1 1 0 000 2zM371 140a1 1 0 100-2 1 1 0 000 2zM376 140a1 1 0 100-2 1 1 0 000 2zM381 140a1 1 0 000-3 1 1 0 000 3zM386 140a1 1 0 000-3 1 1 0 000 3zM391 140a1 1 0 100-3 1 1 0 000 3zM396 140a1 1 0 100-3 1 1 0 000 3zM401 140a1 1 0 100-3 1 1 0 000 3zM407 140a1 1 0 100-3 1 1 0 000 3zM412 140a1 1 0 100-3 1 1 0 000 3zM0 146a2 2 0 100-4 2 2 0 000 4zM5 146a2 2 0 100-4 2 2 0 000 4zM11 145a2 2 0 100-3 2 2 0 000 3zM16 145a2 2 0 100-3 2 2 0 000 3zM21 145a2 2 0 100-3 2 2 0 000 3zM26 145a2 2 0 100-3 2 2 0 000 3zM31 145a2 2 0 100-3 2 2 0 000 3zM36 145l2-1-2-2-1 2 1 1zM41 145l2-1-2-2-1 2 1 1zM47 145a1 1 0 100-3 1 1 0 000 3zM52 145l1-1-1-2-2 2 2 1zM57 145a1 1 0 100-2 1 1 0 000 2zM62 145l1-1-1-1-1 1 1 1zM67 145a1 1 0 100-2 1 1 0 000 2zM72 145l1-1-1-1-1 1 1 1zM77 145l1-1-1-1-1 1 1 1zM83 145a1 1 0 100-2 1 1 0 000 2zM88 145a1 1 0 100-2 1 1 0 000 2zM93 145a1 1 0 100-2 1 1 0 000 2zM98 145a1 1 0 100-2 1 1 0 100 2zM103 144a1 1 0 100-1 1 1 0 000 1zM108 144a1 1 0 100-1 1 1 0 000 1zM113 144h1l-1-1v1zM119 144v-1 1zM124 144v-1l-1 1h1zM129 144v-1 1zM134 144v-1 1zM139 144zM144 144zM149 144zM288 144zM293 144zM299 144zM304 144h-1 1zM309 144v-1 1zM314 144v-1 1zM319 144h1l-1-1v1zM324 144a1 1 0 100-1 1 1 0 000 1zM329 144a1 1 0 100-1 1 1 0 000 1zM335 144a1 1 0 100-1 1 1 0 000 1zM340 144a1 1 0 100-1 1 1 0 000 1zM345 145a1 1 0 100-2 1 1 0 000 2zM350 145l1-1-1-1-1 1 1 1zM355 145a1 1 0 100-2 1 1 0 000 2zM360 145a1 1 0 100-2 1 1 0 000 2zM365 145a1 1 0 100-2 1 1 0 000 2zM371 145a1 1 0 100-2 1 1 0 000 2zM376 145l1-1-1-1-1 1 1 1zM381 145a1 1 0 100-2 1 1 0 000 2zM386 145a1 1 0 100-2 1 1 0 000 2zM391 145a1 1 0 100-3 1 1 0 000 3zM396 145a1 1 0 100-3 1 1 0 000 3zM401 145l2-1-2-2-1 2 1 1zM407 145a2 2 0 100-3 2 2 0 000 3z"/>
    <path d="M412 145l1-1-1-2-2 2 2 1zM0 151a2 2 0 100-4 2 2 0 100 4zM5 151a2 2 0 100-4 2 2 0 100 4zM11 151l1-2-1-2-2 2 2 2zM16 151l1-2-1-2-2 2 2 2zM21 150a2 2 0 100-3 2 2 0 000 3zM26 150a2 2 0 100-3 2 2 0 000 3zM31 150a1 1 0 100-3 1 1 0 000 3zM36 150a1 1 0 100-2 1 1 0 000 2zM41 150a1 1 0 100-2 1 1 0 000 2zM47 150a1 1 0 100-2 1 1 0 100 2zM52 150a1 1 0 100-2 1 1 0 100 2zM57 150a1 1 0 000-2l-1 1 1 1zM62 150a1 1 0 100-2 1 1 0 000 2zM67 150a1 1 0 100-2 1 1 0 000 2zM72 150l1-1-1-1-1 1 1 1zM77 150l1-1-1-1-1 1 1 1zM83 150v-1-1l-1 1 1 1zM88 150v-1-1l-1 1 1 1zM93 150v-1-1l-1 1 1 1zM98 150l1-1-1-1-1 1 1 1zM103 149a1 1 0 100-1 1 1 0 000 1zM108 149h1l-1-1v1zM113 149h1l-1-1v1zM119 149h-1 1zM124 149h-1 1zM129 149zM134 149zM139 149zM273 149zM278 149zM283 149zM288 149zM293 149h0zM299 149h-1 1zM304 149h-1 1zM309 149v-1 1zM314 149v-1 1zM319 149h1l-1-1v1zM324 150l1-1-1-1a1 1 0 100 2zM329 150l1-1-1-1v2zM335 150a1 1 0 100-2 1 1 0 000 2zM340 150a1 1 0 100-2 1 1 0 000 2zM345 150l1-1-1-1-1 1 1 1zM350 150l1-1-1-1-1 1 1 1zM355 150l1-1-1-1-1 1 1 1zM360 150a1 1 0 100-2 1 1 0 000 2zM365 150a1 1 0 100-2 1 1 0 000 2zM371 150l1-1-1-1-2 1 2 1zM376 150l1-1-1-1-2 1 2 1zM381 150a1 1 0 100-2 1 1 0 000 2zM386 150a1 1 0 100-2 1 1 0 000 2zM391 150a1 1 0 000-2 1 1 0 000 2zM396 150a1 1 0 100-3 1 1 0 000 3zM401 150a1 1 0 100-3 1 1 0 000 3zM407 151a2 2 0 100-4 2 2 0 000 4zM412 151a2 2 0 100-4 2 2 0 000 4zM0 156a2 2 0 100-4 2 2 0 000 4zM5 156a2 2 0 100-4 2 2 0 000 4zM11 156a2 2 0 100-4 2 2 0 000 4zM16 156l1-2-1-2-2 2 2 2zM21 156a1 1 0 100-3 1 1 0 000 3zM26 156a1 1 0 100-3 1 1 0 000 3zM31 155a1 1 0 10-1-1l1 1zM36 155a1 1 0 100-2 1 1 0 100 2zM41 155a1 1 0 100-2 1 1 0 100 2zM47 155a1 1 0 100-2 1 1 0 000 2zM52 155a1 1 0 100-2 1 1 0 000 2zM57 155l1-1-1-1-1 1 1 1zM62 155l1-1-1-1-1 1 1 1zM67 155l1-1-1-1-1 1 1 1zM72 155a1 1 0 100-2 1 1 0 000 2zM77 155a1 1 0 100-2 1 1 0 000 2zM83 155v-1-1l-1 1 1 1zM88 155v-1-1l-1 1 1 1zM93 155a1 1 0 100-2 1 1 0 000 2zM98 155a1 1 0 100-2 1 1 0 000 2zM103 155a1 1 0 100-1 1 1 0 000 1zM108 154h0zM113 154h0zM119 154zM124 154h-1 1zM129 154zM134 154zM139 154zM273 154zM278 154zM283 154zM288 154h0zM293 154h0zM299 154zM304 154h-1 1zM309 155a1 1 0 100-1 1 1 0 000 1zM314 155a1 1 0 100-1 1 1 0 000 1zM319 155a1 1 0 100-2 1 1 0 000 2zM324 155l1-1-1-1v2zM329 155l1-1-1-1v2zM335 155a1 1 0 100-2 1 1 0 000 2zM340 155a1 1 0 100-2 1 1 0 100 2zM345 155a1 1 0 100-2 1 1 0 000 2zM350 155a1 1 0 10-1-1l1 1zM355 155l1-1-1-1-1 1 1 1zM360 155a1 1 0 100-2 1 1 0 000 2zM365 155a1 1 0 100-2 1 1 0 000 2zM371 155a1 1 0 100-2 1 1 0 000 2zM376 155a1 1 0 100-2 1 1 0 000 2zM381 155l1-1-1-1-2 1 2 1zM386 155l1-1-1-1-1 1 1 1zM391 155a1 1 0 100-2 1 1 0 000 2zM396 156a2 2 0 100-4 2 2 0 000 4zM401 156a2 2 0 100-3 2 2 0 000 3zM407 156a2 2 0 100-4 2 2 0 000 4zM412 156a2 2 0 100-4 2 2 0 000 4zM0 161a2 2 0 100-4 2 2 0 000 4zM5 161a2 2 0 100-4 2 2 0 000 4zM11 161l1-2-1-1-2 1 2 2zM16 161l1-2-1-1-2 1 2 2zM21 161a1 1 0 100-3 1 1 0 000 3zM26 161a1 1 0 100-3 1 1 0 000 3zM31 161a1 1 0 10-1-2l1 2zM36 160a1 1 0 100-2 1 1 0 100 2zM41 160a1 1 0 100-2 1 1 0 100 2zM47 160a1 1 0 100-2 1 1 0 000 2zM52 160a1 1 0 100-2 1 1 0 000 2zM57 160l1-1-1-1-1 1 1 1zM62 160l1-1-1-1-1 1 1 1zM67 160l1-1-1-1-1 1 1 1zM72 160a1 1 0 100-2 1 1 0 000 2zM77 160a1 1 0 100-2 1 1 0 000 2zM83 160v-1-1l-1 1 1 1zM88 160v-1-1l-1 1 1 1zM93 160a1 1 0 100-1 1 1 0 000 1zM98 160a1 1 0 100-1 1 1 0 000 1zM103 160a1 1 0 100-1 1 1 0 000 1zM108 160l1-1h-1v1zM113 160v-1 1zM119 159h-1 1zM124 159h-1 1zM129 159zM134 159zM139 159zM273 159zM278 159zM283 159zM288 159h0zM293 159h0zM299 160v-1 1zM304 160v-1h-1l1 1zM309 160a1 1 0 100-1 1 1 0 000 1zM314 160a1 1 0 100-1 1 1 0 000 1zM319 160a1 1 0 100-1 1 1 0 000 1zM324 160l1-1-1-1v2zM329 160l1-1-1-1v2zM335 160a1 1 0 100-2 1 1 0 100 2zM340 160a1 1 0 100-2 1 1 0 100 2zM345 160a1 1 0 100-2 1 1 0 000 2zM350 160a1 1 0 10-1-1l1 1zM355 160l1-1-1-1-1 1 1 1zM360 160a1 1 0 100-2 1 1 0 000 2zM365 160a1 1 0 100-2 1 1 0 000 2zM371 160a1 1 0 100-2 1 1 0 000 2zM376 160a1 1 0 100-2 1 1 0 000 2zM381 161l1-2-1-1-2 1 2 2zM386 161l1-2-1-1-1 1 1 2zM391 161a1 1 0 100-3 1 1 0 000 3zM396 161a2 2 0 100-3 2 2 0 000 3zM401 161a2 2 0 100-3 2 2 0 000 3zM407 161a2 2 0 100-3 2 2 0 000 3zM412 161a2 2 0 100-3 2 2 0 000 3zM0 166a2 2 0 000-3 2 2 0 000 3zM5 166a2 2 0 000-3 2 2 0 000 3zM11 166a2 2 0 100-3 2 2 0 000 3zM16 166a2 2 0 100-3 2 2 0 000 3zM21 166a1 1 0 100-3 1 1 0 000 3zM26 166a1 1 0 100-3 1 1 0 000 3zM31 166l1-2-1-1-1 1 1 2zM36 166a1 1 0 100-3 1 1 0 000 3zM41 166a1 1 0 100-3 1 1 0 000 3zM47 165l1-1-1-1-2 1 2 1zM52 165l1-1-1-1-1 1 1 1zM57 165a1 1 0 100-2 1 1 0 000 2zM62 165a1 1 0 100-2 1 1 0 000 2zM67 165l1-1-1-1a1 1 0 100 2zM72 165a1 1 0 100-1 1 1 0 000 1zM77 165a1 1 0 100-1 1 1 0 000 1zM83 165a1 1 0 100-1 1 1 0 000 1zM88 165a1 1 0 100-1 1 1 0 000 1zM93 165v-1h-1l1 1zM98 165v-1h-1l1 1zM103 165v-1 1zM108 165v-1 1zM113 165v-1 1zM119 165v-1 1zM124 165v0zM129 164zM134 164zM273 164zM278 164zM283 165v-1 1zM288 165l1-1h-1v1zM293 165l1-1h-1v1zM299 165v-1 1zM304 165v-1h-1l1 1zM309 165a1 1 0 100-1 1 1 0 000 1zM314 165a1 1 0 100-1 1 1 0 000 1zM319 165a1 1 0 100-1 1 1 0 000 1zM324 165a1 1 0 100-1 1 1 0 000 1zM329 165a1 1 0 100-1 1 1 0 000 1zM335 165a1 1 0 100-2 1 1 0 000 2zM340 165l1-1-1-1a1 1 0 000 2zM345 165l1-1-1-1-1 1 1 1zM350 165l1-1-1-1-1 1 1 1zM355 165a1 1 0 100-2 1 1 0 000 2zM360 166a1 1 0 100-3 1 1 0 000 3zM365 166a1 1 0 100-3 1 1 0 000 3zM371 166a1 1 0 100-3 1 1 0 100 3zM376 166a1 1 0 100-3 1 1 0 100 3zM381 166a1 1 0 100-3 1 1 0 000 3zM386 166a1 1 0 100-3 1 1 0 000 3zM391 166a1 1 0 100-3 1 1 0 000 3zM396 166a2 2 0 000-3 2 2 0 000 3zM401 166a2 2 0 000-3 2 2 0 000 3zM407 166a2 2 0 100-3 2 2 0 000 3zM412 166a2 2 0 100-3 2 2 0 000 3zM0 171a2 2 0 100-3 2 2 0 000 3zM5 171a2 2 0 100-3 2 2 0 000 3zM11 171a1 1 0 100-3 1 1 0 000 3zM16 171a1 1 0 100-3 1 1 0 000 3zM21 171a1 1 0 100-3 1 1 0 000 3zM26 171a1 1 0 100-3 1 1 0 000 3zM31 171a1 1 0 100-3 1 1 0 000 3zM36 171a1 1 0 100-3 1 1 0 000 3zM41 171a1 1 0 100-3 1 1 0 000 3zM47 170a1 1 0 100-2 1 1 0 000 2zM52 170l1-1-1-1-1 1 1 1zM57 170a1 1 0 100-1 1 1 0 000 1zM62 170l1-1h-2l1 1zM67 170a1 1 0 100-1 1 1 0 100 1zM72 170a1 1 0 100-1 1 1 0 000 1zM77 170a1 1 0 100-1 1 1 0 000 1zM83 170a1 1 0 100-1 1 1 0 000 1zM88 170a1 1 0 100-1 1 1 0 000 1zM93 170v-1 1zM98 170v-1 1zM103 170v-1 1zM108 170v-1 1zM113 170v-1 1zM119 170v-1h-1l1 1zM124 170v-1 1zM263 170v-1h-1l1 1zM268 170v-1 1zM273 170v-1 1zM278 170v-1 1zM283 170v-1 1zM288 170l1-1h-1v1zM293 170l1-1h-1v1zM299 170a1 1 0 100-1 1 1 0 000 1zM304 170v-1h-1l1 1zM309 170a1 1 0 100-1 1 1 0 000 1zM314 170a1 1 0 100-1 1 1 0 000 1zM319 170a1 1 0 100-1 1 1 0 000 1zM324 170a1 1 0 100-1 1 1 0 000 1zM329 170a1 1 0 100-1v1zM335 170v-1h-1l1 1zM340 170l1-1h-2l1 1zM345 171a1 1 0 100-3 1 1 0 000 3zM350 171a1 1 0 100-3 1 1 0 000 3zM355 171a1 1 0 100-3 1 1 0 000 3zM360 171a1 1 0 100-3 1 1 0 000 3zM365 171a1 1 0 100-3 1 1 0 000 3zM371 171a1 1 0 100-3 1 1 0 000 3zM376 171l1-2-1-1-2 1 2 2zM381 171l1-2-1-1-2 1 2 2zM386 171l1-2-1-1-2 1 2 2zM391 171a2 2 0 100-3 2 2 0 000 3zM396 171a2 2 0 100-3 2 2 0 000 3zM401 171a2 2 0 100-3 2 2 0 000 3zM407 171a2 2 0 100-3 2 2 0 000 3zM412 171a2 2 0 100-3 2 2 0 000 3zM0 176a2 2 0 100-3 2 2 0 000 3zM5 176a2 2 0 100-3 2 2 0 000 3zM11 176a1 1 0 100-3 1 1 0 000 3zM16 176a1 1 0 100-3 1 1 0 000 3zM21 176a1 1 0 100-3 1 1 0 000 3zM26 176a1 1 0 100-3 1 1 0 000 3zM31 176a1 1 0 100-3 1 1 0 000 3zM36 176a1 1 0 100-3 1 1 0 000 3zM41 176a1 1 0 100-3 1 1 0 000 3zM47 176l1-1-1-1-1 1 1 1zM52 176l1-1-1-1-1 1 1 1zM57 176a1 1 0 000-2l-1 1 1 1zM62 176a1 1 0 10-1-1l1 1zM67 175a1 1 0 100-1 1 1 0 100 1zM72 175a1 1 0 100-1 1 1 0 000 1zM77 175a1 1 0 100-1 1 1 0 000 1zM83 175a1 1 0 10-1 0h1zM88 175a1 1 0 100-1 1 1 0 000 1zM93 175v-1l-1 1h1zM98 175v-1 1zM103 175v-1 1zM108 175v-1 1zM113 175h1l-1-1v1zM119 175h-1 1zM124 175zM263 175h-1 1zM268 175zM273 175v-1 1zM278 175v-1 1zM283 175v-1 1zM288 175h1l-1-1v1zM293 175h1l-1-1v1zM299 175v-1l-1 1h1zM304 175v-1l-1 1h1zM309 175a1 1 0 100-1 1 1 0 000 1zM314 175a1 1 0 100-1 1 1 0 000 1zM319 175a1 1 0 100-1 1 1 0 000 1zM324 175a1 1 0 100-1 1 1 0 000 1zM329 175a1 1 0 100-1 1 1 0 000 1zM335 176v-1-1l-1 1 1 1zM340 176l1-1-1-1-1 1 1 1zM345 176a1 1 0 100-2 1 1 0 000 2zM350 176a1 1 0 100-2 1 1 0 000 2zM355 176a1 1 0 100-3 1 1 0 000 3zM360 176a1 1 0 100-3 1 1 0 000 3zM365 176a1 1 0 100-3 1 1 0 000 3zM371 176l1-1-1-2-2 2 2 1zM376 176l1-1-1-2-2 2 2 1zM381 176l1-1-1-2-2 2 2 1zM386 176l1-1-1-2-2 2 2 1zM391 176a2 2 0 100-3 2 2 0 000 3zM396 176a2 2 0 100-3 2 2 0 000 3zM401 176a2 2 0 100-3 2 2 0 000 3zM407 176a2 2 0 100-3 2 2 0 000 3zM412 176a2 2 0 100-3 2 2 0 000 3zM0 181a2 2 0 100-3 2 2 0 000 3zM5 181a2 2 0 100-3 2 2 0 000 3zM11 181a1 1 0 100-3 1 1 0 000 3zM16 181l1-1-1-2-2 2 2 1zM21 181a1 1 0 100-3 1 1 0 000 3zM26 181a1 1 0 100-3 1 1 0 000 3zM31 181a1 1 0 100-2 1 1 0 000 2zM36 181a1 1 0 100-2 1 1 0 000 2zM41 181a1 1 0 100-2 1 1 0 000 2zM47 181v-1-1l-1 1 1 1zM52 181l1-1-1-1-1 1 1 1zM57 181a1 1 0 100-2 1 1 0 000 2zM62 181a1 1 0 100-2 1 1 0 000 2zM67 181a1 1 0 100-2 1 1 0 000 2zM72 180h1l-1-1v1zM77 180h1l-1-1v1zM83 180a1 1 0 100-1 1 1 0 000 1zM88 180v-1l-1 1h1zM93 180v-1 1zM98 180v-1 1zM103 180v-1 1zM108 180zM113 180h0zM119 180zM124 180zM252 180zM257 180zM263 180h-1 1zM268 180zM273 180v-1 1zM278 180zM283 180v-1 1zM288 180v-1 1zM293 180v-1 1zM299 180a1 1 0 100-1 1 1 0 000 1zM304 180v-1l-1 1h1zM309 180h1l-1-1-1 1h1zM314 180h1l-1-1-1 1h1zM319 181a1 1 0 100-2 1 1 0 000 2zM324 181l1-1-1-1-1 1 1 1zM329 181l1-1-1-1-1 1 1 1zM335 181a1 1 0 100-2 1 1 0 000 2zM340 181a1 1 0 100-2 1 1 0 000 2zM345 181a1 1 0 100-2 1 1 0 000 2zM350 181a1 1 0 100-2 1 1 0 000 2zM355 181a1 1 0 100-2 1 1 0 000 2zM360 181a1 1 0 100-3 1 1 0 000 3zM365 181a1 1 0 100-3 1 1 0 000 3zM371 181a1 1 0 100-3 1 1 0 000 3zM376 181l1-1-1-2-2 2 2 1zM381 181a2 2 0 100-3 2 2 0 000 3zM386 181a2 2 0 100-3 2 2 0 000 3zM391 181a2 2 0 100-3 2 2 0 000 3zM396 181a2 2 0 100-3 2 2 0 000 3zM401 181a2 2 0 100-3 2 2 0 000 3zM407 182a2 2 0 100-4 2 2 0 000 4zM412 182l2-2-2-2-2 2 2 2zM0 186a1 1 0 100-3 1 1 0 000 3zM5 186a1 1 0 100-3 1 1 0 000 3zM11 186a1 1 0 100-2 1 1 0 000 2zM16 186a1 1 0 100-2 1 1 0 000 2zM21 186a1 1 0 100-2 1 1 0 000 2zM26 186a1 1 0 100-2 1 1 0 000 2zM31 186a1 1 0 100-2 1 1 0 000 2zM36 186l1-1-1-1-1 1 1 1zM41 186a1 1 0 100-2 1 1 0 000 2zM47 186v-1-1l-1 1 1 1zM52 186l1-1-1-1-1 1 1 1zM57 186a1 1 0 100-2 1 1 0 000 2zM62 186a1 1 0 100-2 1 1 0 000 2zM67 186l1-1-1-1-1 1 1 1zM72 185a1 1 0 100-1 1 1 0 000 1zM77 185a1 1 0 100-1 1 1 0 000 1zM83 185v-1l-1 1h1zM88 185v-1l-1 1h1zM93 185h-1 1zM98 185zM103 185zM108 185zM113 185zM252 185zM257 185zM263 185h-1 1zM268 185h-1 1zM273 185h-1 1zM278 185zM283 185zM288 185h1l-1-1v1zM293 185h1l-1-1v1zM299 186v-1-1l-1 1 1 1zM304 186v-1-1l-1 1 1 1zM309 186l1-1-1-1-1 1 1 1zM314 186l1-1-1-1-1 1 1 1zM319 186a1 1 0 100-2 1 1 0 100 2zM324 186a1 1 0 100-2 1 1 0 000 2zM329 186a1 1 0 100-2 1 1 0 000 2zM335 186a1 1 0 10-2-1l2 1zM340 186a1 1 0 100-2 1 1 0 000 2zM345 186a1 1 0 000-2 1 1 0 000 2zM350 186a1 1 0 000-2 1 1 0 000 2zM355 186a1 1 0 100-2 1 1 0 000 2zM360 186a1 1 0 100-2 1 1 0 000 2zM365 186a1 1 0 100-2 1 1 0 000 2zM371 186a1 1 0 100-3 1 1 0 100 3zM376 186a1 1 0 100-3 1 1 0 100 3zM381 187l1-2-1-2-2 2 2 2zM386 187l2-2-2-2-2 2 2 2zM391 187a2 2 0 100-4 2 2 0 000 4zM396 187a2 2 0 100-4 2 2 0 100 4zM401 187a2 2 0 100-4 2 2 0 100 4zM407 187a2 2 0 100-4 2 2 0 000 4zM412 187a2 2 0 100-4 2 2 0 000 4zM0 191a1 1 0 100-2 1 1 0 000 2zM5 191a1 1 0 100-2 1 1 0 000 2zM11 191a1 1 0 100-2 1 1 0 100 2zM16 191a1 1 0 100-2 1 1 0 100 2zM21 191a1 1 0 100-2 1 1 0 000 2zM26 191a1 1 0 000-2 1 1 0 000 2zM31 191l1-1-1-1-1 1 1 1zM36 191l1-1-1-1-1 1 1 1zM41 191l1-1-1-1-1 1 1 1zM47 191a1 1 0 100-2 1 1 0 000 2zM52 191a1 1 0 100-2 1 1 0 000 2zM57 191a1 1 0 100-2 1 1 0 000 2zM62 191a1 1 0 100-2 1 1 0 000 2zM67 191a1 1 0 100-2 1 1 0 000 2zM72 191l1-1h-1v1zM77 191l1-1h-1v1zM83 190zM88 190h-1 1zM93 190zM98 190zM103 190zM108 190zM113 190zM252 190zM257 190h0zM263 190zM268 190h-1 1zM273 190h-1 1zM278 190zM283 190zM288 191a1 1 0 100-1v1zM293 191a1 1 0 100-2 1 1 0 000 2zM299 191a1 1 0 100-2 1 1 0 000 2zM304 191a1 1 0 100-2 1 1 0 000 2zM309 191a1 1 0 100-2 1 1 0 000 2zM314 191l1-1-1-1-1 1 1 1zM319 191a1 1 0 100-2 1 1 0 000 2zM324 191l1-1-1-1-1 1 1 1zM329 191l1-1-1-1-1 1 1 1zM335 191l1-1-1-1-2 1 2 1zM340 191l1-1-1-1-1 1 1 1zM345 191a1 1 0 100-2 1 1 0 000 2zM350 191a1 1 0 100-2 1 1 0 000 2zM355 191a1 1 0 100-2 1 1 0 100 2zM360 191a1 1 0 100-2 1 1 0 000 2zM365 191a1 1 0 100-2 1 1 0 000 2zM371 192a2 2 0 100-3 2 2 0 000 3zM376 192a2 2 0 100-3 2 2 0 000 3z"/>
    <path d="M381 192a2 2 0 100-4 2 2 0 000 4zM386 192a2 2 0 100-4 2 2 0 000 4zM391 192a2 2 0 100-4 2 2 0 000 4zM396 192a2 2 0 100-4 2 2 0 000 4zM401 192a2 2 0 100-4 2 2 0 000 4zM407 192a2 2 0 100-4 2 2 0 000 4zM412 192a2 2 0 100-4 2 2 0 000 4zM0 197a1 1 0 100-3 1 1 0 000 3zM5 197a1 1 0 100-3 1 1 0 000 3zM11 196a1 1 0 100-2 1 1 0 100 2zM16 196a1 1 0 100-2 1 1 0 100 2zM21 196a1 1 0 000-2l-1 1 1 1zM26 196a1 1 0 100-2 1 1 0 000 2zM31 196l1-1-1-1-1 1 1 1zM36 196l1-1-1-1-1 1 1 1zM41 196l1-1-1-1-1 1 1 1zM47 196a1 1 0 10-1-1l1 1zM52 196a1 1 0 100-2 1 1 0 000 2zM57 196v-1h-1l1 1zM62 196l1-1h-1-1l1 1zM67 196a1 1 0 100-1 1 1 0 000 1zM72 196l1-1h-1v1zM77 196l1-1h-1v1zM83 195h-1 1zM88 195zM93 195zM98 195zM103 195zM237 195zM242 195zM247 195zM252 195zM257 195h0zM263 196v-1h-1l1 1zM268 196v-1h-1l1 1zM273 196v-1h-1l1 1zM278 196l-1-1 1 1zM283 196l1-1h-1v1zM288 196a1 1 0 100-1 1 1 0 000 1zM293 196a1 1 0 100-1 1 1 0 000 1zM299 196a1 1 0 100-2 1 1 0 000 2zM304 196a1 1 0 100-2 1 1 0 000 2zM309 196a1 1 0 100-2 1 1 0 000 2zM314 196a1 1 0 100-2 1 1 0 000 2zM319 196l1-1-1-1-1 1 1 1zM324 196a1 1 0 100-2 1 1 0 000 2zM329 196a1 1 0 100-2 1 1 0 000 2zM335 196a1 1 0 100-2 1 1 0 100 2zM340 196a1 1 0 100-2 1 1 0 100 2zM345 197a1 1 0 100-3 1 1 0 000 3zM350 197a1 1 0 100-3 1 1 0 000 3zM355 197a1 1 0 100-3 1 1 0 000 3zM360 197a2 2 0 100-3 2 2 0 000 3zM365 197a2 2 0 100-3 2 2 0 000 3zM371 197a2 2 0 100-3 2 2 0 000 3zM376 197a2 2 0 100-3 2 2 0 000 3z"/>
    <path d="M381 197a2 2 0 100-4 2 2 0 000 4zM386 197a2 2 0 100-4 2 2 0 000 4zM391 197a2 2 0 100-4 2 2 0 000 4zM396 197a2 2 0 100-4 2 2 0 000 4zM401 197a2 2 0 100-4 2 2 0 000 4zM407 197a2 2 0 100-4 2 2 0 000 4zM412 197a2 2 0 100-4 2 2 0 000 4zM0 202a1 1 0 100-3 1 1 0 000 3zM5 202a1 1 0 100-3 1 1 0 000 3zM11 201a1 1 0 100-2 1 1 0 000 2zM16 201a1 1 0 100-2 1 1 0 000 2zM21 201a1 1 0 100-2 1 1 0 000 2zM26 201a1 1 0 100-2 1 1 0 000 2zM31 201l1-1-1-1-1 1 1 1zM36 201a1 1 0 100-2 1 1 0 000 2zM41 201a1 1 0 100-2 1 1 0 000 2zM47 201a1 1 0 100-1 1 1 0 000 1zM52 201v-1h-1l1 1zM57 201a1 1 0 100-1 1 1 0 000 1zM62 201a1 1 0 100-1 1 1 0 000 1zM67 201l1-1h-1v1zM72 201v-1 1zM77 201v-1 1zM83 201v-1 1zM88 201v-1h-1l1 1zM93 200zM98 200zM103 200zM237 200zM242 200zM247 200zM252 201l1-1h-1v1zM257 201l1-1h-1v1zM263 201v-1h-1l1 1zM268 201v-1h-1l1 1zM273 201v-1h-1l1 1zM278 201v-1h-1l1 1zM283 201l1-1h-1-1l1 1zM288 201l1-1h-1v1zM293 201l1-1h-1v1zM299 201a1 1 0 100-2 1 1 0 000 2zM304 201l1-1-1-1-1 1 1 1zM309 201l1-1-1-1-1 1 1 1zM314 201l1-1-1-1-1 1 1 1zM319 201a1 1 0 100-2 1 1 0 000 2zM324 201a1 1 0 100-2 1 1 0 000 2zM329 201a1 1 0 100-2 1 1 0 000 2zM335 202l1-2-1-1-2 1 2 2zM340 202l1-2-1-1-2 1 2 2zM345 202l1-2-1-1-2 1 2 2zM350 202l1-2-1-1-1 1 1 2zM355 202a1 1 0 100-3 1 1 0 000 3zM360 202a2 2 0 100-3 2 2 0 000 3zM365 202a2 2 0 100-3 2 2 0 000 3zM371 202a2 2 0 000-3 2 2 0 000 3zM376 202a2 2 0 000-3 2 2 0 000 3zM381 202a2 2 0 100-3 2 2 0 000 3zM386 202a2 2 0 000-3 2 2 0 000 3zM391 202l2-2-2-2-2 2 2 2zM396 202a2 2 0 100-4 2 2 0 100 4zM401 202a2 2 0 100-4 2 2 0 100 4zM407 202a2 2 0 100-4 2 2 0 000 4zM412 202a2 2 0 100-4 2 2 0 000 4zM0 207a1 1 0 100-3 1 1 0 000 3zM5 207a1 1 0 100-3 1 1 0 000 3zM11 207l1-2-1-1-2 1 2 2zM16 207l1-2-1-1-1 1 1 2zM21 206a1 1 0 100-2 1 1 0 000 2zM26 206a1 1 0 100-2 1 1 0 000 2zM31 206a1 1 0 100-1 1 1 0 000 1zM36 206a1 1 0 100-1 1 1 0 000 1zM41 206a1 1 0 100-1 1 1 0 000 1zM47 206a1 1 0 100-1 1 1 0 000 1zM52 206v-1a1 1 0 100 1zM57 206a1 1 0 100-1 1 1 0 000 1zM62 206a1 1 0 100-1 1 1 0 000 1zM67 206l1-1h-1v1zM72 206l1-1h-1v1zM77 206l1-1h-1v1zM83 206v-1h-1l1 1zM88 206v-1h-1l1 1zM93 206v-1 1zM98 206v-1 1zM227 205zM232 205zM237 206v-1 1zM242 206v-1 1zM247 206v-1 1zM252 206v-1 1zM257 206v-1 1zM263 206v-1h-1l1 1zM268 206v-1h-1l1 1zM273 206a1 1 0 100-1 1 1 0 000 1zM278 206a1 1 0 100-1 1 1 0 000 1zM283 206l1-1h-1-1l1 1zM288 206a1 1 0 100-1 1 1 0 000 1zM293 206a1 1 0 100-1 1 1 0 000 1zM299 206a1 1 0 100-1 1 1 0 000 1zM304 206l1-1h-1a1 1 0 000 1zM309 206a1 1 0 100-2 1 1 0 000 2zM314 206l1-1-1-1-1 1 1 1zM319 207a1 1 0 100-3 1 1 0 000 3zM324 207a1 1 0 000-3 1 1 0 000 3zM329 207a1 1 0 000-3 1 1 0 000 3zM335 207a1 1 0 100-3 1 1 0 100 3zM340 207a1 1 0 100-3 1 1 0 100 3zM345 207a1 1 0 100-3 1 1 0 000 3zM350 207a1 1 0 100-3 1 1 0 000 3zM355 207a1 1 0 100-3 1 1 0 100 3zM360 207l2-2-2-1-1 1 1 2zM365 207l2-2-2-1-1 1 1 2zM371 207a2 2 0 100-3 2 2 0 000 3zM376 207a2 2 0 100-3 2 2 0 000 3zM381 207a2 2 0 100-3 2 2 0 000 3zM386 207a2 2 0 100-3 2 2 0 000 3zM391 207a2 2 0 100-3 2 2 0 000 3z"/>
    <path d="M396 207a2 2 0 100-4 2 2 0 000 4zM401 207a2 2 0 100-4 2 2 0 000 4zM407 208a2 2 0 100-5 2 2 0 000 5zM412 208c1 0 2-1 2-3l-2-2c-2 0-2 1-2 2 0 2 0 3 2 3zM0 212a1 1 0 100-3 1 1 0 000 3zM5 212a1 1 0 100-3 1 1 0 000 3zM11 212l1-1-1-1-2 1 2 1zM16 212l1-1-1-1-1 1 1 1zM21 212a1 1 0 100-2 1 1 0 000 2zM26 212a1 1 0 100-2 1 1 0 000 2zM31 212a1 1 0 100-2 1 1 0 000 2zM36 211a1 1 0 100-1 1 1 0 000 1zM41 211a1 1 0 100-1 1 1 0 000 1zM47 211a1 1 0 100-1 1 1 0 000 1zM52 211a1 1 0 100-1 1 1 0 000 1zM57 211a1 1 0 100-1 1 1 0 000 1zM62 211a1 1 0 100-1 1 1 0 000 1zM67 211h1l-1-1v1zM72 211h1l-1-1v1zM77 211h1l-1-1v1zM83 211v-1l-1 1h1zM88 211v-1l-1 1h1zM93 211zM98 211zM227 211zM232 211zM237 211v-1 1zM242 211v-1 1zM247 211v-1 1zM252 211v-1 1zM257 211v-1 1zM263 211v-1l-1 1h1zM268 211v-1l-1 1h1zM273 211a1 1 0 100-1 1 1 0 000 1zM278 211a1 1 0 100-1 1 1 0 000 1zM283 211h1l-1-1-1 1h1zM288 211a1 1 0 100-1 1 1 0 000 1zM293 211a1 1 0 100-1 1 1 0 000 1zM299 212a1 1 0 10-1-1l1 1zM304 212a1 1 0 100-2 1 1 0 000 2zM309 212l1-1-1-1-1 1 1 1zM314 212l1-1-1-1-1 1 1 1zM319 212a1 1 0 100-2 1 1 0 000 2zM324 212a1 1 0 000-3 1 1 0 000 3zM329 212a1 1 0 000-3 1 1 0 000 3zM335 212a1 1 0 100-3 1 1 0 100 3zM340 212a1 1 0 100-3 1 1 0 100 3zM345 212a1 1 0 100-3 1 1 0 000 3zM350 212a1 1 0 100-3 1 1 0 000 3zM355 212a1 1 0 100-3 1 1 0 100 3zM360 212l2-1-2-2-1 2 1 1zM365 212l2-1-2-2-1 2 1 1zM371 212a2 2 0 100-3 2 2 0 000 3zM376 212a2 2 0 100-3 2 2 0 000 3zM381 212a2 2 0 100-3 2 2 0 000 3zM386 212a2 2 0 100-3 2 2 0 000 3z"/>
    <path d="M391 213a2 2 0 100-4 2 2 0 000 4zM396 213a2 2 0 100-4 2 2 0 000 4zM401 213a2 2 0 100-4 2 2 0 000 4zM407 213l2-2c0-2-1-2-2-2a2 2 0 000 4zM412 213l2-2c0-2-1-2-2-2a2 2 0 000 4zM0 217a1 1 0 000-2 1 1 0 000 2zM5 217a1 1 0 000-2 1 1 0 000 2zM11 217a1 1 0 100-2 1 1 0 000 2zM16 217a1 1 0 100-2 1 1 0 000 2zM21 217a1 1 0 100-2 1 1 0 000 2zM26 217l1-1-1-1a1 1 0 100 2zM31 217a1 1 0 100-2 1 1 0 000 2zM36 217a1 1 0 100-2 1 1 0 100 2zM41 217a1 1 0 100-2 1 1 0 100 2zM47 216a1 1 0 100-1 1 1 0 000 1zM52 216v-1l-1 1h1zM57 216v-1 1zM62 216v-1 1zM67 216v-1 1zM72 216zM77 216zM83 216h-1 1zM88 216zM227 216h-1 1zM232 216zM237 216zM242 216zM247 216zM252 216h0zM257 216h0zM263 216a1 1 0 100-1 1 1 0 000 1zM268 216v-1l-1 1h1zM273 216a1 1 0 100-1 1 1 0 000 1zM278 216h1l-1-1-1 1h1zM283 216a1 1 0 100-1 1 1 0 000 1zM288 217a1 1 0 100-2 1 1 0 000 2zM293 217l1-1-1-1v2zM299 217a1 1 0 100-2 1 1 0 000 2zM304 217l1-1a1 1 0 10-2 0l1 1zM309 217a1 1 0 100-2 1 1 0 000 2zM314 217a1 1 0 100-2 1 1 0 000 2zM319 217l1-1-1-1-1 1 1 1zM324 217a1 1 0 100-2 1 1 0 000 2zM329 217a1 1 0 100-2 1 1 0 000 2zM335 217a1 1 0 100-3 1 1 0 000 3zM340 217a1 1 0 100-3 1 1 0 000 3zM345 217a1 1 0 100-3 1 1 0 000 3zM350 217a1 1 0 100-3 1 1 0 000 3zM355 217a2 2 0 100-3 2 2 0 000 3zM360 217a2 2 0 100-3 2 2 0 000 3zM365 217a2 2 0 100-3 2 2 0 000 3zM371 218a2 2 0 100-4 2 2 0 000 4zM376 218a2 2 0 100-4 2 2 0 000 4zM381 218a2 2 0 100-4 2 2 0 000 4zM386 218a2 2 0 100-4 2 2 0 000 4zM391 218a2 2 0 100-4 2 2 0 000 4zM396 218a2 2 0 100-4 2 2 0 000 4zM401 218a2 2 0 100-4 2 2 0 100 4zM407 218a2 2 0 100-4 2 2 0 000 4zM412 218a2 2 0 100-4 2 2 0 000 4zM0 222a1 1 0 100-2l-1 1 1 1zM5 222a1 1 0 100-2l-1 1 1 1zM11 222l1-1-1-1-1 1 1 1zM16 222l1-1-1-1-1 1 1 1zM21 222a1 1 0 000-2l-1 1 1 1zM26 222a1 1 0 100-2 1 1 0 000 2zM31 222l1-1-1-1-1 1 1 1zM36 222a1 1 0 100-1v1zM41 222a1 1 0 100-2 1 1 0 000 2zM47 221v-1l-1 1h1zM52 221v-1l-1 1h1zM57 221v-1l-1 1h1zM62 221v-1 1zM67 221zM72 221zM77 221h0zM83 221h-1 1zM88 221zM227 221h-1 1zM232 221zM237 221zM242 221zM247 221zM252 221h1l-1-1v1zM257 221h1l-1-1v1zM263 221a1 1 0 10-1 0h1zM268 221a1 1 0 100-1 1 1 0 000 1zM273 222a1 1 0 100-2 1 1 0 000 2zM278 222a1 1 0 100-2 1 1 0 000 2zM283 222a1 1 0 100-2l-1 1 1 1zM288 222a1 1 0 100-2 1 1 0 000 2zM293 222a1 1 0 100-1v1zM299 222a1 1 0 100-2 1 1 0 000 2zM304 222a1 1 0 100-2 1 1 0 000 2zM309 222l1-1-1-1-1 1 1 1zM314 222l1-1-1-1-1 1 1 1zM319 222a1 1 0 100-2 1 1 0 000 2zM324 222l2-1-2-1-1 1 1 1zM329 222l2-1-2-1-1 1 1 1zM335 222l1-1-1-1-2 1 2 1zM340 222l1-1-1-1-2 1 2 1zM345 222l1-1-1-2-2 2 2 1zM350 222l1-1-1-2-2 2 2 1zM355 222a2 2 0 100-3 2 2 0 100 3z"/>
    <path d="M360 223a2 2 0 100-4 2 2 0 000 4zM365 223a2 2 0 100-4 2 2 0 000 4zM371 223a2 2 0 100-4 2 2 0 000 4zM376 223a2 2 0 100-4 2 2 0 000 4zM381 223a2 2 0 100-4 2 2 0 000 4zM386 223a2 2 0 100-4 2 2 0 000 4zM391 223a2 2 0 100-4 2 2 0 000 4zM396 223a2 2 0 100-4 2 2 0 000 4zM401 223a2 2 0 100-4 2 2 0 000 4zM407 223a2 2 0 100-4 2 2 0 000 4zM412 223a2 2 0 100-4 2 2 0 000 4zM0 227a1 1 0 100-2 1 1 0 000 2zM5 227a1 1 0 100-2 1 1 0 000 2zM11 227a1 1 0 100-2 1 1 0 000 2zM16 227a1 1 0 100-2 1 1 0 000 2zM21 227a1 1 0 100-2 1 1 0 000 2zM26 227a1 1 0 100-2 1 1 0 100 2zM31 227a1 1 0 100-2 1 1 0 000 2zM36 227a1 1 0 100-2 1 1 0 000 2zM41 227l1-1-1-1v2zM47 227v-1 1zM52 227v0zM57 226zM62 226zM67 226zM72 226zM77 226h0zM83 226zM88 226zM216 226zM221 226zM227 226h-1 1zM232 226zM237 226zM242 226zM247 226zM252 227v-1 1zM257 227l1-1h-1v1zM263 227a1 1 0 100-2 1 1 0 000 2zM268 227v-1-1l-1 1 1 1zM273 227a1 1 0 100-2 1 1 0 000 2zM278 227a1 1 0 100-2 1 1 0 000 2zM283 227a1 1 0 100-2 1 1 0 000 2zM288 227a1 1 0 100-2 1 1 0 000 2zM293 227a1 1 0 100-2 1 1 0 000 2zM299 227a1 1 0 100-2 1 1 0 000 2zM304 227a1 1 0 100-2 1 1 0 000 2zM309 227a1 1 0 100-2 1 1 0 000 2zM314 227a1 1 0 100-2 1 1 0 000 2zM319 227a1 1 0 100-2 1 1 0 000 2zM324 227a1 1 0 100-2 1 1 0 000 2zM329 227a1 1 0 100-2 1 1 0 000 2zM335 227l1-1-1-1-2 1 2 1zM340 227l1-1-1-1-2 1 2 1zM345 228a2 2 0 100-4 2 2 0 000 4zM350 228a2 2 0 100-4 2 2 0 000 4zM355 228a2 2 0 100-4 2 2 0 000 4zM360 228a2 2 0 100-4 2 2 0 000 4zM365 228a2 2 0 100-4 2 2 0 000 4zM371 228a2 2 0 100-4 2 2 0 000 4zM376 228a2 2 0 100-4 2 2 0 000 4zM381 228a2 2 0 100-4 2 2 0 100 4zM386 228a2 2 0 100-4 2 2 0 100 4zM391 228a2 2 0 100-4 2 2 0 000 4zM396 228a2 2 0 100-4 2 2 0 000 4zM401 228a2 2 0 100-4 2 2 0 000 4zM407 228a2 2 0 100-4 2 2 0 000 4zM412 228a2 2 0 100-4 2 2 0 000 4zM0 232a1 1 0 100-2 1 1 0 000 2zM5 232a1 1 0 100-2 1 1 0 000 2zM11 232a1 1 0 100-2 1 1 0 000 2zM16 232a1 1 0 100-2 1 1 0 000 2zM21 232a1 1 0 100-2 1 1 0 000 2zM26 232a1 1 0 100-2 1 1 0 000 2zM31 232a1 1 0 100-1 1 1 0 000 1zM36 232a1 1 0 100-1 1 1 0 000 1zM41 232a1 1 0 100-1 1 1 0 000 1zM47 232v-1h-1l1 1zM52 232v-1h-1l1 1zM57 231zM62 231zM67 231zM72 231zM77 231zM211 231zM216 231zM221 231h0zM227 231zM232 231h-1 1zM237 232v-1h-1l1 1zM242 232v-1 1zM247 232l1-1h-1v1zM252 232a1 1 0 100-1 1 1 0 000 1zM257 232a1 1 0 100-1 1 1 0 000 1zM263 232a1 1 0 100-2 1 1 0 000 2zM268 232v-1-1l-1 1 1 1zM273 232a1 1 0 100-2 1 1 0 100 2zM278 232a1 1 0 100-2 1 1 0 100 2zM283 232a1 1 0 100-2 1 1 0 000 2zM288 232l1-1-1-1-1 1 1 1zM293 232l1-1-1-1-1 1 1 1zM299 232a1 1 0 100-2l-2 1 2 1zM304 232a1 1 0 100-2 1 1 0 000 2zM309 232a1 1 0 100-2 1 1 0 000 2zM314 232a1 1 0 100-2 1 1 0 000 2zM319 232a1 1 0 100-2 1 1 0 100 2zM324 233a1 1 0 100-3 1 1 0 000 3zM329 233a1 1 0 100-3 1 1 0 000 3zM335 233a2 2 0 100-3 2 2 0 000 3zM340 233a2 2 0 100-3 2 2 0 000 3zM345 233a2 2 0 100-3 2 2 0 000 3zM350 233a2 2 0 100-3 2 2 0 000 3z"/>
    <path d="M355 233a2 2 0 100-4 2 2 0 000 4zM360 233a2 2 0 100-4 2 2 0 000 4zM365 233a2 2 0 100-4 2 2 0 000 4zM371 233a2 2 0 100-4 2 2 0 000 4zM376 233a2 2 0 100-4 2 2 0 000 4zM381 233a2 2 0 100-4 2 2 0 000 4zM386 233a2 2 0 100-4 2 2 0 000 4zM391 233a2 2 0 100-4 2 2 0 000 4zM396 233a2 2 0 100-4 2 2 0 000 4zM401 233a2 2 0 100-4 2 2 0 000 4zM407 234a2 2 0 100-5 2 2 0 000 5z"/>
    <path d="M412 234a2 2 0 100-5 2 2 0 000 5zM0 237l1-1-1-1-1 1 1 1zM5 237l1-1-1-1-1 1 1 1zM11 237a1 1 0 100-1 1 1 0 000 1zM16 237v-1h-1l1 1zM21 237a1 1 0 100-1 1 1 0 000 1zM26 237a1 1 0 100-1 1 1 0 000 1zM31 237l1-1h-1-1l1 1zM36 237v-1 1zM41 237v-1 1zM47 237v-1 1zM52 237v-1h-1l1 1zM57 237v-1 1zM62 237v-1 1zM67 236zM211 236zM216 237v-1 1zM221 237v-1 1zM227 237v-1h-1l1 1zM232 237v-1h-1l1 1zM237 237v-1 1zM242 237v-1 1zM247 237l1-1h-1v1zM252 237a1 1 0 100-1 1 1 0 000 1zM257 237l1-1h-1v1zM263 237a1 1 0 100-1 1 1 0 000 1zM268 237a1 1 0 100-1 1 1 0 000 1zM273 237a1 1 0 100-2 1 1 0 000 2zM278 237a1 1 0 100-2 1 1 0 000 2zM283 237l1-1-1-1-1 1 1 1zM288 237a1 1 0 100-2 1 1 0 000 2zM293 237a1 1 0 100-2 1 1 0 000 2zM299 238a1 1 0 100-3 1 1 0 000 3zM304 238a1 1 0 100-3 1 1 0 000 3zM309 238a1 1 0 100-3 1 1 0 100 3zM314 238a1 1 0 100-3 1 1 0 100 3zM319 238a1 1 0 100-3 1 1 0 000 3zM324 238a1 1 0 100-3 1 1 0 000 3zM329 238a1 1 0 100-3 1 1 0 000 3zM335 238a2 2 0 000-3 2 2 0 000 3zM340 238a2 2 0 000-3 2 2 0 000 3zM345 238a2 2 0 100-3 2 2 0 000 3zM350 238a2 2 0 100-3 2 2 0 000 3zM355 238a2 2 0 100-3 2 2 0 000 3z"/>
    <path d="M360 238a2 2 0 100-4 2 2 0 000 4zM365 238a2 2 0 100-4 2 2 0 000 4zM371 238a2 2 0 100-4 2 2 0 000 4zM376 238a2 2 0 000-4 2 2 0 000 4zM381 238a2 2 0 100-4 2 2 0 000 4zM386 238a2 2 0 100-4 2 2 0 000 4zM391 238a2 2 0 100-4 2 2 0 000 4zM396 239a2 2 0 100-5 2 2 0 000 5z"/>
    <path d="M401 239a2 2 0 100-5 2 2 0 000 5zM407 239a2 2 0 100-5 2 2 0 000 5z"/>
    <path d="M412 239a2 2 0 100-5 2 2 0 000 5zM0 242a1 1 0 100-1 1 1 0 000 1zM5 242a1 1 0 100-1 1 1 0 000 1zM11 242a1 1 0 10-1-1l1 1zM16 242a1 1 0 100-1 1 1 0 000 1zM21 242a1 1 0 100-1 1 1 0 000 1zM26 242l1-1h-1-1l1 1zM31 242a1 1 0 100-1 1 1 0 000 1zM36 242l1-1h-1v1zM41 242l1-1h-1v1zM47 242v-1h-1l1 1zM52 242v-1h-1l1 1zM57 242v-1 1zM62 242v-1 1zM67 242v-1 1zM201 242v-1 1zM206 242v-1 1zM211 242v-1 1zM216 242v-1 1zM221 242l1-1h-1v1zM227 242v-1 1zM232 242v-1h-1l1 1zM237 242v-1 1zM242 242l-1-1 1 1zM247 242a1 1 0 100-1 1 1 0 000 1zM252 242a1 1 0 100-1 1 1 0 000 1zM257 242a1 1 0 100-1 1 1 0 000 1zM263 242a1 1 0 100-1 1 1 0 000 1zM268 242v-1h-1l1 1zM273 242l1-1h-1a1 1 0 100 1zM278 242l1-1a1 1 0 10-1 1zM283 242a1 1 0 100-2 1 1 0 000 2zM288 243a1 1 0 100-3 1 1 0 000 3zM293 243a1 1 0 100-3 1 1 0 000 3zM299 243a1 1 0 100-3 1 1 0 000 3zM304 243a1 1 0 100-3 1 1 0 000 3zM309 243a1 1 0 100-3 1 1 0 000 3zM314 243a1 1 0 100-3 1 1 0 000 3zM319 243a1 1 0 100-3 1 1 0 000 3zM324 243l2-2-2-1-1 1 1 2zM329 243l2-2-2-1-1 1 1 2zM335 243a2 2 0 100-3 2 2 0 000 3zM340 243a2 2 0 100-3 2 2 0 000 3zM345 243a2 2 0 100-3 2 2 0 000 3zM350 243a2 2 0 100-3 2 2 0 000 3zM355 243a2 2 0 100-3 2 2 0 000 3zM360 243a2 2 0 100-3 2 2 0 000 3zM365 243a2 2 0 100-3 2 2 0 000 3z"/>
    <path d="M371 244a2 2 0 100-5 2 2 0 000 5z"/>
    <path d="M376 244a2 2 0 100-5 2 2 0 000 5z"/>
    <path d="M381 244a2 2 0 100-5 2 2 0 000 5z"/>
    <path d="M386 244a2 2 0 100-5 2 2 0 000 5z"/>
    <path d="M391 244a2 2 0 100-5 2 2 0 000 5z"/>
    <path d="M396 244a2 2 0 100-5 2 2 0 000 5z"/>
    <path d="M401 244a2 2 0 100-5 2 2 0 000 5zM407 244a2 2 0 100-5 2 2 0 000 5z"/>
    <path d="M412 244a2 2 0 100-5 2 2 0 000 5zM0 248a1 1 0 100-2 1 1 0 000 2zM5 248a1 1 0 100-2 1 1 0 000 2zM11 247a1 1 0 10-1 0h1zM16 247a1 1 0 100-1 1 1 0 000 1zM21 247v-1l-1 1h1zM26 247h1l-1-1-1 1h1zM31 247a1 1 0 100-1 1 1 0 000 1zM36 247h1l-1-1v1zM41 247h1l-1-1v1zM47 247v-1l-1 1h1zM52 247v-1l-1 1h1zM57 247v-1 1zM62 247v-1 1zM67 247zM201 247zM206 247zM211 247zM216 247v-1 1zM221 247h1l-1-1v1zM227 247v-1l-1 1h1zM232 247v-1l-1 1h1zM237 247v-1l-1 1h1zM242 247v-1l-1 1h1zM247 247a1 1 0 100-1 1 1 0 000 1zM252 247a1 1 0 100-1 1 1 0 000 1zM257 247a1 1 0 100-1 1 1 0 000 1zM263 247v-1l-1 1h1zM268 247v-1l-1 1h1zM273 248l1-1-1-1-1 1 1 1zM278 248l1-1a1 1 0 10-1 1zM283 248a1 1 0 100-2 1 1 0 000 2zM288 248a1 1 0 100-2 1 1 0 000 2zM293 248a1 1 0 100-2 1 1 0 000 2zM299 248a1 1 0 100-3 1 1 0 000 3zM304 248a1 1 0 100-3 1 1 0 000 3zM309 248a1 1 0 100-3 1 1 0 000 3zM314 248a1 1 0 100-3 1 1 0 000 3zM319 248l1-1-1-2-1 2 1 1zM324 248l2-1-2-2-1 2 1 1zM329 248l2-1-2-2-1 2 1 1zM335 248a2 2 0 100-3 2 2 0 000 3zM340 248a2 2 0 100-3 2 2 0 000 3zM345 248a2 2 0 100-3 2 2 0 000 3zM350 248a2 2 0 100-3 2 2 0 000 3zM355 248a2 2 0 100-3 2 2 0 000 3z"/>
    <path d="M360 249a2 2 0 100-4 2 2 0 000 4zM365 249a2 2 0 100-4 2 2 0 000 4zM371 249l2-2c0-2-1-2-2-2-2 0-3 1-3 2s1 2 3 2zM376 249l2-2c0-2-1-2-2-2a2 2 0 100 4zM381 249a2 2 0 100-5 2 2 0 000 5z"/>
    <path d="M386 249a2 2 0 100-5 2 2 0 000 5z"/>
    <path d="M391 249a2 2 0 100-5 2 2 0 000 5z"/>
    <path d="M396 249a2 2 0 100-5 2 2 0 000 5z"/>
    <path d="M401 249a2 2 0 100-5 2 2 0 000 5zM407 249a2 2 0 100-5 2 2 0 000 5z"/>
    <path d="M412 249a2 2 0 100-5 2 2 0 000 5zM0 253a1 1 0 100-2 1 1 0 100 2zM5 253a1 1 0 100-2 1 1 0 100 2zM11 252a1 1 0 100-1 1 1 0 000 1zM16 252v-1l-1 1h1zM21 252a1 1 0 100-1 1 1 0 000 1zM26 252a1 1 0 100-1 1 1 0 000 1zM31 252h1l-1-1v1zM36 252v-1 1zM41 252h1l-1-1v1zM47 252zM52 252h-1 1zM57 252zM62 252zM67 252zM201 252zM206 252zM211 252zM216 252v-1 1zM221 252v-1 1zM227 252v-1 1zM232 252v-1l-1 1h1zM237 252a1 1 0 100-1 1 1 0 000 1zM242 252v-1l-1 1h1zM247 252h1l-1-1-1 1h1zM252 252a1 1 0 100-1 1 1 0 000 1zM257 252a1 1 0 100-1 1 1 0 000 1zM263 253a1 1 0 100-2 1 1 0 000 2zM268 253a1 1 0 100-2 1 1 0 000 2zM273 253l1-1-1-1-1 1 1 1zM278 253l1-1-1-1-1 1 1 1zM283 253a1 1 0 100-2 1 1 0 000 2zM288 253a1 1 0 100-2 1 1 0 000 2zM293 253a1 1 0 100-2 1 1 0 000 2zM299 253a1 1 0 100-3 1 1 0 000 3zM304 253a1 1 0 100-3 1 1 0 000 3zM309 253a1 1 0 100-3 1 1 0 000 3zM314 253a1 1 0 000-3 1 1 0 000 3zM319 253l2-1-2-2-1 2 1 1zM324 253a2 2 0 100-3 2 2 0 000 3zM329 253a2 2 0 100-3 2 2 0 000 3zM335 253a2 2 0 100-3 2 2 0 000 3zM340 253a2 2 0 000-3 2 2 0 000 3zM345 254a2 2 0 100-4 2 2 0 000 4zM350 254a2 2 0 000-4 2 2 0 000 4zM355 254a2 2 0 100-4 2 2 0 000 4zM360 254a2 2 0 100-4 2 2 0 100 4zM365 254a2 2 0 100-4 2 2 0 100 4zM371 254a2 2 0 100-4 2 2 0 000 4zM376 254a2 2 0 000-4 2 2 0 000 4zM381 254a2 2 0 100-4 2 2 0 000 4zM386 254a2 2 0 000-4 2 2 0 100 4zM391 254a2 2 0 100-4 2 2 0 000 4zM396 254a2 2 0 100-5 2 2 0 000 5z"/>
    <path d="M401 254a2 2 0 100-5 2 2 0 000 5zM407 254a2 2 0 100-5 2 2 0 000 5z"/>
    <path d="M412 254a2 2 0 100-5 2 2 0 000 5zM0 258l1-1-1-1-1 1 1 1zM5 258l1-1-1-1v2zM11 258v-1-1l-1 1 1 1zM16 258v-1-1l-1 1 1 1zM21 257v-1l-1 1h1zM26 257v-1l-1 1h1zM31 257h1l-1-1v1zM36 257h0zM41 257h0zM47 257h-1 1zM52 257h-1 1zM57 257zM62 257zM191 257h-1 1zM196 257zM201 257zM206 257zM211 257zM216 257h0zM221 257h0zM227 257v-1l-1 1h1zM232 257v-1l-1 1h1zM237 257a1 1 0 100-1 1 1 0 000 1zM242 257a1 1 0 100-1 1 1 0 000 1zM247 258l1-1-1-1-1 1 1 1zM252 258a1 1 0 100-2 1 1 0 000 2zM257 258a1 1 0 100-2 1 1 0 000 2zM263 258v-1-1l-1 1 1 1zM268 258l1-1-1-1-1 1 1 1zM273 258l1-1-1-1-1 1 1 1zM278 258l1-1-1-1-1 1 1 1zM283 258a1 1 0 100-2 1 1 0 000 2zM288 258l1-1-1-1-1 1 1 1zM293 258l2-1-2-1-1 1 1 1zM299 258l1-1-1-1-2 1 2 1zM304 258l1-1-1-1-2 1 2 1zM309 258a1 1 0 100-3 1 1 0 000 3zM314 258a1 1 0 100-3 1 1 0 000 3zM319 258a1 1 0 100-3 1 1 0 100 3zM324 259l2-2-2-2-1 2 1 2zM329 259l2-2-2-2-1 2 1 2zM335 259a2 2 0 100-4 2 2 0 000 4zM340 259a2 2 0 100-4 2 2 0 000 4zM345 259a2 2 0 100-4 2 2 0 000 4zM350 259a2 2 0 100-4 2 2 0 000 4zM355 259a2 2 0 100-4 2 2 0 000 4zM360 259a2 2 0 100-4 2 2 0 000 4zM365 259a2 2 0 100-4 2 2 0 000 4zM371 259a2 2 0 100-4 2 2 0 000 4zM376 259a2 2 0 100-4 2 2 0 000 4zM381 259a2 2 0 100-4 2 2 0 000 4zM386 259a2 2 0 100-4 2 2 0 000 4zM391 259a2 2 0 100-4 2 2 0 000 4zM396 259a2 2 0 100-4 2 2 0 000 4zM401 259a2 2 0 100-4 2 2 0 000 4z"/>
    <path d="M407 259a3 3 0 100-5 3 3 0 000 5z"/>
    <path d="M412 259a3 3 0 100-5 3 3 0 000 5zM0 263a1 1 0 100-2 1 1 0 000 2zM5 263a1 1 0 100-2 1 1 0 000 2zM11 263a1 1 0 100-2 1 1 0 000 2zM16 263v-1h-1l1 1zM21 262zM26 262zM31 262zM36 262zM41 262zM47 262h-1 1zM52 262zM191 262h-1 1zM196 262zM201 262zM206 262zM211 262zM216 262zM221 262zM227 263a1 1 0 100-2 1 1 0 000 2zM232 263a1 1 0 100-2 1 1 0 000 2zM237 263a1 1 0 100-2 1 1 0 000 2zM242 263a1 1 0 10-1-1l1 1zM247 263a1 1 0 100-2 1 1 0 000 2zM252 263a1 1 0 100-2 1 1 0 000 2zM257 263a1 1 0 100-2 1 1 0 000 2zM263 263a1 1 0 100-2 1 1 0 000 2zM268 263l1-1-1-1-1 1 1 1zM273 263l1-1-1-1-1 1 1 1zM278 263l1-1-1-1-1 1 1 1zM283 263a1 1 0 100-2 1 1 0 000 2zM288 263a1 1 0 100-2 1 1 0 000 2zM293 263a1 1 0 100-2 1 1 0 000 2zM299 263a1 1 0 100-2 1 1 0 000 2zM304 263a1 1 0 100-2 1 1 0 000 2zM309 264a2 2 0 100-3 2 2 0 000 3zM314 264a2 2 0 100-3 2 2 0 000 3z"/>
    <path d="M319 264a2 2 0 000-4 2 2 0 000 4zM324 264a2 2 0 100-4 2 2 0 000 4zM329 264a2 2 0 100-4 2 2 0 000 4zM335 264a2 2 0 100-4 2 2 0 000 4zM340 264a2 2 0 100-4 2 2 0 000 4zM345 264a2 2 0 100-4 2 2 0 000 4zM350 264a2 2 0 100-4 2 2 0 000 4zM355 264a2 2 0 100-4 2 2 0 000 4zM360 264a2 2 0 100-4 2 2 0 000 4zM365 264a2 2 0 100-4 2 2 0 000 4zM371 264a2 2 0 100-4 2 2 0 000 4zM376 264a2 2 0 100-4 2 2 0 000 4zM381 264a2 2 0 100-4 2 2 0 000 4zM386 264a2 2 0 100-4 2 2 0 100 4zM391 264a2 2 0 100-4 2 2 0 000 4zM396 265a2 2 0 100-5 2 2 0 000 5z"/>
    <path d="M401 265a2 2 0 100-5 2 2 0 000 5zM407 265a3 3 0 100-6 3 3 0 000 6z"/>
    <path d="M412 265a3 3 0 100-6 3 3 0 000 6zM0 268l1-1H0v1zM5 268l1-1H5v1zM11 268v-1h-1l1 1zM16 268l-1-1 1 1zM21 268v-1h-1l1 1zM26 268v-1 1zM31 267zM36 267zM41 267zM180 267zM185 267zM191 267h-1 1zM196 267h-1 1zM201 267zM206 267zM211 268v-1 1zM216 268v-1 1zM221 268v-1 1zM227 268v-1h-1l1 1zM232 268v-1h-1l1 1zM237 268a1 1 0 100-2 1 1 0 100 2zM242 268a1 1 0 100-2 1 1 0 100 2zM247 268a1 1 0 100-2 1 1 0 000 2zM252 268a1 1 0 100-2 1 1 0 000 2zM257 268a1 1 0 100-2 1 1 0 000 2zM263 268l1-1a1 1 0 10-1 1zM268 268l1-1a1 1 0 10-1 1zM273 268a1 1 0 100-2 1 1 0 000 2zM278 268a1 1 0 10-1-1l1 1zM283 268a1 1 0 100-2 1 1 0 100 2zM288 269a1 1 0 100-3 1 1 0 000 3zM293 269a1 1 0 100-3 1 1 0 000 3zM299 269a1 1 0 100-3 1 1 0 000 3zM304 269a1 1 0 100-3 1 1 0 000 3zM309 269a2 2 0 100-3 2 2 0 000 3zM314 269a2 2 0 100-3 2 2 0 000 3zM319 269a2 2 0 100-3 2 2 0 000 3z"/>
    <path d="M324 269a2 2 0 100-4 2 2 0 000 4zM329 269a2 2 0 100-4 2 2 0 000 4zM335 269a2 2 0 100-4 2 2 0 000 4zM340 269a2 2 0 100-4 2 2 0 000 4zM345 269a2 2 0 100-4 2 2 0 000 4zM350 269a2 2 0 100-4 2 2 0 000 4zM355 269a2 2 0 100-4 2 2 0 000 4zM360 269a2 2 0 100-4 2 2 0 000 4zM365 269a2 2 0 100-4 2 2 0 000 4zM371 269a2 2 0 100-4 2 2 0 000 4zM376 269a2 2 0 100-4 2 2 0 000 4zM381 270a2 2 0 100-5 2 2 0 000 5z"/>
    <path d="M386 270a2 2 0 100-5 2 2 0 000 5z"/>
    <path d="M391 270a2 2 0 100-5 2 2 0 000 5z"/>
    <path d="M396 270a3 3 0 100-5 3 3 0 100 5z"/>
    <path d="M401 270a3 3 0 100-5 3 3 0 100 5z"/>
    <path d="M407 270a3 3 0 100-5 3 3 0 000 5z"/>
    <path d="M412 270a3 3 0 100-5 3 3 0 000 5zM0 273l1-1a1 1 0 10-1 1zM5 273a1 1 0 100-1 1 1 0 000 1zM11 273v-1h-1l1 1zM16 273v-1h-1l1 1zM21 273v-1 1zM26 273v-1 1zM31 273v-1 1zM36 272zM41 272zM180 272zM185 272zM191 273v-1 1zM196 273v-1h-1l1 1zM201 273v-1 1zM206 273v-1 1zM211 273l1-1h-1v1zM216 273a1 1 0 100-1 1 1 0 000 1zM221 273l1-1h-1v1zM227 273a1 1 0 100-1 1 1 0 000 1zM232 273v-1a1 1 0 100 1zM237 273a1 1 0 100-1 1 1 0 000 1zM242 273a1 1 0 100-1 1 1 0 000 1zM247 273a1 1 0 100-2 1 1 0 000 2zM252 273l1-1-1-1-1 1 1 1zM257 273l1-1-1-1-1 1 1 1zM263 273a1 1 0 000-2l-2 1 2 1zM268 273a1 1 0 100-2 1 1 0 000 2zM273 274a1 1 0 100-3 1 1 0 000 3zM278 274l1-2-1-1-1 1 1 2zM283 274a1 1 0 100-3 1 1 0 000 3zM288 274a1 1 0 100-3 1 1 0 000 3zM293 274a1 1 0 000-3 1 1 0 000 3zM299 274a2 2 0 100-3 2 2 0 000 3zM304 274a1 1 0 100-3 1 1 0 000 3zM309 274a2 2 0 100-3 2 2 0 000 3zM314 274a2 2 0 100-3 2 2 0 000 3zM319 274a2 2 0 000-3 2 2 0 000 3zM324 274a2 2 0 100-3 2 2 0 000 3zM329 274a2 2 0 000-3 2 2 0 000 3zM335 274a2 2 0 100-4 2 2 0 000 4zM340 274a2 2 0 100-4 2 2 0 000 4zM345 274a2 2 0 100-4 2 2 0 000 4zM350 274a2 2 0 100-4 2 2 0 000 4zM355 274a2 2 0 000-4 2 2 0 000 4zM360 275a2 2 0 100-5 2 2 0 000 5z"/>
    <path d="M365 275a2 2 0 100-5 2 2 0 000 5zM371 275a2 2 0 100-5 2 2 0 000 5z"/>
    <path d="M376 275a2 2 0 100-5 2 2 0 000 5z"/>
    <path d="M381 275a2 2 0 100-5 2 2 0 000 5z"/>
    <path d="M386 275a2 2 0 100-5 2 2 0 000 5z"/>
    <path d="M391 275a2 2 0 100-5 2 2 0 000 5zM396 275a3 3 0 100-5 3 3 0 000 5z"/>
    <path d="M401 275a3 3 0 100-5 3 3 0 000 5z"/>
    <path d="M407 275a3 3 0 100-5 3 3 0 000 5z"/>
    <path d="M412 275a3 3 0 100-5 3 3 0 000 5zM0 278a1 1 0 100-1 1 1 0 000 1zM5 278a1 1 0 100-1 1 1 0 000 1zM11 278v-1 1zM16 278v-1h-1l1 1zM21 278v-1 1zM26 278v-1 1zM31 278v-1 1zM36 278v-1 1zM41 278v-1 1zM175 277zM180 278v-1 1zM185 278l1-1h-1v1zM191 278v-1h-1l1 1zM196 278v-1h-1l1 1zM201 278v-1 1zM206 278v-1 1zM211 278l1-1h-1v1zM216 278a1 1 0 100-1 1 1 0 000 1zM221 278a1 1 0 100-1 1 1 0 000 1zM227 278v-1h-1l1 1zM232 278v-1h-1l1 1zM237 278a1 1 0 100-1 1 1 0 000 1zM242 278a1 1 0 100-1 1 1 0 000 1zM247 278l1-1h-1-1l1 1zM252 278l1-1-1-1-1 1 1 1zM257 278l1-1-1-1-1 1 1 1zM263 279a1 1 0 100-3 1 1 0 000 3zM268 279a1 1 0 100-3 1 1 0 000 3zM273 279l1-2a1 1 0 00-2 0l1 2zM278 279l1-2-1-1-1 1 1 2zM283 279a1 1 0 100-3 1 1 0 000 3zM288 279a1 1 0 100-3 1 1 0 000 3zM293 279a1 1 0 100-3 1 1 0 000 3zM299 279a2 2 0 100-3 2 2 0 000 3zM304 279a2 2 0 100-3 2 2 0 000 3zM309 279a2 2 0 100-3 2 2 0 000 3zM314 279a2 2 0 100-3 2 2 0 000 3zM319 279a2 2 0 100-3 2 2 0 000 3zM324 279a2 2 0 100-3 2 2 0 000 3zM329 279a2 2 0 100-3 2 2 0 000 3zM335 279a2 2 0 100-3 2 2 0 000 3zM340 279a2 2 0 100-3 2 2 0 000 3z"/>
    <path d="M345 280a2 2 0 100-5 2 2 0 000 5z"/>
    <path d="M350 280a2 2 0 100-5 2 2 0 000 5z"/>
    <path d="M355 280a2 2 0 100-5 2 2 0 000 5z"/>
    <path d="M360 280a2 2 0 100-5 2 2 0 000 5z"/>
    <path d="M365 280a2 2 0 100-5 2 2 0 000 5zM371 280a2 2 0 100-5 2 2 0 000 5z"/>
    <path d="M376 280a2 2 0 100-5 2 2 0 000 5z"/>
    <path d="M381 280a2 2 0 100-5 2 2 0 000 5z"/>
    <path d="M386 280a2 2 0 100-5 2 2 0 000 5z"/>
    <path d="M391 280a2 2 0 100-5 2 2 0 000 5zM396 280a3 3 0 100-5 3 3 0 000 5z"/>
    <path d="M401 280a3 3 0 100-5 3 3 0 000 5z"/>
    <path d="M407 280a3 3 0 100-5 3 3 0 000 5z"/>
    <path d="M412 280a3 3 0 100-5 3 3 0 000 5zM0 283a1 1 0 100-1 1 1 0 000 1zM5 283a1 1 0 100-1 1 1 0 000 1zM11 283v-1l-1 1h1zM16 283v-1l-1 1h1zM21 283v-1 1zM26 283v-1 1zM31 283v-1 1zM36 283zM41 283zM175 283zM180 283v-1 1zM185 283h1l-1-1v1zM191 283v-1l-1 1h1zM196 283v-1l-1 1h1zM201 283v-1 1zM206 283v-1 1zM211 283h1l-1-1v1zM216 283a1 1 0 100-1 1 1 0 000 1zM221 283a1 1 0 100-1 1 1 0 000 1zM227 283v-1l-1 1h1zM232 283v-1l-1 1h1zM237 283a1 1 0 100-1 1 1 0 000 1zM242 283a1 1 0 100-1 1 1 0 000 1zM247 284l1-1-1-1-1 1 1 1zM252 284l1-1-1-1-1 1 1 1zM257 284l1-1-1-1-1 1 1 1zM263 284a1 1 0 100-3 1 1 0 000 3zM268 284a1 1 0 100-3 1 1 0 000 3zM273 284l1-1-1-2-1 2 1 1zM278 284a1 1 0 100-3 1 1 0 000 3zM283 284a1 1 0 100-3 1 1 0 000 3zM288 284a1 1 0 100-3 1 1 0 000 3zM293 284a1 1 0 100-3 1 1 0 000 3zM299 284a2 2 0 100-3 2 2 0 000 3zM304 284a2 2 0 100-3 2 2 0 000 3zM309 284a2 2 0 100-3 2 2 0 000 3zM314 284a2 2 0 100-3 2 2 0 000 3zM319 284a2 2 0 100-3 2 2 0 000 3zM324 284a2 2 0 100-3 2 2 0 000 3zM329 284a2 2 0 100-3 2 2 0 000 3zM335 285a2 2 0 100-4 2 2 0 000 4zM340 285a2 2 0 100-4 2 2 0 000 4zM345 285a2 2 0 100-4 2 2 0 000 4zM350 285a2 2 0 100-4 2 2 0 000 4zM355 285a2 2 0 100-5 2 2 0 000 5z"/>
    <path d="M360 285a2 2 0 100-5 2 2 0 000 5z"/>
    <path d="M365 285a2 2 0 100-5 2 2 0 000 5zM371 285a2 2 0 100-5 2 2 0 000 5z"/>
    <path d="M376 285a2 2 0 100-5 2 2 0 000 5z"/>
    <path d="M381 285a2 2 0 100-5 2 2 0 000 5z"/>
    <path d="M386 285a2 2 0 100-5 2 2 0 000 5z"/>
    <path d="M391 285a2 2 0 100-5 2 2 0 000 5zM396 285a3 3 0 100-5 3 3 0 000 5z"/>
    <path d="M401 285a3 3 0 100-5 3 3 0 000 5z"/>
    <path d="M407 285a3 3 0 100-5 3 3 0 000 5z"/>
    <path d="M412 285a3 3 0 100-5 3 3 0 000 5zM253-31l-15 70 22-70h-7zM327-31l-60 97 71-97h-11zM23-31L153 92 39-31H23zM-116 294v4l7 5 241-117-248 108zM-116 182v5l178-23-178 18zM528 101l-157 25 157-20v-5zM110 310l64-105-76 105h12zM13 310l109-87L0 310h13zM528 56l-201 61 201-54v-7zM237 310l-14-74 6 74h8zM528 225l-223-52 223 60v-8zM-116-7V5l227 99L-116-7zM528 206l-205-35 205 42v-7zM-116 116v6l199 16-199-22zM528-9l-7-4-233 124L528-4v-5zM-116 19v8L78 98l-194-79zM426 310l-116-84 104 84h12zM287 310l-35-76 27 76h8zM318 310l-59-90 49 90h10z"/>
    <path d="M-116 119v5l184 13-184-18zM278-31L240 77l49-108h-11zM-116 297v7l132-64-132 57zM528 283l-238-99 238 111v-12zM224-31l-4 96 14-96h-10zM528 166l-177-8 177 13v-5zM210 310l1-99-11 99h10zM474 310l-137-77 123 77h14zM-93-31L127 98-70-31h-23zM528 78l-211 49 211-42v-7zM486-31L315 86 507-31h-21zM136 314l49-109-60 110 11-1zM528 153l-174-1 174 6v-5zM502 310L280 190l199 120h23zM-116 42v8l205 61-205-69zM261 310l-28-90 18 90h10zM389 310L272 207l103 103h14zM-116 78v6l160 31-160-37zM350 310l-66-72 57 72h9zM-116 84v5l150 27-150-32zM528 136l-150 7 150-3v-4zM189-31l16 111-4-111h-12zM-116 99v7l227 29-227-36zM528 43l-226 77 226-68v-9zM528 310v-6l-122-57 122 63zM528-22L353 75l175-87v-10zM454-31L311 78 471-31h-17zM528 272l-231-88 231 99v-11zM-35-31L138 92-18-31h-17zM-116-31v9L97 87-109-31h-7zM-116 61v6l155 38-155-44z"/>
    <path d="M-116 296v7l150-73-150 66zM528 56l-166 51 166-44v-7zM-116 268v10l220-92-220 82zM-116 36v4L2 78l-118-42zM68 310l84-97-96 97h12zM-116 194v6l183-28-183 22zM-116 162v6l195-12-195 6zM186 310l13-96-23 96h10zM-116 248v5l145-46-145 41zM53-31l82 88-71-88H53zM-116 234v8l235-68-235 60zM-76 310l206-117-229 117h23zM528 247l-227-68 227 76v-8zM528 24l-194 79 194-70v-9zM95-31l60 91-50-91H95zM83 310l46-60-53 60h7zM152-31l39 113-27-113h-12zM397-31L275 90 412-31h-15zM-40 310l173-105-193 105h20zM165 310l25-97-35 97h10zM-116 134v6l208 5-208-11zM-116 148v5l175-3-175-2zM437-31L335 53l115-84h-13zM-116 168v4l161-12-161 8zM-116 214v8l219-50-219 42zM-116 50v7l179 49-179-56z"/>
    <path d="M435-31l-70 59 79-59h-9zM355-31L273 75l95-106h-13zM121-31l40 76-32-76h-8zM528 114l-205 24 205-18v-6zM528 184l-212-22 212 29v-7zM528 250l-221-69 221 78v-9zM528 287l-148-62 148 69v-7zM528 147l-215 3 215 3v-6z"/>
  </g>
  <defs>
    <clipPath id="clip0">
      <path fill="#fff" d="M0 0h411v283H0z"/>
    </clipPath>
  </defs>
</svg>