<?xml version="1.0" encoding="utf-8"?>
<!-- Generator: Adobe Illustrator 24.0.3, SVG Export Plug-In . SVG Version: 6.00 Build 0)  -->
<svg version="1.2" baseProfile="tiny" id="Layer_1" xmlns="http://www.w3.org/2000/svg" xmlns:xlink="http://www.w3.org/1999/xlink"
	 x="0px" y="0px" viewBox="0 0 862 559" xml:space="preserve">
<path fill-rule="evenodd" d="M187.58,531.62c-12.89,3.46,5.13,10.75,7.63,2.44C194.77,531.2,189.69,531.06,187.58,531.62z
	 M25.62,530.65c-3.61,5.84,4.99,9.16,8.06,7.24C32.42,534.9,29.39,529.95,25.62,530.65z M35.17,528.75
	c-3.87,4.64,8.9,11.36,7.78,5.32C42.16,531,38.9,526.59,35.17,528.75z M180.5,524.54c-3.01,0.38-11.41,3.75-8.17,7.35
	c2.29,0.3,7.68,6.53,8.72,3.12c1.07-4.57,7.89-6.17,11.71-4.76C193.96,526.93,184.7,522.6,180.5,524.54z M29.98,523.02
	c-5.08,7.99-3.8,3.82,2.72,9.42C32.5,526.64,39.89,524.03,29.98,523.02z M616.33,520.18c0.01,0.35-1.1,0.35-1.09,0
	C615.23,519.83,616.35,519.83,616.33,520.18z M177.23,516.91c-9.4,0.5-21.61,6.32-7.56,13.14c6.33-11.53,25.94-3.51,11.33-12.58
	C180.75,517.89,177.28,516.35,177.23,516.91z M585.28,516.91c0,0.35-0.55,0.35-0.54,0C584.73,516.56,585.28,516.56,585.28,516.91z
	 M45.39,517.46c-17.27,12.83-0.74,6.09-0.54,19.34c11.4,0.99,6.75-10.57-0.27-13.08c-11.69-3.94,8.77-1.88,8.99,8.99
	C67.46,531.86,53.94,511.64,45.39,517.46z M66.64,516.58c1.67,1.28,0.87,6.38,3.27,3.06C78.47,514.54,69.11,515.99,66.64,516.58z
	 M35.98,515.95c-2.56,4.25-7.21,5.57-0.67,7.23C41.15,524.81,45.37,511.56,35.98,515.95z M537.88,512.01c0,0.35-0.55,0.35-0.54,0
	C537.33,511.65,537.89,511.65,537.88,512.01z M50.43,512.41c-5.34,3.3,9.09,3.77,11.31,14.58c8.78-4.18,5.7-12.3-4.9-12.53
	C53.38,514.34,53.47,508.4,50.43,512.41z M167.43,509.28c-6.88-0.18-15.07,8.97-6.14,13.35c4.58-5.69,11.51-7.2,19.21-7.08
	C181.21,509.08,172.24,508.28,167.43,509.28z M40.89,509.41c-5.03,4.39-0.71,4.16,2.8,7.22C52.06,512.13,46.77,505.7,40.89,509.41z
	 M46.48,501.82c-0.71,1.77-4.9,4.76-1.09,5.28c1.51,0.14,4.04,3.95,5.61,2.61C51.25,506.3,52.16,499.17,46.48,501.82z M54.78,500.96
	c-4.36,4.44,3.6,15.86,8.05,9.56C65.97,506.45,60.04,497.71,54.78,500.96z M166.34,500.57c-2.06,0.35-5.3,0.7-7.08,1.63
	c0.92,1.16,3.98,5.78,0,2.18c-4.2-3.3-4.26,1.38-3.27,4.63c0.22,4.62,0.99,4.9,3.82,2.18c4.52-4.37,12.54-4.02,17.97-2.99
	C176.17,503.63,171.63,499.66,166.34,500.57z M150.54,498.55c1.23,1.14,3.05,5.58,4.23,4.47C159.06,502,151.93,497.06,150.54,498.55
	z M63.37,496.21c-0.99,0.86-7.34,2.06-4.36,3.27c5.52,1.16,8.03,8.72,4.63,12.8c-2.16,2.08,6.74,1.99,7.35-1.22
	C75.06,505.18,70.61,495.96,63.37,496.21z M71.54,492.94c-1.93,0.86-7.64,2.29-2.72,3.54c5.95,2.47,6.86,11.42,3.27,16.13
	C84.57,515.24,83.88,492.25,71.54,492.94z M52.33,493.62c-2,2.92-6.53,6.57-1.49,7.22c2.23,0.59,5.96-4.26,8.72-5.33
	C57.87,493.6,55.12,490.56,52.33,493.62z M163.61,490.22c-4.61-0.36-21.59,2.5-9.92,7.36c5.56,6.44,12.58-1.27,19.25,2.52
	C173.31,493.34,171.27,491.35,163.61,490.22z M114.85,489.94c-2.83,2.2-6.76,3.87-7.63,7.63c-1.84,3.71,6.93-1.65,7.35-2.84
	C115.33,494.5,116.57,488.14,114.85,489.94z M79.17,489.13c-1.35,1.15-7.95,2.61-3.54,3.54c7.22,1.47,8.24,12.32,5.72,17.68
	c-1.44,2.33,1.51,0.55,2.72,0.57C94.07,508.35,89.51,487.26,79.17,489.13z M58.04,487.91c-5.8,4.46,0.61,4.55,3.42,6.39
	c2.16-0.39,3.19-1.66,5.06-2.18C69.84,490.44,60.48,481.93,58.04,487.91z M143.18,486.68c-3.54,1.9-2.88,4.71,0.16,3.27
	C147.2,488.88,148.55,481.94,143.18,486.68z M85.16,485.86c-6.38,3.92,4.71,1.75,5.72,12.8c1.59,1.37-1.97,11.02,0.27,9.53
	c2.27-0.82,4.46-1.69,4.9-4.3C100.58,497.26,94.48,480.76,85.16,485.86z M79.17,484.22c-5.19,4.37-2.46,3.43,1.63,2.18
	C84.97,486.15,81.1,481.15,79.17,484.22z M139.64,483.68c-0.8,2.07-3.13,6.66,1.02,3.54C145.43,485.22,141.51,481.22,139.64,483.68z
	 M157.62,482.04c-4.01,0.64-8.32,2.39-10.35,6.2c-2.02,2.55-5.84,3.5-0.54,5.24c3.14-0.4,6.51-4.42,10.35-4.36
	c4.94-0.78,10.59-0.57,14.98,1.91C178.91,485.18,164.31,479.68,157.62,482.04z M133.65,482.59c-0.95,7.9,7.63,3.22,2.73-0.55
	C135.24,482.02,133.29,480.27,133.65,482.59z M96.06,480.41c-15.73,2.93,9.36,5.88,1.84,23.78
	C107.85,501.69,110.41,479.6,96.06,480.41z M65.14,480.27c-6.3,5.03,1.93,5.17,3.14,9.81c0.53,3.09,5.27-3.21,5.99-4.22
	C75.89,482.78,67.99,476.82,65.14,480.27z M106.41,477.14c-11.27,4.64,1.01,2.11,1.97,14.01c-0.89,3.01,3.53-1.81,4.69-2.29
	C118.95,486.39,110.49,476.25,106.41,477.14z M85.29,477.54c-8.19,9.62,2.52,5.32,6.95,1.62C90.96,477.2,87.51,474.86,85.29,477.54z
	 M112.95,473.33c-7.8,3.34,2.11,4.35,4.3,12.8c3.9-2.51,2.46-0.07,0.06,1.87c0.35,2.28-1.1,7.7,1.91,4.67
	C128.42,489.56,120.87,472.43,112.95,473.33z M72.63,471.3c-0.43,0.93-3.99,4.45-4.36,5.3c-0.87,0.84,8.59,8.88,9.91,5.72
	C86.43,476.66,78.85,470.47,72.63,471.3z M116.49,470.88c-4.17,1.63,7.85,3.55,8.17,13.08c1.16,5.09-2.25,7.28,4.63,4.63
	C138.01,483.28,125.17,466.65,116.49,470.88z M56.83,465.16c-1.58,0.93-3.83,1.57-5.45,2.72C52.8,469.21,60.35,465.01,56.83,465.16z
	 M80.26,464.07c-5.26,3.41-7.81,4.71-1.09,7.9c3.69,4.63,8.54,3.18,10.08-1.63C87.91,467.46,84,462.98,80.26,464.07z M129.18,461.96
	c1.17-0.17-11.19-0.83-9.69,0.2c0.26,0.12-17.31,15.29-7.08,9.53c5.02-0.82,12.28-11.73,15.8-8.29c-1.49,3.39-6.56,2.65-8.72,5.68
	c2.48,0.34,5.57,0.73,7.58,2.33c3.03,1.64,4.5,4.74,5.5,7.78c0.81,2.74,14.18,3.5,16.23,4.54c11.94-8.1,26.58,1.49,21.91-4.7
	c-3.13-3.54-1.58-10.44-6.54-11.99c-20.17-3.13-9.76,2.69-11.44,13.62c-3.62-10.81,0.15-13.43-13.08-16.61
	c-4.44-1.62-7.49-1.76-10.89,0C129.18,463.81,130.59,460.84,129.18,461.96z M112.4,458.07c-4.3,3.1-21.38,9.71-10.9,14.71
	c4.07,5.79,6.15-2.04,9.81-4.61C115.49,463.33,120.59,461.27,112.4,458.07z M16.11,456.3c-3.38,2.51-0.09,9.59,3.42,9.68
	C25.92,465.52,21.11,451.59,16.11,456.3z M19.24,453.6c4.36,2.56,6.7,9.3,3.27,13.46C36.79,474.01,34.19,448.97,19.24,453.6z
	 M29.44,453.83c3.22,3.21,7.3,10.74,1.12,14.87c-1.3,2.94,5.63-0.47,6.66-0.82C45.51,464.29,37.81,450.09,29.44,453.83z
	 M98.09,453.84c-2.02,4.74-7.5,9.56-9.93,12.67c2.89,5.22,2.58,2.07,5.72,3.15c0.27,0.93-6.63,4.85-4.96,5.57
	c3.35,3.17,10.79,4.96,13.68,0.66c-0.62-3.46-5.76-3.53-7.08-5.84c2.09-7.25,9.02-11.78,16.34-12.41
	C108.23,455.16,102.41,452.06,98.09,453.84z M66.64,452.84c2.99,3.93,2.31,9.81,0.54,13.95c-1.37,2.2,1.98,1.5,3.27,2.45
	C76.28,469.54,74.09,450.19,66.64,452.84z M71.54,452.84c2.11,3.34,5.44,6.7,3.81,10.96c-0.47,3.09,2.56-1.84,3.27-1.63
	C83.57,457.8,76.75,449.61,71.54,452.84z M41.04,452.08c-1.12,0.6-6.78,0.27-2.85,1.91c5.51,3.7,6.27,15.02-1.51,16.62
	c4.88,0.68,9.9-2.4,13.07-5.72C52.99,458.93,47.75,450.69,41.04,452.08z M57.92,450.88c2.75,2.73,2.91,7.18,3.54,10.73
	c0.43-0.13,1.86-1.81,1.91-0.55c-2.12,1.37-3.35,3.05-4.08,5.45c-1.94,1.71,4.12,0.74,4.2,1.43c0.23,0.59,0.41-0.49,0.88-0.34
	C70.2,460.92,67.35,451.09,57.92,450.88z M155.44,449.9c-8.85-1.34-5.62,9.1-5.18,14.44c-0.13,3.93,12.73-1.2,15.86,2.72
	c1.76-0.68-1.02-5.75-0.6-7.63C166.41,452.36,161.43,449.06,155.44,449.9z M50.84,449.36c-10.18,2.83,0.12,1.84,0.82,7.9
	c2.46,2.92-3.21,11.29,2.18,7.63c1.67-1.27,4.54-1.58,5.45-3.27C60.37,456.72,57.01,447.66,50.84,449.36z M91.16,445.27
	c-1.56,1.22-4.68,3.69-6.54,4.63c-2.24,1.3-7.22,1.52-4.09,4.63c0.25,5.28,9.61-9.46,7.9-3.31c-1.61,3.54-4.54,5.79-7.08,7.91
	c1.03,11.47,16-1.93,13.62-4.34c-3.53,1.7-7.68,7.1-11.44,6.38c2.21-4.19,16.14-6.23,13.35-12.1c-2.94-5-4.55-1.69-7.9-0.69
	C89.91,447.54,93.98,443.78,91.16,445.27z M133.49,445.12c-2.46,5.33-6.96,9.73-10.74,13.9c-1.93,2.77,1.2,0.08,2.18,1.24
	c6.85,4.71,18.39-16.75,11.99-4.58c-7.99,8.29,2.2,5.6,7.63,8.67c8,5.02,2.38-7.8,3.27-12.15
	C147.37,445.99,138.59,444.71,133.49,445.12z M93.72,442.94c-0.75,1.05-0.38,1.76,0.58,0.58C95.48,442.55,94.77,442.18,93.72,442.94
	z M118.94,436.83c-4.48,5.05-17.57,10.17-18.25,14.98c16.88,4.7,10.96,6.56,23.16-4.2c-1.43,5.67-14.26,8.95-5.19,12.92
	C129.99,452.2,139.47,438.7,118.94,436.83z M769.42,435.19c-13.54,1.51,7.71,10.53,5.99,1.91
	C773.75,436.41,771.24,434.67,769.42,435.19z M161.28,434.22c-14.75,19.61-10.32,12.29,1.79,15.14c2.64-1.77-1.33-7.15-1.36-10.08
	C160.35,436.87,168.91,432.33,161.28,434.22z M109.13,430.83c-3.59,5.45-18.57,12.15-10.9,17.71c3.45,2.38,16.4-10.25,19.94-13.56
	C116.09,432.38,113.1,426.23,109.13,430.83z M761.25,428.66c0,0.35-0.55,0.35-0.54,0C760.7,428.3,761.25,428.3,761.25,428.66z
	 M147.81,426.08c-16.62,21.83-17.28,12.94,0.54,22.19c2.8,1.64,4.83-7.04,7.9-8.99C164.84,432.88,154.56,425.1,147.81,426.08z
	 M764.52,425.39c-5.89,1-4.38,5.12-2.18,9.15c-0.61,2.5,8.58-2.97,11.44,0.12c3.99,3.77,2.86-7.01,2.18-7.36
	C773.34,425.92,768.02,424.4,764.52,425.39z M170.55,424.99c-8.84,7.61-7.31,9.82-3.12,5.85
	C171.64,425.73,186.64,408.78,170.55,424.99z M133.49,417.88c-15.73,23.03-18.24,11.21-0.39,24.67
	C140.43,432.08,158.27,418.83,133.49,417.88z M757.98,417.21c-5.9,2.93,4.5,4.84,6.54,2.45
	C767.02,417.42,759.38,416.65,757.98,417.21z M178.99,416.52c-1.55,1.14,0.35,1.35,0.42,0.42
	C179.78,416.2,180.48,415.22,178.99,416.52z M769.96,415.19c-1.72,1.72-1.99,4.28-3.7,6.11c-1.73,1.85-4.47,1.91-6.54,2.86
	c-1.44,2.13,0.93,0.82,1.9,0.41c3.76-2.01,9.2-0.8,12.97,0.55c3.19,1.8,1.75-3.75,1.91-5.9
	C776.87,415.26,771.99,414.96,769.96,415.19z M181.42,414.1c-2.36,2.56,1-0.07,1.26-0.83C182.68,412.95,182.34,413.17,181.42,414.1z
	 M124.39,413.01c-2.73,5.09-11.21,10.89-11.44,15.37c1.81,0.83,4.27,2.41,5.18,4.36c4.44,1.25,10.06-11.64,14.17-15.25
	C133.11,414.72,126.54,411.55,124.39,413.01z M756.89,409.59c-7.07,1.5-7.71,2.87-2.84,8.44c1.75-2.76,6.12-3.42,9.38-2.18
	C772.14,416.64,763.34,406.35,756.89,409.59z M162.39,410.27c-11.43,14.37-17.08,10.48-4.88,18.11c5.63,10.44,13.06-8.57,19.3-11.44
	C177.28,411.81,168.08,401.22,162.39,410.27z M768.33,405.77c1.39,7.84,0.05,7.4,7.63,9.53c0.86,0.89,0.81-9.23-0.12-8.59
	C773.94,405.94,768.38,402.36,768.33,405.77z M457.8,399.78c-6.09,0.29-8.68,6.39-5.17,11.17c1.6,4.39,3.84,9.1,8.72,10.89
	c11.36,6.42,22.48-7.12,25.94-15.8C479.69,400.8,468.09,398.39,457.8,399.78z M753.07,398.15c-9.21,1.52-6.06,5.16-3.81,11.71
	c3.47,0.39,10.44-4.26,15.25-1.36c3.41,2.15,1.13-2.45,1.09-4.63C765.67,398.03,757.26,397.49,753.07,398.15z M766.15,395.15
	c1.88,8.43,1.68,7.49,9.81,10.08c1.66,2.8,1.6-10.36-0.12-8.44C774.06,395.75,768.11,393.32,766.15,395.15z M138.95,391.74
	c-4.17,6.15-7.91,12.17-12.38,18.21c-1.4,1.66,2.4,2.04,3.27,2.91c5.75,6.87,9.24-6.34,13.89-10.08c1.61-3.12,6.39-6.15,5.88-9.42
	C146.88,391.98,141.93,389.19,138.95,391.74z M185.4,387.8c-11.98,13.35-23.49,12.24-6.55,26.97
	C186.91,407.45,205.12,393.66,185.4,387.8z M749.81,387.25c-7.56,0.08-6.53,7.64-3.54,11.71c4.99-2.24,11.24-3.58,16.34-1.09
	c3.01,1.72,1.45-1.76,1.09-3.27C764.79,386.87,755.65,386.6,749.81,387.25z M818.99,385.62c-4.19,1.35-4.35,8.71-0.11,9.33
	C824.66,394.19,826.08,384.48,818.99,385.62z M674.62,385.07c-0.01,0.35,1.1,0.35,1.09,0C675.73,384.72,674.61,384.72,674.62,385.07
	z M765.99,384.1c-1.79,11.39,2.76,7.54,9.96,11.32c1.81,3.06,1.32-10.57,0.42-9.41C773.49,384.18,769.7,383.08,765.99,384.1z
	 M814.09,380.17c-13.22,1.33-0.5,21.96,1.36,13.89c-3.86-4.29,0.69-11.44,5.72-9.95C819.86,382.15,816.2,379.46,814.09,380.17z
	 M445.27,381.26c1.32,6.93,2.4,13.62,4.36,20.04c2.1,5.01,3.19-8.38,1.36-9.96C450.55,389.64,445.12,375.82,445.27,381.26z
	 M501.93,379.08c-7.27,4.21-6.37,13.2-9.53,19.88c0.24,2.62,7.71-8.83,8.72-10.89C501.85,387.24,505.32,375.78,501.93,379.08z
	 M754.16,377.99c-8.06,1.9-13.59-1.18-10.44,9.76c2.84-0.68,8.01-3.55,12.07-2.13c2.33-0.48,7.64,4.51,7.08-0.27
	C765.31,378.58,758.36,378.04,754.16,377.99z M468.69,376.36c-5.73,1.53-9.65,14.66-12.8,19.34c-4.44,6.34,16.97,0.67,20.43,4.36
	c3.48,0.08,10.89,5.85,12.53,4.36c1.36-5.15,11.04-20.35,3.27-23.43C485.46,377.97,476.89,375.37,468.69,376.36z M804.01,375.54
	c-9.4,4.55-3.36,19.44,4.36,17.43c-4.16-5.83-1.22-14.82,6.81-14.31C813.38,375.27,806.92,373.94,804.01,375.54z M742.18,375.69
	c-0.27,4.28,3.08,1.7,5.45,1.88C746.5,376.66,741.51,371.94,742.18,375.69z M765.38,374.36c0.41,2.27-1.22,9.17,4.03,7.99
	c2.22-0.02,6.12,2.6,7.63,1.37C774.7,379.32,771.48,372.62,765.38,374.36z M760.16,371.18c0.38,2.33-4.95,5.2-1.09,5.72
	C766.75,381.84,762.93,366.38,760.16,371.18z M750.9,368.73c-8.61,5.55,9,9.95,4.9,0.82C755.38,368.56,751.89,368.15,750.9,368.73z
	 M799.38,367.09c-10.6,0.47-7.06,22.31-1.63,19.07c-1.77-7.35,4.39-14.05,11.98-12.95c0-0.34-2.48-2.58-2.85-2.58
	c-1.2-0.56,1.08-1.86-1.08-2.18C804.09,367.8,801.38,366.24,799.38,367.09z M153.26,366.55c-4.09,3.24-4.85,9.28-7.63,13.29
	c-7.67,12.54-4.78,7.29,5.34,12.93c5.13-4.98,9.26-11.99,14.01-17.77C168.2,369.28,157.57,365.69,153.26,366.55z M206.92,366.28
	c-26.97,27.63-20.69,12.15-9.81,31.05c4.24-2.91,7.63-6.18,11.22-9.26c2.81-3.05,10.43-4.77,10.58-9.26
	C217.61,374.36,212.36,365.22,206.92,366.28z M762.88,365.19c2.97,8.89,1,5.98,8.99,9.26C772.38,370.01,768.06,362.99,762.88,365.19
	z M604.89,364.31c1.88,2.63,3.37,5.36,4.9,8.29c0.89,2.95,1.82,5.33,5.18,5.66c4.93,1.31,9.73,3.65,14.98,4.09
	c4.62,0.97-5.78-4.52-5.99-6.27c-3.07-4.48-6.5-7.9-11.44-8.99C610.16,366.29,607.41,363.98,604.89,364.31z M746.54,361.65
	c-8.44,1.4-2.98,11.2,0.89,12.33c-2.14-5.53,4-8.7,8.37-6.61C758.35,362.84,750.19,360.19,746.54,361.65z M756.89,360.77
	c2.2,2.18,1.93,6.07,4.08,7.69c2.01-0.03-1.16-1.81-0.82-3C759.43,364.13,759,358.71,756.89,360.77z M792.84,358.92
	c-9.26,4.61-8.4,15.63-2.33,20.97c-0.84-7.34,4.73-17.89,12.95-13.62C804.05,361.94,797.06,357.13,792.84,358.92z M728.01,357.29
	c-7.99,0.77,11.66,14.25,5.99,8.4C732.01,364.43,729.85,354.81,728.01,357.29z M784.67,355.11c-5.91,2.2-6.61,9.01-5.45,13.92
	c1.06,7.17,9.98,3.94,1.36-0.02c-2.78-1.76,2.8-0.61,3.27,0.55c0.46-3,1.42-6.33,3.54-8.7c1.58-3.31,5.81-3.61,8.72-4.11
	C793.4,355.75,787.67,355.65,784.67,355.11z M758.52,354.56c1.49,2.88,1.94,6.89,4.36,8.72c1.2-0.19,6.27,2.04,5.72,0.82
	c-1.56-2.47-1.46-6.49-4.2-8.17C763.11,355.37,759.27,352.16,758.52,354.56z M509.55,352.93c-7.43,1.11-7.1,9.01-8.44,14.98
	c-0.74,4.64-6.54,16.49,1.91,8.99c2.11-0.12,3.28-13.37,0.82-8.44c-0.98,2.06-3.07,7.86-2.18,1.63
	C500.7,365.17,514.65,350.59,509.55,352.93z M582.01,353.09c2.39,3.17,4.15,6.39,5.45,9.79c5.63,5.58,13.67,8.71,20.16,12.39
	c5.79,2.73-1.19-6.98-3-9.53c-2.47-4.31-7.51-4.92-11.17-7.08C589.74,357.39,585.14,353.46,582.01,353.09z M753.07,353.41
	c1.16,2,1.66,4.46,3.81,5.24C758.78,357.42,754.59,350.58,753.07,353.41z M774.71,353.05c-4.17,3.36-4.78,11.39-2.02,15.95
	c0.9,2.81,0.55,5.49,4.63,3.81c3.16,0.57-2.36-9.62,0.82-13.35C780.87,353.61,784.24,354.74,774.71,353.05z M741.63,351.84
	c-6.02,2.36-7.24,11.49-2.18,15.53c1.08-1.78,1.47-5.4,4.36-6.26c1.53-1.65,9.57,0.07,10.35-0.82
	C752.34,355.43,747.63,350.49,741.63,351.84z M452.74,351.41c-16.45,25.45-4.69,21.24,0.97,45.37c2.23-4.11,4.66-8.34,6.81-12.47
	c1.18-3.04,5.12-6.13,4.63-9.32C463.38,366.93,458.79,356.44,452.74,351.41z M770.51,350.21c-6.54,0.35-4.01,5.13-1.24,8.44
	C769.45,355.66,778.05,349.06,770.51,350.21z M722.57,347.48c-2.45,0.82-1.84,4.16-3.27,5.99c-0.51,1.91-6.46,5.11-1.66,4.9
	c3.99-2.39,4.42,1.01,8.19-1.36C731.34,355.56,725.49,347.52,722.57,347.48z M711.67,348.03c0.72,3.21-3.65,5.1-2.29,7.35
	c3.77,6.55,14.77-8.43,6.92-8.17C713.67,347.49,711.29,344.08,711.67,348.03z M750.35,345.57c0.68,2.35,1.76,8.43,4.63,5.45
	C754.27,349.57,752.79,343.47,750.35,345.57z M226.81,344.37c-20.09,28.82-20.38,8.88-6.54,34.16c1.27,2.27,5.35-2.56,7.35-2.99
	c4.53-2.68,10.8-5.78,14.23-9.74C238.87,359.1,233.84,346.95,226.81,344.37z M736.73,343.12c-10.89,1.8-6.45,12.11-3,18.8
	c0.17-7.66,7.54-14.75,15.25-10.35C750.68,344.82,742.56,341.79,736.73,343.12z M754.01,342.15c-0.96,3.43,2.55,8.31,4.44,10.3
	c1.19-1.31,7.65,3.71,5.52,0.48c-1.97-1.97-1.15-4.58-1.36-6.81C760.82,352.07,759.76,338.74,754.01,342.15z M166.46,341.88
	c-5.01,6.95-9.48,11.26-11.84,18.94c-3.42,5.99,1.37,3.69,5.45,5.45c4.99,0.4,6.37,8.93,10.08,1.91c3.76-5.1,7.14-9.61,10.9-14.71
	c3.12-3.63,6-6.01,0.54-8.17c-3.31-1.99-7.05-4.65-8.71,0.22c-2.03,2.97,0.56-2.27,1.09-3.21
	C173.07,341.35,167.75,340.59,166.46,341.88z M227.35,340.4c-0.01,0.35,0.55,0.35,0.54,0C227.9,340.05,227.35,340.05,227.35,340.4z
	 M560.22,340.67c4.4,10.01,14.41,14.69,23.15,20.7c5.74,4.22,0.03-5.69-3.13-8.58C573.77,347.71,566.17,343.24,560.22,340.67z
	 M760.16,339.85c1.22,3.49,0.62,4.39,3.27,6.38c0.91,1.98,1,5.57,3.7,3.15C770.09,348.98,762.31,338.16,760.16,339.85z
	 M686.61,338.76c-1.79,2.98,3.45,2.02,4.9,3.54C693.41,341.91,686.4,336.4,686.61,338.76z M619.18,338.07
	c-5.93,9.63-5.13,22.7,9.41,21.12c6.67,0.93,36.25-0.35,19.88-6.26c-6.3-2.6-12.34-6.68-18.46-9.53
	C626.48,342.09,622.36,337.3,619.18,338.07z M596.18,334.95c2.9,5.73,3.31,10.74,4.36,17.43c1.12,3.68-1.08,7.8,2.24,8.99
	c2.76,1.67,6.2,2.68,9.2,4.09c1.33,0.06,5.79,2.99,5.72,1.36C606.05,338.89,629.66,342.97,596.18,334.95z M731.83,333.32
	c-7.19,2.62-9.33,9.01-4.36,14.98c2.15-4.51,7.18-6.53,11.98-7.08c3.11-0.09,10.44,4.45,7.35-1.09
	C745.41,334.15,737.22,332.1,731.83,333.32z M758.52,333.59c-0.72,2.1,4.09,6.68,2.73,3C760.25,336.14,758.62,330.39,758.52,333.59z
	 M518.82,332.23c-10.26,0.86-10.62,12.44-13.89,19.88c-1.2,3.07,1.81,0.13,3.27,0c3.14-0.35,4.7-1.71,5.72-4.63
	c2.23-3.09,2.84-6.49,4.36-9.81C518.58,335.76,523.15,330.72,518.82,332.23z M695.33,330.87c1.35,2.67,1.66,8.07-0.33,10.41
	c3.59,5.2,6.16,5.82,6.05-1.15C701.4,336.02,700.44,329.62,695.33,330.87z M743.81,330.87c1.04,3.15,3.7,5.74,4.9,8.72
	c0.76,1.35,0.46,3.66,2.18,4.09c3,0.49-2.39-7.54-3.81-8.44c2.91-2.2,4.48,4.99,7.47,4.9C766.96,343.02,746.68,328.45,743.81,330.87
	z M705.68,329.99c-4.02,5.9,3.27,14.24,8.17,14.62C707.68,339.58,707.04,333.22,705.68,329.99z M685.52,327.87
	c0.31,1.94,1.98,3.97,1.91,5.72c0.02,1.8-0.53,2.86,1.91,4.09C698.4,346.87,695.7,324.32,685.52,327.87z M601.48,328
	c-6.64,7-4.46,4.81,2.87,7.5c2.82,1.02,6.16,1.28,8.99,2.45c1.52,0.69,2.74,3.05,3.27,0c2.52-3.11-3.38-3.66-5.17-5.72
	C608.33,330.83,603.96,325.03,601.48,328z M203.51,326.63c-10.13,14.61-26.16,30.8-33.09,45.09c5.09,1.3,10.23,4.32,13.08,9.26
	c1.67,2.36,0.11,7.19-0.54,1.63c-3.9-7.77-14.97-13.83-19.61-3.27c-1.82,4.13-10.72,10.8-9.27,14.16
	c3.77,1.65,11.95,5.34,11.01,10.9c-11.11-19.54-19.19-2.3-28.17,8.77c-1.53,2-2.1,2.82,1.09,3.21c3.54,0.85,7.61,3.33,9.81,6.67
	c3.38-0.81,13.98-14.89,17.98-18.12c10.73-10.71,31.31-29.79,40.86-41.25c-1.68-4.98-5.09-9.64-9.81-12.12
	c-23.61-10.44,6.25-4,9.81,8.44c2.37,10.63,14.7-13.51,18.8-17.16C226.37,339.01,206.67,324.98,203.51,326.63z M571.44,325.87
	c8.78,27.41-2.53,19.16,25.83,33.05c5.57,2.96-0.11-19.83-1.91-22.61c-1.22-4.41-7.54-3.53-10.62-5.72
	C580.32,329.43,575.28,326.25,571.44,325.87z M486.95,325.42c-10.81,7.35-23.6,13.93-32.96,23.83c-1.57,1.47,3.55,3.33,3.81,5.12
	c1.92,2.94,3.73,5.71,4.9,8.92c1.35,1.51,3.58,12.71,4.63,9.53c3.73-8.9,18.7-17.37,10.08-27.24c-1.09-2.85-6.02-6.07-5.59-8.89
	c4.13,2.29,7.44,9.7,9.67,13.79c3.83,1.39,8.97-11.94,13.35-14.59c2.71-2.49,3.21-5.34-0.56-7.2
	C492.08,327.39,489.53,323.85,486.95,325.42z M536.79,325.03c7.01,9.48,15.21,18.15,25.61,22.72
	C563.51,340.86,544.12,329.27,536.79,325.03z M515.39,324.72c-0.47,2.79-6.2,11.07-0.39,7.51c3.12-1.22,7.32-1.23,8.17-5.18
	C521.14,325.99,518.08,324.05,515.39,324.72z M730.19,324.06c-11.7,1.15-17.23,9.28-8.17,18.9c1.68-3.78,3.86-11.41,11.42-11.55
	c2.63-0.7,4.48,0.54,7.1,0.38C737.75,328.78,735,322.78,730.19,324.06z M178.19,329.09c-7.18,6.76-13.02,13.08-2.59,10.37
	C177.53,334.93,191.3,314.51,178.19,329.09z M744.75,323.63c-0.65,2.84-1.81,6.02,2.34,5.88c2.59,1.34,5.04,2.43,7.63,4.36
	c4.32,5.21,2.12-2.51,1.7-4.09C752.55,327.77,748.41,324.39,744.75,323.63z M747.08,322.85c2.31,2.21,5.62,2.7,8.17,4.75
	C762.5,331.58,750.38,321.01,747.08,322.85z M745.99,322.42c0,0.35,0.55,0.35,0.54,0C746.54,322.07,745.99,322.07,745.99,322.42z
	 M664.66,321.99c9.65,17.17-5.58,21.97,0.15,21.13c3.9-0.75,9.42-1.28,11.99-3.81c1.44-3.82,0.92-9.47-3.27-10.9
	c-2.74-0.59-1.4-1.44,0.55-1.52C672,324.48,668.44,320.27,664.66,321.99z M714.94,320.79c-11.07,3.04-6.75,19.83,2.18,23.43
	c1.1,0.86,5.33,1.64,2.72-0.75C711.39,337.55,708.23,326.3,714.94,320.79z M721.48,320.79c-9.41,0.05-10.92,12.12-4.78,17.16
	c-4.84-9.43,7.05-15.78,15.68-15.53C729.36,321.56,724.65,320.45,721.48,320.79z M656.1,320.4c4.18,6,4.75,15.33-2.18,19.57
	C669.98,349.26,669.79,320.07,656.1,320.4z M674.08,319.7c-8.61,1.53,0.46,3.35,2.18,7.49c4.71,0.02,10.7,5.26,3,3.14
	c-4.19-2.02,1.73,3.96,0,5.99c0.02,1.51-2.4,3.68,1.09,3.27c1.97-0.28,3.18,1.53,4.09,0C688.18,332.95,681.72,320.75,674.08,319.7z
	 M521.54,318c2.45,2.55,5.46,7.04,8.17,9.32c4.77,0.71,8.52,4.16,12.61,6.61c-0.11-1.95-7.88-9.39-9.34-11.78
	C529.72,320.45,525.29,317.91,521.54,318z M647.93,318.61c1.78,3.64,0.42,7.33-2.12,10.08c-0.73,1.23-5.26,1.43-3.87,2.45
	C660,353.55,662.77,316.18,647.93,318.61z M678.44,318.06c-3.12,0.75,4.37,4.46,4.9,6.15c1.37,2.38,4.67,2.32,7.08,3.39
	C692.81,324.31,682.24,317.23,678.44,318.06z M184.86,317.52c-0.01,0.35,1.1,0.35,1.09,0C185.96,317.17,184.85,317.17,184.86,317.52
	z M765.6,317.79c-1.52,4.13-4.67,8.87-5.72,11.99c-0.7,0.8,3.82,7.5,4.36,4.36C764.21,330.73,772.56,315.6,765.6,317.79z
	 M190.15,317.09c-3.5,6.61-7.68,12.99-11.83,19.5c-3.62,4.35-1.02,4.35,2.72,6.54c2.99,1.48,5.28,5.55,7.08,0.71
	C194.57,331.58,214.11,322.52,190.15,317.09z M181.59,316.43c-9.95,1.59-18.92,24.99-22.28,33.36c5.26-6.94,8.67-14.34,15.75-21.38
	C177.82,326.11,185.06,316.3,181.59,316.43z M668.63,316.43c0,0.35,0.55,0.35,0.54,0C669.18,316.08,668.63,316.08,668.63,316.43z
	 M504.65,315.88c-4.25,2.02-12.88,5.1-14.77,8.44c8.33,5.63,8.94,8.59,15.86-1.1c3.01-3.25,3.44-0.92-0.55,2.46
	c-1.83,2.68-8.1,6.81-3.27,6.26c2.37-0.59,10.74,3.13,5.99,3c-13.32-9.06-26.26,23.4-34.87,31.32
	c-11.27,13.07,1.46,6.34,10.35,10.09c11.16,1.66,12.66,10.89,14.98-2.45c-0.27-5.58,8.5-18.67-1.63-19.07
	c-2.12-1.99-14.79-0.53-12.8-2.18c17.33-3.35,16.76,11.89,23.7-11.44c1.84-4.65,3.53-9.55,5.45-14.16c2.73-4.75-1.25-3.25-4.09-4.9
	c0.38-1.44,4.3,0.82,5.45-0.15C511.82,319.38,507.57,316.49,504.65,315.88z M640.16,316.56c-3.09,2.92-2.59,11.32,1.23,11.86
	C649.29,329.7,647.52,312.23,640.16,316.56z M700.23,315.88c-3.29,0.99-12.8,0.54-10.9,5.45c2.79,4.32,5.21,8.08,10.35,8.72
	c2.1,1.45,5.03,0.9,1.91,3c1.02,1.76,1.82,6.46,1.09,8.72c-0.49,1.03-0.6,3.32-1.09,4.36c-0.81,0.45,6.06,9.38,6.81,6.27
	c0.85-1.62,3.19-7.89,0.55-8.72c-7.26-4.36-6.9-12.84-4.09-17.71c0.85-2.96,4.98-2.46,6.27-4.9
	C708.59,317.99,703.94,315.31,700.23,315.88z M547.69,315.34c12.29,23.53-2.32,16.09,25.88,31.32c4.28,1.07-2.28-19.26-4.21-21.67
	C562.3,321.64,554.64,317.6,547.69,315.34z M732.37,315.34c2.72,1.28,5.72,2.53,8.44,4.09
	C744.98,320.54,734.37,313.61,732.37,315.34z M724.2,315.34c-5.74,3.29,4.52,2.38,6.68,3.54c3.59-0.61,9.9,12.4,11.3,9.81
	c3.24-6.4-1.78-8.64-6.54-10.62C732.18,317.37,728,313.04,724.2,315.34z M468.15,313.92c-3.75,10.56-8.04,20.23-11.99,30.3
	c0.03,2.3,2.98-1.87,3.87-1.91c3.17-2.71,7.64-4.64,10.3-7.74C471.3,330.8,470.97,311.39,468.15,313.92z M717.66,313.16
	c-5,1.12-19.78-0.11-7.63,4.9C712.87,322.48,731.09,311.52,717.66,313.16z M330.71,311.1c-1.63,4.67-2.3,10.02-3.39,14.87
	c-2.91,2.61,4.43,7.07,5.99,8.72c7.46,8.35,17.8,1.17,25.88-1.36C359.09,324.12,339.95,311.76,330.71,311.1z M578.74,310.44
	c-3.9,14.86-14.25,11.63,3.81,17.98c3.98,0.85,8.36,3.43,11.99,3.82c1.82-0.73,7.68-5.36,6.05-7.36
	C596.11,323.59,580.33,306.78,578.74,310.44z M529.17,309.07c1.9,3.05,1.8,7.54,3.27,10.78c5.99,5.28,13.58,9.68,20.22,14.28
	c0.52-6.45-3.21-14.17-6.6-19.72C541.23,312.44,534.05,308.45,529.17,309.07z M187.04,306.89c-1.38,1.29-1.56,1.77-4.36,4.63
	c-6.6,5.07-0.21,5.1,1.91,1.91C184.69,311.97,189.98,305.34,187.04,306.89z M494.3,301.17c-2.81,1.59-15.52,3.07-11.71,7.35
	c1.79,1.52,7.47,20.44,3.27,11.44c-1.12-4.56-2.85-9.4-5.72-13.08c-4.34,2.46-11.7,3.54-8.99,9.81c3.23,14.46-4.04,21.18,12.74,9.26
	c2.99-1.89,25.44-16.26,24.58-11.99c-4.61,1.86,4.78,4.42,6.26,6.54c0.06,0.72,3.5,0.4,2.12,1.15c0.35,2,4.87,2.32,6.6,3.2
	c8.84,3.9-6.65-11.14-11.17-9.53c-5.73-1.21-0.5-1.93,2.72-1.36c-0.21-2.16-1.1-3.86-2.18-5.72c-5.78-8.83,3.51,1.2,3.81,5.33
	c2.52,3.58,8.57,2.99,12.26,5.29c3.61,0.88-0.65-7.79-1.09-9.81c-2.12-3.54-15.34-4.92-19.89-6.27c-1.47-0.75-6.74-1.16-8.17-1.15
	c0.99,1.05,1.61,2.35,2.18,3.6c2.02,1.94,4.66,12.94,1.36,5.45C501.66,307,499.73,299.93,494.3,301.17z M405.5,300.08
	c-27.3,4.87-29.11,7.04-40.86,31.05C368.68,333.95,427.64,297.3,405.5,300.08z M735.64,299c-2.67,0.41-4.98,15.35-7.63,12.26
	c1.28-3.89,3.76-6.91,4.63-10.9c-5.36-7.26-8.62,6.74-12.26,10.08c-3.08,2.96,13.26,2.94,14.98,3.54c3.96,0.64,8.32,4.58,8.99,7.36
	c5.89-1.44,10.21,3.25,14.71,5.72c1.71-1.93,2.45-4.81,3.81-7.08c1.46-2.72,3.44-5.47,0.27-8.17c-16.05-16.8-12.94,11.46-17.7,7.63
	C751.1,306.65,754.72,299.47,735.64,299z M257.16,298.57c-7.18,11.57-15.67,22.75-21.91,34.48c-0.89,3.24-6.27,6.56-6.27,9.16
	c7.28,14.12,15.83,2,23.43-5.91c5.44-5.57,15.55-14.63,17.43-22.32c0.54-2.27,3.98-6.35,0.11-6.33
	C263.65,309.75,260.89,297.91,257.16,298.57z M565.67,298.45c-15.9-0.83-6.26,4.28-15.25,14.17c-3.85,3.23,13.24,7.14,15.25,9.26
	c6.91,4.14,7.28-3.22,10.62-7.9c1.01-1.79,3.62-6.76-0.01-7.63C573.46,305.67,568.33,297.57,565.67,298.45z M775.8,297.48
	c-1.44,4.83-9.43,14.89-8.08,18.68c3.32,3.11,4.17-5.1,6.06-7.02C775.53,305.45,783.41,298.47,775.8,297.48z M204.32,296.94
	c-14.89,23.77-16.61,13.87-2.3,24.66c2.75,7.05,16.69-14.37,19.41-15.6C220.49,300.71,209.88,293.94,204.32,296.94z M561.85,294.09
	c-3.82,2.49-5.99,4.39,1.09,3C567.84,298.17,562.42,293.81,561.85,294.09z M203.11,293.27c-4.13,1.1-19.23,22.94-14.98,21.79
	C187.97,316.58,208.4,288.95,203.11,293.27z M515.55,292.19c-4.26,14.74-5.46,8.32,11.44,14.17c2.98-1.88,4.17-6.87,4.36-10.9
	C526.17,295.31,520.07,291.45,515.55,292.19z M346.39,291.64c-32.97,26.56-1.74,10.65,15.53,40.86c3.9-7,9.4-15.17,12.26-22.34
	C371.31,303.35,351.49,287.65,346.39,291.64z M503.02,288.64c2.38,0.71,10.39,5.78,3.27,2.72c-2.3-1.37-4.83-2.12-5.17,1.36
	c-0.83,2.32-1.97,4.7-3,6.81c4.03-0.32,11.65,4.97,13.89-0.27C517.61,289.65,510.83,289.96,503.02,288.64z M553.68,288.64
	c-3.78,2.6-8.79-0.09-12.53,1.63c-11.9,7.42-1.95,5.12,5.08,8.31c1.11,2.88-11.42-2.29-13.25-2.59c-0.67,2.44-1.34,6.5-3.27,9.26
	c-3.36,2.81,14.87,5.81,16.89,7.9c4.01,0.64,14.02-17.09,4.36-13.62c-7.85,0.89-0.43-2.11,2.07-1.7
	C560.3,297.82,563.26,287.63,553.68,288.64z M526.17,286.74c-1.55,1.64-10.53,3.82-5.18,4.63c4.54,0.98,10.2,4.99,14.44,1.36
	c2.6-1.49,7.08-3.47,1.36-4.09C533.66,288.32,529.53,284.88,526.17,286.74z M759.61,286.74c-10.37,29.18-9.3,10.38,7.22,25.77
	c2.15-5.72,5.86-9.78,7.48-15.7C773.19,290.99,765.22,284.57,759.61,286.74z M513.91,281.56c-9.66,5.94-11.36,5.3,0.66,8.24
	c1.97,0.11,13.93-3.77,8.88-5.24C520.39,283.93,516.57,281.58,513.91,281.56z M346.66,282.65c-5.91,4.5-9.38,10.51-11.29,16.62
	c3.69-4.13,10.18-7.16,12.92-11.98C348.6,285.58,351.4,277.18,346.66,282.65z M477.96,281.83c-3.54,9.68-5.48,19.62-9.06,28.95
	C472.25,310.94,480.29,280.86,477.96,281.83z M737.82,280.47c-8.35-1.52-7.51,8.75-9.81,14.44c-0.37,2.09-1.51,2.94,1.36,2.18
	c2.38-0.24,3.97,3.02,4.9,0C734.75,293.67,744.59,279.7,737.82,280.47z M746.54,280.47c-7.45,1.04-7.29,10.78-10.62,16.07
	c-1.06,1.72,6.79,0.85,8.44,1.91c2.58-0.17,6.43,6.39,7.9,3.54C756.2,291.21,765.8,280.37,746.54,280.47z M478.5,279.93
	c0,0.35,0.55,0.35,0.54,0C479.05,279.57,478.5,279.57,478.5,279.93z M407.68,279.38c-25.61,1.56-20.35,4.93-29.96,25.61
	c-2.61,5.54,6.99-1.86,9.26-1.91c5.1-1.73,10.95-3.04,16.34-4.09c4.5-1.39,8.41,1.44,9.26-4.09c2.36-3.34,1.67-7.68,0-11.17
	C411.58,280.24,411.05,279.17,407.68,279.38z M490.49,278.29c-1.68,9.23-5,17.24-8.72,25.61c-0.51,2.24,8.55-3.33,10.35-3.27
	c3.62-0.8,6.7-3.33,7.63-7.08c0.15-2.02,2.95-4.11-0.12-5.17c-10.64-7.48-5.78,21.36-10.23,4.36c0.46-6.55,7.05-8.63,12.05-5.11
	C504.58,287.52,491.03,275.99,490.49,278.29z M786.85,275.84c-3.17,5.25-5.5,10.57-8.17,15.8c-2.78,4.03-1.03,4.15,1.64,7.21
	c1.26,1.05,3.34-3.29,4.36-4.43c2.73-4.44,7.26-9.28,9.06-13.56C793.08,278.64,788.79,274.08,786.85,275.84z M481.22,272.01
	c-0.27,11.82-4.31,25.18-8.72,35.98c-1.81,3.82,3.54-0.83,4.9-1.09c4.68-2.93,5.56-9.95,7.9-14.71
	C488.29,282.63,493.91,275.35,481.22,272.01z M369.54,272.85c-4.38,5.77-20.15,11.76-18.53,17.43c3.59,0.76,6.57,2.84,9.75,4.63
	c4.85,0.49,14.35,17.18,15.31,10.9c1.81-4.98,4.07-9.99,6.27-14.71c0.46-2.95,4.42-6.3,2.73-9.26
	C381.69,277.92,374.75,267.91,369.54,272.85z M511.19,270.94c2.97,9.19,1.4,8.07,10.62,10.89c2,0.41-1.7-5.97-1.91-6.96
	c-0.9-2.4-4-1.63-5.66-2.85C513.15,272.19,511.53,269.52,511.19,270.94z M507.37,269.03c-3.39,2.36-6.53,4.96-10.35,5.99
	c-1.15,1.28-7.3,0.56-3.27,2.72c8.2,6.42,10.91,12.38,18.86,1.79C512.08,278.43,509.26,265.83,507.37,269.03z M431.38,266.04
	c-6.05,3.51-21.06,9.94-17.16,17.98c1.21,3.11,1.38,5.21,3.27,1.03c1.61-3.39,3.96-6.81,5.99-10.23
	C423.66,273.64,435.68,264.41,431.38,266.04z M767.78,263.86c-1.05,4.54-2.23,9.1-4.63,13.62c-6.42,12.94,5.69,3.37,12.26,16.95
	c3.45-3.2,6.21-12.56,9.53-17.49C786.73,270.57,773.77,261.02,767.78,263.86z M241.92,261.53c-1.87,1.88-1.65,4.02-3.51,5.59
	c-1.07-0.31,1.84-2.24,0.51-2.18c-3.22,2.14-8.66,10.12-1.91,3.27c0.72,5.54-12.45,6.81-11.02,9.81c4.55,0.9,14.83,4.02,14.01,9.81
	c-4.28-4.67-11.13-10.05-17.82-8.17c-2.99,3.66-18.8,12.12-13.35,14.98c2.98,1.12,6,2.08,8.65,4.09
	c7.3,14.24,29.98-20.01,39.96-26.57C267.04,267.1,247.47,257.9,241.92,261.53z M506.83,261.02c0.37,3.01,13.54,16.76,10.9,8.55
	C516.16,265.21,511.07,260.4,506.83,261.02z M407.68,260.32c-10.29-0.1-11.98,6.82-16.07,14.44c-9.15,13.42,6.07,0.4,17.59,3.61
	c4.45-0.47,2.71-6.65,3.93-10.15C414.68,262.12,414.42,258.32,407.68,260.32z M368.58,259.62c-3.73,7.78-16,13.74-18.1,22.21
	c-2.79,11.15,10.61-5.65,15.26-7.62C370.77,272.96,372.57,259.98,368.58,259.62z M485.99,262.08c-11.36,13.08,5.89,2.29,9.94-2.99
	C493.41,258.54,487.59,258.69,485.99,262.08z M496.88,259.9c-1.49,4.37-18.78,10.53-12.93,11.59c7.29,6.57,16.08,1.89,22.88-3.81
	C510.23,263.95,501.26,255.71,496.88,259.9z M739.45,258.68c-10.28,1.5-6.47,10.72-7.35,18.25c-1.89,3.57,7.67,2.04,9.15,2.34
	C742.31,275.98,745.41,256.74,739.45,258.68z M239.18,258.25c-2.86,4.6-7.02,9.18-10.19,13.56
	C231.57,271.84,245.88,257.74,239.18,258.25z M756.23,257.11c-18.34-1.63-10,8.95-13.23,20.91c-2.47,3.05,9.8-1.96,15.27,4.38
	c2.52,3.28,4.45-8.46,5.97-9.83C767.92,262.23,767.65,258.53,756.23,257.11z M383.02,256.63c-13.65,14.3-9.76,11.14,2.32,23.03
	c1.39,2.79,1.89,0.55,2.72-1.1c1.47-3.27,3.54-6.55,5.18-9.81c1.63-3.04,5.95-6.73,0.82-8.99
	C390.82,258.42,386.12,253.2,383.02,256.63z M244.63,250.63c-0.84,1.71-5.49,7-2.02,6.15C243.02,255.55,246.11,249.84,244.63,250.63
	z M413.13,245.61c-4.74,1.49-8.5,5.53-10.62,10.08c-0.83,1.23-1.64,2.97-2.45,4.09c3.76-0.79,13.82,1.06,14.98-2.99
	C415.12,252.35,421.32,243.23,413.13,245.61z M449.48,246.28c-1.64,1.95-10.55,14.47-6.67,11.59
	C447.56,254.51,464.42,241.7,449.48,246.28z M392.28,245.74c-11.6,11.07-2.51,8.42,5.72,15.03c1.11-3.52,10.35-12.26,6.4-13.8
	C400.69,246.18,395.97,242.23,392.28,245.74z M439.12,243.54c-1.56,2.44-3.65,5.19-4.54,7.71c0.23,1.23,5.33,10.85,2.37,8.95
	c-3.13-6.95-1.88-13.14-10.74-6.15c-3.53,2.65-9.93,3.64-11.17,8.17c0.34,3.11-4.69,19.56,0.82,12.26
	c5.03-4.84,9.44-6.98,14.71-9.81c2.74-1.43,7.4-1.32,8.72-5.03c0.43-2.61,11.25-15.1,8.72-14.85
	C445.11,244.43,441.94,242.86,439.12,243.54z M257.45,244.38c-23.18,24.17-6.77,7.4,4.1,23.84c3.99-4.97,14.72-11.88,16.74-17.98
	C275.17,243.45,263.91,239.73,257.45,244.38z M381.37,241.91c-6.24,9.46-12.6,13.91-9.49,26.31
	C377.2,261.35,391.44,248.14,381.37,241.91z M384.25,241.79c1.32,2.3,1.66,6.28,1.78,8.99
	C391.83,245.92,393.86,241.33,384.25,241.79z M856.58,241.79c0,0.35-0.55,0.35-0.54,0C856.04,241.44,856.59,241.44,856.58,241.79z
	 M432.19,242.06c2.05,9.12,0.93,5.76,6.12,1.09C439.93,242.47,431.19,239.96,432.19,242.06z M558.04,241.25c0,0.35,0.55,0.35,0.54,0
	C558.59,240.89,558.04,240.89,558.04,241.25z M430.01,240.98c1.64,2.72-4.66,3.95-6.26,5.45c-0.88-3.95-6.47-4.74-4.84,0.11
	c-0.81,7.62-8.15,15.8,4.29,8.06c2.9-3.35,11.9-3.14,8.72-8.72C430.97,245.46,431.61,238.68,430.01,240.98z M386.98,238.95
	c3.64,2.12,8.53,3.82,12.53,4.59C396.09,241.09,390.77,239.87,386.98,238.95z M426.47,239.34c-1.88,1.66-4.36,0.87-2.45,3.6
	C424.36,245.43,432.54,238.14,426.47,239.34z M521.81,239.34c-7.16,3.51,0.67,3.84,4.09,1.63
	C527.53,240.6,522.6,237.63,521.81,239.34z M485.97,238.1c-6.42,6.73,7.88,1.3,9.96,2.33c1.75-1.44-2.58-0.47-2.72-0.82
	C491.04,238.93,488.45,237.22,485.97,238.1z M398.42,237.43c-11.88,1.47,1.57,3.81,5.45,5.99c3.59,2.73,8.46-0.43,12.6,0.61
	C420.52,242.86,401.31,235,398.42,237.43z M477.41,237.43c-4.35,3.05-7.94,5.95-0.54,4.9c1.03-0.03,9.7-6.68,3.31-5.71
	C478.3,236.62,478.13,236.67,477.41,237.43z M774.71,237.01c-1.99,5.06-3.02,10.44-4.2,15.95c-0.48,3.68-4.27,9.82,2.18,9.53
	c8.68,0.55,11.56,10.55,18.79,13.35c4.07,4.27,4.48,2.79,7.08-1.64c2.06-3.47,4-6.89,5.72-10.62c1.41-3.06,6.43-8.21,1.57-10.62
	c-1.2-1.41-6.19-2.76-6.74-0.54c-1.84,4.19-3.8,8.52-6.26,12.59c-0.44,2.36-7.84,12.11-4.63,5.39c3.92-5.93,6.94-12.14,9.81-18.52
	C796.21,242.99,783.94,235.43,774.71,237.01z M471.81,236.46c-0.84,1.38-0.2,1.3,0.7,0.7C473.69,237.01,472.76,235.33,471.81,236.46
	z M253.34,235.92c-2.84,5.4-5.4,10.61-7.47,16.23c-0.47,1.72-1.47,2.99-2.13,4.48C247.86,252.29,267.48,237.25,253.34,235.92z
	 M531.35,234.71c-1.13,0.62-6.49,1.27-3.28,3c7.56,4.07-4.27,5.24,1.92,5.45c4.43-0.24,2.95-2.21,6.81-2.72
	c3.74-0.6,2.34-1.32-0.06-2.72C535.07,237.23,532.72,234.41,531.35,234.71z M536.25,233.5c6.15,5.36,11.5,4.97,1.09,9.11
	c-2.01,0.33,13.77,2.61,8.44-2.72C544.65,234.72,542.37,232.32,536.25,233.5z M413.67,232.53c-7.05,2.58-5.79,5.74,0.55,7.35
	c1.56,0.62,7.9,4.2,3.81,0.54c-3.5-3.79,3.45,0.61,4.36-0.27c1.73-1.72,5.64-1.05,1.63-2.72
	C420.82,236.22,416.83,232.75,413.67,232.53z M758.52,230.9c-3.02,0.69-6.69,0.98-9.2,3c-3.33,0.75-3.86,21.84-5.79,15.8
	c0.31-6.56,8.02-19.72-4.9-14.71c-8.32,2.9-10.31,14.15-7.9,21.79c1.28,1.75,0.39,6.02,3.33,3.27c2.45-1.27,4.94-2.77,8.11-2.72
	c-0.43-2.06,1.5-9.31,1.63-2.84c-1.79,6.69,12.73-2.8,20.16,3.66c0.89,0.27,3.58,2.59,3.81,0.54c1.52-7.43,3.47-14.01,4.9-21.52
	C773.46,232.19,763.07,230.54,758.52,230.9z M361.92,229.81c-5.1,2.8,18.05,7.42,20.7,6.54
	C376.08,234.08,369.57,229.4,361.92,229.81z M363.01,228.17c0.29,0.23,1.21,0.62,1.49,0.77
	C364.93,228.54,363.29,227.39,363.01,228.17z M385.77,228.24c-3.28,0.46-19.57,1.72-7.51,4.83c5.46,2.64,11.56,6.19,18.25,3.54
	c6.52-0.74,6.95-0.9,1.09-3.81C393.47,231.5,390.22,227.12,385.77,228.24z M397.33,223.27c-8.17,2.8-4.41,7.17,1.64,8.99
	c2.48,1.02,5.83,4.14,8.17,3.4c3.38-4.38,7.12-3.74,0.27-7.21C404.08,227.17,400.6,223.38,397.33,223.27z M807.94,222.3
	c-0.84,7.01-3.49,14.29-5.56,21.4c-2.9,7.21-1.71,5.03,4.09,7.9c3.02,2.87,3.72,0.86,4.9-2.18c1.41-3.3,2.58-6.67,3.54-10.08
	C818.67,230.8,819.69,223.29,807.94,222.3z M275.84,221.09c-3,0.77-3.03,5.26-4.09,7.9c-2.9,3.34-7.78,7.99-10.62,11.82
	c2.46,0.2,8.56,0.04,10.35,1.52c3.68,0.42,6.57,4.88,8.7,7.36c0.46,0,15.82-15.47,15.82-15.93
	C292.32,226.47,283.29,221.7,275.84,221.09z M372.27,219.46c-3.94,0.06-11.94,7.69-4.9,8.72c1.92,0.86,4.07,2.45,5.99,1.09
	c2.03-1.64,17.41-0.9,11.71-3.54C380.86,224.22,376.92,219.16,372.27,219.46z M266.96,218.48c-1.27,5.18-11.6,12.08-10.69,15.95
	c1.88,0.91,2.81,2.76,4.58,4.37C265.72,233.33,279.49,220.86,266.96,218.48z M369.93,217.94c-1.48,0.96,2.13,0.95,1.79,0.16
	C371.72,217.43,370.54,217.33,369.93,217.94z M478.35,216.85c-8.71,20.93-9,22.24,10.23,8.87c5.03-0.74-15.94,10.48-5.1,10.15
	c5.18-3.43,18.7-16.74,7.82-3.61c-2.4,2.98-5.08,4.69-0.27,5.17c2.05-0.1,5.93,3.17,6.26-0.27c3.29-8.28,6.46-3.01,7.36-5.17
	c-2.48-5.37-0.39-11.65-8.17-10.9C490.07,220.88,484.13,216.96,478.35,216.85z M574.93,215.64c-11.23,1.01-21.36,6.76-29.15,15.53
	c-3.02,2.61,0.63,5.04,1.09,7.63c1.48,7.06,9.06,2.3,12.8-0.27C566.64,232.11,589.8,223.39,574.93,215.64z M517.18,214.55
	c-2.07,2.44-15.08,5.62-13.35,8.44c2.28,10.3,0.7,7.23,6.54,15.25c-0.17,4.76,6.04,3.78,8.72,1.09c4.37-1.25,0.65-3.82-1.36-5.45
	c-0.4-0.05-12.49-11.81-6-6.81c5.27,2.15,11.41,10.76,16.89,7.08c6.16,0.46-17.61-12.6-7.69-8.45c7.71,4.49,12.82,8.05,21.21,6.2
	c1.6,1.05-0.67-2.82-0.72-3.47c-1.19-2.72-1.95-5.99-3.27-8.72C537.74,214.31,531.61,221.36,517.18,214.55z M386.98,213.46
	c0,0.35,0.55,0.35,0.54,0C387.53,213.11,386.97,213.11,386.98,213.46z M381.53,212.37c-9.68,5.81-3.7,7.89,3.27,11.98
	c5.67,4.96,6.74,0.8,11.44-2.45C391.84,218.97,386.17,213.95,381.53,212.37z M585.28,209.11c0,0.35-0.55,0.35-0.54,0
	C584.73,208.75,585.28,208.75,585.28,209.11z M376.63,208.23c-1.28,2.28-3.07,4.38-4.36,6.66c-1.59,1.05,1.58,3.28,2.18,2.25
	c0.74-2.04,5.23-4.5,5.99-6.25C379.13,210.64,377.71,206.66,376.63,208.23z M769.42,207.47c-12.56,1.7-26.34,7.41-33.57,18.34
	c-2.62,14.8-7.33,10.72,7.7,6.99c4.54,2.67,3.87-1.62,4.9-4.9c1.28-2.92,2.17-6.32,3.27-9.26c1.24-1.03,1.26-7.78,3.54-5.45
	c-1.09,2.91-2.68,5.64-3.54,8.72c-2.39,11.47-7.36,11.9,4.63,7.9c9.07-3.02,17.99,6.92,18.25,1.91c2.52-7.78,4.61-16.17,8.44-22.88
	c1.7,1.43-1.54,4.76-1.63,6.54c-1.41,3.47-2.6,7.03-3.81,10.62c0.22,2.44-5.05,9.48-0.82,8.99c8.38,0.92,16.45,5.14,21.52,12.47
	c1.67,4.87,8-21.1,8.17-23.85c-0.95-9.12-3.65-0.66-4.36,2.94c-0.16,1.32-3.66,8.36-2.72,4.36c1.41-3.69,2.5-7.4,3.54-11.17
	C797.99,209.1,781.03,206.7,769.42,207.47z M812.46,206.11c-0.96,3.68-2.09,7.25-3,10.9c-1.97,3.08,0.47,3.75,3,4.63
	c1.73-0.14,6.52,6.3,6.54,2.73C820.98,217.31,823.91,200.33,812.46,206.11z M752.8,202.84c-10.63,3.78-11,4.95-14.47,15.55
	C735.99,224.46,757.52,200.47,752.8,202.84z M641.39,202.57c-8.8,7.94-17.48,14.46-26.76,20.43c-1.32,1.14-8.53,3.72-5.39,5.17
	c30.23,19.15,49.11,49.8,58.84,81.18c8.67,19.57-11.48-2.46-18.09-5.72c-7.71-4.73-15.68-8.71-23.59-13.08
	c-20.23-10.23-40.1-19.57-60.2-28.87c-9.12-4.14-17.53-9.1-26.97-12.53c-7.41-3.12,6.29,7.75,6.27,8.17
	c12.76,11.57,26.85,23.44,40.3,33.78c18.9,14.44,33.93,35.8,54.49,47.12c10.57,5.79,21.11,11.81,32.96,14.98
	c3.32,1.72,7.91,0.96,10.35,3.81c2.4-1.64-1.51-12.26,0.82-10.35c5.2,4.89,10.23,18.46,2.18,22.61
	c-12.46,4.18-23.41-5.56-31.6-11.44c-6.7,0.92,22.34,13.46,19.07,14.98c-4.92-1.7-11.24-1.24-15.8-3.54c-3.36-0.22-7.33,2.2-10.9,3
	c-3.1,2.07-21.96-0.37-21.52,1.09c2.99,6.59,26.68-1.65,37.59,4.36c22.52,6.75,5.7,16.42,32.41,6.26c1.53-0.78,6.66-0.61,6.88-2.38
	c-2.89-5.02-1.93-18.44,3.41-21.31c4.1-2.15-8.77-6.09-9.74-10.62c-1.23-5.56-5.46-6.4-10.63-7.35c-9-4.74-16.8,5.79-26.42,1.91
	c-12.02-2.52-28.64-15.04-23.15-28.06c3.05-5.86,10.96-1.17,16.62-0.27c5.54,1.7,10.7,6.01,16.89,3.81
	c5.35-1.67,11.04-3.27,16.83-1.36c5.38-1.79,9.6-4.46,15.31-5.18c13.91-2.25,15.26,1.33,20.7-13.35c1.57-2.97-0.73-4.67-1.36-7.63
	c-1.88-4.87-3.7-9.9-5.45-14.71c-5.02-16.16-15.62-31.45-28.6-44.13C679.63,226.96,648.04,196.28,641.39,202.57z M289.46,200.93
	c-4.86,4.1-8.84,8.09-11.71,13.89c-5.79,7.24,5.67,3.18,13.88,11.44c6.4,4.18,3.26,9.62,10.64,1.63
	c4.4-5.94,14.55-10.08,12.53-16.34C309.15,205.45,298.13,197.05,289.46,200.93z M650.65,194.94c-5.26,1.75-5.3,4.92,0.49,6.26
	c3.4,2.16,6.78,4.22,10.14,6.54c13.28,9.6,27.82,22.45,38.14,35.41c12.32,15.13,18.24,32.33,24.52,49.58
	c1.47,3.65,3.22-5.52,4.09-6.81c5.01-11.58,0.3-22.92-0.55-35.41c1.04-10.86,3.13-20.78,7.35-30.78
	c13.3-25.36-6.55,2.01-53.12-10.08C670.99,206.07,660.62,199.09,650.65,194.94z M278.02,192.22c-9.37-1.02-9.63,6.11-10.14,13.24
	c1.04,1.87-2.06,11.2,1.21,12.1c5.75,4.66,6.18-2.01,8.94-5.93C284.93,202.74,298.58,194.97,278.02,192.22z M419.39,191.94
	c-20.76,8.57-1.89,12.33,5.72,23.99c3.33,2.21,8.09,14.95,11.44,9.78c2.56-3.19,6.68-6.37,3.81-10.56
	C436.72,207.37,427.91,193.77,419.39,191.94z M556.95,191.94c-1.06,1.48-0.49,2.46-1.36,3.81c-1.38,3.04,4.78-1.84,4.63,0.82
	c-2,1.87-6.95,0.88-7.9,5.18c-7.99,18.79-19.79,5.69-8.56,28.87C569.71,203.2,588.17,229.19,556.95,191.94z M543.33,188.4
	c-11.63,3.62-22.02,11.44-31.6,20.69c0.07,4.96-0.78,7.99,3.87,4.09C521.39,208.98,545.82,194.99,543.33,188.4z M309.07,182.96
	c-30.39,24.96-8.7,7.63,8.17,28.6c4.7-4.44,12.37-11.76,13.89-17.98C326.09,186.78,317.49,182.04,309.07,182.96z M383.71,186.77
	c-19.59,24.08-45.91,4.36-57.75,17.73c-21.57,26.6-48.08,48.51-70.28,72.02c-9.32,12.21-55.6,41.37-45.17,51.62
	c11.79-5.36,35.05-41.46,48.32-36.5c11.16-11.12,24.7-22.37,37.98-30.5c27.88-17.88,60.58-32.9,80.36-62.76
	c2.2-3.29,5.79-0.49,8.17,1.2c2.71,1.47,5.94,2.2,8.72,3.54c5.83,2.25,11.72,4.71,17.98,6.54c4.39,1.21,10.73,4.91,3.11-2.34
	c-6.15-7.1-4.54-0.33-10.47-3.93c-5.82-2.45-11.21-5.52-16.73-9.26c-1.84-2.94,10.25,3.15,12.09,3.27c2.13,0.35,4.66,1.86,6.54,2.04
	C399.62,195.62,391.13,177,383.71,186.77z M438.73,181.32c-20.52,12.37-19.87,3.87-3.81,22.18c12.72,19.56,4.34,16.44,20.7-0.11
	c12.37-8.72-19.44,18.27-9.26,17.15c5.22,2.12,10.54,3.7,15.31,6.81c1.36,1.14,10.14,5.56,7.96,7.08
	c-6.89-5.14-13.26-9.01-20.82-11.44c-6.62-3.6-9.26,0.75-13.41,5.74c4.12,3.6,5.45,10.01,9.44,12.78
	c13.4,0.89,25.32,6.27,27.4-11.44c-0.04-3.33,6.34-14.14,3.54-14.98c-7.07-2.01-12.71-7.26-16.62-13.89
	C455.48,193.66,448.23,181.43,438.73,181.32z M765.6,178.05c0.02,0.37-1.11,0.17-1.09,0.54
	C764.76,179.85,767.18,177.02,765.6,178.05z M448.54,175.87c-4.57,2.3-9.48,3.71-2.18,7.35c2.44,0.23,8.99,10.47,7.9,6.54
	C452.19,187.64,450.68,175.34,448.54,175.87z M477.41,175.87c-6.15,0.57-7.25,8.84-10.9,13.07c-5.14,7.13-7.4,14.17,1.77,19.89
	c6.83,4.41,50.53,20.11,40.88-0.54c-7.29-3.53-14.91-6.89-23.04-8.99c-3.24-1.2-31.91-7.09-16.34-5.45
	c12.64,2.52,25.28,6.32,36.5,11.44c0.95,0.61,2.32,1.02,3.27,1.63c2.79,1.16,2.6-22.36,0.48-21.52
	C500.99,178.27,488.56,176.29,477.41,175.87z M537.34,173.15c-8.62,1.72-15.85,6.28-23.15,11.71c-2.53,0.6-0.99,8.6-1.63,9.81
	c0.37,5.6-3.05,16.49,5.73,6.54c7.62-7.14,18.23-10.95,25.32-15.25C541.68,183.28,541.5,171.55,537.34,173.15z M293.82,170.42
	c-7.95,4.62-18.91,12.55-21.52,20.97c5.13-1.59,14.56-0.43,17.71,4.36c4.88,2.46,12.18-11.06,17-13.08
	C308.43,176.97,300.17,169.01,293.82,170.42z M563.89,170.55c-4.95,4.96-3.53,13.68-6.19,19.1c5.26,5.76,12.15,20.22,18.05,21.36
	c7.2-18.38,34.05-24.23,25.88-25.33c-20.16-9.02-23.65-14.24-38.14,8.33c-5.78,2.22,8.54-15.29,12.53-15.95
	c3.35-1.37,4.09-2.18,0-3.54C573.19,174,565.25,168.57,563.89,170.55z M820.08,167.7c-0.74,0.46-4.67,0.62-4.15,1.84
	c2.18,3.31-3.09,12.63,1.15,12.6c4-0.42,9.92,6.82,3.54,2.72c-8.7-5.87-5.59,9.33-7.08,14.44c-1.81,5.73,1.46,4.27,5.45,5.45
	c4.92,5.76,3.15-12.94,5.18-16.07c1.43-4.43,1.47-10.02,3.27-14.16C828.23,171.86,823.24,166.04,820.08,167.7z M793.93,164.43
	c3.62,1.37,9.41,8.7,4.84,11.5c-2.94-3.59-5.12-8.58-11.38-8.78c-2.95-0.67-8.59-0.4-10.89-1.91
	C780.56,165.28,789.29,165.28,793.93,164.43z M397.87,163.89c-6.57,2.15-13.25,4.34-19.61,7.08c-1.22,2.35-22.44,10.25-15.53,8.99
	c4.81-1.46,9.53-2.43,14.44-3.81c2.94,0.52-1.48-3.29,0.55-2.45c11.3,3.24,21.91,25.15,32.69,21.8c1.53-1.36,8.5-3.35,7.9-5.18
	C415.61,181.05,406.86,168.28,397.87,163.89z M543.33,163.89c-1.39,0.84-7.92-1.05-4.63,3c0.91,0.42,0.49,4.45,2.04,3.44
	C541.08,168.84,546.36,163.39,543.33,163.89z M563.76,162.53c-6.58,3.47-19.4,19.95-17.71,26.69
	C547.93,187.63,572.97,160.61,563.76,162.53z M416.94,160.07c-17.25,3.98-20.35-1.01-6.26,13.35c3,3.72,5.21,7.57,7.08,11.44
	c1.48,3.86,1.93,6.63,6.27,3c2.85-1.48,5.81-3.67,8.72-4.9c1.53-1.6,4.67-1.31,4.9-3.81C435.04,170.76,426.63,158.39,416.94,160.07z
	 M440.91,157.89c-21.26,1.73-16.67-0.78-5.45,13.83c2.3,2.08,2.4,9.54,6.26,6.05c2.24-2.54,8.62-2.56,6.81-6.02
	C445.81,167.08,449.66,155.09,440.91,157.89z M447.99,157.35c-0.48,5.77,15.13,59.14,13.35,31.87c-1.73-7.72-3.66-15.66-7.36-22.88
	C452.78,164.84,449.07,155.33,447.99,157.35z M558.58,157.35c-3.54,3.45-8.25,4.06-11.99,6.15c-7.64,8.77-5.34,11.68-1.91,21.36
	c3.02-6.48,7.2-13.33,12.8-19.07c1.3-2.38,5.06-3.43,6.54-5.43C563.35,159.34,559.72,154.81,558.58,157.35z M518.54,155.99
	c-1.61,0.88-3.12,1.29-4.63,2.18c-1.86,1.74-0.71,3.62-1.09,13.35c0.31,14.13-0.92,13.36,2.45,10.62c4.06-3.01,8.56-5.39,12.8-7.35
	c6.17-3.43,14.29-1.41,7.63-10.62c-3.59-1.1-7.35-1.49-10.35-3.81C523.14,159.81,520.31,154.67,518.54,155.99z M804.28,155.17
	c-8.05,2.19-7.67,4.37-0.06,6.81c5.94,2.78,9.49,7.52,16.13,4.36c3.38,0.03-2.25-4.98-3.05-5.99
	C813.38,158.13,808.68,155.16,804.28,155.17z M574.38,154.79c-2.3,3.39-4.1,6.81-6.54,10.19c-4.23,3.99,0.17,4.37,3.27,5.99
	c2.04,1.19,4.41,1.92,6.54,3c2.85,1.47,3.08,1.1,4.09-1.64c1.17-5.76,22.82-23.27,4.55-14.37c-0.17-2.09,7.06-3.32-3.74-3.06
	C577.43,155.36,575.31,153.58,574.38,154.79z M489.24,154.2c-25.09,35.26-8.4,9.14,19.28,28.49c6.41,9.39,2.37-22.33,2.67-22.61
	C505.43,156.68,496.87,153.77,489.24,154.2z M595.9,152.17c-7.35,3.08,4.4,4.42,2.18,1.09C597.8,152.18,597.26,150.78,595.9,152.17z
	 M671.9,151.9c-6.56,2.71-13.47,4.57-19.88,7.9c-4.28,1.05,0.31-1.87,1.36-2.18c-0.58-1.22-5.13-1.2-5.99-1.36
	c-7.15-0.42-11.98-0.83-19.94-0.82c-6.21,4.64-13.23,11.76-16.29,18.52c-1.66,2.97-3.04,6.3-3.81,9.81
	c-1.35,4.24-2.18-1.13-0.82-2.72c3.38-9.84,9.99-18.97,18.52-25.45c-7.2,0.01-21.86-0.78-27.24,1.21
	c-5.87,3.08-15.79,12.94-15.26,19.34c7.09,2.8,13.66,5.88,20.7,8.72c1.65,1.64,12.72,3.44,10.9,5.99c-2.28-1-4.94-1.78-7.08-3
	c-10.48,0.37-24.4,12.6-29.69,23.15c-3.2,3.3,2.69,6.41,4.63,9.93c-0.11,1.55,3.59-1.95,4.36-2.57
	c15.99-13.64,32.18-27.87,46.31-42.22c1.87-1.07,18.77-20.66,16.34-13.65c-3.13,4.98-22.66,19.96-18.53,19.92
	c3.5-0.32,8.51-3.26,11.44-2.45c-4.8,2.46-9.82,4.75-15.4,5.99c-5.79,3.25-15.31,12.41-19,16.68c3.37-1.62,7.06-3.28,10.43-4.97
	c7.31-4.22,15.5-6.2,22.95-10.42c3.9-3.68,0.42,8.98,3.34,5.39c1.19-0.79,0.69-2.19,1.22-2.87c0.75-5.18,1.03-10.51,3.81-15.25
	C652.74,171.57,677.1,152.16,671.9,151.9z M775,147.95c-7.37,6.8,5.92,5.32,10.22,7.5c3.84,0.29,7.7,3.65,11.38,2.18
	c1.28-1.18,7.91-3.31,3.87-4.09c-5.23-1.52-10.56-3.17-15.8-4.36C781.53,148.9,778.03,145.11,775,147.95z M462.16,146.45
	c-3.83,2.65-9.61,5.52-12.31,9.47c1.16,2,2.59,4.04,3.6,6.06c3.96,8.2,7.95,17.77,8.92,26.6c0.11,10.13,8.32-10.62,10.69-12.71
	C475.01,170.38,467.11,147.56,462.16,146.45z M789.03,145.36c0,0.35-0.55,0.35-0.54,0C788.48,145.01,789.04,145.01,789.03,145.36z
	 M325.26,143.3c-3.69,7.16-5.62,14.85-8.02,22.49c-1.14,3.31-0.91,6.03-2.18,8.99c1.42,0.51,1.68,0.9-0.4,3.14
	c-6.03,3.97-0.83,2.94,3.13,4.22c17.35,6.19,8.51,15.98,26.15,1.36c2.51-1.43,5.64-2.19,8.17-3.54
	c-0.92-6.57-11.97-14.7-17.98-17.98c-5.64-4.31-7.48-0.08-10.9,4.63c-2.3,1.61-3.39,9.1-5.99,7.9c2.15-7.67,12.61-13.7,10.01-23
	C327.5,150.48,326.75,142.62,325.26,143.3z M467.61,142.64c-6.82,2.56,1.64,7.6,2.18,11.99c1.13,3.49,2.59,6.31,3.27,10.08
	c0.95,1.39,1.14,10.23,2.72,7.03c3.25-4.84,6.49-9.78,9.81-14.6c4.03-3.98,4.88-9.1,0.43-12.92
	C480.94,147.08,472.04,143.18,467.61,142.64z M513.37,141.55c-3.3,2.38-0.41,2.59-1.09,8.72c-0.12,7.4,0.23,7.47,4.52,5.17
	c3.65-0.89-1.08-4.53-0.97-6.54C514.54,147.34,514.97,141.8,513.37,141.55z M719.75,141.07c-36.32,1.06-25.54,10.63-50.03,33.84
	c10.86,2.67,21.11,4.62,32.14,6.95c12.08,2.14,25.72,6.16,38.14,2.45c7.39-2.62,16.47-5.48,21.25-11.98
	c7.03,2.53,13.62,4.93,20.7,7.08c3.61,1.69-9.68,11.37-12.26,11.98c-5.39,3.29-14.56,11.5-16.34,17.43
	c3.89,1.1,12.6-4.46,18.36-2.93c3.86-4.26,29.78-35.6,20.32-12.87c-1.07,2.62-1.21,5.85-2.45,8.44c-0.39,2.86-4.63,6.65,0.55,7.08
	c10.3,2.74,13.82,14.17,16.07,0.82c1.77-5.92,0.71-19.36-1.09-24.52c-1.25-2.39-5.42-4.87-3.54-7.9c0.57-4.26,4.89-15.28,7.97-6.7
	c-0.6,3.51-1.25,9.57-2.86,12.85c4.46,10.41,3.81,22.24-0.75,32.53c0.45,11.67,5.65-11.24,5.99-14.16
	c1.8-9.93,1.42-19.98,3.27-30.24c-9.36-9.21-23.79-11.6-36.23-15.8c-5.92-3.51-18.6,1.99-26.15-0.55
	c-5.55-0.91-10.87-2.23-16.23-3.66c-1.39-4.05,34.82,0.1,22.7-4.51C748.39,141.75,732.94,139.59,719.75,141.07z M497.97,144.41
	c-13.22,13.02-4.8,6.18,13.21,13.76c-0.4-4.66,0.93-13.89-1.21-15.26C504.58,140.99,504.22,137.35,497.97,144.41z M342.44,143.05
	c-24.41,23.13-1.83,12.26,10.22,33.37c1.2,2.67,2.86,2.59,4.9,1.09c2.41-0.97,5.37-1.5,7.63-2.72c2.32-2.34,10.3-1.01,8.17-5.72
	C372.53,161.28,349.52,132.21,342.44,143.05z M462.7,140.19c-1.21,5.39,0.37,3.64,3.38,1.63
	C467.79,141.96,461.89,134.71,462.7,140.19z M323.24,137.47c-2.89,5.05-4.39,10.84-7.15,16.14c-0.86,2.62-5.94,3.55-8.22,6.19
	c-2.47,1.87-16.33,9.28-8.6,9.53c4.29,1.17,7.85,5.48,8.99,9.53c-0.03,3.48,6.95-2.59,5.18-3.54c-1.93-4.25,0.05-9.28,1.09-14.17
	c1.71-4.53,3.24-8.55,5.99-13.07c1.46-2.52,3.18-4.96,4.7-7.47C325.44,140.3,323.71,135.67,323.24,137.47z M499.48,136.38
	c-9.36,9.25-14.03,2.98-8.99,13.62c2.24-0.5,8.14-8.83,9.96-10.89C503.18,139.27,500.64,134.61,499.48,136.38z M580.77,135.13
	c-3.21,4.97-6.81,9.8-9.11,14.87c-2.06,3.48-7.48,18.33-1.09,7.35C574.41,150.95,581.08,140.41,580.77,135.13z M442.36,134.07
	c-0.04,0.69,4.42,10.74,4,5.3C447.63,135.33,446.6,132.9,442.36,134.07z M575.6,134.32c-1.36,8.1-17.82,19.73-11.02,24.51
	c1.46,1.47,2.1-3.17,3-3.93C567.33,151.61,585.48,128.84,575.6,134.32z M600.53,131.74c-20.97,2.47-15.05,0.7-23.43,17.71
	c-6.48,6.87,8.92,3.17,11.53,4.7c1.5,0.72,4.24-2.03,6.17-3.61c4.48-2.14,2.85-7.66,4.36-11.44
	C598.89,137.61,603.1,130.32,600.53,131.74z M415.31,130.59c5.26,7.37,9.31,17.8,7.63,26.75c43.44-0.49,13.83-4.96,1.09-16.61
	c5.2,2.62,10.83,4.42,16.07,7.08c8.99,7,5.69-5.3,3.27-9.81c-1.86-4.87-4.44-4.39-9.53-5.17
	C427.9,132.41,421.21,130.31,415.31,130.59z M509.55,129.57c-11.47,1.42-9.31,9.9,0.55,11.71
	C517.54,140.82,514.02,131.35,509.55,129.57z M755.66,130.79c-9.05,11.94-8.37,10.07,3.68,14.3c3.94,0.55,8.51,6.22,11.71,6
	c0.24-1.81,5.73-5.34,1.63-5.72C764.78,145.64,762.5,124.04,755.66,130.79z M210.46,136.1c-0.83,8.37,2.65,12.91,1.91,7.9
	C211.95,139.72,210.64,117.54,210.46,136.1z M389.16,125.21c-18.62,1.44,5.37,7.26,8.17,27.24c1.62,5.87-0.41,11.68,7.63,8.17
	c3.19-0.57,5.44-1.6,8.99-1.91c1.91-0.69,7.23,0.24,7.69-1.73c0.19-7.96-2.2-23.44-10.15-27.42
	C404.14,128.72,396.75,124.81,389.16,125.21z M450.17,125.21c-0.34,6.06-4.07,29.33-1.36,26.97
	C451.6,148.72,451.64,114.79,450.17,125.21z M497.57,119.76c0,0.35,0.55,0.35,0.54,0C498.12,119.41,497.56,119.41,497.57,119.76z
	 M455.07,119.21c-0.38,0.5-3.86,0.63-3,1.36c0.9,3.08-0.25,8.19,0.61,11.01c0.12,5.21-1.72,14.65-1.82,21.13
	c6.86-5.4,11.54-6.44,11.08-15.91c-1.61-3.2-3.86-7.09-4.97-10.78C455.71,124.98,456.41,119.12,455.07,119.21z M663.73,118.4
	c-7.09,8.84-10.73,26.36-2.33,35.41c6.13-2.61,12.24-4.78,18.73-7.08c1.01-0.2,2.87-0.58,1.57-1.36c-1.7-5.3,0.87-13.13,2.18-17.98
	c0.63-1.76,1.03-3.64,1.91-5.18c0.35-1.15,2.2-2.02,0.27-2.45C681.21,118.28,668.14,116.83,663.73,118.4z M562.4,116.49
	c-14.75,0.81-35.18,10.44-39.77,23.7c3.74,14.81,25.22,20.6,33.51,7.08c5.95-7.8,9.38-16.22,11.44-25.6
	C568.92,114.72,567.55,117.77,562.4,116.49z M734.95,117.16c-7.61,9.97-12.17,24.8,5.32,23.02c2.24-0.24,7.71,3.3,7.9,0.28
	c1.04-5.37,5.5-8.97,8.72-13.07C752.59,120.1,741.91,115.05,734.95,117.16z M713.85,115.95c-6.72,0.58-7.2,11.45-7.63,18.79
	c0.1,5.61-0.25,5.92,1.09,5.18c2.66-0.74,12.03-0.95,14.07-1.02c8.41,1.12,4.18-10.18,7.99-15.05c-0.15-2.26,7.5-8.25,1.64-7.63
	C731.18,115.86,714.48,115.32,713.85,115.95z M516.09,114.04c-1.87,4.73-2.68,10.22-4.7,14.63c4.03,6.33,4.02,4.26,6.88-0.96
	C526.05,117.77,525.27,121.11,516.09,114.04z M599.99,109.41c-3.5,0.88-6.73,2.51-10.35,3c-0.91,6.94-3.07,13.4-5.45,19.88
	c2.63-0.08,19.04-0.68,17.43-3.83C598.75,124.42,603.1,109.69,599.99,109.41z M701.32,109.35c2.13,2.03,2.33,5.82,5.45,6.33
	C707.82,115.42,702.38,109.19,701.32,109.35z M268.21,108.86c0.01,0.35-1.1,0.35-1.09,0C267.11,108.51,268.23,108.51,268.21,108.86z
	 M662.09,108.86c0,0.35-0.55,0.35-0.54,0C661.55,108.51,662.1,108.51,662.09,108.86z M266.58,108.59
	c10.09,19.57,32.12,20.65,49.58,26.97c3.12,1.72,3.8,0.67,5.45-2.34c2.42-4.01,6.22-6.68,8.44-10.47c0.23-2.23-7.9-2.96-10.08-4.09
	c-5.47-1.31-10.65-3.03-16.34-4.09C292.08,112.39,278.86,106.66,266.58,108.59z M542.79,107.44c-0.82,1.3-1.66,2.35,0.55,1.15
	C544.64,108.55,543.43,105.75,542.79,107.44z M572.75,105.05c0,0.35,0.55,0.35,0.54,0C573.3,104.7,572.74,104.7,572.75,105.05z
	 M584.73,105.05c-7.57,4.03-3.46,15.29-7.08,22.06c0.13,1.84-2.43,4.32-1.09,5.45c2.24-1.11,5.58,0.81,5.72-3.27
	C582.09,126.85,587.55,101.4,584.73,105.05z M351.14,104.36c-9.23,8.82-18.98,17.88-26,29.84c-0.44,0.73,0.86,5.76,2.18,3.81
	c-0.83,4.42,1.65,9.45,1.91,14.98c-1.1,6.74,15.68-14.95,17.43-17.1C350.8,128.19,356.12,109.73,351.14,104.36z M623.96,103.96
	c-6.73,1.16-13.94,2.1-20.16,4.36c-3.74,4.17-4.48,26.15,5.99,20.7c3.27-1.46,25.29-1.23,22.34-5.17
	c-1.05-3.98-1.94-7.66-2.72-11.71C628.35,108.04,631.05,101.79,623.96,103.96z M453.44,102.87c-0.56,2.97-2.08,6.98-1.36,10.08
	C452.46,111.14,455.09,101.51,453.44,102.87z M588.94,101.9c-3.04,5-4.99,18.12-3.66,20.59
	C585.69,118.33,591.37,103.36,588.94,101.9z M453.99,101.24c0,0.35,0.55,0.35,0.54,0C454.53,100.88,453.98,100.88,453.99,101.24z
	 M589.64,100.69c0,0.35,0.55,0.35,0.54,0C590.19,100.34,589.63,100.34,589.64,100.69z M453.99,99.33c-0.25,1.44,1.99-0.79,0.54-0.54
	C454.17,98.79,453.99,98.97,453.99,99.33z M592.36,99.33c-0.29,5.77-5.98,14.7,3.81,10.08c5.84-1.11,3.36-2.68,0-6.54
	C594.46,101.82,592.77,96.46,592.36,99.33z M621.24,96.61c1.49,3.78,15.28,8,5.99,2.45C625.56,98.61,622.3,95.73,621.24,96.61z
	 M378.8,95.79c-8.84-0.57-16.84,1.73-23.91,6.81c-2.4,1.38,0.56,11.98-1.15,14.71c-0.61,6.29-2.21,11.2-4.63,16.89
	c-0.99,3.2,11.1-3.58,13.08-3.81c4.35-2.89,12.83-1.31,16.34-4.9C380.79,120.65,391.07,92.85,378.8,95.79z M385.89,96.88
	c-0.9,10.47-1.46,23.71-8.17,31.6c-6.42,0.93-13.45,2.19-19.07,4.9c-2.96,1.64-15.47,4.01-7.63,6.81
	c24.38,13.62,19.93,34.56,29.42,28.33c3.37-1.49,6.99-2.6,10.35-4.09c3.76-0.87,8.2-1.9,5.99-7.08c-0.78-7.07-3.39-12.61-6.81-18.25
	c-1.55-4.34-11.34-9.22-9.53-12.41c1.43-4.58,10.76-3.7,13.08-3.39c2.62-1.4,5.51,4.2,9.26,3.27c13.15,5.48,13.49-4.89,14.71-15.53
	c0.64-10.93,1.78,5.46,0.27,6.27c0.61,3.45-4.21,10.67-1.91,11.71c5.94,1.24,13.04,1.78,18.55,2.45c8.58,3.46,8.6-7.56,7.6-13.08
	c1.96-3.04,1.33,8.66,0.82,10.35c-2.09,4.16,0.57,4.02,4.09,3.81c-0.46-3.06,5.23-25.67,1.91-20.7c-6.74,5.96,1.24,5.3-2.45,6.54
	c-10.22-3.78-20.07-7.74-29.96-12.26c-5.45-1.09-4.06-6.22-9.26-7.08C403.9,98.57,385.81,93.27,385.89,96.88z M375.54,94.15
	c-0.07,0.37-2.1,0.39-0.54,0.82C376.08,94.81,377.36,93.3,375.54,94.15z M377.17,94.15c-0.01,0.35,1.1,0.35,1.09,0
	C378.27,93.8,377.16,93.8,377.17,94.15z M667.45,92.04c-4.52,0.49-16.82-0.81-11.89,7.83c0.73,5.51,7.8,12.57,8.17,16.07
	c-18.69-17.42,1.9-30.21-32.57-13.35c-3.4,6.42,1.08,16.63,3.15,23.37c-4.59,7.44-7.02,15.38-5.45,24.58
	c-0.63,8.6-1.94-6.85-1.91-6.54c-0.35,0-0.36-1.09,0-1.09c0.1-12.46,11.01-17.44-2.45-14.44c-6.06,2.12-21.53-0.42-23.15,6.26
	c-5.82,19.66,0.23,8.76,10.9,2.72c4.41-3.84,12.83-3.51,4.09,1.64c-16.9,10.18-28.74,18.16,0.64,14.91
	c11.35-1.15,30.38,1.4,40.1,1.98c3.41-1.28,0.21-4.34-0.15-6.54c-1.26-3.91-2.14-14.33-0.55-18.52c1.21-4.35,2.76-8.69,5.72-12.26
	c-7.34-0.6-15.48,2.27-21.79,4.9c-2.04,1.8-8.27,3.41-2.24-0.27c3.25-1.76,6.4-2.72,9.87-3.81c34.34-9.93,46.18,9.01,33.23-10.89
	c-2.42-4.37-4.23-9.25-5.72-14.17C675.87,91.06,669.14,92.1,667.45,92.04z M678.98,91.98c-7.37,0.46,8.05,26.35,12.53,27.78
	c3.3,1.48,0.03,2.04-1.63,1.09c-1.5-1.2-1.9,1.12-2.45,1.91c-2.73,4.61-10.17,26.95,0.82,21.52c17.94-6.64,15.81,2.78,17.16-17.71
	c0.92-1.64,0.98-3.96,1.91-5.72c0.14-1.69,2.32-3,1.36-4.63c-3.24,2.37-9.45,2.29-13.35,4.36c-3.73,1.39,0.19-1.79,1.91-1.63
	c1.99-1,8.74-1.68,8.45-2.72c-5.51-2.35-4.56-9.66-9.27-12.53C691.17,99.38,684.86,93.32,678.98,91.98z M636.49,89.8
	c-3.19,1.38-6.68,2.75-10.08,4.09c-4.34,0.86-1.26,1.86,0.82,3.27c1.16,1.01,3.32,1.58,3.81,3c-0.1,1.53,1.02,0.18,1.63,0
	C643.92,94.01,660.24,94.27,636.49,89.8z M495.39,88.71c-3.15,0.19,0.81,5.5,0.54,1.36C495.94,89.02,495.78,87.9,495.39,88.71z
	 M523.72,88.98c-2.3,7.16-4.83,13.87-6.54,21.52c1.02,6.78,9.16,10.38,13.73,4.63c3.39-2.59,7.69-3.55,10.24-7.35
	c4.64-2.87-11.23-7.87-12.53-12.28C526.96,94.09,524.67,88.47,523.72,88.98z M497.57,89.52c-1.38,3.99,0.48,6.77,2.18,9.81
	c1.43,2.51,2.25,5.5,3.54,8.17c-0.61,8.28,12.3,0.92,10.63,4.36c-9.73,1.84-9.69-0.79-8.38,10.24c-1.28,5.11-0.35,9.77,4.83,5.02
	c1.21-2.97,2.01-6.03,3-9.26c1.55-6.41,3.73-12.19,5.45-18.52c0.18-2.59,6.36-12.91,0.55-10.35c-5.28,1.42-13.38,0.65-17.89,0.34
	C499.97,89.19,497.13,86.49,497.57,89.52z M457.64,87.19c-2.1,5.44-1.7,11.77-3.11,18.13c0.28,4-3.55,10.74-1.21,13.08
	c3.66-1.25,1.02-15.84,3.39-19.61C456.67,95.78,462.39,87.37,457.64,87.19z M653.92,86.53c-3.41,0.53-20.37,1.16-10.35,3.81
	c3.51,0.44,7.04,3.42,10.62,1.91c3.34-1.7,21.07-0.92,9.81-3.81C661.56,87.31,657.21,85.34,653.92,86.53z M663.18,86.8
	c0.59,0.73,14.56,5.53,11.99,2.72C672.3,88.2,666.25,85.48,663.18,86.8z M593.45,86.5c0.41,1.1-1.61,10.19,0.54,8.74
	c1.99-1.71,14.5-7.36,7.63-2.72c-1.83,1.31-9.49,3.23-6.81,6.81c2.79,3.51,6.52,10.33,11.44,7.08c6.3-1.98,13.35-2.91,19.88-3.96
	c-2.81-2.3-6.23-7.05-9.53-8.03c-4.63-2.05-9.23-3.69-13.89-5.72C600.32,88.54,594.94,84.15,593.45,86.5z M455.07,85.44
	c-4.88,2.93-11.23,3.9-17.06,5.04c1.12,3.11,6.95,5.07,9.42,7.77c6.92,6.05,0.51,2.56-2.7-0.55c-13.17-12.45-6.65,0.81-23.98,9.26
	c7.2,2.83,14.77,6.48,22.22,8.51c7.07-3.98,8.14-11.46,9.65-18.32C452.64,93.84,456.34,87.14,455.07,85.44z M471.26,85.55
	c-10.63,11.94-12.77,31.42-2.57,44.01c3.93,5.34,11.84,4.94,17.92,5.17c5.61-1.8,7.39-8.1,9.12-12.62
	C496.52,108.35,484.41,90.84,471.26,85.55z M558.44,85.02c-1.45,3.93-18.67,21.99-12.39,22.75c3.81-0.98,9.04-1.88,13.08-2.18
	c11.03-0.47,8.27,0.71,4.08-7.9c-0.84-2.54-1.84-4.52-2.45-7.35C560.04,89.09,560.79,82.2,558.44,85.02z M425.11,83.8
	c-9.76,5.16-21.05,10.27-32.69,9.26c-19.11,0.6,5.93,2.53,11.19,3.54c9.73,0.97,7.26,5.64,12.45,8.17
	c6.3,3.15,14.6-5.86,18.31-12.26C436.27,89.08,428.22,83.42,425.11,83.8z M660.46,82.05c-0.14,0.31-0.79,1.27-1.23,0.56
	C657.97,81.67,660.19,81.83,660.46,82.05z M448.54,71.82c-6.46,1.06-11.89,4.97-17.37,8.44c-1.71,1.06-5.03,2.25-1.69,3.81
	c2.88,1.78,5.99,6.88,9.89,5.11c5.21-0.72,13.43-2.41,17.34-7.01C457.61,78.41,453.87,69.84,448.54,71.82z M458.34,69.64
	c-1.47,1.06-6.47-0.12-3.81,2.51c1.32,1.85,2.05,4.33,3.66,5.93C458.83,74.93,465.65,67.62,458.34,69.64z M496.75,61.74
	c-3.93,2.94-7.68,5.43-11.71,7.35c-7.53,2.05-4.92,7.6,0,10.9c9.79,10.84,11.76,10.41,12.26-4.63
	C496.71,73.38,500.77,57.5,496.75,61.74z M533.37,59.41c-2.38,8.94-7.72,19-8.56,27.39c2.75,7.35,9.75,14.11,17.16,16.89
	c4.84,0.33,8.55-11.04,12.53-14.71C565.66,75.02,550.39,86.59,533.37,59.41z M531.35,58.2c-20.68,10.39-32.44-6.63-31.87,8.44
	c-0.47,6.21-1.45,13.34-1.91,19.61c6.83,1.82,19.74,4.35,25.33-0.54c2.28-6.06,4.19-12.25,6.26-18.52
	C529.29,65.28,533.93,58.23,531.35,58.2z M476.32,56.84c-4.49,8.82-11.04,17-16.62,25.61c-2.55,1.16,0.09,5.42,1.36,3.81
	c0.92-2.85,2.65-5.51,4.09-8.17C467.7,71.2,480.85,62.87,476.32,56.84z M582.56,50.73c-9,10.79,1.1,33.11,6.54,43.63
	c3.07,8.82-6.67-8.4-6.54-10.56c-9.23-29.78,0.6-31.92-20.7-3.59c-3.16,5.14,2.65,17.61,5.45,22.26
	c3.58,7.58,10.17-13.51,11.6-11.47c0.49,4.3,0.95,10.74,1.96,14.87c4.12-2.96,11.04-7.55,10.07-12.44
	C592.18,79.58,590.44,58.85,582.56,50.73z M475.78,49.65c-5.35,8.5-11.45,17.41-14.01,26.8C465.33,71.25,480.6,53.42,475.78,49.65z
	 M321.06,45.12c-9.54-0.8-19.79,3.33-28.87,5.72c-9.16,2.99-19.08,4.9-27.78,8.44c-6.25,2.22-11.85,6.75-17.98,9.26
	c-7.04,2.35-15.54,2.98-22.34,6.27c-11.56,5.47-15.74,26.47-13.62,38.02c-0.52,2.1,10.77,5.89,6.13,2.35
	c2.26,1.05,5.23,1.42,7.49,2.4c9.87,3.09,14.28-6.34,21.25-8.72c2.96-0.86-3.8,4.64-3.61,6.36c-0.49,3.87-2.17,5.36,1.97,9.22
	c2.51,3.54,4.08,7.55,4.63,11.93c3.31,5.7-3.63,15.66,0.34,19.07c8.59,4.64,16.61,9.94,25.27,14.16c3.19,0.56,7.05,5.23,10.08,3.27
	c-4.03-2.64-9.65-6.62-11.98-11.5c-1.41-3.82-4.57-8.08-3.48-12.58c-1.06-3.28-5.19-7.06-7.42-10.24
	c-13.02-15.7,20.25,15.72,27.3,17.98c2.71,1,12.69,8,12.85,3.67c1.78-1.02-0.71,0.79,0.65,0.69c1.5-0.85,2.95-1.83,4.42-2.72
	c0.83-0.64,6.82-3.48,4.63-3.81c-14.72-5.84-79.99-52.13-36.78-59.65c17.02-4.11,43.1-8.27,59.38-1.09
	c4.82,2.02,10.04,4.11,14.71,6.81c4.57,3.35,1.67,1.37,6.81,0c6.68-4.94,14.35-6.9,22.61-8.44c10.62-3.15,35.47,2.46,38.67-9.53
	C387.37,63.31,355.39,51.45,321.06,45.12z M500.42,35.71c-5.29,7.51-13.8,13.16-21.25,17.31c-1.85-0.63-1.31,7.22-0.39,7.63
	c2.69-1.99,1.66,1.37,1.36,3.27c-3.83,12.31,11.95-1.39,16.39-3.81c4.72-2.22,2.41-10.14,3.77-14.71
	C500.01,43.06,502.97,34.52,500.42,35.71z M544.26,31.62c-2.49,6.39-5.2,12.43-7.47,18.95c-1.3,3.94-3.53,6.53-0.54,10.08
	c4.64,9.29,14.32,16.4,23.7,19.61c5.08-5.21,8.78-12.66,13.35-18.57c1.07-2.43,5.35-5.05,0.6-5.4c-3.29-1.21-5.8-3.01-8.78-4.9
	C556.89,47.22,550.81,36.46,544.26,31.62z M332.5,26.6c0,0.35-0.55,0.35-0.54,0C331.95,26.25,332.5,26.25,332.5,26.6z M501.11,25.78
	c-7.74,4.5-14.52,10.22-20.43,17.71c-4.83,4.81-2.99,10.63,3,5.17C489,46.04,509.04,28.71,501.11,25.78z M548.62,21.81
	c-9.22,13.8,16.12,26.81,25.76,33.12C597.99,50.82,557.03,22.69,548.62,21.81z M528.62,17.34c-4.95,0.19-11.9,1.67-17.16,3.54
	c-6.13,1.14-7.19,4.79-7.63,10.35c7.19,6.13,26.09,1.43,35.14-0.82c0.96-1.43,7.13-1.8,2.88,0.27c-2.87,1.52-6.33,2-9.42,2.99
	c-7.87,2.82-22.6,0.17-29.15,1.36c-0.56,6.92-3.54,15.99-1.78,22.76c9.42,3.97,29.64,3.84,33.38-5.32
	c3.11-8.62,6.94-17.16,10.35-25.61c1.27-3.63,3.73-6.36-1.91-6.81C539.34,18.42,532.62,17.43,528.62,17.34z M534.07,15.7
	c27.39,2.28,54.1,24.24,58.02,52.03c2.52,26.4-1.99,11.8,28.06,23.7c2.62,2.05,5.73,0.59,8.17-0.82c2.97-1.63,6.16-2.8,9.53-3.81
	c24.47-7.91,52.38,1.64,68.37,22.94c7.21,9.18,33.39-0.28,44.67,8.66c8.35,5.35,16.25,13.24,19.07,22.49
	c18.81,10.18,47.61,7.44,59.11,30.9c-5.71,27.78-5.18,56.57-16.62,82.81c-3.87,8.87-7.48,17.29-13.62,25.33
	c-8.76,12.44-20.68,23.47-25.33,36.77c-2.71,5.73-5.13,11.8-7.63,17.43c-1.3,4.82,3.49,8.59,4.63,12.53
	c1.31,3.02,6.74,1.32,6.54,5.99c7.81,0.35,14.53,1.12,20.97,3.27c5.96,3.26,8.43,8.97,11.04,14.17
	c3.33,5.52,22.73,14.89,17.84,22.33c-9.1,12.96-31.91-1.52-39.23-11.98c-2.37-5.68-10.32-2.22-12.8-5.84
	c-1.64-0.93,2.35,5.6,3.54,6.92c0.43,10.12,2.78,18.02,0.81,28.87c-3.37,4.28,4.61,32.41-6.26,32.14
	c-11.09,2.82-15.04-10.86-15.53-18.68c0.84-2.41-6.91-4.99-7.08-7.54c-8.83-11.59-8.31-26.42-10.63-40.79
	c-1.51-0.5,1.28-2.81,0.46-3.39c-1.84-2.05-0.91,2.5-1.55,2.85c-4.02,10.5-11.87,24.81-25.33,25.06c-8.9,2.99-20.16,2.91-29.17,1.09
	c-8.01-3.83-16.71-6.28-25.58-8.72c-12.34-4.1-26.43-5.84-38.95-9.53c-14.32-4.27-27.42-12.58-40.37-20.98
	c-14.42-10.44-29.37-19.88-44.07-29.42c-14.83-8.98-7.79-3.98-14.98,9.26c-2.08,7.47-6.49,14.18-11.17,20.7
	c-2.28,7.46-2.87,15.72-5.45,23.15c-1.33,6.34-5.23,11-9.26,16.34c-4.99,6.74-9.05,14.57-15.32,20.43
	c-5.24,4.84-15.12,4.06-20.64,1.09c-6.47-4.38-7.4-13.44-10.08-20.16c-11.49-35.02-7.33-30.4,4.9-61.02
	c4.55-12.61,13.14-22.87,15.53-36.5c4.17-15.06,6.19-31.31,14.16-44.13c7.13-9.38,23.9-6.64,30.63,0.54
	c6.24,4.25,9.35,12.2,11.6,19.07c1.04,3.29,6.37,2.72,9.26,4.36c9.6,3.52,10.22,2.82,19.89,0.4
	c-15.65-12.97-29.92-35.04-47.28-43.79c-10.18-1.34-19.81,2.04-30.08,2.8c-21.87-1.31-17.89,4.11-33.72,15.53
	c-36.97,22.43-14.78,43.55-58.35,64.56c-16.42,7.29-50.57,28.85-60.81,2.34c1.99-9.43,4.05-20.35,9.06-28.76
	c3.73-7.62,7.51-15.8,13.75-22.21c5.46-4,10.36-8.3,16.15-12.11c5.28-7.37,10.76-15.92,17.5-23c0.21-2.78-11.12-3.73-14.17-5.6
	c-13.25-6.93-35.9,42.71-55.02,50.39c-8.05,6.05-16.11,12.01-24.79,16.35c-12.63,7.04-9.11,2.2-16.89,16.34
	c-2.78,10.7-7.1,21-12.26,30.78c-9.12,18.94-28.39,31.93-46.31,40.04c-10.85,7.37-23.8,22.13-33.78,32.15
	c-9.34,11.38-17.94,13.07-10.62,28.87c1.8,8.52,0.05,18.15,5.17,25.61c2.65,5.02,4.15,10.99,4.09,16.34
	c-0.94,1.78-1.07,4.18-1.7,6.11c0.49,1.35,2.11,3.78,3.06,5.39c1.57,3.59,5.35,7.59,5.79,11.27c0.24,3.91,11.58,9.63,11.65,14.28
	c8.43,14.27-12.75,11.4-19.88,6.53c-10.41-4.89-21.82-16.04-22.06-28.05c0.82-6.14-8.59-12.03-12.8-16.07
	c-2.49-3.53-5.75-2.53-8.44-0.54c-2.19,0.61-4.54,1.62-6.54,2.72c-6.16,2.96-12.56,5.13-18.52,8.44
	c-7.6,5.52-16.54,8.23-25.06,11.44c-8.82,2.26-17.21,17.04-26.15,20.7c-5.07,3.4-11.57,4.75-17.71,4.63
	c-3.87,2.54-8.19,3.22-12.13,0.55c-9.33-6.89,3.99-16.87,8.05-23.48c7.23-8.08,10.66-19.88,19.49-25.55
	c17.23-21.43,24.84-17.48-0.15-20.7c-8.84-0.68-17.51,4.38-26.42,1.09c-5.15-1.29-11.43-2.1-13.08-7.9
	c-4.46-13.92,15.56-11.98,22.77-11.37c5.07-1.29,10.04-2.68,14.82-4.43c6-2.21,9.21,2.94,13.19,3.2c13.72,2.6,22.8-3.95,32.57-13.28
	c17.47-10.68,28.86-29.1,38.96-45.76c10.71-17.52,17.52-37.14,26.42-55.51c10.42-21.33,30.26-37.65,49.03-52.9
	c9.29-5.38,15.22-10,20.16-19.55c6.53-10.01,14.79-19.44,20.98-29.48c10.77-16.08,13.99-13.74,14.71-34.32
	c2.28-13.47,1.28-4.73-10.08-11.99c-10.04-4.16-16.13-15.1-21.91-22.88c-9.06-3.96-19.83-11.78-26.03-20.81
	c-3.93-7.32-2.45-19.49,0-27.07c-5.04-10.58-1.96-22.42,2.18-32.48c4.86-8.38,12.34-14.62,21.79-16.34
	c4.23-1.45,10.72,0.52,14.16-1.63c14.13-9.24,29.8-14.54,45.76-19.07c39.96-14.13,93.42,12.21,125.37,34.39
	c2.58,1.09,11.23-6.43,15.18-7.42c8.47-4.29,18.95-6.1,28.87-7.08C476.12,41.65,499.77,11.8,534.07,15.7z"/>
</svg>
