<?xml version="1.0" encoding="utf-8"?>
<!-- Generator: Adobe Illustrator 24.0.3, SVG Export Plug-In . SVG Version: 6.00 Build 0)  -->
<svg version="1.2" baseProfile="tiny" id="Layer_1" xmlns="http://www.w3.org/2000/svg" xmlns:xlink="http://www.w3.org/1999/xlink"
	 x="0px" y="0px" viewBox="0 0 514 712.13" xml:space="preserve">
<g>
	<path d="M380.27,615.86c44.93-7.15,89.94-13.69,134.73-21.58c0,0.67,0,1.33,0,2c-10.3,1.66-20.62,3.27-30.91,5
		c-11.26,1.89-22.5,3.95-33.77,5.8c-9.03,1.49-18.09,2.78-27.14,4.16c-12.11,1.85-24.2,3.9-36.35,5.49
		c-7.18,0.94-14.19,3.95-22.51,1.53c1.92,2.88,2.15,5.59,3.21,7.86c1.5,3.21,2.63,7.93,6.85,7.86c3.66-0.06,7.51-0.44,11.23-1.04
		c13.87-2.21,27.72-4.47,41.59-6.68c13.07-2.08,26.17-3.99,39.21-6.23c16.22-2.79,32.4-5.84,48.59-8.78c0,0.33,0,0.67,0,1
		c-0.43,0.24-0.83,0.61-1.29,0.69c-29.18,5.59-58.39,10.98-87.78,15.35c-2.7,0.4-6.06,0.13-6.56,4.75c-0.23,2.1-1.82,4.99-5.29,6.35
		c0.86-1.81,1.53-2.9,1.89-4.09c0.44-1.44,2.46-2.72,1.1-4.32c-1.34-1.59-3.53-0.99-5.18-0.61c-4.16,0.97-8.31,1.77-12.6,1.89
		c-7.21,0.19-12.26,3.31-14.28,10.58c-0.43,1.55-1.37,2.96-2.05,4.45c-0.46,1.02-1.52,2.07-0.77,3.2c0.87,1.33,2.5,0.89,3.66,0.61
		c18.71-4.5,37.65-7.84,56.52-11.51c17.46-3.4,35.05-6.12,52.52-9.44c6.7-1.27,13.61-1.58,20.1-3.93c0,1,0,2,0,3
		c-1.66,0.02-3.37-0.2-4.99,0.09c-17.97,3.25-35.94,6.47-53.86,9.92c-17.92,3.45-35.79,7.09-53.67,10.75
		c-9.02,1.85-18.08,3.55-27.07,5.5c-4.5,0.97-7.22,2.31-8.32,6.23c-2.32,8.28-0.11,16.55,0.49,24.84c0.28,3.85,2.85,6.08,4.18,9.14
		c2.04,4.68-1.04,9.98,1.73,14.62c0.35,0.58-0.37,1.41-1.03,1.34c-0.48-0.05-1.2-0.76-1.27-1.25c-0.6-4.06-2.91-7.41-3.66-11.71
		c-2.59-14.9-5.17-29.82-7.51-44.78c-0.23-1.49-0.67-3.43-2.1-3.41c-2.23,0.03-1.91,2.23-1.93,3.85c-0.02,2.16,0.03,4.33-0.03,6.49
		c-0.02,0.74,0.24,2.22-0.73,2.02c-5.46-1.15-9.76,2.45-14.69,3.23c-2.47,0.39-4.84,0.38-7.14-1.94c-2.3-2.32-6.05-1-9.11-0.88
		c-4.36,0.17-8.03-1.85-11.59-3.56c-1.67-0.8-1.95-4.29-1.73-6.84c0.08-0.89-0.31-1.63-1.42-1.51c-6.02,0.62-12.05,1.26-18.07,1.89
		c-0.7,0.07-1.46,0.32-1.37,1.1c0.68,6.05-2.75,11.87-0.18,18.16c5.47,13.37,10.72,26.84,15.07,40.64c-1.67,0-3.33,0-5,0
		c-8.05-3.32-16.1-6.66-24.15-9.97c-16.61-6.83-32.91-14.22-47.87-24.35c-4.31-2.92-7.03-7.59-11.83-10.2
		c-0.28,6.21-0.22,6.34-5.37,8.53c-2.82,1.2-3.98,2.81-3.88,5.98c0.23,6.79,5.35,14.14,11.82,16.4c3.38,1.18,6.8,2.27,10.07,3.71
		c7.98,3.53,16.55,5.59,24.2,9.9c-1.67,0-3.33,0-5,0c-10.91-4.93-22.2-8.92-33.56-12.61c-3.66-1.19-7.82-2.56-11.96-0.43
		c-3.02,1.55-4.76,4.07-4.76,7.1c0.01,3,2.88,2.67,5.22,3.1c3.07,0.57,6.44,0.67,9.06,2.84c-6.67,0-13.33,0-20,0
		c1.87-1.97,4.39-3.45,3.15-7.06c-0.56-1.63,1.02-3.28,2.15-4.74c3.38-4.36,8.49-3.9,14.49-4.51c-5.58-3.49-6.16-8.36-7.38-12.89
		c-0.69-2.56,0-5.67,2.15-6.42c7.05-2.46,8.6-7.3,7.5-13.9c-0.13-0.76,0.25-1.6,0.42-2.4c1.84-8.42,4.99-16.44,7.54-24.65
		c0.36-1.16,1.24-2.66-0.71-3.16c-1.67-0.43-1.58,1.44-2.02,2.27c-3.01,5.59-3.47,12.14-7.21,17.61c-2.48,3.64-3.5,8.28-5.11,12.49
		c-6.01,15.78-11.99,31.56-17.98,47.34c-1.67,0-3.33,0-5,0c0.9-3.08,1.74-6.18,2.71-9.24c0.46-1.47-0.44-2.01-1.42-1.68
		c-3.23,1.08-4.62-0.63-5.99-3.15c-0.91-1.68-2.39-2.41-4.82-2.09c-4.12,0.55-8.26,0.77-11.73-3.16c-1.26-1.43-5.5-3.55-7.6,0.07
		c-3.64,6.27-6.78,12.82-10.13,19.26c-1.33,0-2.67,0-4,0c1.6-3.85,4.95-6.68,6.24-10.71c2.62-2.6,3.5-6.19,5.27-9.27
		c0.85-1.48,0.39-2.03-1.27-3.21c-4.92-3.49-10.85-5.22-15.47-9.24c-1.06-0.92-2.38-2.76-4.69-2.2c2.94,3.76,6.07,7.14,8.47,10.97
		c2.69,4.3,7.75,7.24,7.82,13.1c-0.65-0.51-1.43-0.92-1.93-1.55c-10.18-12.96-20.2-26.02-29.18-39.88
		c-2.58-3.99-2.73-9.51-7.67-12.05c-20.11-10.36-40.14-20.82-59.78-32.12c-15.5-8.92-32.1-16.01-47.82-24.67c0-2.33,0-4.66,0-6.99
		c1.07-0.14,0.92-1.23,1.4-1.83c4.72-5.84,8.94-5.63,12.51,0.97c1.35,2.49,3.05,3.94,5.56,5.09c8.02,3.7,15.58,8.93,23.96,11.2
		c9.45,2.57,16.5,9.15,25.52,12.3c9.15,3.19,17.68,8.15,26.48,12.34c0.15,0.07,0.25,0.24,0.4,0.29c3.02,1.18,6.78,4.03,8.89,3.11
		c3.01-1.31,0.84-5.86,1.26-8.98c2.11-15.69,6.7-30.51,15.08-44.05c0.77-1.24,1.41-2.57,2.07-3.88c0.51-1,0.96-2.03,1.56-3.3
		c-6.31-0.54-12.19-1.33-16.27,4.69c-1.2,1.76-3.74,1.69-4.91,0.57c-1.62-1.54,0.32-3,1.54-3.96c2.74-2.15,1.83-3.84-0.51-5.34
		c-10.32-6.58-10.12-13.02,1.6-18.7c3.94-1.91,8.03-3.75,12.63-3.45c2.95,0.19,3.55-0.4,2.48-3.66
		c-4.82-14.65-9.44-29.38-13.59-44.23c-2.41-8.6-3.26-17.64-5.76-26.21c-4.45-15.21-4.53-30.99-6.52-46.48
		c-1.04-8.09-1.98-16.42-2.11-24.78c-0.08-5.11,0.05-10.42-0.1-15.6c-0.51-17.66,0.66-35.33,3-52.81
		c3.94-29.5,10.74-58.35,24.94-84.85c5.85-10.93,12.19-21.7,22.61-29.27c2.84-2.06,7.51-0.9,8.68-4.89
		c-12.01-11.73-23.04-23.81-24.45-41.73c-0.67-8.51,1.24-17.04,0.47-25.33c-0.96-10.31,6.82-16.28,9.49-24.62
		c3.52-3.11,5.38-7.42,8.1-11.11c4.39-3.45,7.52-7.87,9.89-12.87c3.37-4.03,6.74-8.07,10.11-12.1c6.88-0.85,8.28-7.46,11.79-11.64
		c8.36-9.93,16.09-20.39,24.11-30.6c1.48-1.89,4.08-2.33,5.73-4.17c-6.56,11.31-14.45,21.6-21.81,32.25
		c-7.34,10.63-17.07,19.19-24.41,29.95c1.14-0.94,2.28-1.88,3.42-2.82c0.29,0.25,0.59,0.49,0.88,0.74c-3.08,4.1-6.1,8.26-9.27,12.29
		c-7.61,9.68-13.96,20.12-18.22,31.66c-1.3,3.53-4.94,7.73,0.45,11.2c3.31-16.71,12.29-31.09,22.08-44.99
		c8.49-12.04,17.63-23.59,27.47-34.58c5.46-6.1,10.32-12.73,16.99-18.72c-0.1,2-0.16,3.3-0.21,4.34c0.52,0.61,0.69,0.52,0.86,0.04
		c2.41-6.72,4.76-13.46,7.33-20.11c0.34-0.89,0.36-3.04,2.34-2.33c1.12,0.4,1.57,1.29,0.88,2.79c-1.14,2.48,0.96,1.95,2.05,1.57
		c1.28-0.45,2.05-2.38,3.87-1.26l-0.09-0.11c0.72,1.27,0.69,2.13-0.59,3.34c-5.01,4.72-10.95,8.88-12.9,15.93
		c-5.21,18.75-9.68,37.7-14.9,56.52c7.84-22.03,15.69-44.07,23.53-66.1c0.5,0.18,0.99,0.35,1.49,0.53
		c-0.42,4.06-2.77,7.75-2.77,12.81c7.69-10.11,14.53-19.89,24.04-27.26c-9.89,14.11-23.95,25.49-27.94,43.4
		c6.93-11.9,15.02-22.86,24.8-32.48c0.4,0.29,0.8,0.59,1.2,0.88c-5.18,6.95-11.07,13.49-15.33,20.96
		c-4.27,7.49-3.22,16.72-5.1,25.12c2.52-8.84,5.05-17.67,7.57-26.51c1.12,4.71-1.2,8.96-1.38,13.53c1.53-0.46,1.86-1.48,2.05-2.75
		c0.85-5.6,3.1-10.78,6.18-15.37c2.11-3.15,5.47-5.42,8.04-8.41c7.85-9.15,16.03-18.06,24.59-26.55c3.29-3.26,3.95-5.65,1-9.03
		c0.75,0.23,1.64,0.03,2.09,1.01c2.11,4.58,5.99,1.81,9.11,2.05c0.94,0.07,1.91-0.91,1.75-2.01c-0.21-1.43-1.84-1.18-2.37-0.83
		c-2.19,1.43-3.55-0.54-5.23-0.77c-1.46-0.2-4.27-4.16-5.21,0.68c-3.37-2.66-6.75-5.32-11.14-8.79c3.81,0.06,5.54,1.88,7.14,3.02
		c1.94,1.38,4.55,2.03,5.82,1.56c4.87-1.82,8.62,0.85,12.58,2.29c9.83,3.57,19.68,7.23,27.2,15.02c0.8,0.83,1.87,1.6,2.26,2.62
		c6.23,16.08,17.15,30.01,21.51,46.96c1.51,5.89,3.04,11.74,2.63,17.9c-0.11,1.58,0.42,3.42-1.94,4.11
		c0.84-17.91-7.13-32.91-15.52-48.83c-1.34,6.63,0.14,11.81,1.9,17.08c3.79,11.3,6.1,22.93,7.72,34.76
		c0.74,5.4,3.28,10.53,4.7,15.86c4.56,17.16,6.41,34.73,4.95,52.34c-1.5,18.14,7.99,30.92,20.32,38.91
		c6.09,3.94,12.38,5.62,19.33,1.82c0.01,1.46-0.68,1.81-1.4,2.1c-3.61,1.44-7.71,1.96-9.8,6.06c-0.45,0.88-2.2,1.24-3.42,1.57
		c-8.67,2.33-16.33,1.47-22.73-5.87c-4.55-5.22-9.88-9.76-15.22-14.96c1.52,6.08-0.25,12.52,8.03,16.08
		c9.17,3.94,14.54,13.58,23.6,18.35c4.47,2.35,8.28,5.98,10.16,11.02c0.15,0.4,0.02,0.91,0.02,1.16c-2.29,0.67-1.49-3.92-4.2-2.35
		c-2.69,1.55-1.31,3.99-0.36,5.62c1.65,2.83,3.3-1.08,5.12-0.44c0.48,0.16,0.57,0.49,0.16,0.67c-3.99,1.77-4.11,4.7-3.57,8.67
		c0.64,4.74,0.89,9.79-2.81,14.37c8.3,0.41,9.76-7.1,14.33-11.32c-2.74,14.65-16.03,19.81-28.86,11.77
		c-1.96,8.36-8.37,11.72-16.26,8.5c13.6-3.06,14.3-3.62,13.31-10.93c-4.09,1.25-3.27,6.62-7.1,8.1c-3.62,1.4-6.87,1.26-10.85-0.91
		c3.59-0.73,6.85,0.91,9.42-0.85c2.46-1.69,4.36-4.04,3.9-7.87c-1.68,1.72-3.19,3.18-6.4,3.55c1.96-2.39,4.15-3.66,4.32-6.47
		c-9.61-2.52-18.07-7.73-26.43-13.22c-0.97,2.04,1.97,2.31,1.22,4.46c-4.44-3.11-6.38-8.58-11.27-11.32
		c-1.76,10.25,3.64,23.4-11.47,28.6c0.6,0.99,1.65,2.74,3.1,5.16c-6.38-3.17-10.62-8.22-15.99-11.66c-0.65-0.42-1.1-2.9-2.51-0.54
		c-0.83,1.39-1,2.46,0.49,3.51c6.9,4.88,13.02,10.69,20.49,14.97c6.6,3.78,12.44,9.17,17.93,14.54
		c12.01,11.76,23.28,24.14,21.57,42.85c-0.87,9.51-5.7,17.23-11.78,24.21c-2.67,3.06-5.36,6.55-8.82,8.38
		c-4.62,2.45-5.64,5.22-4.42,9.99c2.4,9.43,2.51,19.17,3.02,28.83c0.14,2.62-0.72,5.29-0.75,7.78c-0.16,16.66-5.84,32.09-10.41,47.7
		c-2.16,7.35-0.24,13.64,1.86,20.23c2.03,6.33,5.19,12.37,6.95,18.64c3.14,11.2,6.3,22.41,9.34,33.65
		c3.7,13.66,7.58,27.32,13.24,40.26c2.63,6.02,4.22,12.45,7.47,18.16c0.95,1.68,0.6,4.88,4.08,4.29c0.2-0.03,0.72,0.49,0.68,0.65
		c-2.39,9.11,5.89,7.29,10.59,10.69c-2.23-11.47-4.33-21.92-6.26-32.39c-1.06-5.77-1.97-11.57-2.68-17.39
		c-0.41-3.35-4.58-5.23-3.15-9.31c0.58-1.65,0.34-3.93,2.27-4.4c2.07-0.51,3.29,1.33,3.83,3.14c1.09,3.63,4.52,7.34-0.26,10.97
		c-0.44,0.33,0.22,2.31,0.59,3.45c3.71,11.44,7.98,22.72,9.66,34.72c0.02,0.16,0,0.34,0.05,0.49c1.18,3.67,12.72,9.91,16.45,8.62
		c1.38-0.48,3.92-0.19,3.54-3.11 M152.57,309.23c-6.3,2.43-13.07,3.93-18.05,8.98c4.76-1.61,9.42-3.44,13.82-5.78
		c1.46-0.77,4.13-0.53,4.19-3.26c1.76,0.23,3.53,0.47,5.29,0.7c-2.38,3.56,1.41,0.8,1.68,1.64c2.03-1.39,4.82-0.71,6.66-2.44
		C161.63,307,157.08,307.16,152.57,309.23z M278.37,48.41c5.82-1.13,2.76-4.86,2.32-7.72c-5.12,1.25-2.24,4.9-2.27,7.71
		c-0.97,2.11-3.59,1.27-3.09,0.39c2.02-3.56-1.85-4.83-2.45-8.21c4.74,2.35,5.6-1.62,7.12-3.91c0.63-0.96-1.76-1.83-2.88-2.06
		c-3.07-0.62-5.63,0.39-7.14,3.36c-0.07,0.14-0.09,0.32-0.18,0.45c-1.84,2.68-3.7,5.35-5.57,8.06c3.51,1.82,7.01,3.54,10.42,5.42
		c2.36,1.3,5.18,2.22,5.76,5.45c-4.56-2.5-9.16-4.93-13.67-7.52c-2.14-1.23-4.06-1.48-5.72,0.56c-4.34,5.32-8.69,10.64-12.87,16.09
		c-1.01,1.31-1.28,2.72,1.25,3.51c6.78,2.13,13.02,5.9,20.19,6.94c1.11,0.16,2.62,0.68,2.5,1.51c-0.11,0.79-1.92,2.14-2.49,1.92
		c-2.09-0.78-4.15,0.69-6.34-0.63c-3.43-2.06-7.29-3.42-11-5.05c-1.11-1.52-2.86-2.05-4.44-2.85c-0.9-0.46-1.8-0.99-2.43,0.22
		c-0.51,0.98-1.32,2.19-1.1,3.07c0.36,1.42,2.2,1.05,2.91,0.61c1.67-1.04,3.57-0.48,5.21-1.2c-1.3,3.42-5.55,1.67-7.74,4.39
		c2.04,0,3.85-0.43,5.32,0.09c3.24,1.14,7.97-0.25,9.05,4.96c0.19,0.94,0.94,1.77-0.23,2.51c-1.18,0.75-1.98-0.04-2.42-0.89
		c-0.85-1.63-1.66-3.2-3.66-3.63c-2.26,5.66-2.28,5.69-4.77,5.34c-6.93-0.95-8.91,0.28-11.18,7.09c-0.98,2.93-2.08,5.83-2.77,8.83
		c-3.23,14.2-8.98,27.47-14.7,40.76c-1.16,2.7-1.15,5.06,1.86,6.92c12.72,7.89,26.47,13.49,40.74,17.67
		c9.31,2.72,16.4-1.72,18.63-10.88c3.89-15.95,10.46-31.19,12.75-47.54c0.78-5.56-1.01-10.91-3.26-15.86
		c-1.56-3.42-5.53-0.27-8.06-1.81c-0.14-0.08-0.51,0.21-0.75,0.32c0.48,3,2.49,5.65,2.26,9.83c-3.67-4.89-5.02-9.69-6.41-14.45
		c-0.77-2.63,1-4.9,2.67-5.94c3.57-2.21,7.53-4.12,11.58-5.12c2.9-0.72,2.99-1.73,2.38-3.98c-1.27-4.71-3.22-9.41-3.45-14.18
		c-0.26-5.47-2.2-4.07-5.35-2.63c-1.3,0.59-2.6,3.2-4.62,0.87c0.82-0.51,1.61-1.09,2.47-1.53c7.23-3.74,7.23-3.73,2.71-11.29
		c-0.49,0.88-1.43,1.75-1.35,2.52c0.74,7.18-2.06,3.27-4.31,1.46C279.51,48.15,278.85,48.39,278.37,48.41z M310.58,544.82
		c0.51-6.87,1.37-13.76-1.36-20.42c0.38,6.79-1.59,13.75,1.41,20.36c0.22,0.79,0.38,1.6,0.68,2.36
		c4.88,12.42,7.86,25.41,11.57,38.19c0.38,1.31,0.2,2.79,0.27,4.19c-3.63,0.14-3.86,4.36-6.59,5.49c-3.65,1.52-2.71,3.23-0.41,5.19
		c2.09-1.7,1.94-5,4.69-6.7c0.91,4.32-8.84,10.49,3.22,12.28c-1.7,0.38-2.49,0.4-3.27,0.51c-0.91,0.13-2.2-0.47-2.56,0.77
		c-0.17,0.62,0.34,1.56,0.78,2.2c1.01,1.49,1.92-0.06,2.76-0.33c3.51-1.13,6.74-2.55,4.28-7.29c-0.24-0.45,0.1-1.2,0.18-1.88
		c2.47,0.72,1.52,3.19,2.68,4.55c1.4,1.63,2.91,4.08,4.89,3.38c3.11-1.11,1.91-3.64,0.92-6.18c-6.27-16.22-12.69-32.4-16.87-49.35
		c-1.23-4.99-3.14-9.82-4.89-15.18C310.97,539.76,313.38,543.01,310.58,544.82z M252.35,326c-2.94-1.77-1.75,2.53-3.3,2.49
		c-1.65-0.47-0.31-2.5-2.48-2.91c1.9,5.33-1.07,8.84-4.72,13.5c0-3.99,0-6.75,0-9.91c-1.38,1.19-0.22,2.72-1.97,3.55
		c0-3.54,0-6.87,0-11.35c-9.79,15.9-17.95,31.23-23.13,47.94c-1.87,6.03-5.48,12.25-1.23,18.54c4.56-7.96,9.29-15.95,13.75-24.09
		c7.11-12.97,16.36-24.64,22.95-37.92c3.98-3.59,6.43-8.35,8.5-13.03c1.03-2.33,3.22-5.43,1.22-8.58c-1.52-2.4-3.03-4.81-4.7-7.46
		c-3.29,4.67-6.06,9.58-9.78,13.59c-2.81,3.02-1.96,5.23,0.53,6.66C251.73,319.19,252.05,322.46,252.35,326z M164.81,524.64
		c-1.26,1.58-3.76,1.09-3.45,0c1.13-4-0.19-7.52-0.61-11.29c-0.25-2.21,0.26-4.65-0.23-7.04c-0.83,1.6,0.01,3.72-1.62,4.97
		c-1.35,1.03-0.63-1.91-1.55-0.96c-0.53,0.54-0.46,1.87-0.33,2.8c0.47,3.22,1.11,6.41,1.64,9.62c0.9,5.41,1.61,10.84,1.2,16.36
		c-1.85-9.19-3.6-18.39-4.76-27.67c-0.81-6.46-2.61-9.73-7.16-8.87c-4.98,0.94-9.89,0.47-14.8,0.86c-1.59,0.13-3.27,0.55-4.68,1.28
		c-1.44,0.74-2.82,1.92-2.37,3.94c0.81,3.64,1.84,7.24,2.46,10.91c1.6,9.45,4.27,18.75,4.09,28.49c-0.3-2.22-1-4.32-1.57-6.45
		c-0.54-2.04-0.8-4.15-1.19-6.23c-2.51,1.86-2.83-0.57-3.78-2.07c1.6,9.82,3.46,19.4,5.38,28.97c3.15,15.64,6.35,31.27,9.5,46.91
		c0.77,3.83,2.1,7.59,2.01,11.56c-0.08,3.49,3.81,5.61,3.08,9.31c-0.15,0.74,0.54,1.04,1.27,1.17c1.6,0.29,3.18,0.97,4.77,0.97
		c9.23,0.05,17.67-3.98,26.63-5.4c1.16-0.19,2.65-1.72,2.18-3.51c-1.62-6.25-1.33-12.71-2.14-19.02c-1.6-12.47-0.17-24.95-0.96-37.4
		c-0.35-5.49-0.06-11.03-0.06-17.42c-2.44,5.07-2.43,10.11-6.07,15.31c2.97-13.36,8.19-24.96,5.38-37.72
		c-1.5-6.83-1.89-13.86-3.89-20.64c-0.64-2.15-1.73-1.96-3.21-2.01c-1.53-0.06-1.81,0.74-2.04,2.11c-1,6.12-2.17,12.21-3.27,18.3
		L164.81,524.64z M229.97,471.34c3.7,4.7,7.41,9.4,11.11,14.1c0.84,4.32,5.42,6.45,6.91,11.06c-4.2-0.93-4.56-5.38-7.57-6.83
		c-0.86,1.47,1.4,2.29-0.33,3.72c-1.55-1.76-3.13-3.56-5.59-6.37c1.65,9.1,3.07,16.91,4.49,24.71c-0.51,0.18-1.01,0.37-1.52,0.55
		c-2.38-14.06-3.74-28.66-18.1-36.91c0.07,2.2,2.65,3.53,0.83,5.37c-2.28,2.31-1.34,4.44-0.64,7.1c1.07,4.07,1.76,8.3,2.67,12.41
		c0.55,2.49-0.78,5.4,2.63,7.9c11.86,8.7,23.51,17.69,35.67,25.97c5.81,3.96,11.47,8.28,18.75,11.44
		c-3.62-23.94-10.2-46.66-12.51-70.61c1.87,1.24,2.16,2.4,2.23,3.82c0.36,7.37,2.46,14.46,3.52,21.73
		c2.11,14.51,7.27,28.51,7.41,43.35c0.02,2.18,1.11,3.49,2.7,4.37c2.56,1.41,5.29,2.53,8.62,4.09c-3.15-23.81-4.04-47.23-7.74-70.38
		c5.13,21.98,6.19,44.51,8.86,67.26c9.29-14.99,9.77-30.6,6.2-46.62c-1.89-8.5-2.63-17.12-3.48-25.73
		c-1.02-10.26-2.57-20.42-4.64-30.5c-3.55-17.27-10.61-33.46-15.57-50.29c-1.34-4.54-3.68-8.97-2.66-14.95
		c5.16,15.8,9.89,30.63,14.85,45.39c5,14.91,7.32,30.38,9.58,46.8c6.33-13.4,7.12-26.38,5.38-39.73c-2.2-16.88-6.4-33.2-12.9-48.97
		c-1.87-4.53-4.7-5.88-8.99-4.58c-1.45,0.44-2.55,0.68-3.57-0.43c-1.51-1.63-3.48-1.23-5.16-0.94c-5.27,0.89-10.38,0.55-15.44-1.09
		c-0.68-0.22-1.3-1.09-2.18-0.23c-0.91,0.88-0.44,1.58-0.15,2.59c0.84,3,2.17,5.94,1.78,9.24c-1.92-3.9-3.32-8-5.19-11.88
		c-2.22-4.63-3.37-4.55-6.75-0.79c-4.53,5.03-7.65,10.98-11.49,16.45c-1,1.43-0.65,2.03,0.1,3.36c2.14,3.76,4.81,7.38,4.78,12.11
		c-1.6-4.17-5.28-6.73-7.24-10.62c-2.07,2.54-2.22,5.95-5.17,7.36c-1.12-1.45,0.08-2.54,0.61-3.64c2.94-6.2,6.29-12.18,10.27-17.79
		c1.6-2.25,4.83-5.33,4.24-6.78c-1.75-4.32,1.8-4.32,3.46-5.93c0.27-0.27,0.42-0.66,0.6-0.97c-1.31-1.12-2.12,1.31-3.28,0.1
		c2.56-2.51,1.85-6.97,5.36-8.96c0.17-0.1,0.26-0.76,0.12-0.9c-3.16-3.21-1.33-7.23-1.82-10.87c-0.11-0.84-0.11-1.68-1.25-1.75
		c-0.9-0.05-1.45,0.24-1.89,1.16c-0.62,1.32-1.59,2.47-2.34,3.73c-4.83,8.13-9.76,16.2-14.41,24.43
		c-4.05,7.18-10.23,14.11-4.17,23.18c0.15,0.23,0.06,0.67-0.01,0.98c-0.05,0.22-0.28,0.4-0.48,0.67c-0.69-0.96-1.33-1.87-1.94-2.72
		c-2.98,6.28,2.91,6.01,7.61,8.07c-3.18,0.29-4.57,0.38-6.19-0.12c-3.89-1.18-7.92-1.91-11.84-2.97c-2.1-0.57-4.68,0.09-4.85,1.58
		c-0.8,7.08-3.67,13.91,0.35,21.38c6.42,11.93,13.14,23.69,20.07,35.31C224.57,465.48,224.7,470.69,229.97,471.34z M172.91,452.01
		c0.4-2.15,0.58-3.87,1.56-5.85c5.97-12.17,13.73-23.48,18.3-36.28c3.97-11.12,6.19-22.73,8.38-34.34
		c2.87-15.2,4.27-30.52,4.82-45.93c0.21-5.99-3.93-10.97-9.43-13.26c-4.6-1.91-9.47-3.24-14.18-3.31
		c-6.15-0.08-12.09-2.6-18.24-1.35c-2.37,0.48-4.69,1.35-7.01,2.07c-8.89,2.75-17.99,5.17-25.56,11c-1.79,1.38-3.41,2.74-3.73,5.5
		c-0.52,4.49-2.28,8.86-2.67,13.35c-0.53,6.04-2.81,11.88-2.1,18.04c0.97,8.46,1.94,16.91,2.92,25.37
		c0.97,8.46,2.36,16.89,2.78,25.38c0.34,6.92,1.6,13.91,0.98,20.74c-0.61,6.79-1.27,13.64-2.44,20.43
		c-0.72,4.18-3.46,9.32,1.3,13.25c2.45-3.4,2.45-8.11,6.31-12.29c-0.3,4.59,0.04,8.17-0.86,11.39c-2.16,7.72-4.23,15.4-4.07,23.5
		c0.03,1.33,0.12,2.68-0.03,3.99c-0.14,1.29,0.63,2.73-1.25,4.63c-1.63-10.69-0.48-21.19-3.96-30.93
		c-0.57,11.94-2.38,23.68-2.84,36.24c6.2-2.86,12.31-3.11,18.53-2.99c9.08,0.17,18.06,1.6,27.2,1.28c4.47-0.15,9.28,1.37,9.38,7.77
		c0.03,2.04,0.93,4.07,1.44,6.1c1.25-9.55,1.08-19.03-1.09-28.43c-0.84-3.64-1.56-7.32-2.34-10.98
		c-2.58-12.04-3.38-24.58-10.28-35.37c-2.02-3.16-3.85-6.45-5.77-9.68C166.62,436.15,168.87,444.51,172.91,452.01z M204.69,299.03
		c0.56,2.04-0.23,4.49,2.07,5.87c0.92,0.56,2.01,1.22,2.14-0.38c0.25-3.08,2.86-4.73,3.95-7.3c2.88-6.83,4.17-14.08,5.04-21.3
		c1.11-9.2,0.69-9.25-5.54-11.77c-0.13-0.05-0.07-0.58-0.1-0.89c7.63,0.83,7.62,0.84,5.89-7.34c-0.17-0.8,0.01-1.67-0.13-2.49
		c-1.28-7.41-2.59-14.48-8.69-20.19c-9.9-9.27-19.32-19.06-29.88-27.63c-1.02-0.83-1.69-1.5-3.33-1.04
		c-8.97,2.5-18.41,4.04-24.52,12.13c-2.21,2.92-4.81,5.42-7.19,8.15c-4.77,5.49-9.13,10.54-9.91,18.93
		c-1.25,13.44-1.67,26.89-2.57,40.33c-0.26,3.83,1.01,4.74,4.7,4.67c3.54-0.06,7.09,1.2,10.66,1.46c6.76,0.48,13.32,4.2,20.29,1.4
		c4.56-1.83,9.53-0.32,14.14-1.74c0.32-0.1,0.55-0.06,0.82,0.59c0.93,2.2,1.2,2.12,2.71,0.42c1.63-1.85,1.68-4.8,4.47-6.55
		c0.34,3.36-3.76,5.97-2.03,7.73c1.96,1.99,4.53-1.28,8.01-3c-2.72,4.32,0.39,5.03,1.81,6.97
		C199.5,298.81,201.15,300.6,204.69,299.03z M302.16,711.35c-2.31-6.48-4.16-12-6.24-17.42c-8.67-22.61-17.32-45.23-27.66-67.16
		c-2.2-4.66-6.49-5.35-10.4-6.3c-3.03-0.74-2.35,3.79-4.48,5.02c-0.47,0.27-0.58,1.14-0.89,1.71c-3.64,6.9-17.31,12.97-24.85,10.79
		c-2.34-0.67-2.2,0.58-2.73,2.02c-2.75,7.46-4.92,15.1-7.31,22.68c-0.64,2.05,0.09,3.34,0.94,4.39c1.98,2.44,4.15,4.86,6.68,6.69
		C248.45,690.52,275.04,700.43,302.16,711.35z M179.43,695.69c0.71,1.15,1.32,2.46,2.22,3.52c1.19,1.39,2.75,1.61,3.83-0.06
		c6.44-9.95,11.45-20.68,16.13-31.49c2.69-6.22,6.13-12.19,7.74-18.93c0.51-2.16,0.13-4.32-1.42-4.31
		c-7.4,0.08-12.11-4.88-17.96-9.13c0,2.55-0.05,4.49,0.02,6.43c0.05,1.44-0.25,3.18-1.66,3.23c-5.91,0.2-10.29,4.88-16.09,5.23
		c-2.46,0.15-3.16,0.7-2.61,3.68c1.12,5.99,3.19,11.62,5.35,17.21c2.01,5.2-0.03,9.35-2.31,14.01c-0.88-1.62-0.78-2.74-0.12-3.98
		c1.84-3.43,1.54-6.8-0.19-10.26c-2.2-4.4-5.3-8.77-5.94-13.43c-0.86-6.3-4.08-6.56-8.96-6.34c-2.94,0.13-3.59,1.1-3.54,3.79
		c0.09,5.16-0.06,10.31,1.65,15.31c1.19-1.43-0.38-3.49,1.49-5.38c-0.78,4.42,1.59,8.15-0.84,12.32c-2.01,3.45,4.62,6.59,1.69,10.84
		c0.32,0.07,0.64,0.13,0.96,0.22c7.73,2.11,15.09,5.63,23.25,6.18c0.09,0.01,0.14,0.51,0.2,0.73
		C181.64,696.95,180.25,694.29,179.43,695.69z M301.29,533.9c-1.06,6.47-3.33,12.33-6.54,17.74c-0.76,1.28-1.82,4.41-4.15,2.58
		c-4.1-3.22-9.32-3.37-13.7-6.64c-18.66-13.93-40.01-23.81-58.82-37.61c-0.88-0.64-1.91-1.52-3.03-0.98
		c-1.49,0.72-1.52,2.64-0.96,3.5c2.2,3.33,0.75,6.82,0.87,10.21c0.12,3.26,1.1,6.01,3.85,7.95c4.12,2.91,8.33,5.72,12.36,8.75
		c9.85,7.43,21.63,11.42,31.92,18.03c2.26,1.45,2.93-0.59,5.26-1.46c-2.98,4.78,0.26,5.87,3.04,7.06c3.58,1.55,7.36,2.67,10.82,4.43
		c2.27,1.15,3.81,0.87,5.11-1.01c1.88-2.71,3.98-2.26,6.4-0.89c1.13,0.65,2.57,2.34,3.75,0.66c1.89-2.69,4.91-4.7,4.64-8.79
		c-0.36-5.48-0.46-11.05,0.07-16.5C302.42,538.49,303.02,536.32,301.29,533.9z M265.68,344.14c1.21-1.43,2.47-3.14,3.96-4.64
		c9.38-9.44,18.91-18.74,28.18-28.28c3.05-3.14,6.13-3.16,9.81-1.76c0.95,0.36,1.81,1.73,3.69,0.28c-2.87-3.06-5.08-6.43-9.77-7.35
		c-3.93-0.77-7.7-2.32-11.54-3.53c3.9-1.11,7.38,0.96,12.21,0.34c-14.8-4.97-28.68-7.28-43.36-4.26c0.55,1.33,0.81,2.09,1.16,2.81
		c4.21,8.59,4.49,8.68,12.84,4.48c1.46-0.73,2.87-1.59,4.38-2.22c8.39-3.49,8.4-3.47,12.59-2c-8.96,2.11-16.12,6.23-23.59,10.02
		c4.01,5.03,7.33,10.46,9.99,16.35c-4.85-3.45-6.71-9.23-10.77-13.69c-4.72,4.45-7.08,10.44-10.34,15.79
		c-0.74,1.23,0.16,2.69,1.14,4.03C259.55,334.96,262.57,339.59,265.68,344.14z M248.04,284.04c-4,3.96-7.2,8.6-11.62,11.03
		c-3.66,2.02-5.33,4.43-6.41,7.89c-2.71,8.74-6.51,16.95-10.99,24.95c-4.27,7.62-13.93,12.7-11.52,23.58
		c0.03,0.13-0.19,0.29-0.2,0.45c-0.45,6.07-0.88,12.13-1.32,18.2c-0.27,3.75,3.04,4.26,5.24,4.79c2.02,0.49,2.29-2.24,2.7-3.83
		c0.28-1.11,0.59-2.17,0.96-3.26c8.62-25.3,21.63-48.11,38.95-68.46c2.17-2.55,3.3-4.57-0.32-6.87c-1.61-1.02-2.75-2.8-4.07-4.2
		c-5.99,9.97-8.45,12.12-14.06,11.83C242.15,296.66,246.87,291.93,248.04,284.04z M100.02,425.3c0-11.8,0.06-23.61-0.05-35.41
		c-0.02-2.24,0.88-4.48-0.01-6.73c-1.81-4.56-1.78-4.57,1.54-9.59c1.48,3.39-0.9,7.12,1.42,10.98
		c4.26-41.28,11.62-81.41,13.56-122.18C95.76,315.12,93.41,369.8,100.02,425.3z M293.33,364.01c0.62,0.64,1.25,1.29,1.87,1.93
		c5.79-7.07,14.56-11.15,18.83-19.71c1.18-2.36,4.56-2.96,4.84-5.38c0.98-8.44,1.14-16.49-6.11-23.23
		c-9.73-9.05-9.37-9.35-18.51,0.11c-1.63,1.68-1.64,2.8-0.84,4.99c2.24,6.13,3.5,12.49,3.67,19.13c0.16,6.15-0.96,12.11-2.48,19.55
		c5.88-5.82,10.62-10.51,15.35-15.19c0.32,0.36,0.63,0.73,0.95,1.09C305.05,352.88,299.19,358.45,293.33,364.01z M270.54,375.22
		c6.03-2.14,10.49-6.72,15.6-10.31c2.53-1.78,5.88-3.22,6.7-6.3c3.27-12.38,3.55-24.7-2.33-36.93
		c-11.26,10.92-22.1,21.84-30.85,34.68c2.9-1.44,4.83-4.28,8.25-5.22c-0.1,2.73-4.52,2.16-3.41,5.61c3.67-1.94,6.81-3.77,4.07-9.3
		c2.82,2.81,4.77,4.78,3.5,8.14c-0.35,0.93-0.48,2.42,0.74,3.17c1.72,1.05,2-1.26,3.1-1.47c2.3-0.44,3.09-3.77,6.4-3.25
		c-3.25,3.83-8.05,5.84-9.83,11.62c2.9-1.36,3.84-3.8,6.48-3.42c-0.55,3.45-5.83,3.19-5.71,7.96c5.49-4.38,10.41-8.29,15.33-12.21
		C283.77,365.09,276.77,369.65,270.54,375.22z M294.27,293.33c-14.53-9.99-27.47-21.67-39.72-34.72c-1.76,8.2-1.5,15.89-3.34,23.36
		c-0.96,3.89,1.26,7.55,5.07,9.77c4.04,2.34,6.29-0.52,8.96-2.71c1.51-1.23,1.52-4.03,4.6-4.27c-1.23,2.49-2.26,4.56-3.46,6.99
		C276,291.02,285.01,292.99,294.27,293.33z M205.1,534.98c-2.07-3.2,0.41-7.14-2.87-10.87c-0.52,7.44-1.27,14.75,3.25,19.81
		c5.59,6.27,12.65,11.3,19.7,16.08c0.48,0.33,1.27,1.78,1.7,0.32c1.45-4.92,6.04-7.62,8.19-12.04c1.01-2.07,1.27-3.21-1.11-4.67
		c-4.71-2.89-9.28-6.07-13.57-9.55c-2.32-1.89-3.95-3.05-5.74,0.56c-1.31-2.5,0.65-6.16-3.85-6.42c0,3.02,0,6.02,0,9.46
		c-1.8-2.42-1.76-4.68-1.86-6.98c-0.09-1.95,1.07-4.44-2.12-6.3c0,4.38,0,8.07,0,11.76c-0.28,0-0.56,0-0.84,0c0-3.25,0-6.5,0-9.76
		c-0.3,0-0.6,0-0.9,0C205.1,529.25,205.1,532.11,205.1,534.98z M362,639.11c-1.27,1.98-4.62,0.64-4.33,1.57
		c1.94,6.2-2.12,2.49-3.85,2.51c-0.88,0.01-1.54,0.3-2.22,0.89c-2.31,2.01-4.69,3.93-7.05,5.88c0.39,0.5,0.79,1,1.18,1.51
		c2.38-2.66,5.78-0.42,8.73-2.68c2.15-1.65,5.96-1.39,9.05-1.5c2.52-0.09,2.5-1.44,2.51-3.22c0.05-5.61-1.98-11.08-1.79-16.56
		c0.15-4.51-1.84-5.86-5.33-6.17c-3.64-0.32-6.96-1.75-10.49-2.33c-2.33-0.38-5.89-1.89-6.86-0.4c-2.42,3.68-6.12,5.57-9.22,8.26
		c8.13,8.85,9.37,8.97,21.53,6.62c3.01-0.58,6.64,0.32,10.1,1.75c-0.68,0.52-0.9,0.83-1.13,0.84c-1.47,0.08-2.89,0.26-4.33-0.64
		c-0.99-0.62-1.97,0.35-2.25,1.32c-0.46,1.6,0.91,1.3,1.81,1.45C359.31,638.44,360.71,637.74,362,639.11z M304.41,444.53
		c1.99-8.76,3.03-17.64,3.54-26.54c0.66-11.39-1.76-22.4-4.82-33.32c-2.71-9.69-2.56-9.62-11.87-7.24c-1.98,0.51-2.43,0.6-1.53,2.7
		c1.98,4.62,3.63,9.38,5.25,14.14C300.52,410.56,304,427.23,304.41,444.53z M196.23,177.01c-0.16,15.29,2.23,30.26,10.06,43.3
		c3.62,6.02,6.53,15.37,17.32,13.51c-1.27,3.07-3.99,0.97-5.64,2.66c3.77,5.9,7.58,11.87,11.39,17.84
		c-2.48-25.02-15.76-45.8-26.2-67.69c2.09,10.31,2.04,21.39,10.67,29.32c-1.04,1.97-2.28-1.08-3.46,0.27
		c1.56,3.92,4.19,7.13,7.46,9.93c-5.48-0.55-7.44-4.88-9.46-8.77C201.78,204.7,198.16,191.09,196.23,177.01z M220.8,505.02
		c-1.84-16.31-7.97-30.38-19.04-42.21c-0.64-0.68-1.14-1.71-2.39-1.02c-2.19,1.2-3.76,6.71-2.6,9.11c2.4,4.97,4.53,10.05,6.64,15.15
		c1.63,3.93,1.57,8.84,6.23,11.39C213.46,499.52,216.89,502.32,220.8,505.02z M309.59,638.92c1.01-2.68-2.9-2.05-2.3-4.46
		c2.88-11.6-3.41-20.47-9.03-30.32c-2.17,11.94-4.25,23.1-6.18,34.28c-0.42,2.46-0.59,4.58,3.54,3.18
		C300.14,640.06,305.07,639.73,309.59,638.92z M292.5,620.5c-6.98,2.08-11.65,6.08-17,8.78c-2.39,1.21-2.84,2.32-1.61,4.91
		c4.09,8.64,7.83,17.44,12.08,27.03C288.19,647.35,290.3,634.18,292.5,620.5z M284.56,575.12c0.87-2.97,0.62-4.32-2.24-5.3
		c-4.6-1.57-8.93-3.96-13.35-6.06c-1.85-0.88-2.75-1.66-4.26,1.22c-1.88,3.57-0.84,9.1-6.23,10.65c-0.18,0.05-0.3,0.85-0.21,1.24
		c0.45,1.8,11.04,8.08,12.79,7.31c3.44-1.5,7.03-2.72,10.35-4.33c1.68-0.81,0.25-4.37,0.7-6.63c0.11-0.55,0.67-1,1.28-1.85
		C283.79,572.62,284.06,573.5,284.56,575.12z M223.17,468.47c-8.39-14.63-16.88-28.43-23.82-43.66c-1.15,5.25-1.09,10.34-3.85,14.68
		c-0.73,1.14-1.17,2.71,0.95,2.93c1.82,0.19,1.83,1.75,2.44,2.75c4.03,6.61,7.27,13.91,15.54,16.58c0.45,0.15,0.63,1.06,0.99,1.58
		C217.09,465.78,219.15,467.72,223.17,468.47z M168.6,306.75c3.35-1.97,4-4.4,5.69-6.47c-6.7-2.24-12.68-4.65-19.78-2.85
		c-6.13,1.55-12.67,1.46-19,2.28c-1.11,0.14-3.27,0-2.66,2.27c0.35,1.33-0.83,3.69,2.04,3.65c4.82-0.06,9.72,0.4,14.45-0.29
		c6.65-0.96,9.36-1.1,14.09,1.27c4.81,2.41,10.34,1.49,13.35-2.24c0.56-0.7,1.84-1.39,0.75-2.38c-0.71-0.65-1.82-0.66-2.49,0.48
		C173.87,304.42,172.66,306.34,168.6,306.75z M117.72,286.02c5.38-22.66,11.33-45.7,24.91-65.89
		C123.01,238.07,115.51,260.57,117.72,286.02z M241.17,184.36c-1.07,1.63-2.91,2.25-2.64,4.11c0.02,0.13,0.6,0.28,0.9,0.25
		c2.13-0.24,2.08-2.11,2.6-3.55c1.1-3.04,2.02-6.16,3.39-9.07c0.66-1.4,0.28-2.03-0.54-2.97c-4.92-5.62-11.96-8.73-16.97-14.28
		c-0.43-0.48-1.55-1.64-2.52-0.63c-0.74,0.78-0.19,1.75,0.12,2.73c1.18,3.71,2.47,7.37,4.45,10.74
		C232.81,176.5,234.24,182.53,241.17,184.36z M341.94,257.07c2.19,7.64,7.97,11.38,13.47,15.38c2.32,1.69,3.46,0.67,4.61-1.58
		c1.7-3.34,0.95-6.82,0.94-10.22c-0.02-5.44-4.83-8.55-9.94-6.42C348.14,255.42,345.28,256.5,341.94,257.07z M317.18,109.23
		c1.27-11.81-20.22-61.82-29.87-67.47C298.47,63.44,306.49,86.68,317.18,109.23z M198.63,514.98c1.47-6.69-0.82-12.8-0.71-19.03
		c0.04-2.33-4.91-6.65-6.1-5.83c-1.48,1.01-2.98,2.03-4.26,3.27c-2.91,2.81-5.83,5.78-3.45,10.29c0.74,1.4,1.26,2.69,3.21,0.08
		c1.66-2.23,0.98-5.35,3.54-6.94c1.65,1.86,1.73,3.93,0.32,5.79c-2.64,3.47-0.47,5.86,1.73,8.07
		C194.48,512.26,196.49,513.41,198.63,514.98z M114.03,562.66c4-2.47,8.67-4.79,12.49-8.09c0.99-0.85-0.16-4.98-1.23-7.16
		c-0.81-1.65-2.83-0.02-4.22,0.4c-4.02,1.23-8.01,2.59-11.99,3.94c-4.58,1.56-5.29,5.34-1.58,8.54
		C109.16,561.73,111.34,561.85,114.03,562.66z M151.25,643.2c2.73,2.54,5.26,3.44,8.15,3c7.23-1.1,14.49-2.06,21.63-3.55
		c6.53-1.37,7.66-4.58,4.26-10.58c-0.71-1.26-1.65-2.39-2.97-4.27C175.65,639.97,164.76,643.43,151.25,643.2z M200.43,572.6
		c-0.54,1.91-0.08,3.32-0.03,4.74c0.24,6.53,6.7,10.92,5.89,17.71c0.84-0.05-0.01,2.01,1.78,1.2c1.43-0.64,2.16-0.11,1.88,1.2
		c-1.33,6.31,3.89,7.36,7.47,9.77c0.63,0.43,1.61,1.59,2,0.68c1.48-3.48,3.48-1.04,5.37-0.81c1.97,0.24,4.33,0.8,5.9,0
		c4.36-2.21,10.54,1.24,13.67-4.48c0.15-0.27,1-0.41,1.38-0.26c3.73,1.49,1.74-1.91,2.59-2.85c-1.56-0.84-2.55,0.5-3.75,0.86
		c-6.11,1.83-11.62,5.4-18.6,4.68c-2.61-0.27-3.11-3.3-5.31-2.64c-4.5,1.34-5.8-1.84-7.71-4.7c-3.77-5.66-4.33-12.39-6.73-19.59
		c-0.19,2.89-0.31,4.77-0.43,6.64c-0.28,0.07-0.56,0.13-0.84,0.2C203.5,580.97,202.03,576.98,200.43,572.6z M232.08,632.24
		c7.32-0.04,11.32-2.31,16.64-9.1c1.12-1.43,3.4-3.6,2.73-4.27c-1.44-1.45-3.93-1.92-6.05-2.59c-1.16-0.36-2.08,0.45-3.11,1.05
		c-3.35,1.94-6.21,4.59-9.95,6.02c-3.05,1.16-2.94,4.84-3.75,7.43C228.11,632.3,230.66,632.18,232.08,632.24z M124.13,636.73
		c2.22,1.25,4.13,2.11,5.45,4.33c1.57,2.63,10.24,3.53,10.21,1.73c-0.08-5.46,3.12-10.71,0.98-16.24c-0.76-1.97-2.02-2.18-3.62-0.92
		C132.79,629.07,128.08,632.13,124.13,636.73z M176.06,309.13c8.87,2.62,18.19,3.15,26.78,6.54c1.58,0.62,2.68,0.78,3.22-1.35
		c0.44-1.74,0.14-2.74-1.52-3.54c-5.58-2.7-11.54-4.3-17.39-6.21C180.23,302.31,180.23,302.31,176.06,309.13z M150.58,681.7
		c4.64-9.3-0.07-17.86-1.98-28.1c-1.14,4.55-1.69,7.76-2.78,10.78c-0.83,2.29-0.06,6.22-4.85,5.39c-1.5-0.26-1.53,1.19-1,2.67
		C141.8,677.56,145.64,680.22,150.58,681.7z M180.44,105.25c-15.8,22.65-24.15,47.69-24.08,75.42
		C159.43,153.95,166.71,128.57,180.44,105.25z M353.24,246.57c0.74,2.01-2.56,1.43-1.09,3.1c1.23,1.4,2.11,0.06,3.15-0.68
		c2.1-1.49,0.62-2.49-0.1-3.93c-4.31-8.64-10.33-14.79-21.13-15.39c2.79,5.77,7.01,9.69,11.09,13.71
		C347.41,245.6,349.26,248.83,353.24,246.57z M245.39,64.56c6.33-12.72,19.81-21.02,22.47-36C256.57,38.21,249.55,50.5,245.39,64.56
		z M191.59,512.43c-1.77,9.85,4.31,26.39,10.22,28.17c-0.66-4.15-2.27-8.28-1.71-12.48C201.09,520.84,198.52,515.73,191.59,512.43z
		 M113.73,651.81c4.22,6.97,7.76,13.19,11.68,19.17c3.09,4.71,4.37,4.51,6.5-0.44c0.83-1.93,1.52-3.92,2.29-5.87
		c0.2-0.52,0.49-1.69-0.14-1.31c-2.48,1.45-3.63-0.69-5.37-1.16c-2.99-0.8-0.63-4.14-3.72-4.81
		C121.36,656.61,118.11,654.09,113.73,651.81z M192.24,473.26c-3.98,6.03-8.42,11.47-9.47,19.06c6.48-0.46,10.95-10.81,18.39-2.64
		C198.28,484.37,195.39,479.06,192.24,473.26z M328.98,650.05c0.6,3.23,1.15,7.13,3.6,9.92c1.16,1.31,2.67,4.11,5.97,2.36
		c3.06-1.63,2.74-3.16,1.56-5.79c-1.1-2.45-1.76-5.23-1.98-7.91c-0.2-2.33-0.49-4.18-3.22-3.33
		C332.56,646.01,328.86,645.32,328.98,650.05z M200.08,610.25c-4.1,0.47-7.35,0.69-10.54,1.24c-3.28,0.56-4.82,2.25-4.76,6.06
		c0.04,2.76,3.05,3.65,2.91,4.17c-0.81,3.14,1.68,4.11,2.92,5.98C193.74,621.95,196.75,616.39,200.08,610.25z M123.55,605.29
		c0.31,0.26,0.62,0.52,0.93,0.77c2.8-1.75,5.91-3.17,8.31-5.36c1.54-1.41,3.15-4.15,2.82-5.94c-0.97-5.18-1.46-10.6-4.4-15.49
		c-2.37,1.09-4.83,2.42-8.04,2.03c1.55,3.21,4.89,3.84,6.67,6.24c2.17,2.92,3.23,4.98-0.31,8.1
		C126.81,598.06,125.49,602.02,123.55,605.29z M186.58,124.04c8.37-18.97,13.45-39,18.91-58.92c0.54-1.95-0.47-2.42-1.15-3.78
		C198.36,82.47,192.47,103.25,186.58,124.04z M206.81,309.14c-2.5-2.66-3.32-6.46-7.36-8.02c-2.85-1.1-6.02-3.72-7.11-6.44
		c-1.45-3.65-3.19-0.55-3.32-0.36c-1.19,1.73-1.95,3.76-3.14,5.49c-1.16,1.7,0.28,2.03,1.13,2.3
		C193.65,304.19,200.08,306.79,206.81,309.14z M274.58,246.41c3.95,10.11,8.66,18.99,10.67,29.24c4.45-6.65,2.34-13.17,0.85-19.62
		c-0.36-1.55-0.96-3.08-2.67-0.66c-0.51,0.72-1.84,0.43-2.61-0.45c-0.33-0.38-0.6-0.94,0.03-1.06c4.84-0.99,0.09-2.56-0.1-2.73
		C279.1,249.6,277.21,248.34,274.58,246.41z M108.5,405.73c-1.19,31.26,1.7,62.24,9.21,92.76C112.27,467.83,108.57,437,108.5,405.73
		z M328.97,330.96c-4.17,8.4-4.01,17.12-6.85,25.1c4.96-1.73,8.52-4.67,8.77-9.88C331.12,341.36,331.94,336.36,328.97,330.96z
		 M158.57,122.95c-10.09,9.62-15.16,21.38-16.32,34.96c3.39-11.37,8.92-21.59,16.78-30.47
		C160.77,125.47,158.94,124.53,158.57,122.95z M287.25,569.04c1.07,0.31,1.95-0.04,2.91-0.13c1.59-0.15,2.44,1.22,2.75,2.68
		c0.27,1.31-0.64,1.48-1.73,1.72c-4.03,0.92-5.89,7.44-2.94,10.44c1.23,1.25,2.79,1.62,4.02-0.21c2.53-3.78,5.2-6.99,2.11-12.37
		C291.52,566.2,291.38,565.36,287.25,569.04z M250.62,44.41c-7.45,9.59-19.3,16.65-19.03,31.78
		C237.76,65.05,244.35,54.89,250.62,44.41z M344.08,202.22c1.17,7.95,6.51,13.77,12.48,14.54c0.68,0.09,2.29-0.09,1.67,0.88
		c-2.54,3.94,2.68,1.04,2.36,2.84c1.55-1.17,3.83-1.23,4.91-3.06c0.43-0.74-0.49-1.36-0.92-1.43
		C356.05,214.65,350.33,208.95,344.08,202.22z M170.51,164.94c0.46,0.15,0.91,0.31,1.37,0.46c5.42-11.57,10.84-23.14,16.58-35.38
		C176.1,139.25,176.46,153.56,170.51,164.94z M180.39,112.28c-6.27,11.45-12.68,22.8-15.24,35.75
		C172.43,137.03,176.76,124.78,180.39,112.28z M223.33,615.52c1.02-1.48,0.59-1.95-1-2.37c-1.98-0.53-8.09,2.55-8.25,4.85
		c-0.32,4.53-0.69,8.9-3.76,12.61c-0.71,0.86-0.58,1.99,0.89,2.76c1.95,1.01,1.49-0.42,1.95-1.34c1.82-3.63,5.04-6.56,4.97-11.14
		c-0.02-1.53,0.58-4.48,2.93-3.38C224.52,619.11,223.03,616.52,223.33,615.52z M250.58,371.01c0.22,0.31,0.43,0.63,0.65,0.94
		c6.05-4.39,12.1-8.78,18.15-13.17c0.28,0.39,0.56,0.77,0.84,1.16c-6.14,4.85-12.29,9.7-18.43,14.55c0.29,0.34,0.57,0.68,0.86,1.02
		c4.15-1.56,6.89-5.17,10.43-7.6c2.42-1.66,4.61-3.69,6.75-5.71c1.82-1.72,1.92-4.09,0.36-5.76c-2.11-2.27-3.02,0.7-4.18,1.65
		C260.8,362.32,255.71,366.69,250.58,371.01z M10.21,594.28c1.36-2.26,3.56-4.27,3.52-6.23c-0.06-2.75-1.93-6.26-4.82-6.42
		c-3.26-0.17-5.35,3.26-5.75,6.22C2.53,592.42,7.59,591.62,10.21,594.28z M224.22,194.94c0.71,6.5,5.24,13.9,11.81,19.35
		c-1.1-2.89-1.79-5.43,0.58-7.88c1.06-1.1,0.42-2.96-0.93-3.25C230.7,202.09,228.18,197.67,224.22,194.94z M220.24,313.2
		c5.18-1.64,5.54-6.42,7.19-10.37c0.33-0.8,0.87-1.58-0.18-2.04c-0.72-0.32-1.52-0.21-2.17,0.59c-3.03,3.73-3.05,3.71-5.14-0.9
		c-0.75-1.66-2.38-2.76-3.8-2.17c-1.78,0.74-2.54,3.26-0.99,4.42C218.81,305.49,219.52,309.39,220.24,313.2z M221.2,112.15
		c4.46-8.25,7.73-16.96,11.04-25.65c0.58-1.53,0.07-2.13-1.12-2.53c-1.46-0.49-1.96,0.58-2.49,1.68
		C224.57,94.04,223.57,103.27,221.2,112.15z M156.79,105.36c-1.02-0.24-2.02-1.95-2.9-0.73c-7.43,10.14-14.19,20.69-18.67,32.54
		C142.06,126.34,148.64,115.37,156.79,105.36z M184.5,148.98c0.24,10,1.61,20.05-0.27,30.05
		C189.09,169.16,189.94,159.17,184.5,148.98z M323.17,105.82c1.38,10.95,1.91,22.09,7.86,32.81
		C330.75,126.65,327.4,116.14,323.17,105.82z M321.68,660.68c-0.61-3.62-1.12-7.26-1.88-10.84c-0.41-1.93-1.65-2.91-3.92-2.69
		c-2.44,0.23-1.81,1.87-1.89,3.21C313.56,658.25,313.9,658.7,321.68,660.68z M292.93,374.5c9.25-7.93,19.22-15.33,23.7-27.54
		C309.78,357.05,300.76,365.2,292.93,374.5z M212.17,117.4c-5.52,5.55-6.76,15.06-3.14,20.32c0.9,1.31,1.27,0.08,1.8-0.22
		c2.69-1.55-1.09-2.31-0.49-3.3C213.55,128.94,211.29,123.3,212.17,117.4z M324.85,216.34c4.82,10.44,7.22,12.11,17.65,12.14
		C336.59,223.95,331.84,219.27,324.85,216.34z M178.43,183.07c4.3-8.48,6.02-17.29,3.6-26.7c-0.32-1.25-0.88-1.74-2.02-1.43
		c-1.31,0.35-1.17,1.61-0.95,2.45C181.31,166.02,179.55,174.52,178.43,183.07z M341.87,653.69c0.45-3.69,1.42-6.41,5.13-8.06
		c2.28-1.01,2.99-4.55,6.26-4.33c0.61,0.04,1.52,1.3,1.69-0.42c0.09-0.95-0.21-1.6-1.29-1.65c-2.95-0.16-5.91-0.61-9.69,0.67
		c2.46,0.27,4.03,0.44,5.67,0.61c-0.98,2.37-3.06,1.15-4.41,1.79c-1.79,0.85-5.01,0.26-5.04,3.04
		C340.15,648.13,341.26,650.91,341.87,653.69z M302.04,26.87c-8.96-7.27-13.43-6.62-23.2,3.21
		C285.86,25.36,293.46,25.09,302.04,26.87z M149.47,293.12c-5.77-1-10.06-1.78-14.35-2.48c-2.19-0.36-3.52,0.36-3.13,2.9
		c0.32,2.07,0.39,4.14,3.6,3.17C139.71,295.47,143.93,294.54,149.47,293.12z M104.21,417.51c0.17-12.53,3.57-24.07,1.09-36.53
		c-0.62,6.62-1.05,12.47-1.74,18.28C102.87,405.12,102.27,410.93,104.21,417.51z M279.22,32.75c7.57,3.19,14.58,7.06,20.69,12.48
		c-3.55-4.4-7.5-8.29-11.49-12.13C285.72,30.5,282.74,30.39,279.22,32.75z M305.79,236.88c-0.49-9.89-10.35-16.12-10.3-26.26
		C294.87,220.91,300.12,228.96,305.79,236.88z M329.75,660.83c0.3-4.12-3.55-6.59-3.8-10.42c-0.07-1.13-0.91-1.21-1.78-1.16
		c-0.92,0.06-1.67,0.61-1.88,1.4c-0.92,3.44,1.12,6.34,2.25,9.27C325.38,662.12,327.89,661.26,329.75,660.83z M122.88,544.89
		c-6.92-0.26-13.47,1.72-19.38,5.63c-4.73,3.13-4.61,5.51,0.35,9.44c0.05-0.91,0.4-1.89,0.07-2.48c-2.47-4.49,0.26-6.21,3.86-7.46
		C112.81,548.27,117.85,546.59,122.88,544.89z M236.52,237.42c0.2,4.16-2.82,7.97-0.66,12.39c1.79,3.66,2.43,7.88,3.58,11.85
		C238.31,253.57,239.67,245.18,236.52,237.42z M354.02,652.29c-2.46,1.19-4.14,2.22-5.96,2.84c-4.28,1.46-2.75,3.15-0.46,5.2
		c1.48,1.32,3.17,1.05,4.67,0.7c1.73-0.4,1.82-2.09,1.76-3.66C353.97,655.89,354.02,654.41,354.02,652.29z M238.08,271.04
		c-0.17-6.66-1.61-11.64-3.02-16.64c-0.23-0.83-0.3-1.55-1.38-1.69c-1.37-0.17-1.49,0.94-2.05,1.7c-1.11,1.5-0.41,2.72,0.29,4.09
		C233.83,262.23,235.63,266.03,238.08,271.04z M224.46,191.07c3.88,4.07,6.9,9.28,13.49,10.6c-0.52-2.14,2.04-4.92-1.81-5.83
		C232.02,194.87,228.3,193.06,224.46,191.07z M164.62,105.88c0.39,0.32,0.77,0.64,1.16,0.97c7.13-8.35,14.25-16.7,21.38-25.05
		C178.38,88.77,171.73,97.52,164.62,105.88z M251.12,358.92c0.54-0.01,1.07-0.02,1.61-0.03c0.64-8.75,1.07-17.49-1.61-26.18
		C251.12,341.44,251.12,350.18,251.12,358.92z M140.53,654.94c-2.89,3.88-1.07,7.48,0.33,11.98c2.95-4.9,4.03-9.63,5.89-14.02
		c0.39-0.91,0.04-1.74-0.78-2.05c-1.43-0.53-1.41,1.13-1.61,1.66c-0.93,2.43-1.38,5.05-2.95,7.44
		C139.62,658.25,141.88,656.58,140.53,654.94z M209.47,147.71c0.33,9.02,5.35,20.17,10.85,23.88
		C216.35,163.34,212.27,155.79,209.47,147.71z M227.24,581.96c2.41,3.49,0.82,7.83,5.17,8.98c3.02,0.8,0.43-3.19,2.8-3.51
		c0.71,0.76,1.53,1.64,2.35,2.52c0.4-0.7,0.84-1.39,1.2-2.11s0.09-1.42-0.66-1.48C234.48,586.09,231.9,583.25,227.24,581.96z
		 M205.31,108c3.46-6.47,5.86-13.31,7.97-21.42C207.29,93.33,206.62,100.79,205.31,108z M140.66,186.69
		c-0.67-10.54-2.5-21.12-1.07-31.84C136.71,165.52,138.19,176.07,140.66,186.69z M243.86,245.25c1-7.3-3.53-12.82-6.53-18.82
		C237.35,233.39,242.15,238.82,243.86,245.25z M284.53,583.58c-4.11-1.96-7.22,0.98-10.76,1.6c-2.78,0.49-1.51,2.44-1.74,3.83
		c-0.09,0.52-0.38,1.55,0.51,1.62c2.07,0.16,2.27-1.04,1.69-2.69c-0.02-0.06,0.82-0.65,1.14-0.56
		C279.39,588.52,281.35,584.58,284.53,583.58z M226.77,295.4c3.89-4.6-2.23-7.46-1.46-11.32c-0.43,2.41-1.26-2.9-2.5,0.27
		C220.82,289.45,224.15,291.96,226.77,295.4z M248.14,358.25c2.71-3.3,2.63-16.47,0-20.56
		C248.14,344.51,248.14,351.29,248.14,358.25z M341.26,636.6c-4.41-2.35-6.76-5.62-9.66-8.29c-0.74-0.68-1.45-1.53-2.51-0.63
		c-0.41,0.35-0.93,0.67-0.58,1.57C329.72,632.31,337.22,637.08,341.26,636.6z M280.55,25.11c3.01-1.75,5.79-3.38,8.87-5.18
		c-2.8-1.88-5.12-2.95-7.68-1.16C279.48,20.35,279.65,22.51,280.55,25.11z M337.65,608.35c-3.78,3.65-7.52,6.99-11.93,9.47
		C336.55,615.85,338.18,614.57,337.65,608.35z M166,295.56c1.97-0.49,3.21-0.17,4.48,0.83c3.65,2.85,6.63,2.55,8.04-2.39
		C174.64,295.3,170.37,290.23,166,295.56z M193.66,91.09c2.21-7.76,4.41-15.51,6.62-23.27c-0.42-0.11-0.85-0.23-1.27-0.34
		C196.86,75.26,193.39,82.68,193.66,91.09z M199.87,157.74c-3.55,8.27-1.13,15.54,0,22.8C199.87,173.29,199.87,166.03,199.87,157.74
		z M244.16,232.19c0.4-0.15,0.8-0.31,1.21-0.46c-2.55-6.46-5.11-12.92-7.66-19.39C236.89,220.1,242.29,225.47,244.16,232.19z
		 M241.84,63.66c-3.34,5.15-7.38,9.92-8.96,16.01C237.84,75.38,239.6,69.39,241.84,63.66z M307.59,217.76
		c-0.52-7.4-2.61-14.52-3.73-21.82C303.6,203.47,305.19,210.69,307.59,217.76z M248.1,267.85c0.4-0.16,0.8-0.31,1.2-0.47
		c-1.57-6.45-0.08-13.59-5.17-20.41C245.59,254.67,246.85,261.26,248.1,267.85z M248.45,552.74c4.36,3.45,9.48,5.77,13.35,9.84
		c0.57,0.6,1.44,1.17,1.97,0.08c0.42-0.86,0.37-1.71-0.8-2.41C258.29,557.44,253.83,554.26,248.45,552.74z M258.24,374.39
		c5.94-0.78,11.86-5.59,12.53-9.55C266.18,367.16,263.16,371.12,258.24,374.39z M143.2,308.81c-7.78-0.14-11.85,2.22-11.95,6.6
		C135.03,313.32,138.67,311.3,143.2,308.81z M361.53,656.97c4.26-1.11,4.72-3.59,4.41-6.33c-0.27-2.36-2.78-1.81-3.43-1.3
		C359.87,651.43,363.3,654.12,361.53,656.97z M242.56,260.86c-0.54,6.27-2.62,12.43-1.14,19.15
		C243.77,273.49,242.86,267.13,242.56,260.86z M354.14,609.77c5.66-4.79-1.29-8.49-0.52-12.7
		C351.53,601.37,354.15,605.35,354.14,609.77z M329.19,639.46c0,2.14,0,3.76,0,5.43c0.82-0.25,1.42-0.57,2.04-0.61
		c2.1-0.12,5.31-0.57,5.38-2.08c0.15-3.34-3.12,0.06-4.5-1.37C331.48,640.18,330.37,639.99,329.19,639.46z M197.6,124.57
		c3.32-3.5,4.76-7.85,5.9-12.34C199.5,115.37,199.05,120.21,197.6,124.57z M354.98,611.45c0.21,5.06,0.98,8.86,7.76,8.36
		C360.06,616.92,357.79,614.47,354.98,611.45z M330.37,146.61c-1.59-6.13-2.72-10.96-5.83-15.01
		C326.46,136.12,325.67,141.72,330.37,146.61z M319.59,222.69c0.6-4.1,0.76-8.06-3.31-11.28
		C315.41,216.15,318.21,219.22,319.59,222.69z M190.61,159.39c1.22-6.23,1.92-11.86,0.78-17.6
		C191.48,147.48,188.26,152.94,190.61,159.39z M201.75,641.08c3.36,0.05,5.74,2.82,8.09,0.13c0.41-0.48,0.18-2.29-0.36-2.7
		C206.44,636.24,204.93,639.51,201.75,641.08z M334.44,153.71c1.57-5.11-0.72-9.97-0.56-15.56
		C330.48,143.89,334.04,148.73,334.44,153.71z M207.44,522.79c0.45,0.06,0.91,0.13,1.36,0.19c-0.67-6.15-1.34-12.29-2.01-18.44
		c-0.33,0.03-0.66,0.07-0.99,0.1C206.34,510.69,206.89,516.74,207.44,522.79z M168.78,160.46c3.59-5.7,5.55-10.46,5.95-15.8
		C172.56,149.35,169.97,153.88,168.78,160.46z M212.44,511.09c-0.35,2.15-0.53,3.28-0.73,4.45c-1.18-0.51-0.06-2.1-1.49-2.23
		c-0.58,8.33-0.58,8.33,1.82,11.02C209.45,520.11,214.14,516.55,212.44,511.09z M234.97,272.66c0.12,5.64,0.04,10.33-0.64,14.98
		C236.47,283.15,238.17,278.64,234.97,272.66z M318.76,82.95c-0.48-4.23-1.36-8.38-3.29-12.38C312.77,75.7,317.4,78.92,318.76,82.95
		z M232.67,619.04c2.79,0.2,3.61-1.95,5.34-2.39c0.64-0.16,1.05-1.2,1.56-1.84c-0.83-0.34-1.65-0.94-2.5-0.99
		C233.2,613.55,234.42,617.05,232.67,619.04z M289.23,185.03c-2.7,4.31-2.38,7.98-1.66,11.71
		C287.72,193.07,290.84,189.88,289.23,185.03z M229.59,187.36c-3.63-2.76-6.63-6.27-10.34-8.94
		C221.84,182.41,224.94,185.8,229.59,187.36z M300.36,566.78c-0.55,2.4-4.37,3.09-3.03,6.19c0.26,0.6,0.79,1.4,1.86,0.63
		C301.75,571.78,301,569.27,300.36,566.78z M232.14,580.32c0.4-0.36,0.8-0.72,1.19-1.09c-2-1.71-3.96-3.47-6.03-5.1
		c-0.72-0.56-1.22-2.48-2.6-0.93c-1.02,1.15,0.45,1.61,0.98,2.25C227.44,577.63,229.81,578.95,232.14,580.32z M322.17,337.23
		c3.48-4.18,1.36-7.92,0-11.66C322.17,329.29,322.17,333.02,322.17,337.23z"/>
	<path d="M227,1c0.7,1.29,0.58,2.02-1.16,1.99c-3.58-0.06-7.16-0.02-10.89-0.02C215.86,1,218.39,3.11,219,1C221.67,1,224.33,1,227,1
		z"/>
	<path d="M147.03,106.79c-2.73,3.68-4.59,8-8.1,11.11c-0.59,0.08-1.18,0.16-1.77,0.24c-0.02-5.52-1.99-11.14,1.38-16.49
		c1.12-1.78,2.41-4.32-1-5.86c-1.16-0.52-1.94-1.63-0.84-3.26c1.18-1.75,1.51-4.24,2.97-5.58c4.99-4.6,5.84-10.18,5.42-16.55
		c-0.7-10.81,3.39-20.54,7.95-29.99c1.45-3,3.95-5.55,6.1-8.22C167.57,21.7,179.7,17.05,191,11.05c0.89-0.47,1.67-1.09,3.14-0.62
		c2.11,0.68,2.21,0.15,3.75-2.22c0.44-0.68,1.68-1,2.62-1.16c6.09-1.06,12.2-2.07,18.31-3c1.43-0.22,3.22-0.41,3.41,1.75
		c0.24,2.68-2.93-0.12-3.27,2.18c12.33,0.15,24.72-0.79,37.07,2.82c-3.24,2.81-6.65,0.34-9.51-0.06
		c-12.76-1.79-25.31-0.7-37.87,1.38c-2.98,0.49-5.5,1.6-9.09,0.47c-2.95-0.93-7.2,2.11-10.83,3.49c-0.92,0.35-0.86,1.37-0.55,2.15
		c0.12,0.3,0.99,0.66,1.08,0.57c2.22-2.24,5.24,0.75,7.53-1.34c-1.75,3.79-5.92,4.31-8.93,7.17c4.02,0.17,6.26-3.47,9.78-3.7
		c-0.34,2.26-2.73,1.76-3.53,4.45c2.43-1.23,4.37-1.97,6.02-3.12c2.04-1.42,4.3-3.39,6.48-2.98c1.9,0.36,3.45,2.58,5.93,0.73
		c-12.62,11.47-24.79,23.01-37.75,33.7c-4.97,4.1-9.51,8.71-14.19,13.14c-0.58,0.55-2.03,1.07-0.8,2.27
		c1.22,1.19,1.69-0.28,2.28-0.83c6.17-5.77,12.41-11.47,18.37-17.45c1.46-1.46,3.29-2.3,4.8-3.64c1.21-1.07,1.1,1.84,2.7,2.52
		c4.22-4.48,8.64-9.17,13.06-13.86c-0.21,3.58-1.61,6.17-3.92,8.59c-10,10.45-19.6,21.27-28.14,32.97
		c-0.96,1.32-1.97,2.62-1.92,4.39c-3.37,4.03-6.74,8.07-10.11,12.1C152.65,97.46,149.5,101.87,147.03,106.79z"/>
	<path d="M223.38,37.42c5.14-9.41,9.81-19.23,20.19-24.28c0.52-0.25,1.28-0.03,1.98-0.03c-0.29,2.07-2.26,1.8-3.25,2.77
		c-1.09,1.07-4.22,1.07-1.77,3.86c0.21,0.24-0.45,1.62-1.03,2.09c-5.78,4.77-9.3,11.92-16.24,15.46
		C223.29,37.31,223.38,37.42,223.38,37.42z"/>
	<path d="M221.26,46.29c8.64-9.27,16.49-19.39,28.48-24.75C240.04,29.59,230.09,37.34,221.26,46.29z"/>
	<path d="M429.9,598.35"/>
	<path d="M229.97,471.34c0.23-2.87,1.42-1.9,2.73-0.71c1.45,1.32,1.69,3.62,3.75,4.44c1.35-0.64-0.54-1.78,0.22-2.35
		c0.69-0.51,0.95,0.24,1.36,0.8c3.7,4.94,7.54,9.76,11.21,14.73c1.14,1.54-0.08,3.92,1.26,5.77c-3.14-2.86-6.28-5.72-9.42-8.58
		C237.37,480.74,233.67,476.04,229.97,471.34z"/>
	<path d="M134.91,442.6c2.72-0.39,3.83,1.93,5.02,3.47c3.08,3.97,5.96,8.14,8.49,12.48c0.77,1.31-0.8,3.21-0.55,5.16
		c0.95,7.27,1.94,14.47,3.84,21.6c0.91,3.4,0.16,7.25,0.16,11.56c-3.95-6.33-3.43-13.14-4.79-19.45c-1.03-4.77-1.59-9.64-2.27-14.48
		c-0.69-4.89-5.28-7.41-7-11.79c-1.13-2.87-2.84-5.47-2.75-8.71L134.91,442.6z"/>
	<path d="M135.06,442.45c-1.02-0.05-2.01-0.1-2.01-1.53c0-12.61,0.01-25.22,6.18-36.8c0.11-0.21,0.51-0.28,1.41-0.73
		c-1.84,5.65-3.94,11-2.72,16.49c1.78,8.03-3.04,15.01-3.01,22.71C134.91,442.6,135.06,442.45,135.06,442.45z"/>
	<path d="M130.81,379.94c2.16-2.15,2.15-5.13,5.07-6.03c0.09,3.29-2.43,5.26-3.7,7.71c-0.9,1.73-2.43,0.63-2.94-0.68
		c-1.53-3.94-2.85-7.96-4.25-11.94c0.4-0.15,0.79-0.3,1.19-0.45C127.66,372.19,129.14,375.83,130.81,379.94z"/>
	<path d="M268.97,453.36c-2.87-6.16-7.97-10.78-11.83-16.96c4.47,1.35,5.29,5.77,8.7,8.06c-0.33-3.98-3.61-6.17-5.17-10.19
		c4.13,2.49,4.55,6.89,7.75,8.87c0.59-0.51,0.67-1.04,0.14-1.62c-5.36-5.85-3.66-13.88-6.29-20.68c-2.72-7.03-3.53-14.8-5.12-22.25
		c-0.06-0.26,0.5-0.65,1.88-2.34c0.46,22.06,12.58,38.22,22.32,55.36c-0.44,0.23-0.88,0.45-1.32,0.68
		c-3.46-5.73-6.92-11.46-10.38-17.19c0.44,7.18,5.41,12.73,6.57,19.76c1.17,7.09,6.67,12.25,10.99,18.99
		c-1.7-0.76-2.42-1.09-3.14-1.41C279.04,466.09,274,459.73,268.97,453.36z"/>
	<path d="M263.08,456.48c0.78,0.9-2.26,2.4,0.41,2.93c1.1,0.22,1.95,0.67,2.29,1.61c0.66,1.86-1.74,0.13-1.62,1.22
		c0.24,2.2,2.74,2.8,3.46,4.58c0.26,0.65,2.03,1.62,0.18,2.64c-1.21,0.67-2.15,1.31-3.38-0.14c-6.28-7.38-12.65-14.68-18.96-22.04
		c-0.26-0.3-0.21-0.85-0.42-1.85c3.01,0.91,4.61,4.01,8,3.21c-6.39-10.63-13.66-21.21-14.06-34.42c2.23,9.83,7.22,18.44,11.88,27.24
		c1.07,2.01,3.16,1.46,4.17,2.91C255.57,449.83,260.18,452.58,263.08,456.48z"/>
	<path d="M214.31,409.31c6.23,20.07,18.02,37.02,30.45,53.61C230.07,447.6,218.72,430.41,214.31,409.31z"/>
	<path d="M264.13,527.98c-4.9-19.79-11.72-39.09-15.64-59.12C254.4,488.39,261.05,507.73,264.13,527.98z"/>
	<path d="M268.97,453.36c5.04,6.36,10.07,12.73,15.11,19.09c-3.42,2.31-3.41-2.75-5.8-2.7c-0.01-0.01,0.11,0.11,0.11,0.11
		c-2.85-5.77-7.86-9.9-11.52-15.06c-2.82-3.96-5.81-7.8-8.41-11.91C262.91,445.55,264.58,450.75,268.97,453.36z"/>
	<path d="M263.08,456.48c-2.9-3.89-7.51-6.65-8.05-12.1c6.7,5.34,11.2,12.64,16.82,18.93c2.07,2.32,4.04,4.66,6.53,6.56
		c0.01,0.01-0.11-0.12-0.11-0.11c-0.69,2.45,2.57,2.74,2.62,5.46c-5.82-4.15-9.35-9.87-13.77-14.69
		C265.83,459.11,264.8,457.47,263.08,456.48z"/>
	<path d="M231.21,439.42c7.85,5.42,13.39,12.18,18.88,19.83C243.56,456.76,234.43,447.08,231.21,439.42z"/>
	<path d="M292.06,416.74c1.4,3.61,2.8,7.23,4.2,10.84c-3.67-2.63-4.08-6.62-5.29-10.26C291.33,417.12,291.7,416.93,292.06,416.74z"
		/>
	<path d="M137.2,265.66c0.7-2.51,0.65-4.2,1.47-4.98c7.64-7.31,14.3-15.64,22.87-21.96c0.51-0.38,1.12-0.92,1.66-0.9
		c1.2,0.05,2.93-0.85,3.49,0.72c0.45,1.26-1.15,1.6-2.03,2.3C155.37,248.26,145.65,255.23,137.2,265.66z"/>
	<path d="M175.81,211.49c-6,3.3-14.12,3.39-16.46,11.82c-2.35-2.12-1.98-5.41-3.13-8.56c2.68,3.92,5.02,1.74,7.34,0.16
		C167.22,212.43,171.3,211.31,175.81,211.49z"/>
	<path d="M200.26,243.32c2.2,6.39,2.26,12.78,0,19.17C200.26,256.1,200.26,249.71,200.26,243.32z"/>
	<path d="M166.33,255.76c4.64-1.94,9.16-4.24,14.27-4.62C176.29,254.09,171.07,254.24,166.33,255.76z"/>
	<path d="M252.39,139.57c1.7-4.32,4.52-4.13,6.56-5.21c6.9-3.63,14.29-4.66,21.95-4.5c1.29,0.03,2.6,0.33,2.82,1.54
		c0.43,2.33-0.7,4.46-1.83,6.39c-0.9,1.52-1.35-0.59-2.07-0.59C271.02,137.22,262.08,134.26,252.39,139.57z"/>
	<path d="M274.86,144.37c-4.6,2.03-8.51,0.5-12.37-1.33c0.08-0.42,0.16-0.84,0.25-1.27C266.78,142.64,270.82,143.51,274.86,144.37z"
		/>
	<path d="M271.53,117.29c3.14-3.63,5.94-4.54,9.94-1.11C278.06,116.89,275.44,118.51,271.53,117.29z"/>
	<path d="M289.08,107.14c2.4,4.87-0.6,9.42-5.95,10.54C285.3,114.39,289.19,112.57,289.08,107.14z"/>
	<path d="M165.72,602.99c-11.54-26.89-12.91-55.92-19.33-83.88c0.58-0.13,1.16-0.27,1.73-0.4c0.95,4.62,1.96,9.22,2.84,13.86
		c1.07,5.6,0.51,12.18,3.34,16.62c5.79,9.07,3.76,19.66,7.56,29.12c1.85,4.6,1.11,10.98,2.13,16.49
		C164.5,597.53,165.14,600.25,165.72,602.99z"/>
	<path d="M164.67,524.78c3.25-4.62,2.23-10.59,5.05-15.36c-0.38,8.6-2.88,16.71-5.72,24.77c-1.02-3.34,1.72-6.28,0.81-9.56
		C164.81,524.64,164.67,524.78,164.67,524.78z"/>
	<path d="M166.97,544c1.93-7.36,3.6-13.73,5.34-20.38C173.63,527.49,170.62,539.81,166.97,544z"/>
	<path d="M102.2,356.32c-1.35-3.05-3.94-5.78-2.45-10.54C101.43,349.74,103.4,352.63,102.2,356.32z"/>
</g>
</svg>
