<svg width="410" height="597" viewBox="0 0 410 597" fill="none" xmlns="http://www.w3.org/2000/svg">
<path d="M0.567139 581.735C4.96216 543.161 53.5907 532.241 69.753 569.397C69.0441 555.782 71.3125 531.815 85.9153 525.575C98.3914 520.186 112.711 530.823 113.419 543.87C113.419 529.263 113.703 517.634 131.283 516.499C146.028 515.506 159.638 525.575 165.451 538.623C159.496 514.23 147.02 486.15 177.643 471.685C209.401 456.794 243.426 477.499 254.201 498.772C251.224 487.285 247.821 477.783 264.409 470.267C273.908 466.012 292.906 466.012 299.711 475.514C292.764 452.965 342.385 446.725 345.787 470.267C344.937 458.354 349.048 450.838 355.428 447.009C355.57 441.194 358.122 436.089 363.793 437.507C362.517 416.518 403.206 410.703 400.512 430.416C406.75 400.634 467.855 422.9 450.275 446.725C473.384 425.736 500.605 485.583 470.407 491.823C505.284 497.495 516.484 565.568 480.331 576.346C507.268 632.506 412.989 664.131 374.709 641.582C355.853 667.818 315.022 674.058 285.108 674.342C266.252 674.484 228.115 676.753 216.773 657.607C198.059 693.771 109.024 684.694 88.7507 652.36C85.3481 669.945 43.2412 652.644 34.8765 648.106C10.2078 634.633 -2.69366 609.531 0.567139 581.735Z" fill="#FEFEFE"/>
<path d="M0.567108 581.735C0.567108 581.735 0.567108 582.586 0.425323 584.004C0.425323 584.713 0.283539 585.706 0.141785 586.84C0.141785 587.975 0.141785 589.393 0.141785 590.811C0.141785 591.52 0.141785 592.371 0.141785 593.222C0.141785 594.073 0.283539 594.924 0.283539 595.917C0.283539 596.91 0.425354 597.902 0.567108 598.895C0.708893 599.888 0.850647 601.022 0.992432 602.157C1.84308 606.553 3.11905 611.659 5.52921 617.048C7.93939 622.437 11.3419 628.251 16.304 633.64C21.1244 639.029 27.3624 644.135 35.0182 648.247C38.8462 650.233 42.9576 651.935 47.2108 653.637C51.4641 655.338 56.0009 656.757 60.8212 658.033C65.6415 659.309 70.6036 660.302 75.8492 660.302C77.1252 660.302 78.543 660.16 79.8189 660.018C80.5278 659.876 81.0949 659.735 81.8038 659.593C82.5126 659.309 83.0797 659.167 83.7886 658.884C85.0646 658.317 86.3405 657.466 87.3329 656.331L87.9001 655.48C88.0418 655.338 88.1836 655.055 88.1836 654.913C88.4672 654.487 88.6089 654.062 88.6089 653.637V653.353L88.7507 653.495L89.0343 653.92L89.6013 654.771L89.8849 655.197L90.0267 655.338L90.1684 655.622L91.1609 656.757L92.1533 657.891C92.4368 658.316 92.8622 658.6 93.2875 659.026C93.9964 659.735 94.847 660.586 95.5559 661.153C98.8167 663.989 102.361 666.258 106.189 668.386C110.017 670.513 114.128 672.215 118.382 673.916C122.635 675.476 127.03 676.753 131.567 677.887C136.103 678.88 140.782 679.873 145.602 680.44C148.012 680.724 150.423 680.865 152.833 681.149C155.243 681.291 157.795 681.433 160.205 681.433C162.757 681.433 165.167 681.433 167.719 681.291C170.271 681.149 172.823 681.007 175.375 680.582C180.479 680.015 185.583 679.022 190.686 677.32C195.79 675.76 200.752 673.633 205.289 670.513C205.856 670.087 206.423 669.804 206.99 669.378L208.55 668.102C209.117 667.676 209.684 667.251 210.109 666.826L211.527 665.266C211.953 664.698 212.52 664.273 212.945 663.706L214.221 662.004C215.355 660.586 215.355 660.444 215.78 659.876L216.064 659.451C216.206 659.593 216.206 659.735 216.348 659.735C216.489 660.018 216.631 660.16 216.773 660.444L217.34 661.011L218.049 661.862L218.758 662.713L219.608 663.422C221.735 665.407 224.287 666.967 226.839 668.244C232.085 670.796 237.755 672.356 243.426 673.349C254.91 675.335 266.819 675.335 278.728 675.193C284.683 675.193 290.779 675.051 296.875 674.767C302.972 674.342 309.21 673.775 315.306 672.782C327.64 670.796 340.258 667.535 351.884 661.436C357.697 658.458 363.367 654.629 368.188 650.091C368.755 649.524 369.464 648.957 370.031 648.247C370.598 647.68 371.165 647.113 371.732 646.404L373.433 644.418L374.284 643.426C374.284 643.426 374.284 643.426 374.426 643.284H374.568L374.851 643.426L376.978 644.418C378.537 645.127 380.097 645.837 381.798 646.262C388.32 648.531 395.125 649.524 402.072 649.807C408.877 650.091 415.824 649.666 422.771 648.531C429.576 647.397 436.381 645.695 443.045 643.284C449.708 640.873 456.088 637.753 462.184 633.924C468.139 629.953 473.81 625.131 478.346 619.317C480.615 616.339 482.458 613.077 483.876 609.673C485.293 606.27 486.286 602.44 486.711 598.753C487.136 594.924 486.995 591.095 486.286 587.408C486.002 585.564 485.435 583.721 484.868 581.877C484.585 581.026 484.301 580.033 484.017 579.182L483.45 577.906L483.167 577.197V577.055L483.025 576.913C483.025 576.913 482.883 576.771 483.025 576.771H483.167L483.876 576.488C485.577 575.637 487.42 574.786 488.98 573.651C492.24 571.524 495.076 568.688 497.344 565.426C499.613 562.164 501.172 558.619 502.306 554.932C502.873 553.088 503.299 551.244 503.724 549.259C504.008 547.415 504.291 545.43 504.433 543.586C505 535.928 504.008 528.128 501.739 520.754C500.605 517.066 499.187 513.521 497.344 509.975C495.501 506.572 493.233 503.31 490.681 500.332C488.129 497.354 485.01 494.659 481.465 492.674C480.615 492.106 479.764 491.681 478.772 491.256L477.354 490.546L477.496 490.405C478.488 489.837 479.339 488.987 480.331 488.136C480.757 487.71 481.182 487.285 481.465 486.717C481.891 486.292 482.174 485.725 482.458 485.299L483.45 483.739L484.159 482.037C484.301 481.754 484.443 481.47 484.443 481.187L484.726 480.336C484.868 479.768 485.01 479.201 485.152 478.634C485.293 477.499 485.577 476.365 485.577 475.088C485.577 474.521 485.719 473.954 485.719 473.387V471.685C485.577 467.005 484.301 462.467 482.6 458.212C480.898 453.958 478.346 449.987 475.086 446.441C474.235 445.449 473.384 444.739 472.392 443.889C471.967 443.463 471.4 443.179 470.974 442.754C470.549 442.329 469.982 442.045 469.415 441.761C468.848 441.478 468.422 441.052 467.713 440.769L466.012 440.059C465.445 439.776 464.736 439.634 464.169 439.492C463.602 439.35 462.893 439.209 462.184 439.067C460.908 438.783 459.49 438.925 458.214 439.067L456.23 439.492L455.804 439.634C455.663 439.634 455.663 439.634 455.663 439.634L455.379 439.776C454.954 439.918 455.095 439.918 455.095 439.918V439.776V439.634V439.492V439.067C455.095 438.074 455.379 437.081 455.237 436.089C454.954 432.118 453.111 428.43 450.842 425.736C448.432 422.9 445.597 420.772 442.619 418.929C439.642 417.085 436.381 415.809 432.979 414.816C429.718 413.823 426.174 413.114 422.771 412.972C419.227 412.831 415.682 412.972 412.28 413.965C408.877 414.958 405.474 416.66 402.781 419.354C400.087 422.049 398.528 425.594 397.677 428.998C399.236 429.281 400.796 429.565 402.355 429.849L402.497 427.863C402.497 427.154 402.355 426.445 402.355 425.736C402.214 425.027 402.072 424.318 401.788 423.609C401.505 422.9 401.221 422.19 400.796 421.623C399.236 419.07 396.826 417.369 394.416 416.376C391.864 415.383 389.312 415.1 386.902 415.1C384.35 415.1 381.94 415.383 379.53 415.95C374.709 417.085 370.173 419.354 366.487 422.9C364.643 424.601 363.084 426.87 362.233 429.281C361.95 429.849 361.808 430.558 361.666 431.125C361.524 431.692 361.241 432.401 361.241 432.969L361.099 433.961C361.099 434.245 361.099 434.103 361.099 434.103C361.099 434.103 361.099 434.103 361.241 434.103L360.39 434.245C359.114 434.387 357.98 434.954 356.988 435.805C355.995 436.514 355.286 437.507 354.719 438.499C354.152 439.492 353.869 440.485 353.585 441.478C353.302 442.47 353.16 443.463 353.018 444.456L352.876 445.165C352.876 445.023 352.876 445.165 352.876 445.165L352.734 445.307C352.734 445.307 352.734 445.307 352.593 445.449L352.026 445.874C351.6 446.158 351.317 446.441 350.891 446.867C350.182 447.434 349.474 448.143 348.907 448.994C346.355 451.972 344.795 455.518 344.086 459.205C343.236 462.892 343.094 466.438 343.377 469.983C344.937 469.841 346.355 469.699 347.772 469.558C347.347 466.438 346.071 463.318 343.944 460.907C341.96 458.496 339.266 456.652 336.572 455.376C331.043 452.965 325.088 452.398 319.276 452.965C316.44 453.248 313.605 453.816 310.769 454.809C308.076 455.801 305.382 457.078 302.972 458.921C300.561 460.765 298.577 463.318 297.584 466.296C297.301 467.005 297.159 467.856 297.017 468.565C297.017 468.848 297.017 468.848 297.017 468.848V468.99V469.274C297.017 469.416 297.017 469.557 297.159 469.841C297.017 469.699 296.875 469.557 296.734 469.416L296.592 469.274L296.166 468.99C296.025 468.848 295.741 468.707 295.599 468.707C294.891 468.281 294.04 467.856 293.331 467.572C290.212 466.296 286.951 465.587 283.832 465.161C280.571 464.878 277.452 464.878 274.191 465.161C271.072 465.445 267.812 466.154 264.834 467.288L263.7 467.714C263.275 467.856 262.991 467.998 262.566 468.281L260.439 469.274L258.313 470.55C257.604 470.976 257.037 471.543 256.328 471.968C253.776 473.954 251.366 476.648 250.373 480.052C249.381 483.314 249.523 486.717 250.09 489.837C250.657 492.957 251.508 495.794 252.216 498.63C253.492 498.205 254.627 497.779 255.761 497.212C252.075 490.263 246.829 484.307 241.016 479.485C235.204 474.663 228.54 470.834 221.593 468.281C214.646 465.587 207.274 464.168 200.044 464.31C196.357 464.31 192.813 464.736 189.269 465.445C185.724 466.154 182.322 467.288 179.061 468.565C175.8 469.983 172.681 471.543 169.704 473.67C166.868 475.656 164.175 478.208 162.048 481.045C159.921 483.881 158.362 487.143 157.369 490.546C156.377 493.95 156.093 497.354 156.093 500.757C156.093 507.565 157.511 513.946 159.071 520.186C160.63 526.426 162.473 532.383 163.891 538.339C164.742 538.055 165.592 537.772 166.443 537.488C163.324 530.539 158.078 524.724 152.124 520.612C146.028 516.499 138.797 514.372 131.85 514.655C128.447 514.797 124.903 515.365 121.642 516.925C118.382 518.343 115.688 521.037 114.412 524.299C112.994 527.419 112.569 530.823 112.285 533.943C112.002 537.204 112.002 540.324 112.002 543.303C112.711 543.303 113.419 543.303 113.987 543.303C113.703 538.764 112.002 534.51 109.166 531.248C106.472 527.986 102.928 525.292 99.1003 524.015C95.2723 522.597 90.8773 522.455 87.1912 523.732C83.3633 524.866 80.1025 527.277 77.6923 530.255C75.2822 533.092 73.5808 536.495 72.4467 539.757C71.1707 543.019 70.4618 546.423 69.753 549.826C68.6187 556.492 68.3352 563.015 68.7605 569.113C69.1859 568.971 69.4694 568.972 69.8947 568.83C66.6339 561.597 61.8136 555.215 55.7173 551.386C49.7628 547.415 43.0994 545.713 37.0031 545.855C30.9068 545.855 25.2358 547.557 20.699 549.968C16.1623 552.379 12.4762 555.499 9.78244 558.619C7.08875 561.739 5.10388 564.859 3.82791 567.837C3.40259 568.546 3.2608 569.255 2.97726 569.964C2.6937 570.673 2.41016 571.241 2.26837 571.95C1.84305 573.226 1.41776 574.361 1.276 575.353C0.992432 576.346 0.850647 577.339 0.708862 578.048C0.567078 578.899 0.567108 579.466 0.425323 580.033C0.567108 581.168 0.567108 581.735 0.567108 581.735C0.567108 581.735 0.708862 581.168 0.850647 580.175C0.992401 579.608 0.992432 579.041 1.13422 578.19C1.27597 577.481 1.55954 576.488 1.84308 575.495C2.12662 574.502 2.55191 573.368 2.83548 572.091C2.97723 571.524 3.2608 570.815 3.54434 570.248C3.82788 569.539 4.11145 568.83 4.39499 568.121C5.67096 565.284 7.65582 562.164 10.3495 559.044C13.0432 555.924 16.5876 552.946 21.2661 550.677C25.8029 548.408 31.3321 546.706 37.2867 546.848C43.2412 546.848 49.7628 548.55 55.5755 552.521C61.3883 556.35 66.0668 562.448 69.1859 569.681L70.4618 572.517L70.32 569.539C70.0365 563.441 70.3201 557.059 71.4543 550.535C72.0214 547.273 72.872 544.012 74.1479 540.75C75.4239 537.488 76.9835 534.368 79.2519 531.674C81.5202 528.979 84.4975 526.852 88.0418 525.717C91.4444 524.583 95.4141 524.866 98.9585 526.143C102.503 527.419 105.764 529.83 108.174 532.808C110.726 535.928 112.143 539.757 112.427 543.87H114.412C114.412 540.75 114.412 537.772 114.695 534.652C114.979 531.532 115.404 528.554 116.68 525.717C117.956 523.023 120.083 520.754 122.918 519.477C125.754 518.201 129.015 517.775 132.134 517.492C138.655 517.208 145.319 519.335 150.848 523.164C156.519 526.994 161.197 532.524 164.175 539.048L166.727 538.197C165.309 532.099 163.466 526.143 162.048 519.903C160.63 513.805 159.354 507.423 159.354 501.183C159.354 494.943 160.914 488.419 164.884 483.456C168.711 478.35 174.524 474.805 180.62 472.252C183.739 470.976 187 469.983 190.261 469.274C193.522 468.565 196.924 468.281 200.327 468.281C207.132 468.281 214.079 469.699 220.601 472.252C227.122 474.805 233.36 478.492 238.89 483.03C244.419 487.568 249.239 493.241 252.5 499.623L260.156 514.372L256.044 498.205C255.335 495.368 254.485 492.532 254.06 489.696C253.634 486.859 253.492 484.165 254.201 481.754C254.91 479.343 256.611 477.357 258.88 475.656C259.447 475.23 260.014 474.805 260.581 474.521L262.424 473.387L264.409 472.394C264.693 472.252 265.118 472.11 265.401 471.968L266.394 471.543C268.946 470.55 271.923 469.983 274.759 469.699C277.594 469.416 280.571 469.416 283.549 469.699C286.384 469.983 289.361 470.692 291.913 471.827C292.622 472.11 293.189 472.394 293.756 472.819C293.898 472.819 294.04 472.961 294.182 473.103L294.465 473.245C294.607 473.245 294.607 473.245 294.749 473.387L296.592 474.805L296.875 474.947L297.159 475.23L297.726 475.797L298.718 476.932L300.703 479.343L304.248 483.456L303.113 478.776L301.837 473.245L301.696 471.401V470.408C301.696 470.125 301.696 469.699 301.696 469.699C301.837 469.132 301.837 468.565 302.121 468.139C302.83 466.012 304.389 464.168 306.232 462.75C310.06 459.772 315.164 458.212 320.268 457.645C325.372 457.078 330.759 457.645 335.296 459.772C337.565 460.765 339.691 462.183 341.109 464.027C342.668 465.87 343.519 468.139 343.944 470.55L348.339 470.125C348.198 466.863 348.198 463.601 348.907 460.623C349.615 457.645 350.891 454.667 352.876 452.398C353.302 451.83 353.869 451.263 354.436 450.838C354.719 450.554 355.003 450.27 355.286 450.129L355.712 449.845C355.712 449.845 355.995 449.703 356.137 449.561L356.562 449.278C357.129 448.852 358.122 448.569 357.838 447.576V446.299V445.732C357.98 445.023 358.122 444.314 358.264 443.605C358.405 442.896 358.689 442.329 358.972 441.761C359.256 441.194 359.681 440.769 360.107 440.485C360.532 440.201 360.957 440.059 361.383 439.918H361.808C362.233 439.918 362.375 439.918 362.517 440.059L363.226 440.201C364.218 440.343 365.069 440.485 365.919 440.627V437.365C365.919 437.081 365.919 436.798 365.919 436.514C365.919 436.23 365.919 435.805 365.919 435.805L366.061 435.096C366.061 434.67 366.203 434.103 366.345 433.678C366.487 433.252 366.628 432.827 366.77 432.401C367.479 430.7 368.613 428.998 370.031 427.58C372.866 424.743 376.836 422.9 380.806 421.907C384.917 420.914 389.312 420.914 392.998 422.19C394.841 422.9 396.259 424.034 397.11 425.452C397.96 426.87 398.244 428.714 397.96 430.7L402.639 431.55C403.206 428.714 404.482 426.161 406.467 424.176C408.452 422.19 411.004 420.772 413.839 420.063C419.51 418.503 426.032 419.212 431.986 420.914C434.964 421.765 437.799 423.041 440.493 424.601C443.186 426.161 445.597 428.147 447.581 430.416C449.424 432.685 450.7 435.379 450.842 438.074C450.984 438.783 450.842 439.35 450.7 440.059V440.343V440.485L450.559 440.769L449.992 442.045L448.999 444.456L448.857 444.739L448.574 445.165L448.007 446.158L446.731 448.001L444.321 451.83L440.351 458.07L447.723 452.256L452.118 448.852L453.252 448.001C453.394 448.001 453.394 447.859 453.536 447.859L453.678 447.718L453.961 447.576L455.379 446.867L456.797 446.158L457.08 446.016C457.222 446.016 457.364 445.874 457.364 445.874H457.647L459.065 445.59C459.916 445.59 460.908 445.449 461.759 445.59C462.184 445.59 462.61 445.732 463.177 445.874C463.602 446.016 464.027 446.158 464.594 446.299L465.87 446.867C466.296 447.009 466.721 447.292 467.146 447.576C467.572 447.859 467.997 448.143 468.422 448.427L469.698 449.278C470.407 449.987 471.258 450.554 471.967 451.405C474.802 454.383 476.929 457.928 478.488 461.758C480.048 465.587 481.182 469.557 481.324 473.528V474.947L481.182 476.365C481.182 477.357 480.898 478.208 480.757 479.201C480.615 479.627 480.473 480.052 480.331 480.619L480.19 481.328C480.048 481.612 480.048 481.754 479.906 481.896L479.339 483.172L478.63 484.307C478.488 484.732 478.205 485.016 477.921 485.441C477.638 485.725 477.354 486.15 477.07 486.434C476.362 487.001 475.795 487.71 475.086 487.994L474.944 488.136L474.519 488.277L473.81 488.703L473.101 489.128L472.675 489.27L472.108 489.412C470.691 489.837 469.415 490.263 467.997 490.688L465.87 491.256L464.027 491.823C462.751 492.106 461.617 492.532 460.341 492.816L466.296 494.092C468.28 494.517 470.407 495.085 472.392 495.652L473.951 496.077L474.66 496.219L475.086 496.361C475.227 496.361 475.369 496.361 475.369 496.503L476.645 497.07C477.496 497.496 478.346 497.779 479.055 498.346C482.033 500.048 484.868 502.317 487.136 505.012C489.547 507.706 491.531 510.685 493.233 513.805C494.934 516.924 496.21 520.328 497.344 523.732C499.471 530.539 500.321 537.772 499.896 544.863C499.754 546.564 499.471 548.408 499.329 550.11C498.904 551.812 498.62 553.513 498.053 555.215C497.061 558.477 495.643 561.739 493.658 564.433C491.673 567.27 489.263 569.681 486.569 571.524C485.152 572.517 483.734 573.226 482.174 573.935L477.921 575.495L477.354 575.779C477.212 575.779 477.07 575.779 477.07 575.921L477.212 576.204L477.779 577.339L478.772 579.608L479.339 580.742L479.622 581.31L480.048 582.586C480.331 583.437 480.615 584.146 480.898 584.997C481.465 586.699 481.891 588.259 482.174 589.96C482.741 593.364 483.025 596.768 482.6 600.03C482.033 606.695 479.197 613.077 475.227 618.466C471.116 623.855 466.012 628.393 460.341 632.08C454.67 635.768 448.574 638.746 442.194 641.157C435.814 643.426 429.293 645.269 422.771 646.262C416.249 647.397 409.586 647.822 402.923 647.538C396.401 647.255 389.879 646.262 383.783 644.277C382.223 643.709 380.806 643.142 379.388 642.575L378.254 642.008L377.687 641.724C377.545 641.582 377.403 641.582 376.978 641.298L374.993 640.164L374.001 639.597C373.717 639.738 373.575 640.164 373.292 640.448L371.165 643.284L369.606 645.127C369.038 645.695 368.471 646.262 368.046 646.829C367.479 647.397 366.912 647.964 366.345 648.531C361.808 652.927 356.562 656.473 351.033 659.451C339.833 665.266 327.64 668.527 315.59 670.655C309.493 671.647 303.539 672.356 297.442 672.782C291.346 673.207 285.392 673.349 279.437 673.349C267.528 673.633 255.903 673.633 244.702 671.789C239.173 670.796 233.786 669.378 228.824 667.109C226.414 665.975 224.145 664.415 222.16 662.713L221.451 662.004L220.743 661.295L220.034 660.586L219.75 660.16L219.325 659.451L218.332 658.033L217.482 656.757C217.198 656.331 216.915 655.906 216.631 655.48L215.78 656.898C214.788 658.6 213.512 660.869 212.803 661.578L211.669 663.138C211.244 663.706 210.818 664.131 210.393 664.556L208.975 665.975C208.55 666.4 207.983 666.826 207.416 667.251L205.856 668.527C205.289 668.953 204.722 669.236 204.297 669.662C200.044 672.498 195.223 674.625 190.403 676.185C185.583 677.745 180.479 678.738 175.517 679.447C173.106 679.873 170.554 680.015 168.144 680.156C165.734 680.298 163.182 680.44 160.772 680.298C158.362 680.298 155.952 680.156 153.542 680.156C151.131 680.015 148.721 679.873 146.453 679.447C141.774 678.88 137.096 678.029 132.701 677.036C128.164 676.044 123.911 674.767 119.658 673.207C115.546 671.647 111.435 669.946 107.748 667.96C104.062 665.833 100.376 663.706 97.2571 661.011C96.4065 660.444 95.6976 659.593 94.9888 658.884C94.5634 658.6 94.2799 658.175 93.8546 657.891L92.8622 656.757L91.8698 655.622L91.728 655.48L91.5862 655.197C91.4444 655.055 91.4444 654.913 91.3027 654.771L90.7355 653.92L89.6013 652.218L89.0343 651.367C88.8925 651.226 88.8925 651.084 88.7507 651.084H88.6089L88.1836 652.502C88.0418 652.927 87.9001 653.495 87.6165 653.92C87.4747 654.346 87.333 654.913 87.0494 655.197C86.9077 655.48 86.7659 655.48 86.7659 655.622L86.4823 656.047C85.6317 656.898 84.6393 657.749 83.5051 658.175C81.2367 659.167 78.543 659.451 76.1328 659.451C71.0289 659.451 66.0668 658.458 61.3883 657.324C56.7097 656.189 52.1729 654.629 47.9197 653.069C43.6665 651.509 39.555 649.807 35.7271 647.822C28.2131 643.851 21.975 638.888 17.1547 633.498C12.3344 628.109 8.78998 622.579 6.37982 617.189C3.96967 611.8 2.55194 606.837 1.70129 602.44C1.55951 601.306 1.41776 600.313 1.276 599.179C1.13422 598.186 0.992401 597.193 0.850647 596.2C0.850647 595.208 0.708862 594.357 0.708862 593.506C0.708862 592.655 0.567108 591.804 0.567108 591.095C0.567108 589.535 0.567108 588.259 0.567108 587.124C0.708893 585.99 0.708862 584.997 0.708862 584.288C0.425323 582.444 0.567108 581.735 0.567108 581.735Z" fill="black"/>
<path d="M243.568 535.503C243.568 535.503 243.71 534.652 243.852 533.092C244.135 531.674 244.419 529.405 245.553 527.135C246.546 524.866 248.247 522.314 250.799 520.328C253.351 518.343 256.611 517.066 260.298 516.357C267.67 515.223 274.9 517.066 279.437 519.477C281.706 520.754 283.407 522.03 284.541 523.023C285.108 523.448 285.533 523.874 285.817 524.157C286.101 524.441 286.242 524.583 286.242 524.583C286.242 524.583 286.101 524.441 285.959 524.015C285.817 523.732 285.533 523.165 285.108 522.455C284.257 521.179 282.84 519.335 280.713 517.492C278.587 515.648 275.609 513.805 271.923 512.67C268.237 511.394 263.984 510.968 259.447 511.677C255.052 512.386 250.799 514.372 247.963 517.35C246.546 518.768 245.411 520.328 244.702 521.888C243.852 523.448 243.426 525.008 243.143 526.426C242.576 529.263 242.859 531.532 243.001 533.092C243.285 534.652 243.568 535.503 243.568 535.503Z" fill="black"/>
<path d="M217.907 523.732C217.907 523.732 218.191 523.164 218.758 522.172C219.325 521.179 220.175 519.903 221.451 518.485C222.727 517.066 224.287 515.648 226.272 514.514C228.257 513.379 230.667 512.528 233.219 512.103C238.464 511.252 243.426 512.245 246.829 513.805C248.53 514.655 249.806 515.506 250.657 516.074C251.082 516.357 251.366 516.641 251.649 516.925C251.933 517.066 251.933 517.208 251.933 517.208C251.933 517.208 251.933 517.066 251.791 516.783C251.649 516.499 251.508 516.074 251.224 515.648C250.657 514.655 249.665 513.237 248.105 511.819C246.546 510.401 244.419 508.983 241.725 508.132C239.031 507.281 235.771 506.855 232.51 507.423C229.249 507.99 226.13 509.408 224.003 511.252C221.735 513.095 220.317 515.365 219.467 517.208C218.616 519.194 218.332 520.754 218.191 521.888C217.907 523.023 217.907 523.732 217.907 523.732Z" fill="black"/>
<path d="M194.514 569.539C194.514 569.539 194.231 568.546 193.805 566.844C193.522 565.142 192.955 562.732 193.097 559.753C193.238 559.044 193.238 558.193 193.38 557.484C193.522 557.059 193.522 556.633 193.664 556.35C193.805 555.924 193.947 555.499 194.089 555.073C194.231 554.222 194.656 553.513 194.94 552.663C195.365 551.812 195.79 550.961 196.216 550.252C196.641 549.401 197.35 548.692 197.917 547.841C198.626 547.132 199.193 546.281 200.043 545.713C201.603 544.295 203.304 543.019 205.147 541.884C208.975 539.757 213.087 538.481 216.773 538.197C220.601 537.913 224.003 538.481 226.839 539.615C229.674 540.75 231.659 542.168 233.077 543.303C233.786 543.87 234.211 544.295 234.636 544.579C234.92 544.863 235.204 545.004 235.204 545.004C235.204 545.004 235.062 544.863 234.778 544.437C234.495 544.012 234.211 543.444 233.644 542.735C232.51 541.317 230.809 539.332 227.973 537.488C225.138 535.644 221.31 534.226 216.773 534.084C212.236 533.943 207.274 535.077 202.737 537.63C200.469 538.906 198.484 540.608 196.783 542.31C195.932 543.161 195.223 544.153 194.514 545.146C193.947 546.139 193.238 547.132 192.813 548.124C192.246 549.117 191.962 550.252 191.537 551.244C191.253 552.237 190.97 553.23 190.828 554.222C190.828 554.79 190.686 555.215 190.686 555.641C190.686 556.066 190.686 556.633 190.686 557.059C190.686 557.91 190.828 558.902 190.828 559.753C191.253 563.015 192.388 565.568 193.238 567.128C193.947 568.83 194.514 569.539 194.514 569.539Z" fill="black"/>
<path d="M169.846 573.793C169.846 573.793 169.987 573.226 170.129 572.375C170.271 571.95 170.271 571.382 170.413 570.815C170.554 570.248 170.696 569.539 170.98 568.83C170.98 568.404 171.263 568.121 171.405 567.695C171.547 567.27 171.689 566.986 171.83 566.561C171.972 566.135 172.256 565.852 172.398 565.426C172.681 565.001 172.823 564.575 172.965 564.291C173.957 562.731 175.091 561.313 176.651 560.037C178.21 558.761 179.912 557.768 181.613 556.917C181.755 556.775 182.038 556.775 182.18 556.633C182.322 556.492 182.605 556.492 182.747 556.35C183.172 556.208 183.598 556.066 184.023 555.924C184.874 555.641 185.583 555.357 186.291 555.215C186.717 555.073 187 555.073 187.284 554.932C187.567 554.79 187.993 554.79 188.276 554.79C188.843 554.648 189.41 554.648 189.836 554.506C190.686 554.364 191.254 554.364 191.254 554.364C191.254 554.364 190.828 554.081 189.978 553.797C189.552 553.655 188.985 553.372 188.418 553.23C188.134 553.088 187.709 553.088 187.426 552.946C187 552.946 186.717 552.804 186.291 552.804C185.441 552.662 184.59 552.662 183.598 552.662C183.031 552.662 182.605 552.662 182.038 552.804C181.755 552.804 181.471 552.804 181.188 552.946C180.904 552.946 180.62 553.088 180.337 553.088C179.77 553.23 179.203 553.372 178.636 553.513C178.069 553.655 177.501 553.939 176.934 554.222C176.367 554.506 175.8 554.79 175.233 555.215C174.666 555.499 174.099 556.066 173.674 556.35C171.547 558.052 170.129 560.462 169.42 562.59C169.279 563.157 169.137 563.724 168.995 564.291C168.853 564.859 168.711 565.284 168.711 565.851C168.711 566.419 168.711 566.844 168.711 567.27C168.711 567.695 168.711 568.121 168.711 568.546C168.853 569.397 168.995 570.106 168.995 570.815C169.137 571.382 169.42 571.95 169.562 572.375C169.704 573.368 169.846 573.793 169.846 573.793Z" fill="black"/>
<path d="M350.182 518.343C350.182 518.343 350.608 517.634 351.317 516.215C351.742 515.506 352.309 514.797 352.876 513.946C353.16 513.521 353.585 513.095 353.869 512.67C354.294 512.244 354.719 511.819 355.145 511.252C356.988 509.408 359.398 507.565 362.517 506.572C364.076 506.005 365.778 505.579 367.479 505.437C369.18 505.154 371.023 505.295 372.866 505.437C376.553 505.863 379.955 507.281 382.223 509.266C384.634 511.252 385.768 513.946 385.91 516.357C386.051 518.91 385.484 521.037 385.059 522.455C384.492 523.873 384.208 524.724 384.208 524.724C384.208 524.724 384.775 524.157 385.768 522.881C386.618 521.604 387.894 519.619 388.32 516.641C388.603 515.223 388.462 513.379 388.036 511.677C387.611 509.834 386.477 508.132 385.201 506.572C382.365 503.452 378.112 501.466 373.575 500.899C371.307 500.615 369.038 500.615 366.912 501.041C364.785 501.466 362.8 502.034 360.957 503.026C357.413 504.87 354.861 507.565 353.302 509.975C352.876 510.543 352.593 511.11 352.309 511.819C352.026 512.386 351.742 512.954 351.6 513.521C351.175 514.514 350.891 515.506 350.75 516.215C350.324 517.492 350.182 518.343 350.182 518.343Z" fill="black"/>
<path d="M337.423 503.452C337.423 503.452 337.706 502.885 338.132 502.034C338.557 501.183 339.266 499.906 340.4 498.772C341.534 497.637 342.952 496.503 344.795 495.652C346.638 494.801 348.765 494.376 351.033 494.376C353.302 494.376 355.428 494.801 357.129 495.652C357.98 496.077 358.689 496.645 359.256 497.212C359.823 497.779 360.39 498.488 360.674 499.197C361.383 500.616 361.666 502.034 361.808 502.885C361.95 503.877 361.95 504.445 361.95 504.445C361.95 504.445 362.233 503.877 362.517 503.026C362.8 502.034 363.226 500.474 362.942 498.488C362.8 497.496 362.517 496.361 361.808 495.368C361.241 494.234 360.39 493.241 359.256 492.39C357.129 490.688 354.01 489.554 350.891 489.696C347.772 489.696 344.795 490.688 342.668 492.248C340.4 493.808 338.982 495.794 338.273 497.637C337.423 499.481 337.423 501.041 337.281 502.034C337.281 502.885 337.423 503.452 337.423 503.452Z" fill="black"/>
<path d="M386.477 472.536C386.477 472.536 386.051 471.968 385.201 470.976C384.492 469.983 383.358 468.423 382.649 466.438C382.507 465.87 382.365 465.445 382.223 464.878C382.082 464.31 382.082 463.743 382.082 463.176C382.082 462.041 382.365 460.765 382.791 459.63C383.783 457.219 385.626 454.808 388.036 452.823C390.446 450.838 393.282 449.419 395.834 448.71C398.528 448.001 401.079 448.001 403.206 448.427C405.333 448.852 407.034 449.703 408.168 450.27C409.302 450.979 409.869 451.263 409.869 451.263C409.869 451.263 409.444 450.696 408.594 449.561C407.601 448.569 406.183 447.15 403.915 446.016C401.647 444.881 398.528 444.172 395.125 444.598C391.722 445.023 388.036 446.441 384.917 448.994C381.798 451.547 379.672 454.95 378.821 458.354C378.396 460.056 378.396 461.899 378.679 463.459C378.821 464.168 378.963 465.019 379.388 465.587C379.672 466.296 379.955 466.863 380.38 467.43C381.798 469.558 383.499 470.692 384.634 471.543C385.768 472.11 386.477 472.536 386.477 472.536Z" fill="black"/>
<path d="M351.175 452.256C351.175 452.256 351.742 451.972 352.593 451.405C353.443 450.838 354.861 450.27 356.421 449.419C359.681 448.001 364.218 446.299 369.18 446.016C371.59 445.874 373.859 446.158 375.844 446.867C377.828 447.576 379.388 448.71 380.664 449.845C381.94 450.979 382.791 452.256 383.358 452.965C383.925 453.816 384.208 454.241 384.208 454.241C384.208 454.241 384.208 453.674 384.067 452.681C383.783 451.689 383.499 450.129 382.507 448.285C381.515 446.583 379.955 444.598 377.545 443.179C375.135 441.761 372.016 441.052 368.897 441.194C365.778 441.336 362.942 442.329 360.674 443.463C358.405 444.598 356.562 446.016 355.145 447.292C353.727 448.568 352.734 449.845 352.167 450.696C351.6 451.688 351.175 452.256 351.175 452.256Z" fill="black"/>
<path d="M88.8925 587.691C88.8925 587.691 88.8925 587.55 89.0343 587.124C89.176 586.841 89.176 586.273 89.3178 585.706C89.6013 584.43 90.1685 582.728 91.3027 580.884C93.2875 577.055 97.8243 573.084 103.779 570.815C105.197 570.248 106.756 569.822 108.174 569.539C109.592 569.255 111.009 569.113 112.427 569.113C113.845 569.113 115.121 569.255 116.255 569.539C117.389 569.822 118.523 570.106 119.516 570.673C121.501 571.524 122.918 572.659 123.911 573.51C124.336 573.935 124.761 574.361 124.903 574.502C125.187 574.786 125.329 574.928 125.329 574.928C125.329 574.928 125.329 574.786 125.187 574.502C125.045 574.219 124.903 573.652 124.62 573.084C124.053 571.95 122.918 570.248 120.934 568.688C119.941 567.837 118.807 567.128 117.389 566.561C115.971 565.993 114.554 565.426 112.852 565.284C111.151 565.001 109.45 565.001 107.607 565.142C105.764 565.284 103.921 565.852 102.219 566.419C98.6749 567.837 95.5559 569.964 93.4293 572.517C92.2951 573.793 91.4444 575.07 90.7355 576.346C90.0267 577.622 89.6013 578.899 89.3178 580.175C88.7507 582.586 88.7507 584.571 88.8925 585.848C88.8925 586.557 89.0343 586.982 89.1761 587.408C88.7507 587.55 88.8925 587.691 88.8925 587.691Z" fill="black"/>
<path d="M110.159 567.412C110.159 567.412 110.3 567.27 110.442 566.986C110.584 566.702 110.868 566.277 111.151 565.71C111.718 564.575 112.852 563.157 114.412 561.597C117.389 558.335 122.351 554.932 128.306 552.946C131.283 551.953 134.26 551.528 136.954 551.67C138.23 551.812 139.506 552.095 140.64 552.379C141.774 552.804 142.767 553.23 143.617 553.797C145.319 554.932 146.595 556.35 147.445 557.343C148.154 558.335 148.579 558.903 148.579 558.903C148.579 558.903 148.438 558.193 148.012 556.917C147.587 555.641 146.878 553.797 145.177 551.953C144.326 550.961 143.334 550.11 142.058 549.259C140.782 548.55 139.222 547.841 137.663 547.557C134.402 546.848 130.574 546.99 126.888 548.266C125.045 548.833 123.344 549.684 121.926 550.535C120.366 551.386 119.09 552.379 117.814 553.513C115.404 555.641 113.703 558.052 112.569 560.179C111.435 562.306 110.867 564.15 110.584 565.426C110.442 565.993 110.442 566.561 110.3 566.986C110.159 567.27 110.159 567.412 110.159 567.412Z" fill="black"/>
</svg>
