<svg width="150" height="58" viewBox="0 0 150 58" fill="none" xmlns="http://www.w3.org/2000/svg">
<g clip-path="url(#clip0)">
<path d="M38.7828 36.0702C38.1862 36.0702 37.8282 36.5496 37.8282 37.1488C37.8282 37.7479 38.3055 38.1074 38.9021 38.1074C39.4988 38.1074 39.8568 37.6281 39.8568 37.0289C39.7375 36.4297 39.2601 36.0702 38.7828 36.0702ZM34.7255 36.1901C34.1289 36.1901 33.7709 36.6694 33.7709 37.2686C33.7709 37.8678 34.2482 38.2273 34.8449 38.2273C35.4415 38.2273 35.7995 37.7479 35.7995 37.1488C35.7995 36.5496 35.3222 36.0702 34.7255 36.1901ZM54.6539 35.5909C54.0573 35.5909 53.6993 36.0702 53.6993 36.6694C53.6993 37.2686 54.1766 37.6281 54.7733 37.6281C55.3699 37.6281 55.7279 37.1488 55.7279 36.5496C55.7279 35.9504 55.2506 35.5909 54.6539 35.5909ZM50.716 35.7107C50.1193 35.7107 49.7613 36.1901 49.7613 36.7893C49.7613 37.3884 50.2387 37.7479 50.8353 37.7479C51.432 37.7479 51.79 37.2686 51.79 36.6694C51.6706 36.0702 51.3126 35.7107 50.716 35.7107ZM46.778 35.8306C46.1814 35.8306 45.8234 36.3099 45.8234 36.9091C45.8234 37.5083 46.3007 37.8678 46.8974 37.8678C47.494 37.8678 47.852 37.3884 47.852 36.7893C47.7327 36.1901 47.2554 35.8306 46.778 35.8306ZM26.7303 36.3099C26.1337 36.3099 25.7757 36.7893 25.7757 37.3884C25.7757 37.9876 26.253 38.3471 26.8496 38.3471C27.4463 38.3471 27.8043 37.8678 27.8043 37.2686C27.8043 36.7893 27.327 36.3099 26.7303 36.3099ZM62.6492 35.3512C62.0525 35.3512 61.6945 35.8306 61.6945 36.4297C61.6945 37.0289 62.1718 37.3884 62.7685 37.3884C63.3652 37.3884 63.7232 36.9091 63.7232 36.3099C63.7232 35.8306 63.2458 35.3512 62.6492 35.3512ZM52.7446 38.5868C52.2673 38.5868 51.79 39.0661 51.79 39.5455C51.79 40.0248 52.2673 40.5041 52.7446 40.5041C53.222 40.5041 53.6993 40.0248 53.6993 39.5455C53.6993 38.9463 53.3413 38.5868 52.7446 38.5868ZM36.8735 38.9463C36.3962 38.9463 35.9189 39.4256 35.9189 39.905C35.9189 40.3843 36.3962 40.8636 36.8735 40.8636C37.3508 40.8636 37.8282 40.3843 37.8282 39.905C37.7088 39.4256 37.3508 38.9463 36.8735 38.9463ZM28.8783 39.1859C28.401 39.1859 27.9236 39.6653 27.9236 40.1446C27.9236 40.624 28.401 41.1033 28.8783 41.1033C29.3556 41.1033 29.8329 40.624 29.8329 40.1446C29.8329 39.6653 29.3556 39.1859 28.8783 39.1859ZM40.8115 38.9463C40.3341 38.9463 39.8568 39.4256 39.8568 39.905C39.8568 40.3843 40.3341 40.8636 40.8115 40.8636C41.2888 40.8636 41.7661 40.3843 41.7661 39.905C41.7661 39.3058 41.2888 38.8264 40.8115 38.9463ZM24.821 39.3058C24.3437 39.3058 23.8663 39.7851 23.8663 40.2645C23.8663 40.7438 24.3437 41.2231 24.821 41.2231C25.2983 41.2231 25.7757 40.7438 25.7757 40.2645C25.7757 39.6653 25.4177 39.3058 24.821 39.3058ZM56.8019 38.4669C56.3246 38.4669 55.8473 38.9463 55.8473 39.4256C55.8473 39.905 56.3246 40.3843 56.8019 40.3843C57.2792 40.3843 57.7566 39.905 57.7566 39.4256C57.7566 38.8264 57.2792 38.4669 56.8019 38.4669ZM44.8687 38.8264C44.3914 38.8264 43.9141 39.3058 43.9141 39.7851C43.9141 40.2645 44.3914 40.7438 44.8687 40.7438C45.3461 40.7438 45.8234 40.2645 45.8234 39.7851C45.7041 39.1859 45.3461 38.7066 44.8687 38.8264ZM60.7399 38.3471C60.6205 38.3471 60.6205 38.3471 60.6205 38.3471H60.5012C60.5012 38.3471 60.5012 38.3471 60.3819 38.3471C60.3819 38.3471 60.3819 38.3471 60.2625 38.3471C60.2625 38.3471 60.1432 38.3471 60.1432 38.4669L60.0239 38.5868C59.9045 38.7066 59.9045 38.9463 59.9045 39.0661C59.9045 39.5455 60.3819 40.0248 60.8592 40.0248C61.3365 40.0248 61.8138 39.5455 61.8138 39.0661C61.6945 38.7066 61.3365 38.3471 60.7399 38.3471ZM48.8067 38.7066C48.3294 38.7066 47.852 39.1859 47.852 39.6653C47.852 40.1446 48.3294 40.624 48.8067 40.624C49.284 40.624 49.7613 40.1446 49.7613 39.6653C49.7613 39.0661 49.284 38.7066 48.8067 38.7066ZM64.7971 38.2273C64.6778 38.2273 64.6778 38.2273 64.6778 38.2273H64.5585C64.5585 38.2273 64.5585 38.2273 64.4391 38.2273C64.4391 38.2273 64.4391 38.2273 64.3198 38.2273C64.3198 38.2273 64.2005 38.2273 64.2005 38.3471L64.0811 38.4669C63.9618 38.5868 63.9618 38.8264 63.9618 38.9463C63.9618 39.4256 64.4391 39.905 64.9165 39.905C65.3938 39.905 65.8711 39.4256 65.8711 38.9463C65.7518 38.5868 65.2745 38.2273 64.7971 38.2273ZM62.8878 41.2231C62.4105 41.2231 62.0525 41.5826 62.0525 42.062C62.0525 42.5413 62.4105 42.9008 62.8878 42.9008C63.3652 42.9008 63.7232 42.5413 63.7232 42.062C63.7232 41.5826 63.3652 41.2231 62.8878 41.2231ZM38.9021 41.8223C38.4248 41.8223 38.0668 42.1818 38.0668 42.6612C38.0668 43.1405 38.4248 43.5 38.9021 43.5C39.3795 43.5 39.7375 43.1405 39.7375 42.6612C39.7375 42.1818 39.3795 41.8223 38.9021 41.8223ZM46.8974 41.7025C46.42 41.7025 46.062 42.062 46.062 42.5413C46.062 43.0207 46.42 43.3802 46.8974 43.3802C47.3747 43.3802 47.7327 43.0207 47.7327 42.5413C47.7327 42.062 47.3747 41.5826 46.8974 41.7025ZM42.8401 41.7025C42.3628 41.7025 42.0048 42.062 42.0048 42.5413C42.0048 43.0207 42.3628 43.3802 42.8401 43.3802C43.3174 43.3802 43.6754 43.0207 43.6754 42.5413C43.7947 42.062 43.3174 41.7025 42.8401 41.7025ZM34.9642 41.9421C34.4869 41.9421 34.1289 42.3017 34.1289 42.781C34.1289 43.2603 34.4869 43.6198 34.9642 43.6198C35.4415 43.6198 35.7995 43.2603 35.7995 42.781C35.7995 42.3017 35.3222 41.9421 34.9642 41.9421ZM58.8305 41.343C58.3532 41.343 57.9952 41.7025 57.9952 42.1818C57.9952 42.6612 58.3532 43.0207 58.8305 43.0207C59.3079 43.0207 59.6659 42.6612 59.6659 42.1818C59.6659 41.7025 59.3079 41.343 58.8305 41.343ZM26.969 42.1818C26.4916 42.1818 26.1337 42.5413 26.1337 43.0207C26.1337 43.5 26.4916 43.8595 26.969 43.8595C27.4463 43.8595 27.8043 43.5 27.8043 43.0207C27.8043 42.5413 27.4463 42.1818 26.969 42.1818ZM30.9069 42.062C30.4296 42.062 30.0716 42.4215 30.0716 42.9008C30.0716 43.3802 30.4296 43.7397 30.9069 43.7397C31.3842 43.7397 31.7422 43.3802 31.7422 42.9008C31.7422 42.4215 31.3842 42.062 30.9069 42.062ZM54.8926 41.4628C54.4153 41.4628 54.0573 41.8223 54.0573 42.3016C54.0573 42.781 54.4153 43.1405 54.8926 43.1405C55.3699 43.1405 55.7279 42.781 55.7279 42.3016C55.7279 41.8223 55.3699 41.4628 54.8926 41.4628ZM65.5131 44.3388L65.3938 44.219C65.3938 44.219 65.2745 44.219 65.2745 44.0992H65.1551H65.0358C64.5585 44.0992 64.3198 44.4587 64.3198 44.938C64.3198 45.1777 64.4391 45.2975 64.5585 45.4174C64.5585 45.4174 64.6778 45.4174 64.6778 45.5372C64.6778 45.5372 64.7971 45.5372 64.7971 45.657H64.9165H65.0358C65.5131 45.657 65.7518 45.2975 65.7518 44.8182C65.7518 44.5785 65.6325 44.4587 65.5131 44.3388ZM61.4558 44.3388L61.3365 44.219C61.3365 44.219 61.2172 44.219 61.2172 44.0992H61.0979H60.9785C60.5012 44.0992 60.2625 44.4587 60.2625 44.938C60.2625 45.1777 60.3819 45.2975 60.5012 45.4174C60.5012 45.4174 60.6205 45.4174 60.6205 45.5372C60.6205 45.5372 60.7399 45.5372 60.7399 45.657H60.8592H60.9785C61.4558 45.657 61.6945 45.2975 61.6945 44.8182C61.6945 44.6983 61.5752 44.5785 61.4558 44.3388ZM32.9356 44.938C32.4582 44.938 32.2196 45.2975 32.2196 45.7769C32.2196 46.2562 32.5776 46.4959 33.0549 46.4959C33.5322 46.4959 33.7709 46.1364 33.7709 45.657C33.7709 45.2975 33.4129 44.938 32.9356 44.938ZM36.9928 44.8182C36.5155 44.8182 36.2768 45.1777 36.2768 45.657C36.2768 46.1364 36.6348 46.376 37.1122 46.376C37.5895 46.376 37.8282 46.0165 37.8282 45.5372C37.7088 45.1777 37.3508 44.8182 36.9928 44.8182ZM56.9212 44.3388C56.4439 44.3388 56.2052 44.6983 56.2052 45.1777C56.2052 45.657 56.5632 45.8967 57.0406 45.8967C57.5179 45.8967 57.7566 45.5372 57.7566 45.0578C57.7566 44.5785 57.3986 44.3388 56.9212 44.3388ZM40.9308 44.6983C40.4535 44.6983 40.2148 45.0578 40.2148 45.5372C40.2148 46.0165 40.5728 46.2562 41.0501 46.2562C41.5274 46.2562 41.7661 45.8967 41.7661 45.4174C41.7661 45.0578 41.4081 44.6983 40.9308 44.6983ZM28.9976 45.0578C28.5203 45.0578 28.2816 45.4173 28.2816 45.8967C28.2816 46.376 28.6396 46.6157 29.1169 46.6157C29.5943 46.6157 29.8329 46.2562 29.8329 45.7769C29.8329 45.4174 29.4749 45.0578 28.9976 45.0578ZM44.9881 44.5785C44.5107 44.5785 44.2721 44.938 44.2721 45.4174C44.2721 45.8967 44.6301 46.1364 45.1074 46.1364C45.5847 46.1364 45.8234 45.7769 45.8234 45.2975C45.7041 44.938 45.3461 44.5785 44.9881 44.5785ZM52.9833 44.4587C52.506 44.4587 52.2673 44.8182 52.2673 45.2975C52.2673 45.7769 52.6253 46.0165 53.1026 46.0165C53.58 46.0165 53.8186 45.657 53.8186 45.1777C53.6993 44.6983 53.3413 44.3388 52.9833 44.4587ZM48.926 44.4587C48.4487 44.4587 48.21 44.8182 48.21 45.2975C48.21 45.7769 48.568 46.0165 49.0453 46.0165C49.5227 46.0165 49.7613 45.657 49.7613 45.1777C49.7613 44.8182 49.4033 44.4587 48.926 44.4587ZM47.0167 47.4545C46.6587 47.4545 46.3007 47.814 46.3007 48.1735C46.3007 48.5331 46.6587 48.8926 47.0167 48.8926C47.3747 48.8926 47.7327 48.5331 47.7327 48.1735C47.7327 47.814 47.3747 47.4545 47.0167 47.4545ZM51.074 47.3347C50.716 47.3347 50.358 47.6942 50.358 48.0537C50.358 48.4132 50.716 48.7727 51.074 48.7727C51.432 48.7727 51.79 48.4132 51.79 48.0537C51.79 47.6942 51.432 47.3347 51.074 47.3347ZM59.0692 47.2149C58.7112 47.2149 58.3532 47.5744 58.3532 47.9339C58.3532 48.2934 58.7112 48.6529 59.0692 48.6529C59.4272 48.6529 59.7852 48.2934 59.7852 47.9339C59.6659 47.4545 59.4272 47.095 59.0692 47.2149ZM63.0072 47.095C62.6492 47.095 62.2912 47.4545 62.2912 47.814C62.2912 48.1736 62.6492 48.5331 63.0072 48.5331C63.3652 48.5331 63.7232 48.1736 63.7232 47.814C63.7232 47.3347 63.3652 47.095 63.0072 47.095ZM39.0215 47.6942C38.6635 47.6942 38.3055 48.0537 38.3055 48.4132C38.3055 48.7727 38.6635 49.1322 39.0215 49.1322C39.3795 49.1322 39.7375 48.7727 39.7375 48.4132C39.7375 48.0537 39.4988 47.6942 39.0215 47.6942ZM31.0263 47.9339C30.6683 47.9339 30.3103 48.2934 30.3103 48.6529C30.3103 49.0124 30.6683 49.3719 31.0263 49.3719C31.3842 49.3719 31.7422 49.0124 31.7422 48.6529C31.7422 48.1735 31.5036 47.9339 31.0263 47.9339ZM35.0835 47.814C34.7255 47.814 34.3675 48.1735 34.3675 48.5331C34.3675 48.8926 34.7255 49.2521 35.0835 49.2521C35.4415 49.2521 35.7995 48.8926 35.7995 48.5331C35.7995 48.0537 35.4415 47.814 35.0835 47.814ZM53.1026 50.2107C52.7446 50.2107 52.506 50.4504 52.506 50.8099C52.506 51.1694 52.7446 51.4091 53.1026 51.4091C53.4606 51.4091 53.6993 51.1694 53.6993 50.8099C53.6993 50.4504 53.4606 50.2107 53.1026 50.2107ZM57.1599 50.0909C56.8019 50.0909 56.5632 50.3306 56.5632 50.6901C56.5632 51.0496 56.8019 51.2892 57.1599 51.2892C57.5179 51.2892 57.7566 51.0496 57.7566 50.6901C57.7566 50.4504 57.3986 50.0909 57.1599 50.0909ZM49.1647 50.3306C48.8067 50.3306 48.568 50.5702 48.568 50.9297C48.568 51.2892 48.8067 51.5289 49.1647 51.5289C49.5227 51.5289 49.7613 51.2892 49.7613 50.9297C49.7613 50.5702 49.4033 50.3306 49.1647 50.3306ZM61.0979 49.9711C60.7399 49.9711 60.5012 50.2107 60.5012 50.5702C60.5012 50.9297 60.7399 51.1694 61.0979 51.1694C61.4558 51.1694 61.6945 50.9297 61.6945 50.5702C61.6945 50.3306 61.4558 49.9711 61.0979 49.9711ZM29.1169 50.9297C28.7589 50.9297 28.5203 51.1694 28.5203 51.5289C28.5203 51.8884 28.7589 52.1281 29.1169 52.1281C29.4749 52.1281 29.7136 51.8884 29.7136 51.5289C29.8329 51.1694 29.4749 50.9297 29.1169 50.9297ZM37.1122 50.6901C36.7542 50.6901 36.5155 50.9297 36.5155 51.2892C36.5155 51.6488 36.7542 51.8884 37.1122 51.8884C37.4702 51.8884 37.7088 51.6488 37.7088 51.2892C37.7088 50.9297 37.4702 50.6901 37.1122 50.6901ZM45.1074 50.4504C44.7494 50.4504 44.5107 50.6901 44.5107 51.0496C44.5107 51.4091 44.7494 51.6488 45.1074 51.6488C45.4654 51.6488 45.7041 51.4091 45.7041 51.0496C45.7041 50.6901 45.4654 50.4504 45.1074 50.4504ZM41.1694 50.5702C40.8115 50.5702 40.5728 50.8099 40.5728 51.1694C40.5728 51.5289 40.8115 51.7686 41.1694 51.7686C41.5274 51.7686 41.7661 51.5289 41.7661 51.1694C41.7661 50.8099 41.5274 50.5702 41.1694 50.5702ZM47.2554 53.3264C47.0167 53.3264 46.778 53.5661 46.778 53.9256C46.778 54.1653 47.0167 54.405 47.3747 54.405C47.6134 54.405 47.852 54.1653 47.852 53.8058C47.7327 53.5661 47.494 53.3264 47.2554 53.3264ZM63.1265 52.8471C62.8878 52.8471 62.6492 53.0868 62.6492 53.4463C62.6492 53.6859 62.8878 53.9256 63.2458 53.9256C63.4845 53.9256 63.7232 53.6859 63.7232 53.3264C63.7232 53.0868 63.4845 52.8471 63.1265 52.8471ZM51.1933 53.2066C50.9547 53.2066 50.716 53.4463 50.716 53.8058C50.716 54.0455 50.9547 54.2851 51.3126 54.2851C51.5513 54.2851 51.79 54.0454 51.79 53.6859C51.79 53.4463 51.5513 53.2066 51.1933 53.2066ZM55.1313 53.0868C54.8926 53.0868 54.6539 53.3264 54.6539 53.6859C54.6539 53.9256 54.8926 54.1653 55.2506 54.1653C55.4893 54.1653 55.7279 53.9256 55.7279 53.5661C55.7279 53.3264 55.4893 53.0868 55.1313 53.0868ZM43.1981 53.4463C42.9594 53.4463 42.7208 53.6859 42.7208 54.0454C42.7208 54.2851 42.9594 54.5248 43.3174 54.5248C43.5561 54.5248 43.7948 54.2851 43.7948 53.9256C43.7948 53.6859 43.5561 53.4463 43.1981 53.4463ZM59.1885 52.9669C58.9499 52.9669 58.7112 53.2066 58.7112 53.5661C58.7112 53.8058 58.9499 54.0454 59.3079 54.0454C59.5465 54.0454 59.7852 53.8058 59.7852 53.4463C59.6659 53.2066 59.4272 52.9669 59.1885 52.9669ZM31.2649 53.8058C31.0263 53.8058 30.7876 54.0455 30.7876 54.405C30.7876 54.6446 31.0263 54.8843 31.3842 54.8843C31.6229 54.8843 31.8616 54.6446 31.8616 54.2851C31.7422 54.0454 31.5036 53.8058 31.2649 53.8058ZM27.2076 53.9256C26.969 53.9256 26.7303 54.1653 26.7303 54.5248C26.7303 54.7645 26.969 55.0041 27.327 55.0041C27.5656 55.0041 27.8043 54.7645 27.8043 54.405C27.8043 54.1653 27.5656 53.9256 27.2076 53.9256ZM35.2029 53.6859C34.9642 53.6859 34.7255 53.9256 34.7255 54.2851C34.7255 54.5248 34.9642 54.7645 35.3222 54.7645C35.5609 54.7645 35.7995 54.5248 35.7995 54.1653C35.7995 53.9256 35.5609 53.6859 35.2029 53.6859ZM39.2601 53.5661C39.0215 53.5661 38.7828 53.8058 38.7828 54.1653C38.7828 54.405 39.0215 54.6446 39.3795 54.6446C39.6181 54.6446 39.8568 54.4049 39.8568 54.0454C39.7375 53.8058 39.4988 53.5661 39.2601 53.5661ZM45.3461 57.281C45.5847 57.281 45.8234 57.0413 45.8234 56.8016C45.8234 56.562 45.5847 56.3223 45.3461 56.3223C45.1074 56.3223 44.8687 56.562 44.8687 56.8016C44.8687 57.0413 45.1074 57.281 45.3461 57.281ZM49.284 57.1611C49.5227 57.1611 49.7613 56.9215 49.7613 56.6818C49.7613 56.4421 49.5227 56.2025 49.284 56.2025C49.0453 56.2025 48.8067 56.4421 48.8067 56.6818C48.8067 56.9215 49.0453 57.1611 49.284 57.1611ZM33.2936 57.5207C33.5322 57.5207 33.7709 57.281 33.7709 57.0413C33.7709 56.8016 33.5322 56.562 33.2936 56.562C33.0549 56.562 32.8162 56.8016 32.8162 57.0413C32.8162 57.4008 33.0549 57.5207 33.2936 57.5207ZM41.2888 57.4008C41.5274 57.4008 41.7661 57.1611 41.7661 56.9215C41.7661 56.6818 41.5274 56.4421 41.2888 56.4421C41.0501 56.4421 40.8115 56.6818 40.8115 56.9215C40.8115 57.1611 41.0501 57.4008 41.2888 57.4008ZM57.2792 56.9215C57.5179 56.9215 57.7566 56.6818 57.7566 56.4421C57.7566 56.2025 57.5179 55.9628 57.2792 55.9628C57.0406 55.9628 56.8019 56.2025 56.8019 56.4421C56.8019 56.6818 57.0406 56.9215 57.2792 56.9215ZM2.86396 37.0289C2.2673 37.0289 1.90931 37.5083 1.90931 38.1074C1.90931 38.7066 2.38663 39.0661 2.98329 39.0661C3.57995 39.0661 3.93795 38.5868 3.93795 37.9876C3.81862 37.3884 3.34129 37.0289 2.86396 37.0289ZM6.80191 36.9091C6.20525 36.9091 5.84726 37.3884 5.84726 37.9876C5.84726 38.5868 6.32458 38.9463 6.92124 38.9463C7.5179 38.9463 7.8759 38.4669 7.8759 37.8678C7.75656 37.2686 7.39857 36.9091 6.80191 36.9091ZM14.7971 36.6694C14.2005 36.6694 13.8425 37.1488 13.8425 37.7479C13.8425 38.3471 14.3198 38.7066 14.9165 38.7066C15.5131 38.7066 15.8711 38.2273 15.8711 37.6281C15.7518 37.1488 15.3938 36.6694 14.7971 36.6694ZM22.7924 36.4297C22.1957 36.4297 21.8377 36.9091 21.8377 37.5083C21.8377 38.1074 22.315 38.4669 22.9117 38.4669C23.5084 38.4669 23.8663 37.9876 23.8663 37.3884C23.747 36.9091 23.2697 36.4297 22.7924 36.4297ZM10.7399 36.7893C10.1432 36.7893 9.7852 37.2686 9.7852 37.8678C9.7852 38.4669 10.2625 38.8264 10.8592 38.8264C11.4558 38.8264 11.8138 38.3471 11.8138 37.7479C11.8138 37.2686 11.3365 36.7893 10.7399 36.7893ZM18.7351 36.5496C18.1384 36.5496 17.7804 37.0289 17.7804 37.6281C17.7804 38.2273 18.2578 38.5868 18.8544 38.5868C19.4511 38.5868 19.8091 38.1074 19.8091 37.5083C19.8091 37.0289 19.3317 36.5496 18.7351 36.5496ZM12.8878 39.6653C12.4105 39.6653 11.9332 40.1446 11.9332 40.624C11.9332 41.1033 12.4105 41.5826 12.8878 41.5826C13.3652 41.5826 13.8425 41.1033 13.8425 40.624C13.8425 40.0248 13.3652 39.6653 12.8878 39.6653ZM4.8926 39.905C4.41527 39.905 3.93795 40.3843 3.93795 40.8636C3.93795 41.343 4.41527 41.8223 4.8926 41.8223C5.36993 41.8223 5.84726 41.343 5.84726 40.8636C5.84726 40.2645 5.36993 39.905 4.8926 39.905ZM20.8831 39.4256C20.4057 39.4256 19.9284 39.905 19.9284 40.3843C19.9284 40.8636 20.4057 41.343 20.8831 41.343C21.3604 41.343 21.8377 40.8636 21.8377 40.3843C21.8377 39.7851 21.3604 39.4256 20.8831 39.4256ZM0.954654 40.0248C0.477327 40.0248 0 40.5041 0 40.9835C0 41.4628 0.477327 41.9421 0.954654 41.9421C1.43198 41.9421 1.90931 41.4628 1.90931 40.9835C1.78998 40.3843 1.43198 40.0248 0.954654 40.0248ZM8.83055 39.7851C8.35322 39.7851 7.8759 40.2645 7.8759 40.7438C7.8759 41.2231 8.35322 41.7025 8.83055 41.7025C9.30788 41.7025 9.7852 41.2231 9.7852 40.7438C9.7852 40.1446 9.42721 39.7851 8.83055 39.7851ZM16.8258 39.5455C16.3484 39.5455 15.8711 40.0248 15.8711 40.5041C15.8711 40.9835 16.3484 41.4628 16.8258 41.4628C17.3031 41.4628 17.7804 40.9835 17.7804 40.5041C17.7804 39.905 17.4224 39.5455 16.8258 39.5455ZM10.9785 42.6612C10.5012 42.6612 10.1432 43.0207 10.1432 43.5C10.1432 43.9793 10.5012 44.3388 10.9785 44.3388C11.4558 44.3388 11.8138 43.9793 11.8138 43.5C11.8138 43.0207 11.4558 42.6612 10.9785 42.6612ZM2.98329 42.9008C2.50597 42.9008 2.14797 43.2603 2.14797 43.7397C2.14797 44.219 2.50597 44.5785 2.98329 44.5785C3.46062 44.5785 3.81862 44.219 3.81862 43.7397C3.81862 43.2603 3.46062 42.9008 2.98329 42.9008ZM23.389 42.4215C23.2697 42.3017 23.031 42.3016 22.9117 42.3016C22.4344 42.3016 22.0764 42.6612 22.0764 43.1405C22.0764 43.6198 22.4344 43.9793 22.9117 43.9793C23.389 43.9793 23.747 43.6198 23.747 43.1405C23.747 42.9008 23.6277 42.5413 23.389 42.4215ZM14.9165 42.5413C14.4391 42.5413 14.0811 42.9008 14.0811 43.3802C14.0811 43.8595 14.4391 44.219 14.9165 44.219C15.3938 44.219 15.7518 43.8595 15.7518 43.3802C15.7518 42.9008 15.3938 42.5413 14.9165 42.5413ZM6.92124 42.781C6.44391 42.781 6.08592 43.1405 6.08592 43.6198C6.08592 44.0992 6.44391 44.4587 6.92124 44.4587C7.39857 44.4587 7.75656 44.0992 7.75656 43.6198C7.8759 43.1405 7.39857 42.781 6.92124 42.781ZM18.9737 42.4215C18.4964 42.4215 18.1384 42.781 18.1384 43.2603C18.1384 43.7397 18.4964 44.0992 18.9737 44.0992C19.4511 44.0992 19.8091 43.7397 19.8091 43.2603C19.8091 42.781 19.4511 42.4215 18.9737 42.4215ZM13.0072 45.5372C12.5298 45.5372 12.2912 45.8967 12.2912 46.376C12.2912 46.8554 12.6492 47.095 13.1265 47.095C13.6038 47.095 13.8425 46.7355 13.8425 46.2562C13.8425 45.7769 13.4845 45.5372 13.0072 45.5372ZM21.0024 45.2975C20.5251 45.2975 20.2864 45.657 20.2864 46.1364C20.2864 46.4959 20.6444 46.8554 21.1217 46.8554C21.599 46.8554 21.8377 46.4959 21.8377 46.0165C21.8377 45.657 21.4797 45.2975 21.0024 45.2975ZM25.0597 45.1777C24.5823 45.1777 24.3437 45.5372 24.3437 46.0165C24.3437 46.4959 24.7017 46.7355 25.179 46.7355C25.6563 46.7355 25.895 46.376 25.895 45.8967C25.7757 45.5372 25.4177 45.1777 25.0597 45.1777ZM17.0644 45.4174C16.5871 45.4174 16.3484 45.7769 16.3484 46.2562C16.3484 46.7355 16.7064 46.9752 17.1838 46.9752C17.6611 46.9752 17.8998 46.6157 17.8998 46.1364C17.7804 45.657 17.4224 45.4174 17.0644 45.4174ZM9.06921 45.657C8.59189 45.657 8.35322 46.0165 8.35322 46.4959C8.35322 46.8554 8.71122 47.2149 9.18854 47.2149C9.66587 47.2149 9.90453 46.8554 9.90453 46.376C9.7852 45.8967 9.42721 45.657 9.06921 45.657ZM5.01193 45.7769C4.53461 45.7769 4.29594 46.1364 4.29594 46.6157C4.29594 47.095 4.65394 47.3347 5.13127 47.3347C5.60859 47.3347 5.84726 46.9752 5.84726 46.4959C5.84726 46.0165 5.48926 45.657 5.01193 45.7769ZM19.0931 48.2934C18.7351 48.2934 18.3771 48.6529 18.3771 49.0124C18.3771 49.3719 18.7351 49.7314 19.0931 49.7314C19.4511 49.7314 19.8091 49.3719 19.8091 49.0124C19.8091 48.5331 19.4511 48.2934 19.0931 48.2934ZM15.1551 48.4132C14.7971 48.4132 14.4391 48.7727 14.4391 49.1322C14.4391 49.4917 14.7971 49.8512 15.1551 49.8512C15.5131 49.8512 15.8711 49.4917 15.8711 49.1322C15.7518 48.6529 15.5131 48.4132 15.1551 48.4132ZM11.0979 48.5331C10.7399 48.5331 10.3819 48.8926 10.3819 49.2521C10.3819 49.6116 10.7399 49.9711 11.0979 49.9711C11.4558 49.9711 11.8138 49.6116 11.8138 49.2521C11.8138 48.7727 11.4558 48.4132 11.0979 48.5331ZM7.1599 48.5331C6.80191 48.5331 6.44391 48.8926 6.44391 49.2521C6.44391 49.6116 6.80191 49.9711 7.1599 49.9711C7.5179 49.9711 7.8759 49.6116 7.8759 49.2521C7.8759 48.8926 7.5179 48.5331 7.1599 48.5331ZM23.1504 48.1735C22.7924 48.1735 22.4344 48.5331 22.4344 48.8926C22.4344 49.2521 22.7924 49.6116 23.1504 49.6116C23.5084 49.6116 23.8663 49.2521 23.8663 48.8926C23.747 48.4132 23.5084 48.1735 23.1504 48.1735ZM17.1838 51.2892C16.8258 51.2892 16.5871 51.5289 16.5871 51.8884C16.5871 52.2479 16.8258 52.4876 17.1838 52.4876C17.5418 52.4876 17.7804 52.2479 17.7804 51.8884C17.7804 51.5289 17.5418 51.1694 17.1838 51.2892ZM9.18854 51.4091C8.83055 51.4091 8.59189 51.6488 8.59189 52.0083C8.59189 52.3678 8.83055 52.6074 9.18854 52.6074C9.54654 52.6074 9.7852 52.3678 9.7852 52.0083C9.7852 51.7686 9.54654 51.4091 9.18854 51.4091ZM21.1217 51.1694C20.7637 51.1694 20.5251 51.4091 20.5251 51.7686C20.5251 52.1281 20.7637 52.3678 21.1217 52.3678C21.4797 52.3678 21.7184 52.1281 21.7184 51.7686C21.8377 51.4091 21.4797 51.1694 21.1217 51.1694ZM25.179 51.0496C24.821 51.0496 24.5823 51.2892 24.5823 51.6488C24.5823 52.0083 24.821 52.2479 25.179 52.2479C25.537 52.2479 25.7757 52.0083 25.7757 51.6488C25.7757 51.2892 25.537 51.0496 25.179 51.0496ZM15.2745 54.1653C15.0358 54.1653 14.7971 54.405 14.7971 54.7645C14.7971 55.0041 15.0358 55.2438 15.3938 55.2438C15.6325 55.2438 15.8711 55.0041 15.8711 54.6446C15.7518 54.4049 15.5131 54.1653 15.2745 54.1653ZM11.2172 54.2851C10.9785 54.2851 10.7399 54.5248 10.7399 54.8843C10.7399 55.124 10.9785 55.3636 11.3365 55.3636C11.5752 55.3636 11.8138 55.124 11.8138 54.7645C11.8138 54.5248 11.5752 54.2851 11.2172 54.2851ZM19.2124 54.0454C18.9737 54.0454 18.7351 54.2851 18.7351 54.6446C18.7351 54.8843 18.9737 55.124 19.3317 55.124C19.5704 55.124 19.8091 54.8843 19.8091 54.5248C19.8091 54.2851 19.5704 54.0454 19.2124 54.0454ZM23.2697 54.0454C23.031 54.0454 22.7924 54.2851 22.7924 54.6446C22.7924 54.8843 23.031 55.124 23.389 55.124C23.6277 55.124 23.8663 54.8843 23.8663 54.5248C23.747 54.1653 23.5084 53.9256 23.2697 54.0454ZM17.4224 58C17.6611 58 17.8998 57.7603 17.8998 57.5207C17.8998 57.281 17.6611 57.0413 17.4224 57.0413C17.1838 57.0413 16.9451 57.281 16.9451 57.5207C16.9451 57.7603 17.0644 58 17.4224 58ZM25.2983 57.7603C25.537 57.7603 25.7757 57.5207 25.7757 57.281C25.7757 57.0413 25.537 56.8016 25.2983 56.8016C25.0597 56.8016 24.821 57.0413 24.821 57.281C24.9403 57.6405 25.0597 57.7603 25.2983 57.7603ZM94.6301 34.5124C94.0334 34.5124 93.6754 34.9917 93.6754 35.5909C93.6754 36.1901 94.1527 36.5496 94.7494 36.5496C95.3461 36.5496 95.7041 36.0702 95.7041 35.4711C95.5847 34.8719 95.2267 34.5124 94.6301 34.5124ZM106.563 34.1529C105.967 34.1529 105.609 34.6322 105.609 35.2314C105.609 35.8306 106.086 36.1901 106.683 36.1901C107.279 36.1901 107.637 35.7107 107.637 35.1116C107.637 34.5124 107.16 34.1529 106.563 34.1529ZM102.625 34.2727C102.029 34.2727 101.671 34.7521 101.671 35.3512C101.671 35.9504 102.148 36.3099 102.745 36.3099C103.341 36.3099 103.699 35.8306 103.699 35.2314C103.58 34.6322 103.222 34.2727 102.625 34.2727ZM122.554 33.6736C121.957 33.6736 121.599 34.1529 121.599 34.7521C121.599 35.3512 122.076 35.7107 122.673 35.7107C123.27 35.7107 123.628 35.2314 123.628 34.6322C123.628 34.1529 123.15 33.6736 122.554 33.6736ZM98.568 34.3926C97.9714 34.3926 97.6134 34.8719 97.6134 35.4711C97.6134 36.0702 98.0907 36.4297 98.6873 36.4297C99.284 36.4297 99.642 35.9504 99.642 35.3512C99.642 34.7521 99.1647 34.3926 98.568 34.3926ZM118.616 33.7934C118.019 33.7934 117.661 34.2727 117.661 34.8719C117.661 35.4711 118.138 35.8306 118.735 35.8306C119.332 35.8306 119.69 35.3512 119.69 34.7521C119.57 34.2727 119.093 33.7934 118.616 33.7934ZM114.558 33.9132C113.962 33.9132 113.604 34.3926 113.604 34.9917C113.604 35.5909 114.081 35.9504 114.678 35.9504C115.274 35.9504 115.632 35.4711 115.632 34.8719C115.632 34.3926 115.155 33.9132 114.558 33.9132ZM110.621 34.0331C110.024 34.0331 109.666 34.5124 109.666 35.1116C109.666 35.7107 110.143 36.0702 110.74 36.0702C111.337 36.0702 111.695 35.5909 111.695 34.9917C111.575 34.5124 111.098 34.0331 110.621 34.0331ZM90.6921 34.6322C90.0955 34.6322 89.7375 35.1116 89.7375 35.7107C89.7375 36.3099 90.2148 36.6694 90.8115 36.6694C91.4081 36.6694 91.7661 36.1901 91.7661 35.5909C91.6468 34.9917 91.1694 34.6322 90.6921 34.6322ZM116.706 36.7893C116.229 36.7893 115.752 37.2686 115.752 37.7479C115.752 38.2273 116.229 38.7066 116.706 38.7066C117.184 38.7066 117.661 38.2273 117.661 37.7479C117.542 37.1488 117.184 36.7893 116.706 36.7893ZM100.716 37.2686C100.239 37.2686 99.7613 37.7479 99.7613 38.2273C99.7613 38.7066 100.239 39.1859 100.716 39.1859C101.193 39.1859 101.671 38.7066 101.671 38.2273C101.671 37.6281 101.193 37.2686 100.716 37.2686ZM92.7208 37.5083C92.2434 37.5083 91.7661 37.9876 91.7661 38.4669C91.7661 38.9463 92.2434 39.4256 92.7208 39.4256C93.1981 39.4256 93.6754 38.9463 93.6754 38.4669C93.6754 37.8678 93.1981 37.3884 92.7208 37.5083ZM104.654 37.1488C104.177 37.1488 103.699 37.6281 103.699 38.1074C103.699 38.5868 104.177 39.0661 104.654 39.0661C105.131 39.0661 105.609 38.5868 105.609 38.1074C105.609 37.5083 105.251 37.1488 104.654 37.1488ZM88.6635 37.5083C88.1862 37.5083 87.7088 37.9876 87.7088 38.4669C87.7088 38.9463 88.1862 39.4256 88.6635 39.4256C89.1408 39.4256 89.6181 38.9463 89.6181 38.4669C89.6181 37.9876 89.2601 37.5083 88.6635 37.5083ZM96.6587 37.3884C96.1814 37.3884 95.7041 37.8678 95.7041 38.3471C95.7041 38.8264 96.1814 39.3058 96.6587 39.3058C97.136 39.3058 97.6134 38.8264 97.6134 38.3471C97.6134 37.7479 97.2554 37.3884 96.6587 37.3884ZM120.644 36.6694C120.167 36.6694 119.69 37.1488 119.69 37.6281C119.69 38.1074 120.167 38.5868 120.644 38.5868C121.122 38.5868 121.599 38.1074 121.599 37.6281C121.599 37.0289 121.122 36.6694 120.644 36.6694ZM108.711 37.0289C108.234 37.0289 107.757 37.5083 107.757 37.9876C107.757 38.4669 108.234 38.9463 108.711 38.9463C109.189 38.9463 109.666 38.4669 109.666 37.9876C109.666 37.3884 109.189 37.0289 108.711 37.0289ZM124.702 36.5496C124.224 36.5496 123.747 37.0289 123.747 37.5083C123.747 37.9876 124.224 38.4669 124.702 38.4669C125.179 38.4669 125.656 37.9876 125.656 37.5083C125.537 36.9091 125.179 36.5496 124.702 36.5496ZM112.649 36.9091C112.172 36.9091 111.695 37.3884 111.695 37.8678C111.695 38.3471 112.172 38.8264 112.649 38.8264C113.126 38.8264 113.604 38.3471 113.604 37.8678C113.604 37.2686 113.246 36.9091 112.649 36.9091ZM126.73 39.4256C126.253 39.4256 125.895 39.7851 125.895 40.2645C125.895 40.7438 126.253 41.1033 126.73 41.1033C127.208 41.1033 127.566 40.7438 127.566 40.2645C127.566 39.7851 127.208 39.4256 126.73 39.4256ZM102.745 40.1446C102.267 40.1446 101.909 40.5041 101.909 40.9835C101.909 41.4628 102.267 41.8223 102.745 41.8223C103.222 41.8223 103.58 41.4628 103.58 40.9835C103.58 40.5041 103.222 40.1446 102.745 40.1446ZM110.74 39.905C110.263 39.905 109.905 40.2645 109.905 40.7438C109.905 41.2231 110.263 41.5826 110.74 41.5826C111.217 41.5826 111.575 41.2231 111.575 40.7438C111.575 40.2645 111.217 39.905 110.74 39.905ZM106.802 40.0248C106.325 40.0248 105.967 40.3843 105.967 40.8636C105.967 41.343 106.325 41.7025 106.802 41.7025C107.279 41.7025 107.637 41.343 107.637 40.8636C107.637 40.3843 107.279 40.0248 106.802 40.0248ZM114.797 39.7851C114.32 39.7851 113.962 40.1446 113.962 40.624C113.962 41.1033 114.32 41.4628 114.797 41.4628C115.274 41.4628 115.632 41.1033 115.632 40.624C115.632 40.1446 115.274 39.7851 114.797 39.7851ZM98.8067 40.2645C98.3294 40.2645 97.9714 40.624 97.9714 41.1033C97.9714 41.5826 98.3294 41.9421 98.8067 41.9421C99.284 41.9421 99.642 41.5826 99.642 41.1033C99.642 40.624 99.284 40.1446 98.8067 40.2645ZM122.792 39.5455C122.315 39.5455 121.957 39.905 121.957 40.3843C121.957 40.8636 122.315 41.2231 122.792 41.2231C123.27 41.2231 123.628 40.8636 123.628 40.3843C123.628 39.905 123.15 39.5455 122.792 39.5455ZM90.8115 40.3843C90.3341 40.3843 89.9761 40.7438 89.9761 41.2231C89.9761 41.7025 90.3341 42.062 90.8115 42.062C91.2888 42.062 91.6468 41.7025 91.6468 41.2231C91.6468 40.7438 91.2888 40.3843 90.8115 40.3843ZM118.735 39.6653C118.258 39.6653 117.9 40.0248 117.9 40.5041C117.9 40.9835 118.258 41.343 118.735 41.343C119.212 41.343 119.57 40.9835 119.57 40.5041C119.57 40.0248 119.212 39.6653 118.735 39.6653ZM128.759 42.3016C128.282 42.3016 128.043 42.6612 128.043 43.1405C128.043 43.6198 128.401 43.8595 128.878 43.8595C129.356 43.8595 129.594 43.5 129.594 43.0207C129.594 42.6612 129.236 42.3016 128.759 42.3016ZM124.821 42.4215C124.344 42.4215 124.105 42.781 124.105 43.2603C124.105 43.7397 124.463 43.9793 124.94 43.9793C125.418 43.9793 125.656 43.6198 125.656 43.1405C125.537 42.781 125.179 42.4215 124.821 42.4215ZM100.835 43.1405C100.358 43.1405 100.119 43.5 100.119 43.9793C100.119 44.4587 100.477 44.6983 100.955 44.6983C101.432 44.6983 101.671 44.3388 101.671 43.8595C101.671 43.3802 101.313 43.0207 100.835 43.1405ZM120.764 42.5413C120.286 42.5413 120.048 42.9008 120.048 43.3802C120.048 43.8595 120.406 44.0992 120.883 44.0992C121.36 44.0992 121.599 43.7397 121.599 43.2603C121.599 42.9008 121.241 42.5413 120.764 42.5413ZM92.8401 43.2603C92.3628 43.2603 92.1241 43.6198 92.1241 44.0992C92.1241 44.5785 92.4821 44.8182 92.9594 44.8182C93.4368 44.8182 93.6754 44.4587 93.6754 43.9793C93.6754 43.6198 93.3174 43.2603 92.8401 43.2603ZM108.831 42.9008C108.353 42.9008 108.115 43.2603 108.115 43.7397C108.115 44.219 108.473 44.4587 108.95 44.4587C109.427 44.4587 109.666 44.0992 109.666 43.6198C109.666 43.1405 109.308 42.9008 108.831 42.9008ZM116.826 42.6612C116.348 42.6612 116.11 43.0207 116.11 43.5C116.11 43.9793 116.468 44.219 116.945 44.219C117.422 44.219 117.661 43.8595 117.661 43.3802C117.661 43.0207 117.303 42.6612 116.826 42.6612ZM112.888 42.781C112.41 42.781 112.172 43.1405 112.172 43.6198C112.172 44.0992 112.53 44.3388 113.007 44.3388C113.484 44.3388 113.723 43.9793 113.723 43.5C113.604 43.0207 113.246 42.781 112.888 42.781ZM110.979 45.7769C110.621 45.7769 110.263 46.1364 110.263 46.4959C110.263 46.8554 110.621 47.2149 110.979 47.2149C111.337 47.2149 111.695 46.8554 111.695 46.4959C111.575 46.0165 111.337 45.657 110.979 45.7769ZM114.916 45.657C114.558 45.657 114.2 46.0165 114.2 46.376C114.2 46.7355 114.558 47.095 114.916 47.095C115.274 47.095 115.632 46.7355 115.632 46.376C115.632 45.8967 115.274 45.657 114.916 45.657ZM118.854 45.5372C118.496 45.5372 118.138 45.8967 118.138 46.2562C118.138 46.6157 118.496 46.9752 118.854 46.9752C119.212 46.9752 119.57 46.6157 119.57 46.2562C119.57 45.7769 119.332 45.5372 118.854 45.5372ZM122.912 45.4174C122.554 45.4174 122.196 45.7769 122.196 46.1364C122.196 46.4959 122.554 46.8554 122.912 46.8554C123.27 46.8554 123.628 46.4959 123.628 46.1364C123.628 45.657 123.27 45.4174 122.912 45.4174ZM126.85 45.2975C126.492 45.2975 126.134 45.657 126.134 46.0165C126.134 46.376 126.492 46.7355 126.85 46.7355C127.208 46.7355 127.566 46.376 127.566 46.0165C127.566 45.5372 127.327 45.2975 126.85 45.2975ZM90.9308 46.2562C90.5728 46.2562 90.2148 46.6157 90.2148 46.9752C90.2148 47.3347 90.5728 47.6942 90.9308 47.6942C91.2888 47.6942 91.6468 47.3347 91.6468 46.9752C91.6468 46.6157 91.2888 46.2562 90.9308 46.2562ZM102.983 45.8967C102.625 45.8967 102.267 46.2562 102.267 46.6157C102.267 46.9752 102.625 47.3347 102.983 47.3347C103.341 47.3347 103.699 46.9752 103.699 46.6157C103.58 46.2562 103.341 45.8967 102.983 45.8967ZM94.9881 46.1364C94.6301 46.1364 94.2721 46.4959 94.2721 46.8554C94.2721 47.2149 94.6301 47.5744 94.9881 47.5744C95.3461 47.5744 95.7041 47.2149 95.7041 46.8554C95.7041 46.4959 95.3461 46.1364 94.9881 46.1364ZM98.926 46.0165C98.568 46.0165 98.21 46.376 98.21 46.7355C98.21 47.095 98.568 47.4545 98.926 47.4545C99.284 47.4545 99.642 47.095 99.642 46.7355C99.642 46.376 99.284 46.0165 98.926 46.0165ZM116.945 48.5331C116.587 48.5331 116.348 48.7727 116.348 49.1322C116.348 49.4917 116.587 49.7314 116.945 49.7314C117.303 49.7314 117.542 49.4917 117.542 49.1322C117.661 48.7727 117.303 48.5331 116.945 48.5331ZM121.002 48.4132C120.644 48.4132 120.406 48.6529 120.406 49.0124C120.406 49.3719 120.644 49.6116 121.002 49.6116C121.36 49.6116 121.599 49.3719 121.599 49.0124C121.599 48.6529 121.36 48.4132 121.002 48.4132ZM113.007 48.6529C112.649 48.6529 112.41 48.8926 112.41 49.2521C112.41 49.6116 112.649 49.8512 113.007 49.8512C113.365 49.8512 113.604 49.6116 113.604 49.2521C113.604 48.8926 113.365 48.5331 113.007 48.6529ZM124.94 48.2934C124.582 48.2934 124.344 48.5331 124.344 48.8926C124.344 49.2521 124.582 49.4917 124.94 49.4917C125.298 49.4917 125.537 49.2521 125.537 48.8926C125.537 48.5331 125.298 48.2934 124.94 48.2934ZM97.0167 49.0124C96.6587 49.0124 96.4201 49.2521 96.4201 49.6116C96.4201 49.9711 96.6587 50.2107 97.0167 50.2107C97.3747 50.2107 97.6134 49.9711 97.6134 49.6116C97.6134 49.2521 97.3747 49.0124 97.0167 49.0124ZM108.95 48.6529C108.592 48.6529 108.353 48.8926 108.353 49.2521C108.353 49.6116 108.592 49.8512 108.95 49.8512C109.308 49.8512 109.547 49.6116 109.547 49.2521C109.666 49.0124 109.308 48.6529 108.95 48.6529ZM105.012 48.7727C104.654 48.7727 104.415 49.0124 104.415 49.3719C104.415 49.7314 104.654 49.9711 105.012 49.9711C105.37 49.9711 105.609 49.7314 105.609 49.3719C105.609 49.1322 105.37 48.7727 105.012 48.7727ZM111.098 51.5289C110.859 51.5289 110.621 51.7686 110.621 52.1281C110.621 52.3678 110.859 52.6074 111.217 52.6074C111.456 52.6074 111.695 52.3678 111.695 52.0083C111.695 51.6488 111.337 51.5289 111.098 51.5289ZM115.036 51.4091C114.797 51.4091 114.558 51.6488 114.558 52.0083C114.558 52.2479 114.797 52.4876 115.155 52.4876C115.394 52.4876 115.632 52.2479 115.632 51.8884C115.632 51.6488 115.394 51.4091 115.036 51.4091ZM119.093 51.2892C118.854 51.2892 118.616 51.5289 118.616 51.8884C118.616 52.1281 118.854 52.3678 119.212 52.3678C119.451 52.3678 119.69 52.1281 119.69 51.7686C119.57 51.5289 119.332 51.2892 119.093 51.2892ZM107.041 51.6488C106.802 51.6488 106.563 51.8884 106.563 52.2479C106.563 52.4876 106.802 52.7273 107.16 52.7273C107.399 52.7273 107.637 52.4876 107.637 52.1281C107.637 51.8884 107.399 51.6488 107.041 51.6488ZM123.031 51.2892C122.792 51.2892 122.554 51.5289 122.554 51.8884C122.554 52.1281 122.792 52.3678 123.15 52.3678C123.389 52.3678 123.628 52.1281 123.628 51.7686C123.628 51.5289 123.389 51.2892 123.031 51.2892ZM95.1074 52.0083C94.8687 52.0083 94.6301 52.2479 94.6301 52.6074C94.6301 52.8471 94.8687 53.0868 95.2267 53.0868C95.4654 53.0868 95.7041 52.8471 95.7041 52.4876C95.7041 52.2479 95.3461 52.0083 95.1074 52.0083ZM91.1694 52.1281C90.9308 52.1281 90.6921 52.3678 90.6921 52.7273C90.6921 52.9669 90.9308 53.2066 91.2888 53.2066C91.5274 53.2066 91.7661 52.9669 91.7661 52.6074C91.6468 52.3678 91.4081 52.1281 91.1694 52.1281ZM99.0453 51.8884C98.8067 51.8884 98.568 52.1281 98.568 52.4876C98.568 52.7273 98.8067 52.9669 99.1647 52.9669C99.4033 52.9669 99.642 52.7273 99.642 52.3678C99.642 52.1281 99.4033 51.8884 99.0453 51.8884ZM103.103 51.7686C102.864 51.7686 102.625 52.0083 102.625 52.3678C102.625 52.6074 102.864 52.8471 103.222 52.8471C103.461 52.8471 103.699 52.6074 103.699 52.2479C103.58 52.0083 103.341 51.7686 103.103 51.7686ZM101.193 55.7231C101.432 55.7231 101.671 55.4835 101.671 55.2438C101.671 55.0041 101.432 54.7645 101.193 54.7645C100.955 54.7645 100.716 55.0041 100.716 55.2438C100.716 55.4835 100.955 55.7231 101.193 55.7231ZM97.2554 55.843C97.494 55.843 97.7327 55.6033 97.7327 55.3636C97.7327 55.124 97.494 54.8843 97.2554 54.8843C97.0167 54.8843 96.778 55.124 96.778 55.3636C96.778 55.6033 97.0167 55.843 97.2554 55.843ZM66.7064 35.2314C66.1098 35.2314 65.7518 35.7107 65.7518 36.3099C65.7518 36.9091 66.2291 37.2686 66.8258 37.2686C67.4224 37.2686 67.7804 36.7893 67.7804 36.1901C67.6611 35.7107 67.1838 35.2314 66.7064 35.2314ZM70.6444 35.1116C70.0477 35.1116 69.6897 35.5909 69.6897 36.1901C69.6897 36.7893 70.1671 37.1488 70.7637 37.1488C71.3604 37.1488 71.7184 36.6694 71.7184 36.0702C71.7184 35.5909 71.2411 35.1116 70.6444 35.1116ZM78.6396 34.8719C78.043 34.8719 77.685 35.3512 77.685 35.9504C77.685 36.5496 78.1623 36.9091 78.7589 36.9091C79.3556 36.9091 79.7136 36.4297 79.7136 35.8306C79.7136 35.3512 79.2363 34.8719 78.6396 34.8719ZM86.6348 34.7521C86.0382 34.7521 85.6802 35.2314 85.6802 35.8306C85.6802 36.4297 86.1575 36.7893 86.7542 36.7893C87.3508 36.7893 87.7088 36.3099 87.7088 35.7107C87.7088 35.1116 87.2315 34.6322 86.6348 34.7521ZM74.7017 34.9917C74.105 34.9917 73.747 35.4711 73.747 36.0702C73.747 36.6694 74.2243 37.0289 74.821 37.0289C75.4177 37.0289 75.7757 36.5496 75.7757 35.9504C75.6563 35.4711 75.179 34.9917 74.7017 34.9917ZM82.6969 34.8719C82.1002 34.8719 81.7422 35.3512 81.7422 35.9504C81.7422 36.5496 82.2196 36.9091 82.8162 36.9091C83.4129 36.9091 83.7709 36.4297 83.7709 35.8306C83.6516 35.2314 83.1742 34.7521 82.6969 34.8719ZM76.7303 37.8678C76.253 37.8678 75.7757 38.3471 75.7757 38.8264C75.7757 39.3058 76.253 39.7851 76.7303 39.7851C77.2076 39.7851 77.685 39.3058 77.685 38.8264C77.685 38.3471 77.2076 37.8678 76.7303 37.8678ZM84.7255 37.6281C84.2482 37.6281 83.7709 38.1074 83.7709 38.5868C83.7709 39.0661 84.2482 39.5455 84.7255 39.5455C85.2029 39.5455 85.6802 39.0661 85.6802 38.5868C85.6802 38.1074 85.2029 37.6281 84.7255 37.6281ZM72.7924 37.9876C72.315 37.9876 71.8377 38.4669 71.8377 38.9463C71.8377 39.4256 72.315 39.905 72.7924 39.905C73.2697 39.905 73.747 39.4256 73.747 38.9463C73.6277 38.3471 73.2697 37.9876 72.7924 37.9876ZM80.7876 37.7479C80.3103 37.7479 79.8329 38.2273 79.8329 38.7066C79.8329 39.1859 80.3103 39.6653 80.7876 39.6653C81.2649 39.6653 81.7422 39.1859 81.7422 38.7066C81.6229 38.2273 81.2649 37.7479 80.7876 37.7479ZM74.821 40.8636C74.3437 40.8636 73.9857 41.2231 73.9857 41.7025C73.9857 42.1818 74.3437 42.5413 74.821 42.5413C75.2983 42.5413 75.6563 42.1818 75.6563 41.7025C75.6563 41.2231 75.2983 40.8636 74.821 40.8636ZM87.3508 40.7438C87.2315 40.624 86.9928 40.624 86.8735 40.624C86.3962 40.624 86.0382 40.9835 86.0382 41.4628C86.0382 41.9421 86.3962 42.3016 86.8735 42.3016C87.3508 42.3016 87.7088 41.9421 87.7088 41.4628C87.7088 41.1033 87.4702 40.8636 87.3508 40.7438ZM78.8783 40.7438C78.401 40.7438 78.043 41.1033 78.043 41.5826C78.043 42.062 78.401 42.4215 78.8783 42.4215C79.3556 42.4215 79.7136 42.062 79.7136 41.5826C79.7136 41.1033 79.2363 40.7438 78.8783 40.7438ZM70.8831 40.9835C70.4057 40.9835 70.0477 41.343 70.0477 41.8223C70.0477 42.3017 70.4057 42.6612 70.8831 42.6612C71.3604 42.6612 71.7184 42.3017 71.7184 41.8223C71.7184 41.343 71.3604 40.9835 70.8831 40.9835ZM82.8162 40.624C82.3389 40.624 81.9809 40.9835 81.9809 41.4628C81.9809 41.9421 82.3389 42.3016 82.8162 42.3016C83.2936 42.3016 83.6516 41.9421 83.6516 41.4628C83.6516 40.9835 83.2936 40.624 82.8162 40.624ZM76.8496 43.7397C76.3723 43.7397 76.1337 44.0992 76.1337 44.5785C76.1337 45.0578 76.4916 45.2975 76.969 45.2975C77.4463 45.2975 77.685 44.938 77.685 44.4587C77.685 44.0992 77.327 43.7397 76.8496 43.7397ZM84.8449 43.5C84.3675 43.5 84.1289 43.8595 84.1289 44.3388C84.1289 44.6983 84.4869 45.0578 84.9642 45.0578C85.4415 45.0578 85.6802 44.6983 85.6802 44.219C85.6802 43.8595 85.3222 43.5 84.8449 43.5ZM80.9069 43.6198C80.4296 43.6198 80.1909 43.9793 80.1909 44.4587C80.1909 44.938 80.5489 45.1777 81.0263 45.1777C81.5036 45.1777 81.7422 44.8182 81.7422 44.3388C81.6229 43.9793 81.2649 43.6198 80.9069 43.6198ZM72.9117 43.8595C72.4344 43.8595 72.1957 44.219 72.1957 44.6983C72.1957 45.1777 72.5537 45.4174 73.031 45.4174C73.5084 45.4174 73.747 45.0578 73.747 44.5785C73.747 44.219 73.389 43.8595 72.9117 43.8595ZM68.9737 43.9793C68.4964 43.9793 68.2578 44.3388 68.2578 44.8182C68.2578 45.2975 68.6158 45.5372 69.0931 45.5372C69.5704 45.5372 69.8091 45.1777 69.8091 44.6983C69.6897 44.3388 69.3317 43.9793 68.9737 43.9793ZM82.9356 46.4959C82.5776 46.4959 82.2196 46.8554 82.2196 47.2149C82.2196 47.5744 82.5776 47.9339 82.9356 47.9339C83.2936 47.9339 83.6516 47.5744 83.6516 47.2149C83.6516 46.7355 83.4129 46.4959 82.9356 46.4959ZM78.9976 46.6157C78.6396 46.6157 78.2816 46.9752 78.2816 47.3347C78.2816 47.6942 78.6396 48.0537 78.9976 48.0537C79.3556 48.0537 79.7136 47.6942 79.7136 47.3347C79.7136 46.8554 79.3556 46.6157 78.9976 46.6157ZM74.9403 46.7355C74.5823 46.7355 74.2243 47.095 74.2243 47.4545C74.2243 47.814 74.5823 48.1735 74.9403 48.1735C75.2983 48.1735 75.6563 47.814 75.6563 47.4545C75.6563 46.9752 75.4177 46.7355 74.9403 46.7355ZM67.0644 46.9752C66.7064 46.9752 66.3484 47.3347 66.3484 47.6942C66.3484 48.0537 66.7064 48.4132 67.0644 48.4132C67.4224 48.4132 67.7804 48.0537 67.7804 47.6942C67.6611 47.2149 67.4224 46.9752 67.0644 46.9752ZM86.9928 46.376C86.6348 46.376 86.2769 46.7355 86.2769 47.095C86.2769 47.4545 86.6348 47.814 86.9928 47.814C87.3508 47.814 87.7088 47.4545 87.7088 47.095C87.7088 46.7355 87.3508 46.376 86.9928 46.376ZM77.0883 49.6116C76.7303 49.6116 76.4916 49.8512 76.4916 50.2107C76.4916 50.5702 76.7303 50.8099 77.0883 50.8099C77.4463 50.8099 77.685 50.5702 77.685 50.2107C77.685 49.8512 77.4463 49.6116 77.0883 49.6116ZM73.031 49.7314C72.673 49.7314 72.4344 49.9711 72.4344 50.3306C72.4344 50.6901 72.673 50.9297 73.031 50.9297C73.389 50.9297 73.6277 50.6901 73.6277 50.3306C73.747 49.9711 73.389 49.7314 73.031 49.7314ZM85.0835 49.3719C84.7255 49.3719 84.4869 49.6116 84.4869 49.9711C84.4869 50.3306 84.7255 50.5702 85.0835 50.5702C85.4415 50.5702 85.6802 50.3306 85.6802 49.9711C85.6802 49.6116 85.4415 49.3719 85.0835 49.3719ZM69.0931 49.8512C68.7351 49.8512 68.4964 50.0909 68.4964 50.4504C68.4964 50.8099 68.7351 51.0496 69.0931 51.0496C69.4511 51.0496 69.6897 50.8099 69.6897 50.4504C69.6897 50.0909 69.4511 49.8512 69.0931 49.8512ZM89.0215 49.2521C88.6635 49.2521 88.4248 49.4917 88.4248 49.8512C88.4248 50.2107 88.6635 50.4504 89.0215 50.4504C89.3795 50.4504 89.6181 50.2107 89.6181 49.8512C89.6181 49.4917 89.3795 49.2521 89.0215 49.2521ZM79.117 52.4876C78.8783 52.4876 78.6396 52.7273 78.6396 53.0868C78.6396 53.3264 78.8783 53.5661 79.2363 53.5661C79.4749 53.5661 79.7136 53.3264 79.7136 52.9669C79.7136 52.7273 79.4749 52.4876 79.117 52.4876ZM67.1838 52.7273C66.9451 52.7273 66.7064 52.9669 66.7064 53.3264C66.7064 53.5661 66.9451 53.8058 67.3031 53.8058C67.5418 53.8058 67.7804 53.5661 67.7804 53.2066C67.6611 52.9669 67.4224 52.7273 67.1838 52.7273ZM71.1217 52.7273C70.883 52.7273 70.6444 52.9669 70.6444 53.3264C70.6444 53.5661 70.8831 53.8058 71.2411 53.8058C71.4797 53.8058 71.7184 53.5661 71.7184 53.2066C71.7184 52.8471 71.4797 52.6074 71.1217 52.7273ZM75.179 52.6074C74.9403 52.6074 74.7017 52.8471 74.7017 53.2066C74.7017 53.4463 74.9403 53.6859 75.2983 53.6859C75.537 53.6859 75.7757 53.4463 75.7757 53.0868C75.6563 52.8471 75.4177 52.6074 75.179 52.6074ZM83.1742 52.3678C82.9356 52.3678 82.6969 52.6074 82.6969 52.9669C82.6969 53.2066 82.9356 53.4463 83.2936 53.4463C83.5322 53.4463 83.7709 53.2066 83.7709 52.8471C83.6516 52.6074 83.4129 52.3678 83.1742 52.3678ZM87.1122 52.2479C86.8735 52.2479 86.6348 52.4876 86.6348 52.8471C86.6348 53.0868 86.8735 53.3264 87.2315 53.3264C87.4702 53.3264 87.7088 53.0868 87.7088 52.7273C87.7088 52.4876 87.4702 52.2479 87.1122 52.2479ZM69.2124 56.562C69.4511 56.562 69.6897 56.3223 69.6897 56.0826C69.6897 55.843 69.4511 55.6033 69.2124 55.6033C68.9737 55.6033 68.7351 55.843 68.7351 56.0826C68.8544 56.3223 68.9737 56.562 69.2124 56.562ZM85.2029 56.0826C85.4415 56.0826 85.6802 55.843 85.6802 55.6033C85.6802 55.3636 85.4415 55.124 85.2029 55.124C84.9642 55.124 84.7255 55.3636 84.7255 55.6033C84.7255 55.9628 84.9642 56.0826 85.2029 56.0826ZM61.3365 56.8016C61.5752 56.8016 61.8138 56.562 61.8138 56.3223C61.8138 56.0826 61.5752 55.843 61.3365 55.843C61.0979 55.843 60.8592 56.0826 60.8592 56.3223C60.8592 56.562 60.9785 56.8016 61.3365 56.8016ZM89.2601 55.9628C89.4988 55.9628 89.7375 55.7231 89.7375 55.4835C89.7375 55.2438 89.4988 55.0041 89.2601 55.0041C89.0215 55.0041 88.7828 55.2438 88.7828 55.4835C88.7828 55.7231 89.0215 56.0826 89.2601 55.9628Z" fill="#231F20"/>
<path d="M93.1981 25.6446C93.7948 25.6446 94.2721 25.6446 94.7494 25.6446C94.6301 25.7645 94.5107 26.0041 94.2721 26.2438C94.0334 26.4835 93.7948 26.843 93.6754 27.3223C93.4368 27.8016 93.1981 28.281 93.0788 28.8802C92.9594 29.4793 92.8401 30.0785 92.7208 30.7975C92.7208 31.5165 92.7208 32.2355 92.9594 32.9545C93.3174 34.5124 94.0334 35.9504 95.2267 37.1488C95.8234 37.6281 96.4201 38.2273 97.136 38.5868C97.852 38.9463 98.568 39.3058 99.284 39.4256C99.8807 39.5455 100.358 39.6653 100.955 39.6653C100.955 39.7851 100.955 39.905 100.955 40.0248C100.955 40.3843 101.193 40.9835 101.432 41.5826C101.79 42.1818 102.267 42.781 102.983 43.3802C103.341 43.6198 103.699 43.8595 104.177 43.9793C104.654 44.0992 105.012 44.219 105.489 44.3388C106.444 44.4587 107.399 44.3388 108.115 43.9793C108.95 43.6198 109.547 43.1405 110.024 42.6612C110.501 42.1818 110.74 41.7025 110.859 41.343C110.859 41.2231 110.979 41.1033 110.979 40.9835C111.695 41.2231 112.53 41.343 113.246 41.343C114.081 41.343 115.036 41.2231 115.752 40.9835C116.587 40.624 117.422 40.2645 118.138 39.7851C118.854 39.3058 119.451 38.7066 119.928 38.1074C120.286 37.6281 120.644 37.0289 120.883 36.5496H121.002C121.36 36.4297 121.957 36.1901 122.673 35.7107C123.27 35.2314 123.986 34.6322 124.582 33.7934C124.821 33.4339 125.179 32.9545 125.298 32.4752C125.537 31.9959 125.656 31.5165 125.776 31.0372C125.895 30.1983 126.014 29.3595 125.895 28.6405C126.134 28.5207 126.611 28.281 126.969 28.0413C127.446 27.6818 127.804 27.2025 128.162 26.6033C128.282 26.2438 128.52 26.0041 128.64 25.6446C128.64 25.405 128.759 25.2851 128.759 25.1653C128.759 24.9256 128.759 24.8058 128.878 24.5661C128.878 23.8471 128.878 23.0083 128.52 22.4091C128.282 21.6901 127.924 21.2107 127.566 20.8512C127.208 20.4917 126.85 20.2521 126.611 20.0124C126.85 19.2934 127.088 18.5744 127.088 17.7355C127.088 16.8967 127.088 16.0578 126.85 15.219C126.611 14.3802 126.372 13.6612 125.895 12.8223C125.418 12.1033 124.94 11.5041 124.344 10.905C123.747 10.4256 123.15 9.94628 122.434 9.70661C121.838 9.34711 121.122 9.22727 120.525 9.10744C119.928 8.9876 119.332 8.9876 118.854 8.9876C118.735 8.9876 118.735 8.9876 118.616 8.9876C118.735 8.6281 118.854 8.26859 118.854 7.78926C118.854 7.54959 118.854 7.30992 118.854 7.07025C118.854 6.83058 118.854 6.59091 118.854 6.35124C118.735 5.39256 118.496 4.55372 118.019 3.71488C117.78 3.35537 117.542 2.87603 117.184 2.63636C116.826 2.27686 116.468 2.03719 116.11 1.67769C115.752 1.43802 115.274 1.19835 114.797 1.07851C114.32 0.958678 113.842 0.838843 113.365 0.719008C113.365 0 112.888 0 112.41 0C111.933 0 111.456 0.119835 110.979 0.239669C110.501 0.359504 110.143 0.599173 109.666 0.838843C109.308 1.07851 108.831 1.31818 108.592 1.67769C108.234 2.03719 107.876 2.39669 107.637 2.7562C107.399 3.1157 107.16 3.47521 107.041 3.83471H106.921C106.802 3.71488 106.563 3.59504 106.325 3.59504C105.967 3.47521 105.609 3.35537 105.251 3.35537C104.773 3.23554 104.296 3.23554 103.699 3.23554C102.625 3.23554 101.313 3.59504 100 4.19421C99.4033 4.55372 98.8067 5.03306 98.21 5.5124C98.0907 5.63223 97.9714 5.75207 97.852 5.8719L97.494 6.2314C97.2554 6.47107 97.0167 6.83058 96.778 7.19008C96.5394 7.66942 96.3007 8.02892 96.1814 8.50826C96.0621 8.50826 96.0621 8.50826 95.9427 8.6281C95.5847 8.74793 94.9881 8.9876 94.5107 9.34711C93.9141 9.70661 93.4368 10.3058 92.9594 11.1446C92.7208 11.5041 92.6014 11.9835 92.4821 12.343C92.3628 12.8223 92.3628 13.1818 92.3628 13.781C92.3628 14.7397 92.6014 15.6983 93.0788 16.4174C93.4368 17.1364 94.0334 17.6157 94.5107 17.9752C94.2721 17.9752 93.9141 17.8554 93.5561 17.8554C93.0788 17.8554 92.4821 17.7355 92.0048 17.7355C91.4081 17.7355 90.8115 17.7355 90.2148 17.8554C87.7088 17.9752 78.759 17.6157 78.759 17.6157L79.2363 19.5331C79.2363 19.5331 86.3962 20.2521 82.3389 21.4504H82.4582C82.3389 21.4504 82.3389 21.4504 82.3389 21.4504V21.5702C86.3962 22.7686 84.9642 25.1653 84.9642 25.1653V25.2851C84.9642 25.2851 88.0668 25.405 91.1695 25.5248C91.7661 25.5248 92.4821 25.6446 93.1981 25.6446Z" fill="white"/>
<path d="M77.4463 17.4959C77.4463 17.4959 81.8616 17.4959 86.2769 17.6157C87.3508 17.6157 88.5442 17.6157 89.4988 17.6157C90.5728 17.6157 91.5274 17.7355 92.3628 17.8554C94.0334 17.9752 95.1074 18.2149 95.1074 18.2149V18.3347C95.1074 18.3347 94.0334 18.4545 92.3628 18.4545C91.5274 18.4545 90.5728 18.4545 89.4988 18.4545C88.4248 18.3347 87.3508 18.3347 86.2769 18.2149C81.8616 17.7355 77.4463 17.4959 77.4463 17.4959Z" fill="#231F20"/>
<path d="M84.8449 25.1653C84.8449 25.1653 87.9475 25.0454 91.0501 25.0454C91.7661 25.0454 92.6014 25.0454 93.3174 25.0454C94.0334 25.0454 94.7494 25.0454 95.3461 25.1653C96.5394 25.2851 97.2554 25.4049 97.2554 25.4049V25.5248C97.2554 25.5248 96.5394 25.6446 95.3461 25.7644C94.7494 25.7644 94.1527 25.8843 93.3174 25.8843C92.6014 25.8843 91.8855 25.7644 91.0501 25.7644C87.9475 25.4049 84.8449 25.2851 84.8449 25.1653Z" fill="#231F20"/>
<path d="M82.2196 21.4504C82.2196 21.4504 86.1575 21.3306 90.2148 21.3306C91.1695 21.3306 92.2435 21.3306 93.0788 21.3306C94.0334 21.3306 94.8687 21.4504 95.5847 21.4504C97.0167 21.5702 98.0907 21.6901 98.0907 21.6901V21.8099C98.0907 21.8099 97.136 21.9297 95.5847 22.0496C94.8687 22.0496 93.9141 22.1694 93.0788 22.0496C92.1241 22.0496 91.1695 21.9297 90.2148 21.9297C86.1575 21.6901 82.2196 21.5702 82.2196 21.4504Z" fill="#231F20"/>
<path d="M106.802 37.2686C106.802 37.2686 106.683 37.3884 106.563 37.5083C106.444 37.6281 106.205 37.8678 105.967 37.9876C105.37 38.3471 104.535 38.9463 103.461 39.186C102.267 39.5455 100.835 39.6653 99.4034 39.3058C98.6874 39.0661 97.9714 38.8264 97.2554 38.4669C96.5394 38.1074 95.9427 37.5083 95.3461 37.0289C94.1528 35.8306 93.4368 34.3926 93.0788 32.8347C92.8401 32.1157 92.8401 31.3967 92.8401 30.6777C92.8401 29.9587 92.9594 29.3595 93.1981 28.7603C93.3174 28.1612 93.5561 27.6818 93.7948 27.2025C94.0334 26.7231 94.2721 26.4835 94.3914 26.124C94.6301 25.8843 94.7494 25.6446 94.8687 25.5248C94.9881 25.405 95.1074 25.2851 95.1074 25.2851C95.1074 25.2851 94.8687 25.6446 94.6301 26.2438C94.5107 26.4835 94.2721 26.843 94.1528 27.3223C94.0334 27.8017 93.9141 28.281 93.7948 28.7603C93.5561 29.8388 93.5561 31.157 94.0334 32.4752C94.1528 33.1942 94.5107 33.7934 94.8687 34.3926C95.2267 34.9917 95.7041 35.5909 96.1814 36.0702C96.778 36.6694 97.2554 37.0289 97.852 37.3884C98.4487 37.7479 99.1647 37.9876 99.7613 38.2273C101.074 38.5868 102.387 38.7066 103.461 38.4669C104.535 38.2273 105.489 37.9876 106.086 37.6281C106.444 37.3884 106.802 37.2686 106.802 37.2686Z" fill="#231F20"/>
<path d="M123.27 23.0083C123.27 23.0083 123.508 23.1281 123.747 23.4876C124.105 23.8471 124.463 24.2066 124.94 24.9256C125.298 25.5248 125.656 26.4835 125.895 27.4422C126.134 28.4008 126.014 29.4793 125.895 30.438C125.776 30.9174 125.656 31.5165 125.418 31.876C125.179 32.3554 124.94 32.8347 124.702 33.1942C124.105 34.0331 123.508 34.6322 122.792 35.1116C122.196 35.5909 121.599 35.8306 121.122 35.9504C120.764 36.0703 120.406 36.1901 120.406 36.1901C120.406 36.1901 120.644 36.0703 121.002 35.8306C121.36 35.5909 121.838 35.2314 122.315 34.7521C122.792 34.2727 123.389 33.5537 123.747 32.8347C123.986 32.4752 124.224 31.9959 124.344 31.6364C124.463 31.157 124.702 30.7975 124.702 30.3182C125.179 28.5207 124.821 26.6033 124.224 25.2851C123.986 24.5661 123.628 24.0868 123.389 23.7273C123.389 23.2479 123.27 23.0083 123.27 23.0083Z" fill="#231F20"/>
<path d="M116.826 8.6281C116.826 8.6281 116.945 8.6281 117.064 8.50826C117.303 8.50826 117.542 8.38843 117.9 8.26859C118.258 8.14876 118.735 8.14876 119.212 8.14876C119.69 8.14876 120.286 8.14876 120.883 8.26859C122.076 8.50826 123.508 9.10744 124.582 10.1859C125.179 10.6653 125.656 11.3843 126.134 12.1033C126.611 12.8223 126.85 13.6612 127.088 14.3802C127.208 15.219 127.327 16.0578 127.327 16.8967C127.208 17.7355 127.088 18.5744 126.85 19.2934C126.253 20.7314 125.298 21.9297 124.344 22.7686C123.866 23.1281 123.389 23.4876 122.912 23.7273C122.434 23.9669 122.076 24.0868 121.718 24.2066C121.36 24.3264 121.122 24.3264 120.883 24.4463C120.644 24.4463 120.644 24.4463 120.644 24.4463C120.644 24.4463 120.764 24.4463 120.883 24.3264C121.002 24.2066 121.36 24.2066 121.599 23.9669C121.957 23.8471 122.315 23.6074 122.673 23.3678C123.031 23.1281 123.508 22.7686 123.866 22.4091C124.224 22.0496 124.702 21.5702 125.06 20.9711C125.418 20.3719 125.656 19.7727 125.895 19.1736C126.134 18.4545 126.253 17.7355 126.253 17.0165C126.253 16.2975 126.253 15.5785 126.014 14.8595C125.656 13.4215 124.94 12.1033 123.866 11.0248C123.389 10.5455 122.792 10.0661 122.315 9.82644C121.718 9.46694 121.122 9.22727 120.644 9.10744C120.048 8.9876 119.57 8.86777 119.093 8.74793C118.616 8.74793 118.258 8.6281 117.9 8.74793C117.542 8.74793 117.303 8.74793 117.064 8.74793C116.945 8.6281 116.826 8.6281 116.826 8.6281Z" fill="#231F20"/>
<path d="M118.735 8.38843C118.854 7.90909 118.974 7.54959 118.974 7.07025C118.974 6.59091 118.854 6.23141 118.854 5.75207C118.735 4.91322 118.377 4.07438 117.9 3.47521C117.422 2.7562 116.826 2.27686 116.11 1.79752C115.752 1.55785 115.394 1.43802 115.036 1.31818C114.678 1.19835 114.2 1.07851 113.842 1.07851C113.365 0.958678 113.127 0.958678 112.649 1.07851C112.172 1.07851 111.814 1.19835 111.456 1.31818C111.098 1.43802 110.621 1.55785 110.263 1.79752C109.905 2.03719 109.547 2.15702 109.189 2.51653C108.831 2.7562 108.592 3.1157 108.234 3.35537C107.995 3.71488 107.757 4.07438 107.518 4.43388C107.041 5.15289 106.802 5.99174 106.683 6.95041C106.683 6.47107 106.683 6.11157 106.683 5.63223C106.802 5.15289 106.802 4.79339 107.041 4.31405C107.16 3.83471 107.399 3.47521 107.637 3.1157C107.876 2.39669 108.234 2.03719 108.592 1.67769C108.95 1.31818 109.308 1.07851 109.666 0.838843C110.024 0.599174 110.501 0.359504 110.979 0.239669C111.456 0.119835 111.933 0 112.411 0C112.888 0 113.365 0 113.842 0C114.32 0.119835 114.797 0.239669 115.274 0.359504C115.752 0.479339 116.11 0.719008 116.587 0.958678C116.945 1.19835 117.303 1.55785 117.661 1.91736C118.019 2.27686 118.258 2.63636 118.496 2.99587C118.974 3.83471 119.212 4.67355 119.332 5.63223C119.332 6.11157 119.332 6.59091 119.332 6.95041C119.093 7.54959 119.093 8.02893 118.735 8.38843Z" fill="#231F20"/>
<path d="M107.16 3.95454C107.16 3.95454 106.802 3.83471 106.205 3.83471C105.609 3.71487 104.654 3.71487 103.699 3.83471C102.625 3.95454 101.551 4.43388 100.358 5.03305C99.7613 5.39256 99.284 5.75206 98.8067 6.2314C98.6874 6.35124 98.568 6.47107 98.4487 6.59091L98.0907 6.95041C97.9714 7.19008 97.852 7.54958 97.6134 7.78925C97.2554 8.38843 97.0167 8.9876 96.778 9.58677C96.5394 10.1859 96.4201 10.905 96.4201 11.5041C96.4201 12.1033 96.4201 12.8223 96.5394 13.3017C96.6587 13.9008 96.778 14.3802 96.8974 14.9793C97.136 15.4587 97.2554 15.938 97.494 16.2975C97.7327 16.657 97.9714 17.0165 98.0907 17.2562C98.4487 17.7355 98.6874 17.9752 98.6874 17.9752C98.6874 17.9752 98.568 17.9752 98.4487 17.8554C98.3294 17.7355 98.0907 17.6157 97.852 17.376C97.3747 16.8967 96.778 16.1777 96.3007 15.219C96.0621 14.7397 95.8234 14.1405 95.7041 13.5413C95.5847 12.9421 95.4654 12.2231 95.4654 11.5041C95.4654 10.7851 95.5847 10.0661 95.8234 9.3471C96.0621 8.6281 96.3007 7.90909 96.6587 7.30991C96.8974 6.95041 97.136 6.59091 97.3747 6.35124L97.852 5.8719C97.9714 5.75206 98.0907 5.63223 98.21 5.51239C98.6874 5.03305 99.4034 4.55372 100 4.19421C101.193 3.4752 102.625 3.23553 103.699 3.23553C104.296 3.23553 104.773 3.23553 105.251 3.35537C105.728 3.4752 106.086 3.4752 106.325 3.59504C106.683 3.71487 106.802 3.83471 107.041 3.83471C107.16 3.83471 107.16 3.95454 107.16 3.95454Z" fill="#231F20"/>
<path d="M118.854 20.2521C118.854 20.2521 118.616 19.7727 118.138 19.0537C117.9 18.6942 117.542 18.3347 117.184 17.9752C116.826 17.6157 116.348 17.2562 115.871 17.1364C115.394 16.8967 114.916 16.7769 114.439 16.657C114.2 16.657 113.962 16.5372 113.723 16.5372C113.484 16.5372 113.246 16.5372 113.007 16.5372C112.53 16.5372 112.291 16.5372 111.933 16.5372C111.695 16.5372 111.575 16.5372 111.575 16.5372C111.575 16.5372 111.695 16.5372 111.933 16.4174C112.172 16.4174 112.53 16.1777 113.007 16.1777C113.484 16.0578 113.962 16.0578 114.558 16.0578C114.797 16.0578 115.155 16.1777 115.394 16.1777C115.632 16.2975 115.99 16.4174 116.229 16.5372C116.826 16.7769 117.303 17.1364 117.661 17.6157C118.019 18.095 118.258 18.4545 118.496 18.9339C118.854 19.7727 118.854 20.2521 118.854 20.2521Z" fill="#231F20"/>
<path d="M110.501 12.8223C110.501 12.8223 110.024 12.4628 109.189 12.1033C108.831 11.8636 108.353 11.7438 107.757 11.624C107.279 11.5041 106.683 11.5041 106.205 11.5041C105.609 11.5041 105.131 11.624 104.654 11.7438C104.415 11.8636 104.177 11.9835 103.938 11.9835C103.699 12.1033 103.461 12.2231 103.341 12.343C102.983 12.5826 102.625 12.7025 102.387 12.8223C102.148 12.9421 102.029 13.062 102.029 13.062C102.029 13.062 102.148 12.9422 102.267 12.7025C102.506 12.5826 102.625 12.2231 103.103 11.9835C103.461 11.7438 103.938 11.3843 104.415 11.1446C104.654 11.0248 105.012 10.905 105.251 10.905C105.609 10.905 105.847 10.7851 106.205 10.7851C106.802 10.7851 107.399 10.905 107.995 11.0248C108.592 11.1446 109.069 11.5041 109.427 11.7438C110.143 12.343 110.501 12.8223 110.501 12.8223Z" fill="#231F20"/>
<path d="M96.6587 18.814C96.6587 18.814 96.6587 18.814 96.5394 18.814C96.4201 18.814 96.3007 18.814 96.0621 18.6942C95.7041 18.5744 95.1074 18.4545 94.6301 18.095C94.0334 17.7355 93.4368 17.1364 93.0788 16.4173C92.6014 15.6983 92.3628 14.7397 92.3628 13.781C92.3628 13.3016 92.3628 12.8223 92.4821 12.343C92.6014 11.8636 92.7208 11.5041 92.9594 11.1446C93.3174 10.4256 93.9141 9.82644 94.5107 9.3471C95.1074 8.98759 95.5847 8.74792 95.9427 8.62809C96.3007 8.50825 96.5394 8.50826 96.5394 8.50826C96.5394 8.50826 96.3007 8.62809 96.0621 8.86776C95.7041 9.10743 95.3461 9.3471 94.8687 9.82644C94.3914 10.3058 94.0334 10.905 93.7947 11.5041C93.6754 11.8636 93.5561 12.2231 93.4368 12.5826C93.3174 12.9421 93.3174 13.4215 93.3174 13.781C93.3174 14.6198 93.5561 15.3388 93.7947 16.0578C94.1527 16.7769 94.5107 17.2562 94.9881 17.7355C95.4654 18.2149 95.8234 18.4545 96.1814 18.6942C96.5394 18.814 96.6587 18.814 96.6587 18.814Z" fill="#231F20"/>
<path d="M111.217 40.3843C111.217 40.3843 111.217 40.3843 111.217 40.5041C111.217 40.624 111.217 40.7438 111.098 40.9835C110.979 41.343 110.74 41.8223 110.263 42.3016C109.785 42.781 109.189 43.3802 108.353 43.6198C107.518 43.9793 106.563 44.0992 105.728 43.9793C105.251 43.8595 104.893 43.8595 104.415 43.6198C103.938 43.5 103.58 43.2603 103.222 43.0207C102.506 42.5413 102.029 41.8223 101.671 41.2231C101.313 40.624 101.193 40.0248 101.193 39.6653C101.193 39.3058 101.193 39.0661 101.193 39.0661C101.193 39.0661 101.313 39.3058 101.432 39.6653C101.551 40.0248 101.79 40.5041 102.267 40.9835C102.625 41.4628 103.222 41.9421 103.819 42.3016C104.177 42.5413 104.535 42.6611 104.893 42.781C105.251 42.9008 105.609 43.0207 105.967 43.0207C106.683 43.1405 107.518 43.0206 108.234 42.781C108.95 42.5413 109.547 42.1818 110.024 41.8223C110.501 41.4628 110.859 41.1033 111.098 40.7438C111.098 40.5041 111.217 40.3843 111.217 40.3843Z" fill="#231F20"/>
<path d="M126.253 19.0537C126.253 19.0537 126.372 19.1736 126.73 19.2934C126.969 19.4132 127.327 19.6529 127.804 20.1322C128.162 20.4917 128.52 21.0909 128.759 21.6901C128.998 22.2893 129.117 23.1281 129.117 23.8471C129.117 24.0868 129.117 24.2066 128.998 24.4463C128.998 24.5661 128.878 24.8058 128.878 24.9256C128.759 25.2851 128.64 25.6446 128.401 25.8843C128.043 26.4835 127.566 26.9628 127.208 27.3223C126.73 27.6818 126.372 27.8017 126.134 27.9215C125.895 28.0413 125.656 28.0413 125.656 28.0413C125.656 28.0413 125.776 27.9215 126.014 27.6818C126.253 27.4422 126.492 27.2025 126.85 26.843C127.208 26.4835 127.446 26.0041 127.685 25.405C127.804 25.1653 127.924 24.8058 127.924 24.5661C127.924 24.4463 128.043 24.3265 128.043 24.0868C128.043 23.967 128.043 23.7273 128.043 23.6074C128.162 22.2893 127.804 21.0909 127.327 20.2521C127.088 19.7727 126.85 19.4132 126.611 19.2934C126.372 19.1736 126.253 19.0537 126.253 19.0537Z" fill="#231F20"/>
<path d="M106.563 28.8802C106.563 28.8802 106.444 29 106.086 29C105.847 29.1198 105.37 29.2397 104.893 29.2397C104.415 29.2397 103.819 29.2397 103.103 29.1198C102.506 29 101.79 28.6405 101.313 28.1611C101.074 27.9215 100.835 27.6818 100.597 27.4421C100.358 27.2025 100.239 26.843 100 26.6033C99.642 26.0041 99.5227 25.4049 99.4033 24.9256C99.284 24.4463 99.4033 23.9669 99.4033 23.7273C99.4033 23.4876 99.5227 23.2479 99.5227 23.2479C99.5227 23.2479 99.5227 23.3678 99.5227 23.7273C99.5227 23.9669 99.642 24.4463 99.7613 24.9256C100 25.8843 100.716 26.9628 101.671 27.6818C102.625 28.5207 103.819 28.8802 104.773 28.8802C105.251 28.8802 105.609 28.8802 105.967 28.8802C106.325 28.8802 106.563 28.8802 106.563 28.8802Z" fill="#231F20"/>
<path d="M119.332 26.7231C119.332 26.7231 119.212 27.3223 118.735 27.9215C118.496 28.281 118.138 28.6405 117.78 29C117.422 29.3595 116.826 29.5992 116.348 29.8388C116.11 29.9587 115.752 29.9587 115.513 30.0785C115.274 30.0785 114.916 30.1984 114.678 30.1984C114.2 30.1984 113.604 30.0785 113.246 29.9587C112.41 29.719 112.052 29.3595 112.052 29.3595C112.052 29.3595 112.172 29.3595 112.41 29.4793C112.649 29.5992 113.007 29.5992 113.365 29.5992C113.723 29.5992 114.2 29.5992 114.678 29.5992C114.916 29.5992 115.155 29.4793 115.394 29.4793C115.632 29.4793 115.871 29.3595 116.11 29.2397C117.064 28.8802 117.9 28.281 118.496 27.6818C118.735 27.4422 118.974 27.2025 119.093 26.9628C119.332 26.843 119.332 26.7231 119.332 26.7231Z" fill="#231F20"/>
<path d="M127.208 56.4421C126.372 56.4421 125.537 56.2025 124.821 55.9628C123.986 55.7231 123.389 55.2438 122.792 54.8843C122.196 54.405 121.599 53.9256 121.241 53.4463C121.002 53.2066 120.764 52.8471 120.644 52.6074C120.644 52.6074 120.644 52.6074 120.525 52.6074C120.525 52.6074 120.525 52.6074 120.406 52.6074L120.286 52.7273C120.167 52.8471 120.048 52.9669 119.809 53.0868C118.974 53.5661 118.138 53.9256 117.184 54.1653C116.706 54.2851 116.11 54.2851 115.632 54.2851C114.797 54.2851 113.962 54.1653 113.246 53.9256C112.53 53.6859 111.814 53.3264 111.217 52.9669C110.621 52.6074 110.024 52.1281 109.427 51.4091C108.353 50.0909 107.637 48.6529 107.518 47.2149C107.399 46.376 107.399 45.657 107.518 45.0578C107.637 44.3388 107.757 43.7397 107.995 43.2603C108.115 42.781 108.353 42.3017 108.711 41.8223C108.95 41.4628 109.189 41.1033 109.427 40.8636C109.547 40.7438 109.666 40.5041 109.785 40.5041C109.905 40.5041 110.143 40.1446 110.143 40.1446V40.0248C110.143 40.0248 110.143 39.905 110.024 39.905H109.666C109.069 39.905 107.757 39.905 105.967 39.7851H105.489C104.415 39.7851 103.103 39.6653 101.79 39.5455L84.1289 37.8678C84.1289 37.8678 82.2196 35.3512 78.5203 33.9132H78.6396C78.759 33.9132 78.759 33.9132 78.759 33.7934C83.8902 33.0744 84.6062 31.2769 84.6062 30.9174L85.7995 31.0372C86.8735 31.157 87.9475 31.157 89.1408 31.2769C91.1695 31.3967 93.1981 31.6364 95.2267 31.6364H95.8234C96.1814 31.6364 96.5394 31.5165 96.8974 31.3967C97.136 31.2769 97.3747 31.2769 97.6134 31.157C98.568 30.9174 99.642 30.9174 100.597 30.9174C101.074 30.9174 101.432 30.9174 101.909 30.9174C102.148 30.9174 102.506 30.9174 102.745 30.9174C102.983 30.9174 103.103 30.9174 103.341 30.9174C103.699 30.9174 103.938 31.0372 104.296 31.0372C104.893 31.157 105.489 31.2769 106.086 31.2769C107.041 31.2769 107.518 30.438 107.876 29.719C107.995 29.4793 108.115 29.2397 108.353 29C108.95 28.1612 110.024 26.9628 111.217 26.124C111.575 25.8843 111.814 25.7645 112.053 25.6446C112.172 25.1653 112.172 25.1653 112.172 25.1653L112.291 24.8058L112.411 24.5661C112.53 24.3264 112.649 23.9669 112.769 23.7273C112.888 23.3678 113.127 23.0083 113.485 22.5289C113.723 22.1694 114.081 21.8099 114.439 21.4504C114.916 21.0909 115.274 20.7314 115.632 20.4917C116.11 20.2521 116.587 20.0124 116.945 19.8926C117.422 19.6529 117.9 19.6529 118.377 19.5331C118.735 19.4132 119.093 19.4132 119.69 19.4132C120.167 19.4132 120.525 19.4132 120.883 19.5331C121.48 19.6529 121.957 19.7727 122.554 20.0124C122.792 20.1322 122.912 20.1322 123.031 20.2521C123.031 20.2521 123.031 20.2521 123.15 20.2521C123.15 20.2521 123.27 20.2521 123.27 20.1322C123.389 19.7727 123.508 19.5331 123.628 19.2934C123.866 18.814 124.105 18.4545 124.344 18.095C124.582 17.7355 124.821 17.4959 125.298 17.1364C125.656 16.8967 126.014 16.657 126.492 16.4173C126.969 16.1777 127.327 16.0578 127.804 15.938C128.282 15.8182 128.759 15.8182 129.236 15.8182C129.714 15.8182 130.191 15.8182 130.549 15.938C131.026 16.0578 131.504 16.1777 131.862 16.4173C132.22 16.657 132.697 16.8967 133.055 17.1364C133.413 17.376 133.771 17.7355 134.01 18.095C134.248 18.4545 134.606 18.814 134.726 19.2934C135.084 20.1322 135.322 20.9711 135.442 21.9297C135.442 22.1694 135.442 22.4091 135.442 22.6488C135.442 22.8884 135.442 23.1281 135.322 23.3678C135.203 23.7273 135.084 24.0868 134.964 24.4463V24.5661C134.964 24.5661 134.964 24.5661 135.084 24.5661H135.203C135.8 24.5661 136.396 24.6859 136.874 24.8058C137.351 24.9256 138.067 25.1653 138.664 25.5248C139.26 25.8843 139.857 26.2438 140.453 26.843C140.931 27.4421 141.408 28.0413 141.885 28.7603C142.243 29.4793 142.482 30.1983 142.721 31.157C142.84 31.7562 142.84 32.7149 142.721 33.6735C142.601 34.5124 142.363 35.2314 142.005 35.9504C141.885 36.1901 141.766 36.4298 141.647 36.6694C141.647 36.6694 141.647 36.7893 141.647 36.9091L141.766 37.0289C142.243 37.3884 142.721 37.9876 143.198 38.7066C143.556 39.3058 144.033 40.3843 144.272 41.8223C144.391 43.0207 144.272 44.3388 143.795 45.5372C143.556 46.0165 143.317 46.7355 142.959 47.2149C142.601 47.814 142.124 48.1735 141.766 48.6529C141.289 49.0124 140.811 49.3719 140.334 49.6116C139.976 49.8512 139.499 50.0909 138.902 50.2107C138.186 50.4504 137.47 50.5702 136.754 50.5702H136.635C136.516 50.5702 136.396 50.5702 136.277 50.5702H136.158C136.158 50.5702 136.038 50.5702 136.038 50.6901C135.919 51.0496 135.8 51.4091 135.561 51.8884C135.322 52.4876 134.845 53.2066 134.248 53.8058C133.771 54.405 133.055 54.8843 132.339 55.3636C131.623 55.7231 130.907 56.0826 129.952 56.3223C129.236 56.4421 128.52 56.562 127.804 56.562C127.446 56.4421 127.327 56.4421 127.208 56.4421Z" fill="white"/>
<path d="M81.0263 28.8802C81.0263 28.8802 87.5895 29.2397 94.0334 29.5992C95.7041 29.719 97.2554 29.8389 98.8067 29.8389C100.358 29.9587 101.79 30.0785 102.983 30.1984C105.37 30.438 107.041 30.6777 107.041 30.6777V30.7975C107.041 30.7975 105.37 30.7975 102.983 30.6777C101.79 30.6777 100.358 30.5579 98.8067 30.438C97.2554 30.3182 95.7041 30.1984 94.0334 29.9587C87.4702 29.5992 80.9069 29 81.0263 28.8802Z" fill="#231F20"/>
<path d="M83.8902 37.7479C83.8902 37.7479 90.4535 38.1074 96.8974 38.4669C98.568 38.5868 100.119 38.7066 101.671 38.7066C103.222 38.8265 104.654 38.9463 105.847 39.0661C108.234 39.3058 109.905 39.5455 109.905 39.5455V39.6653C109.905 39.6653 108.234 39.6653 105.847 39.5455C104.654 39.5455 103.222 39.4256 101.671 39.3058C100.119 39.186 98.568 39.0661 96.8974 38.8265C90.4535 38.467 83.8902 37.8678 83.8902 37.7479Z" fill="#231F20"/>
<path d="M103.461 34.5124C101.909 34.3926 100.239 34.1529 98.3294 34.0331C96.4201 33.9132 94.3914 33.7934 92.3628 33.6736C86.9928 33.3141 81.7423 33.0744 78.759 32.8347V32.9546C81.7423 33.1942 87.1122 33.6736 92.3628 34.1529C94.3914 34.2727 96.4201 34.5124 98.3294 34.6322C100.239 34.7521 102.029 34.8719 103.461 34.9917C106.444 35.1116 108.592 35.1116 108.592 35.1116V34.9917C108.592 35.1116 106.563 34.8719 103.461 34.5124Z" fill="#231F20"/>
<path d="M120.764 52.4876C120.764 52.4876 120.644 52.4876 120.525 52.6074C120.406 52.7273 120.167 52.8471 119.928 53.0868C119.332 53.4463 118.496 53.9256 117.303 54.1653C116.11 54.405 114.678 54.405 113.246 53.9256C112.53 53.686 111.814 53.3264 111.098 52.9669C110.382 52.6074 109.785 52.0083 109.308 51.4091C108.234 50.0909 107.518 48.6529 107.279 47.095C107.16 46.376 107.16 45.657 107.279 44.938C107.399 44.219 107.518 43.6198 107.757 43.0207C107.995 42.4215 108.234 41.9422 108.473 41.5826C108.711 41.2231 108.95 40.8636 109.189 40.624C109.427 40.3843 109.666 40.1446 109.785 40.0248C109.905 39.905 110.024 39.7851 110.024 39.7851C110.024 39.7851 109.785 40.1446 109.427 40.624C109.308 40.8636 109.069 41.2231 108.831 41.7025C108.592 42.1818 108.473 42.6612 108.353 43.1405C108.115 44.219 107.995 45.5372 108.234 46.8554C108.353 47.5744 108.592 48.1736 108.95 48.8926C109.308 49.4917 109.666 50.0909 110.143 50.6901C110.621 51.2893 111.098 51.7686 111.814 52.1281C112.411 52.4876 113.007 52.8471 113.723 53.0868C115.036 53.5661 116.348 53.686 117.422 53.5661C118.496 53.4463 119.451 53.2066 120.048 52.8471C120.525 52.6074 120.764 52.4876 120.764 52.4876Z" fill="#231F20"/>
<path d="M140.931 36.3099C140.931 36.3099 141.05 36.3099 141.169 36.4298C141.289 36.5496 141.408 36.6694 141.647 36.7893C142.005 37.1488 142.601 37.7479 143.079 38.5868C143.556 39.4256 144.033 40.5041 144.153 41.7025C144.272 42.9008 144.153 44.219 143.675 45.4174C143.437 46.0165 143.079 46.6157 142.721 47.095C142.363 47.6942 141.885 48.0537 141.527 48.5331C140.573 49.3719 139.618 49.8512 138.664 50.2107C137.709 50.5703 136.993 50.5703 136.396 50.5703C136.158 50.5703 135.919 50.5703 135.8 50.5703C135.68 50.5703 135.561 50.5703 135.561 50.5703C135.561 50.5703 135.919 50.5702 136.396 50.4504C136.874 50.3306 137.709 50.0909 138.425 49.7314C138.783 49.4917 139.26 49.2521 139.618 49.0124C140.095 48.7727 140.453 48.4132 140.811 47.9339C141.169 47.5744 141.527 47.095 141.885 46.6157C142.243 46.1364 142.482 45.657 142.601 45.0579C143.437 42.9008 143.198 40.3843 142.482 38.8265C142.124 37.9876 141.766 37.3884 141.408 36.9091C141.169 36.5496 140.931 36.3099 140.931 36.3099Z" fill="#231F20"/>
<path d="M132.697 24.5661C132.697 24.5661 132.816 24.5661 132.936 24.4463C133.174 24.4463 133.413 24.3265 133.771 24.3265C134.129 24.3265 134.606 24.2066 135.084 24.3265C135.561 24.3265 136.158 24.4463 136.754 24.5661C137.947 24.9256 139.26 25.5248 140.334 26.7231C140.931 27.3223 141.408 27.9215 141.766 28.6405C142.124 29.3595 142.363 30.1984 142.601 31.0372C142.721 31.7562 142.721 32.7149 142.601 33.5537C142.482 34.3926 142.243 35.1116 141.885 35.8306C141.289 37.2686 140.215 38.3471 139.26 39.0661C138.783 39.4256 138.305 39.6653 137.828 39.905C137.351 40.1446 136.993 40.2645 136.635 40.2645C136.277 40.3843 136.038 40.3843 135.8 40.3843C135.561 40.3843 135.561 40.3843 135.561 40.3843C135.561 40.3843 135.68 40.3843 135.8 40.2645C135.919 40.1446 136.277 40.1446 136.516 40.0248C136.874 39.905 137.232 39.6653 137.589 39.5455C137.947 39.3058 138.425 38.9463 138.902 38.5868C139.379 38.2273 139.737 37.7479 140.095 37.2686C140.453 36.7893 140.811 36.0703 141.05 35.4711C141.289 34.8719 141.527 34.1529 141.527 33.3141C141.647 32.595 141.527 31.876 141.408 31.0372C141.289 30.3182 141.05 29.5992 140.692 29C140.334 28.4008 139.976 27.6818 139.499 27.2025C139.021 26.7231 138.544 26.2438 137.947 25.8843C137.47 25.5248 136.874 25.2851 136.277 25.0455C135.68 24.8058 135.203 24.686 134.726 24.5661C134.248 24.4463 133.89 24.4463 133.532 24.4463C133.174 24.4463 132.936 24.4463 132.697 24.4463C132.816 24.5661 132.697 24.5661 132.697 24.5661Z" fill="#231F20"/>
<path d="M123.031 20.2521C123.031 20.2521 122.792 20.2521 122.434 20.1322C122.076 20.0124 121.48 20.0124 120.764 20.0124C120.406 20.0124 120.048 20.0124 119.69 20.1322C119.332 20.1322 118.974 20.2521 118.496 20.3719C118.138 20.4917 117.661 20.6116 117.303 20.7314C116.945 20.8512 116.468 21.0909 116.11 21.3306C115.752 21.5703 115.394 21.8099 115.036 22.1694C114.678 22.4091 114.439 22.7686 114.081 23.1281C113.842 23.4876 113.604 23.7273 113.365 24.0868C113.126 24.4463 113.007 24.8058 112.768 25.0455C112.649 25.405 112.53 25.6446 112.41 25.8843C112.291 26.124 112.172 26.3636 112.172 26.6033C112.052 26.9628 112.052 27.2025 112.052 27.2025C112.052 27.2025 112.052 26.9628 112.052 26.4835C112.052 26.2438 112.052 26.0041 112.172 25.7645C112.172 25.405 112.291 25.1653 112.41 24.8058C112.53 24.4463 112.649 24.0868 112.888 23.7273C113.007 23.3678 113.365 23.0083 113.604 22.5289C113.842 22.1694 114.2 21.8099 114.558 21.4504C114.916 21.0909 115.274 20.8512 115.752 20.4917C116.229 20.2521 116.587 20.0124 117.064 19.7727C117.542 19.5331 118.019 19.5331 118.496 19.4132C118.974 19.2934 119.451 19.2934 119.809 19.2934C120.286 19.2934 120.644 19.2934 121.002 19.4132C121.718 19.5331 122.315 19.7727 122.673 20.0124C122.912 20.1322 123.031 20.2521 123.031 20.2521Z" fill="#231F20"/>
<path d="M112.411 25.0455C112.411 25.0455 112.291 25.1653 112.172 25.2851C112.053 25.405 111.814 25.6446 111.456 25.8843C110.859 26.3636 110.143 27.0826 109.427 27.6818C109.069 28.0413 108.711 28.4008 108.473 28.7603C108.115 29.1198 107.876 29.4793 107.637 29.719C107.399 30.0785 107.279 30.3182 107.16 30.5579C107.041 30.7975 106.921 30.9174 106.921 30.9174C106.921 30.9174 106.802 30.3182 107.041 29.5992C107.16 29.2397 107.399 28.7603 107.637 28.281C107.757 28.0413 107.876 27.8017 108.115 27.6818C108.234 27.4422 108.473 27.3223 108.711 27.0826C109.069 26.7231 109.547 26.3636 109.905 26.124C110.382 25.8843 110.74 25.6446 111.098 25.5248C111.933 25.1653 112.411 25.0455 112.411 25.0455Z" fill="#231F20"/>
<path d="M134.726 24.4463C134.964 23.9669 134.964 23.6074 134.964 23.1281C134.964 22.6488 134.964 22.2893 134.845 21.8099C134.726 20.9711 134.487 20.1322 134.01 19.4132C133.532 18.6942 133.055 18.095 132.339 17.6157C131.981 17.376 131.623 17.1364 131.265 17.0165C130.907 16.8967 130.549 16.7769 130.072 16.657C129.594 16.5372 129.356 16.5372 128.878 16.5372C128.401 16.5372 128.043 16.5372 127.685 16.657C127.327 16.7769 126.85 16.8967 126.492 17.0165C126.134 17.1364 125.776 17.376 125.418 17.6157C125.06 17.8554 124.702 18.095 124.463 18.4545C124.105 18.6942 123.866 19.0537 123.628 19.4132C123.15 20.1322 122.792 20.9711 122.673 21.8099C122.673 21.3306 122.673 20.9711 122.792 20.4917C122.912 20.0124 123.031 19.6529 123.27 19.1736C123.508 18.8141 123.747 18.3347 123.986 17.9752C124.224 17.6157 124.582 17.2562 124.94 17.0165C125.298 16.657 125.656 16.4174 126.134 16.2975C126.611 16.0579 126.969 15.938 127.446 15.8182C127.924 15.6983 128.401 15.6983 128.878 15.6983C129.356 15.6983 129.833 15.6983 130.31 15.8182C130.788 15.938 131.265 16.0579 131.623 16.2975C132.1 16.5372 132.458 16.7769 132.816 17.0165C133.174 17.2562 133.532 17.6157 133.89 17.9752C134.248 18.3347 134.487 18.6942 134.606 19.1736C135.084 20.0124 135.203 20.9711 135.322 21.8099C135.322 22.2893 135.322 22.7686 135.203 23.1281C135.084 23.7273 134.964 24.0868 134.726 24.4463Z" fill="#231F20"/>
<path d="M135.8 45.657C135.8 45.657 135.8 45.7769 135.919 45.8967C135.919 46.1364 136.038 46.376 136.158 46.7355C136.277 47.095 136.277 47.5744 136.277 48.0537C136.277 48.5331 136.277 49.1322 136.158 49.7314C135.919 50.9298 135.322 52.3678 134.248 53.686C133.771 54.2851 133.055 54.8843 132.339 55.2438C131.623 55.7231 130.788 55.9628 129.952 56.2025C129.117 56.4422 128.282 56.4421 127.327 56.4421C126.492 56.4421 125.656 56.2025 124.821 55.9628C123.27 55.3636 122.076 54.405 121.241 53.4463C120.883 52.9669 120.525 52.4876 120.286 52.0083C120.048 51.5289 119.928 51.1694 119.809 50.8099C119.69 50.4504 119.69 50.2107 119.57 49.9711C119.57 49.7314 119.451 49.7314 119.451 49.7314C119.451 49.7314 119.451 49.8512 119.57 49.9711C119.69 50.0909 119.69 50.4504 119.928 50.6901C120.048 51.0496 120.286 51.4091 120.525 51.7686C120.764 52.1281 121.122 52.6074 121.599 53.0868C122.076 53.4463 122.554 53.9256 123.15 54.2851C123.747 54.6446 124.344 54.8843 125.06 55.124C125.776 55.3636 126.492 55.4835 127.327 55.4835C128.043 55.4835 128.878 55.3636 129.594 55.2438C131.146 54.8843 132.458 54.0455 133.532 52.9669C134.01 52.3678 134.487 51.8884 134.845 51.2893C135.203 50.6901 135.442 50.0909 135.561 49.4917C135.68 48.8926 135.8 48.4132 135.919 47.9339C135.919 47.4545 136.038 46.9752 135.919 46.6157C135.919 46.2562 135.919 46.0165 135.8 45.7769V45.657Z" fill="#231F20"/>
<path d="M113.365 34.2727C113.365 34.2727 113.365 34.1529 113.484 33.7934C113.604 33.5537 113.723 33.1942 113.962 32.7149C114.439 31.876 115.394 30.9174 116.706 30.5579C117.303 30.3182 118.019 30.1983 118.616 30.1983C118.974 30.1983 119.212 30.1983 119.451 30.3182C119.69 30.3182 119.928 30.438 120.167 30.5579C120.644 30.6777 121.002 30.9174 121.241 31.0372C121.48 31.157 121.599 31.2769 121.599 31.2769C121.599 31.2769 121.48 31.2769 121.122 31.157C120.883 31.0372 120.525 31.0372 120.048 30.9174C119.57 30.7975 119.093 30.7975 118.496 30.7975C118.258 30.7975 117.9 30.9174 117.661 30.9174C117.422 31.0372 117.064 31.0372 116.826 31.157C115.752 31.5165 114.797 32.3554 114.2 32.9545C113.962 33.314 113.604 33.5537 113.484 33.7934C113.484 34.1529 113.365 34.2727 113.365 34.2727Z" fill="#231F20"/>
<path d="M127.327 32.3554C127.327 32.3554 127.924 31.9959 128.878 31.876C129.356 31.7562 129.952 31.6364 130.668 31.6364C131.265 31.6364 131.981 31.7562 132.697 31.876C133.055 31.9959 133.413 32.1157 133.652 32.2355C134.01 32.3554 134.248 32.4752 134.487 32.7149C134.726 32.8347 134.964 33.0744 135.203 33.3141C135.442 33.5537 135.68 33.6736 135.8 33.9132C136.158 34.2727 136.277 34.6322 136.516 34.9917C136.635 35.2314 136.754 35.3512 136.754 35.3512C136.754 35.3512 136.635 35.2314 136.396 34.9917C136.277 34.8719 136.158 34.7521 136.038 34.6322C135.919 34.5124 135.68 34.3926 135.561 34.1529C135.442 34.0331 135.203 33.7934 134.964 33.6736C134.726 33.5537 134.487 33.3141 134.248 33.1942C134.01 33.0744 133.652 32.9545 133.413 32.8347C133.174 32.7149 132.816 32.595 132.458 32.595C131.265 32.2355 129.952 32.2355 128.878 32.3554C128.043 32.2355 127.327 32.3554 127.327 32.3554Z" fill="#231F20"/>
<path d="M114.32 37.3884C114.32 37.3884 114.2 37.9876 114.2 38.8264C114.2 39.3058 114.32 39.7851 114.439 40.2645C114.558 40.7438 114.678 41.2231 115.036 41.7025C115.274 42.1818 115.632 42.5413 115.99 43.0207C116.229 43.1405 116.348 43.3802 116.587 43.5C116.706 43.6198 116.945 43.7397 117.064 43.8595C117.422 44.0992 117.661 44.3388 117.9 44.4587C118.138 44.5785 118.258 44.6983 118.258 44.6983C118.258 44.6983 118.138 44.6983 117.9 44.5785C117.661 44.4587 117.303 44.4587 116.945 44.219C116.587 43.9793 116.11 43.7397 115.632 43.3802C115.394 43.1405 115.274 43.0207 115.036 42.781C114.916 42.5413 114.678 42.3016 114.558 42.062C114.32 41.5826 114.081 40.9835 113.962 40.3843C113.843 39.7851 113.962 39.3058 113.962 38.8264C114.081 37.8678 114.32 37.3884 114.32 37.3884Z" fill="#231F20"/>
<path d="M126.492 45.2975C126.492 45.2975 127.088 45.4174 128.043 45.4174C128.52 45.4174 129.117 45.4174 129.594 45.4174C130.191 45.2975 130.788 45.2975 131.384 45.0579C131.742 44.938 131.981 44.8182 132.22 44.6984C132.458 44.5785 132.697 44.4587 133.055 44.3389C133.294 44.219 133.532 43.9793 133.771 43.8595C134.01 43.7397 134.129 43.5 134.368 43.3802C134.487 43.2603 134.726 43.1405 134.845 42.9008C134.964 42.781 135.084 42.6612 135.203 42.5413C135.442 42.3017 135.561 42.1818 135.561 42.1818C135.561 42.1818 135.442 42.3017 135.322 42.5413C135.203 42.6612 135.203 42.781 135.084 43.0207C134.964 43.2603 134.845 43.3802 134.726 43.5C134.606 43.7397 134.368 43.8595 134.129 44.0992C133.89 44.219 133.652 44.4587 133.413 44.6984C133.174 44.8182 132.936 45.0579 132.578 45.1777C132.22 45.2975 131.981 45.4174 131.623 45.5372C131.265 45.657 131.026 45.657 130.668 45.7769C130.31 45.8967 130.072 45.8967 129.714 45.8967C129.117 45.8967 128.52 45.7769 128.043 45.7769C127.088 45.5372 126.492 45.2975 126.492 45.2975Z" fill="#231F20"/>
<path d="M130.072 28.6405C130.072 28.6405 129.475 28.1612 128.52 27.562C128.282 27.4422 128.043 27.3223 127.685 27.0826C127.446 26.9628 127.088 26.843 126.73 26.7231C126.372 26.6033 126.014 26.4835 125.776 26.4835C125.418 26.3636 125.06 26.3636 124.702 26.3636C124.344 26.3636 123.986 26.4835 123.628 26.4835C123.27 26.6033 122.912 26.7231 122.673 26.7231C122.315 26.843 122.076 26.9628 121.718 27.0826C121.48 27.2025 121.241 27.4422 121.002 27.562C120.525 27.8017 120.167 28.1612 119.928 28.281C119.69 28.5207 119.451 28.6405 119.451 28.6405C119.451 28.6405 119.57 28.5207 119.809 28.281C120.048 28.0413 120.286 27.6818 120.764 27.3223C121.002 27.2025 121.241 26.9628 121.48 26.7231C121.718 26.6033 122.076 26.3636 122.434 26.2438C122.792 26.124 123.15 26.0041 123.508 25.8843C123.866 25.8843 124.344 25.7645 124.702 25.7645C125.06 25.7645 125.537 25.7645 125.895 25.8843C126.253 25.8843 126.611 26.124 126.969 26.2438C127.327 26.3636 127.685 26.4835 127.924 26.7231C128.162 26.843 128.52 27.0826 128.64 27.2025C129.594 27.9215 130.072 28.6405 130.072 28.6405Z" fill="#231F20"/>
<path d="M150 10.186C149.881 9.70661 149.642 9.34711 149.403 8.9876C149.165 8.6281 148.926 8.50827 148.687 8.38843C148.687 8.2686 148.807 8.14876 148.807 8.14876C148.926 7.90909 149.045 7.54959 149.045 7.19008C149.045 6.83058 149.045 6.47108 148.926 6.23141C148.807 5.8719 148.687 5.63223 148.568 5.27273C148.329 5.03306 148.21 4.79339 147.971 4.55372C147.613 4.19422 147.136 3.95455 146.659 3.95455C146.659 3.83471 146.539 3.71488 146.539 3.59504C146.42 3.47521 146.42 3.23554 146.181 2.99587C146.062 2.7562 145.823 2.51653 145.585 2.27686C145.346 2.03719 145.107 1.79752 144.749 1.67769C144.63 1.55785 144.391 1.43802 144.272 1.43802C144.033 1.31818 143.914 1.31818 143.675 1.19835C143.317 1.07851 142.84 0.958679 142.482 0.958679C142.005 0.958679 141.647 0.958679 141.169 1.07851C140.692 1.07851 140.334 1.31818 139.857 1.43802C139.499 1.55785 139.021 1.79752 138.783 2.03719C138.425 2.27686 138.186 2.51653 137.828 2.87603C137.59 3.23554 137.351 3.47521 137.232 3.71488C137.112 3.95455 136.993 4.31405 136.874 4.55372C136.754 4.79339 136.754 5.03306 136.754 5.27273C136.754 5.39256 136.754 5.5124 136.754 5.63223C136.635 5.63223 136.396 5.63223 136.277 5.63223C135.8 5.75207 135.203 5.8719 134.726 6.23141C134.248 6.59091 133.89 7.19008 133.652 7.78926C133.652 7.90909 133.532 8.14876 133.532 8.2686C133.532 8.38843 133.532 8.6281 133.532 8.74794C133.532 9.10744 133.532 9.34711 133.652 9.70661C133.771 10.3058 134.129 10.7851 134.487 11.1446C134.845 11.5041 135.203 11.624 135.442 11.7438C135.561 11.7438 135.561 11.7438 135.68 11.8636C135.68 11.9835 135.561 11.9835 135.561 12.1033C135.442 12.5826 135.322 13.1818 135.561 13.781C135.68 14.3802 136.038 14.9793 136.516 15.4587C136.754 15.6983 136.993 15.938 137.351 16.0579C137.59 16.1777 137.948 16.2975 138.186 16.4174C138.783 16.5372 139.379 16.4174 139.857 16.2975C140.334 16.1777 140.692 15.938 140.811 15.8182C140.931 15.6983 140.931 15.6983 141.05 15.6983C141.169 15.8182 141.169 15.938 141.289 16.0579C141.647 16.4174 142.124 16.7769 142.84 17.0165C143.437 17.2562 144.272 17.1364 144.869 17.0165C145.585 16.7769 146.181 16.2975 146.539 15.8182C146.897 15.3388 147.017 14.8595 147.136 14.5H147.255C147.494 14.5 147.733 14.5 148.091 14.3802C148.449 14.2603 148.807 14.0207 149.165 13.6612C149.284 13.4215 149.523 13.3017 149.642 13.062C149.761 12.8223 149.881 12.5826 150 12.343C150.119 11.1446 150.119 10.6653 150 10.186Z" fill="white"/>
<path d="M150 10.186C149.881 9.70661 149.642 9.34711 149.403 8.9876C149.165 8.6281 148.926 8.50827 148.687 8.38843C148.687 8.2686 148.807 8.14876 148.807 8.14876C148.926 7.90909 149.045 7.54959 149.045 7.19008C149.045 6.83058 149.045 6.47108 148.926 6.23141C148.807 5.8719 148.687 5.63223 148.568 5.27273C148.329 5.03306 148.21 4.79339 147.971 4.55372C147.613 4.19422 147.136 3.95455 146.659 3.95455C146.659 3.83471 146.539 3.71488 146.539 3.59504C146.42 3.47521 146.42 3.23554 146.181 2.99587C146.062 2.7562 145.823 2.51653 145.585 2.27686C145.346 2.03719 145.107 1.79752 144.749 1.67769C144.63 1.55785 144.391 1.43802 144.272 1.43802C144.033 1.31818 143.914 1.31818 143.675 1.19835C143.317 1.07851 142.84 0.958679 142.482 0.958679C142.005 0.958679 141.647 0.958679 141.169 1.07851C140.692 1.07851 140.334 1.31818 139.857 1.43802C139.499 1.55785 139.021 1.79752 138.783 2.03719C138.425 2.27686 138.186 2.51653 137.828 2.87603C137.59 3.23554 137.351 3.47521 137.232 3.71488C137.112 3.95455 136.993 4.31405 136.874 4.55372C136.754 4.79339 136.754 5.03306 136.754 5.27273C136.754 5.39256 136.754 5.5124 136.754 5.63223C136.635 5.63223 136.396 5.63223 136.277 5.63223C135.8 5.75207 135.203 5.8719 134.726 6.23141C134.248 6.59091 133.89 7.19008 133.652 7.78926C133.652 7.90909 133.532 8.14876 133.532 8.2686C133.532 8.38843 133.532 8.6281 133.532 8.74794C133.532 9.10744 133.532 9.34711 133.652 9.70661C133.771 10.3058 134.129 10.7851 134.487 11.1446C134.845 11.5041 135.203 11.624 135.442 11.7438C135.561 11.7438 135.561 11.7438 135.68 11.8636C135.68 11.9835 135.561 11.9835 135.561 12.1033C135.442 12.5826 135.322 13.1818 135.561 13.781C135.68 14.3802 136.038 14.9793 136.516 15.4587C136.754 15.6983 136.993 15.938 137.351 16.0579C137.59 16.1777 137.948 16.2975 138.186 16.4174C138.783 16.5372 139.379 16.4174 139.857 16.2975C140.334 16.1777 140.692 15.938 140.811 15.8182C140.931 15.6983 140.931 15.6983 141.05 15.6983C141.169 15.8182 141.169 15.938 141.289 16.0579C141.647 16.4174 142.124 16.7769 142.84 17.0165C143.437 17.2562 144.272 17.1364 144.869 17.0165C145.585 16.7769 146.181 16.2975 146.539 15.8182C146.897 15.3388 147.017 14.8595 147.136 14.5H147.255C147.494 14.5 147.733 14.5 148.091 14.3802C148.449 14.2603 148.807 14.0207 149.165 13.6612C149.284 13.4215 149.523 13.3017 149.642 13.062C149.761 12.8223 149.881 12.5826 150 12.343C150.119 11.1446 150.119 10.6653 150 10.186ZM149.403 11.5041C149.284 11.7438 149.284 11.8636 149.165 12.1033C149.045 12.343 148.926 12.4628 148.807 12.5826C148.568 12.9422 148.21 13.1818 147.971 13.3017C147.733 13.4215 147.375 13.6612 147.255 13.6612C147.136 13.6612 147.136 13.6612 147.136 13.6612C147.136 13.5413 147.136 13.5413 147.136 13.4215C147.136 12.9422 147.136 12.4628 147.017 12.2231C146.778 12.1033 146.778 11.9835 146.778 11.9835C146.778 11.9835 146.778 12.1033 146.778 12.4628C146.778 12.7025 146.778 13.1818 146.659 13.5413C146.42 14.5 145.704 15.5785 144.511 15.938C143.914 16.1777 143.317 16.1777 142.84 16.0579C142.243 15.938 141.766 15.6983 141.408 15.4587C141.05 15.219 140.811 14.8595 140.692 14.6198C140.573 14.3802 140.453 14.2603 140.453 14.2603C140.453 14.2603 140.453 14.3802 140.573 14.7397C140.692 14.8595 140.811 15.0992 140.931 15.3388C140.811 15.3388 140.811 15.4587 140.692 15.4587C140.453 15.5785 140.095 15.6983 139.737 15.8182C139.26 15.938 138.783 15.8182 138.305 15.6983C138.067 15.5785 137.828 15.4587 137.59 15.3388C137.351 15.219 137.112 15.0992 136.874 14.8595C136.516 14.5 136.158 14.0207 136.038 13.5413C135.919 13.062 135.8 12.5826 135.919 12.1033C136.038 11.624 136.038 11.2645 136.158 11.0248C136.277 10.7851 136.396 10.6653 136.396 10.6653C136.396 10.6653 136.277 10.7851 136.158 11.0248C136.038 11.1446 135.919 11.3843 135.8 11.7438C135.8 11.7438 135.68 11.624 135.561 11.624C135.322 11.5041 135.084 11.2645 134.845 10.905C134.248 10.186 134.01 9.10744 134.368 8.02893C134.726 6.95041 135.68 6.23141 136.396 5.99174C136.754 5.8719 137.232 5.8719 137.47 5.8719C137.709 5.8719 137.947 5.8719 137.947 5.8719C137.947 5.8719 137.828 5.75207 137.59 5.75207C137.47 5.75207 137.232 5.63223 136.993 5.63223C136.993 5.5124 136.993 5.39256 137.112 5.27273C137.112 5.03306 137.232 4.91322 137.351 4.67356C137.47 4.43389 137.59 4.19422 137.709 3.95455C137.828 3.71488 138.067 3.47521 138.305 3.23554C138.544 2.99587 138.783 2.7562 139.141 2.63637C139.499 2.3967 139.857 2.27686 140.215 2.15703C140.573 2.03719 140.931 1.91736 141.408 1.91736C141.766 1.79752 142.243 1.79752 142.601 1.79752C142.959 1.79752 143.437 1.79752 143.795 1.91736C144.033 1.91736 144.153 2.03719 144.272 2.03719C144.391 2.15703 144.63 2.15703 144.749 2.27686C145.107 2.3967 145.346 2.63637 145.585 2.7562C145.823 2.87603 146.062 3.1157 146.181 3.35537C146.42 3.47521 146.539 3.71488 146.659 3.83471C146.778 3.95455 146.778 3.95455 146.778 4.07438H146.659C146.181 3.95455 145.704 4.07438 145.465 4.07438C145.227 4.19422 145.107 4.19422 145.107 4.19422C145.107 4.19422 145.227 4.19422 145.585 4.19422C145.823 4.19422 146.181 4.19422 146.659 4.31405C147.136 4.43389 147.494 4.67355 147.971 5.03306C148.21 5.27273 148.329 5.39256 148.449 5.63223C148.568 5.8719 148.687 6.11157 148.807 6.35124C148.926 6.71075 148.926 6.95041 148.926 7.19008C148.926 7.42975 148.926 7.78926 148.807 8.02893C148.687 8.50827 148.449 8.98761 148.091 9.34711C147.733 9.70661 147.494 9.94628 147.255 10.0661C147.017 10.186 146.897 10.3058 146.897 10.3058C146.897 10.3058 147.017 10.3058 147.375 10.186C147.613 10.0661 148.091 9.94628 148.449 9.70661C148.687 9.46694 149.045 9.10744 149.165 8.74794C149.284 8.86777 149.403 9.10744 149.642 9.46694C149.403 9.70661 149.642 10.6653 149.403 11.5041Z" fill="#231F20"/>
<path d="M140.692 11.9835C140.215 11.9835 139.737 11.7438 139.379 11.624C139.021 11.5041 138.783 11.3843 138.783 11.3843C138.783 11.3843 138.902 11.624 139.26 11.8636C139.618 12.1033 140.095 12.343 140.692 12.4628C140.931 12.4628 141.289 12.4628 141.527 12.4628C141.766 12.4628 142.005 12.343 142.243 12.2232C142.601 11.9835 142.721 11.7438 142.721 11.8636C142.721 11.8636 142.482 11.9835 142.124 12.1033C141.766 11.9835 141.169 11.9835 140.692 11.9835Z" fill="#231F20"/>
<path d="M142.959 5.27274C142.482 5.1529 142.005 5.27274 141.527 5.27274C141.169 5.27274 140.931 5.39257 140.931 5.39257C140.931 5.39257 141.169 5.27274 141.527 5.1529C141.885 5.03307 142.482 4.91323 142.959 5.03307C143.198 5.03307 143.556 5.1529 143.675 5.27274C143.914 5.39257 144.153 5.51241 144.272 5.63224C144.511 5.87191 144.63 6.23141 144.63 6.23141C144.63 6.23141 144.391 5.99174 144.153 5.87191C143.914 5.51241 143.437 5.39257 142.959 5.27274Z" fill="#231F20"/>
</g>
<defs>
<clipPath id="clip0">
<rect width="150" height="58" fill="white"/>
</clipPath>
</defs>
</svg>
