<svg width="895" height="888" viewBox="0 0 895 888" fill="none" xmlns="http://www.w3.org/2000/svg">
<g opacity="0.1">
<path d="M435.898 107.898L407.612 -672H464.388L435.898 107.898Z" fill="#BCBCBC"/>
<path d="M435.898 107.898L407.612 -672H464.388L435.898 107.898Z" fill="url(#paint0_radial)"/>
<path d="M435.898 107.898L272.539 -655.193L328.495 -665.031L435.898 107.898Z" fill="#BCBCBC"/>
<path d="M435.898 107.898L272.539 -655.193L328.495 -665.031L435.898 107.898Z" fill="url(#paint1_radial)"/>
<path d="M435.898 107.897L142.591 -615.224L195.882 -634.696L435.898 107.897Z" fill="#BCBCBC"/>
<path d="M435.898 107.897L142.591 -615.224L195.882 -634.696L435.898 107.897Z" fill="url(#paint2_radial)"/>
<path d="M435.898 107.898L21.4553 -553.324L70.6472 -581.61L435.898 107.898Z" fill="#BCBCBC"/>
<path d="M435.898 107.898L21.4553 -553.324L70.6472 -581.61L435.898 107.898Z" fill="url(#paint3_radial)"/>
<path d="M435.898 107.898L-87.177 -471.338L-43.7241 -507.822L435.898 107.898Z" fill="#BCBCBC"/>
<path d="M435.898 107.898L-87.177 -471.338L-43.7241 -507.822L435.898 107.898Z" fill="url(#paint4_radial)"/>
<path d="M435.898 107.897L-179.822 -371.724L-143.338 -415.177L435.898 107.897Z" fill="#BCBCBC"/>
<path d="M435.898 107.897L-179.822 -371.724L-143.338 -415.177L435.898 107.897Z" fill="url(#paint5_radial)"/>
<path d="M435.898 107.898L-253.61 -257.558L-225.324 -306.545L435.898 107.898Z" fill="#BCBCBC"/>
<path d="M435.898 107.898L-253.61 -257.558L-225.324 -306.545L435.898 107.898Z" fill="url(#paint6_radial)"/>
<path d="M435.897 107.898L-306.696 -132.118L-287.224 -185.41L435.897 107.898Z" fill="#BCBCBC"/>
<path d="M435.897 107.898L-306.696 -132.118L-287.224 -185.41L435.897 107.898Z" fill="url(#paint7_radial)"/>
<path d="M435.898 107.898L-337.031 0.495125L-327.193 -55.4608L435.898 107.898Z" fill="#BCBCBC"/>
<path d="M435.898 107.898L-337.031 0.495125L-327.193 -55.4608L435.898 107.898Z" fill="url(#paint8_radial)"/>
<path d="M435.898 107.898L-344 136.388V79.6122L435.898 107.898Z" fill="#BCBCBC"/>
<path d="M435.898 107.898L-344 136.388V79.6122L435.898 107.898Z" fill="url(#paint9_radial)"/>
<path d="M435.898 107.898L-327.193 271.256L-337.031 215.505L435.898 107.898Z" fill="#BCBCBC"/>
<path d="M435.898 107.898L-327.193 271.256L-337.031 215.505L435.898 107.898Z" fill="url(#paint10_radial)"/>
<path d="M435.897 107.898L-287.224 401.41L-306.696 348.118L435.897 107.898Z" fill="#BCBCBC"/>
<path d="M435.897 107.898L-287.224 401.41L-306.696 348.118L435.897 107.898Z" fill="url(#paint11_radial)"/>
<path d="M435.898 107.898L-225.324 522.545L-253.61 473.353L435.898 107.898Z" fill="#BCBCBC"/>
<path d="M435.898 107.898L-225.324 522.545L-253.61 473.353L435.898 107.898Z" fill="url(#paint12_radial)"/>
<path d="M435.898 107.898L-143.338 630.972L-179.822 587.519L435.898 107.898Z" fill="#BCBCBC"/>
<path d="M435.898 107.898L-143.338 630.972L-179.822 587.519L435.898 107.898Z" fill="url(#paint13_radial)"/>
<path d="M435.898 107.898L-43.7241 723.617L-87.177 687.133L435.898 107.898Z" fill="#BCBCBC"/>
<path d="M435.898 107.898L-43.7241 723.617L-87.177 687.133L435.898 107.898Z" fill="url(#paint14_radial)"/>
<path d="M435.898 107.898L70.4422 797.61L21.4553 769.324L435.898 107.898Z" fill="#BCBCBC"/>
<path d="M435.898 107.898L70.4422 797.61L21.4553 769.324L435.898 107.898Z" fill="url(#paint15_radial)"/>
<path d="M435.898 107.898L195.882 850.696L142.591 831.224L435.898 107.898Z" fill="#BCBCBC"/>
<path d="M435.898 107.898L195.882 850.696L142.591 831.224L435.898 107.898Z" fill="url(#paint16_radial)"/>
<path d="M435.898 107.898L328.495 881.031L272.539 871.193L435.898 107.898Z" fill="#BCBCBC"/>
<path d="M435.898 107.898L328.495 881.031L272.539 871.193L435.898 107.898Z" fill="url(#paint17_radial)"/>
<path d="M435.898 107.898L464.388 888H407.612L435.898 107.898Z" fill="#BCBCBC"/>
<path d="M435.898 107.898L464.388 888H407.612L435.898 107.898Z" fill="url(#paint18_radial)"/>
<path d="M435.898 107.898L599.256 871.193L543.505 881.031L435.898 107.898Z" fill="#BCBCBC"/>
<path d="M435.898 107.898L599.256 871.193L543.505 881.031L435.898 107.898Z" fill="url(#paint19_radial)"/>
<path d="M435.898 107.898L729.41 831.224L676.118 850.696L435.898 107.898Z" fill="#BCBCBC"/>
<path d="M435.898 107.898L729.41 831.224L676.118 850.696L435.898 107.898Z" fill="url(#paint20_radial)"/>
<path d="M435.898 107.898L850.545 769.324L801.353 797.61L435.898 107.898Z" fill="#BCBCBC"/>
<path d="M435.898 107.898L850.545 769.324L801.353 797.61L435.898 107.898Z" fill="url(#paint21_radial)"/>
<path d="M435.898 107.898L958.972 687.338L915.519 723.617L435.898 107.898Z" fill="#BCBCBC"/>
<path d="M435.898 107.898L958.972 687.338L915.519 723.617L435.898 107.898Z" fill="url(#paint22_radial)"/>
<path d="M435.898 107.898L1051.62 587.519L1015.34 630.972L435.898 107.898Z" fill="#BCBCBC"/>
<path d="M435.898 107.898L1051.62 587.519L1015.34 630.972L435.898 107.898Z" fill="url(#paint23_radial)"/>
<path d="M435.898 107.898L1125.61 473.353L1097.32 522.545L435.898 107.898Z" fill="#BCBCBC"/>
<path d="M435.898 107.898L1125.61 473.353L1097.32 522.545L435.898 107.898Z" fill="url(#paint24_radial)"/>
<path d="M435.898 107.898L1178.7 348.118L1159.22 401.41L435.898 107.898Z" fill="#BCBCBC"/>
<path d="M435.898 107.898L1178.7 348.118L1159.22 401.41L435.898 107.898Z" fill="url(#paint25_radial)"/>
<path d="M435.898 107.898L1209.03 215.505L1199.19 271.256L435.898 107.898Z" fill="#BCBCBC"/>
<path d="M435.898 107.898L1209.03 215.505L1199.19 271.256L435.898 107.898Z" fill="url(#paint26_radial)"/>
<path d="M435.898 107.898L1216 79.6122V136.388L435.898 107.898Z" fill="#BCBCBC"/>
<path d="M435.898 107.898L1216 79.6122V136.388L435.898 107.898Z" fill="url(#paint27_radial)"/>
<path d="M435.898 107.898L1199.19 -55.4608L1209.03 0.495125L435.898 107.898Z" fill="#BCBCBC"/>
<path d="M435.898 107.898L1199.19 -55.4608L1209.03 0.495125L435.898 107.898Z" fill="url(#paint28_radial)"/>
<path d="M435.898 107.898L1159.22 -185.41L1178.7 -132.118L435.898 107.898Z" fill="#BCBCBC"/>
<path d="M435.898 107.898L1159.22 -185.41L1178.7 -132.118L435.898 107.898Z" fill="url(#paint29_radial)"/>
<path d="M435.898 107.898L1097.32 -306.545L1125.61 -257.353L435.898 107.898Z" fill="#BCBCBC"/>
<path d="M435.898 107.898L1097.32 -306.545L1125.61 -257.353L435.898 107.898Z" fill="url(#paint30_radial)"/>
<path d="M435.898 107.897L1015.34 -415.177L1051.62 -371.724L435.898 107.897Z" fill="#BCBCBC"/>
<path d="M435.898 107.897L1015.34 -415.177L1051.62 -371.724L435.898 107.897Z" fill="url(#paint31_radial)"/>
<path d="M435.898 107.898L915.519 -507.822L958.972 -471.338L435.898 107.898Z" fill="#BCBCBC"/>
<path d="M435.898 107.898L915.519 -507.822L958.972 -471.338L435.898 107.898Z" fill="url(#paint32_radial)"/>
<path d="M435.898 107.898L801.353 -581.61L850.545 -553.324L435.898 107.898Z" fill="#BCBCBC"/>
<path d="M435.898 107.898L801.353 -581.61L850.545 -553.324L435.898 107.898Z" fill="url(#paint33_radial)"/>
<path d="M435.898 107.897L676.118 -634.696L729.41 -615.224L435.898 107.897Z" fill="#BCBCBC"/>
<path d="M435.898 107.897L676.118 -634.696L729.41 -615.224L435.898 107.897Z" fill="url(#paint34_radial)"/>
<path d="M435.898 107.898L543.505 -665.031L599.256 -655.193L435.898 107.898Z" fill="#BCBCBC"/>
<path d="M435.898 107.898L543.505 -665.031L599.256 -655.193L435.898 107.898Z" fill="url(#paint35_radial)"/>
</g>
<defs>
<radialGradient id="paint0_radial" cx="0" cy="0" r="1" gradientUnits="userSpaceOnUse" gradientTransform="translate(436 -282.051) rotate(90) scale(389.949 28.3878)">
<stop stop-color="white" stop-opacity="0"/>
<stop offset="1" stop-color="white"/>
</radialGradient>
<radialGradient id="paint1_radial" cx="0" cy="0" r="1" gradientUnits="userSpaceOnUse" gradientTransform="translate(354.218 -278.567) rotate(90) scale(386.464 81.6791)">
<stop stop-color="white" stop-opacity="0"/>
<stop offset="1" stop-color="white"/>
</radialGradient>
<radialGradient id="paint2_radial" cx="0" cy="0" r="1" gradientUnits="userSpaceOnUse" gradientTransform="translate(289.244 -263.399) rotate(90) scale(371.297 146.654)">
<stop stop-color="white" stop-opacity="0"/>
<stop offset="1" stop-color="white"/>
</radialGradient>
<radialGradient id="paint3_radial" cx="0" cy="0" r="1" gradientUnits="userSpaceOnUse" gradientTransform="translate(228.676 -236.856) rotate(90) scale(344.754 207.221)">
<stop stop-color="white" stop-opacity="0"/>
<stop offset="1" stop-color="white"/>
</radialGradient>
<radialGradient id="paint4_radial" cx="0" cy="0" r="1" gradientUnits="userSpaceOnUse" gradientTransform="translate(174.36 -199.962) rotate(90) scale(307.86 261.537)">
<stop stop-color="white" stop-opacity="0"/>
<stop offset="1" stop-color="white"/>
</radialGradient>
<radialGradient id="paint5_radial" cx="0" cy="0" r="1" gradientUnits="userSpaceOnUse" gradientTransform="translate(128.038 -153.64) rotate(90) scale(261.537 307.86)">
<stop stop-color="white" stop-opacity="0"/>
<stop offset="1" stop-color="white"/>
</radialGradient>
<radialGradient id="paint6_radial" cx="0" cy="0" r="1" gradientUnits="userSpaceOnUse" gradientTransform="translate(91.1439 -99.3236) rotate(90) scale(207.221 344.754)">
<stop stop-color="white" stop-opacity="0"/>
<stop offset="1" stop-color="white"/>
</radialGradient>
<radialGradient id="paint7_radial" cx="0" cy="0" r="1" gradientUnits="userSpaceOnUse" gradientTransform="translate(64.6007 -38.756) rotate(90) scale(146.654 371.297)">
<stop stop-color="white" stop-opacity="0"/>
<stop offset="1" stop-color="white"/>
</radialGradient>
<radialGradient id="paint8_radial" cx="0" cy="0" r="1" gradientUnits="userSpaceOnUse" gradientTransform="translate(49.4332 26.2184) rotate(90) scale(81.6791 386.464)">
<stop stop-color="white" stop-opacity="0"/>
<stop offset="1" stop-color="white"/>
</radialGradient>
<radialGradient id="paint9_radial" cx="0" cy="0" r="1" gradientUnits="userSpaceOnUse" gradientTransform="translate(45.9488 108) rotate(90) scale(28.3878 389.949)">
<stop stop-color="white" stop-opacity="0"/>
<stop offset="1" stop-color="white"/>
</radialGradient>
<radialGradient id="paint10_radial" cx="0" cy="0" r="1" gradientUnits="userSpaceOnUse" gradientTransform="translate(49.4332 189.577) rotate(90) scale(81.6792 386.464)">
<stop stop-color="white" stop-opacity="0"/>
<stop offset="1" stop-color="white"/>
</radialGradient>
<radialGradient id="paint11_radial" cx="0" cy="0" r="1" gradientUnits="userSpaceOnUse" gradientTransform="translate(64.6007 254.654) rotate(90) scale(146.756 371.297)">
<stop stop-color="white" stop-opacity="0"/>
<stop offset="1" stop-color="white"/>
</radialGradient>
<radialGradient id="paint12_radial" cx="0" cy="0" r="1" gradientUnits="userSpaceOnUse" gradientTransform="translate(91.1439 315.221) rotate(90) scale(207.324 344.754)">
<stop stop-color="white" stop-opacity="0"/>
<stop offset="1" stop-color="white"/>
</radialGradient>
<radialGradient id="paint13_radial" cx="0" cy="0" r="1" gradientUnits="userSpaceOnUse" gradientTransform="translate(128.038 369.435) rotate(90) scale(261.537 307.86)">
<stop stop-color="white" stop-opacity="0"/>
<stop offset="1" stop-color="white"/>
</radialGradient>
<radialGradient id="paint14_radial" cx="0" cy="0" r="1" gradientUnits="userSpaceOnUse" gradientTransform="translate(174.36 415.757) rotate(90) scale(307.86 261.537)">
<stop stop-color="white" stop-opacity="0"/>
<stop offset="1" stop-color="white"/>
</radialGradient>
<radialGradient id="paint15_radial" cx="0" cy="0" r="1" gradientUnits="userSpaceOnUse" gradientTransform="translate(228.676 452.754) rotate(90) scale(344.856 207.221)">
<stop stop-color="white" stop-opacity="0"/>
<stop offset="1" stop-color="white"/>
</radialGradient>
<radialGradient id="paint16_radial" cx="0" cy="0" r="1" gradientUnits="userSpaceOnUse" gradientTransform="translate(289.244 479.297) rotate(90) scale(371.399 146.654)">
<stop stop-color="white" stop-opacity="0"/>
<stop offset="1" stop-color="white"/>
</radialGradient>
<radialGradient id="paint17_radial" cx="0" cy="0" r="1" gradientUnits="userSpaceOnUse" gradientTransform="translate(354.218 494.464) rotate(90) scale(386.567 81.6791)">
<stop stop-color="white" stop-opacity="0"/>
<stop offset="1" stop-color="white"/>
</radialGradient>
<radialGradient id="paint18_radial" cx="0" cy="0" r="1" gradientUnits="userSpaceOnUse" gradientTransform="translate(436 497.949) rotate(90) scale(390.051 28.3878)">
<stop stop-color="white" stop-opacity="0"/>
<stop offset="1" stop-color="white"/>
</radialGradient>
<radialGradient id="paint19_radial" cx="0" cy="0" r="1" gradientUnits="userSpaceOnUse" gradientTransform="translate(517.577 494.464) rotate(90) scale(386.567 81.6792)">
<stop stop-color="white" stop-opacity="0"/>
<stop offset="1" stop-color="white"/>
</radialGradient>
<radialGradient id="paint20_radial" cx="0" cy="0" r="1" gradientUnits="userSpaceOnUse" gradientTransform="translate(582.654 479.297) rotate(90) scale(371.399 146.756)">
<stop stop-color="white" stop-opacity="0"/>
<stop offset="1" stop-color="white"/>
</radialGradient>
<radialGradient id="paint21_radial" cx="0" cy="0" r="1" gradientUnits="userSpaceOnUse" gradientTransform="translate(643.221 452.754) rotate(90) scale(344.856 207.324)">
<stop stop-color="white" stop-opacity="0"/>
<stop offset="1" stop-color="white"/>
</radialGradient>
<radialGradient id="paint22_radial" cx="0" cy="0" r="1" gradientUnits="userSpaceOnUse" gradientTransform="translate(697.435 415.757) rotate(90) scale(307.86 261.537)">
<stop stop-color="white" stop-opacity="0"/>
<stop offset="1" stop-color="white"/>
</radialGradient>
<radialGradient id="paint23_radial" cx="0" cy="0" r="1" gradientUnits="userSpaceOnUse" gradientTransform="translate(743.757 369.435) rotate(90) scale(261.537 307.86)">
<stop stop-color="white" stop-opacity="0"/>
<stop offset="1" stop-color="white"/>
</radialGradient>
<radialGradient id="paint24_radial" cx="0" cy="0" r="1" gradientUnits="userSpaceOnUse" gradientTransform="translate(780.754 315.221) rotate(90) scale(207.324 344.856)">
<stop stop-color="white" stop-opacity="0"/>
<stop offset="1" stop-color="white"/>
</radialGradient>
<radialGradient id="paint25_radial" cx="0" cy="0" r="1" gradientUnits="userSpaceOnUse" gradientTransform="translate(807.297 254.654) rotate(90) scale(146.756 371.399)">
<stop stop-color="white" stop-opacity="0"/>
<stop offset="1" stop-color="white"/>
</radialGradient>
<radialGradient id="paint26_radial" cx="0" cy="0" r="1" gradientUnits="userSpaceOnUse" gradientTransform="translate(822.464 189.577) rotate(90) scale(81.6792 386.567)">
<stop stop-color="white" stop-opacity="0"/>
<stop offset="1" stop-color="white"/>
</radialGradient>
<radialGradient id="paint27_radial" cx="0" cy="0" r="1" gradientUnits="userSpaceOnUse" gradientTransform="translate(825.949 108) rotate(90) scale(28.3878 390.051)">
<stop stop-color="white" stop-opacity="0"/>
<stop offset="1" stop-color="white"/>
</radialGradient>
<radialGradient id="paint28_radial" cx="0" cy="0" r="1" gradientUnits="userSpaceOnUse" gradientTransform="translate(822.464 26.2184) rotate(90) scale(81.6791 386.567)">
<stop stop-color="white" stop-opacity="0"/>
<stop offset="1" stop-color="white"/>
</radialGradient>
<radialGradient id="paint29_radial" cx="0" cy="0" r="1" gradientUnits="userSpaceOnUse" gradientTransform="translate(807.297 -38.756) rotate(90) scale(146.654 371.399)">
<stop stop-color="white" stop-opacity="0"/>
<stop offset="1" stop-color="white"/>
</radialGradient>
<radialGradient id="paint30_radial" cx="0" cy="0" r="1" gradientUnits="userSpaceOnUse" gradientTransform="translate(780.754 -99.3236) rotate(90) scale(207.221 344.856)">
<stop stop-color="white" stop-opacity="0"/>
<stop offset="1" stop-color="white"/>
</radialGradient>
<radialGradient id="paint31_radial" cx="0" cy="0" r="1" gradientUnits="userSpaceOnUse" gradientTransform="translate(743.757 -153.64) rotate(90) scale(261.537 307.86)">
<stop stop-color="white" stop-opacity="0"/>
<stop offset="1" stop-color="white"/>
</radialGradient>
<radialGradient id="paint32_radial" cx="0" cy="0" r="1" gradientUnits="userSpaceOnUse" gradientTransform="translate(697.435 -199.962) rotate(90) scale(307.86 261.537)">
<stop stop-color="white" stop-opacity="0"/>
<stop offset="1" stop-color="white"/>
</radialGradient>
<radialGradient id="paint33_radial" cx="0" cy="0" r="1" gradientUnits="userSpaceOnUse" gradientTransform="translate(643.221 -236.856) rotate(90) scale(344.754 207.324)">
<stop stop-color="white" stop-opacity="0"/>
<stop offset="1" stop-color="white"/>
</radialGradient>
<radialGradient id="paint34_radial" cx="0" cy="0" r="1" gradientUnits="userSpaceOnUse" gradientTransform="translate(582.654 -263.399) rotate(90) scale(371.297 146.756)">
<stop stop-color="white" stop-opacity="0"/>
<stop offset="1" stop-color="white"/>
</radialGradient>
<radialGradient id="paint35_radial" cx="0" cy="0" r="1" gradientUnits="userSpaceOnUse" gradientTransform="translate(517.577 -278.567) rotate(90) scale(386.464 81.6792)">
<stop stop-color="white" stop-opacity="0"/>
<stop offset="1" stop-color="white"/>
</radialGradient>
</defs>
</svg>
