<?xml version="1.0" encoding="utf-8"?>
<!-- Generator: Adobe Illustrator 24.0.3, SVG Export Plug-In . SVG Version: 6.00 Build 0)  -->
<svg version="1.1" id="Layer_1" xmlns="http://www.w3.org/2000/svg" xmlns:xlink="http://www.w3.org/1999/xlink" x="0px" y="0px"
	 viewBox="0 0 895 888" style="enable-background:new 0 0 895 888;" xml:space="preserve">
<style type="text/css">
	.st0{opacity:0.1;}
	.st1{fill:#BCBCBC;}
	.st2{fill:url(#SVGID_1_);}
	.st3{fill:url(#SVGID_2_);}
	.st4{fill:url(#SVGID_3_);}
	.st5{fill:url(#SVGID_4_);}
	.st6{fill:url(#SVGID_5_);}
	.st7{fill:url(#SVGID_6_);}
	.st8{fill:url(#SVGID_7_);}
	.st9{fill:url(#SVGID_8_);}
	.st10{fill:url(#SVGID_9_);}
	.st11{fill:url(#SVGID_10_);}
	.st12{fill:url(#SVGID_11_);}
	.st13{fill:url(#SVGID_12_);}
	.st14{fill:url(#SVGID_13_);}
	.st15{fill:url(#SVGID_14_);}
	.st16{fill:url(#SVGID_15_);}
	.st17{fill:url(#SVGID_16_);}
	.st18{fill:url(#SVGID_17_);}
	.st19{fill:url(#SVGID_18_);}
	.st20{fill:url(#SVGID_19_);}
	.st21{fill:url(#SVGID_20_);}
	.st22{fill:url(#SVGID_21_);}
	.st23{fill:url(#SVGID_22_);}
	.st24{fill:url(#SVGID_23_);}
	.st25{fill:url(#SVGID_24_);}
	.st26{fill:url(#SVGID_25_);}
	.st27{fill:url(#SVGID_26_);}
	.st28{fill:url(#SVGID_27_);}
	.st29{fill:url(#SVGID_28_);}
	.st30{fill:url(#SVGID_29_);}
	.st31{fill:url(#SVGID_30_);}
	.st32{fill:url(#SVGID_31_);}
	.st33{fill:url(#SVGID_32_);}
	.st34{fill:url(#SVGID_33_);}
	.st35{fill:url(#SVGID_34_);}
	.st36{fill:url(#SVGID_35_);}
	.st37{fill:url(#SVGID_36_);}
</style>
<g class="st0">
	<path class="st1" d="M447.4,444.2L431.4,0.6h32.3L447.4,444.2z"/>
	
		<radialGradient id="SVGID_1_" cx="-190.5345" cy="964.1686" r="0.5689" gradientTransform="matrix(2.387749e-14 389.949 28.3878 -1.738251e-15 -26923.125 74521.1562)" gradientUnits="userSpaceOnUse">
		<stop  offset="0" style="stop-color:#FFFFFF;stop-opacity:0"/>
		<stop  offset="1" style="stop-color:#FFFFFF"/>
	</radialGradient>
	<path class="st2" d="M447.4,444.2L431.4,0.6h32.3L447.4,444.2z"/>
	<path class="st1" d="M447.4,444.2L354.5,10.1l31.8-5.6L447.4,444.2z"/>
	
		<radialGradient id="SVGID_2_" cx="-190.5252" cy="959.9232" r="0.5689" gradientTransform="matrix(2.366409e-14 386.464 81.6791 -5.001403e-15 -78004.6797 73855.5156)" gradientUnits="userSpaceOnUse">
		<stop  offset="0" style="stop-color:#FFFFFF;stop-opacity:0"/>
		<stop  offset="1" style="stop-color:#FFFFFF"/>
	</radialGradient>
	<path class="st3" d="M447.4,444.2L354.5,10.1l31.8-5.6L447.4,444.2z"/>
	<path class="st1" d="M447.4,444.2L280.6,32.9l30.3-11.1L447.4,444.2z"/>
	
		<radialGradient id="SVGID_3_" cx="-190.4826" cy="958.8191" r="0.5689" gradientTransform="matrix(2.273538e-14 371.297 146.654 -8.979968e-15 -140250.6406 70958.625)" gradientUnits="userSpaceOnUse">
		<stop  offset="0" style="stop-color:#FFFFFF;stop-opacity:0"/>
		<stop  offset="1" style="stop-color:#FFFFFF"/>
	</radialGradient>
	<path class="st4" d="M447.4,444.2L280.6,32.9l30.3-11.1L447.4,444.2z"/>
	<path class="st1" d="M447.4,444.2L211.7,68.1l28-16.1L447.4,444.2z"/>
	
		<radialGradient id="SVGID_4_" cx="-190.3989" cy="958.4134" r="0.5689" gradientTransform="matrix(2.111010e-14 344.754 207.221 -1.268863e-14 -198273.8125 65888.9141)" gradientUnits="userSpaceOnUse">
		<stop  offset="0" style="stop-color:#FFFFFF;stop-opacity:0"/>
		<stop  offset="1" style="stop-color:#FFFFFF"/>
	</radialGradient>
	<path class="st5" d="M447.4,444.2L211.7,68.1l28-16.1L447.4,444.2z"/>
	<path class="st1" d="M447.4,444.2L149.9,114.7L174.6,94L447.4,444.2z"/>
	
		<radialGradient id="SVGID_5_" cx="-190.2587" cy="958.2094" r="0.5689" gradientTransform="matrix(1.885099e-14 307.86 261.537 -1.601452e-14 -250308.5312 58842.1562)" gradientUnits="userSpaceOnUse">
		<stop  offset="0" style="stop-color:#FFFFFF;stop-opacity:0"/>
		<stop  offset="1" style="stop-color:#FFFFFF"/>
	</radialGradient>
	<path class="st6" d="M447.4,444.2L149.9,114.7L174.6,94L447.4,444.2z"/>
	<path class="st1" d="M447.4,444.2L97.2,171.4l20.8-24.7L447.4,444.2z"/>
	
		<radialGradient id="SVGID_6_" cx="-190.0267" cy="958.0923" r="0.5689" gradientTransform="matrix(1.601452e-14 261.537 307.86 -1.885099e-14 -294685.9688 49994.4609)" gradientUnits="userSpaceOnUse">
		<stop  offset="0" style="stop-color:#FFFFFF;stop-opacity:0"/>
		<stop  offset="1" style="stop-color:#FFFFFF"/>
	</radialGradient>
	<path class="st7" d="M447.4,444.2L97.2,171.4l20.8-24.7L447.4,444.2z"/>
	<path class="st1" d="M447.4,444.2L55.2,236.3l16.1-27.9L447.4,444.2z"/>
	
		<radialGradient id="SVGID_7_" cx="-189.6225" cy="958.0215" r="0.5689" gradientTransform="matrix(1.268863e-14 207.221 344.754 -2.111010e-14 -330030.4375 39620.1055)" gradientUnits="userSpaceOnUse">
		<stop  offset="0" style="stop-color:#FFFFFF;stop-opacity:0"/>
		<stop  offset="1" style="stop-color:#FFFFFF"/>
	</radialGradient>
	<path class="st8" d="M447.4,444.2L55.2,236.3l16.1-27.9L447.4,444.2z"/>
	<path class="st1" d="M447.4,444.2L25,307.7l11.1-30.3L447.4,444.2z"/>
	
		<radialGradient id="SVGID_8_" cx="-188.8186" cy="957.9794" r="0.5689" gradientTransform="matrix(8.979968e-15 146.654 371.297 -2.273538e-14 -355458.625 28051.8125)" gradientUnits="userSpaceOnUse">
		<stop  offset="0" style="stop-color:#FFFFFF;stop-opacity:0"/>
		<stop  offset="1" style="stop-color:#FFFFFF"/>
	</radialGradient>
	<path class="st9" d="M447.4,444.2L25,307.7l11.1-30.3L447.4,444.2z"/>
	<path class="st1" d="M447.4,444.2L7.8,383.1l5.6-31.8L447.4,444.2z"/>
	
		<radialGradient id="SVGID_9_" cx="-186.6308" cy="957.9578" r="0.5689" gradientTransform="matrix(5.001403e-15 81.6791 386.464 -2.366409e-14 -369988.5938 15641.6055)" gradientUnits="userSpaceOnUse">
		<stop  offset="0" style="stop-color:#FFFFFF;stop-opacity:0"/>
		<stop  offset="1" style="stop-color:#FFFFFF"/>
	</radialGradient>
	<path class="st10" d="M447.4,444.2L7.8,383.1l5.6-31.8L447.4,444.2z"/>
	<path class="st1" d="M447.4,444.2L3.8,460.4v-32.3L447.4,444.2z"/>
	
		<radialGradient id="SVGID_10_" cx="-177.7935" cy="957.9531" r="0.5689" gradientTransform="matrix(1.738251e-15 28.3878 389.949 -2.387749e-14 -373327.25 5491.4575)" gradientUnits="userSpaceOnUse">
		<stop  offset="0" style="stop-color:#FFFFFF;stop-opacity:0"/>
		<stop  offset="1" style="stop-color:#FFFFFF"/>
	</radialGradient>
	<path class="st11" d="M447.4,444.2L3.8,460.4v-32.3L447.4,444.2z"/>
	<path class="st1" d="M447.4,444.2L13.4,537.2l-5.6-31.7L447.4,444.2z"/>
	
		<radialGradient id="SVGID_11_" cx="-187.4931" cy="957.9578" r="0.5689" gradientTransform="matrix(5.001409e-15 81.6792 386.464 -2.366409e-14 -369988.5938 15804.9834)" gradientUnits="userSpaceOnUse">
		<stop  offset="0" style="stop-color:#FFFFFF;stop-opacity:0"/>
		<stop  offset="1" style="stop-color:#FFFFFF"/>
	</radialGradient>
	<path class="st12" d="M447.4,444.2L13.4,537.2l-5.6-31.7L447.4,444.2z"/>
	<path class="st1" d="M447.4,444.2l-411.4,167L25,580.9L447.4,444.2z"/>
	
		<radialGradient id="SVGID_12_" cx="-189.6828" cy="957.9794" r="0.5689" gradientTransform="matrix(8.986213e-15 146.756 371.297 -2.273538e-14 -355458.625 28364.8047)" gradientUnits="userSpaceOnUse">
		<stop  offset="0" style="stop-color:#FFFFFF;stop-opacity:0"/>
		<stop  offset="1" style="stop-color:#FFFFFF"/>
	</radialGradient>
	<path class="st13" d="M447.4,444.2l-411.4,167L25,580.9L447.4,444.2z"/>
	<path class="st1" d="M447.4,444.2L71.3,680.1l-16.1-28L447.4,444.2z"/>
	
		<radialGradient id="SVGID_13_" cx="-190.4857" cy="958.0215" r="0.5689" gradientTransform="matrix(1.269493e-14 207.324 344.754 -2.111010e-14 -330030.4375 40054.4297)" gradientUnits="userSpaceOnUse">
		<stop  offset="0" style="stop-color:#FFFFFF;stop-opacity:0"/>
		<stop  offset="1" style="stop-color:#FFFFFF"/>
	</radialGradient>
	<path class="st14" d="M447.4,444.2L71.3,680.1l-16.1-28L447.4,444.2z"/>
	<path class="st1" d="M447.4,444.2L117.9,741.8l-20.8-24.7L447.4,444.2z"/>
	
		<radialGradient id="SVGID_14_" cx="-190.889" cy="958.0923" r="0.5689" gradientTransform="matrix(1.601452e-14 261.537 307.86 -1.885099e-14 -294685.9688 50517.5352)" gradientUnits="userSpaceOnUse">
		<stop  offset="0" style="stop-color:#FFFFFF;stop-opacity:0"/>
		<stop  offset="1" style="stop-color:#FFFFFF"/>
	</radialGradient>
	<path class="st15" d="M447.4,444.2L117.9,741.8l-20.8-24.7L447.4,444.2z"/>
	<path class="st1" d="M447.4,444.2L174.6,794.5l-24.7-20.8L447.4,444.2z"/>
	
		<radialGradient id="SVGID_15_" cx="-191.121" cy="958.2094" r="0.5689" gradientTransform="matrix(1.885099e-14 307.86 261.537 -1.601452e-14 -250308.5312 59457.875)" gradientUnits="userSpaceOnUse">
		<stop  offset="0" style="stop-color:#FFFFFF;stop-opacity:0"/>
		<stop  offset="1" style="stop-color:#FFFFFF"/>
	</radialGradient>
	<path class="st16" d="M447.4,444.2L174.6,794.5l-24.7-20.8L447.4,444.2z"/>
	<path class="st1" d="M447.4,444.2L239.5,836.6l-27.9-16.1L447.4,444.2z"/>
	
		<radialGradient id="SVGID_16_" cx="-191.2616" cy="958.4134" r="0.5689" gradientTransform="matrix(2.111634e-14 344.856 207.221 -1.268863e-14 -198273.8125 66598.1016)" gradientUnits="userSpaceOnUse">
		<stop  offset="0" style="stop-color:#FFFFFF;stop-opacity:0"/>
		<stop  offset="1" style="stop-color:#FFFFFF"/>
	</radialGradient>
	<path class="st17" d="M447.4,444.2L239.5,836.6l-27.9-16.1L447.4,444.2z"/>
	<path class="st1" d="M447.4,444.2L310.9,866.8l-30.3-11.1L447.4,444.2z"/>
	
		<radialGradient id="SVGID_17_" cx="-191.3452" cy="958.8191" r="0.5689" gradientTransform="matrix(2.274163e-14 371.399 146.654 -8.979968e-15 -140250.6406 71720.9062)" gradientUnits="userSpaceOnUse">
		<stop  offset="0" style="stop-color:#FFFFFF;stop-opacity:0"/>
		<stop  offset="1" style="stop-color:#FFFFFF"/>
	</radialGradient>
	<path class="st18" d="M447.4,444.2L310.9,866.8l-30.3-11.1L447.4,444.2z"/>
	<path class="st1" d="M447.4,444.2L386.3,884l-31.8-5.6L447.4,444.2z"/>
	
		<radialGradient id="SVGID_18_" cx="-191.3878" cy="959.9232" r="0.5689" gradientTransform="matrix(2.367040e-14 386.567 81.6791 -5.001403e-15 -78004.6797 74648.3281)" gradientUnits="userSpaceOnUse">
		<stop  offset="0" style="stop-color:#FFFFFF;stop-opacity:0"/>
		<stop  offset="1" style="stop-color:#FFFFFF"/>
	</radialGradient>
	<path class="st19" d="M447.4,444.2L386.3,884l-31.8-5.6L447.4,444.2z"/>
	<path class="st1" d="M447.4,444.2L463.6,888h-32.3L447.4,444.2z"/>
	
		<radialGradient id="SVGID_19_" cx="-191.3971" cy="964.1686" r="0.5689" gradientTransform="matrix(2.388374e-14 390.051 28.3878 -1.738251e-15 -26923.125 75320.7422)" gradientUnits="userSpaceOnUse">
		<stop  offset="0" style="stop-color:#FFFFFF;stop-opacity:0"/>
		<stop  offset="1" style="stop-color:#FFFFFF"/>
	</radialGradient>
	<path class="st20" d="M447.4,444.2L463.6,888h-32.3L447.4,444.2z"/>
	<path class="st1" d="M447.4,444.2l92.9,434.2l-31.7,5.6L447.4,444.2z"/>
	
		<radialGradient id="SVGID_20_" cx="-191.3878" cy="959.0609" r="0.5689" gradientTransform="matrix(2.367040e-14 386.567 81.6792 -5.001409e-15 -77841.4141 74648.3281)" gradientUnits="userSpaceOnUse">
		<stop  offset="0" style="stop-color:#FFFFFF;stop-opacity:0"/>
		<stop  offset="1" style="stop-color:#FFFFFF"/>
	</radialGradient>
	<path class="st21" d="M447.4,444.2l92.9,434.2l-31.7,5.6L447.4,444.2z"/>
	<path class="st1" d="M447.4,444.2l167,411.5l-30.3,11.1L447.4,444.2z"/>
	
		<radialGradient id="SVGID_21_" cx="-191.3452" cy="957.9558" r="0.5689" gradientTransform="matrix(2.274163e-14 371.399 146.756 -8.986213e-15 -140054.8281 71720.9062)" gradientUnits="userSpaceOnUse">
		<stop  offset="0" style="stop-color:#FFFFFF;stop-opacity:0"/>
		<stop  offset="1" style="stop-color:#FFFFFF"/>
	</radialGradient>
	<path class="st22" d="M447.4,444.2l167,411.5l-30.3,11.1L447.4,444.2z"/>
	<path class="st1" d="M447.4,444.2l235.9,376.3l-28,16.1L447.4,444.2z"/>
	
		<radialGradient id="SVGID_22_" cx="-191.2616" cy="957.5506" r="0.5689" gradientTransform="matrix(2.111634e-14 344.856 207.324 -1.269493e-14 -197957.8594 66598.1016)" gradientUnits="userSpaceOnUse">
		<stop  offset="0" style="stop-color:#FFFFFF;stop-opacity:0"/>
		<stop  offset="1" style="stop-color:#FFFFFF"/>
	</radialGradient>
	<path class="st23" d="M447.4,444.2l235.9,376.3l-28,16.1L447.4,444.2z"/>
	<path class="st1" d="M447.4,444.2L745,773.9l-24.7,20.6L447.4,444.2z"/>
	
		<radialGradient id="SVGID_23_" cx="-191.121" cy="957.3471" r="0.5689" gradientTransform="matrix(1.885099e-14 307.86 261.537 -1.601452e-14 -249785.4688 59457.875)" gradientUnits="userSpaceOnUse">
		<stop  offset="0" style="stop-color:#FFFFFF;stop-opacity:0"/>
		<stop  offset="1" style="stop-color:#FFFFFF"/>
	</radialGradient>
	<path class="st24" d="M447.4,444.2L745,773.9l-24.7,20.6L447.4,444.2z"/>
	<path class="st1" d="M447.4,444.2l350.3,272.8l-20.6,24.7L447.4,444.2z"/>
	
		<radialGradient id="SVGID_24_" cx="-190.889" cy="957.23" r="0.5689" gradientTransform="matrix(1.601452e-14 261.537 307.86 -1.885099e-14 -294070.25 50517.5352)" gradientUnits="userSpaceOnUse">
		<stop  offset="0" style="stop-color:#FFFFFF;stop-opacity:0"/>
		<stop  offset="1" style="stop-color:#FFFFFF"/>
	</radialGradient>
	<path class="st25" d="M447.4,444.2l350.3,272.8l-20.6,24.7L447.4,444.2z"/>
	<path class="st1" d="M447.4,444.2l392.3,207.9l-16.1,28L447.4,444.2z"/>
	
		<radialGradient id="SVGID_25_" cx="-190.4857" cy="957.1591" r="0.5689" gradientTransform="matrix(1.269493e-14 207.324 344.856 -2.111634e-14 -329438.4375 40054.4297)" gradientUnits="userSpaceOnUse">
		<stop  offset="0" style="stop-color:#FFFFFF;stop-opacity:0"/>
		<stop  offset="1" style="stop-color:#FFFFFF"/>
	</radialGradient>
	<path class="st26" d="M447.4,444.2l392.3,207.9l-16.1,28L447.4,444.2z"/>
	<path class="st1" d="M447.4,444.2L870,580.9l-11.1,30.3L447.4,444.2z"/>
	
		<radialGradient id="SVGID_26_" cx="-189.6828" cy="957.1169" r="0.5689" gradientTransform="matrix(8.986213e-15 146.756 371.399 -2.274163e-14 -354813.5312 28364.8047)" gradientUnits="userSpaceOnUse">
		<stop  offset="0" style="stop-color:#FFFFFF;stop-opacity:0"/>
		<stop  offset="1" style="stop-color:#FFFFFF"/>
	</radialGradient>
	<path class="st27" d="M447.4,444.2L870,580.9l-11.1,30.3L447.4,444.2z"/>
	<path class="st1" d="M447.4,444.2l439.8,61.2l-5.6,31.7L447.4,444.2z"/>
	
		<radialGradient id="SVGID_27_" cx="-187.4931" cy="957.0954" r="0.5689" gradientTransform="matrix(5.001409e-15 81.6792 386.567 -2.367040e-14 -369314.1562 15804.9834)" gradientUnits="userSpaceOnUse">
		<stop  offset="0" style="stop-color:#FFFFFF;stop-opacity:0"/>
		<stop  offset="1" style="stop-color:#FFFFFF"/>
	</radialGradient>
	<path class="st28" d="M447.4,444.2l439.8,61.2l-5.6,31.7L447.4,444.2z"/>
	<path class="st1" d="M447.4,444.2l443.8-16.1v32.3L447.4,444.2z"/>
	
		<radialGradient id="SVGID_28_" cx="-177.7935" cy="957.0907" r="0.5689" gradientTransform="matrix(1.738251e-15 28.3878 390.051 -2.388374e-14 -372644.8438 5491.4575)" gradientUnits="userSpaceOnUse">
		<stop  offset="0" style="stop-color:#FFFFFF;stop-opacity:0"/>
		<stop  offset="1" style="stop-color:#FFFFFF"/>
	</radialGradient>
	<path class="st29" d="M447.4,444.2l443.8-16.1v32.3L447.4,444.2z"/>
	<path class="st1" d="M447.4,444.2l434.2-92.9l5.6,31.8L447.4,444.2z"/>
	
		<radialGradient id="SVGID_29_" cx="-186.6308" cy="957.0954" r="0.5689" gradientTransform="matrix(5.001403e-15 81.6791 386.567 -2.367040e-14 -369314.1562 15641.6055)" gradientUnits="userSpaceOnUse">
		<stop  offset="0" style="stop-color:#FFFFFF;stop-opacity:0"/>
		<stop  offset="1" style="stop-color:#FFFFFF"/>
	</radialGradient>
	<path class="st30" d="M447.4,444.2l434.2-92.9l5.6,31.8L447.4,444.2z"/>
	<path class="st1" d="M447.4,444.2l411.5-166.9l11.1,30.3L447.4,444.2z"/>
	
		<radialGradient id="SVGID_30_" cx="-188.8186" cy="957.1169" r="0.5689" gradientTransform="matrix(8.979968e-15 146.654 371.399 -2.274163e-14 -354813.5312 28051.8125)" gradientUnits="userSpaceOnUse">
		<stop  offset="0" style="stop-color:#FFFFFF;stop-opacity:0"/>
		<stop  offset="1" style="stop-color:#FFFFFF"/>
	</radialGradient>
	<path class="st31" d="M447.4,444.2l411.5-166.9l11.1,30.3L447.4,444.2z"/>
	<path class="st1" d="M447.4,444.2l376.3-235.8l16.1,28L447.4,444.2z"/>
	
		<radialGradient id="SVGID_31_" cx="-189.6225" cy="957.1591" r="0.5689" gradientTransform="matrix(1.268863e-14 207.221 344.856 -2.111634e-14 -329438.4375 39620.1055)" gradientUnits="userSpaceOnUse">
		<stop  offset="0" style="stop-color:#FFFFFF;stop-opacity:0"/>
		<stop  offset="1" style="stop-color:#FFFFFF"/>
	</radialGradient>
	<path class="st32" d="M447.4,444.2l376.3-235.8l16.1,28L447.4,444.2z"/>
	<path class="st1" d="M447.4,444.2l329.6-297.6l20.6,24.7L447.4,444.2z"/>
	
		<radialGradient id="SVGID_32_" cx="-190.0267" cy="957.23" r="0.5689" gradientTransform="matrix(1.601452e-14 261.537 307.86 -1.885099e-14 -294070.25 49994.4609)" gradientUnits="userSpaceOnUse">
		<stop  offset="0" style="stop-color:#FFFFFF;stop-opacity:0"/>
		<stop  offset="1" style="stop-color:#FFFFFF"/>
	</radialGradient>
	<path class="st33" d="M447.4,444.2l329.6-297.6l20.6,24.7L447.4,444.2z"/>
	<path class="st1" d="M447.4,444.2L720.3,94l24.7,20.8L447.4,444.2z"/>
	
		<radialGradient id="SVGID_33_" cx="-190.2587" cy="957.3471" r="0.5689" gradientTransform="matrix(1.885099e-14 307.86 261.537 -1.601452e-14 -249785.4688 58842.1562)" gradientUnits="userSpaceOnUse">
		<stop  offset="0" style="stop-color:#FFFFFF;stop-opacity:0"/>
		<stop  offset="1" style="stop-color:#FFFFFF"/>
	</radialGradient>
	<path class="st34" d="M447.4,444.2L720.3,94l24.7,20.8L447.4,444.2z"/>
	<path class="st1" d="M447.4,444.2L655.3,52l28,16.1L447.4,444.2z"/>
	
		<radialGradient id="SVGID_34_" cx="-190.3989" cy="957.5506" r="0.5689" gradientTransform="matrix(2.111010e-14 344.754 207.324 -1.269493e-14 -197957.8594 65888.9141)" gradientUnits="userSpaceOnUse">
		<stop  offset="0" style="stop-color:#FFFFFF;stop-opacity:0"/>
		<stop  offset="1" style="stop-color:#FFFFFF"/>
	</radialGradient>
	<path class="st35" d="M447.4,444.2L655.3,52l28,16.1L447.4,444.2z"/>
	<path class="st1" d="M447.4,444.2L584.1,21.8l30.3,11.1L447.4,444.2z"/>
	
		<radialGradient id="SVGID_35_" cx="-190.4826" cy="957.9558" r="0.5689" gradientTransform="matrix(2.273538e-14 371.297 146.756 -8.986213e-15 -140054.8281 70958.625)" gradientUnits="userSpaceOnUse">
		<stop  offset="0" style="stop-color:#FFFFFF;stop-opacity:0"/>
		<stop  offset="1" style="stop-color:#FFFFFF"/>
	</radialGradient>
	<path class="st36" d="M447.4,444.2L584.1,21.8l30.3,11.1L447.4,444.2z"/>
	<path class="st1" d="M447.4,444.2L508.7,4.5l31.7,5.6L447.4,444.2z"/>
	
		<radialGradient id="SVGID_36_" cx="-190.5252" cy="959.0609" r="0.5689" gradientTransform="matrix(2.366409e-14 386.464 81.6792 -5.001409e-15 -77841.4141 73855.5156)" gradientUnits="userSpaceOnUse">
		<stop  offset="0" style="stop-color:#FFFFFF;stop-opacity:0"/>
		<stop  offset="1" style="stop-color:#FFFFFF"/>
	</radialGradient>
	<path class="st37" d="M447.4,444.2L508.7,4.5l31.7,5.6L447.4,444.2z"/>
</g>
</svg>
