<svg width="311" height="218" viewBox="0 0 311 218" fill="none" xmlns="http://www.w3.org/2000/svg">
<path d="M163.526 39.9816L165.332 -45L167.137 39.9816H163.526Z" fill="#2D282A"/>
<path d="M167.137 150.941L165.332 208.132L163.526 150.941H167.137Z" fill="#2D282A"/>
<path d="M142.458 43.8078L119.384 -21.6401L145.869 42.8009L142.458 43.8078Z" fill="#2D282A"/>
<path d="M188.005 146.913L213.687 216.188L184.794 148.122L188.005 146.913Z" fill="#2D282A"/>
<path d="M124.199 53.8767L67.6174 -8.34915L127.008 51.863L124.199 53.8767Z" fill="#2D282A"/>
<path d="M206.263 136.845L258.23 193.23L203.655 138.858L206.263 136.845Z" fill="#2D282A"/>
<path d="M110.957 68.9801L35.5142 28.7044L112.763 66.3622L110.957 68.9801Z" fill="#2D282A"/>
<path d="M219.706 121.741L273.279 150.941L217.901 124.56L219.706 121.741Z" fill="#2D282A"/>
<path d="M104.135 87.3055L30.2974 72.6049L104.937 84.2848L104.135 87.3055Z" fill="#2D282A"/>
<path d="M226.328 103.416L263.447 111.471L225.726 106.638L226.328 103.416Z" fill="#2D282A"/>
<path d="M104.937 106.638L22.2716 119.123L104.135 103.416L104.937 106.638Z" fill="#2D282A"/>
<path d="M225.726 84.2848L311 72.2021L226.328 87.3055L225.726 84.2848Z" fill="#2D282A"/>
<path d="M112.763 124.56L73.8374 142.483L110.957 121.741L112.763 124.56Z" fill="#2D282A"/>
<path d="M217.901 66.3622L281.305 36.3568L219.706 68.9801L217.901 66.3622Z" fill="#2D282A"/>
<path d="M127.008 138.858L97.5135 165.037L124.199 136.845L127.008 138.858Z" fill="#2D282A"/>
<path d="M203.655 51.8629L263.447 -9.75882L206.263 53.8767L203.655 51.8629Z" fill="#2D282A"/>
<path d="M145.869 148.122L132.626 177.724L142.458 146.913L145.869 148.122Z" fill="#2D282A"/>
<path d="M184.794 42.8009L213.687 -23.2512L188.005 43.8078L184.794 42.8009Z" fill="#2D282A"/>
<path d="M173.959 40.3844L183.39 2.52527L177.571 40.9885L173.959 40.3844Z" fill="#2D282A"/>
<path d="M159.112 138.254L142.257 218L152.29 148.122L159.112 138.254Z" fill="#2D282A"/>
<path d="M152.691 41.1899L144.665 -7.1409L156.102 40.5858L152.691 41.1899Z" fill="#2D282A"/>
<path d="M177.972 149.733L183.39 187.592L174.561 150.337L177.972 149.733Z" fill="#2D282A"/>
<path d="M132.626 48.2382L106.944 5.34457L135.837 46.6271L132.626 48.2382Z" fill="#2D282A"/>
<path d="M197.836 142.483L213.687 168.662L194.826 144.094L197.836 142.483Z" fill="#2D282A"/>
<path d="M116.775 61.1264L73.8374 26.4893L118.983 58.7098L116.775 61.1264Z" fill="#2D282A"/>
<path d="M213.888 129.595L239.169 149.733L211.681 132.012L213.888 129.595Z" fill="#2D282A"/>
<path d="M106.543 78.2435L48.7568 56.0919L107.746 75.2228L106.543 78.2435Z" fill="#2D282A"/>
<path d="M223.92 112.679L299.563 138.254L222.716 115.7L223.92 112.679Z" fill="#2D282A"/>
<path d="M103.533 97.173L58.3878 96.1661L103.533 93.951V97.173Z" fill="#2D282A"/>
<path d="M226.93 93.5482L293.544 94.5551L227.13 96.7703L226.93 93.5482Z" fill="#2D282A"/>
<path d="M107.947 116.103L46.349 135.636L106.743 113.082L107.947 116.103Z" fill="#2D282A"/>
<path d="M222.515 74.8201L254.217 66.5636L223.92 77.6394L222.515 74.8201Z" fill="#2D282A"/>
<path d="M119.384 132.414L65.009 172.891L116.976 129.998L119.384 132.414Z" fill="#2D282A"/>
<path d="M211.279 58.307L245.59 34.7458L213.486 60.7236L211.279 58.307Z" fill="#2D282A"/>
<path d="M136.238 144.296L97.5135 203.098L133.228 142.685L136.238 144.296Z" fill="#2D282A"/>
<path d="M194.425 46.4257L222.917 4.9418L197.435 48.0368L194.425 46.4257Z" fill="#2D282A"/>
<path d="M149.079 173.495C145.668 142.685 132.025 143.691 127.41 144.094C113.365 145.101 97.5135 158.392 97.3129 158.593L78.8535 174.502L88.8858 152.552C93.7013 142.08 94.1026 133.421 90.0897 126.977C81.0606 111.874 52.7697 110.061 52.3684 110.061L18.8606 108.249L51.3652 99.5896C64.4071 96.1661 72.6335 90.7289 75.8439 83.2779C79.8568 74.0145 74.8406 64.5498 74.8406 64.3484L68.42 52.2657L82.0639 54.8836C86.0768 56.2932 90.491 55.6891 94.1026 54.6822C112.963 54.6822 118.581 27.8989 118.581 27.4962L120.588 17.83L127.61 26.4893C132.626 32.1279 138.445 34.9472 145.668 34.5444C164.529 33.3361 184.594 12.3928 184.794 12.1914L191.616 4.9418L194.024 14.608C197.234 27.8989 205.862 36.9609 219.907 41.3913C230.943 45.0161 241.176 44.2106 241.376 44.2106L249.803 43.6064L246.794 51.4602C240.373 68.1746 242.179 82.6738 252.612 94.7565C260.437 103.819 270.269 108.047 270.47 108.047L286.722 114.894L269.466 118.318C223.318 127.38 226.127 154.566 226.127 154.767L227.331 164.836L218.302 160.204C211.279 156.58 204.056 154.969 196.632 155.573C174.963 156.982 158.911 176.315 158.71 176.516L150.484 186.384L149.079 173.495Z" fill="#E5191F"/>
<path d="M90.0897 126.574C91.0929 128.387 91.8955 130.199 92.2968 132.213C93.3 126.373 92.6981 121.137 90.0897 116.908C81.0606 102.006 52.569 100.395 52.3684 100.395L48.5561 100.194L18.8606 108.249L52.3684 110.061C52.7697 110.061 81.0606 111.874 90.0897 126.574Z" fill="#A31324"/>
<path d="M243.383 64.9525C243.784 60.7236 244.988 56.0919 246.794 51.4602L249.803 43.6064L245.991 43.8078C243.383 51.4602 242.58 58.5084 243.383 64.9525Z" fill="#BC1320"/>
<path d="M76.8471 70.5911C78.6529 62.536 74.8406 55.085 74.8406 54.8836L74.038 53.474L68.42 52.4671L74.8406 64.5498C74.8406 64.5498 76.2451 66.9663 76.8471 70.5911Z" fill="#BC1320"/>
<path d="M226.127 154.566L218.302 150.538C211.279 146.913 204.056 145.302 196.632 145.907C174.963 147.316 158.911 166.649 158.71 166.85L150.484 176.516L149.079 163.829C145.668 133.22 132.025 134.227 127.41 134.428C113.365 135.435 97.5135 148.726 97.3129 148.927L85.8761 158.593L78.6529 174.301L97.1122 158.392C97.3129 158.191 112.963 144.9 127.209 143.893C131.623 143.49 145.468 142.685 148.879 173.294L150.283 185.981L158.51 176.113C158.71 175.912 174.762 156.781 196.432 155.17C203.855 154.566 211.079 156.177 218.101 159.802L227.13 164.433L226.127 154.566C226.127 154.767 226.127 154.767 226.127 154.566Z" fill="#A31324"/>
<path d="M269.466 108.652C223.318 117.714 226.127 144.9 226.127 145.101L226.528 148.927C228.334 140.469 236.159 124.56 269.266 118.116L286.521 114.693L270.871 108.249L269.466 108.652Z" fill="#A31324"/>
<path d="M148.678 173.495C148.277 171.482 148.076 169.468 147.875 167.454C147.474 165.44 147.073 163.426 146.471 161.413C145.267 157.587 143.863 153.76 141.455 150.538C140.853 149.733 140.251 148.927 139.448 148.323C139.047 147.92 138.646 147.719 138.245 147.316L137.041 146.511C135.435 145.504 133.429 144.9 131.423 144.698C130.419 144.497 129.416 144.698 128.413 144.698C127.41 144.698 126.406 144.9 125.403 145.101C124.4 145.302 123.397 145.504 122.394 145.705C121.39 146.108 120.387 146.309 119.585 146.712C115.772 148.122 112.161 150.136 108.75 152.149C105.339 154.364 101.928 156.781 98.9181 159.399L80.6594 175.912L73.0348 182.759L77.0477 173.294L83.2677 158.795L86.2774 151.545C87.2806 149.129 88.0832 146.913 88.6852 144.497C89.889 139.865 90.0897 135.032 88.4845 131.005C86.8793 126.977 83.4684 123.554 79.4555 121.137C77.449 119.929 75.2419 118.922 72.8342 117.915C70.4265 117.109 68.0187 116.304 65.611 115.7C60.5948 114.492 55.5787 113.485 50.5626 113.283C39.9284 112.478 29.2942 111.874 18.66 111.068L0 109.658L18.0581 105.228L41.7342 99.3882L47.7535 97.9785L50.7632 97.173C51.7664 96.9717 52.7697 96.7703 53.5723 96.3675C57.3845 95.3606 60.9961 93.951 64.4071 92.1386C67.8181 90.3262 70.8277 87.9096 72.8342 84.889C75.0413 81.8683 75.8439 78.2435 75.8439 74.4173C75.8439 72.6049 75.4426 70.5911 75.0413 68.7787C74.8406 67.7718 74.4394 66.9663 74.2387 65.9594C74.0381 65.5566 73.8374 65.1539 73.6368 64.7511L72.8342 63.7442C71.0284 60.1194 69.2226 56.4946 67.2161 53.0712L66.2129 50.6547L68.8213 51.0574L82.4652 53.6753C84.271 54.2795 86.0768 54.4809 88.0832 54.4809C90.0897 54.4809 91.8955 54.0781 93.7013 53.474H93.9019H94.1026C97.9148 53.474 101.727 52.0643 104.737 49.6478C107.746 47.2312 110.154 44.0092 112.161 40.5858C113.966 37.1623 115.572 33.3361 116.575 29.51C116.775 28.5031 116.976 27.6975 117.177 26.6907L117.779 23.67L118.782 17.6286L119.384 14.2052L121.591 17.0245L128.614 25.4824C130.821 28.1003 133.63 30.1141 136.639 31.5237C139.649 32.732 143.06 33.1348 146.471 32.5306C149.882 32.1279 153.092 30.9196 156.303 29.51C162.723 26.6907 168.542 22.4617 173.959 18.0314C176.768 15.8162 179.377 13.3997 181.785 10.7818L189.208 2.72665L193.221 -1.70367L194.626 4.13629L197.034 13.6011C197.836 16.6217 198.839 19.441 200.244 22.059C203.053 27.2948 207.467 31.5237 212.684 34.343C217.901 37.3637 224.121 38.9747 230.341 39.7802C233.35 40.183 236.561 40.3844 239.771 40.3844H240.975H242.179L244.586 40.183L249.603 39.7802L255.622 39.3775L253.415 45.0161L251.408 50.4533C251.007 51.4602 250.606 52.2657 250.405 53.2726L249.402 55.8905C248.198 59.3139 247.596 62.9387 247.195 66.5635C246.994 70.1884 247.195 73.6118 247.797 77.0352C248.599 80.4586 249.803 83.6807 251.609 86.7014C253.415 89.722 255.622 92.5413 258.23 94.9579C260.839 97.3744 263.848 99.791 266.858 101.603C268.463 102.61 270.068 103.416 271.473 104.221L276.89 106.436L287.926 111.068L299.965 116.103L287.123 118.519L276.088 120.533L270.67 121.54C268.865 121.943 267.059 122.345 265.253 122.547C258.23 124.158 251.408 126.373 245.389 129.796C239.37 133.22 234.153 137.851 231.143 143.893C229.739 146.913 228.735 150.136 228.535 153.358C228.535 153.559 228.535 153.76 228.535 153.962C228.535 154.163 228.535 153.962 228.535 154.163V154.566L228.735 155.975L228.936 158.795L229.538 164.232L229.939 168.864L225.926 166.649L216.095 161.211C212.885 159.6 209.474 158.191 206.063 157.385C199.04 155.774 191.616 156.378 184.594 158.795C181.183 160.003 177.772 161.614 174.561 163.426C171.351 165.239 168.341 167.454 165.532 169.871C162.723 172.287 159.914 174.704 157.707 177.724L150.484 186.384L149.681 187.189L149.481 186.182L148.678 173.495ZM149.481 173.495L150.885 186.182L150.083 185.981L157.105 177.322C159.312 174.301 162.121 171.683 164.93 169.266C167.739 166.85 170.749 164.433 173.959 162.42C177.17 160.406 180.581 158.593 184.192 157.184C191.415 154.364 199.241 153.156 207.066 154.566C210.878 155.17 214.69 156.378 218.302 157.989L228.535 162.822L224.923 165.239L224.121 159.802L223.719 156.982L223.519 155.573V155.17V154.767C223.519 154.364 223.519 154.163 223.519 153.962C223.519 151.747 223.719 149.733 224.121 147.719C224.522 145.705 225.124 143.691 225.926 141.879C226.729 140.067 227.732 138.254 228.936 136.643C230.14 135.032 231.344 133.421 232.748 132.011C235.557 128.991 238.768 126.574 242.179 124.56C249.001 120.332 256.425 117.714 263.848 115.901C265.654 115.498 267.661 115.096 269.466 114.693L274.884 113.686L285.919 111.471L285.117 118.922L274.081 114.492L268.463 112.276C266.457 111.27 264.651 110.263 262.845 109.256C255.622 104.825 249.201 98.7841 244.787 91.3331C242.58 87.7083 240.975 83.4793 239.972 79.2504C238.968 75.0214 238.768 70.5911 239.169 66.3622C239.57 62.1332 240.574 57.9043 241.777 54.0781L242.781 51.0574C243.182 50.0505 243.583 49.245 243.784 48.2381L245.991 42.8009L249.803 48.0368L244.787 48.2381L242.379 48.4395H240.975C240.574 48.4395 239.972 48.4395 239.57 48.4395C235.959 48.4395 232.548 48.2381 229.137 47.634C222.315 46.6271 215.292 44.6133 209.072 40.9885C202.852 37.3637 197.435 32.1279 194.024 25.6838C192.419 22.4617 191.215 19.0383 190.412 15.6149L188.606 5.54594L194.024 6.95559L186.199 14.8093C183.39 17.4273 180.581 19.8438 177.571 22.2603C171.552 26.892 165.332 30.9196 158.108 33.7389C154.497 35.1485 150.885 36.3568 146.872 36.5582C142.859 36.9609 138.646 36.5582 135.034 34.7458C131.222 33.1348 128.212 30.5168 125.805 27.4962L118.983 18.8369L121.992 18.2328L120.788 24.2741L120.186 27.2948C119.986 28.3017 119.585 29.3086 119.384 30.3155C118.18 34.343 116.575 38.1692 114.568 41.794C112.361 45.6202 109.753 49.0436 106.342 51.6616C104.536 53.0712 102.73 54.0781 100.523 54.8836C98.5168 55.6891 96.3097 55.8905 94.1026 55.8905H94.5039C92.4974 56.4946 90.491 56.8974 88.2839 56.8974C86.0768 56.8974 83.8697 56.696 81.8632 56.0919H82.0639L68.2194 53.6753L69.6239 51.8629C71.4297 55.4877 73.4361 58.9112 75.4426 62.536L76.2452 63.9456C76.4458 64.5498 76.6464 64.9525 76.8471 65.3553C77.2484 66.3622 77.6497 67.3691 77.8503 68.3759C78.4523 70.3897 78.8536 72.4035 79.0542 74.6187C79.2548 78.8476 78.4523 83.2779 76.0445 87.1041C73.6368 90.9303 70.2258 93.7496 66.6142 95.9648C63.0026 98.1799 58.9897 99.7909 54.9768 101.201C53.9735 101.603 52.9703 101.805 51.9671 102.207L48.9574 103.013L43.1387 104.624L19.6632 111.068L19.0613 105.228C29.6955 105.631 40.3297 106.034 50.9639 106.638C56.5819 106.839 61.9994 107.846 67.4168 109.256C70.0252 109.86 72.8342 110.867 75.4426 111.874C78.051 112.881 80.6594 114.089 83.0671 115.7C85.4748 117.311 87.8826 118.922 89.889 121.137C91.8955 123.352 93.7013 125.97 94.7045 128.991C95.7077 132.011 96.109 135.032 95.9084 137.851C95.7077 140.872 95.1058 143.691 94.3032 146.309C93.5006 148.927 92.4974 151.545 91.2935 153.962L87.8826 161.01L80.86 175.308L77.2484 172.69L96.5103 157.184C99.9213 154.566 103.332 152.351 107.145 150.337C110.756 148.323 114.568 146.511 118.581 145.101C119.585 144.698 120.588 144.497 121.591 144.296C122.594 144.094 123.597 143.893 124.801 143.691C125.805 143.691 127.008 143.49 128.012 143.49C129.015 143.49 130.219 143.49 131.222 143.691C133.429 143.893 135.435 144.698 137.241 145.907L138.445 146.913C138.846 147.316 139.248 147.719 139.649 147.92C140.452 148.524 141.054 149.531 141.655 150.337C144.264 153.76 145.668 157.788 146.672 161.614C147.274 163.628 147.675 165.642 148.076 167.655C148.879 169.468 149.079 171.482 149.481 173.495Z" fill="#2D282A"/>
</svg>
