<?xml version="1.0" encoding="UTF-8" standalone="no"?>
<!-- Created with Inkscape (http://www.inkscape.org/) -->

<svg
   xmlns:dc="http://purl.org/dc/elements/1.1/"
   xmlns:cc="http://creativecommons.org/ns#"
   xmlns:rdf="http://www.w3.org/1999/02/22-rdf-syntax-ns#"
   xmlns:svg="http://www.w3.org/2000/svg"
   xmlns="http://www.w3.org/2000/svg"
   xmlns:xlink="http://www.w3.org/1999/xlink"
   xmlns:sodipodi="http://sodipodi.sourceforge.net/DTD/sodipodi-0.dtd"
   xmlns:inkscape="http://www.inkscape.org/namespaces/inkscape"
   width="500"
   height="500"
   viewBox="0 0 132.29166 132.29167"
   version="1.1"
   id="svg69392"
   inkscape:version="0.92.4 (5da689c313, 2019-01-14)"
   sodipodi:docname="website.svg">
  <defs
     id="defs69386">
    <symbol
       id="globe">
      <title
         id="globe-title">Globe</title>
      <path
         style="stroke-width:0.26458332"
         inkscape:connector-curvature="0"
         d="m 96.365219,50.8 h 34.774191 c 1.43906,5.402527 2.21033,11.077575 2.21033,16.933333 0,5.855759 -0.77127,11.530807 -2.21033,16.933334 H 96.365219 c 1.363662,-11.390048 1.306777,-22.951546 0,-33.866667 z M 49.004537,93.133333 c 2.825221,14.202837 8.777023,29.769327 18.553907,40.214547 0.05847,2.7e-4 0.116416,0.002 0.174889,0.002 0.05847,0 0.116417,-0.002 0.17489,-0.002 9.792758,-10.46242 15.733977,-26.0387 18.553906,-40.214547 z m 46.071896,-50.8 H 128.25121 C 119.80386,22.23135 101.63387,7.2244479 79.626354,3.1948437 87.626825,14.603677 92.543577,28.682685 95.076433,42.333333 Z M 87.840079,50.8 H 47.626587 c -1.41261,11.089746 -1.414197,22.763956 0,33.866667 H 87.840344 C 89.252954,73.576656 89.254542,61.90271 87.840079,50.8 Z M 40.390233,93.133333 H 7.2154521 C 15.66254,113.23532 33.832535,128.24222 55.840048,132.27182 47.83746,120.85876 42.922296,106.77922 40.390233,93.133333 Z m 54.6862,0 c -2.533385,13.653827 -7.45146,27.732037 -15.450079,39.138487 22.007516,-4.0296 40.177506,-19.0365 48.624596,-39.138487 z m -8.614304,-50.8 C 83.636908,28.1305 77.684842,12.564004 67.908223,2.1187833 c -0.05847,0 -0.116417,-0.00212 -0.17489,-0.00212 -0.05847,0 -0.116416,0.00212 -0.174889,0.00212 C 57.765685,12.581202 51.824467,28.157487 49.004537,42.333333 Z M 4.3272604,50.8 c -1.4393333,5.402527 -2.2105937,11.077575 -2.2105937,16.933333 0,5.855759 0.7712604,11.530807 2.2105937,16.933334 H 39.101448 C 37.794671,73.751546 37.737785,62.190048 39.101448,50.8 Z M 40.390233,42.333333 C 42.923619,28.680304 47.841165,14.602354 55.840312,3.1948437 33.8328,7.2244479 15.662804,22.23135 7.2154521,42.333333 Z"
         id="path66889" />
    </symbol>
  </defs>
  <sodipodi:namedview
     id="base"
     pagecolor="#ffffff"
     bordercolor="#666666"
     borderopacity="1.0"
     inkscape:pageopacity="0.0"
     inkscape:pageshadow="2"
     inkscape:zoom="0.35"
     inkscape:cx="400"
     inkscape:cy="560"
     inkscape:document-units="mm"
     inkscape:current-layer="layer1"
     showgrid="false"
     units="px"
     inkscape:pagecheckerboard="true"
     inkscape:window-width="1366"
     inkscape:window-height="749"
     inkscape:window-x="-4"
     inkscape:window-y="-4"
     inkscape:window-maximized="1" />
  <metadata
     id="metadata69389">
    <rdf:RDF>
      <cc:Work
         rdf:about="">
        <dc:format>image/svg+xml</dc:format>
        <dc:type
           rdf:resource="http://purl.org/dc/dcmitype/StillImage" />
        <dc:title></dc:title>
      </cc:Work>
    </rdf:RDF>
  </metadata>
  <g
     inkscape:label="Layer 1"
     inkscape:groupmode="layer"
     id="layer1"
     transform="translate(0,-164.70832)">
    <use
       id="use72189"
       transform="matrix(0.81566804,0,0,0.81566804,10.21768,175.22831)"
       style="fill:#000000;stroke:none"
       xlink:href="#globe"
       x="0"
       y="0"
       width="100%"
       height="100%" />
  </g>
</svg>
