<?xml version="1.0" encoding="utf-8"?>
<!-- Generator: Adobe Illustrator 24.0.3, SVG Export Plug-In . SVG Version: 6.00 Build 0)  -->
<svg version="1.1" id="Layer_1" xmlns="http://www.w3.org/2000/svg" xmlns:xlink="http://www.w3.org/1999/xlink" x="0px" y="0px"
	 viewBox="0 0 612 792" style="enable-background:new 0 0 612 792;" xml:space="preserve">
<style type="text/css">
	.st0{fill:#000F9F;}
</style>
<path class="st0" d="M424.1,385.3c0-1,0.1-1.5,0.1-2.1c0-8.3,0-16.6,0-24.9c0-1.5,0.3-2,1.9-1.9c4.5,0.1,9,0,13.7,0
	c0,0.7,0.1,1.4,0.1,2.1c0,17.2,0,34.3,0,51.5c0,0.7,0.1,1.4,0.1,2.1c0.1,1.9,1.1,3.1,3.1,3.4c0.3,0,0.6,0.2,0.9,0.3
	c0,4.4,0,8.7,0,13.1c-3.7,0.8-7.3,1.1-11,0.4c-3.3-0.7-5.4-2.9-6-6.3c-0.1-0.7-0.2-1.5-0.4-2.5c-0.5,0.6-0.8,0.9-1,1.3
	c-4.8,6.5-11.5,8.7-19.2,8c-13.3-1.2-21.3-12.9-21.9-24.5c-0.4-7.1,0.8-13.8,4.9-19.8c6.6-9.6,19.2-12.6,28.5-6.6
	c2,1.3,3.6,3.3,5.3,5C423.4,384.2,423.6,384.6,424.1,385.3z M424.3,403.9c0-0.8-0.1-1.7,0-2.5c0.4-3.2-1-5.6-3.1-7.8
	c-6.2-6.8-15.7-5.3-19.4,3.2c-1.3,3-1.7,6.1-1.1,9.4c1,5,3.7,8.7,8.7,10.1c5.2,1.5,9.6,0,13.1-4.1c1.2-1.4,2.1-3,1.8-5
	C424.2,406,424.3,405,424.3,403.9z"/>
<path class="st0" d="M159.7,421.2c0,9.6,0,19.1,0,28.8c-5.3,0-10.4,0-15.7,0c0-0.5-0.1-1-0.1-1.6c0-23.3,0-46.5,0-69.8
	c0-1.3,0.3-1.7,1.7-1.7c3.5,0.1,7,0.1,10.5,0c1.3,0,1.6,0.4,1.6,1.6c-0.1,2.1,0,4.2,0,6.5c0.4-0.4,0.7-0.5,0.8-0.7
	c7.3-10.7,21.7-10.5,30.3-4.4c6.3,4.5,9.6,10.8,10.6,18.4c0.9,6.8,0.1,13.4-3.2,19.4c-4.3,8-11,12.4-20.3,12.1
	c-6.3-0.2-11.5-2.7-15.1-8.1c-0.2-0.3-0.4-0.5-0.6-0.8C159.9,421.1,159.8,421.1,159.7,421.2z M159.7,401.9c0,6,0.5,7.5,3.4,10.7
	c5.9,6.4,14.8,5.1,18.7-2.7c1.5-3,1.9-6.3,1.5-9.6c-0.9-7.7-8.6-12.8-15.9-10.5c-2.7,0.9-4.8,2.6-6.6,4.8c-1.5,1.8-1.1,3.7-1.1,5.7
	C159.7,400.8,159.7,401.4,159.7,401.9z"/>
<g>
	<path class="st0" d="M55.8,358.5c0,0.9,0,1.5,0,2c0,12.3-0.1,24.7,0,37c0.1,9.6,4.3,16.9,13.2,21.1c2.1,1,4.3,1.7,6.5,2.4
		c11.6,3.4,23.3,6.8,34.9,10.2c3.7,1,7.4,1.2,11.3,0.4c-0.5,0.6-1,1.1-1.5,1.7c-5.9,5.5-11.7,11-17.6,16.5
		c-5.7,5.4-12.3,6.8-19.7,4.7c-11.2-3.2-22.4-6.4-33.6-9.8c-5.9-1.8-11.2-4.6-14.9-9.7c-2.3-3.1-3.5-6.6-3.6-10.5
		c-0.2-11.6-0.2-23.3-0.4-34.9c-0.1-4.9,1.6-9,5.2-12.3C42.1,371.1,48.8,365,55.8,358.5z"/>
	<path class="st0" d="M121.8,400.5c0,5.8,0,11.7,0,17.5c0,4.3-2.1,6.2-6.3,5.2c-5.7-1.3-11.4-2.8-17.1-4.3c-1.7-0.4-2-1.3-2-3.5
		c0.1-2.8,0.2-5.7-0.2-8.5c-0.8-6.9-4.9-11.3-11.4-13.4c-5.7-1.8-11.6-3.4-17.4-5.1c-2.7-0.8-3.2-1.4-3.2-4.2
		c0-6.5,0.2-13.1,0.1-19.6c-0.1-4.6,1.4-6.8,7.2-5.8c4.4,0.8,8.6,2.1,12.9,3.4c8.1,2.3,16.3,4.7,24.4,7.2c3.6,1.1,6.7,3.1,9.5,5.5
		c2.4,2.1,3.4,4.9,3.4,8C121.9,388.7,121.8,394.6,121.8,400.5C121.8,400.5,121.8,400.5,121.8,400.5z"/>
</g>
<path class="st0" d="M299.3,403c0,14-8.6,24.4-22.5,26.5c-9.8,1.5-18.9-0.4-26.1-7.8c-5-5.1-7-11.4-7.2-18.4
	c-0.3-13.3,7.8-24,20.7-26.8c9.9-2.1,19.2-0.5,27,6.6C295.8,387.4,299.6,394.7,299.3,403z M271,416.7c4.4,0,7.6-1.8,9.7-5.2
	c3.1-5,3.3-10.4,0.8-15.7c-1.9-4.1-5.3-6.5-10-6.5c-4.7,0-8.1,2.2-10.2,6.4c-2.3,4.7-2.4,9.7-0.2,14.4
	C263.2,414.3,266.6,416.6,271,416.7z"/>
<path class="st0" d="M507.1,429c-3.6,0.7-7.1,1.1-10.5,0.5c-4.1-0.8-6-2.9-6.6-7c-0.1-0.7-0.2-1.3-0.4-2.3c-0.5,0.6-0.9,1.1-1.3,1.5
	c-4,4.9-9.3,7.5-15.5,8.1c-2.8,0.3-5.6,0.3-8.3-0.2c-6.2-1.2-10.2-5.7-11.3-12.4c-0.4-2.3-0.6-4.7-0.6-7c-0.1-10.5,0-21-0.1-31.5
	c0-1.3,0.4-1.7,1.7-1.7c4.2,0.1,8.4,0.1,12.6,0c1.2,0,1.5,0.4,1.5,1.5c0,9.5,0,19.1,0,28.6c0,1.2,0.1,2.4,0.4,3.6
	c1,4.5,4.3,6.7,8.9,5.9c4.4-0.8,7.4-3.3,9.4-7.2c0.3-0.6,0.3-1.3,0.3-2c0-9.5,0-19.1,0-28.6c0-1.4,0.4-1.9,1.8-1.9c4,0.1,8,0.1,12,0
	c1.5,0,1.9,0.5,1.8,1.9c0,10.3,0,20.6,0,30.9c0,0.8,0.1,1.7,0.1,2.5c0.2,2,0.8,2.8,2.7,3.2c1,0.2,1.3,0.6,1.3,1.6
	C507.1,421,507.1,424.9,507.1,429z"/>
<path class="st0" d="M558.4,382.1c-2,3.2-4,6.4-6.1,9.7c-1.8-0.8-3.4-1.7-5.2-2.4c-3.8-1.7-7.8-2.9-12-2.5c-1.4,0.1-2.9,0.5-4.1,1.1
	c-2.5,1.3-2.6,4.8-0.2,6.1c2,1.1,4.3,1.7,6.6,2.4c4.5,1.4,8.9,2.8,13.4,4.2c0.1,0,0.2,0.1,0.3,0.1c4.7,2.1,8.4,4.9,8.8,10.5
	c0.5,6.6-1.8,11.7-7.6,15.2c-3.8,2.3-8,3.2-12.3,3.4c-9.2,0.2-18.1-1.5-26.4-5.6c-0.6-0.3-1.1-0.6-1.7-1c2.1-3.6,4.1-7,6.1-10.5
	c2.2,1.1,4.3,2.2,6.5,3.1c4.8,2,9.8,3.4,15.1,2.8c1.1-0.1,2.2-0.4,3.1-1c2.6-1.5,2.7-4.7,0.1-6.1c-1.6-0.9-3.5-1.5-5.3-2
	c-4-1.2-8-2.4-12-3.6c-0.8-0.2-1.5-0.5-2.2-0.9c-9.2-3.9-11.7-12.9-5.9-21c3.5-4.9,8.5-7.1,14.2-8c9.4-1.3,18,1.4,26.2,5.5
	C558.1,381.8,558.2,381.9,558.4,382.1z"/>
<path class="st0" d="M300.7,377c0.6,0,1.1-0.1,1.6-0.1c4.3,0,8.6,0,12.9,0c1.1,0,1.6,0.3,2,1.5c3.4,12,6.9,23.9,10.4,35.9
	c0.1,0.5,0.3,1,0.6,2c0.3-0.8,0.5-1.2,0.6-1.6c3.5-12,7-24,10.5-36c0.4-1.3,0.9-1.7,2.2-1.7c3.7,0.1,7.5,0,11.3,0c0.5,0,1,0,1.7,0.1
	c-0.2,0.6-0.3,1.1-0.5,1.6c-5.7,16.2-11.5,32.4-17.2,48.6c-0.5,1.3-1.1,1.8-2.4,1.7c-4.6-0.1-9.3-0.1-14,0c-1.1,0-1.6-0.3-1.9-1.4
	c-5.8-16.4-11.6-32.8-17.4-49.1C300.9,378,300.8,377.6,300.7,377z"/>
<path class="st0" d="M222.1,386.7c4.4-6.6,9.8-11.1,18.3-10.6c0,4.8,0,9.4,0,13.9c-2.5,0.4-4.9,0.7-7.3,1.2
	c-3.3,0.8-6.4,2.1-8.6,4.8c-0.6,0.8-1.1,1.9-1.1,2.9c-0.1,9.4-0.1,18.8,0,28.2c0,1.2-0.2,1.7-1.5,1.7c-4.3-0.1-8.5-0.1-12.8,0
	c-1.2,0-1.5-0.4-1.5-1.6c0-16.3,0-32.5,0-48.8c0-1.2,0.3-1.7,1.6-1.6c3.7,0.1,7.5,0.1,11.3,0c1.3,0,1.7,0.4,1.6,1.7
	c-0.1,2.2,0,4.4,0,6.6C222,385.7,222,386.2,222.1,386.7z"/>
<path class="st0" d="M360.4,402.9c0-8.1,0-16.3,0-24.4c0-1.3,0.4-1.6,1.6-1.6c4.2,0.1,8.4,0.1,12.6,0c1.2,0,1.6,0.3,1.6,1.6
	c0,16.3,0,32.5,0,48.8c0,1.3-0.4,1.6-1.6,1.6c-4.2-0.1-8.4-0.1-12.6,0c-1.2,0-1.6-0.3-1.6-1.6C360.4,419.2,360.4,411.1,360.4,402.9z
	"/>
<path class="st0" d="M376,370.6c-5.2,0-10.3,0-15.5,0c0-4.7,0-9.3,0-14.1c5.2,0,10.3,0,15.5,0C376,361.1,376,365.8,376,370.6z"/>
<g>
	<path class="st0" d="M143.6,459.6h16.2v1.3h-7.3v16.2H151V461h-7.3V459.6z"/>
	<path class="st0" d="M168.5,459.6h12.8v1.4H170v6.4h9.2v1.3H170v7.2h11.6v1.3h-13.1V459.6z"/>
	<path class="st0" d="M203.3,472.1l1.5,0.3c-0.6,1.6-1.5,2.8-2.7,3.7c-1.2,0.9-2.7,1.4-4.6,1.4c-2.5,0-4.5-0.9-6-2.6
		c-1.5-1.7-2.3-3.9-2.3-6.5c0-2.6,0.7-4.8,2.2-6.5c1.5-1.7,3.5-2.6,6-2.6c1.8,0,3.4,0.4,4.6,1.3c1.2,0.9,2.1,2.1,2.7,3.7l-1.5,0.3
		c-0.4-1.3-1.1-2.3-2.1-3c-1-0.7-2.2-1.1-3.6-1.1c-2.1,0-3.7,0.7-4.9,2.2c-1.2,1.4-1.8,3.3-1.8,5.7c0,2.3,0.6,4.2,1.8,5.7
		c1.2,1.5,2.9,2.2,4.9,2.2c1.4,0,2.6-0.4,3.6-1.1C202.1,474.4,202.8,473.4,203.3,472.1z"/>
	<path class="st0" d="M226.5,459.6h1.5v17.6h-1.5v-8.5h-11v8.5H214v-17.6h1.5v7.7h11V459.6z"/>
	<path class="st0" d="M250.5,459.6h1.5v17.6h-2.1l-10.3-16v16H238v-17.6h2.1l10.4,16V459.6z"/>
	<path class="st0" d="M269.2,459.3L269.2,459.3c2.6,0,4.6,0.9,6.1,2.6c1.5,1.7,2.2,3.9,2.2,6.5c0,2.6-0.7,4.8-2.2,6.5
		c-1.5,1.7-3.5,2.6-6,2.6s-4.5-0.9-6-2.6s-2.3-3.9-2.3-6.5c0-2.6,0.7-4.8,2.2-6.5C264.6,460.1,266.7,459.3,269.2,459.3z
		 M262.5,468.4c0,2.3,0.6,4.2,1.8,5.7c1.2,1.5,2.9,2.2,4.9,2.2c2.1,0,3.7-0.7,4.9-2.2c1.2-1.5,1.8-3.4,1.8-5.7
		c0-2.3-0.6-4.2-1.8-5.7c-1.2-1.4-2.8-2.2-4.9-2.2c-2.1,0-3.7,0.7-4.9,2.2C263.1,464.1,262.5,466,262.5,468.4z"/>
	<path class="st0" d="M286.9,459.6h1.5v16.2h11.1v1.3h-12.6V459.6z"/>
	<path class="st0" d="M314.8,459.3L314.8,459.3c2.6,0,4.6,0.9,6.1,2.6c1.5,1.7,2.2,3.9,2.2,6.5c0,2.6-0.7,4.8-2.2,6.5
		c-1.5,1.7-3.5,2.6-6,2.6c-2.5,0-4.5-0.9-6-2.6c-1.5-1.7-2.3-3.9-2.3-6.5c0-2.6,0.7-4.8,2.2-6.5
		C310.2,460.1,312.2,459.3,314.8,459.3z M308.1,468.4c0,2.3,0.6,4.2,1.8,5.7c1.2,1.5,2.9,2.2,4.9,2.2c2.1,0,3.7-0.7,4.9-2.2
		c1.2-1.5,1.8-3.4,1.8-5.7c0-2.3-0.6-4.2-1.8-5.7c-1.2-1.4-2.8-2.2-4.9-2.2c-2.1,0-3.7,0.7-4.9,2.2
		C308.7,464.1,308.1,466,308.1,468.4z"/>
	<path class="st0" d="M346.4,477.2l-0.3-3.4c-0.4,0.9-1.2,1.8-2.3,2.5c-1.2,0.8-2.5,1.1-4.1,1.1c-2.5,0-4.5-0.9-6-2.6
		c-1.5-1.7-2.3-3.9-2.3-6.5c0-2.6,0.7-4.8,2.2-6.5c1.5-1.7,3.5-2.6,6-2.6c1.8,0,3.4,0.4,4.7,1.3c1.3,0.9,2.2,2.1,2.9,3.7l-1.5,0.3
		c-0.5-1.3-1.3-2.3-2.3-3c-1-0.7-2.3-1.1-3.7-1.1c-2.1,0-3.7,0.7-4.9,2.2c-1.2,1.4-1.8,3.3-1.8,5.7c0,2.3,0.6,4.2,1.8,5.7
		c1.2,1.5,2.9,2.2,4.9,2.2c0.9,0,1.6-0.2,2.4-0.5c0.7-0.3,1.3-0.7,1.8-1.2c0.5-0.5,0.9-1,1.3-1.6c0.4-0.6,0.6-1.1,0.8-1.6
		c0.2-0.5,0.2-0.9,0.2-1.3h-6.7v-1.3h8.1v8.4H346.4z"/>
	<path class="st0" d="M357.7,459.6h1.5v17.6h-1.5V459.6z"/>
	<path class="st0" d="M369.8,459.6h12.8v1.4h-11.3v6.4h9.2v1.3h-9.2v7.2h11.6v1.3h-13.1V459.6z"/>
	<path class="st0" d="M400.7,469.1l-4.1-0.8c-1.5-0.3-2.6-0.6-3.2-1c-1.1-0.7-1.7-1.8-1.7-3.1c0-1.1,0.3-1.9,1-2.7
		c0.7-0.7,1.5-1.3,2.5-1.6c1-0.3,2.1-0.5,3.3-0.5c1.5,0,2.8,0.3,4,0.8c1.2,0.5,2.1,1.2,2.8,2.1l-1.7,0.3c-1.3-1.4-3-2.1-5.1-2.1
		c-1.6,0-2.8,0.3-3.8,1c-1,0.7-1.4,1.5-1.4,2.7c0,0.6,0.3,1.1,0.7,1.5c0.5,0.4,0.9,0.7,1.3,0.9c0.4,0.2,0.9,0.3,1.3,0.4l4.3,0.8
		c3.2,0.6,4.8,2.2,4.8,4.6c0,0.8-0.1,1.5-0.4,2.1c-0.3,0.6-0.6,1.1-1.1,1.5c-0.4,0.4-1,0.7-1.6,1c-0.6,0.3-1.2,0.4-1.8,0.5
		c-0.6,0.1-1.3,0.2-1.9,0.2c-0.9,0-1.6,0-2.3-0.1s-1.4-0.2-2.2-0.5s-1.5-0.6-2.1-1.2c-0.6-0.5-1.1-1.2-1.5-2l1.6-0.3
		c1.2,2,3.3,3,6.4,3c1.7,0,3-0.4,3.9-1.1s1.3-1.7,1.3-2.9c0-0.6-0.1-1-0.4-1.5c-0.3-0.4-0.6-0.7-1-1c-0.4-0.2-0.8-0.4-1.1-0.5
		C401.4,469.2,401,469.1,400.7,469.1z"/>
	<path class="st0" d="M428.2,459.6h1.5v16.2h11.1v1.3h-12.6V459.6z"/>
	<path class="st0" d="M449.7,459.6h1.5v17.6h-1.5V459.6z"/>
	<path class="st0" d="M476.8,477.2l-0.1-16.3h-0.5l-5.7,16.3h-1.6l-5.7-16.3h-0.5v16.3h-1.5v-17.6h3.1l5.5,15.7l5.5-15.7h3.1v17.6
		H476.8z"/>
	<path class="st0" d="M488.9,459.6h1.5v17.6h-1.5V459.6z"/>
	<path class="st0" d="M499.3,459.6h16.2v1.3h-7.3v16.2h-1.5V461h-7.3V459.6z"/>
	<path class="st0" d="M524.1,459.6h12.8v1.4h-11.3v6.4h9.2v1.3h-9.2v7.2h11.6v1.3h-13.1V459.6z"/>
	<path class="st0" d="M546.4,459.6l7.1,0c2.5,0,4.5,0.8,5.9,2.4c1.4,1.6,2,3.7,2,6.4c0,2.5-0.7,4.6-2.1,6.3
		c-1.4,1.7-3.3,2.5-5.8,2.5h-7.1V459.6z M547.9,475.8l5.5,0c2,0,3.6-0.7,4.6-2.1s1.6-3.2,1.6-5.4c0-2.3-0.5-4.2-1.6-5.5
		c-1.1-1.3-2.6-2-4.7-2h-5.5V475.8z"/>
</g>
</svg>
