<svg version="1.2" baseProfile="tiny" xmlns="http://www.w3.org/2000/svg" viewBox="0 0 1920 765">
  <g stroke="#000" stroke-miterlimit="10">
    <path d="M138 765h-1v-2c12 2 12-16 19-19 6 2 11 6 17 9 2 1 5 3 3 8h22l-15-9c4-10 10-17 14-26 1-3 3-4 5-2 31 13 16 14 6 35v2c22-25 8-28 42-10-1 2-12 11-5 10 5 2 7-3 10-4 5 1 10 6 17 4-9-7-21-7-8-19 13-29 16-12 34-4l1-2c-5-6-13-8-19-14-1-1-2-3 0-4l4-6 1-1v1l2-1-1 2h1l-1 1c-2 3-4 6 1 8l13 10c2 1 2 1 3-1 7-11 18-17 25-26-5-7-15-13-21-20l-4 5c7 6 17 10 22 18-3 1-5 0-7-2-5-5-15-9-19-16-1-3 6-6 5-9-3-5-5-4-9 0-7 9-11 0-16-5-3-3-9-2-9-7 0-7 13-12 2-17-4 1-6 12-11 11-4 0-6-4-10-6-5-3-9-6-10-10-1-5 13-15 5-19-2-2-2-4-4 0-5 13-7 17-16 9-17-11-13-7-3-25 3-4-1-7-5-9l-1 1s0 0 0 0c-3 5-8 22-12 18-8-5-11-8-12-11 0-8 8-12 11-21 0-2 0-3-2-4-1 0-2-3-3-1-2 7-7 11-9 18-1 3-2 5-4 5l-5-3c-2-2-6-2-7-6-2 0-2-3-1-4l11-22c2-2-1-3-2-4-1 0-4 3-13 22l-1 3-1 1c-11-7-20-12-16-29 3-8 9-17 17-17 2 0 6-4 2-6-3-2-5-5-1-12 7-8-4-11-8-16l-32 68c-23 50-52 102-80 154 16 9 35 14 52 23l-1 3c-18-6-34-15-51-21 0 7-2 15 0 23h-7l1-18c0-2 0-2-2-2-2-1-1-2-1-3 2-6 9-11 1-15-10 0-9-8-10-14l-2-25c-1-7 0-8 7-11l31-12c4-2 8-1 11 1 3 1 3 3 6-1l42-87c1-2 1-3-1-4-9-4-16-10-25-13-7-5-3-27-7-35-1-3 1-5 4-7 13-5 26-10 38-17 4-2 7-4 12-3 5-4 6-15 2-20 3-5-3-7-6-11-1-2-3 0-5 0-9-1-1-40-1-48 1-17 9-38-4-53l-7-13c10 4 14 18 25 18l46-5c10-1 22-5 32-3-5-7-17-12-9-21 11-15 32-40 40-53 5-12 17-14 41-17 6-1 7-2 7-4 3-5 24-3 29-6-11-24-26-49-39-72-2-4-5-8-6-13-2-11-11-18-16-27-6-9 2-9 0-12-11-19-21-39-34-57-4-3 2-8 5-3l28 46c3 3 5 10 9 10 11-6 16 17 21 25l2 1c12-1 24 3 35 5-5-7-7-15-12-22-1-3-4-7 0-11 2 0 0-3-1-4-12-20-23-41-36-59v-3l2-2c6 2 15 21 20 27l21 34c1 3 3 4 6 5 8 1 15 28 20 36 3 7 12 9 14 17 1 2 2 2 3 2 29-14 57-31 86-45 8-4 14-2 21-2a3623 3623 0 0165 0c8 0 7 11 10 17 4 10 6 23 11 32l44-12c26 3 50 15 75 21 3 1 4 3 4 5l5 45c1 4 2 2 4 2l42-13c48-11 93-39 144-36 3 1 1-3 1-6v-5c-1-2-6-5-9-3-4 3-9-1-5-5l40-84c9-13 2-42 8-40 4 1 2 8 3 11-1 15 9 29 18 42l39 59c4 9-12 0-6 28 10-15 29-34 29-51-1-4 0-9 2-13l2 7c1-9-6-24 4-30 43-20 86-42 130-61 23 4 46 2 70 6 40 26 78 53 117 80 4 4 22 11 18 18l-27 75c-2 5 9 7 12 10l110 58c14 8 29 15 45 22 7 1 5 7 7 11 4-13 28-24 39-30 9-4 18-7 23-15l3-3c10 2-11 12-3 34 1 13 13 6 9 22-1 5-2 11 0 17l-3 6c-8 10-15 28 5 35 9 4 19 10 19 21-1 6 10 32 5 34-1 1-3 0-4-1-15-12-12-3-20 9l1 4c8 2 12 9 17 14 2 3 4-1 4-2l-1-1h-1c-6 0-7-7-1-8 12-6 29-9 37-19 5-7-4-2-5-9 0-2 2-3 4-4 12-1 23-5 34-8 6 0 10-13 17-11-2 8-12 12-12 20s6 35 1 35h-2c-4 0-7-5-11-5-7 2-3 18-5 26 13-9 23-21 34-31 4-3 8-12 14-8 24 14 51 25 73 42 9 3-12 15-15 18-4 3-4 3 0 6 37 25 71 53 109 76 5 1 6 5 5 12l-1 57c3 8-3 12-8 15-11 8-54 29-56 37l9 45c0 3 3 2 5 2h51c3 0 5 0 5 4h-178v-2c7-2 19 1 26-2 16-14 35-25 52-36l53-35 24-15c9-3 12-9 11-18l1-32c0-3 1-7-2-10 3-2 2-7 2-11 1-3 0-4-3-1-76 51-150 105-222 160-1-1-1-4 1-5l21-17c63-51 132-95 196-142 3-3 3-2 0-5l-105-75c-4-4-15 10-19 12l-70 62c9-5 20-6 31-9-1 7-9 5-8 8h2l-1 1v1h-1v1l-1-1c-12-2-31 9-36 17-2 6-6 11-12 8-19 11-32 29-49 42-4 3-7 7-5 12-2 1-3-1-4-2l-9 6c-28 31-62 55-89 88h-4c-8-14-22-24-31-37-17-21-42-32-61-51-27-18-52-41-82-55a748 748 0 00-380-128c-94 4-189 22-280 46-41 14-80 31-129 47a583 583 0 00-222 174s0 0 0 0l1 2-153 2zm11-4l15 1h0c4-1 7 2 9-3 1-2-6-3-8-6-11-9-11 1-16 8zm1578 1l70-1c4 0 11 2 8-4-3-13-5-28-9-40-24 13-45 31-69 45zm-1511-1c8-1 25 4 26-5 4-4-12-10-15-12-3 0-9 13-12 17h1zm47-10c6 1 9 6 14 9 9 6 11-11 16-16 4-6-11-10-15-14-4-1-9 11-12 14l-3 7zm-74-1l14 9c5-6 8-13 12-20 1-2 1-2-1-4-3 0-8-6-12-7-6 5-10 15-13 22zm1507-210c-62 58-125 113-186 173l-38 37v3c2 1 5-3 7-4 29-26 56-55 87-79l1 2 3-3h-1l-1-2c63-59 129-111 192-170 3-3-1-5-5-5l-6 2c-10 11-22 22-39 33l-1-1c12-14 29-25 42-39l-54-29c-3-2-5-2-8 1l-18 17c-6 7-27 20-23 28 1 3-1 6-3 6-2 1-4-4-5-4-8 5-14 13-21 19-25 20-38 50-56 75-8 12-6 12 5 18l4 3-2 4c-14 13-26 27-38 41-22 26-46 50-66 77-1 2 1 4 2 2 74-71 148-141 227-207l1 2zm-162 163c-17 17-36 32-52 50l53-51-1 1zm-121-19c0 3-6 7-1 9 21 12 35 32 50 46 34-36 67-79 102-115-100-65-209-132-308-193-17 43-28 89-45 132l57 33c4-4 2-5 9-6-7 6-6 10 3 13 15-19 22-46 38-66 13-23 50-18 51 12-1 12-6 22-11 31-8 18-22 34-27 52 1 2 5 4 7 5 5-6 9-15 13-21h2c-9 27-20 18 5 36 15 11 31 22 45 35 5 5 4-2 8-5v-1l1 1h1v1h1l-1 1zM49 724l1-1 29-50c-8-16-39 39-39 46-2 4 7 3 9 5zm14-51c-7 3-27 9-28 12 1 9 0 18 2 27 6-13 14-26 26-39zm148-86l1 2 39 36c27 24 54 52 81 75 1 1 10-6 10-8l-3-4c-39-40-80-77-119-117-3 1-6 12-9 16zm-45-73c61 56 121 117 181 175l6-5c2-1 6-3 4-5l-40-40 2-1 26 23c6 5 11 12 17 16 2 0 3-3 4-3-36-44-83-86-123-129-27-26-55-58-83-82-1 7-8 13-1 19 4 4 7 10 11 13s8 7 10 12c-8-4-16-16-23-19-9 15-1 15 9 26zm121 164c4 4 4 2 7-2 1-1 2-2 0-3l-13-13c-11 12-2 10 6 18zM167 459c-2 3 6 8 7 11 58 60 118 119 176 180l20 20c1 0 4-1 10-8-65-76-135-145-204-217-6-6-6 12-9 14zm80 189c17 10 11 18 21 1-4-6-11-10-16-15-1 3-8 11-5 14zm-10-149c32 39 71 73 104 111l44 47h2c9-3-2-10-4-15 5 2 8 5 11 9 2-1 3-3 1-5-40-56-81-111-122-165-4-7-6-10-9-10l-11 5c-2 1-6 3-5 4l3 4v3c-3 0-4-3-5-5l-9 17zm3-71c54 72 106 146 161 217l6-4c2-2 4-2 2-5L261 413c-1-3-21 12-24 13 1 0 2 0 3 2zm-12 183l-6 9c-1 5-3 5-3 8 1 3 10 6 15 8 10-17 6-13-6-25zm67-152c40 55 75 113 113 169 6 9 6 8 14 2 3-2 4-3 2-6-17-28-31-56-48-83l-58-97c-3-8-6 0-10 2-4 5-10 8-13 13zm993 144c-5 5 3 6 7 9l29 16 5-8c12-25 31-46 35-74-2-10-11-17-21-17-25 0-40 54-55 74zM353 484c-3 2-3 4-1 7 27 44 54 95 78 134 21-17 25-7 13-25l-75-110c-5-5 5-9 7-12-3 0-6-2-6-5-4-7-11 11-16 11zM206 594c-1 4-11 15-9 18l8 6c4-3 4-9 7-12 3-7 3-7-2-13-2-1-2-2-4 1zm1431 21c2 2 4-2 5-4l-4 3-1 1zM431 431c-21 18-40 38-59 58l82 118c1 2 2 2 4 1 15-11 35-18 54-27-26-51-53-100-81-150zm1165 75c-21 27-42 61-60 92 1 2 8 5 10 7 2 1 3 3 5 3 22-27 39-60 60-88 3-7-13-9-14-14h-1zM176 598c6 3 9 9 12 0 5-14 14-15 0-23l-12 23zm1345-8c9 6 8 6 14-3l56-85c-1-6-13-15-18-21-3-4-4-3-6 1-20 32-40 64-58 97-2 5 10 8 12 11zm-1364-6c3 0 6 4 8 5 3-2 3-5 6-10 2-4 7-11 6-13-2-2-3-5-6-5-3-1-4-2-4-5l-2-2c-8 4-13 22-8 30 0 0 0 0 0 0zm25-30c-3 5 20 21 25 27 2 2 5-3 1-5l-24-22h-2zm128-387c-11 0-17 7-10 16 11 18 21 37 30 56 62 113 124 227 188 339 29-8 15-6 1-38-59-106-119-210-180-316-3-15 16-25 23-28 4-3 12-5 10-8-3-6-8-12-16-13-17-4-32-7-46-8zm1233 320c-14 29-31 56-47 83-3 4 3 6 6 7 21-30 39-65 60-97 2-5 4-6-2-8-7-5-10 14-17 15-2-6 9-13 9-19 0-1-2-3-4-3-17-12-11-3-24 8v1c-13 29-31 56-47 84-1 2-1 4 2 6 4 0 10 10 13 4l49-81h2zM187 551l25 22v-1c-9-6-16-15-25-21zm340-19c-1 2-4 2-5 3l13 24 7 11 4-1-4-8h-5l-1-2c7-2 2-6 0-10-2-5-4-5-7-2l-1-2c4-2 4-5 1-9l-2-4zm-405-16c-8 11-11 25-17 37v4c7 4 15 7 22 12 2 1 2 1 4-2l17-34c-8-7-18-12-26-17zm83 45c3 2 7 8 10 8 1 0 2-1 0-3l-27-25c-3 3-2 5 2 7l15 13zm-26 0l7 7s0 0 0 0c-2-2-4-6-7-7h0zm367-2c2 4 5 12 10 6-1-2-4-12-7-9 0 1-4 1-3 3zm14-9l-5 3c-1 1 2 5 3 7 1 4 2 5 5 3 1 0 3 0 2-1l-5-12zm592-88c-5 21-7 45-11 67-1 2-1 3 1 3 23 8 43 19 65 30l18-56c3-7 4-8-4-11-22-13-46-23-69-33zm322 74c-1 7-16 19-4 22 3 0 5-5 7-8 15-26 28-52 45-77h1c0-12 19-17 1-22-18 25-33 57-50 85zm-911 13c3 4 4 13 9 6l-5-10c-1 1-5 2-4 4zm19 5c-2 0-7 3-4 4 1-2 5-1 5-3l-1-1zm-407 3l8-19-1-2c-2 4-10 18-7 21 0 0 0 0 0 0zm368-17c-9 1-2 15 3 14 7-2-2-8-2-12l-1-2zm43 13c0 3 5 0 6-1l-1-3v-1 1c-2 0-4 1-5 4zm-10-13c-2 1-7 3-4 6 1 2 2 7 4 7l5-3c-2-2-3-10-5-10zm901-76l-1 4c-12 24-25 46-36 70v2l20 11c22-34 40-70 58-100 4-4-3-5-6-8l-16-9-3 3c-5 9-8 20-16 27zm-879 81c-1 1-4 1-3 2 0 3 1 4 2 4s3-1 2-2l-1-4zm-483-27c-25 8-14 10-13 31l14-31h-1zm435 28c2 5 3 3 6 2 3-2 1-4 1-6h2c2 3 2 2 5 1 4-2-1-7-2-9-1-1-1-5-2-4-5 1-6 3-5 7-4-4-5-1-9 2l4 7zm34-11c-6 2-2 9 0 13l5-2c0-3-3-9-5-11zm22 5c-8 1-3 13 3 5-1-1-1-5-3-5v-1 1zm8-5c-8 1-2 14 4 7-2-2-1-7-4-7zm-22-4c-7 1-1 9 1 12 2 0 4-2 3-4-2-2-2-8-4-8zm-23-6c-10 2-1 9 0 15l5-4-4-8-1-3zm-39 6l6 9c1-1 5-2 4-3 0-4-2-7-4-10l-6 4zm-357 8c2 1 6-10 2-10 0 0 0 0 0 0 0-1-4 10-2 10zm417-28c-3 3 1 7 2 10s2 5 5 5c-3 4 1 7 2 11l1 2c9-1 3-8 1-13-2 1-4 1-5-2 6-3 2-2 1-8s-3-7-7-4v-1zm25-11c-2 1-5 1-6 3l5 13c3 6 8 33 18 20-4-4-3-8-4-11l-8-23c8 1 8 20 12 24 2-5-3-10-2-15 3 0 6-1 8-3l2 1c3 8 3 18 8 24 1 0 2-1 1-3-5-18-7-37-15-54 1-2-1-5-1-7-1-9-4-5-9-4 2-6 7-3 7-7 4 2 8-2 12-1 2-2 6-2 8-3-1-5-1-12-7-12 9-9 18 2 12-17l-2-1v-2c3-2 0-6 0-8 0-5-3-5-6-5 8-4 0-6 5-12 3 3 2 24 7 22 8 0 3-12-1-13l1-2c4-2-4-18-3-23-1-4-1-3-3-2l-32 9c-10 2-5 3-6 11-3-3-3-8-7-9 3-6 15-2 15-9l2-1c0 5 4 3 5 1 3-2 1-6 1-9l-1-3-28 8c-2 1-3 2-2 4l-2 1c-2-5-7-2-10 2-4-4-4-10-6-15l2-1c3 3 3 9 6 9l10-2 6-3c1-2 0-5-1-6 8 4-1 9 13 3v-7c4 2 3 4 4 6 3-1 8 0 7-5h2c1 4 7 0 10-1v-4h2c0 5 7 3 9 0l-1-4c-1-2 0-7-3-7-6 0-6 6-5 10l-2-2c-2-2-3-6-6-4l-1-2c10-6 21-1 11-17l-7 2c0 2 2 5 0 7-3-1-2-4-3-6-4 0-8 1-10 5l-2-1h0l-2-1c1-7-1-12-5-16l1-2c3-2-1-4 0-8 3 1 3 6 5 6 8-1 8-3 7-9l2-1c2 5 3 6 4 6 2 0 8-1 7-4-2-3 0-11-4-11-6 1-15 3-20 6-1 1 1 6 1 8-5-3-3-6-5-7-13 3-26 8-39 10v-2c9-5 18-1 12-15h-2l1-1v-1h2v1c2 1 3 4 3 6 1 8 6 1 12 1 18-3 6-5 9-16 5-3 13-6 20-6 5-1 4-6 3-10s-3-2-5 0v-3c4-2 3-6 2-10l-2-5c-3 1-7 4-10 1 2-3 8-2 10-5 1-3-2-6-2-9l-1-2-20 6h0l-2 1c-1-6 6-5 10-7 11-3 13-1 10-13-1-1-1-13-4-13-23 5-45 14-68 18l-1-2 67-20c4 0 2-3 2-6-1-4-1-6-4-6l-44 12-1-2 34-11c10 1 13-2 10-14 0-2-1-1-3-1l-7 2c-10 4-22 5-31 10-3-2-7 1-10 2-6 1 1 6-1 9v4c-6-2-1-11-7-11-17 4-7 2-10 12l-4-8c-9 3-11 1-10 11l-2-3c-1-1-1-4-3-3-10 3-21 5-31 9l5 14c2 4 3 10 7 12 4-1 8-3 12-2-5 4-16 3-10 12l2 2c5 0 10-4 14-1-6 4-17 2-11 12 1 3 2 4 5 4-4 3 0 6 1 10 1 5 3 4 5 3l1 2c-3 1-4 2-2 5 2 7 4 8 6 8l9-3v-1h2v1h2l-2 1c0 4-10 4-13 6 2 7 5 9 6 9 5 0 10-3 15-4-4 9-19 4-13 13 0 2 0 4 2 4 1 0 2 1 1 3-2 2 1 4 2 6 3 10 3 8 10 7l1 2c-7 4-7 4-4 11 1 3 2 4 4 4h9c-9 5-14-1-5 15 5 0 10-4 15-2-3 3-11 3-14 6 0 3 2 6 4 9 1 2 3 1 4 1v2c-7 3 5 16 5 21 3 10 5 3 12 4-2 4-5 3-8 5 0 4 1 10 6 10v2l-2 1h0c3 6 1 11 11 12l-5 2 6 18c2 11 10 4 17 5-4 4-15 3-12 8l6 16c2 7 3 7 5 7l9-1-3 3zm829-68c-8 17-44 78-41 86l11 6c7 4 19 14 22 10l33-60 21-41c1-2 2-2-1-3-37-18-28-34-45 2zm-869 98l3 5 5-4-5-12c-6 5-6 5-3 11zm-26-10c-9 4-11 8-4 15l5-4c-2-2-2-4-3-7l2-1 4 7c7-2 5-8 0-13l-4 3zm91 14c3 1 3-3 3-5-5-4-2-11-6-15l-1-1c-5 3 4 16 4 21 0 0 0 0 0 0zm-31-14c-6 5-3 8 0 14 2-1 6-2 4-5l-3-10-1 1zm25 8c-1 2 0 4 1 6 1-3 1-5-1-6zm-119-5c3 4 4 14 9 5l-3-6c-1-3-2-6-6-4h0c-2 2-2 3 0 5zm134-32c-1 2-4 1-6 2 2 12 7 24 10 36 1 4 3 0 5 1a684 684 0 00-9-38zm458-36l-1 2c-1 21-6 43-5 62 8 5 22 6 31 10 3 1 4 2 4-2l11-67-40-5zm-534 44c5 10 8 21 14 30 4-1 4-3 2-7l-15-33-1-3c-4 1-6 2-5 5-4-2-10 2-9 8l-3-3c-10 5-6 2-4 11 3 2 4 7 8 4l1 2c-7 2-2 5-1 9s4 3 6 1c3-5-4-9-2-14 6 2 4 14 12 8l1 1-6-18 2-1zm91 21c-3 0-1 3-1 5s0 4 3 4 1-4 1-6 0-3-3-3zm-140 1c4 6 5 9 10 2-1-2-4-11-6-11-6 2-7 3-4 9zm151-5c-8 3-4 4-3 11 1-1 6-1 5-3 0-3 1-6-1-8h-1zm-526 10c4 1 6-11 8-14-9-16-18-2-29 1 1 3 18 10 21 13zm533-11l-2 1c1 3 1 6 3 8l1-1c0-2 1-7-2-8zm-145 6c1 1 1 2 2 1 1-2 6-2 4-5l2-1c2 2 4-1 7-2 1-1-2-4-2-6l-2-3-2-4c-3 1-6 2-5 6-4-2-7 1-9 3 0 3 4 8 5 11zm154 0c4 1 6 1 3-3-1-2-6-4-5-2 0 2-1 6 2 5zm8-3c0 1 1 3 2 2 4-1 0-3-2-2zm-95-14c-9 2-5 12-1 16 2-1 4-3 6-2l-5-14zm442 2c16 4 31 6 47 12 1 0 2 1 3-2l5-60c0-3 0-2-2-1l-53 13c-2 0-3 1-3 2 2 8-3 32 3 36zm583-12c2 0 3 1 1 4l-10 19c9-9 24-14 9-25v2zm-969 22c1 2 1 1 3 1 1-1 3-1 2-2-2-5 0-12-6-8-2 2 2 7 1 9zm-149-12c-2 0-7 3-4 6 2 2 3 10 7 6h0c5-4-1-6-1-10l-2-2zm195 10l4 2 1-2c1-4-2-10-7-8-1 2 2 6 2 8zm8-5c1 2 1 7 3 7 1 0 6-1 5-4 1-3-5-3-8-3zm-17-4c0 4 0 9 4 9 3-2-1-8-4-9zm-27-5l3 1c-2 3-7 2-6 7 2 7 2 7 8 6 0-9-4-18-5-27v-1l-7 2c0 5 1 9 3 13 1 1 3-1 4-1zm928 5c4 0 13 8 17 9 0-3 5-4 3-6-6-7-13-6-20-3zm-873 5l1 4c2-1 0-4-1-4zm-39-8l-1 1c0 5 4 10 8 10l1-1c0-6 0-10-8-10zm701 1c0 3 8 9 9 9 23-37 39-79 62-116-4-2-7-5-11-6-3 0-9 12-13 18-16 31-32 62-47 95zm-539-47l-116 28c-2 1-3 1-2 4l2 22c0 3 1 2 3 2 38-10 79-12 117-18 2-3 0-10 0-14l-3-22-1-2zm-169 54c0 2 2 2 3 2v-5c-1-4-1-7-4-5-2 1 1 6 1 8zm-164-5c2 1 3 6 5 7 3-1 7-2 7-5-2-3-5-5-5-8-2 2-9 1-7 6zm75 5c1-6 15-6 12-12l-7-19c-2-5-2-5-6-3-1 2-5 2-4 4-13 0-8 12-2 18-1 4 2 7 3 10s1 2 4 1v1zm133-15c0 3 0 13 4 11 0-1-2-3-1-5 0-3 0-10-4-8l1 2zm-194 11c3 0 6-2 7-4-2-2-4-11-7-8-8 3-1 7 0 12zm189-1c6 3 0-8 1-10 0-6-5-4-8-4 2 4 0 16 6 14h1zm-216-4l2 3c2-2 7-2 5-6l2-1c3 3 8 0 9-4 7 1 12-6 18-9 0-1-2-3 0-4 4 1 1 5 7 1 7-3-5-11-2-17 4 2 5 11 8 13 4-2 8-3 7-7 3 3 5 1 8-2-3-3-4-8-6-13l-5-12c0-2-2-1-3-1 3-3-1-6-1-10-4-6-10 7-17 4 2-6 17-6 13-12l-1-6c5 2 3 6 5 7 3 0 13-8 17-9 4-2-1-9-2-12-3 1-7 4-9 1l6-3 1-2-4-10c-3 0-8 6-11 6l-8 4c5 17 3 10 16 6-2 6-9 5-11 10-3-1-6 1-8 1 6-5 3-8 0-13-1-3-1-2-3-1-6 4-13 8-23 11l-1-1c15-10 31-17 46-26 4-2 0-8-2-12-5-7-2-20-13-12 0-2 2-5 4-5 4 0-8-25-8-28-1-3-1-2-3-1l-18 9c-2 2-3 2-2 5l-1 1c-5-5-9 5-15 3l2-4c18-5-4-16 9-20l1 1c4-7 24-7 17-18-1-4-2-4-3-4-6 1-13 9-20 6 17-12 24-3 14-27-4-17-11-1-26 3l-1-2c5-4 16-8 22-14 0-3-4-7-5-11-2-7-5-12-11-9l-1-2c6-5 6-5 3-12l-1-1-20 11c-10 4 0 3-5 11l-15-35c-8 3-11 7-21 11-6 3-14 7-15 10 1 4 2 7-2 9-6 3-15 6-20 10 0 1 1 5 3 5h6c-8 9-26 10-29 23 4 6 6 14 11 19l8-8 40-22 2 1c-7 8-19 9-25 17-8 2-19 8-23 16 6 8 2 12 12 4l1 1c-7 10-5 10 1 19 2-4 6-7 7-12 10 9-15 11 0 23l2-3 1-1v1h2l-1 1 2 2-3-1c-4 5 1 9 3 13 2-9 24-11 17-19l2-1c4 5 3 4 8 1 10-5 19-11 29-15-4 10-24 14-31 22-1 0 2 4 1 6v2c-5-4-3-9-10-4-12 6-18 12-7 22 5-3 7-11 16-12v2c-10 7-17 11-12 19 3 5 3 5 6 0l2 1c-4 10-3 8 2 16 6-9 16-12 24-17l1 2c-7 5 4 10 3 16-6 1-6-9-9-11l-3 1c-12 9-14 12-14 13 3 3 3 9 8 9-2 4 2 7 3 11 1 2 4 1 5 1-4 4 2 10 4 14h1c2-2 5-3 6-6 4 0 7-1 11-5-2-2-4-5-4-9l1-1 9 15-2 1c-4-4-8 1-11 3 1 2 4 4 1 7l-4-5c-2 0-5 3-5 4-1 2 2 4 3 7l3 3 4-1c-6 5-1 7 2 13l5-1c-2 2-4 4-3 6 3 3 3 9 9 9-4 5 8 18 10 24zm155 1c0 3 2 1 3 1 4-1 1-5 1-8l-3-6c-8 1-1 9-1 13zm46-1c1 3 4 2 6 2-1-6 0-17-8-15-1 2 2 10 2 13zm308-37c3 34-12 32 25 39 3-1 2-5 2-9l-1-23v-54c0-5-2-8-7-10-7-3-2 14-3 17h-2c-3-12 6-19-13-18-9-2-2 18-5 24l-2-1v-21c-5 1-11 4-20 4l2 78c0 2 0 4 3 4l14 2c3 0 4 0 4-3l-1-30h4v1zm602 33c-1 2-1 3 1 3 6 7 8-8 13-10-10-9-8 0-14 7zm-243-3c-1 3 7 5 9 8 3 2 7-10 9-14l50-96c4-6 4-6-2-9-4 0-8-7-11-3-17 31-39 72-55 114zm-675 4c0 3 2 4 5 4l-3-15h-4c-2 1 3 8 2 11zm-157 2c3 1 6-2 7-5 3 2 6 0 8-2 2-1-2-5 0-8-4-4-10-1-10 5-3-3-6-1-9 1l1 3 3 6zm152-1c3 1 1-4 1-6-1-7-2-11-9-8 2 5 0 16 8 14zm771-98c-3 2-2 4 1 6 36 24 75 42 111 66 6 5 23 28 29 26-21-28-43-38-72-55l-69-43zm-786 92c1 3 0 8 4 4l-2-14c-4 2-4 5-2 10zm967-19c-6 11-13 11 0 24v-24zm-1433-5v2c6 5 18 21 24 25-7-10-17-18-24-27zm769 24c5 0 6 0 6-5l-2-78-13-5-6 2c-8 0-1 19-2 25l4 58c1 2 11 1 13 3zm-766-31c-2 1-1 4 0 6l24 25 1-3c-8-10-16-20-25-28zm617-181c10 69 19 139 30 208 0 3 1 4 3 4 10-2 21-4 32-3 10 0 16 1 14-12-7-90-11-180-16-270 0-1 0-3-2-3l-19 1h0c-1 3 1 15 2 21 1 8 5 13-3 14-14 2-28 5-41 9-7 3 1 23 0 31zm773 196c-2-1-5 5-5 7 2 3 5 6 9 8 3-2 4-7 6-11-1-3-7-4-10-4zm-368-18c-3 11-7 21-8 31l3 1c1 0 1 1 2-1 2-8 8-19 8-27l-5-4zm154-81l2 1c-7 20-20 38-28 58l-18 38-1 4c4 4 12 7 15 10l5 2c2 1 7-12 9-16 16-32 31-64 49-96 4-7-12-8-15-12-7-3-6-4-10 4-2 3-2 7-8 6 6-13 11-16-5-22l-4 5-12 24a1225 1225 0 00-37 77c-3 7-5 7 0 10 3 1 7 8 9 3 17-32 30-66 49-96zM555 487c2 6 7 2 9-1l-3-6-2-3c-4 1-6 6-4 10v-1 1zm400 2l7 1-1-22c-1-17-3-32-3-49l-2-12c-3 3-19-1-19 4l7 76c0 4 8 2 11 2zm-310-14c-5 0-6 2-5 7 1 6 3 8 5 8 3-1 6-4 4-8l-2-4c0-2 0-3-2-3zm287-66l-13 6c-4 2-11 3-10 8l5 66c4-3 25 3 26-3l-4-53c-2-6 1-22-4-24zm-212 68c1 4-1 13 5 12-1-4 0-12-5-13v1zm-11-3c0 4 0 8 2 12 0 2 4 1 5 1l2 1c1-4-2-16-9-14zm516-16c0 6-10 29-4 30l2-3 8-27c0-2 0-5 4-5 0 2 0 3 2 4l4 1c3-2 2-8 4-11 3-6 5-11-3-15l1-2c4 0 7 5 8-1l6-18c2-4-3-4-5-5l-2-1-3 10c-1 5-3 10-6 14-2-8 11-24 2-29v-2c18 5 14 14 19-2l4-11c-4-2-7-6-12-3 1-2 1-4-2-5l-3-1c-3 3-2 15-7 16 0-7 4-13 3-20 4-6 5-13 7-20 0-1-8-6-10-6-3 3-3 9-5 13l-2-1c8-21-6-17-17-25-3 2-3 13-6 16-3-6 4-17 1-19l-11-6c-3 0-2 8-6 6-1-3 3-7 0-8l-20-11c-3 0-2 15-4 17 0 2 6 8 7 8 3-2-1-5 3-7l1 1c-3 5 2 8 6 11l-1 2c-7-1-11-6-17-9-2 7-1 14-4 21 0 3 6 5 8 8l-8-2c-1 8-8 22-1 29l-1 1c-7-3-4 16-6 20-1 7-1 7 5 10 2-6 1-12 4-17 0-4 1-8-1-12 6-2 2-11 7-14 2 4-5 14 1 16 7 4 7 4 9-4h2c1 3-3 10 1 11l-1 2c-5-1-4 13-5 18-1 3-3 7 0 10-5 0-5 12-6 20 0 10-7 16 4 17 3-3 3-18 7-21 0-5 3-10-1-14 5 2 5-9 7-15l3-9c0-2-3-3-4-4 3 0 5 0 5-4 2-7 3-14 6-20h2l-5 26c2 0 6 5 8 1l2 1c-1 3 1 4 4 5 10 7 4-7 11-11 2 6-7 16 1 17v2l1-2c10 9 6-12 13-15 2 7-9 19 0 23h-3c-1 0-2-1-2 1-2 8-7 16-5 24 0 4-4 0-4 5zm-573 24c1 2 0 6 3 4 6-1 2-8 0-14-6 3-5 4-3 10zm46-6c1 4 4 12 9 9-2-6 0-15-8-14-3 0 0 3-1 5zm-131-4c-7 1-3 9-1 12 1 3 5-1 5-2-1-3-2-9-4-10zm639 8c0 3 6 3 8 4 3-5 4-12 6-18 0-3 5-12 1-13-2-1-5-4-8-4l-7 31zm-543 4c9 1 5-5 4-11l-1-3c-2 1-7 0-7 3 1 3 0 10 4 11zm966-25c-2-1-5 4-6 6-9 12-2 11 7 19 1-2 12-15 10-16-3-2-8-9-11-9zm-939 13c1 5 1 13 7 11l-1-7-1-4c0-3-3-3-5-2v2zm-401-84c3 0 5 2 7 7 16 30 34 57 50 85 3 5 7-2 10-5 3-5 9-6 8-10l1-1c4 3 8 8 10 14 4-5 3-7-1-11l-8-14c7-1 12 18 16 17 2-1 3-1 1-3-34-57-69-115-105-171-3-6-6-9-7-9-5 4-9 13-15 20l-24 31c-3 4-11 10-7 14 2 1 6 10 8 7 13-18 28-33 40-52 1-2 4-2 5 1 3 8 9 14 12 23l-2 1-13-20-26 33c5-1 23-25 23-11-7 1-15 11-21 15v3l30 38c3 4 5-2 8-2zm390 79c-5 2 6 17 10 14-1-7-1-14-10-14zm-461-17c-6 3 8 13 10 17l11 13c1 2 2 2 3 0 0-1 1-2-1-3-9-8-15-19-23-27zm452 18c-1 3 1 5 1 8 1 6 3 5 6 5-2-5-1-15-7-13zm56-107c6 34 9 67 15 100 3 13-6 9-13 13l1 5c0 3 1 2 2 2l102-25 11-3c3-1 4-2 4-5-10-77-22-152-31-229 2-2 5 0 5 3 5 39-3 18 39 15 10-1 7-2 6-14l-2-16c-19 2-37 7-57 15l-102 32c-8 1-1 15-2 21l6 50c1 3 1 3 2 2 27-8 52-18 78-25l2 2-77 26c-2 1-5 1-4 3 2 4 11-6 18 0-10 1-5 7-5 14 0 2 3 5 1 7-2 3-5 2-8 3-3 0-3 5 0 5l9-2v1zM580 466c-3 5-14-4-6 13 2 4 10-6 13-5 1-2 5-2 4-4l-3-10c-3 2-7 2-8 6zm622-23l-1 2-5 20c-3 7-4 12 5 13 3 0 3-3 3-5-1-7 9-24 3-28l1-2c2 0 3 1 4-2l2-10c2-7 5-11-3-14-2-1-3-3-4 1 0 6-8 19-3 23l-1 2h-1zm-559 16c-5 4-11 0-7 10 1 5 4 7 8 2 2-2 0-7 0-10h2c2 5 2 11 9 9-3-9-1-13-12-12v1zm-402 6c4 3 7 11 12 7l-16-21c-3-3-6-11-11-6 0 5 12 15 15 20zm477 1c1 2 1 7 3 7 3 0 2-4 1-6 0-4 0-7-4-5v4zm470-18c1 6-11 23 1 24 3 0 4-19 6-23 3-8 3-8-4-11-2 3-1 7-3 10zm413 22c9 4 19-1 21-11-7 5-15 7-21 11zm-895-6c1 5 5 8 10 7-1-8-1-14-10-13v3h0v3zm14-98c-2 0-5 2-4 5l11 94c0 5 2 5 5 3 2-1 7 0 5-3-3-33-9-65-14-97 0-2-2-2-3-2zm-25 91c1 8 3 13 9 12 2-1-1-4 0-5l-1-3c1-5-4-4-8-5v1zm-37-18c-2 2-5 1-6 3 0 6 2 12 4 19 1 2 1 9 4 7l5-2c-2-5-3-25-7-27zm-417-2c-2 1-3 2-2 3 5 4 19 27 23 28 2-1 0-2 0-2l-21-29zm-95 18c-4 3 4 8 7 11l1 1c3-4-5-9-8-12zm413-10c2 2 1 6 5 6-2 6 3 11 5 16 7-2 7-6 4-12 4 2 3 3 5 6 3-2 9-2 7-7-3-7-6-13-7-20-2-8-16 6-20 6l1 5zm128 12c1 5 1 10 6 9-1-4 0-14-6-12v3zm-299 9c2-3 11-9 9-13-6-10-11-21-18-31-25-40-48-80-74-120-6-8 1-17 2-25-11 1-22 3-32 6l80 127c10 19 25 35 32 56h1zm967-126c-19 33-34 70-50 104l-3 9c4 4 13 8 19 13 13-23 24-49 36-73l20-38c4-4-19-13-22-15zM235 427c-13 8-27 15-30 32 0 2-3 6-1 7l1-1 8-17c1-5 9-5 13-8 3-3 11-4 12-7 1-1-6-4-3-6zm429 20c2 6 2 13 5 19 4-3 4-4 3-10-1-4-3-5-5-4l-1-2c7-2 3-7 3-11-1-3-4-1-5-2-2 2 0 7 0 10zm12 4c-3 1 1 10 2 12l7 2c0-7-1-14-9-14zm482-30c-3 10-3 21-5 30s11 8 16 13c5-17 6-34 10-51 3-12 2-13-7-16-1 5-3 7-3 14-1 10-1 16-5 14-1-2-4-2-5-3l-1-1zm-112 3c-7-2-1 31-3 37 0 1-1 2 1 2s3-1 3-3v-23c0-5 1-11-1-13zm588 23c-6 8 6 12 11 16 2-1 4-5 2-6l-13-10zm-584-5l1 19h1c11-1 5-21 7-29-1-2 0-11-2-9h-4c-3 1-3 3-3 8v11zm-816-1c1 3 9 12 16 19-6-6-10-14-16-19zm1420 11c0 4 3 6 7 8l-2-21-5 13zM259 390l-79 46c-3 2-3 2-1 4 9 8 13 15 19 20l7-14c2-12 10-13 17-18 14-9 32-17 45-28-2-3-5-10-8-10zm803 48c2 4-2 17 2 20 1 0 2-1 2-3l1-33c-2-1-6-1-5 3v13h0zm-901 18l2 2c1-4-10-11-12-15-2 3-2 5 1 8 3 2 5 6 9 5zm555-3c1 2 3 4 5 4 1-7-1-8-4-9s-1 4-1 5zm827-32c-2 6-11 16-6 19 8 7 18 11 27 16 3 1 9-14 11-17-9-7-19-12-29-18-1-1-2-2-3 0zm-473 17c1 3-2 19 2 18 2 0 3 0 2-2-1-5 3-34-2-34-5 1-1 14-2 18zm-365 7l-1 2c0 4 4 10 9 9 3-5-3-11-8-11zm373-10c1 4-1 17 1 19 2 1 3 0 3-3l1-30v-3l-5 1v16zm-809-17v2c9 11 15 24 24 34 1-5-20-30-24-36zm876 36c2 0 3 0 4-3l3-25c0-1 3-7 0-7-2 0-2 0-2 2-1 10-4 20-4 30 1 1 0 2-1 3zm-5-7c0 4-1 6 3 6-4-5 7-33 2-35-2 0-2 1-2 3l-3 26h0zm-449-11l3 13c0 4 4 4 7 4 0-5 2-11-6-10 1-3 3-3 5-3-1-4 0-11-5-11-5-1-6-3-4 4h0v3zm397-19l-1 3-1 32c4-1 0-14 2-17h3v16s0 0 0 0c6 0 3-18 4-22h2v21c3 0 5-2 5-5l3-29c0-2 0-1-2-1-15 1-11 4-12 16l-2-1v-11c0-1 1-2-1-2zm49-32c0 22-3 43-5 64 0 2 0 3 2 3 1 0 2 0 2-2 3-28 6-56 11-84-1-7-1-10 4-11h3c3 0 2-8 2-10 0-4 0-8 2-11-1-3-3-2-4-2-4 5 0 19-6 23l2-27c0-4 6-23-1-23-1 0-2 0-2 3-4 24-5 49-8 74l-2-1c0-26 5-51 7-77-6-3-4 6-6 10l-1 3c-2-4 1-15-2-15l-2 12c-3-4 0-12-3-13l-1 3c-2 6-2 13-3 20 2 0 4 1 4-1h2l-2 15h0c-2 10 1 23-4 33l-2-1c2-5 1-10 2-15h-1c-4 0-1 14-5 17-3-4 2-13 0-17-2-2-6-2-5 2l-5 50c-1 4 2 3 5 3 8 3 3-8 8-17 4 9-7 50-2 57 1 1 2 0 2-3l-1-6c5-18 3-36 7-54h2l-5 62c0 2 2 3 2 1l7-65h2zM318 271c-8 1-6 13-9 19-2 8 5 14 9 20l22 37 63 104c15-15 9-10 2-27l2-1 9 14 12-11c-28-53-57-103-86-156-5-6-17 2-24 1zm365 154h-2l5 23c0 3 2 3 5 3 2-3-4-16-3-20-1-3-1-6-5-6zm972 9c-4 3-12 8-13 11l6 5c3 2 5-12 7-16zM277 412l-4 3c4 8 10 15 15 22l10 14 4-4-25-35zm838 16c3 2-4 23 1 22-1-11 2-22 3-33l-1-2c-2-1-1 11-3 13zm208-64l-1 7-31 68c-3 7-2 7 4 11 3 2 7-10 10-15l15-32 26-56c4-8 6-10-4-14-7-2-11 29-19 29v-4l2-5c1-4 14-24 9-24l-26-14-3 2h-1c1-6-4-6-7-7-6 12-9 28-15 41 0 1-1 3-2 2-7-1 5-14-1-16l-41-22c-41-21-51-35-100-41-3 0-4-2-5 3l-2 1c-1-5-4-8-8-7l-38 11c-10 3-24 5-34 10-1 2-2 10 2 13 2 3 5 4 9 4 18-3 38-11 58-13 59 1 105 37 156 62 3 1 4 4 2 7-8 19-13 39-20 59-1 8 11-26 12-28l19-47c0-3 3-6 6-8-7 28-20 55-30 82-2 5-2 7 3 9 6 3 12 9 16 10 4-5 4-12 9-20 8-14 12-30 21-43 2-6 4-12 8-18l1 3zm-108 80v2c3 1 6 4 9 4l5-17c3-9-1-6-4-11h0c-9-4-7 17-10 22zm-104-31c-4-1-3 29-5 34 0 2 1 2 3 2 1 1 1-1 1-2l3-24c1-4 3-10-2-10zm-437 25c-2 1 0 5 0 7 0 4 7 3 9 4l-3-13c-1 3-4 2-6 2zm-528-52l-7 62c7-13 10-27 15-40l1-2-9-20zm8 47c-1 5 8 9 10 13l2 2c6-5-7-15-10-18v-1 1l-2 3zm561 10l5 2c-1-5 0-13-6-11-1 1 1 7 1 9zm-433-31c5 6 17 26 23 31l-23-34c-2 1-1 2 0 3zm421 26c0 2 6 5 9 5 3-6-5-14-10-13-1 2 1 7 1 8zm863-11c8 4 15 10 24 14-1-7-5-14-5-21 0-15-15-18-25-25 1 7 1 14 3 20 1 3 2 6-2 9l5 3zm67 12c5 5 10-1 15-4l-15 4zM289 405c-2 0-5 2-3 4l21 29 4 2c-6-12-14-24-22-35zm264 27l4 6c4-4 13-7 17-11 1 0-2-9-3-8l-10 5c-4 2-10 3-8 8h0zm645-22l-6 20c-2 5 2 7 6 8l1-1c1-8 5-16 6-23-1-2-5-3-7-4zm-528 13l-1 1c1 8 3 10 11 12-1-7-1-12-10-13zm805-40c10 7-8 10-11 14 18 13 46 29 63 38 4 0 10-16 14-22-19-15-42-26-62-39-6-4-6-5-9 2-3 5 3 5 5 7zm-814 51c4 3 8-2 5-7 0-1 0-5-2-5h-2c-7 0 1 8-1 12zm-499-18c-6 6 5 12 8 17 2 3 4 0 5-1l-13-16zm549 1c1 6 1 15 7 13 0-5 1-13-7-13zm-12-3l2 12c1 2 4 1 6 2h2c0-8-1-14-10-14zm-542 11l3 3-3-3zm14-21l-4 2v2c4 7 9 13 14 18 2 2 2 1 4 0l4-2c-6-7-11-15-18-20zm518 18c2 4 11 7 8 0l-2-6c-3-5 4-16-6-16-2 0-3-2-4-1s1 3 1 5c0 3 1 4 4 5-5 3-2 6-2 10l1 3zm-11-11c2 5 1 13 8 12v-3c-2-5 0-11-7-11l4-2c0-4-1-13-7-11-1 3 4 12 2 15zm-519-4c-3 4-3 10-5 14l5-14zm885 14c4 1 3-5-1-6 0 2-1 5 1 6zm-739 0l-12-19h-1l13 19zm362-14c-1 2 1 7 2 10 0 5 5 4 8 3l-1-8-2-4c-2 1-5-2-7-1zm389-14c-11 1-5 14-6 22l1 5c10 0 7-6 7-13h0c-2-3 2-14-2-14zm-877 6l16 19c2 3 4 0 6-1v-2l-10-13c-5-8-5-7-12-3zm882 17c0 2 1 3 2 3 6 0 2-10 3-14h0v-13h-4c-4 4 0 18-1 24zm9 1l4-1v-14h1c-1-3 1-10-1-12-9-2-3 21-4 27 0 0 0 0 0 0zm89-58c-1 0-2 1-2 4l-6 49c-2 3 1 5 3 3l2-13 6-39c1-2 0-4-3-4zm-80 56c8 1 4-12 5-17l1-37c-2-1-6 2-7 4v6c1 5-3 16 4 14v2c-7 0-3 11-4 16v12h1zm405-63c-2 0-3 2-6 8s-3 6 3 10l76 45v-2c-4-11 0-29-10-37-16-9-30-19-46-27 1 16-10 4-17 3zm-338 37c1 5-6 24 0 25v1c3-2 3-22 4-26 1-2-3-4-4 0zm-434 25h4c1-1 0-7-1-8-3 0-5-3-6 0 2 2 0 8 3 8zm-422-18c-4 0-21 12-25 13-3 1-1 5 1 5l23-16 1-2s0 0 0 0zm619-70c-4 3-6 5-6 10 3 26 4 52 5 78 6-2 11-7 18-8v-8l-7-77c-3-1-7 4-10 5zm179 63c1 24-10 28 15 22 2 0 3-1 3-3l4-54-7 3c3-7 8-4 8-9l5-46c-7 2-15 2-22 5l1-1c-3 0-5 1-5 5l-1 29v17l3 2h-3c-1 2-2 21-1 24 9-3 6 8 5 13h-2v-10c-2 0-3 0-3 3zm-889 1l-6 3 1 1 13 18c2 2 5-1 7-3l-15-19zm500 21c2 0 6 2 8 1 2-4-4-11-10-10l2 9zm330-13c1 6 8 8 14 11l1-86-2-4a56 56 0 00-56-4c-1 0-4 2-5 1-4-4-8-5-13-6-3 0-10-5-9 1 2 30 6 59 5 89h-2c-3-29-5-59-6-88 0-3-2-3-4-3l-24 5c-6 2-6 2-6 8l7 80c2 4 14 2 20 1 10-1 24-4 31 2l8 2c13-1 22-9 36-5 4 0 2-7 3-10h2v6zm-365-4c1 7 2 10 10 10-2-9-3-9-10-10zm-451-10c-1 0-5 1-6 3 4 5 9 13 15 17 7-2 6-3 2-8-3-4-7-13-11-12zm494 7c1 5 1 13 8 10 1-1-1-3-1-4 0-8-1-7-8-9l1 3zm-488-22c-24 1-47 6-71 8-3 0-2 1-1 3 3 4 8 20 11 21 22-10 43-23 61-32zm475 17c1 7 1 14 11 14 0-4-2-8 1-12-4-1-9-3-12-2zm-468-10c-1 1-6 2-4 4l12 16c1 2 4-1 5-2l-13-18zm34 5c6 1 8 16 15 16 1 0 5-2 4-3l-24-31-9 13c0 1 5 8 8 9 2-1 3-4 6-4zm421-6c2 8 0 22 11 22l1-2-3-18c0-5-2-7-7-8-3 0-7 0-10-2-4 1-12-5-16-3 4 16 13 8 21 14l2-4 1 1zm-7 15c1 3 4 5 7 3 0-1-2-3-1-5l-1-3c0-2 1-4-1-5-7-2-4 5-4 10zm-12-6v1c-1 4 11 11 10 5h0c-1-5-4-14-10-13-3 1 1 4 0 7 0 0 0 0 0 0zm387-5v11h4c3 0 5 0 5-3-1-3 1-17-1-20-7-1-8 6-8 12h0zm252-82c-3 1-2 7 1 9l80 43c18 8 34 18 52 27 7 5 15 8 22 12 5 3 9 2 14-1-59-32-114-62-169-90zM231 367c3 9 10 15 16 23l2-2-1-1-17-20zm-8 21l1 1-3-4 2 3zm843-23c-3 1-6 1-6 5l1 18h5v-13h0v-10zm8-54c-9 1-4 24-5 30v46c2-1 6 1 6-2v-20c0-2 0-3-2-2v-2c4-1 2-9 2-13 1-16 2-37 0-37h-1zm-847 60c-11 4-21 10-32 15l32-15zm477 11c3 1 2 4 6 4 5 0 3-2 3-6-2-8-13 0-12-13v-7c-4-1-8-3-11-2 1 7 2 18 4 23l8 2c2 2 1-1 2-1zm445-16c2 4-5 16 1 18 2 0 3-12 3-17 0-4 3-8-1-9s-1 6-3 8zm110 7c0 2 4 8 7 8 3-1 2-5 4-8 3-7 3-13-5-14l-6 14zm-625-2c2 2 1 8 4 8 4-1 15-3 17-6 1 1 0-10-3-10-4 0-7 4-6 7l-3-3c-2-4-9 2-9 4zm670-81c48 33 106 56 158 86 1 0 1 1 2-1l14-27-163-86c-5-2-8 24-11 28zm-54 79c-2 4 3 5 6 6 1-2 0-3 3-4v-3c-1-4 3-8 2-12l-5-2c-3 1-4 13-6 15zm-548-7c2 5 0 10 7 11h2v-11c-3 2-5-1-9-1v1zm798-27c-5 8 16 14 20 19l32 19c3-3 5-8 7-12 3-6 3-6-2-9l-14-9-35-20c-4 0-5 10-8 12zM245 350c-3 2-4 7-9 11-1 2-1 3 1 5l6 5c2 0 8-9 10-12-4-5-7-10-8-9zm432 12l2 1c0 3 1 3 3 3l5 2c2-1 1-2 1-4v-6c-2-3-7-4-9-4-3 0-5 2-6-2h1l-2-1 3-4c2 5 7 4 10 5-1-5-1-10-3-14h0v-2h0v-3l1 1c-1-1 0-3 1-4 3 5 5 10 11 9l1-1 2-4c0 4 6 10 10 7 0-2-2-4-1-6v-2c-5-4-15-2-19-9 3 1 7 2 6-3h0c-2-7-1-12-12-12-1 4 3 10 0 13-6-6 2-15-10-15-5 0-9-4-13-3v7h-2c-1-6-5-12-11-11 0 7 2 15 10 17l-6 1c-2 6 1 10 7 12 3 1 4 2 3-3h2c3 9 3 19 6 28l-2 1-3-7c-3 2-5-1-8 0 2 15 9 11 19 16 4 1 1-2 3-3zm373-18c1 6-5 23 4 20 5 0 3-7 3-11-1-3 1-10-1-12-3 0-6 0-6 3zm14-31c-3-1-6 5-5 6 2 2 2 4 1 6v16c1 4-2 22 2 22 2 0 5-2 4-5-1-6 3-48-2-45zm-363 42c1 3 6 2 9 4l-2-14c-2 1-6-1-8-1 0 0 0 0 0 0l-2 1c-3-3-7-4-11-5 0 12 3 14 12 16v-3h1l1 2zm379 4c10 1 5-15 6-21v-30l-5 1c-2 0-2 2-2 5v34h0c0 3-2 11 1 11zm80-25l-2 19c-1 4 2 3 4 3l2-1c0-7 1-13 3-20 0-3-6-2-7-1zm-444 19c8 1 3-8 3-13-2-5-2-3-5-2-4 2 0 9-1 13 0 2 1 3 3 2zm408-5c-1 2 0 4 2 3 2-3 0-11 2-14v-9c-5-1-3 15-4 20zm-4 2v1c-1-5 6-25-1-24-3 0-2 12-3 15h0c0 3-2 9 4 8zm200-110c1 5-7 15-2 17 59 31 116 63 176 93-2-11 1-26-12-30l-65-34c-30-16-61-31-91-48-3-1-4-2-6 2zm208 71c-5 1-10 6-15 8l48 30c4-1 1-9 2-12 0-5 0-8-6-10-10-4-18-13-29-16zm-876 21c1 9 2 14 11 16-2-10 0-15-11-16 0 0 0 0 0 0zm398 6c2 0 6 1 6-2v-17c-8 3-7 12-6 19 0 0 0 0 0 0zm-540-12c-2 2 1 5 2 7 1 5 2 3 5 2 5-3 15-7 18-11 1-1 0-2-1-5l-2-3c-6 0-16 10-22 10zm113-4c-1 1 1 4 1 5 2 10 3 7 10 5 2-1 0-6 0-7-2-9-4-5-11-3zm656-13c0 10-11 21 3 24 2 0 4-9 5-11 2-5 3-8-4-11-1-1-2-3-4-2zm-636 7c-1 0-6 1-7 3 0 3 1 12 4 11 1 0 7-2 6-4-1-8-1-10-3-10zm522-8c-2 5-2 13-3 19-1 3 1 3 3 3 5 0 3-15 5-19 0-2 0-2-2-2l-3-1zm-11 17c0 2 0 4 3 4 3-1 1-7 3-10 0-5 3-12-2-12-4-2-3 15-4 18zm-458-3c0 2 12 10 10 3-1-11-1-11-11-12 0 3 2 5 1 9zm574-18c-2 0-2 7-4 10-1 5-3 11 3 12 5-1 4-14 8-17 0-2-3-2-4-4l-3-1zm-148-4l-2 1c0 7-3 15-2 22 2 1 6 2 6-2 0-6 0-12 2-19 0-2-3-2-4-2zm-167-3c-10 0-21 3-34 7-5 2-9 8-14 10-4 2-5 5-4 9 28-21 51-24 79-14 22-6 47-9 67 9l6-5c-3-5-11-9-17-10-7-2-15-6-23-5-22-5-21 9-38 4-6-3-13-5-22-5zm296 19c2 0 8 7 10 4 2-15 12-17-6-25-1 1-6 21-4 21zm284-9c4 4 10 4 14 8 7 6 5-2 4-7 0 2-1 4-3 5v-4c3-11-11-4-15-2zm-300 0c4 2 11 8 12 4l3-11c3-8-1-8-7-11-5 0-2 19-8 18zm-541-2c-1 5 6 5 10 5 0-13-3-5-8-12h6c0-13-1-12-11-15v4c-3-6-9-4-14-7 0 11 1 13 12 15v-5h2c1 4 3 8 2 12h-2c-1-4-8-8-11-5 0 3 2 4-1 8l12 2 1-2h2zm587-2c0 2 7 8 9 7s2-5 3-8c6-11 4-14-6-17l-3 10-2-1c4-9 0-15-9-18 8-3 19 9 26 10 1-4 9-20 6-23l-19-11c-2-1-2-1-3 1l-2-1c1-4-6-3-7-9 12 7 4-2 13-5v3l-2 6c3 5 17 9 22 13l1-5c3-2 4-5 5-9-1-2 4-6 0-8l-22-12c0 3-3 5-6 7 7-12-1-10-7-17 6-2 32 18 39 19 11-30 5-13-24-36l1-2c10 3 18 10 27 14 2 1 3 2 4 0a644 644 0 016-22l-12-7c-5-3-9-6-15-8-2-1-6-4-7-8 12 4 21 12 32 18 5 4 6 0 7-5l2-6c2-9-36-24-41-32-5 0-10-4-12-10l10 6c2-2 1-6 2-9 2-4 3-10 1-11l-20-14c-2 1-3 7-4 9l-2-1c5-10-2-14-10-18-2 1-1 8-4 9-5-5 8-9-9-19-2 3-1 8-5 11-1-5 3-12-2-15-9-6-17-12-27-17 0 5-4 17-2 22l11 7c1 2 1 0 2-1h2c-1 4 1 5 3 7l-1 1c-5-3-3 5-6 8-3-8 4-8-5-14l-7-5c-1 8-10 23 1 27 2 0 3 2 5 4l-1 1c-4 0-11-9-11-1s-8 22 0 27l-1 2c-6-4-4 9-6 13-2 7 1 9 7 13l-1 2c-3 0-8-7-8-1l-3 20c-1 3 0 3 2 5l-1 2c-2-1-3-1-3 2l-6 42c-5 13 9 8 6 14-3 1-5-2-7-3-3 1-1 11-3 14-3 6 3 10 8 12 2-6 1-14 5-19 3 15-9 20 9 27 4-14 5-30 10-45v-2l1 1v-3l1 3v1c1 8-7 21 0 27h-3c-1 0-2-1-2 1l-3 19c0 3 4 3 7 4 0-5 1-11 4-15 4 6-5 17 3 19l5-18c2-3-2-4-4-4-3-1-6-3-7-7 5-1 12 10 13 3 5-21 9-40 16-60h2c3 12-13 33-7 43-4 0-4 5-5 9s-4 10-3 12l7 5c2-7 6-17 5-24 7-6 6-32 14-39 2 5-3 10-1 14-5 11-8 20-7 30l-1-1c-1 0-7 20-5 22 14 9 6 3 14-5-1 4-2 10-1 11 1 2 7 6 10 7l3-3c-1 6 2 4 5 8 1 0 3 2 4-1l2 1zM898 172c-6 5 0 32-1 42 1 31 6 63 5 95l1 1c9-3 6-14 6-21l-2-34-3-36c0-3-1-7 3-9 9-2 19-12 23-9 3 27 4 63 8 88 0 4 0 4 2 4 3 0 8 1 11-1 0-30-4-61-5-87 0-5 0-7 4-7l24 4 2-1c-8-25 7-41-34-45v4c0 4 2 7 6 7 4-2 18 5 17-1h2c6 39 9 27-23 27-2 0-3-2-3-3l-4-30c0-4-2-5-3-4-2 0-2 1-1 2l4 31c-1 3-4 3-6 3l-3 1c-13 6-19 9-23 9-9-1-4-21-7-30zm330 131l6 4c-4-5 9-21 0-23-1 0-3-3-4-1 0 5-7 18-2 20zm-561-2c3 2 7 3 11 3 2-14-14-10-22-14l1-2 18 3c0-6 0-14-7-13-9-1-19-6-27-7-3 0 0 6 1 9 0 4 5 4 9 5 0-2 0-4 2-6l2 13h0c1 8 4 8 9 10l3-1zm245-87c-3 1-3 3-3 6 1 30 2 55 5 81 3-3 21-4 20-9l-3-40-4-45c0-4-13 7-15 7zm-279 71c-7 5-23 2-16 15 3 4 17-5 21-5 5-2-1-11-5-10zm404-19v29c0 4 4 4 7 4l1-52c1-6-3-9-8-10v29h0zm-393 21h-1c0 7 3 10 10 11v-5c-1-3-5-6-9-6zm335 10c5 4 2-7 3-12l-1-36c0-4-2-7-6-9 2 19 0 39 4 57zm12-57c-4 2-5 5-5 9l1 44c0 2-1 5 2 4 2-1 4-1 4-4l-1-9-1-44zm28 53c5 0 9 2 14 3v-47c1-15-3-15-15-14-6-3-2 38-2 43v12c0 4 1 3 3 3zm-54 0c4 1 6 3 8 2 2-5 0-17 0-23l-2-46-1-18c0-3-4-4-10-4l-10-1 2 34 3 52c0 5 5 0 10 4zm37-1h10c2-8 0-18 0-27h0v-23c1-6-2-7-7-6s-12-1-11 6l2 49c0 3 4 0 6 1zm48-6l7-2-1-2c1-2 0-5-1-7v-35c-3 4-6 8-4 12 1 1 2 2 1 4-2 1-4 14 1 16-3 1-4 3-3 6v8s0 0 0 0zm-653-23c-5 4-21 13-19 20 5-11 28-13 19-20zm662-8l1 28c5-1 5-3 5-9 0-5 0-6-4-4l-1-2c5-1 6-4 5-9v-8h-6v4zm-371 18c3 7 5 8 13 9 0-17-13-7-25-17v-2l8 2c3-15-11-12-20-17 0-2 2-2 4-1v-1l2-1c2 3 7 4 11 5 3-13-5-6-9-13 8 0 16 4 23 4 1-5 0-10-7-10-5 0-10-3-15-5-3 0-6-2-8-4 22 1 31 14 28-2l-3-4c-22-5-43-13-65-18h0c1 5 1 12 7 14v2c-6-2-2 4-2 7 1 8 21 5 26 12-7 2-18-4-25-4 0 12 13 9 20 15h-4c-22-6-10-1-9 17 0 8 25 11 33 14 3 1 2-1 3-3h1l2 5c17 3 6 2 11-6v2zm381 8c3 1 8-3 7-6l1-10c-10 1-8 8-8 16zm16-147c-2 1-2 2-2 5l-1 31c-1 15-2 32 0 47-3 18-1 37-2 55 1 2 0 5 2 5s8-1 7-6v-20l1-28c-1-2 1-4 3-5v39s0 0 0 0c3 0 6-1 6-4l1-22h2v21c0 2 0 3 2 3v2c-11 2-13 7-11 17l16-5c-4-4 3-13-3-15 4-1 3-5 4-8 2 1 2 3 2 5 4 0 8-4 8-8l5-44-4 2-1-2c9-6 5-19 8-28 0-3-1-1-3-1l-1-2c7-4 4-14 6-21v-5c-3 0-5 5-9 1 5-3 11-4 10-11l2-24 5-49c-6 6-39 12-39 22-2 24 0 48-4 72-4-4 0-18-1-23h-1l-1-1c4-3 1-7 2-14 1-5 2-13 1-14h-2c4-7 2-15 3-23-19 6-10 10-13 25h4c-6 3-4 11-4 19v10h1l1 2zM392 240c-18 8-32 17-18 36 9-13 23-21 37-28 6-3 6-3 3-9-4-14-5-3-22 1zm779 25c1 3-4 10 2 10h1c4 0 3-15 5-19 1-4-3-2-5-3-4 1-2 9-3 12h0zm-8 4c0 3 0 6 3 5l3-20c-7-4-4 11-6 15zm-6-26l-2 27c0 2 1 2 3 3 5-19 6-49 10-69h2l-2 19 3 1c5-2 2-17 6-21 2 5-1 16 0 21 11 5 9-16 11-23-5-3-14 2-18-3 2-4 6-1 7-3 0-5 5-21 3-24-3-1-6 0-7 4h-2c2-26 6-51 9-74h0l4-44h-3c-2 0-3 0-3 3l-2 14-2 1c-2-4 2-15 0-18-2-2-5-1-5 2l-2 16-2-1 1-18h-2c-3 0-3 3-4 9-4 41-6 81-11 124-5-6-1-11-1-18 0-2-1-2-3-2s-3 0-3 2c0 7-2 13-1 20h-2c-6-9 8-27-7-22 0 5-2 20-1 23 1 2 5 2 11 2 7 0 8 1 7 8l-5 66c0 1 0 3 1 2 3-4 2-31 5-38 6 6-3 33 1 39 2-4 2-24 4-28h2zm-22 19c-1 4 0 9 5 7v-9c1-4 3-9-3-9-4 0-1 8-2 11zm-16-10c-11 2-6 10-9 17 11 0 8-8 9-17 0 0 0 0 0 0zm-433 8c1 5 8 8 13 8v-6c-1-7-3-6-7-5-6-1-7-6-6 3zm438 4c0 4 5 2 7 3l1-12c0-5 0-5-4-5-6-1-3 11-4 14zm-45-156c-5 5-12 1-10 11l-1 46c0 3 1 3 3 4-1 1-3 2-3 4 2 7-1 15 2 21l-1 4v67c2 1 4-1 6-3l2-4 1-66-7 2c0-5 6-4 7-7-1-5 3-18-2-22 6-5 2-21 3-29l1-26c1-2 0-2-1-2zM359 241c-3 5 1 10 3 14 8-7 8-8 1-18l-4 4zm322 9c5 0 9 4 14 2l2-1c1-8-7-7-12-8 0 3-1 5-4 7zm378-15c-2 4 0 11 0 16 2-4 7-3 6-6-1-5 2-14 0-18-1-1-7 0-7 2 1 2 4 3 1 6zm116 15c2 0 5 2 6-2-1-5 4-16 2-19l-5-1c-5 0-3 10-4 14l-1 8h2zm-9-15c1 4 0 9-1 14 1 1 5 1 5-1l2-18c1-2 0-2-2-2-4-2-2 4-4 7zm-27-10l-1 2-2 17c-1 4 6 5 6 1l1-19-4-1zm-10 21c7 3 3-12 5-15 1-8-1-6-6-6-2 0-2 10-2 13 0 5-3 10 3 8zm-759-15c-3 2-3 5 0 9 1 1 1 4 3 4 6-5 15-9 21-11s1-5 0-9c-2-5-4-4-7-3 5-4 2-5 2-10h2c1 10 13-4 18-4l1-1v1h2l-1 1 1 1h-2c-9 10-22 4-9 20l31-17c5-6 23-7 18-16l2-1c1 6 4 4 8 2 6-4 13-8 19-10 2-2 2-2 1-5-4-9-4-8-12-4-7 4-6 3-3 10 1 2 1 3-1 5-2-5-5-9-6-9-2 1-11 4-7 8l-2 1c-3-3-5-3-9 0l-1-2c4-5 8-1 2-13-3-4-4-14-7-15l-7 4c-4 1-4 3-2 5l-2 1c-2-6-7 0-10 1-2 1-2 1-1 3l9 21-2 1c-18-34-4-22-48-2-6 2 2 7 3 12 2 6 6 13 9 13l1 2c-4 3 4 6 1 12-3-3-5-12-10-7l-5 2zm99 5c2 1 3 7 4 7l24-14c1-2-1-5-1-7-2-6-3-4-6-3l-1-1c2-2 1-5 3-7l-4-7-7 4c-3 2-8 3-5 6l-2 1-2-2c-17 6-3 12-3 23zm-115-11c-6 5-3 12 1 16 2 0 2-3 3-4 5-3 2-9-3-16-2-3-4-6-4-9l-2-1c-4 2-7 9-1 17 1-2 1-4 5-5l1 2zm637 2c0 3-15 8-10 11 2 1 2 1 4-1 6-8 26-6 36-8 11 0 20 3 28 7 1 1 6-2 4-4-6-4-13-9-21-7-13-2-29-1-41 2zm-570 9c6 0 22-14 28-14l5-4c5-1 2-10-2-13-6 2-12 8-19 9-3 5-14 7-18 11 2 4 3 8 6 11zm553-18c1 3-1 13 1 15 8-4 8-5 7-13-2-11 0-8-8-7v5h0zm-620-7c5 4 7 22 15 18 2-3 7-3 8-5-1-4-3-8-6-11s-2-7-4-10c-3-5-6-1-9 1-2 3-7 3-4 7zm700-8c-3-1-2 4-5 4-5 1-3 4-3 7-1 3 0 6 1 8 2 3 5 5 7 4l1-23h-1zm4 10c1 3-2 11 1 12 3-3 7 0 6-7-1-5 2-18-1-21-8 2-6 9-6 16zm-73-4c-3 1 1 11 2 14l-2-14zm154-4c1 4-3 16 1 17 3 0 4 0 4-3 1-7 0-14 2-21-3-2-11 0-14-1-2 0-3 0-3 3l-2 20c0 2 4 2 4 2 6 0 2-15 8-19v2zm-132-2l-18 5 1 8 2 5c1 2 16-2 18-3v-6c0-5 1-8-3-9zm15 16c4 0 14 4 13-3l-2-12c0-1-12-2-16-1 2 4 0 17 5 16zm-564-10c2 3 3 8 7 4 4-5 28-9 21-18l-3-4c0-3-1-2-2-2l-18 10c-6 3-8 5-5 10zm219-10l1 3c-2 10 7 8 13 11 2-9-4-14-14-14h0zm361 6l1 7-1-6v-1zm-550-32h-6c-1 1 2 8 3 9l10 26c1 4 5 0 10 0-1-5-4-6-8-5v-2c5-2 5-1 3-6l-5-15c-3-7-3-7-7-7zm162 17c-3 0 0 11 2 11l23 7c4-7-12-19-12-11h-2c-1-6-7-5-11-7zm-134 11c-11 2-8-1-8 6l10-3-2-3zm494-40l-28 43c22-6 39-8 59-4l-31-39zm-488 40l-1 1c0 2 3 1 5-1h-4zm527-21c-1 1-4 1-4 3l1 14c0 2 3 4 5 3s3-1 3-3v-18c-2 0-3 2-5 1zm-413 6c-3 9 2 12 11 14l-2-11-9-3zm-140-13c3 5 2 12 10 12-3 2-6 3-3 7 2 2 0 6 4 7l9-1-10-25c0-1-10-2-10 0zm23 23c1 4 4 2 6 1-3-6-6-12-6-19l-1 1c-1-5-3-9-8-7-1 4 8 20 9 24zm385-11c-1 2 1 7 1 10l1 2c8-2 16-7 23-10 2-1 2-2 2-4-1-2 0-10-2-10-7 4-18 7-25 12zm-383-5c5 5 5 22 16 16l-8-21c-2-5-5-4-8-4-4 0 0 4-2 7l2 2zm19 15c1 3 6 1 8 0 0-3-2-7-4-9-1-2-4 1-7-1 1-3 4-2 6-3-1-3-2-11-5-11h-6c-2 3 7 20 8 24zm517-45l1 46c3-1 8 0 8-5l-1-47c-3 2-8 2-8 6zm123 41c-1 6 1 5 6 5 3 0 3 0 4-4 1-7 1-14 3-20-13-7-10 11-13 19zm-557-9c-3 0 1 4 0 6 0 4 6 8 10 8 1-7-2-13-10-14zm-74 3c1 3 0 9 5 9 2 0 3-1 3-2 0-4-4-8-8-7zm489-58c-4 2-8 4-7 9l1 19c0 14-1 27 10 36 0-5-3-10-1-16v-14c1-5-1-4-6-5 1-3 6-3 6-6l-1-21c0-3-1-2-2-2h0zm-476 57l-4 1c3 6 2 8 9 5-2-4-3-6-5-6zm382-13c-4 16 6 19 21 18 2-2-1-9 0-11 0-10-15-6-21-7zm-497-15l-3 2-6 3 8 19 2 5 6-3c3-1 4-2 4-4l2-1c2 2 4 0 6-2 3-2 8-2 9-5l-3-9c-1-3-3-4-6-5 2-1 3-3 2-5l-2-4c-4 3-17 4-14 12l-2 1-3-4zm99 14c-1 0-4 0-2 3 2 5 2 12 8 9 3-1-3-8-2-11l-4-1zm6 1c4 5 3 14 11 10l-2-7c-1-3-1-5-4-4-2 0-4-1-5 1zm359-9c-8 3-8 5-7 14 0 2-1 5 2 3 4-3 23-9 23-13-1-3 1-10-3-10s-11 5-15 6zm132-36c2 9-1 19 2 27-2 8 0 17 0 25 2 1 5-2 7-2 4-1 1-15 2-20l-1-6-7 3c1-7 7-5 7-9v-20c0-3 0-3-3-3-1 3-7 2-7 5zm-21 38h-1c0 2 4 7 7 10v-12c-2 1-3 3-6 2zm-95-73c-16 26-27 55-40 82 28-27 58-29 90-10l-50-72zm-448 65c-4 0-4 2-2 6 1 2 2 8 5 8 6-1 10 1 6-7-3-8 0-6-9-7zm-131 0l-5 2 2 3c2 6 7 9 13 8-3-4-5-13-10-13zm142 1c3 8 4 15 14 11 0-2-4-7-3-10-2-1-8-3-11-1zm13 1c3 3 3 13 10 10 2 0 0-2 0-3-3-3-2-10-7-9-1 0-3-1-3 2zm12 6c2 0 1 4 3 4h8l-1-2-1-6 2-1 3 7 1 2c2 0 6 1 8-1 1-1-2-4-2-5-1-6-8-9-12-4-3-3-8-3-11-2l2 8zm671 4c3-1 7 2 8-3l3-19c1-3-3-2-5-3-8 0-6 15-8 21h0c0 2-1 4 2 4zm-647-13c-4 0-1 4 1 7 0 2 2 6 4 5l4-1-2-7 2-1c3 6 3 12 10 8 1-2-2-8-3-10-2-2-6-1-10 0l-6-1zm-260-9l15 21c-3-5-12-20-15-22v1zm898-3c0 7-3 16-2 23 2 2 6 1 7-1-3-6 8-26-5-22zm-33-2c1 5-3 20 0 24h4c2 0 1-18 2-21 2-3-4-4-6-3zm-10 3c1 6-6 25 5 20 3-4 0-18 3-23-2-2-4-1-6-1s-2 3-2 4zm165-5l36 23c5 3 5 4 7-3 2-3 6-8 1-11-13-9-26-17-38-27-2-1-2 0-3 1 0 6-5 12-3 17zm-1011 0c-5 1 1 6 2 9 3 5 8 13 11 14 2-1-4-10-7-14-4-5-3-8-6-9zm730 21c0 5 7-3 10-1v-26c-16 4-9 14-10 27zm-547-15c-1 7 8 10 13 8l-2-6c0-2-8-4-11-2zm17-1l-3 1c0 7 7 9 12 8h0c6-1 16 3 9-7-5-4-12 0-18-2zm-148 9c4 3-6-15-7-15v1l7 14zm175-1c3 0 18 2 18-1h0c-2-6-15-12-12-3 1 1 2 4-1 4-3-8-4-10-11-8 1 4 0 10 6 8zm20-2c1 3 5 3 7 1l-2-5c-1-1-4-3-6-2v2l1 4zm16 1c7 3 0-10-7-7v1c-1 4 2 7 7 6zm507-33c-4 3-1 20-2 26 3 1 8-4 9-5v-7c-1-4 3-21-4-16l-1-2c2-1 5-2 5-4V93c-9 2-9 2-9 12 1 2-2 10 1 11l1 2zm-716 19l4 6c-2-3-2-5-4-6zm840-36l-4 40c2-5 7 3 7-6 0-6 4-16 3-22-2-2-7 0-7-4l7-1c2 1 2-19 4-22l-6-1c-4 1-1 12-4 16zm12 11c-5 0-3 14-5 18 0 4-4 11 3 11 3-1 6-1 6-3l4-20c2-8-3-4-8-6zm-49 19v6h3c2 0 3 1 3-1-1-5 5-24 0-26-8-3-3 17-6 21zm-4-22c-4-1-3 4-4 6l-2 18c-1 4 2 4 5 4 4 1 2-9 3-12l1-12c1-3 0-4-3-4zm-113 1c-11 4-11 3-11 15 0 5 0 7 2 7l7-2 2-2v-18zm12-5c-3 1-9 1-9 5v17l7-2 3-5c-2-3-1-11-1-15zm4 14c-1 3 2 1 3 1 10-2 5-13 6-20l-1-2c-12 2-8 12-9 21h1zm150-28c0 4-2 14-1 17l7 1c3 1 4-3 4-9-1-4 5-11-1-11l-8-1-1 3zm-114-6c-13 2-11 14-11 24l10-4c2-6 0-13 1-20zm72-2c-5 0-2 5-3 10s-2 11 0 13h3c3 0 2-11 3-13v-7c1-2 0-3-3-3zm-9-1c-2 0-3 1-3 2l-1 19c0 2 0 2 3 2 1 0 2 1 2-2l2-18c1-2-1-3-3-3zm59-24c-5 0-4 13-6 18-1 6 0 6 6 7 9 3 5-14 8-19 2-6-4-5-8-6zm-12 24c6 1 3-17 5-21 1-4-3-3-6-3s-1 7-3 11c-1 6-3 14 4 13zm-39-24c2 5-5 20 2 21 4 1 2-2 4-5-1-4 4-19-1-19-3 0-4 0-5 3zm-9 20h4c3-5 1-17 2-23-8 1-2 18-6 23z"/>
    <path d="M116 765c-2-8-11 0 3-18 2 9-11 11 7 16v2h-10zM1635 729c-9 0-4-12-5-18 0-9 0-19 4-28 7-31 58-39 40-45-3 0-7 4-10 0-1-2 1-3 2-3 8-5 16-8 25-7l15-10c4-7 7-8 13-9-10 12-19 27-37 24-6 0-4 4 0 5 5-1 10-7 16-3-18 8-21 15-28 31 2 0 4 0 5 2-1 5-8 2-9 5l-2-1c1-7 3-13 7-19-18 6-25 53-36 68 7 1 18-36 24-40l2 1-13 31c12-9 17-25 25-37 1-2 2-4 1-5 0-6 5-12 9-18 3-3 5-10 8-11 9 3-10 20-12 26 9 0 14-18 21-20 4 1 0 5-3 10l-7 12c0 1-1 2 1 2 4 0 11-18 15-21 2-5 1-9 1-13-3-8 10-32 25-33l8-3h1c-2-2-5-3-8 0-14 13-31-11-45-7-2 1-4 0-6-2l2-2v1c11-6 20 6 31 8 5 1 11 5 14-1 6-8 8 2 22-8-7-5-23-14-13-16h1c8 9 19 13 28 15 4 1 26 12 16 19-18 5-30-9-51 3-15 0-16 13-20 24-1 5 3 13 0 17-8 8-12 19-20 27a583 583 0 01-57 49zm22-69c-14 11-25 35-23 50 8-17 14-33 23-50zm21 15c-5 7-8 15-12 22 5-4 10-9 14-15l3-2 4-1-1-1c-2-2-2-4-2-7-2 2-3 4-6 4zm76-75c8 0 15 5 24 4-6-4-15-13-21-9 0 2-3 3-4 3l-3 2h4z"/>
    <path d="M1691 585c-12-4 19-17 22-21 9-11 39-28 51-20-1 11-21 11-21 23 0 3-2 5-4 8h1l-1 1v1h-3l1-1c-3-2-3-4-1-7-1-13 11-16 17-21-6 0-23 9-28 12-5 5-9 12-17 14-6 2-10 10-17 11z"/>
    <path d="M1729 589c-8 1-10-13-1-13 11 2 10 12 1 13z"/>
    <path d="M1721 598c-6 0-26-7-15-13 7 1 14-1 20 6 7 4 0 8-5 7zm-13-8c1 1 12 7 16 4-3-5-12-5-16-4zM1612 728l-2-1c5-10 6-21 17-28 2-3 6 2 2 4-10 3-9 22-17 25zM1590 736c3-5 14-8 21-6v2c-7 0-14 2-20 6l-1-2zM1602 712l4-10h2c2 8 0 11-7 12l1-2zM224 729c-6-2-10-6-17-10-4-1-5-3-2-7s14-29 16-27c2 0 2 1 2 3 2 6 18 8 18 14-6 9-11 25-17 27zm-3-36l-2 2-10 18c-1 2-1 3 1 3l14 8 12-21c-1-2-4-4-7-5l-8-5zM250 746c-6-1-11-9-17-10-5 0-6-3-3-6l15-24c1-2 3-3 5-1 6 8 16 10 23 18-11-3-14 22-23 23zm-1-35c-4-1-10 15-12 16-2 2-3 3-2 4 2 3 10 6 15 10 4-1 10-15 13-19v-2c-4-2-10-9-14-9zM125 667c-5 0-10-5-13-7-3-1-2-3-1-5-2-12 3-25 13-28 5 1 13 7 18 10 1 1 3 2 1 4-8 6-10 24-18 26zm0-35c-8 1-10 15-10 20-2 6 6 8 10 11l8-15c6-10 5-10-4-15l-4-1z"/>
    <path d="M272 715c-5 0-16-10-17-11-2-3-5-1-8-1l19-29c3-3 6-1 7 1 15 10 21 11 11 23-3 3-7 8-10 16l-2 1zm-2-5l2-1 9-13 3-6-13-13c-5 1-10 15-14 19-4 6 8 10 13 14zM81 742c-2 0-3-3-5-3-4-3-8-3-9-9-3-13 12-34 26-23 3 2 11 4 5 8-2 9-10 16-14 24 0 1-1 3-3 3zm5-34c-11 1-23 25-6 27 6-3 10-16 16-21-5-4-8-6-10-6zM106 757c-4-2-8-6-13-7-5 0-5-7 0-9 3-10 12-16 13-27 4 5 22 8 18 16l-9 14c-3 4-4 11-9 13zm-9-10c4 0 8 7 10 2l13-21c-3-2-6-5-10-6-5 1-10 17-15 21 0 2 0 3 2 4zM146 630c-4 1-11-7-14-8-6-7 0-22 6-30 3-4 6-6 10-4 8 5 13 8 14 12s-1 7-4 12c-3 1-9 19-12 18zm0-38c-8 2-12 18-13 23 1 5 8 8 11 11 4-1 8-14 11-17 5-8 3-9-3-14l-6-3zM216 678l-20-13c-3 0 14-27 16-34 6 7 14 11 21 16-6 10-11 30-17 31zm-9-27c-8 14-5 14 8 22 5-7 8-15 12-22 1-4-9-10-13-13-4 3-5 9-7 13zM199 714l-3-2c-4-4-14-5-16-11-2-1-2-3-1-4l12-25c2-3 4-3 6-1 4 5 9 7 14 10 4 2 5 4 2 8-4 5-8 12-11 21 0 2-1 4-3 4zm-17-15c8 3 11 7 16 9 1 1 5-7 9-15 7-10-5-12-11-17-5-2-11 19-14 23zM179 749c-4-1-8-6-12-7-3-2-6-3-6-5-3-8 12-22 12-31 1 1 4 3 3 5 2-5 6 0 8 1 4 1 7 5 11 6 2 0 2 1 2 2 1 1 0 2-1 4-5 4-9 25-17 25zm-3-38c-3 8-7 14-11 21-4 6 13 12 14 12 3 0 5-4 8-12 3-5 5-8 4-10 0-3-15-7-15-11zM103 704c-4-4-15-6-12-14 2-7 1-15 8-21 5-5 10-2 15 2 4 2 6 4 7 6 0 4-6 10-9 16-4 7-6 12-9 11zm3-33c-7 0-11 11-11 21 0 4 5 6 8 7 4-2 4-6 7-10 3-5 9-11 4-14-2-2-5-4-8-4zM170 647c-4-4-21-10-17-15l14-26c1-4 4-4 6-1s10 5 11 9c-3 11-16 23-12 35l-2-2zm0-39c-3 7-11 19-12 26l5 4c2 2 3 3 5-1l11-23-9-6zM189 659l-4-1c-2-3-11-6-12-10 4-10 12-21 17-31l11 8c5 3 5 3 2 9-3 4-6 10-11 23-1 2-2 2-3 2zm2-36c-4 2-7 12-10 16-4 9-4 9 4 14l3 1c5-6 8-17 12-25l-3-2-6-4zM148 681c-7-2-18-6-15-11 6-8 9-17 14-26 2-5 6 1 9 2 4 2 9 5 7 9-3 5-11 28-15 26zm2-33l-1 1-11 21c-2 3 4 4 9 6 4-1 6-12 9-15 5-9 2-10-6-13zM152 732l-18-10 2-2c20 13 17 4 26-13 3-5-10-9-10-9-5 1-5 9-10 13l-1-1c0-3 7-17 9-17 3 0 5 2 8 4s8 3 9 6v5c-6 7-8 13-9 17-2 4-3 7-6 7zM170 696c-4 0-9-6-12-7-9-3 1-11 3-16 2 6-4 8-2 11s6 3 8 5 4 1 5-1c1-5 11-18 9-22l-10-6-3 3h-1c0-16 11-1 18 1 2 1 3 3 1 5-6 5-11 26-16 27zM239 694c-4-5-19-8-16-16l13-23c2-4 6-4 8 0l1 1h-1l1 2-2-1v1l-1-1c-4-1-7 7-9 12s-5 7-5 11c2 3 7 6 11 8l3 3c1 2-2 5-3 6v-3zM116 711c-5 0-5-3-2-6l11-21c5-9 14 4 20 6-7 2-9-3-15-5-2 1-4 10-7 12-3 4-6 8-5 12l1 1-1 1h0-1l-1 2v-2z"/>
    <path d="M128 718c-2 1-8-3-13-8l2-1h0c4-1 9 8 12 3l10-20c1-3 4-3 7-2-9 9-12 28-18 28zM284 713h-1l1-1c2-6 7-10 10-16 0-1 1-2 3-2 6 1 20 12 24 17-7 3-15-11-23-12-5 1-8 12-12 14v2l-1-1-2 1 1-2zM140 751c4-11 6-10-6-16-5-3-6 3-9 5 0-18 10-7 20-3 7 4-1 11-3 15l-2-1zM242 695h-3v-3l1 1c6 0 16-33 21-23l-3 3c-4 5-9 22-16 22zM256 667c-5-3-10-5-13-10h-2l1-1-2-2 3 1v-1l1 1c5 2 10 6 14 10l-2 2zM1292 509c-5-2-15-5-17-11 0-7 9-19 18-19 6 0 10 5 10 11-2 8-5 19-11 19zm-11-13c1 4 7 6 10 6s5-11 5-14c-3-9-12 4-15 8zM1416 582l-2-1c-4-4-21-6-14-14 4-4 6-9 12-11 18-6 17 21 4 26zm-10-12c1 1 6 5 9 5 2-1 5-7 5-9-1-11-13 1-14 4zM1411 683h-1l1-1c2-5 6-9 9-14l1 1c-2 5-4 10-8 14v2l-1-1-2 2 1-3zM752 467c-3 0-4-4-4-5a2929 2929 0 00-17-100c-3-6 3-4 6-5 19-7 11 13 16 26l14 75c2 5-2 7-7 7l-8 2zm-9-107l-5 2c-3 0-3 1-3 4a1686 1686 0 0020 96l7-1 1-2c-4-31-11-62-17-93-1-5-1-6-3-6zM801 455h-2l-19-95c-5-18 9-14 20-19-2 5-1 9 0 14l16 88c6 11-7 10-15 12zm-9-107s-10 1-9 4l10 51 7 40c2 11 4 8 11 5 2 0 2-1 2-2l-14-75c-2-5-3-22-7-23zM826 450l-2-3c-3-33-9-69-18-108 7 3 21-10 23 2l12 102c-3-1-5-3-5-6l-11-94c0-3-1-3-2-3-3 1-9 2-10 4-1 7 2 17 3 25 4 23 9 46 11 69 1 10 5 2 13 5-4 4-10 4-14 7zM780 461c-4 0-3-5 0-5 2-1 7 0 8-3-2-21-6-42-10-63l-7-32c0-5-2-5-2-5-6 2-11 6-16 0 7 0 19-9 22 1a3516 3516 0 0017 103l-5 2-7 2zM810 334c-8-1-5-20-9-27-1-2 1-3 3-3 7-1 12-4 18-4 2 8 1 17 4 25 1 4-1 6-5 6l-11 3zm7-29c-9 1-12 3-10 13 1 5 2 12 5 11 1 0 10-1 9-4s-1-21-4-20z"/>
    <path d="M776 459c-2 0-3-1-3-2-3-29-9-58-15-86 0-5-3-9-2-14 1-2 5-1 4 2l18 97c0 2-1 3-2 3zM780 341c-2 0-4-1-4-3l-4-17c-1-6-1-7 5-8l15-5c0 9 2 19 4 28l-3 1c-3 1-10 5-13 4zm7-27c-10 2-12 3-9 14 1 7 2 9 4 9 1 0 9-2 9-5-1-3-1-17-4-18zM755 348c-2 0-3-1-3-3l-2-16c-4-8 7-9 18-13 1 31 14 25-13 32zm-1-21c2 5 1 15 3 15 16-1 9-5 8-16-1-7-2-5-6-3-2 1-6 1-5 4zM746 354c-4-10-16 6-18-4 0-6-4-11-2-17 7-5 2 17 8 16l8-2c0-3-1-14-3-17-5-1-8 5-14 0 6-2 12-3 18-7 0 10 3 20 4 30l-1 1zM789 304v-2c13-5 25-11 37-13v2c-10 6-24 9-36 13h-1zM607 465c-9-25-20-50-26-76 6 3 6 17 10 20 4 0 5-2 6-6 2 7 3 1 7 4-2 5-12 3-13 6 2 4 2 8 5 10 2 15 11 27 13 42h-2zM601 346l-2-2c0-8-5-16-5-24 2 0 4 2 4 4 0 4 5 0 8 0 3-2 8-3 12-3-2 2-8 4-6 7l3 9c3 2 7-4 10 1-7 3-16 4-24 8zm7-19l-6 1c-4 0-3 3-2 6s2 8 4 7c14-2 5-4 6-12 0-1 0-2-2-2zM585 252c1-3 2-3 4-4-2-18-7-6-23-5v-2c10-3 19-7 29-9l1-1v1h2l-1 1 1 1h-2c-8 5-9-2-4 13 5 0 12-6 18-1-8 1-17 3-26 8l1-2zM559 305c8-5 19-5 27-9 2-2-1-6-1-8l-1-1h1v-3l1 2 1-2v3c2 3 3 7 3 11h1l-2 1v1h-2v-1l-27 8-1-2zM579 352s-2 0-2-2l-3-10c2 0 3 1 4 3 3 7 2 5 8 3l9-3c2 3-1 4-3 5l1 1-2 2c-3-4-8 1-12 1zM619 365c-4-9 2-9-12-5 2-5 6-4 9-6v-4h2v3l8-1v2c-5 2-7 4-5 10l-2 1z"/>
    <path d="M595 234v-2l13-4c4-3 8-2 12-3v2c-8 3-16 6-24 7h-1zM609 277h-3v-2c9-1 18-7 27-5v2c-9 0-16 5-24 5zM566 256c2-4 11-1 8-7v-5c5 4 0 8 9 7-5 5-13 5-19 7l2-2zM593 297l-5-1c16-5 11-1 11-13h2c0 4 7 15 0 12l-8 2zM595 402c-2-2-2-7-6-5l-1-2c6-2-3-9 1-16 4 8 6 16 8 25l-2-2zM594 364c-3 0-1-5-3-7-1-3-1-8 1-11 1 6 1 17 10 13l1 2-9 3zM566 272c6-4 12-5 17-6l1 2c-5 3-11 3-17 5l-1-1zM630 364c-2-4-1-11-6-10l3-4 2-1c2 3 4-3 10 1-9 2-9 5-7 13l-2 1zM546 296l-3-1 1-2c3 2 18-9 17 0h-3l-12 3zM577 378c-4-2-2-8-6-8v-10c4 6 6 12 7 19l-1-1zM573 286c3-3 10-1 11-7 2 2 3 5 3 8l-2 1c0-1-1-4-3-2l-12 3 3-3zM573 337l-2-1v-7l1-1c2 3 3 6 6 4l2 2-7 3zM589 265c5-2 10-5 15-5v2l-15 5v-2z"/>
    <path d="M582 393c-2-3-2-7-5-9 1-2 0-5-1-7l2-1c3 6 6 12 7 19l-3-2zM418 345l-1 1v-2h-1l1-1c0-6 29-18 39-23l1 1c-12 9-26 14-38 23v2l-1-1zM440 382c0-9 14-7 14-15 7 2 14-6 21-8l1 2c-11 10-27 13-37 24l1-3zM405 316c1-9 12-7 16-14 5 0 8-4 14-5v2l-30 19v-2zM476 323c7-2 11-7 19-7v2l-18 9-1-4zM395 290c-3 0-2-2-3-4l1-1c5 3 8-5 14-2-3 4-8 6-12 7z"/>
    <path d="M474 359l14-7 1 2c-4 4-10 8-17 7l2-2zM426 272l1-1h-1l-1-1 16-9c-3 7-9 9-14 11h-1z"/>
    <path d="M487 352c4-5 10-6 16-8-4 7-11 9-18 11l2-3zM862 381c-3 0-4-3-4-5l-9-55c0-11 18-9 26-10 5 0 6 2 6 8l8 54c2 7-5 5-10 5l-17 3zm13-66c-6 2-21-1-21 7l8 51c1 4 2 3 4 3 7-3 12-2 18-3-2-11-4-49-9-58z"/>
    <path d="M839 315c-3 0-3-3-3-4 1-6-6-24 1-25 11-3 50-18 51 1 6 40-4 11-49 28zm39-32c-13 0-26 2-38 7-4 2 0 15 1 20 15-6 29-6 44-6 1-3-1-7-1-10 0-7-1-11-6-11zM875 433c-4 0-5-3-5-6l-5-40c0-6 6-7 10-7s8-2 9 4c1 14 6 33 5 48-2 2-4 1-6 1h-8zm-1-9c1 5 3 6 7 4 3 1 5 1 4-4l-5-37c1-5-8-2-9-1-3 7 3 30 3 38zM849 276c-2 1-3-4-4-8-3-10-2-20 11-19 8 0 9 1 10 8s2 11 0 13c0 3-12 5-17 6zm0-18c0 4 2 14 3 13 8-1 11-3 9-12 1-4-2-6-7-5-2 0-6 0-5 4zM427 531c-24-1-20-37 2-35 23-1 22 35-2 35zm3-29c-16-2-13 23-2 22 10 2 17-22 2-22zM982 404l-2-82h2c0 28 3 54 2 82h-2zM1004 352c-3-8-1-16-3-24h2c3 7 1 15 3 23l-2 1zM1004 383v-16h3v17h-3v-1zM325 195c-3-3-6-7-7-12l2-1 7 12-2 1zM319 639l-1 1s0 0 0 0h0c-8-5-14-14-22-20l-1-6 26 25-1 1-1-1zM256 579l-5-5 1-1 16 15-2 2-10-11zM235 561l1-2c5 4 11 7 14 13l-1 1-14-12zM346 324c-4-3-7-8-8-13l2-1 8 13-2 1zM385 390c-4-4-6-9-9-14l2-1 10 15-3 2v-2zM359 347c-4-4-6-9-9-14l2-2 9 15-2 1z"/>
    <path d="M394 404c-2 0-3-2-3-3-2-3-5-6-6-10l-1-1h1v-3l1 2 1-1v2c4 4 6 9 9 13l-2 1h0z"/>
    <path d="M400 417c-2-5-6-9-7-15h2l9 15-3 1-1-1zM336 585c-6-3-9-8-12-14 6 3 9 8 13 13l-1 1zM1091 220v-6l-3 1c3-6 3-13 3-19l2-42h2c2 19-1 37 0 57 0 5-1 8-3 12l-1-3zM1100 222l3-31h2c1 4-2 13 1 15-4 5-1 11-4 17l-2-1z"/>
    <path d="M1103 191c-1-9 1-19 1-28l1-4v-3l2 2h0v1l1 1h0c0 3-3 15-1 16l2 1c-7 4 0 11-6 17v-3z"/>
    <path d="M1105 160c-1-7 0-14 2-22h2c0 9-2 17-1 25l-3-3zM321 381c-4-2-5-6-7-9-8-14-20-26-26-41l2-1c13 17 23 35 34 53l-3-2zM296 370c-10-12-20-25-27-39 3 1 6 3 7 5 7 12 17 23 24 36l-2 1-2-3zM347 423c-5-5-8-12-12-18-3-5-7-10-9-16l2-1 21 34-2 1z"/>
    <path d="M367 453c-2 0-3-3-4-4-5-10-12-17-16-27l2-1c8 10 13 22 21 32h-3zM308 387c-3-5-8-9-10-15l2-1c4 5 8 9 10 15l-2 1zM1271 225c-1-9 8-9-8-15-3 0-3 12-7 16-2-7 7-16 0-22l2-1c5 4 4-11 7-13 4 6-5 15 0 17 13 8 8 4 13-6h2c0 4-5 12-1 14l-1 2c-4-2-2 7-6 10l-1-2zM1231 225l-1-2c1-2-3-2-4-4l-1-3c10 5 3-2 9-5 3 4-3 8 2 10-1 3-3 1-3 3l-1 1h-1 0zM1215 246h-1c0-6 1-12 4-18h2l-4 17v2l-1-1zM1219 220c-1-5 1-9 3-14l2 1c-1 5-1 11-4 16l-1-3zM1167 140l3-33h2l-3 33h-2zM1160 127c0-10 2-19 3-29h2c0 10-2 19-3 29h-2zM1156 169l2-30 3 1-2 29zM1172 77h3l-2 26h-3zM1151 220l2-21h2c1 7-1 15-2 22l-2-1zM1423 530l-1-1 19-36 3 1c-5 7-18 40-21 36zM1133 346l3-30 2 1-3 29h-2zM1123 394c-2-9 1-17 1-25h2c2 8 0 16-1 25h-2zM1131 375c-2-6 0-13 1-19h2l-1 19h-2zM1273 187c-4 0-4-3-7 0 0-5-6-6-9-8l-4 3c6-10-17-10-20-20 12 4 22 12 34 18l6-23c2-3-5-4-6-9 12 5 23 12 33 19l-1 2c-8-3-15-9-22-12-2 3-2 9-4 13-3 7-5 13 2 16l-2 1zM1272 125c-11-3-19-12-28-18 6-2 10 7 11 1l2 1c-1 9 15 8 17 17l-2-1z"/>
    <path d="M1286 134c-6-1-10-6-15-9l1-2 9 4 6-19c4 9-7 19 0 24l-1 2zM1269 151c-5-1-8-4-11-6l1-2c3 0 3 2 5-2l2 1c-3 5 4 6 5 9h-2zM459 424c2-8 22-5 16-16l1-1c6 5 5 4 11 1l13-7c2-2 9-4 9-6l1-3c8 3 13-8 22-6-9 7-20 13-31 18-5 4-17 7-20 13-4-1-8 2-11 5l2 3-2 1c-4-6-8-2-12 1l1-3zM475 452c2-6 18-8 16-14l2-1c1 3 1 2 3 1l21-11 1-1v1h1v1l1 1h-1c-2 5-21 10-23 14l3 3c-6-2-12 0-16 4-3 0-5 4-9 3l1-1z"/>
    <path d="M528 387c3-4 2-4 1-7 3 2 5 4 8 1l20-11c-4 10-20 14-31 19l2-2zM516 427c7-3 14-9 24-12-1 9-16 6-12 13l-2 1c-2-3-2-2-5-1l-3 1-2-2zM452 411c3-6 16-9 18-14 8 2 8-7 15-6l1-1 1 1h0v1l1 1h-2c-2 5-8 4-12 8l2 4c-1 0-3-3-4-2-6 0-15 9-22 10l2-2z"/>
    <path d="M485 391c12-8 23-13 34-18l1 2c-6 6-13 7-20 12-5 4-11 6-18 6l3-2zM409 209v-2c6-5 13-7 19-11l2 2c-6 6-14 8-20 11h-1zM630 513c-4-1-8-34-13-30-1 5 9 18 5 23-2-2-3-8-8-6v-2c4-1 4-4 1-7-1-3 0-8-5-8 2-2 2-5 0-8-2-1-1-7-4-6l-1-2c3-1 2-2 1-4 4 2 5 5 7 9 1 4 2 8 4 7l1-2-6-17 2-1v1c3 0 2 2 3 3 5 17 12 34 16 52l-3-2zM649 439c-6-4-1-17-10-9 0-5 2-4 5-6-2-6-1-14-9-9l-1-2s0 0 0 0c-5-1-4-8-6-11-3 1-7 1-9 4h0-1c-3-2-6 2-9 1 0-6 7-3 6-7l1-1c2-1 2 2 3 2 4-2 15-3 18-6v-4l2 2c5 3 1 15 6 15l6-1v2c-8 4-7 3-5 12l5 20-2-2zm-12-39c-4 0-7 1-5 5l2 8c1-2 5-2 6-3 1-2-1-6-2-8l-1-2z"/>
    <path d="M631 460c-3-8-5-15-6-23 0-4-3-4-6-4 6-5 2-9 0-14-1 0-4 2-5 0s1-3 2-3c6 0-1-8 1-11h0l1-2v1h2l-1 1c2 3 1 9 4 10 3-1 6-3 9-2l-1 2-8 3c2 13 8 27 10 41l-2 1zM637 510c-4-5-4-11-6-17-4-12-8-24-9-36 4 2 2 5 5 5-1 5 1 10 3 14h9c-6 1-10 3-7 9l8 27-3-2zM612 424c-1-4-4-2-7-2v-2c10-3-5-18 0-26 4 9 6 20 9 30h-2 0z"/>
    <path d="M622 460c-3-7-5-15-6-23h2c2 7 5 14 6 22l-2 1zM647 394c5-3-2-9 1-14 3 3 2 9 5 11 2-1 5-2 7 1-4 3-8 2-13 4v-2zM604 428c-4 0-3-5-6-4l-1-1c5-3-1-9 1-13 4 2 2 11 7 10l1 2c-3 1-2 4-1 6h-1zM613 462l-1-2h0c-1-5-4-10-2-16 3 6 5 12 4 17v1h-1zM669 241c-2-6-12-2-11-9 6 3 13 2 18 6-2 2-4 1-6 1l1 2h-2zM664 263c-7-1-11-3-16-5l1-2c3 1 7 3 10 0 0 4 4 3 6 6l2 2-3-1z"/>
    <path d="M648 260c-3 1-3-12-5-15l2-1c3 4 1 10 6 13l-1 2h-1l-1 1zM1285 194c-6-2-10-5-14-9 6-2 6 5 11 1 3 1 0 3 2 5 2 0 2 2 2 4l-1-1zM1207 409c-3-8 11-22 0-27l1-2 4 1c2 1 4-4 4-6l1 3c1 3-2 5 1 7-6 5-6 20-10 27l-1-3zM1217 372c-1-6 5-12-3-15l1-2c8 4 4-4 9-6v-2l1 2 1-1v2h0l-1 1c-5 10 5 8 9 15-4 1-7-3-11-4-3 1-2 9-6 12v-2z"/>
    <path d="M1215 357c-7 0-11-5-16-8l1-2c6 3 13 4 17 10h-2zM1184 390c-1-7 7-17-1-21 4 0 9 0 7 5-2 7-2 13-5 19l-1-3zM1174 371c0-4 0-7-3-8l1-2c3 2 3 0 4-3l2-8v3c2 5-1 8 0 12-3 2 1 5-4 8v-2zM1244 372c-4 0-8-5-12-2l-1-6c4-1 1-5 7-9-5 14 1 10 9 17h-3zM1223 350l1-12c1-1 3-1 4 1s-2 8-3 11h-2zM1264 251c1-7 4-11-4-13 6-3 6 2 8-2 4 2 0 4 3 5-5 3-2 9-7 13v-3zM1103 331l2-26h3l-2 26zM1096 324c-1-8-1-16 2-23 2 8-1 15 0 23h-2zM683 332c-1-3-1-7-5-7l-17-5v-2c6 0 13 2 20 4 0 0 0 0 0 0v-2h2c2 6 7 0 10 7-5 1-9-2-8 5h-2z"/>
    <path d="M660 327c-2-4-1-8-7-9v-2c2-1 5 2 5-2h2l2 5c-3 3 2 5-1 11l-1-3zM679 338l-12-3v-2c6-1 11 4 17 2l-1 2-4 1zM1159 460c-2 0-2-3-1-4 2-11 6-23 5-35l3 3c1 11-3 22-4 32-1 2 0 4-3 4zM667 224c-7 0-13-5-21-5-5-1-10-2-15-5l1-2c12 2 24 6 36 10v2h-1zM1268 298c-1-5 6-17 4-22l-6-3c-3-2-5-4-6 1l-2-1c1-3 0-5-4-7l1-2c8 5 4-12 11-16 0 15-11 18 8 25 3-7 3-15 8-21 2 8-7 19-3 26-6-1-5 19-11 22v-2zM641 459c1-13-7-24-7-37h2c4 12 5 24 10 35l-1 3-4-1zM458 176c-5-5-6-11-8-17l2-1c4 5 5 11 7 17l-1 1zM1237 407c0-4 3-7 1-11 4 0 1-6 6-8 1 6-4 8 2 13-8-3-3 5-9 8v-2zM1250 399c-1-7 4-12 4-19h2c1 7-3 13-4 19h-2zM521 495c-4-1-5-10-8-11l-4 2c-2 0-3 1-3 3-3 1-6-2-2-4 2-2 7-3 7-5-5-18-6-5-18-3-1-3 1-4 2-6 3-1 10-3 10-6l2-1c3 3 9-6 13-6 5-2 4-4 3-7l1-1c3 6 7 2 10 0 2-2-3-7-4-10-2 3-6 3-8 6-7 2-12 6-19 9l1 2-2 1c-4-1-10 3-11 7-2-3-3-3-6-1-1-5 4-3 2-7 4 1 8-1 11-3 0-3-3-3-2-9 4 6 5 9 11 4l17-9c4-2 6-4 3-8l2-1c3 5 4 5 8 2 0 9-8 0 1 15 5-1 12-10 18-8-2 5-14 8-17 12l2 4c-5-4-12-1-12 5-1-1-3-3-4-2-3 3-14 7-15 10 6 12 3 9 11 7l2 1c-11 7-1 10-1 18h-1z"/>
    <path d="M522 478h-1l-2-1c6-7 16-5 9-16 5 2 4 2 6 6 2-1 8-1 7-6l1-1 2 1c17-10 8-1 16 8-8 1-5-10-9-7-3 2-7 2-6 5-4-1-10 3-9 8h-1c-4-6-8 4-13 3zM583 499c0-5 8-2 2-14l1-1c5 4 5 10 8 16h-2c-2-6-6-2-9 1v-2zM564 512l-7-15 2-1c4 5 6 10 7 15l-2 1zM1233 454c1-7 1-14 5-20l2 1-5 20-2-1z"/>
    <path d="M1238 435c2-3 0-5-3-7l1-2c5 2 5 0 7-4 0 5-1 8 3 11-8-3-1 2-9 4l1-2zM1222 405c0-6 6-13-3-17l1-2c6 2 6 4 8-4 1-6 2-12 6-17 3 8-10 24-1 28-10-1-4 10-11 15v-3z"/>
  </g>
</svg>