<svg xmlns="http://www.w3.org/2000/svg" baseProfile="tiny" version="1.2" viewBox="0 0 2000 2000">
	<path d="M578 250l17-22c4-5 9-9 12-15 0-2 2-2 4-1 14 1 28 2 41 1 9-1 13 3 17 10 5 11 12 21 18 31 2 4 4 5 8 4l31-2 27-2c3-1 3-2 2-4l-5-14c-1-4 0-7 4-7a3155 3155 0 00182-10c6 0 11 0 15-3l2 1c3 7 12 10 18 14l54 35 3 2c3 0 3 2 2 5l-4 18c-1 4 0 4 3 4l41-2 57-5 4 1 104 61c6 4 6 4 8-3a11672 11672 0 0034-110c0-3 2-3 4-3l61 4 97 6h4c3 0 4 1 2 4s0 3 3 3c8 1 14 4 20 10 3 2 4 1 5-2l1-2c0-1 0-3 2-3l4 2c10 21 21 40 32 60 0 2 1 4 3 4l2-3 9-17c1-2 2-2 4-1l63 19c3 1 6 0 8-3l18-29 4-3 45-11c4-1 6 0 7 4a602 602 0 0025 59l5 4 21 2c6 0 11 5 14 10l30 56 25 42c5 7 1 16-9 17 0-2 2-4 0-6-1-1-1-2-3 0a5718 5718 0 01-26 33c1 2 3 2 4 1l3-5 22-23c-6 10-15 17-22 27-7 11-17 18-26 26-3 3-2 4 0 5l48 39 3 1c2 2 3 3 0 5-5 3-9 9-14 13-2 2 0 4 1 5a3707 3707 0 0057 56c2 1 2 3 2 5l2 60 2 23c0 2 0 3-3 4l-102 41-40 17c-4 1-3 3-2 5l14 33 25 54c3 8 6 16 11 23 4 6 9 11 15 16 18 17 34 35 51 53 4 4 5 8 4 14l-11 64c-1 9-3 17-3 27 0 2-2 3-5 3-2 0-3 1-3 3l-23 87-11 40c-1 3-1 6 1 9l17 27c1 2 2 4 1 6-1 3 0 4 3 5 2 0 4 0 5-3 0-3 4-3 6 0l9 11c3 5 3 6-2 8-6 2-11 2-17 5h-3v-3c0-3-4-7-6-5-4 4-9 3-13 4l-18 4c-4 0-6 1-8 5-8 17-17 32-26 48l-43 81-12 24c-1 2-4 3-7 4a707 707 0 00-60 33c-1 0-3-1-5 1l15 10c1 1 2 0 3-1 2-3 5-5 6-9 1-1 1-2 3-2l2 3 4 17c2 5 4 11 8 15 5 5 6 4 10-1 0 0 0-2 2-2l1 3 4 17 4 5 6 5h-1c-9-6-18-5-27-4l-5-1c-3-1-5-2-2-4 2-2 2-3 0-5-7-5-14-2-22-2l35 28c2 1 2 2 1 4-3 5-8 8-11 12l-97 102-55 60-22 25c-3 3-6 4-10 4l-79-2-44-1c-2 0-3-1-5-3-15-25-31-50-49-75-2-3-4-2-6 0l-6 3-112 41c-15 6-31 10-47 14-25 5-49 4-73-4l-40-13-52-17-11-4c-3-1-4-1-5 2l-15 38c0 3 0 4 3 5s4 4 2 7l-1 3c-1 3-2 4-5 1-1-2-4-4-5 1-1 8-6 15-8 23l-3 8c-1 3-2 5 2 6 2 1 1 2 1 3l-3 7-2 1c-4-2-4 1-5 4-2 4-5 8-6 13 0 2-2 3-4 2l-75-32c-3-1-5-3-6 2l-5 13c-1 3-2 4-5 2-9-5-20-7-29-12-3-1-5-1-6 3 0 4-2 2-4 1-4-5-8-9-13-12-9-7-19-10-28-14-3-1-6 2-8-2-1-3 3-3 4-6v-1c4-15 4-12-8-17l-57-24c-4-1-5-3-3-7l6-13c1-1 2-3 0-4 6 1 11 4 16 6 2 1 4 1 5 3l-13-5c-2-2-5-2-6 2l-6 11c-1 3 0 4 2 5l5 3 41 16c36 16 74 30 111 45l80 33c3 1 4 1 5-2l3-10c3-7 3-8-4-10-12-3-23-9-35-14-6-2-13-4-18-8l37 14 25 11c4 1 5 0 6-3 1-4-2-3-4-3l-1-1-53-22-102-41-14-5h5l71 28 90 37 4-1 4-10c3-8 7-16 8-24 1-3 1-3-1-4l-20-9 27 9c2 1 4 3 5 0 0-3 1-5-2-6l-28-12c-9-4-18-7-27-13l48 20c3 1 5 1 6-2 4-11 9-22 12-34 1-4 2-6-4-9-9-6-20-10-29-15l-28-13c11 3 22 10 33 14l-9-10-5-5-32-14c-3-2-6-2-9-5l25 10 15 7c0-3-3-4-2-7 8 9 18 13 29 18l25 11 37 11 33 10 33 8c19 6 39 7 58 5 21-3 40-8 59-16l18-7 63-22 39-16c2-1 3-1 2-4l-8-21c-4-8-4-8-13-3-2 1-2 2-2 4 2 5 6 8 7 14 0 3 0 4-4 5l-14 5c-2 1-3 1-4-2 0-2 1-5-3-4 0 1-1 0 0 0 3-4-1-6-1-9-1-2-2-4-5-2-2 2-7 0-5 6 1 5 5 8 5 14 0 1 1 3-1 3l-13 5c-2 1-3 1-3-1l-4-10c0-2 0-6-4-7 1-3-2-2-3-2 0-2 3-2 2-5l-7-14c-1-3-3-2-5-2-3 1-2 3-1 5l7 15c2 3 4 5 7 3l-8 4c-1 1-5 1-4 4s1 8 7 8c-3 1-3 3-2 6l-1 3-17 6c-2 0-4 1-4-2-1-3-3-4-7-3 6-2 4-5 2-9 0-1-1-3-3-1-3 1-8 0-8 4 0 3 0 8 6 8-3 1-4 2-2 4 1 2 0 3-2 4l-10 3c-7 3-8 3-9-5-2-10-2-10-11-7 2-2 3-3 2-6l-5-12-2-2c-2 0-1 2-1 3l6 17c2 3 0 9 7 10-3 2-3 2-1 5 1 2 0 3-2 4l-16 4c-5 1-9 4-12-2h-2c3-3 3-5 1-11-1-3-1-4-5-4-11 3-22 6-34 5-2-1-3 0-3 3s0 5 5 6c-3 1-5 1-4 4 0 3-2 3-4 3l-13-3c-2 0-3-1-3-3 0-5 1-10-1-15v-9c2-4 1-8 0-13 0-1 0-2-2-2l-1 2v22c-2 1-6-4-7 0 0 3-2 8 4 10-3 1-5 1-5 4 1 2-2 2-3 1-5-3-10-2-15-5-2 0-6 1-4-4 1-2-3-4-1-7 2-1 1-5 1-7 0-1-10-4-11-3l-1 1c1 2 0 5 2 7 1 2-2 6-3 8h-1c-2-3-5-3-7-3-5-1-8-5-6-10 2-8 2-8-7-10h-1c-1 0-3-3-4 0-1 2-1 5 1 7l2 1c0 2-3-1-3 2 1 7-3 3-6 3l-4-2c-4-2-10-1-8-8 1-2-2-1-2-3 4 1 3-2 3-5 1-5-5-2-7-5l-4 1c-1 3-3 7 2 10-2 0-4 0-3 3 0 2-1 3-3 2-4-2-9-2-13-3-3 0-2-1-3-3-1-5 1-9 1-14 0-1 0-3-2-4-5-4-11-4-17-6-1-1-2-1-2 2-1 6-3 13-3 20 0 2 0 4-2 4s-1-3-1-4l5-31c1-4 0-6-4-8l-44-19c-1-1-3-1-3-3l52 22 1-1c-12-8-22-18-30-29-1-1-2-2-1-3 1-2 2 0 3 0l26 12c4 2 5 1 5-3l2-9c0-2 0-4-3-5-12-7-25-12-37-17l-53-22-55-24c-4-2-6-1-8 3l-10 18c-2 3-2 4 2 6l16 7c-7-1-12-4-18-6-2-1-4-1-5 1-1 3 2 3 3 3 6 4 13 5 19 9-7-1-13-5-20-7-2-1-4-1-5 1l-17 30c-2 2-2 3 1 4l31 13c11 5 24 9 35 16-8-2-16-6-24-10l-42-18c-4-1-5 1-7 4-1 3 2 3 3 4l35 15 38 16c-4 0-7-2-10-3l-62-27c-4-1-7 0-9 3l-11 21c-1 2-3 4-6 3-6 0-12 5-14 11l2 4c-2-1-5-1-7-3s-4-2-5 1c-1 2-2 3 1 4l7 5c-3-1-3 1-4 3l-19 35c-1 2-1 3 1 4 4 2 7 2 10 5l-4-1-15-6c-2-1-3-1-4 1s0 3 1 4l2 2c-2-1-5 2-6-1-2-3 1-5 2-7 1-3 3-3 6-1 2 2 3 3 5 0l18-36c2-3 1-5-2-6-2-1-4-1-2-3 1-2 1-8 6-6 4 2 5 0 7-4s2-5-3-4c-4 0-9 0-13-2-2-1-2 0-3 1l-3 5c-1 3-4 4-7 5l-26 2c-3 0-5-1-5-4l-9-29c-1-2-1-5 1-7 3-3 2-5-1-6l-52-30-18-10c-3-2-4-2-6 1l-12 19c-1 3-3 4-6 4-7 0-15 0-23 2-3 0-4-2-5-5l-10-30-5-13c0-5-11-9-14-6-2 1-3 2-5 1s-10 6-9 9c0 3-1 3-3 4h-7l-49-10-12-2c-5 1-11 3-15 6l-7 4-1-1 10-9c4-3 6-6 6-12l-2-60c0-3 0-5 3-6 7-2 13-7 18-11 2-1 4-2 2-4s-3 0-4 1l-23 17c-2 1-5 2-5 5-1 2-3 1-4 1l-5-4-46-43-4-7-1-23c0-3 0-6-3-7-2-1-1-3-1-4l-1-17c0-4-1-5-5-3l-54 25c-5 3-11 6-16 7-10 2-17 8-25 13-3 1-5 2-7-1h-3l-41 19-9 5c-1 1-2 2-3 0a3001 3001 0 0129-17l20-10c3-1 4-2 3-5s1-5 4-6l17-8 3-2c0-11 4-20 6-29v-2l-21 10c-2 0-3 2-4 1-4-4-6-2-10-1l-50 25-2-1c0-2 2-2 4-3 17-9 33-19 51-26l3-3c1-5 5-7 9-8l20-7c4-2 7-3 10-7 1-3 5-5 8-6 4-1 3-3 2-6l-16-38-12-30c-2-5-2-9-2-13l5-59c1-3 2-4 5-5l35-8c2-1 3-2 3-5l-7-34v-5l22-53c1-2 2-3 5-3l35-1c3-1 5-2 4-5l-17-72c-3-11-9-22-10-35-2-13-5-25-4-39 1-5 0-6-5-6-4 0-7 0-9 4l1 5v2h-3l-43-23-35-18c-5-2-10-1-16-1-2 0-5 0-7-2 3-2 5-1 8-1 11 1 20-3 30-8l47-25 11-6c3-1 5-1 6 2s4 4 7 4l14-1-21-15-4-3c-6-6-14-8-22-8l-2-1c4-2 8-1 12-2l-26-1c-4 0-6-2-8-5l-17-48-14-38-4-12c-2-4 1-9 2-13l6-34c1-5 3-10 6-14l58-64 20-23c2-2 3-1 5 0l55 22c5 2 6 1 8-2l34-48 28-41 13-21c3-5 6-5 10-5v-2c-12-6-15-19-21-30-3-6-4-13-11-17l-1-2h2l2 1c6 6 13 5 21 5 3 0 6-1 8-4 1-2 3-2 6-2 5 1 10 3 16 2l6 3c4 3 9 7 15 6 3 0 6-1 7-3l7-9c3-6 9-8 15-8l20-3 3 1c1 1 0 2-1 3-6 6-7 7 3 12l5 3c1 0 2 1 3-1 2-5 7-7 11-11 1-1 3-1 2-2l-3-2c-1-1-2 1-2 2-1 1-1 2-3 2l-1-3-8-19-4-7c-2-2-5-3-6 1l-3 1-2-2c0-8-3-15-4-22 0-5-4-7-6-10-1-1-2-1-2-3l8 6c2 2 5 3 8 3h19c1 0 3-1 4 1l-1 4c-1 1-5 2-4 5 2 2 5 3 7 3l16 2-18-21-11-11v-4l28-40c2-3 5-4 7-8 1-1 3 1 4 2l7 10c2 2 3 3 5 2a6163 6163 0 0042 53l13 15c-3-7-4-15-6-22 2 2 4 4 4 7 3 11 6 21 17 25l2 3c-2 6 2 10 5 13l20 24c3 3 5 8 11 9v1c-1 4 2 6 4 8 6 5 10 11 15 17 14 17 28 35 44 51a518 518 0 0154-26c3-2 3-3 2-6l-35-53-6-10 2 1 37 57c5 8 5 8 14 4l3-1c3-1 4-2 2-5l2 1c1 2 3 2 4 0 2-1 0-2-1-3l-7-11 9 11c2 3 4 2 6 1 3-2 0-3-1-4l-24-41-34-56-17-30c2-1 3 0 3 2l7 12 64 107c6 8 6 8 16 5 2-1 3-2 2-5l-9-31a49332 49332 0 00-50-151c0-1 0-3-3-3l-59 4c-4 0-4 1-2 4l22 37c4 6 9 11 9 19l-1-2-22-36-34-56c-6-9-11-12-20-11h-16l-18-2c-4-1-4 1-3 4l34 49 26 39c8 12 15 24 24 35l25 38c1 1 2 3 1 4l-9-13-27-40-37-55-37-54c-3-5-3-5-7 0l-21 25c-2 2-3 4-5 4zm284 1351l-6-4c0 3 0 6 3 7v-4c2 4 2 8 7 10l-4-9c3 2 4 5 5 8l5 8-5-14c0-1-2-2-5-2zm260-1187l8 2h1v-2c-5-2-10-5-16-6 2 4 5 4 7 6-3 1-4-2-8-1l16 6c-2-3-6-3-8-5zm-5-15l14 5c1 1 2 2 3 0l-2-2-12-5c-2-1-2 1-3 2 0 3 0 4 3 5l9 4c1 0 3 2 4 0 1-1-2-2-3-2-4-3-9-3-13-7zM938 1660c3 2 4 1 4-2v-7c0-1 1-3-1-3-3 0-3 2-3 3v9c-2 2-1 5-1 7-1 2 1 3 3 3s2-2 2-3c1-4-2-5-4-7zm477-278c-1 1-3-2-4 0 0 2 2 2 3 3l3 2-6-2h-2v2l10 7c2 1 4 0 4-3h4c0 2 1 2 2 3-2 1-4-3-5 1-2 2 1 3 3 4l18 12c3 3 6 3 8-1l-4-3h1c4 2 3 1 7 0 2-1 1-3 3-3 1 1 2 2 3 0s-1-2-2-3l-3-2 5 2c1 0 3 3 4 0 2-2-2-2-2-4l4 1c1 0 4 2 3-2-1-1 0-1 1-1 2 1 3 0 5-1 3-3 5-4 7-4l-1 1c-4 2-2 4 1 5l7 4c-4 0-7-2-10-4-4-2-6 1-8 2-2 3 2 3 3 4l5 3c-3 0-6-2-9-4-3-1-6 2-7 4-2 2 1 3 3 4l11 7-16-8c-3-2-4 0-5 2-2 2 0 2 1 4l6 3c-4 0-6-2-9-4-2-1-3-1-4 1-2 2 0 2 1 3l15 10c3 2 5 1 7-1 2-3-3-3-3-4h2c4 2 6 1 8-1 2-4-3-3-3-5 3-1 5 5 9 2-2 4 3 3 4 6l-5-3c-3-1-7 1-6 5h-4l-3 3c-1 2 1 3 2 3 5 5 10 8 16 3l-3 3v3l11 7c3 1 5-3 7-4h2c-1 3-6 3-5 6s5 4 8 6l2 1c4 2 6-2 9-4 2-1-2-2-1-4 4 3 7 1 10-2l-5-4c5 4 10 2 14-2l3-2c6-4 6-4 0-9l5 2c4 2 7 0 9-4 4 0 6-3 8-5l-3-2 4 1c2 1 4-1 6-3 1-2-2-2-3-3l-8-4c-3-2-5-3-8 0 2-3 1-4-2-5l-5-4c9 3 17 8 25 13 3 1 5 1 7-2l5-9c3-6 3-6-3-10 4 3 6 3 9-2l20-37v-4c2 0 3-2 4-4l10-19c2-4 3-6-2-8 4 2 7 0 8-4l4-7 20-39c1-2 2-4 1-6 2 1 4 1 6-2l15-30 11-21 1-3h-3c-3 0-3 2-4 3l-7 13c1-5 3-9 6-14 2-2 2-4-2-4-5-1-10-1-14-3-2-1-3 1-4 2l-7 13 5-12c1-2 1-4-2-4-8-2-8-2-12 5 0 1 0 2-2 2l3-5c0-1 2-3 0-4-1-1-4-2-5 0s-2 2-2 0c1-2-1-2-2-2l-46-8c-3-1-5-1-5 3 1 8-1 14-5 21-5 9-13 13-23 10l-14-5 2-3c1 5 5 4 8 5 9 4 18 2 23-5 4-6 7-13 8-21 0-7 1-7-6-8l-10-2c-4 0-6 1-7 3 0-3-1-4-4-5l-12-2c-4-1-5 0-7 4a542 542 0 01-92 157c-3 3-2 5 1 7l10 5c9 4 9 4 15-2 5 7 19 11 28 5s13-16 12-27c0-4-2-7-5-8l-6-3c-8-4-8-4-13 3 2-5 4-11 8-15-2 6-2 6 5 9l5 3c6 2 8 6 8 11v9c-2 11-12 23-25 23-6 0-10-3-15-5-1 0-3-1-4 1s1 3 2 4l23 12c6 3 6 3 9-3 5-8 8-17 14-25 0 4-4 8-5 12-1 1-2 3 0 4l13 5 13 7c-6-1-12-5-18-7-12-6-12-5-17 7-1 3 0 5 3 6l10 5 29 16c-4-1-8-3-11 2l4 3c-3 0-5-2-8-1v-3c4 1 5-2 7-4l-10-5c-2-2-5-2-7-1 1-1 2-2 0-3l-18-10c-2-1-4 0-6 2-1 1 0 2 1 3h-4c-2 0-4 1-5 3 0 2 2 2 4 3l7 4c-4 0-6-3-10-4-2-1-3-2-6-1 1-2-1-2-2-4 3 1 6 3 7-1l2-1c1 0 5 0 3-4 1 0 3 1 4-1 0-1-1-2-3-2l-24-13c-2-1-4-2-6-1 0-1 1-2-1-3l-21-11-3 1 2 2 14 7c3 2 5 5 9 4l1 2-5 1c0-1 2-2 0-3l-21-10c-1-1-2-1-3 1s1 2 2 2l4 3-6-2h-3c-1 2 1 2 1 2l9 6-7-3c-2-1-4-4-6-2-1 2 3 2 4 4-2 1-4-2-7-1l5 4-3-1c-2 0-3-2-4 0-2 2 1 3 1 4-2 0-4-2-5 0-1 3 2 3 3 4l-3-1-4 1c0 2 1 2 2 2l4 4-5-3c-1-1-3-2-4 0s1 2 2 3h-4l1 2zm-366 345l3 7 2 2 1-2-3-11c0-2-2-2-3-2-2 1-1 2 0 4-1-1-2-4-4-3s-1 3-1 4c-2-4-8-6-11-4-6-4-13-3-19-5l-1 2-1-2c-5-3-10-2-15-4l-1 2-2-3c-2 0-4-1-3 2-1-3-4-2-7-3l-27-10c-2 0-3 0-3 2-1-2-3-3-6-4-8-2-16-3-24-7h-6l-7-4-12-4c-6-3-12-4-18-9l1 6c-2-2-1-7-6-7l3 7c1 1 2 3 3 0 2 3 4 5 7 6l1-2c4 8 13 7 19 12 2-2 0-3 0-5l3 5c6 3 0-3 3-3l2 4c1 1 3 3 4 0 2 3 6 3 9 5h6c2 4 7 1 8 5l2-1 1-1c2 6 7 1 10 5l-3-6c3 1 3 5 5 7 2 1 3 2 3-2 2 3 3 5 6 5 3-1 4 2 6 3 4 0 3-2 3-3 2 2 2 5 6 5 1-1-2-3 0-4 2 1 1 6 4 5 1 0 2-2 2 0 1 1 2 3 3 2 2-1 1-3 1-4l2 5c1 1 2 2 3 1 2-1 1-2 0-3l-1-5 5 8c0 1 1 2 3 2l1-3c1 2 1 5 4 5 3-1-1-4 1-5 2 2 1 6 6 7l-1-6 2 5c1 1 2 3 4 2 2 0-1-2 1-3 1 2 1 6 5 5 2-1-1-3 1-4l1 3 3 2c2-1 1-3 1-4l-2-6 3 6c1 2 0 5 4 4 3 0-1-3 1-4l1 2c0 2 2 3 4 2 2 0 0-2 0-4l-1-5 4 8 2 2v-3l-1-6zm-161-112c-3-2-3-8-8-7-1 2 2 3 1 5l-2-3c-1-3-3-4-6-5l1 4c-2 0-2-3-5-6 2 7 4 13 9 18 0-5-3-8-4-12l5 7c1 2 1 5 3 7l3 1v-3l-4-8c4 3 5 9 9 13l-2-11c3 2 2 6 4 9 1 1 1 3 2 2 2 0 1-2 0-3l-3-9c-1-2-1-3-4-3 0 1 2 2 1 4zm35 12c2 2 3 5 3 7 1 3 3 4 5 3s0-3-1-4l-5-9c-1-1-1-5-4-3-1 1 1 3 2 5-3-1-3-4-4-6l-3-1v2l5 13c1 1 2 2 3 1 2-1 1-2 0-3l-1-5zm201 43v-5l-3-1-1 3c0 2 1 3 4 3-2 2-1 9 1 10 1 1 2 0 4-1l2-1c0-4-4-8-7-8zm-7 2c3-2 2-4 0-6-1-1-3 0-3 1-1 3 0 5 3 5-2 1-4 2-2 6 1 1 0 5 3 5 2-1 6-1 5-3-1-3 0-8-6-8zm-176-42l5 9 4 3c2-1 1-2 0-4 3 1 4 7 8 5l-5-12c4 2 4 6 6 10 2 2 3 5 8 4l-6-13c-2-3-6-3-8-1l-1-1c-1-3-4-2-5-3-2 0-2 1-1 2-2-1-3-4-6-3l1 4-4-5c-1-1-2-2-3-1s0 2 1 2l2 7-4-8c-2-2-4-4-8-3 5 6 6 13 12 18v-7l2 4c1 2 3 3 5 3 0-4-3-6-3-10zm298-42c0 3-4 6-4 10 6-6 10-13 14-19-6-1-6 4-9 6l1-3c-1-1-3 0-4 1-6 4-5 11-8 17 5-3 6-8 10-12zM480 354c-1-1-1-2-3-1l3 13c6-4 2-8 0-11 6 6 7 6 11 1v-3l-15-5 4 6zm680 1303c0-7-4-12-6-18l-2-1-1 2c3 6 4 12 9 17-4 2-8 5-4 10 1 1 1 3 3 2s5 0 5-2c0-4 0-8-4-10zm59-26c-2 3-1 10 1 12h2c2 0 4 0 4-3-1-4-4-8-7-8 1-2 3-2 2-4l-5-11h-3c-2 0-3 1-2 3l4 9c1 2 2 3 4 2zm-75 32c1-6-3-9-6-13 3 4 2 10 6 13-1 3 2 10 4 9 2 0 6 0 7-3 0-3 0-7-5-8 0-6-5-12-7-17-1-3-2-1-3-1-2 0-2 1-1 3l6 12c1 2 2 4 5 3l-6 2zm41-32l-4-7c-1-2-1-2-3-2-2 1-3 2-2 4l4 10c1 2 2 2 4 2 5-2 0-5 1-7 2 0 1 2 2 3 1 2 4 3 5 2 2-1 0-3 0-4l-4-10c-1-2-2-3-4-2s-2 2-1 4 3 4 2 7zM519 370c9 1 16 6 23 11l-7-8c-7-8-7-8-16-2-5 6-5 6 2 10l1 1c2 2 4 1 6-1l-2 4c2 5 2 10 7 14 19 12 37 26 55 39 9 6 9 6 15-3 3-3 2-5-1-7l-60-44c-4-2-8-9-14-3 2-1 1-2-1-4l-8-7zm716 1298c0-3 1-4-3-3-3 1-4 4-5 7 1-3 0-5-3-3-7 2-13 4-13 13 1 0 0 0 0 0l1-8-8 2c-2 1-3 4-4 3-3-2-4 1-7 1l-2 1-8 3-9 3-6 2c-5 0-11 1-11 9 0-2 1-4-1-5-3 0-3 2-3 5-1 2 0 5-2 7v-6c2-4 0-5-4-3l-18 8c-10 4-20 8-30 10-5 0-6 3-7 6v-4c-2-1-3 0-4 1l-2 2c0-3-1-2-3-2-5 1-11 3-17 3h-3l-2 2 1 11 1 2c2 0 2-1 2-2l2-10v7c0 3 0 3 3 3h1c7 2 9 1 12-6l1-4-1 6c0 1-1 2 1 3 1 0 3 0 3-2l2-5c0 2-1 5 1 6 3 0 4-2 4-5l2-6c1 3-3 7 1 9 3 1 5-2 5-6l2 4c3-3 10 0 10-7 1 1 0 3 2 3 3 0 2-4 4-5-1 4 1 4 3 2 3-3 6-3 9-4s5-1 5-4l2-7-1 7c0 2 0 3 2 2 4-2 11-2 11-9v5c3 0 4-2 4-4 1-3 0-6 2-8l-1 6c0 1-1 3 1 4l4-2c0-2 1-1 2 0l3-1c1-1 0-4 4-2 2 2 3-2 3-5 2 1 0 3 2 3 2 1 3 0 3-2l2-4c1 1-3 4 0 5 3 0 5-2 6-6-1 5 2 4 3 3 3-3 6-2 9-3 6-2 13-4 13-12v7c5-1 5-1 7-7 1 1-2 4 1 4 2 0 4-1 4-4l3-9-1 7c0 1-1 3 1 3 1 1 2 0 3-1 1-3 1-6 3-8 0 3-2 5-1 7 5 1 4-4 6-6v4c1 1 2-1 4-1 6-2 9-8 14-11 5-4 7-10 9-16l-5 3c0 1 0 3-2 2-3-1-3 0-4 2l-4 7h-1l3-7c-6 0-7 4-10 7 0-1 2-2 0-4-3 1-5 3-6 7zm-245 8c-2 1-3 0-3-3v-13c-2 7-2 15-2 22 0 4 5 2 6 4 1 1 2 0 2-1 2-3 1-7-3-9 1 0 3 1 3-1l1-13-3-2-2 2c0 5-2 10 1 14zm-782-508c2-3 6-3 10-4 2 0 2-2 1-4 0-2-1-3-3-2-4 2-9 2-13 3s-4 4-3 6c0 4 3 1 4 1h4l-6 2c-3 0-3 3-3 6 1 3 3 1 4 0l15-4c2-1 4-1 3-4-1-4-4-2-5-2-3 1-5 3-8 2zm866 512c-4-6-4-12-6-18 0-3-1-3-4-3-2 1-2 2-2 4 2 6 3 12 6 17 0 2 1 3 3 3s3-1 3-3l2 1-4-16v5c0 4 3 6 2 10zm9 1l-4-15c0-2-1-3-2-3-2 1-2 2-2 3l2 10c0 4 2 6 6 5 0 2-4 0-4 4 0 8 3 11 11 7l2-2c0-7-3-9-9-9zM303 720c2 2 12 5 14 4l1-1c3-3 2-5-2-6-10-2-10-2-13 3 1-3 0-6-5-6-1 0-2 0-3-2l6 1c2 1 3 0 3-2s0-3-2-3l-7-1 5-1 19 3c1 0 4 1 4-1s-2-2-3-2l-19-3 14 1 8 1 2-2-2-1-7-1h5c3 0 5 1 5-2s-2-3-4-3c-4-2-8 0-11-3h-1 5l10 2c2 0 3-1 3-3l-3-1-5-2c2-1 4 0 6 1s3-1 3-3c1-3-1-3-3-4l-28-6c-7-2-7-2-8 5 0 3 0 8-5 6 2 0 3-1 3-3-1-4-5-2-6-4h2c2 1 4 2 5-2 1-3 0-5-4-5l-13-3c-3-1-4 0-4 3s0 7-3 10l2-11c0-2 0-4-3-4l-13-3c-5-1-6 0-6 5 0 3 0 7-3 10l2-12c1-3 0-5-3-5l-13-3c-3-1-4 0-5 3 0 3 1 7-2 10-1-4 1-7 1-10 1-3 0-4-2-5l-17-4c-3-1-4 0-4 3-1 4 1 8-4 12l3-12c1-2 0-4-3-4l-11-3c-2 0-4-1-4 1 1 5-3 7-3 11-1 5-4 6-8 4 2 0 5 1 6-2l2-12c1-2 0-4-3-4l-13-3h-4c-2 3-1 8 2 11-4-1-5 2-5 4-1 4 2 3 4 4l6 2-7-2c-2 0-4-1-4 2-1 3 0 4 3 5 2 0 5 0 8 2l-6-1c-2 0-6-2-6 2-1 4 3 2 5 4-2 1-6-2-7 2 0 4 3 3 5 4h-2c-2 0-4 0-4 3s2 3 4 3c4 1 9 1 13 3l-14-1c-1 0-3-2-3 1-1 2 1 3 3 3l12 1c1 1 3 3 4 0 1-2 0-3-2-4 3 1 3-2 4-4 1-1-2-3 1-3 3 1 0 2 0 3-1 3 0 4 4 5l12 2 4-1c1-2 1-4-2-6l10 2c-3 0-7-1-7 3 1 3-2 5-1 8 1 2 2 2 3 2l16 3c3 1 5 0 6-4-2 5 1 5 4 5l12 2c4 2 6 0 5-4l3-9-2 10c0 3 0 5 3 5l15 2c3 1 4-1 4-3 1-4 0-7 3-10l-2 10c0 3 1 4 4 4l13 2c3 1 4 0 5-3 1-4-2-3-4-4-3-1-6 1-9-2l10 1c1 0 3 1 4-1 0-2 0-4-2-5 2 0 5-1 3 2-2 5 2 5 5 7l-2-1c-5-1-4 3-4 5-2 3 1 2 3 3l11 2c2 0 4 0 5-2zm184 491c1-1 3-2 2-4-2-6-5-4-8-2 0-2 1-2 3-3 2 0 2-1 1-3l-7-18c-1-2-2-2-4-2 2-1 3-2 2-5l-2-5c-1-5-3-6-8-3 1-3 7-2 4-7l-3-9c0-2-1-3-4-2l-21 6-2 2c-2-1-4 0-6 1l-15 4-7 3c-8 1-8 1-5 8 1 1 2 2 1 5l-4-9c0-1-1-2-3-1l-18 5c-2 1-3 2-1 4l4 11c-3-3-4-6-5-9-1-5-4-4-7-3l-21 7-43 13c-4 1-5 3-3 6 1 4 4 7 4 12l-6-13c-1-2-3-3-5-2l-14 4c-3 1-6 2-4 4-8-4-14 3-21 4-3 0-2 3-2 5l-1-1c-3-5-7-1-9 0-4 1-1 3-1 5 1 3 4 6 4 9-2-1-3-4-3-6-5-10-3-7-12-5-2 0-3 0-3 2s-1 2-3 1c-4-2-8 1-8 6-1-4-3-4-6-3l-13 4c-7 3-7 3-4 10l-1 3-1-5c-2-4-4-5-9-3l-12 4c-3 0-4 1-2 4l7 18c1 4 2 4 6 3s8-4 14-4l-8 3-7 2c-2 1-3 2-2 5l4 11c3 7 3 7 10 5h2l-3 2c-5 1-5 3-3 8l11 26c1 4 3 4 7 3l25-12c-2 3-4 5-6 5l-20 8-3 2c0 5 4 7 5 11 2 2 4-1 5 0-3 2-2 4 0 6 3 3 7 3 10 2 8-4 16-9 25-12l2-2c0-2-7-7-9-6l-18 8c5-5 10-7 16-9 3-1 3-2 2-5-3-5-5-10-6-16-1-2-1-4-4-3 3-6-3-9-3-14 4 0 7-2 11-4 5-4 8-3 11 3l4 9c1 7 2 7 8 4l2-1v1c0 1 0 2-2 2s-5 0-4 4c3 6 7 12 13 16h3c1-2 0-2-2-2 3-2 5 2 8 0l21-11c4-1 9-2 4-8v-1c3 6 3 6 9 3l23-11c3-1 3-2 1-5 3 4 6 2 9 1 4-2 6-5 11-6s9-4 14-7c1 0 3-1 3-3l6-1 29-14 52-25c2-1 4-1 5-4 6 0 11-5 16-7 2 0 4-1 3-4-1-2-2-4-5-3zM365 611l9 4c5 2 6-2 7-5 2-3-2-2-3-4h-2c-9-4-9-4-15 2l2-3c2-3 2-4-2-6-3 0-5-2-8-3-4-2-6-1-8 3l-5 5 5-7c2-3 1-4-1-5l-12-5c-3-1-5-1-7 2-1 3-2 6-6 8l6-9c1-1 2-3-1-3l-5-2c-7-5-10-5-16 2h-1c1-3 4-4 5-8l-6-2c-5-2-9-7-14 1 4-5 1-7-3-8-7-3-14-8-19 2 0-3 4-5 3-8s-5-2-8-3c-3-2-5-2-8 1-4 4-6 9-12 12l11-14 1-2-11-5c-2 0-3 2-5 4l-21 23-2 5c-6 3-9 10-14 14-3 2-1 3 2 5-5-1-13 4-13 8 0 2-1 2-2 2-3 1-5 4-7 7-1 2 4 1 4 3-5-2-8 1-10 4l-8 9c-2 2-6 5-5 8 1 2 5 2 8 3 4 0 8 3 11 0 0 2 3 2 4 3l9 2c4 2 7 1 10-2 1 1-4 4 1 4 7 1 15 6 23 3 0 6 5 4 7 4l18 5 34 7c3 1 6 1 9-2-4 3-2 4 1 4l29 7c6 1 8-1 11-5l4-6c2-2 4-3 4-6 0-2-4 0-6-4 6 4 10 2 12-4l2-1c1-2 2-4-2-5-2-1-5-1-6-4 10 4 10 4 17-5l1-2c3-3 3-5-1-8l2 1c3 1 8-3 9-7 0-3-3-2-5-3l-3-2 8 2c3 1 4-2 5-3 1-3-2-3-3-4-3-1-6-1-8-4zm125 886c0 2-2 3-4 5v2h2l5-4-1 1c0 2-4 3-1 5 2 3 4 0 5-1l20-20c2-1 3-3 0-5 6 5 8 1 11-2l38-37 45-44c6-7 6-7-1-14-2-2-3-2-6 0l-22 20 2-3 20-19c1-1 2-1 1-3l-8-8c-1-2-2 0-3 1l-10 9 7-8c4-3 4-6 0-9s-5 2-7 3c5-5 3-9-2-13l-1-1c-1-3-3-2-6 0l-46 40-81 69-33 29-16 13c-2 2-3 4 1 5l9 5c3 1 5 1 8-1l28-25c2-2 4-4 6-4l-1 2-33 29c-5 5-5 5 1 8l7 3h4c1-3 4-3 6-5-2 3-1 4 1 5l5 2c3 2 5 2 7-1l31-28 96-91 6-3v1l-69 64c-4 4-4 4 0 8l-5 4-16 16 1-2 15-15c1-1 2-3 1-4-2-2-3 0-4 1l-21 20c-1 1-4 2-2 4 1 1 4 3 6 0 1-2 2-4 4-4zm-58-43c-6 7-14 11-21 18 2 1 3-1 5-2 3-2 6-6 11-8l-10 9c-1 1-4 1-2 3s4 3 6 1l21-18c1-1 4-1 2-4h-5c-4 3-7 8-12 9 3-5 9-7 12-11-2-2-3 0-4 1 2-2 1-3 0-4h-4l-24 18c-1 1-3 1-2 3 1 1 3 2 4 1l4-3 19-13zm74-1093c-3 0-11 6-11 9l1 1-2 2a688 688 0 009 17l2-2c1-4 1-9-3-12 4 2 7 1 10-2l2-2c2-2 2-3 0-4-3-2-6-4-7-7l8 6c1 0 2 2 3 1 3-2 7-3 10-7l-21-1-1 1zm-87 1091c1-3 4-4 7-6s5-5 2-9c3 7 8 11 14 14l6 3-25 21c-1 0-4 1-2 3s3 0 4-1l25-22 65-55 55-47c6-6 6-5 1-12l-4-4c-1-2-2-2-4-1l-32 21-50 33-53 35c-2 1-2 3-2 5-1-2-3-2-5 0l-23 15c-1 1-2 1-1 3 0 2 1 2 3 2 0 1-2 2-1 4 2 1 3-1 4-2 2-1 3-3 6-3l-7 6c-2 2-1 5 0 6 2 2 3 0 4-1l3-2c0 3-5 4-5 7 6-2 25-16 26-20l-11 7zm-11 83l-43-21-2-2-10-27-11-30c0-1-1-3-3-2v2l23 59 3 3 40 18c1 1 2 2 3 0 1-4 5-4 7-7 1-1 4-2 2-4s-4-1-6 0l-2 2c-5 4-5 4-1 9zm614 31l-1-7c0-4-3-3-6-3-2-1-3 0-3 3l2 35c1 5 5 3 7 3 3 1 2-2 2-3 0-10-2-19-1-28l1 8 1 21c1 3 2 4 5 4 4 0 3-3 3-5l-3-34c0-3-2-3-5-3s-1 2-1 3l-1 6zm-681-130c3 4 7 3 10 0l2-2c2-1 3-3 1-5-3-2-1-4 1-5l10-6c4-2 1-5 0-7-1-3-2-1-4 0l-19 12c-2 2-6 3-7 5 0 3 4 4 6 7v1h-1c-4-5-8-7-14-3l4-4 30-20c2 0 4-1 2-4-3-4 0-6 4-8l5-2 69-35c6-3 6-3 1-8-2-3-6-5-6-9 4 3 7 6 9 10 3 3 4 3 7 2l50-26 40-20c3-2 4-3 2-5l-9-12c-1-2-2-3-4-1l-15 9-62 38c-4 2-5 2-8-1-6-8-6-8-14-4l-2-1 5-2c3-2 4-3 1-6l-8-10c-2-2-3-3-7-2l-47 24-76 41c-9 4-16 7-25 2l-2-1a894 894 0 01-1 24c0 4 2 5 5 3l22-12 83-44 48-24c1-1 3-3 6-2 0 2-1 2-2 2l-73 38c-28 14-55 30-82 43-3 2-4 3-1 6 13 13 28 24 40 38 7 8 8 7 16 1 2-2 2-3 0-4l-17-18-12-11 1-1 19 18-2-6-9-14c-1 0-2-1-1-2 2-1 2 1 2 2l10 15c1 2 2 3 4 3-4 2-3 4 0 7l5 4c2 4 4 3 8 1 4-3 6-5 2-9zm-27-666c-2-3-11-5-15-3h-1c-5-2-11-3-16-2-3 0-2 2-2 4 0 1 0 3 3 2l12 2h-6v1l1 1c3 4 8 3 13 4l22 2c1 0 4 1 3-2 0-2 1-4-3-4-7 1-14-1-22-1l-3-1h12c2 0 3-1 2-3 1 6 6 3 10 4 2 0 3 0 3-3 0-2-1-3-3-3l-8-1c-2 0-2 1-2 3zm1369 514c-1 6-6 10-7 16l-2 1c-6-5-13-6-20-9-3-1-2-2-1-4l10-17c6 2 13 6 20 7-6-4-13-5-19-9l10 3c4 1 8 5 11 4 4-2 5-7 7-11l21-47c1-3 0-4-3-5l-14-3c-3 0-4 0-6 3a4131 4131 0 01-41 75c-4 6-4 6 2 9-5-2-7 0-9 4l-23 43c-4 8-4 8 3 12l-5-1c-2-1-4 0-5 2l-20 38c-2 3 0 5 3 6-4-1-6 0-8 4l-4 9c-2 3-2 7 3 9l16 8c3 2 5 1 7-2l6-12c3-3 2-4-1-6l-2-2c7 3 7 3 10-4l20-34c2-3 2-5-2-6-2-1-4-1-5-4l7 3c2 1 3 1 4-1 4-8 10-16 13-24 1-4 3-6 5-8l11-19c1-3 0-4-2-5-4-2-8-3-10-6l11 5c2 0 4 0 5-2l7-15c1-2 3-3 2-5h-5c1-2 0-3-2-4l-15-6c-2-1-3-1-4 1l-6 12c-1 2-1 4 1 5l13 5c3 1 5 0 7-3 1-4 3-7 6-10zM492 676c4-1 5-4 5-7 1-2-3-2-4-3l-1-2 6 2c1 1 2 0 2-1 1-2 0-2-1-3l-5-2c-3-1-6-1-8-4l14 5c2 1 3 0 4-2 0-2 0-3-2-4l-15-6c-6-2-6-2-10 4h-2c-1-1 1-1 1-1 3-5 3-6-2-8l-10-4c-2-1-4-1-6 1 1-2 0-3-2-4-7-5-15-4-22-9l-10-4c-2-1-3-1-5 1-2 3-3 7-7 10 1-5 8-8 6-12-1-4-7-4-11-6l-4 1c-1 2-4 4-3 5 0 2 3 2 5 3-3 1-5-2-7 0-1 1-4 2-2 5l-1 1c-3 2-7 4-6 9 1 1 0 1-1 1-2 0-3 2-4 3l-6 9-4 7-17 23c-2 3-1 4 2 5l13 2c4 0 7 3 11 3l16 4c7 2 13 6 20 2v1c0 4 4 2 5 3 6 0 13 1 18 3l22 5c8 3 8 3 12-5 3-6 3-6-3-8v-1l4 1c4 1 5-1 6-3 1-4-2-3-4-4l-7-2c-2-1-4-1-4-4 4 3 9 3 13 5 3 1 5 0 6-3s-2-3-4-4l-23-8c8 1 15 5 23 7 6 2 9 0 9-7zm123 955c8 4 8 4 12-4 1-2 1-3-1-4l-38-23c-2-1-3-1-4 1-4 3 0 6 1 9-3 0-1 2-1 2l5 16c3 10 3 10 13 9l12-1c1 0 4 1 5-2-2 0-4-1-4-3zM307 807h23c4-1 2-5 3-8 3-5 3-5-4-6l-34-2c-12-1-10-3-13 9 0 4 1 5 4 5l21 2-15-1c-10-1-10-1-10 8 0 7 0 7 7 8h30c4 1 8 2 10 0 2-1 1-6 2-9 0-3 0-4-4-4-7-1-14 0-20-2zm1010 714c2-3 0-4-2-5l-19-20c-4-4-8-9-14-12l12 13c8 8 17 15 23 24l-6 4-16 11c-1 1-3 2-3-1l-2-2-31-34c-2-2-3-4-6-4l12 14 42 47c3 3 5 3 8 1l19-14c3-2 4-4 1-7l-13-14c-2-1-3-2-5-1zm-831 53c1 1 3 1 4-1l12-19c1-2 1-3-1-4l-28-16c-2-2-3 0-4 1l-12 17c-3 5-3 5 2 8-2 0-3 1-2 3l2 6c0 3 0 5 2 7 3 2 22 1 25-2zM446 503l-5-2c-10-7-10-7-16 4-2 2-1 2 0 4 4 2 8 4 10 7l-10-6c-2-1-4-2-6 2l-7 11c-1 2-1 3 1 4l8 5h-1l-4-2c-7-3-6-3-11 3-2 3-2 5 2 7 5 3 12 5 16 10-7-2-12-6-18-9-3-2-4-2-6 1l-7 11c-2 2-2 3 1 5 4 3 10 4 13 8l-14-7c-2-1-4-1-5 2-4 6-4 6 2 9l5 3 12 7-6-2-16-8c-1-1-3-2-4 0l-16 24c-2 2-1 4 1 4l18 7 13 7-7-2c-3-1-4 0-6 2l-21 31-17 24c-5 6-11 12-14 20l-5 21c-1 3-5 6-1 9v1c-5 0-5 5-4 7l2 15 7 36c1 5 5 8 10 7 3 0 8-7 8-10l-3-25c-2-11-5-21-1-31l4-14 6-18c4-8 10-14 15-21l32-47c2-3 3-3 6-2l43 17c1 1 2 2 4 0l-64-30c3-1 5 1 8 2l54 25c3 1 5 1 7-2l7-10c3-2 2-4-1-5l-29-15c-5-3-10-4-13-8l20 9 25 13c4 2 5-2 6-4 2-3-1-3-2-4l-22-12-17-10 10 4c9 6 20 11 30 16 2 2 5 2 7-1l7-10c3-2 1-3-1-4l-39-21-16-10 10 4c13 9 28 15 42 23 7 4 7 4 12-2 2-2 2-4 0-5l-9-4-42-24-13-8c6 1 11 4 15 7 14 9 29 16 44 24 2 1 5 4 8 4 5 0 4-5 7-7l1-2c5-6 5-6-3-10l-41-24 5 2 38 20c7 4 7 4 12-2 2-3 2-4 0-6l-26-14c-5-4-11-6-15-10 8 2 15 8 22 12l21 11c2 1 9-5 9-7l-2-2-30-18-51-29c-6-4-6-4-11 2-2 3-1 4 2 6l10 7zm1145-121l-22-11c-2-1-3-1-4 1l-8 12c-2 2-2 4 1 5l7 4c-3 0-5-2-8-3-2-1-4-1-5 1l-11 17c-2 3-1 5 1 6l9 4h-3c-11-5-11-5-17 5s-6 10 5 15c7 4 15 6 22 12l-30-15c-3-1-4-1-6 2l-8 12c-3 4-1 4 1 5l43 21c3 1 5 1 7-2l8-11c2-2 1-3-1-5l-14-7c5 0 10 4 15 6 2 1 4 1 6-1l9-12c3-3 2-4-1-6l-24-12 25 11c2 1 4 1 5-1l13-16c1-3 1-4-2-6l-22-11c-6-3-12-5-17-9l40 18c3 2 5 2 7-1l7-10c3-3 2-4-1-5-8-4-16-7-23-12l24 10c3 2 4 1 6-1l11-15c2-3 2-4-2-6l-27-13c-8-4-15-6-22-11 14 5 27 12 41 19 5 2 9 5 15 5v2c-1 2 0 4 1 5 2 0 2-2 3-3l11-15c1-1 2-3 3-2 5 3 6 0 8-3l15-19c3-5 11-10 5-18v-1c-1-2 0-3-2-4l-3 3-30 41c-3 5-6 10-11 14l2-5 39-53c2-2 3-4 2-6l-12-30c0-2-1-3-3-2l-45 11-5 4-32 49c-2 3-3 5-2 8-2-1-4 0-5 2l-10 14c-3 4-2 6 2 8 7 4 14 6 19 11zM542 480c6 2 11 6 17 10 3 1 4 0 6-2 1-2 0-3-2-4l-26-18-29-19 3 1 47 30c9 6 9 6 15-2l1-1c2-1 1-3-1-4l-8-6c-7-5-15-9-22-15l4 2 26 16c3 2 5 3 7-1 2-3 0-4-2-5l-71-47c-1-1-3-3-4 0 0 2-5 4 0 7l8 7-9-6c-1-1-3-2-5 0-2 3-6 6-6 10-1 2 4 5 7 7v1l-6-4c-2-2-4-3-6 0-1 3-4 5 0 7l11 7c-5 0-8-3-11-6-3-1-5-1-6 1l-6 8c-5 6-5 6 1 11l1 1-3-1c-4-3-7-1-9 2l-13 18c-2 2-2 3 1 5l21 12 52 29c4 3 7 3 9-2l4-5c0 3-2 6-4 8l-24 31-35 46-18 23c-1 2-1 3 2 4l17 7 56 23c3 1 4 1 6-2 10-16 22-31 35-46 1-2 2-4-1-5l-21-13c-6-4-13-9-16-16-4-6-2-13 3-19 5-5 12-7 20-5l13 6c10 5 18 12 28 18 2 1 3 1 5-1l11-11c13-13 27-25 41-36l39-30c3-2 4-4 1-7l-80-77-12 15-40 55c-7 10-14 20-23 29l5-8c2-2 1-4-1-5l-15-9c-6-4-13-6-17-11l33 19c2 1 4 2 5-1 2-4 4-7 7-9 3-4 2-5-1-7-5-3-11-6-15-10zm-362 723c-2 2-7 2-6 6v7c-1 2-2 5 0 6s5-1 7-2 2-3 2-5v-9c1-2 0-3-3-3 2-1 5-1 4-4 1 3 4 1 5 1l10-3-1 5c-2-3-2-3-4-3-8 1-9 3-10 11v7l1 2c4 1 11-4 12-8-1 4 1 5 4 4l3-1 23-7c0 2-1 2-2 2l-35 10c-5 2-9 3-8 7 0-5 0-4-6-3-4 1-3 5-4 7 0 3 1 5 4 3l39-11c5-1 12-1 14-5 3-4-1-10-1-16-1-3-1-4-5-3-6 3-13 5-19 5l20-6c2-1 2-2 2-3 0-2-1-4-2-3-2 3-5 0-7 1-3 2-6 3-12 3l15-5c4-1 3-4 2-7s-3-1-4 0c-6 2-12 4-18 4 6-3 13-4 20-6 4-1 2-4 2-6 0-4-3-2-4-1l-15 4c-5 1-6 5-3 9-3 2-2 5-2 7-1-3 0-7-6-4l2-1c5-1 5-5 4-8s-4 0-6 0h-3l5-2c3 0 5-2 4-6-1-3-4 0-6 0v-1l4-1c3-1 3-4 3-6-1-3-3-2-5-2l-13 4c-4 1-3 4-4 7 0 3 3 0 4 2-3 1-5 2-4 6 0 4 3 0 4 2-6 3-6 4-3 10v1c-4 1-4 5-3 7 1 3 4 1 5 1zm1614-137c3 2 3-1 3-3l4-24 8-50c1-4 0-6-3-9-16-19-34-36-51-54-2-2-4-6-7-7l-1 1 25 53v3c1 7-2 15 0 22l17 50c2 6 5 12 5 18l-1-2-19-56c-1-1 0-4-3-4-1 8-1 16 2 24l13 39c1 5 3 6 7 5 5-1 0-4 1-6zM200 791c-2-5-6-2-10-4h15l28 1c8 1 12-3 19-7h-10c-5-2-11 0-17-2-3 0-5 0-5 4-1-4-4-4-7-4-5 1-9-1-14-2l8 1 29 1c2 0 4 1 4-1 1-2-3-8-5-8h-11l5-1 24 1c2 0 4 0 3-3 1 3 2 3 5 3l14 1c1 0 4 2 4-2 0-2 0-5-4-5h-2l-34-2 5-1 77 5c2 0 5 2 5-1s-1-6-4-6l-9-1-31-2-36-4-31-2-20-2c-5-1-10 0-15-2l3-1c12 3 24 3 36 4l56 5 46 4c1 0 3 0 3-2 1-2-2-6-4-6-11-2-22-2-34-5h5l28 3c3 1 4 0 3-4l-3-13c0-2-1-4-4-4-4 0-7-3-12-1l-8-3-35-5-40-7-8-1-58-10c-3-1-4-1-3 3l9 26 2 3c1 0 4-1 1 2-2 1 3 10 6 10 4 1 8 0 12 2h-11c-1 0-3-1-3 1-1 3 3 9 7 9l10 1-7 1h-5c-1 2 0 5 1 7s4 1 5 2c-1 0-4 0-3 2 1 3 0 7 4 7l14 1h2c0 2-1 1-2 1h-10c-1 0-4-2-4 1 0 2 0 5 2 6l5 2c0 2-4-2-4 2 0 7 3 9 9 9h5c4 0 6-1 4-5v-2c2 4 3 8 10 8 10 0 19-1 27-9l-35-2c-2 0-2 1-2 3zm1552 172l2 4c3 8 3 8 11 7 2 0 3-1 2-3l-6-14c-7-14-14-27-19-41l-19-42c-10-22-21-43-30-65l-5-11c-1-2-2-3-4-1-1 0-3 1-2 2l4 11 12 30c-2-1-2-3-2-4l-16-35c-1-2-1-2-3-2-1 1-2 1-1 3l4 15 3 11-1 1-9-27h-2c5 20 12 40 18 59l-2-2-10-32-6-21c-1-3-2-4-5-2l-11 4-20 8c-1 0-3 1-2 2 0 2 2 1 3 1 3-2 7 0 9-4h2c2 3 5 2 8 3 5 2 8 6 6 11-1 3-3 6-5 7-3 2-3 4-3 7-1-2-2-4-4-3-3 2-8 1-9 6l-1 1c-2-3-4 0-6 0-3 0-3-1-4-3l-4-16c-1-3-1-6 3-7 1 0 4 0 3-2s-3 0-4 0l-33 14c-5 2-5 4-4 8 1 2 1 4 3 3s3-2 2-4c0-1-2-3 1-5l3 12c2 4 4 8-2 10-1 1 0 3-2 3-7-1-14 0-19 7h-1c-5-1-7-4-8-9l-2-9c0-1 0-4-2-3-2 0-1 2-1 3 11 45 16 90 16 136 0 4 1 5 4 4l19-1c17-2 33-4 50-4 5-1 6-3 5-6l-18-68c-8-28-14-56-23-83l1-2a9846 9846 0 0115 52l15 59 11 41c0 3 1 6 6 6l52-5c7 0 7 0 6-7v-4c2 3 1 7 3 9l4 2 1-4-2-6 2 4c1 5 4 6 8 5l14-1c3 0 4-2 3-5l-2-8zM369 700c4 0 3-3 3-5 1-2-2-2-3-2l-12-3c-2 0-3 1-3 3-2 4 3 2 4 4-2 0-5-2-6 2-1 5 5 2 5 4-6 0-6 0-7 3-2 4 2 3 3 4-2 1-7-1-5 3 2 3-3 3-1 5l2 1c-5-2-2 3-4 5l-1 3c0 2 1 2 2 2l10 2c7 1 7 1 9-7l1-1c1 2 2 4 0 6s-1 3 2 4l13 2c3 1 5-1 5-4l3-6-1 6c-3 4 0 5 3 6l37 6c4 0 6-1 5-4 0-6 3-5 7-5l4 2-6-1c-4 0-3 3-4 5s0 4 2 4l25 4c1 0 3 0 3-2 1-2-1-2-2-2l-4-1 4-1c1 1 3 1 3-1s-1-1-2-1l-20-4 15 2c4 0 8 3 8-4 1-3 0-4-2-4-2-1-5 0-7-2l7 1c1 0 4 1 4-2 1-2-2-3-4-3l-22-4h5l18 3c3 1 5 0 5-3s0-5-3-5l-22-5c-3-1-4 0-4 3l-1 4c0 3-2 3-4 2 2-1 4-2 2-5-1-1 0-1 1-1 2-2 2-4-2-5l-53-12c-10-2-10-2-12 7 0 2 0 4-2 3 0-3 2-4-1-6zm86 91h11c1 0 4 1 4-2 0-2 0-5-3-6h-5l-20-1h23c1 0 3 1 3-2 0-2-1-3-3-3h-6l-19-2 24 1c2 0 4 0 4-2s-1-3-3-3l-21-1c-7-1-7-1-7 6l-1 1-1-7-2-2c5-2 1-5 1-8l25 3c2 1 6 2 6 0 1-4-3-1-5-3 1-1 4 2 5-1 0-4-3-3-5-3l-7-1h9c2 0 2-1 2-3l-4-3-17-2c-8-1-8-1-8 7-2-2-2-4-2-6 0-3-1-3-3-4l-15-2-30-4-38-7c-2 0-2 0-2 3l2 15c0 2 1 3 3 3l11 1-8 1c-2-1-5-3-5 1-1 3 0 5 3 6l9 1h-6c-2 0-4-1-5 2-1 2 1 4 4 5-3 0-4 1-3 4 1 2 3 4 5 3h8l18 1 16 1c5 1 11 2 16 1 2 0 2 1 1 3-1 5 1 7 6 7h13c2 0 5 1 4-3 0-2 1-5-4-5h-13l14-1c4 0 5 0 4 4 0 4 1 6 6 6 4 0 7-1 11 1h-12c-1 0-4-1-4 2s2 3 4 3l24 1c1 0 4 2 4-1 1-3-1-3-4-4-4 0-9 1-12-1zm1034-262l-11-8c-7-7-8-7-13 2l-42 63v5l28 32c2 3 3 2 5 0l14-20 38-51c3-4 3-6-1-9-3-1-6-4-8-7l21 17c4 3 6 2 8-1l21-28 26-35c2-2 2-4-2-5l-17-9-49-23c-7-3-7-3-11 3l-28 42c-7 9-7 9 2 16 7 5 14 9 19 16zM411 1296v1c-1-5-5-7-7-10-1-4-3-3-5-2l-32 15-96 45c-8 4-8 4-8 13 1 15 1 15 15 20 4 1 7 1 11-1l68-35 63-32c1-1 3-1 1-3l-10-11zm383 245l89 38 1-3 5-36c1-3 0-4-3-5-46-10-91-26-133-48-3-1-4-1-5 2l-10 17c-5 9-6 9 4 13l28 12-8-2-26-11c-2-1-4-2-5 0a27892 27892 0 0087 39l61 26c1 1 3 2 3 0 1-2 0-2-2-3l-17-8-62-26c-2-1-6-1-7-5zM345 883l5 10c1 4 4 5 8 5l63 1c3 0 2-2 1-4-3-5-6-10-6-16v-18c-1-7-1-13 3-19 5-6 4-13 1-20l-1-4c1-8 1-16 7-22 3-2 2-4-2-4l-61-5c-6-1-10 1-13 6-6 9-9 18-7 28 1 8 3 15-2 22-2 2-3 5-3 8-1 9 0 18 3 28 0 2 2 3 4 4zm476-564l-1-3c-7-26-15-53-21-80-2-5-4-7-9-6-11 1-23 0-34 2-2 0-3 1-2 4 1 8 5 15 7 23l4 15 26 78 29 88c1 3 2 4 5 3l22-7c3-1 4-2 3-6l-14-52-15-60c3 5 3 11 5 17l26 96c0 3 1 3 4 3l15-5c2 0 3-1 2-3l-6-28-9-45c2 1 1 3 2 5l15 67c0 3 1 3 4 3l26-6c3 0 4-1 4-4l-4-48-9-141c0-4-1-5-5-5l-55 3c-4 0-5 2-4 5l3 13c-4-3-3-8-4-12s-3-5-7-5l-21 1c-4 0-5 1-4 5l18 69c2 5 4 10 4 16zM414 1396c2 2 3 3 3 5h-4l-29 18c-1 0-3 1-2 3h3c4-3 8-5 13-6l-19 11c2-2 2-4 1-6a486 486 0 01-14-20c-2 0-1 1 0 2l10 25 18 37c4 10 14 13 23 17 1 1 2 0 3-1s-1-2-2-2l-13-8-3-4-6-16c-1-3-2-4-5-1h-3l2-2 11-7 72-48 85-56c6-4 6-4 2-10-2-2-3-6-8-3 3-2 3-3 1-5l-4-6c-2-4-5-4-9-2l-84 44-80 41c-2 1-5 1-6 4 2 1 4-1 5-1l27-15c1-1 3-2 3 1-11 4-21 10-31 16-3 2-1 3 0 5 1 3 2 1 3 0l27-16c1-1 3-2 2-4 2 2 3 3-1 5l-27 16c-1 1-3 1-2 3 2 3 3 0 4-1l27-16c2-2 4-2 5 0h-3l-30 19c-3 2 0 4 1 5 1 3 2 1 3 0a6352 6352 0 0131-21zm277-925l20 23c0-3-1-4-2-5l-50-59c-2-2-3-5-6-6l-1-2-13-13-24-28-31-38-27-31-26-31c-1-1-2-3-4-1-1 1-4 2-2 4l-1 3c-1-3-3-1-4 1l-23 34c-2 2-1 3 0 5l25 28c2 2 5 4 9 4 2-1 4 1 1 3-2 2-1 3 0 4l4 4c8 7 12 17 21 23l21 15 27 19c2 1 4 1 5-1 2-3 3-7 5-7 3-1 5 4 7 6l73 71 4 4h4l-1-3-8-8-52-62-32-38c-3-3-7-7-9-12l4 3 11 13 47 56 41 47c1 1 1 3 3 1 2-1 1-2 0-4l-11-14c-2-2-5-4-5-8zm-265 579l1-1c-3-3-12-1-12 2 0 4-4 7-5 10l3-9v-3c-2-1-8 1-9 3s0 6-4 7l2-6c1-3 1-4-2-4-5 0-9 1-10 6 0-5 0-6-6-5l-4 2s0 2-1 1c0-5-4-3-6-2l-27 1c-2 0-2 3-4 1-3-2-7 0-10 0-5-1-3 4-5 7l-3 7c0-4 2-6 3-9 1-4 1-5-4-5-4 0-5 3-6 5-2-1 2-4-2-4h-7c-4 0-3 4-5 5v-4c-2-2-9 1-10 3-1 4-1 9-6 13 3-4 0-4-2-4 4-1 4-1 6-8 1-1 3-4 0-4-4 0-9-2-10 2-1 6-4 10-6 15l4-11c0-2 0-5-2-5s-5-1-6 2v9l-1 1c-3-1-3 3-5 5l4-13c1-1 2-2 0-3-2-2-9 1-10 4l-3 9h-2l2-5 2-5v-3c-2-1-10 2-11 4-3 5-4 11-8 17l6-17c1-1 1-2-1-3-6-1-14 6-12 11l2 2c-4 0-5 3-6 5l-4 11c-2 4-2 7 4 6-5 1-9 2-9 7s-4 7-4 11c0 1-2 3 0 3 3 0 7 0 10-2 2-1 3-4 3-7 0-2-2-1-4-2 3 0 5 0 7-2l-3 9c-2 2-1 3 2 2l15-2 13-1c3-1 6-3 10-2 3 1 7-1 10-1 5 0 10-1 11-7 2 2-3 4 1 6 5 1 11-2 12-6 0 4 0 4 4 4 4-1 6-2 7-6-1 4 2 4 4 4 6 0 10-3 16-2 4 0 6-1 7-5 2 1-2 4 2 4 5 0 10 0 13-6-3 5 0 4 3 4 3-1 7-1 9-4-1 2-1 4 2 3l18-3c5-2 13 1 16-7-3 6 1 5 4 5l9-2 21-3 1-1 1-1c3 5 7 0 10 1l2-2-4-21h-1l-3 10c1-8 1-9-1-9 0-2 3 0 3-2 2-4 1-8 0-12 0-3-4-1-5 1-1 1 0 4-3 5 0-2 3-5 1-6-3-1-7-1-10 1l-2 1zm1373-389c0-1 1-2 3-2l28-14-25-26c-6-6-6-6-14-1l-27 14 4-3 26-15c3-1 3-2 1-5-8-7-15-15-24-21-3-3-2-4 1-7l13-12c2-2 2-3 0-4-16-14-33-26-50-39-2-1-4-1-6 1l-54 49-105 95-53 47c-2 2-2 3-1 6l16 33c1 3 2 3 5 2l42-24c9-5 17-10 27-14l-4 3-64 36c-3 2-4 3-2 6l6 16c1 3 2 3 5 2l47-23 112-55 73-36c6-3 12-7 20-9-1 2-2 2-3 2l-68 34a76378 76378 0 01-180 88c-3 2-4 3-3 6 6 16 11 31 15 47 0 4 2 5 5 3l32-13c4-2 9-2 11-5 3-3 1-8 0-12 0-3 1-4 4-5l23-10c8-4 8-4 9 5 1 8 1 8 8 5 5-2 11-3 14-6 2-4 0-10-1-14 0-2 0-4 2-5l31-13 1 10c1 8 1 8 9 5l6-2c3-1 3-3 3-5l-2-13c0-2 0-3 2-4 10-4 21-8 31-14h2v2c-1 6 1 11 1 16 0 2 1 3 3 2l11-5c2-1 3-2 3-4l-1-16c0-2 1-3 3-4l29-13c3-1 3 0 3 2v17c0 2 1 3 3 2l27-11c2-1 4-1 3-4v-20l-3-57c0-6 0-6-6-4-9 4-18 10-27 13zm-711 926l-1-1-6-19c-2-7-6-12-6-19-1-2-3-3-5-3l-36 3c-3 0-3 1-3 4l1 6c-3 1-1 4-1 7l2 30c0 3 0 6 4 7-5-1-4 2-3 4 0 3-1 4-4 3l-13-2c-3-1-3-2-4-5v-10l-1-23-1-11c-1-2-3-4-1-7 1-1 0-3-3-3h-26c-1 0-3-1-3 1-1 2-1 3 1 3v2c-4 2-2 6-2 9v33c0 3-1 4-4 3l-12-2c-1 0-2 0-2-2l-1-9c2-8 1-15 1-23 1-4 2-9-1-13 4-6-2-4-4-4l-23-3c-1 0-4-1-4 1-1 2 2 1 3 2v2c-5-3-4 1-4 3 0 10-3 21-1 31 1 2 0 6-1 8-3 2-6-1-9-1l-3-1c-5 0-9-1-8-9l1-6 1-27c1-3-1-6-3-7-2-2-5-2-9-2-1-1-2 0-2 2l-10 62c0 3 0 5 3 7 3 1 5 1 8-2l10-10 1 1-12 13 12 4c4 2 7 1 10-3l11-10 1 1-11 11c-2 2-2 3 1 4l15 4c3 0 5 0 7-2 3-5 8-9 13-13l-2 4-10 10c-1 1-1 3 2 3l15 4c3 1 5 1 8-2 3-4 6-8 12-11-1 3-4 4-5 6-2 3-7 5-6 8 0 3 6 2 9 3 8 4 13 1 18-6 2-2 4-5 9-6l-12 12c-2 2-1 3 1 4l25 5c3 1 4 0 6-2 2-4 4-8 8-11l-7 10c-1 3-1 5 2 5 13 2 27 2 40 0l2-1c1-1-1-1-1-2l-14-13 1-1c5 3 9 7 12 11 4 5 8 6 14 4 6-1 12-1 18-5l-19-17 1-1 12 11c5 5 10 9 18 3l5-1c3-1 6-1 7-3 0-3-3-4-5-6l-11-9 1-1 15 13c3 2 5 2 8 1l12-5 3-1c0-2-1-3-2-3l-14-12v-1l17 13 3 2 20-8-7-6-6-5c2-1 3 1 5 2 10 9 10 9 22 4l6-2c3-1 2-2 0-4l-14-11c6 2 11 6 16 10 1 1 2 3 4 2 6-3 13-4 18-8-5-5-12-9-16-14l15 11c4 3 7 1 9-1 3-2 0-3 0-5l-3-8-23-52c-1-2-1-4-4-4l-34 11c-1 0-3 1-2 2 5 1 2 4 3 7l7 20 7 17c1 1 2 3-1 4l-15 4h-3c0-4-2-6-3-9-3-11-8-21-12-32-1-3-3-2-4-2 0-2 3-3 1-5h-4l-32 6c-1 0-3 0-3 2 0 4 3 1 4 2 0 2-3 3-2 5l10 32c1 2 2 3 6 4-3 1-3 2-3 5 2 7 1 7-6 9l-7 2h-4c-2-2 1-8-5-8v-1c4-2 0-5 1-7l1 2c1 5 4 3 7 2 4-1 2-3 1-5l-11-32c-1-5-4-3-6-2-3 0-2 2-1 4 2 10 7 20 9 31zm-437 16l-9 19c-1 1-3 3-1 4s4 1 5-1l2-3 12-23c-1 7-5 12-8 18-1 3-5 7-3 9 2 3 6 1 9 1 4-1 7 0 9-4l20-34 56-99c4-6 4-6-2-9l-9-5c-3-2-5-2-6 1l-13 27-4 7c2-7 6-14 9-20l7-15c1-2 2-3 0-4s-3 0-3 1l-3 5c-7 12-12 25-20 36l1-2 19-37c2-3 2-5-2-8l-40-26c-8-6-8-6-13 2-4 7-4 7-9 1l6 3 5-10c2-2 2-3 0-5l-13-10c-2-2-4-1-5 1 1-5 0-6-4-5l-1-4-15-13h-2c-3 3-6 6-7 10-1 3 3 4 4 6-7-4-7-4-3-10l4-7c2-3 1-3-2-2 0-3-1-4-3-5s-3 1-4 2c-3 3-6 5-8 9-9 6-8 6-2 11h1l-5-2c-1-1-2-2-3-1-2 4-6 5-8 8-2 1-5 3-3 5 2 3 4 7 8 5 0 2 0 5-3 2l-6-5c-2-2-4-1-5 1s-5 3-2 6c-4 0-15 9-17 15-5 2-8 5-5 8-6-2-8 3-11 6-5 5-5 5-1 9l-4-2c-4-1-5 3-7 5-1 2 1 2 3 3l10 7c-5-1-9-4-13-7-1 0-2-2-3-1l-7 7c-1 3 3 3 4 5l-5-2c-3-1-4 2-5 4-2 2 1 2 2 3 4 1 7 5 10 6 8 4 8 4 1 10l1-2c3-3 2-4-1-6l-9-5c-8-4-5-5-12 2-2 2-2 3 0 4l13 8-14-7c-3-2-4 0-5 1-2 3 0 3 1 4l10 6-10-5c-3-2-4-1-7 1-2 3-3 7-8 8v3c4 6 11 9 18 9l5 1c-8 1-14 0-20-5-3-2-6-5-6-10 1-1-1-3-3-4-1-1-2 0-3 1-3 4-10 2-12-3 3 0 4 3 7 3 2 0 4 0 4-3 0-2-9-4-11-2l-11 10c-2 2-2 4 1 5l16 9 80 46 79 47c3 1 4 1 5-2 4-7 7-15 12-21zm832-129l-3-1-52-41-15-11c-4-3-4-5 0-8l5-4c2-2 2-3 0-4l-15-10c-2-2-4-1-6 1-31 29-66 54-102 78-3 2-3 3-1 6l38 38 9 10c2 2 5 6 9 7 5 0 3 9 9 6l1 2c1 2 7 4 10 3 4-2 5-1 5 4l-5 42c0 2-1 2-3 2-15 1-29-2-44 0-3 0-3-1-2-3 1-5 0-10-5-13-6-3-10-7-15-12-18-22-38-42-57-64-2-1-3-2-5 0l-7 2c-4 1-5 3-2 7l29 35 117 138 56 66c3 3 5 4 7 0l3-3 50-53 88-95 39-42c3-3 3-5-1-7-10-8-20-15-29-24-5-4-9-4-14-4-2 0-5 2-6-1-1-2 2-2 3-4 4-5 4-5-1-9l-15-10-87-59c-9-6-17-12-26-16l-14-11c-7-5-7-5-12 1-5 4-5 4 1 9l31 24 34 28zM1004 417a564 564 0 1012 1128 564 564 0 00-12-1128zm674-45l-2 2-65 88-93 125-44 59c-2 3-2 4 0 7 14 20 26 40 38 62 1 3 2 3 5 1l77-69 93-84 45-40 22-21c1-1 3-3 2-5-3-3-4-6-6-10l-40-65-30-48c0-1 0-2-2-2zM264 1118c-3-8-3-8-10-7l-5 1c-9 1-9 1-7 11l3 17-5-20c-1-2 0-6-3-6s-7-1-10 2c0 0 0 2-1 1-2-3-5-1-8-1s-5 1-4 6l7 34c1 5 2 7 8 5h2l-4 1c-4 1-5 2-3 6 1 3 3 7 2 8-2 5 2 10 3 16 0 7 2 14 4 21 0 3 1 4 4 3l17-6c3-1 4-2 3-5l-1-3c3 1 0 7 5 6 2-1 6 0 7-4h1c2 2 4 0 5 0 6-3 12-4 19-6l16-6c8-1 15-4 23-6l15-5c4 0 9-3 14-4 4-1 7-4 12-4 4 0 8-2 12-4l46-14 29-8c5-1 6-3 4-8-1-5-4-3-8-4 7 0 6-3 5-7-1-2-1-4-4-5 3-6 0-6-5-5 4-1 6-3 4-7l-1-8c-2-2-2-4-2-6l-2-9c0-1-1-2-3-2-3 0-6 0-8 2l-2 1c-6-2-6-2-11 2h-1c-1-4-4-2-6-2l-11 2-29 4c-2 0-2 1-2 3l2 11-3-12-1-2-10 1c-2 1 1 4 0 6-2-2-1-6-5-5l-18 2c-4 1-4 3-3 6 0 1 2 3 1 5l-2-6c-1-3-1-5-5-3h-5c-2 0-3 0-3 2 2 6 2 12 5 18v1l-1 1-1-1c0-5-2-8-3-12 0-7 0-7-7-7h-3c-3 0-5 1-4 5-2-2-1-5-4-4s-8 0-9 5c0-3-2-3-4-3l-16 2c-3 0-4 2-3 4l2 12-2-6-1-6c-1-1-1-3-3-3l-8 2c-2 1 0 4 0 6v1zm1170 637l-6-6-74-88-92-109-36-42c-1-1-2-2-5-1l-23 7c-3 1-4 3-2 6l5 12 20 49c1 3 2 4 5 2l22-10h3c2 1 1 3 0 4-3 7-7 13-12 19-1 2-2 3-4 3-4 1-5 3-3 7l5 12 13 31c2 3 4 3 7 1 4-2 9-3 11-8 0-1 2-2 3-1v3c-6 7-9 18-16 25-1 0-2 1-1 2 4 2 4 6 6 10l41 63c3 5 7 7 12 7l71 2h50zM436 964c6 1 6-2 6-6v-8c1-3 0-4-3-4l-80 6-90 6h-11v-1l20-2c2 0 4 0 3-3-4-10-4-21-6-31 0-2-1-3-3-3l-20 1c-2 0-3 1-2 3l3 25c0 8 5 14 6 21l20 83c1 2 2 3 4 3l13-1 43-2c3 0 3-1 2-4l-2-12 4 12c0 2 0 4 3 3 2 0 1-2 1-4l-2-7c2 3 5 3 8 3l6-1c4-2 5 0 6 4 0 2-1 4 3 4s3-3 3-5c-2-4 0-4 3-4l29-3 31-2-57 6c-2 0-5-1-5 3s2 5 6 5l28-2 36-2 3-1c1-4-2-9-6-10 3 1 5 0 5-4s-3-3-5-3l-22 3-43 5c-4 0-7 0-6-6l-1-3c-1-3 1-5 3-5h10c8-1 17-3 27-3l-33 5c-3 0-6-1-5 3 1 3 0 8 6 7l65-7c6-1 2-5 3-8 0-3-2-3-4-3l-15 1 15-2c4 0 3-3 3-5 0-4-2-3-4-3l-11 1 11-2c3 0 4-1 4-4 0-7 0-7-6-7h-2c2-2 8 1 8-5 0-4-4-1-6-3 8 0 6-6 5-9-2-7-8 0-12-3l9-1c3 0 4-1 4-4 1-5-3-4-6-5zm1094-662c-2 0-3 1-3 3l-9 16c-2 2-2 5 0 7 5 5 4 10 0 16l-53 87-73 123c-2 3-2 5 1 7l19 18c2 3 5 7 7 7 3 0 5-5 7-8v-1l41-62c1-1 1-3-1-4l-4-3c-4-1-3-3-1-5l34-50 5-6c2-1 4 3 6 3s3 3 5 0l11-17 71-107c3-5 3-5-2-7l-43-12-18-5zm-303 133c-2 0-3 1-3 3l-3 10c-2 3-1 5 3 6a530 530 0 0165 31l45 9c3 0 4-1 5-3l10-23c1-3 0-5-3-5l-25-6c-2 0-5 1-6-1-2-2 1-4 2-6l21-61 39-115c2-4 1-6-3-6l-30-6c-5 0-6 1-8 5l-22 76-27 95c-2 6-4 8-10 8-3 1-6 0-8-1l-26-6-16-4zM952 222v111l-1 78c0 4 1 4 4 4l35-2c4 0 6-2 7-6l8-36 21-95c1-4 0-7-4-9l-40-26-30-19zm-3 97h1v-33l1-59c0-4-1-6-6-6l-44 3c-3 0-3 1-3 3v13l8 120 4 57c0 3 1 4 4 4l31-5c3 0 4-1 4-4v-93zm193 81c-4-1-5 1-5 4l-3 12c0 4-5 7-1 10l10 2c3 1 4 0 4-2l4-20c1-1 0-4 3-3l21 10c3 1 4 3 3 6l-3 14c-1 3 0 4 2 5 13 3 24 7 36 12 3 1 4 1 5-2l18-64c2-4 0-6-3-8l-47-28-62-37c-6-4-6-4-8 3l-18 94c-2 11-2 11 8 13 4 0 5 0 6-4l4-21c2-8 2-8 9-5 6 3 12 4 17 9zm155-162v-1h-11c-5-1-6 1-7 5l-15 49c-7 21-14 41-19 62 0 1-1 3 1 4 3 2 2 4 2 7l-3 15-2 2c-4-1-4 3-4 5l-12 41c-2 4 0 6 3 7l38 9c3 0 4 0 5-3l5-15a134853 134853 0 0050-174c1-4 3-6 8-5l13 1 33 4c4 0 5 1 3 5l-12 34-31 92-23 69c-1 3-1 4 3 5l23 5c4 1 7 0 8-4l28-66 32-77 27-62c2-4 1-5-3-5l-33-3-107-6zM176 1371c0 5 1 9 5 11 3 3 6 0 9-2l29-13 89-41 70-33 111-52c4-2 11-2 12-6s-4-9-5-13c-2-3-4-3-6-2l-56 27-96 47-111 53h-6c-5-4-10-9-13-16l-4-12c-1-3-3-3-5-1-6 3-10 7-12 13l-11 40zm1460-175l1 1 37 7c4 1 6-1 7-4l12-44 17-60 13-47c1-1 2-4-2-4l-60-4c-2 0-3 0-4 3l-5 18-21 75-13 52c-1 1-2 3 1 4l8 2 1-2c-1-5 2-10 3-15 1-3 1-7 7-5l2-1c1-2 1-1 2 0 2 4 12 4 15 0-2 5 1 6 4 7s5 2 6 5c2 7-2 12-9 13s-14-1-22-1zm-38-34c-1 5 3 5 5 5 4 0 5 1 3 5l-3 14c0 1-1 3 1 5 5 3 11 1 12-6l17-60 22-81c0-2 0-3-3-3l-14-1-59-4c-3 0-4 0-4 4a643 643 0 01-29 140l11 2c4 1 6-1 7-5l3-13c1-2 2-4 4-4 3 2 6-1 9 2 3 2 8 2 12 3 2 1 5 1 6-3zM531 1287l-1-2-26-46c-1-2-3-2-5-1l-90 43c-4 1-4 2-2 5l39 47c3 4 6 4 10 1l43-26 30-19 2-2zM261 898h-10c-2 0-2 1-2 2v14c0 2 0 3 2 3l23-1c2 0 3 0 4 3 1 11 2 21 5 31 1 4 2 5 6 5l43-3 18-1 36-3c18 0 35-2 53-3 3-1 4-2 4-5l4-35c0-4-1-5-5-5-40-1-81 1-121-1-20-2-40 1-60-1zm1463 381c-10 0-20 3-30 4l-2 1c-4 12-12 22-18 33l-50 90-3 8c-5 4-7 10-10 16-2 2-1 3 2 3l30 4c3 0 5-1 7-4l24-44 46-87c3-6 7-11 8-17-2-1-4 2-6 0-1-3 2-4 2-7zm-666-916v1h35c11 0 11 0 14-10l8-41c0-4 0-5-4-5l-9 1-79 4a4181 4181 0 01-12 44c-2 6-2 6 4 6h43zm-7 4v-2h-36c-5 0-7 2-8 6l-8 38c0 3 0 3 3 3 30 0 59 2 88 6 3 1 4-1 5-4l8-43c1-4 0-4-3-4h-49zM222 838l19-1c3 0 5 0 4 4-2 4-4 8-4 12 1 7-4 6-8 6l-20 1c-2 0-4 1-3 4 0 2 2 1 4 1l21-1c2 0 4-1 4 1 1 7 5 13 7 20 1 5 1 6-4 6h-17c-1 0-4-1-4 1s2 3 3 4h3l92 1c6 0 11-2 17 1 1 0 3-1 2-2-2-3-3-7-7-7h-71c-1 0-3 1-4-1l-8-19h33v1h-30c0 5 3 9 5 13 1 3 3 4 7 4l25 1h44c-3-5-4-10-5-15 0-3-1-3-4-3h-30v-2h28c5 1 5-2 5-6 0-3 0-6-5-6h-32l-37-1c-3 0-6-1-4-5l5-14c1-3 1-5-3-4-7 2-14 1-21 1-5 0-8 2-10 5-3 5-6 10-7 15-2 5-2 5 4 5 4 0 6-2 6-6l2-10c1-1 1-3-2-4zm826-527v-1l25-2c15-1 30 1 45-4l3 2 16 10 68 41 33 19c2 0 3 2 4-1 1-5 3-10 2-15 0-3-5-4-8-6l-5-2-60-36-34-20c-6-3-12-5-20-5l-83 6c-10 1-10 1-12 10-1 3 0 4 2 4h24zm470 26l-2-4c-11-24-24-47-37-70l-2-3c-2 0-2 2-3 3l-61 124-39 80c-1 3-2 5 0 7l34 37c3 3 4 3 6-1l31-51 72-120 1-2zM426 480l-1-1-14-8c-7-5-7-5-12 2l-4 5-21 32-47 69c-2 3-1 4 1 5l18 7c3 1 5 1 6-2l23-33 45-66 6-10zm27 360c2-1 6 2 7-3l10-34c1-2 0-3-2-3l-37-3c-3 0-4 1-5 3-5 8-6 17-3 26 1 3 3 7 1 10-1 3 2 2 3 4-4-2-5 0-6 2-4 5-4 11-3 17 1 11-1 23 5 34 2 3 3 6 8 6l13-1c3 1 4-1 4-3 0-6 1-13 3-19l6-29c2-6 2-6-4-7zm1283 206c-3-1-5 1-5 4l-7 24-21 76-14 51c-2 4 0 6 4 7h4c2 1 3 0 5-3l6-19 44-134c0-3 0-5-3-5l-13-1zm-60-677c0-2-2-2-3-3l-12-5c-2-1-3-1-4 1l-11 16c-24 33-49 66-71 99-3 3-1 5 1 5 4 1 7 3 9 6 2 2 3 1 4-1l11-14c13-18 25-36 39-53l34-45 3-6zM406 457c1-2-1-1-2-1h-12c-5 0-7 2-10 6l-37 56-37 52c-1 1-3 3-1 4l15 6 2-2 19-26 29-42 33-50 1-3zm1307 754c5 1 5-3 6-6l19-61 15-50c1-5 1-10 3-14 5-9 6-19 10-29l-1-3c-5-2-11 0-12 5-4 16-10 31-15 46l-32 102c-3 10-5 8 7 10zm9 65c4 1 5-1 6-3l17-36c1-2 0-3-1-4l-20-20c-2-2-3-3-5 0l-5 9-25 54c-2 4-1 5 3 5l4-1 26-4zm-312-759l-2-3-35-38c-1-2-2-3-3 0l-11 22v6l27 46c2 3 2 3 4 0l19-31 1-2zm-815-70l-4-4-25-18-37-27c-2-2-4-2-7 0l-13 10c-3 2-2 4 0 5l67 44c8 5 8 5 13-3l6-7zm1129 564v-27c0-4-2-5-5-4l-16 1-41 4c-2 0-3 0-3 3v49c0 2 0 3 2 3l59 4c4 0 4-2 4-5v-28zm-72 28c4 1 5-1 5-5l1-45c0-4-1-4-4-4l-35 3-37 3c-2 1-5 0-4 2 1 3 1 6 6 6l38-4 11-1c2 0 3 0 3 2l1 29c0 2 0 5-3 5-3-1-6 3-9-1h-21c-8 0-17-2-25 1-1 0-3-2-4 1 0 3 2 3 4 3l73 5zm82 181l4-13 17-64 16-55c1-2 2-4 0-5-3-3-11-1-13 3l-10 33-13 45-13 41c-1 1 0 2 1 3l11 12zM226 904h1c-25-24-26-49-4-76l-62 33c-2 1-5 1-5 4s3 4 5 5l1 1 32 17 32 16zm310-327c0 5 4 11 10 16 9 7 19 12 28 18 2 1 3 1 5-1l12-13c3-3 8-7 7-9 0-4-6-6-9-8-11-7-22-14-34-18-10-2-19 6-19 15zm-35 144c3 0 3 0 4-2l28-47c2-3 0-4-2-5l-20-8c-3-1-4 0-6 2a769 769 0 01-29 51c-1 2-1 3 1 4l24 5zm1035 756h3l30-1c5 0 11 1 15-2 15-7 30-15 44-24 5-3 11-5 16-10l-30-3c-5-1-11 0-16 3a864 864 0 00-62 36zm68-43l-23-13c-3-1-5 0-8 1l-11 8-39 27c-4 2-4 4 0 6 4 3 9 5 13 9h3l65-38zM1331 251l-1 1-30 101-24 85c-1 6-1 6 6 5 2 0 2-2 3-3l2-9 31-108 16-55c2-6 2-12-3-17zm139 396l3-4a35879 35879 0 0059-78l1-4h-4c-2 0-3-1-5-3-4-4-5-4-9 0l-47 66c-8 11-9 11 0 21l2 2zm270 577c-1 3 2 4 3 6 2 3 4 3 5 0l3-9c7-18 10-37 16-55l20-77c1-1 2-3 1-4-3 0-4-3-6-2-2 0-3 2-3 4l-13 42-16 59-10 36zm-48-897l-3 3-18 24-5 7 9 4c1 1 4 0 5 3 3 7 8 13 12 20 1 2 2 2 4 0l18-21v-4l-20-33-2-3zm64 659v-3c0-6 0-6-6-6l-13 1c-3 0-5 2-5 5l1 51c0 11 0 11 11 11h2c7 1 7 0 8-6l2-53zm17 270l-1-2-16-27c-2-3-3 0-4 2l-24 50c-2 3-2 4 2 3l34-7 3-1 6-18zM405 452h1c6 1 6 1 3 6-4 7-4 7 3 11l2 1c2 2 4 1 6-1l39-50c0-1 2-2 1-3l-3-1-21 1c-3 0-6 2-8 5l-19 24c-1 2-4 4-4 7zm10 1033l-3-2-10-5c-3-2-7-3-9-7l-20-43c-4-10-2-10-13-4-2 2-2 3-1 6l8 18 24 52c1 3 3 4 5 1l17-13 2-3zM287 854v1h34c2 0 4 0 4-3l4-10c2-3 1-4-2-4l-60-1c-13 0-13 0-17 13-1 4 1 4 4 4h33zm187-416l-1-2-16-9c-2-1-2 0-3 1l-32 42c-1 1-3 3 0 5 2 0 4 4 7 0 5-6 5-5 8 1 4 7 4 7 8 1l25-32 4-7zm840 1081l-2-1-32-33h-4l-11 5c-8 4-8 4-2 11l29 31a2396 2396 0 0020-11c1 0 2 0 2-2zM433 474l-28 41-50 74c-1 2-3 3-1 5 2 1 5 3 7 0l2-3 49-72 8-13 14-19c3-5 3-8-1-13zm1276-132c-1 0-4-2-4 1-1 3 4 7 7 7l12 2c3 1 7 2 8 6l28 49 28 50c1 1 2 4 4 2 2-1 4-3 2-6l-9-15-49-87c-2-5-7-8-12-8l-15-1zm27 57l-1-2-13-22c-2-3-3-1-4 0l-17 20c-2 3-2 5 0 8l11 17c1 4 3 3 5 1l17-20 2-2zm-1 57l1-1 19-22c1-1 2-2 1-3l-13-20c-1-2-2-4-4-1l-18 21c-2 2-1 4 0 6l11 18c1 1 1 2 3 2zM724 1794l6-20c0-3 0-4-3-5l-39-16c-3-1-4-1-5 2l-3 11c-1 2-1 3 2 4 16 4 30 11 42 24zM1755 488l1-1a8601 8601 0 0020-25l-12-20c-2-2-3-2-5 0l-17 20c-2 2-2 4-1 6l11 18c1 1 1 2 3 2zm-219 991l1 3c13 9 26 17 38 27h4a4027 4027 0 0111-18c-5-6-12-11-19-12-11-2-23 0-35 0zM350 898c-4-6-9-11-11-17-4-14-7-28 1-41 2-4 3-8 2-13l-2-9c1-12 3-24 13-33 4-3-1-4-2-6 0-2-2 0-3 0-6 4-7 10-10 15-5 8-4 17-6 25l1 3c4 7 3 14-1 20-6 9-4 18-3 27s5 17 10 24c3 5 6 5 11 5zm153-175l-27-6c-2 0-3 0-3 2l-6 26c-1 3 0 4 2 4l18 3c2 1 3 0 3-2l13-27zm-165 734l-1 2 2 64c0 3 2 3 3 2l17-6c3-1 3-2 2-5l-13-31-10-26zm1250 63h11c6 1 9-5 13-9 3-3 0-5-1-7l-1-2-4-18c-1-3-2-3-4-1l-27 34c-1 0-2 1-1 2 0 2 2 1 3 1h11zM397 453c2 0 4-1 5-3l19-24c8-10 8-10-3-16-3-1-5-1-7 2l-25 31c0 1-2 2 0 3l11 7zM259 781h-2l-34 21c-2 2-1 3 0 4l19 13 15 11c-5-17-5-33 2-49zm1274 693c0-2-2-2-3-3l-57-39-40-27a2393 2393 0 00-29-15c-2 2 1 2 2 3a4062 4062 0 0090 61l31 21c1 1 2 2 4 1l2-2zm225-463h-2v27c0 8 1 9 8 9 5-1 3-5 3-8l1-27v-32c0-2 0-5-3-4s-7-1-7 5v30zm-225-452c3 1 4-1 5-3l31-40 15-22c3-3 0-4-2-6-2-1-3-1-5 1l-47 64c-3 4-2 6 3 6zm71 452v1h-14c-9 0-9 0-9 9v2c-1 2 0 3 3 3l37 2c6 0 6 0 6-7v-6c1-3 0-4-4-4h-19zM274 1322l-4-5c-8-9-13-20-17-31-1-3-2-3-5-2s-7 2-8 4c-2 3 1 6 2 10 3 8 5 15 10 22 5 8 9 9 16 5l6-3zm971 178l12 14 43 48c4 4 6 2 8 0 3-3-1-4-2-5-16-20-34-37-50-56-4-4-7-5-11-1zm-516 288c0 2 1 3 3 4l27 9c2 1 3 1 4-1l4-12c0-2 0-3-2-4l-29-11c-1-1-2-2-3 0l-4 15zm730-1156l2-2 54-74c1-2 3-4 0-6s-4 1-5 2l-29 40-24 33c-1 1-3 2-1 4l3 3zm-35-331c-1 0-2 0-3 2l-7 17c-1 1-1 3 2 3 7 1 13 5 19 8 2 1 3 1 4-1l7-14c1-2 1-4-1-5-6-5-13-8-21-10zm305 748l-1-3c-1-1-2 0-2 1l-1 3-15 53a7257 7257 0 00-27 99c0 1-2 3 0 4 2 0 2-2 3-3l1-4 11-39 26-93 5-18zm-289-783c-3-1-4 1-4 3l-6 14c-1 2 0 4 2 4l13 4c3 1 7 6 10 4s4-7 6-10l1-2v-3c-6-7-13-13-22-14zm360 470v-7c0-2 0-4-4-2l-22 10c-2 1-4 2-4 5v12c0 3 1 4 4 3l17-7c9-4 9-4 9-14zM231 888c-4-5-6-10-8-15-2-7-3-7-10-6-3 0-4 1-3 4 1 6 3 11 7 17a952 952 0 0125 1c3 0 3-1 2-4l-5-11c-4-9-4-9-13-8-2 0-4 0-2 4 2 6 6 11 7 18zm294-501c-10 10-22 16-30 27-16 23-33 44-50 66-1 2-3 3-1 5s4 0 5-2l10-13 33-44 12-17 19-14c3-2 3-4 2-8zm851-121c4-1 8-9 7-12l-3-1-44-5c-1 0-3-1-3 1 0 3 6 10 8 11l35 6zm342 498l1 11c0 2 1 4 4 2l15-6c11-4 11-4 10-16v-3c0-3-1-4-4-3l-24 11c-2 1-3 3-2 4zm-114 246l15-1c8 0 8 0 8-8v-3c0-1-1-2-3-2l-41 4c-4 1-3 4-3 7s2 3 4 3h20zM397 406c-3-2-4 1-6 4l-11 15c-3 4-3 7-1 11l2 3c2 4 3 4 5 1l18-23c2-2 6-6 5-9-1-2-7-1-12-2zm947 1178l-17 1c-2 1-2 2-2 3 0 2 1 3 2 3 13-2 25 1 37 0 2 0 3-1 3-3 3-11 3-22 5-34 0-1 2-4-3-4-3 0-4 1-4 4l-4 25c0 3-1 6-6 5h-11zm-55-106l-4 3c-1 1 1 2 2 3l37 39 13 12c2 3 4 1 6 0 2-2-1-3-2-4l-16-17-32-33-4-3zm109-1121c5-1 9 1 13 3 4 1 7 6 11 4 3-2 4-7 6-11l1-2c1-2 0-3-1-4-6-4-11-8-17-9-3 0-5-1-6 2l-7 17zm-42 147l-7 16c-2 3-1 4 1 6l31 25 3 1-28-48zm311 282l1 10c0 2 1 3 3 2l23-9c2-1 4-2 4-4l-1-11c0-2-1-3-3-2l-24 10c-3 1-3 3-3 4zM492 414l-1-2a1218 1218 0 00-15-6l-13 17c-2 2-2 3 1 5l9 5c2 2 4 1 6-1l11-15 2-3zm1279 614h-1v4c0 10 1 21-4 30l-2 6c-1 2 0 4 2 4h15c4 0 5-1 4-5l-11-31-3-8zm-129-224v-3c0-6 0-6-6-4l-17 8c-10 4-10 4-8 14 0 3 1 3 3 2l22-8c4-2 8-4 6-9zM473 792l14-35c1-3 0-3-1-3l-18-3c-3 0-2 1-2 3l4 21c0 6 2 11 3 17zm8-397c0-2-1-1-2-1l-13 2c-7 0-13 2-17 9l-5 6-1 2 3 1 15-1c1 0 2-1 3 1 2 2 2 1 3-1l13-16 1-2zm915-25c-2 0-4 0-4 2l-2 5-4 8c1 3 5 3 8 4l13 6 6-13 1-1-1-3c-5-4-11-6-17-8zm-14 31c-2-1-3 1-4 3l-5 12c-1 2-1 4 1 4 5 1 10 3 14 6 2 2 3 1 4-1l6-12v-5l-16-7zM405 1539v-2l-34-16c-5-2-9-2-14 0l-13 5v1l61 12zm957 11c-4-7-8-4-12-1l-16 12-19 14c4 2 8 6 12 2l35-27zM323 792v-1l11 1c4 1 4-3 5-5 0-3-2-2-4-2l-26-3-16-1c-5 0-6 4-7 6 0 3 4 2 5 2l32 3zm-38-18l-1 1c-3 4-8 7-8 12l-2 12c-2 11-3 21 5 31 1 1 1 4 3 2 2-1 3-3 1-5-1-2-3-3-3-6 0-14-2-29 8-42 2-3-2-3-3-5zm1452 442c3-1 4-4 4-6l16-54 19-68c1-2 3-4 0-5-2-1-2 2-3 4l-6 23-24 84-6 22zm9-828l-2-5-8-14c-5-8-5-8-12-1-1 2-2 3-1 5l14 21c0 1 1 3 2 2l7-8zm-302-135c-3 0-3 4-4 7-2 2-1 4 2 4 7 1 12 4 16 8 6 6 6 6 10-1 1-2 2-4 0-6-6-7-14-11-24-12zm-60 190c0-2-1-3-2-3l-7-3c-9-4-10-4-13 6l-2 5c-1 2-1 3 2 3 4 1 9 2 13 5h2l7-13zm-233 1131c5 0 8-4 6-9l-11-25c-2-4-5-2-7-1-3 1-2 3-1 5l10 28c1 1 1 2 3 2zm204-1071l-1-2c-1-1-12-5-14-4l-1 1c-2 5-6 10-5 15 0 3 6 5 9 7l1 1h2l9-18zM454 1553l8-13c6-9 6-9-3-14l-1-1c-2 0-3-3-5 0-3 3-8 4-7 9l8 19zm895-5c-5 0-5 0-10-4h-3l-23 17 5 2c3 5 7 3 10 0l3-2 18-13zm105-1248l-5-3c-4-4-10-5-15-7s-8-1-10 4c-1 3-1 5 3 6 7 1 13 4 19 8 1 1 2 2 3 1l5-9zm277 712v-28c0-3-1-5-3-5-3 0-2 3-2 4l-1 2 1 39 1 17 1 3c3 0 2-2 2-3 2-10 1-20 1-29zm-436-524v1l26 16c9 6 9 6 14-4 1-4 0-4-3-5-12-3-24-2-35-8h-2zm120-163c-5 0-5 4-6 7-2 2-1 4 2 4 5 1 11 3 15 6 4 4 6 3 8-2 0-2 3-4 0-6-6-4-12-7-19-9zM222 857h10c5 1 7-2 8-7 3-11 3-10-8-11-4 0-6 2-7 5l-3 13zm1147-384l-1-2-12-6c-2-1-4 0-5 2l-4 10c0 2-1 3 2 3 4 0 7 3 11 4 1 1 2 2 3 0l6-11zm381-76c-3 0-7 7-5 10l11 18c1 1 1 4 4 2 2-1 6-3 3-7l-10-21c-1-1-1-2-3-2zm-659 1152c-3 0-6 1-3 5l1 2 10 30c1 2 1 4 4 2 2 0 4-1 3-3l-12-34c0-2-1-3-3-2zm-122 21h-1v-15c1-4-3-3-5-3-3-1-2 2-2 4v26c-1 5 3 5 6 5 3 1 2-3 2-4v-13zm-54-11v-13c0-3-2-2-4-3-2 0-3 0-3 2l-2 29c0 4 4 3 6 3 3 1 2-1 2-3l1-15zM284 822c1 4 3 6 6 6l39 2c1 0 3 1 3-2 0-2 0-4-3-4l-45-2zm632 745v7c-1 5 3 5 5 5 3 1 2-3 2-4v-4l2-21c0-5-3-4-6-5-4-1-3 2-3 4v18zM310 837h19c2 0 4-1 4-3s-2-1-4-1l-37-3c-3 0-5 1-7 3l-2 2c1 2 2 1 3 1l24 1zm-39-22v-6c0-1 0-3-2-3h-12l-1 2c-1 5 0 10 2 14 2 3 6 1 10 1 2 0 3-1 3-4v-4zm1130-456c-6 0-5 4-6 6-2 3 2 3 3 3l15 7c1 1 3 2 4-1 1-2 5-5 1-7-5-4-11-7-17-8zm297 37l3-2 6-8 20-24c2-2 3-4 0-5-2-2-3 1-4 2a685 685 0 00-26 31c-1 1-2 3-1 4l2 2zm51-2c0-2 0-3-2-3-1-1-2 0-2 1l-27 32c-2 2-3 3-1 5 2 1 3-1 4-2l24-28c1-1 4-3 4-5zm-416 1182c22 1 21 6 23-14v-1c0-3-1-3-3-2l-20 17zm72-1176c0-2-1-2-2-3-3-3-7-4-11-6-7-4-7-3-10 4-1 3 0 4 3 5l12 4c1 1 2 4 5 1l3-5zm-31 22c-5 0-5 3-6 6-2 3-2 5 3 5l11 4c2 0 3 3 4 0 1-2 5-5 2-8-4-4-9-6-14-7zm-223 1113c-1 2-5 0-4 4l12 29c1 2 2 2 4 2 2-1 2-2 2-4l-11-29c-1-1-1-2-3-2zm587-1073c2 0 2-1 3-2l13-15 13-14c1-2 1-4-1-6-2-1-2 1-3 2l-24 28-2 3c-1 2 0 3 1 4zm-147 716c1 1 2 0 3-2l1-5c1-2 1-4-3-5l-10-1c-4-2-5-1-6 3-1 7-1 7 5 8l10 2zM385 1496c0-4-2-7-4-5l-17 12c-3 3 0 5 1 7 1 3 3 1 4 0l14-10c1-1 3-2 2-4zm965-1013c-8 0-7 5-9 9-1 3 3 2 5 3l5 2c5 3 7 1 8-3 1-2 4-4 1-6-3-3-7-5-10-5zm433-28l-1-1-11-21c-1-2-3-2-4-1-2 3-4 5-1 9l11 17c1 1 1 3 3 2s2-3 3-5zm-153 1058l-15 16c-1 1-2 3 1 3h14c3 0 4-1 4-4l-4-15zM265 788c-2 0-5-2-7 1s-1 7-1 10c-1 1 0 2 1 2 4 0 8 1 12-1 3-1 2-5 3-7 1-5 0-6-5-6l-3 1zm1095-335c-3 0-3 2-4 4-2 4-2 6 2 7 4 0 6 2 9 4 2 0 4 3 5 0s5-6 2-9c-4-4-9-5-14-6zm218 409l14-5c3-2-1-5-1-8 0-2-2-2-4-2l-12 4c-2 1-2 1-2 3l2 6c0 1 0 2 3 2zm-602 709h-1l1-15c0-2-1-3-3-3s-3 0-3 2v32c0 2 2 2 3 2 3 1 2-1 2-2l1-16zm-607-111c0-2-3-6-5-5l-14 10c-3 3 0 6 1 8s3 0 5-1l11-8 2-4zm-8 39l17-13c3-2 1-4 0-6s-2-1-4 0l-11 7c-7 4-7 5-2 12zm1209-655c0 6 4 5 7 4 3 0 7-1 10-3 4-1 1-4 1-6-1-3-2-3-4-2l-16 6c-3 1-2 3-2 5 1 1 0 3 2 2 3 0 0-3 1-4l1-2zM375 1473c0-2-3-6-5-5l-15 10c-3 2-1 5 0 7 1 3 3 0 4-1l13-8c1-1 3-1 3-3zm87-703c1-1 4 1 5-2 0-3-3-3-5-3h-1l-22-3c-1 0-3-1-3 2 0 2 0 4 3 4l23 2zm-65 9c-4-1-5 0-4 4 1 3 2 4 5 4l12 2c2 0 4 0 3-3 0-3 1-6-3-6l-13-1zm965 774c-3 2-4 5-4 8 1 5 0 9-1 14-1 3-2 5-6 4-6 0-13 1-20-1-2 0-3 1-3 3s1 1 2 1h14c15 0 14 4 16-13l2-16zm435-280l-9-10c-2-2-3-1-4 1l-4 12c-1 3 0 3 2 3l15-6zm-25-193h11c2 0 2-2 3-3 0-2-1-3-2-3h-20c-3 0-3 3-3 4 0 3 2 2 3 2h8zm-634 584l-11-23c-1-1-2 0-3 1-2 0-2 1-1 2l9 21c1 2 2 2 4 1l2-2zM378 778c-2 1-6-2-6 2-1 5 3 6 6 6h10c2 0 5 2 5-2 0-3-1-6-5-5l-10-1zm-107 3c4 1 6-2 8-4 2-3 2-4-2-5h-18l2 4c2 4 6 5 10 5zm832 868c-1 1-5 0-4 3l8 21 2 1 1-2c0-7-1-14-4-20-1-2-1-3-3-3zm493-1205l14-19c1-2 1-4-1-6-2-1-3 1-4 2l-10 14c-2 3-3 6 1 9zM249 779h6c2 0 4-1 4-4-1-3-2-4-5-4h-12c-1 0-2 0-2 2 0 7 4 6 9 6zm115 669c-2 0-1-5-4-3l-14 9c-4 2-1 4 0 6s2 0 3-1l12-7c1-1 3-1 3-4zm1223-261c4 1 4-2 5-4 1-3-2-3-4-3l-11-3c-4 0-3 3-4 5s0 3 2 3l12 2zm-588 483v-5l-1-3c-2 0-2 2-2 3l-1 19c-1 5 3 4 5 6 1 0 3 1 3-1 0-3 2-7-1-9-4-1-3-3-3-5v-5zm627-1268l14-20 1-3-2-2c-1-1-2 1-2 1l-12 16c-2 3-2 5 1 8zM278 836c-2-8-2-8-10-8h-5c-2 0-3 1-3 4 1 2 0 4 4 4h14zm1303-372l1-1 7-10 4-6c1-2 0-3-1-5-1-1-1 0-2 1l-11 15c-1 2 0 6 2 6zm-355 1141c-3 0-4 2-3 6a1104 1104 0 0010 13c1-1 3-1 2-4l-6-12c0-2-1-3-3-3zM187 704c2 0 3-1 3-3 0-3-1-3-3-3l-14-2c-2-1-3-1-3 2-1 2 0 3 2 4l15 2zm1457 115c-6 0-11 3-10 5s0 7 4 6c3-1 9 1 9-5 1-2 1-6-3-6zm-592 846l2 18c0 3 2 2 4 2 1 0 3 0 2-3a2585 2585 0 00-7-21c-1 1-2 2-1 4zM380 411h-2c-3 0-6 3-6 4-1 4 1 8 3 11 1 1 2-1 2-2l5-8c1-1 4-2 2-4l-4-1zm3 1109l1 1c2 1 3 4 7 2l12-11c-3-1-4-4-7-2l-13 10zm717 157c-3 3-8 0-8 4-1 3-1 9 3 9 3 1 8 0 8-4 1-2 0-6-3-9zm-729-162c4 0 5 4 8 2l11-8c2-2 0-4-1-5 0-2-1-2-2 0l-16 11zm830 122l-8-19h-3c-1 1-2 1-1 2 2 6 4 13 8 19 2 1 4 0 4-2zm17-21l5 11c1 2 3 0 4 0 1-1 3-1 2-3l-9-15c-1-2-3-1-4 0s0 3 1 4c1 0 3 0 1 3zm428-421c4 1 4-3 5-5 1-4-2-3-4-3l-6-2c-2 0-3 0-4 2-2 6-2 7 4 8h5zM184 1328l-12 5c-3 2-1 5-1 7s1 2 3 2c7-2 10-6 10-14zm1466-494c-1-1 0-5-3-4-4 1-9-1-10 4-1 2 0 6 3 7 4 0 10-4 10-7zm-26-430c-1-1 0-3-2-4l-2 1-10 14c-1 2 0 4 2 5s2-1 3-2l7-10 2-4zM521 387c0-2-8-7-10-6-3 2-4 5-4 8 1 2 4 4 6 4 1 1 8-5 8-6zM359 777c-1 0-4-1-5 1s2 3 4 5c3 2 6 1 9 2 2 0 4 0 4-3s0-4-3-4l-9-1zm855 857c-2 2-7 1-7 5 0 3 1 8 5 9 1 0 7-1 6-4 0-3-1-7-4-10zm-858-584h2c3 0 6 0 5-5 0-4-3-3-5-3l-7 1c-2 0-3 1-3 4 1 5 5 2 8 3zm-182 327a1131 1131 0 00-21 8c-1 0-2 2-1 3 1 2 2 1 4 1l16-9c1-1 2-1 2-3zm872 297v-9c0-1 0-3-2-3s-3 1-3 3l2 19 1 3c2-1 2-2 2-3v-10zm576-157l-7-5-7 7c1 4 5 4 7 5 1 1 7-5 7-7zm-672 137l1-8c0-2-1-2-3-2h-3l1 3c0 1 2 2 0 3-3 3-2 6-2 10 0 2 3 2 4 3 3 0 2-2 2-3v-6zm107 10l4 18c1 2 3 2 4 2 3-1 2-2 1-4l-3-8-3-10c0-1 0-2-2-2l-1 4zm-48 2c-1 0-3-1-3 1v12c0 2 2 2 3 2 2 0 2-1 2-3v-17c0-1 1-3-1-3l-3 1v5c1 0 2 0 2 2zm32 21l-1-23-2-2c-2 0-2 1-2 3v15c0 3 1 5 5 7zm609-502c2 1 2-1 3-3 0-1 2-3 0-4l-10-2c-4 0-3 3-4 5-1 1 0 2 2 3l9 1zm-602 477l-1 21c0 2 0 3 3 3 4 0 3-2 3-4l-2-12c-1-3-1-6-3-8zm142-6l-1-5c0-5-6-3-7-6 0 0-2 0-2 2l4 11c0 2 1 2 3 1 1 0 3 0 3-3zm379-1177l2-1 8-10c1-2-1-4-2-5-2-2-2 1-3 2l-7 9c0 1-2 2-1 3l3 2zm-408-61c2-1 3-4 3-6-1-4-5-5-8-5-3-1-3 3-4 5 0 2 6 6 9 6zM394 1526l2 2h4c4-3 8-5 9-10 0-1 2-1 1-2-1-2-3-1-4 0l-11 9-1 1zm523 126l1-15c0-1-5-3-6-2l-1 12c5 0 5 3 6 5zm253-1v-1l-11-19c0-1-1-2-2-1v2l3 6c1 5 4 9 6 14l2 1 2-2zm430-483c-4 1-3 6-4 9-1 4 2 3 4 3 6 0 3-5 4-8 2-3-2-3-4-4zM500 358c-1-2-3-4-4-3l-9 9c-1 1 0 2 1 2 1 1 3 3 4 1l8-9zM310 709c-2 0-4-1-5 2 0 1 0 3 2 3l12 2c2 0 3-2 3-3 1-3-2-2-3-3l-9-1zm665 948v-4c0-4-2-4-5-4-3-1-2 2-2 4s-2 6 3 6l1 2c0 2-1 4 1 4s1-3 2-4v-4zm1 3v10l2 2 2-2v-18l-2-2c-2 0-2 1-2 3v7zm200-1242c0-2-8-7-9-6-3 1-3 4-3 6 1 3 4 3 6 4 4 2 6 0 6-4zm56 1167c-3 2-8 2-8 6l-1 9c0 1-1 2 1 3l3-2 5-16zm-259 62l-4-14c-1-2-3-1-5-2l-2 1c0 4 7 14 11 15zm148 12c-3-3-3-9-6-13-1-2-3-1-4 0v2a717 717 0 018 14c1 0 2-1 2-3zm51-35c-1 1-4 1-3 3l5 11c1 2 2 2 4 2a393 393 0 00-4-14l-2-2zm457-606l1 8c0 2 1 2 2 2l2-2a593 593 0 00-2-15c-2 0-3 0-3 2v5zM495 1512l-1-2c-6-1-10-5-15-7-2-1-3-1-4 1v2l16 7c2 1 3 0 4-1zm667-1086c0 5 5 4 7 5 1 1 3 2 4 0 0-2 2-4-1-6l-5-2c-3-2-5 0-5 3zm-1-2c1-3 0-4-2-5-3 0-5-3-7-2s-3 5-2 6c2 3 6 4 9 4 2 1 1-2 2-3zm-661-78h-22l9 4c6 3 9 1 13-4zm589 1332l-5-15-3-1-1 2a589 589 0 007 15l2-1zm39-18l-7-15c0-1-1-2-2-1-2 0-2 1-2 3l4 8c1 3 2 6 7 5zm86-29l-5-11c-1-2-2-1-3-1-1 1-3 1-2 3 2 4 3 8 6 11l3 1 1-3zm-312-15c4 6 3 15 12 16-5-5-1-15-12-16zm158 114v-7c0-2-1-3-3-3-2 1-4 2-3 4l1 5c1 2 0 7 4 6 4 0 0-4 1-5zm-38-86l3 10c0 2 1 5 3 5 3 0 1-4 2-6 1-8 0-8-8-9zm140-65c-2-2 0-6-4-6-3 1-7 1-7 4 0 2 1 6 4 5 3 0 6 0 7-3zm-70 17c1 2 0 6 3 6 2 0 6 0 6-4 0-2 1-6-3-6-3 0-6 0-6 4zm-57 73v-5c0-2-2-3-3-3l-2 2v12l2 2c2 0 2-1 3-2v-6zm-58-34l3 6 2 7c1 2 3 3 4 2 3-1 1-3 0-4l-3-8c-1-3-3-4-6-3zm-53 8v-4c0-2-1-2-2-2l-2 1a533 533 0 001 16c2 0 2-1 2-2l1-9zm171 33l-5-15c0-2-2-1-3-1l-1 3 6 14 2 1c1 0 2-1 1-2zm-108-40c-2 0-3 0-2 2 1 4 3 9 6 13l2 1c2-1 1-2 1-3l-4-10c0-2-2-3-3-3zm-57 9l-1 20c0 3 2 2 4 2 2 1 2-1 2-2 0-2 2-5-3-6l-1-3c0-3 2-7-1-11zm725-449l4-1c2 0 5-2 5-4s-3-2-5-2l-4-1c-4 0-3 3-3 5-1 3 1 3 3 3zm-699 453v-1c0-1 1-3-2-3-2 0-2 2-2 3l-1 13c0 2 1 3 2 3 2 0 2-1 2-2l1-13zm62 18v5c0 2 2 2 3 2s2 0 2-2v-9c1-2-1-2-3-3-2 0-2 2-2 3v4zm6-11l-4-12-2-1-2 1 4 13 3 1 1-2zm551-489c1-3 0-4-2-4-5 0-5 4-6 7 0 3 1 4 3 4 6 0 3-5 5-7zm59-164c-2-2 3-7-3-7-5 0-2 5-2 7s-2 7 2 7c5-1 2-5 3-7zm-486 637c-2 0-1 2-1 3l5 14c1 1 1 2 3 1s2-2 1-3l-6-14-2-1zm-255-4v-5l-1-3c-2 0-3 2-3 3l-1 9c0 2 0 3 2 3 3 0 3-1 3-3v-4zm149 21c0 1-1 2 1 3 2 0 3-1 3-3l2-8c1-1 1-3-1-3-2-1-3 0-3 2l-2 9zm733-384c5 1 4-3 5-5 1-3-2-4-4-4-5-1-4 4-5 6-1 3 3 2 4 3zm-764 383c0-5-2-9-3-13-1-2-2-2-4-2-2 1 0 2 0 3l2 7c0 3 2 5 5 5zm18 12v-5c0-2-1-2-2-2l-2 1a497 497 0 001 14c2 0 3-1 3-3v-5zm7-18c-1-2 2-5-2-5-3 0-2 3-3 5v6c0 2 0 3 2 3s2-1 2-3l1-6zm-154-20c0-2 2-5-2-5-2 0-2 2-2 4l-1 8c-1 1 0 2 2 2 1 1 2 0 2-2l1-7zm98 17c-1-5-3-9-6-13l-2-1-1 1c2 4 2 9 5 13l3 1 1-1zm-802-263l-1-1c-8 2-14 7-20 10-1 1-2 1-1 2h2l20-11zM1715 353l-3 1c-1 1 0 2 1 3l2 3c2 3 3 3 5 0 1-2 4-3 3-5s-4-1-6-1l-2-1zm-698 1301l-3-10c0-2-1-2-3-2-1 0-2 1-1 2l3 11c0 1 1 2 3 2l1-3zm-123-12c0 1 0 3 2 3s2-2 2-3l1-9c1-2 0-3-2-3s-2 1-2 2l-1 10zm767-454c2 0 3 1 3-2 0-4-3-5-6-6s-4 3-4 4c1 5 5 2 7 4zm-460 421l-1-6c0-1 1-3-2-2-1 0-3 0-3 2l1 6c0 2-1 5 2 5s3-2 3-5zm-197 43l-3-11c0-2-2-2-3-2-2 1-1 2 0 3l2 10 3 2c1 0 2 0 1-2zm118-1260c-2-1-3 0-3 1l1 3a693 693 0 0015 4l-1-2-12-6zM897 1614c1 6 3 10 5 14 1 1 2 3 4 2 1-1-1-2-1-3l-3-9c-1-2-2-4-5-4zm8 24v-3c0-2 1-3-2-4-3 0-2 2-2 4l-1 5c-1 3 0 4 3 4 2 0 2-2 2-3v-3zm0 17c2-4-1-5-3-5-4 0-2 3-3 4-1 4 2 6 4 6 4 0 2-4 2-5zm122 35c2-5-2-4-4-4-3-1-3 1-4 3 0 4 3 4 6 4 3 1 2-2 2-3zm626-863c1-2 5 1 5-3s-4-4-8-5c-1 0-2 1-1 2 0 2-1 6 4 6zm-770 811c-1 1-1 3 1 3 3 1 2-1 3-3l1-9-2-2c-2-1-2 1-2 2l-1 9zm339-48c-5 1-6 4-5 8l1 5 1 2 2-2c0-4 2-8 1-13zm-128 68c-2 1-2 2-2 3a1465 1465 0 007 16v-3l-4-14-1-2zm-133-66c-1 4 3 4 5 4 3 1 3-2 3-4 0-4-4-3-7-4-2 0-1 2-1 4zm-46-8c0 4 3 4 5 4 4 1 2-3 2-4 1-4-3-3-5-4-3 0-1 3-2 4zm682-395c4 1 4-2 4-4 1-4-2-3-4-3-4-2-3 3-4 4-1 4 3 2 4 3zm-475 446v-1c0-2 1-4-2-4-2 0-4 1-3 4v5l2 2 3-2v-4zm93-42c-8 3-2 8-3 11 0 1 1 3 3 2 1 0 2-1 2-3l-2-10zm-302 64c0-3-1-5-3-5-4 1-3 4-3 6-1 4 2 4 4 4 3 0 1-4 2-5zm195-10l-1 1 5 15 2 1c1 0 2-1 1-3l-7-14zm-55 9l1 3c2 0 3-1 3-2l2-9c0-1 1-3-1-3-1 0-2 0-3 2l-2 9zm12-9l-1-2c-1-1-3 0-3 2l-2 8c0 1-1 3 1 3s3-1 3-2l2-9zm40-48c1-1 4-1 4-3-1-2 0-6-3-6-2 0-5 0-4 2 0 2 0 5 3 7zm-68 55v2c0 1-1 3 1 4 2 0 2-2 2-3l2-9c0-1 1-3-1-3s-3 1-3 3l-1 6zm79-1238h-2l1 2a718 718 0 0015 5l-1-2-13-5zM914 1582c1-4-3-3-5-4-3-1-3 2-3 4 0 4 3 3 5 3 3 1 3-1 3-3zm722-742c-1-2 1-6-3-7-1 0-4 1-3 3s-1 7 4 7c1 0 3 0 2-3zm-679 818c5-2 5-5 5-9 0-2-1-2-3-3-2 0-2 1-2 3v9zm-596-156c6-2 19-12 20-16-7 6-14 9-20 16zm860 149c-1-2-1-5-3-4s-6 1-6 5c0 1 0 3 2 2 3 0 6 0 7-3zm-197-48c0-4-4-4-7-4-2-1-2 0-2 2 0 5 4 3 7 4 1 1 2 0 2-2zm-42 70c2-7 1-14 1-21-2 7-3 14-1 21zm107-28c0-2 2-4-1-5-2 0-3 2-3 4 0 3-3 7 1 8 5 0 3-5 3-7zm88-36l-2 1c-1 2 2 10 4 10 1 0 3 0 2-3l-1-5c-1-1 0-3-3-3zm-148-56c-1-3 0-5-3-5-2 0-5 0-4 3 0 3 2 4 4 4 3 1 3-1 3-2zm121 71v1c0 2-1 4 2 4s3-2 3-4l-1-5-1-2c-2 0-3 1-3 2v4zm61-19l-1-6c0-1 0-3-2-2-2 0-2 1-2 3l2 7 2 2c1-1 2-1 1-4zm-73 25l-1-2c0-2 1-4-1-4-3 0-3 2-3 4v5c0 1 0 2 2 3l3-3v-3zm31-54c-2-1-1-5-4-5-1 0-4 0-4 2 1 2 1 6 4 6 2 0 4 0 4-3zm-30 51v2c1 2-1 5 2 4 3 0 3-2 3-4l-1-5-1-2c-2 0-3 1-3 2v3zm492-796c1 0 3 1 3-1-1-3 0-7-4-7-1 0-3 1-3 3s0 5 4 5zm157 249c0 1 0 3 2 3 5 0 3-4 4-7 1-1 0-2-2-2-4 0-4 3-4 6zm-189-227c-2-2 0-7-4-8l-3 2c2 3 1 7 4 8 1 1 3 0 3-2zm-405 803c1 0 3 0 2-2l-3-8c-1-2-2-1-3-1-2 0-1 2-1 3l3 7 2 1zm-196-3c0-5-1-10-3-14l-2-1-1 2c2 4 2 9 6 13zm197-41l-1-6c0-1 1-3-2-3-1 0-2 1-2 3l1 6c0 2-1 3 2 3 2 0 2-1 2-3zm-179-58c2 0 4 1 4-2 0-2 0-4-3-4-2 1-5-1-5 3s3 3 4 3zm32 102l1 3c2 0 2-1 3-2l2-8-1-3c-2-1-3 1-3 2l-2 8zm524-477c0-3-2-2-4-3-3 0-3 2-3 5-1 2 2 3 3 3 4 0 3-3 4-5zm-422 499c2-2 6 0 7-4 1-1 0-3-2-2-3 1-6 0-7 4-1 0 0 2 2 2zm-231-47l-6-12-2-1v2l6 13h1l1-2zm46 41c0-3-2-4-4-4-3-1-2 2-2 4-1 3 0 4 3 4 4 1 2-3 3-4zm36-1v6l1 2 2-2v-7c0-2 1-6-2-6s-1 4-1 5v2zm110-34h1v4c0 2 1 2 2 2 2-1 2-2 2-4s0-5-2-7l-2 2-1 3zm-31-93c-1 1-4-1-4 2 0 2 0 4 3 4 2-1 5 0 5-3 0-2-1-4-4-3zm11 149l-7 3c-1 1-2 2-1 3h2l7-2 2-2c0-1-1-2-3-2zm9-50c-1-2 2-5-2-5-3 0-2 3-2 5v3l1 3c2 0 3-1 3-3v-3zm102-22l-2 1 5 13 2 1c1-1 2-1 1-3l-6-12zm-97 70l-1-1c-1-1-9 2-9 3l1 2c2 2 3 0 5 0 2-1 4-1 4-4zm-31-43c0-2 1-4-1-4-2-1-2 1-2 3l-1 6c0 1-1 3 1 3s2-1 2-2l1-6zm-918-298c4-3 9-4 13-6l1-1c-1-1-2-2-3-1a827 827 0 00-13 7l2 1zm872 251c-2-1-3 0-3 2 0 3 2 4 4 4s3 1 3-2-1-4-4-4zm135 24c2 0 4 0 3-2l-2-5c0-1-1-4-3-3s-1 3 0 5c0 2 0 4 2 5zm-53 14c-1-2 1-5-1-5-4 0-3 3-3 5v3c0 1-1 3 1 3s3-1 3-3v-3zm61-19c-1-2-1-6-4-7-2 0-3 1-2 2 1 3 1 7 4 8 2 1 2-1 2-3zm31-16v4c0 1 0 3 2 3s3-2 2-4l-1-6c-1-1-1-3-2-2-2 0-1 1-1 2v3zm-265 48c-2-2 2-6-2-6-3 0-2 4-2 6s-2 6 2 7c2 0 0-5 2-7zm699-465c0-2-1-3-2-3-4 0-3 4-4 6-1 1 0 3 2 3 4 0 2-5 4-6zm-743 425c0 6 3 11 4 15l2 1 1-1c-2-5-3-10-7-15zm336 35c0-1-1-3-3-3s-4 0-4 3c0 1 0 4 2 4 2-1 4-1 5-4zm-160 2v-2c0-1 1-2-1-3l-2 2-1 8c0 1-1 3 1 3l2-2 1-6zm87-27v2c0 1-1 4 2 4 3-1 3-3 2-5l-1-5c-1-1-1-2-2-1l-1 2v3zm-246 16c-1-2 1-4-1-5-3 0-2 3-2 5s-3 6 1 7c2 0 2-4 2-7zm222-5l-1-5-1-2-2 2v8c1 2 2 2 3 1l1-4zm58-20l-1-6c0-1 0-2-2-2-1 1-3 1-2 3l1 5c1 2 1 4 2 3 2 0 2-2 2-3zm-262 36c-1-2 1-5-2-5-2-1-1 3-1 5s-2 6 1 7c2 0 1-5 2-7zm229-12h-1l6 16c0 1 0 2 2 1v-2l-7-15zm-797-195l-1-1c-6 3-12 6-16 12l17-11zm731 204c1 1-1 4 1 4 3 0 2-3 2-4l1-3c-1-1 1-4-1-4-3 0-3 2-3 4v3zm50 17l-6-15-2-2-1 2c3 5 4 10 9 15zm-777-210v-1c-6 3-12 6-17 11l1 1 16-11zm812 166l-3-8h-2l-1 3a333 333 0 004 8c1-1 2-1 2-3zm-98 24h-2l-1 9c0 1 0 3 2 3 1-1 2-1 2-3l-1-9zm558-469c-3 1-3 4-3 6-1 2 1 2 2 2 3 0 3-3 4-5 0-2-1-2-3-3zm-487 452c-2-2 1-6-2-5-4 0-2 3-2 5v3l2 2 1-1 1-4zm15 43c-1 2-5-1-6 3 0 1 1 3 3 2s5 0 5-3c1-1 0-2-2-2zm-131 22c0-1 1-4-2-4-4 0-2 3-2 4-1 2 0 4 3 4 2 0 1-2 1-4zm94-56c0-5-1-7-2-7-3 2-1 5-1 7 0 1-1 4 1 4 3 0 2-3 2-4zm-622-136l1 1 15-15c-7 3-11 9-16 14zm-137 14l1 1c6-4 12-8 16-13l-17 12zm622 179c1 0 3 0 3-2 0-3-3-3-5-4-2 0-3 0-3 2 0 3 3 3 5 4zm126-1287c5 4 10 6 15 7-4-4-9-6-15-7zm542 424c0-1-1-2-2-1-2 0-4-1-5 2 0 2 0 5 2 4 3 0 4-3 5-5zm-342 742c3-2 3-4 2-5-3-3-5-3-10-1 5 1 7 3 8 6zm-212 69c0-1 1-4-1-4-3 0-1 3-2 5v2c0 1 0 3 2 3 2 1 1-2 1-3v-3zm-735-175l-17 11 1 2c5-5 12-8 16-13zm26 44l-1-1c-5 4-10 6-14 11l1 1 14-11zm687 145l1-10c1-1 1-2-1-2-1 0-2 0-2 2 0 3 0 6 2 10zm-112-60c0 2 0 3 3 3 2 0 3 0 2-2 0-2 0-4-3-4-2 0-2 1-2 3zm52 100c-2 0-2 1-2 2 1 3 2 4 5 4 2 0 2-1 2-2 0-4-3-3-5-4zM272 825h-12l-1 1 2 1c4 0 8 0 11-2zm817 718c-1 1-4-1-4 2 0 1 0 4 2 3s5 0 5-3c1-2-1-3-3-2zm95 75l2-1c-1-3-1-7-3-9h-2c-1 1 2 10 3 10zm9 44c-1-1-1-3-3-2-2 0-5 0-5 3 0 1 2 3 3 2 2 0 4 0 5-3zm-197 28c-1-1-2 0-2 1 1 4 5 3 7 4l2-1c-1-3-5-3-7-4zm-591-176c-5 3-10 6-13 11l13-11zm754-1083v-1l-9-3c-1-1-1 0-1 2l10 3v-1zM967 1652c-1-1 0-4-2-4s-1 4-2 6l1 3c3 0 2-3 3-5zm377-115l5 4c1 0 2 3 4 1 1-2-1-3-2-4-2-2-4-1-7-1zm0 4l-3 1c1 2 3 4 5 3l3-1c-1-3-3-3-5-3zm-203-8c-2 2-5 0-6 3l2 2c2-1 5 0 6-3 0-2-1-2-2-2zm432-672l-2-6-2-2-1 2 3 7 1 1 1-2zm-661 805c0-3-2-3-4-3-1-1-2 0-2 1 0 3 1 3 3 3 2 1 3 1 3-1zm295-50c0-1 0-3-2-3l-4 2c0 2 1 3 2 3 2 1 3 0 4-2zm-213 41c0-3-2-3-3-4-2 0-2 1-2 2 0 3 1 4 3 4s2-1 2-2zm-829-321c-7 1-10 3-12 7l12-7zm737 330c2 0 2-1 3-2 0-3-2-3-4-3-1-1-2 0-2 2s1 3 3 3zm-406-157c4-2 7-4 8-8-3 2-7 4-8 8zM260 785h11c-4-1-7-2-11 0zm716 764c-1-2-2-2-4-2l-2 2c0 3 2 2 3 3 2 0 2-1 3-3zM435 795c1 0 3 1 3-2 0-1-1-2-3-2s-3 0-4 2c0 2 2 2 4 2zm531 879c0 1-1 4 2 4 2 0 1-2 1-3 0-2 1-5-1-5-3 0-2 3-2 4zm173-38c-1 1-4 0-3 2 0 1 0 4 2 4s3-1 3-3l-2-3zm-267 41l-3-7-3-1c-1 1 0 2 1 3l5 5zm253 8l-2-2c-2 1-5 0-5 3 0 1 1 2 2 1 2 0 4 0 5-2zM607 365h-1l5 6c1 1 2 2 3 1s0-3-1-3l-6-4zm970 661c2-5 2-9 0-13v13zM411 1534c4-1 6-5 9-8l-9 8zm522 139c1 0 2-1 1-2 0-2-2-2-3-3-2 0-2 1-2 2 0 2 2 3 4 3zm281-60c0-1 0-3-2-3-1 0-3 1-3 3 0 1 0 2 2 2 1 0 3 0 3-2zm-250-66c-1 0-3-1-3 1 1 3 3 2 5 2l2-1c0-3-2-2-4-2zm67 149c-2 0-2 1-2 2 0 2 1 3 2 3 2 0 3-1 3-2 0-2-2-3-3-3zM270 804v-1h-13v2l13-1zm879 727c-1 1-4 0-4 3l3 1 4-3-3-1zm-60 126c-1-1 0-3-2-3s-3 0-3 2c1 1 1 3 3 3l2-2z"/>
	<path d="M578 250c-4 7-10 13-16 19l-9 11c2-5 6-9 9-12 6-6 9-13 16-18zM645 355c13 8 26 13 39 20l4 2c1 2 1 3 3 2 1-2 0-3-1-4l-13-8c-2-1-4-2-6-5l16 8c-6-10-15-15-23-21l13 8c-2-5-5-8-8-11-3-2-6-3-7-7 0-1-1-3-2-1-2 2-4 1-6 1v1c2 1 4 3 3 5-2 2-5 1-7-1l-15-11c8 2 12 8 20 11-3-8-10-11-16-16 4 0 6 3 9 4l6 4c1 1 2 2 3 0v-3c-9-4-15-13-27-11-6 1-12-3-16-9l4 2c6 4 13 6 21 5l4 1c16 10 29 23 39 38 4 6 9 9 11 15 1 2 3 3 1 6-1 2-3 1-5 1-4 0-8-2-13-1 1 4 4 7 7 8 3 2 7 3 10 6-7-4-16-4-18-14l-2-1c-16-3-27-12-33-28l-4-6c0-1-1-3-3-2-2 0-3 2-3 4l1 3-1 2-1-1c-3-5-5-9-5-14 1-7-3-11-8-15-1-2-4-3-4-5 6 2 10 8 14 13 2 3 0 7 0 10 1 2 0 3 2 4l3-1 1-4c-2-3-3-5-3-8l6 9c4 6 11 6 15 10 2 2 2-2 3-2 1 1 2 3 1 4h-4c-3-1-5-4-9-4 0 3 1 6 4 7l1 4c9 13 22 19 38 20-1-3-3-3-5-4l-25-13c-3-2-7-3-9-7zM614 313c-2 0-3-2-3-4l-3-8-1-4-2 1c-1 2-2 4-1 5 6 6 2 11-1 17l3-6c0-3 2-7-3-9v-4-3c-2-2-1-6-4-7-2 0-3 3-5 5l-6 5-1-1c9-7 11-18 17-26 2-2 4-7 7-5s3 6 1 10c-3 9-3 18 1 27l1 7zm-4-42c-4 5-8 8-9 13-1 2 3 8 4 9l2-1c0-6 4-12 3-21zM591 333c-4-3-7-6-9-11-1-3-4-6-7-9-6-8-10-16-11-27 0-1 0-3 2-4s2 2 3 3l6 8c1 2 2 3 4 3l7 4c-4 0-9 0-12-3l-7-10c0 9 4 17 10 23l8 11 4 7 2 5z"/>
	<path d="M596 306c0 2-2 4-4 4s-4-1-4-3c0-3 2-4 4-5 2 0 3 2 4 4zM774 433c-7-7-11-16-17-23l1-1 16 24zM774 433c5 6 11 12 14 20l-14-20zM597 323c0-3 3-5 3-7 1-3 3-5-1-7l2-2 1 2c1 6-1 10-5 14zM699 410c-3-3-4-7-3-12l3 12zM1500 1599c1-2-1-4-3-6l-14-12c-1-1-2-2-4 0-2 1-4 3-2 5 4 6 10 11 15 16h2c1 0 2-2 3 0 1 1 0 2-1 4l-14 14-3 3-2 1v-2c2-3 1-5-1-6l-14-14c-2-1-3 0-5 1 0-4 2-6 4-8l27-28c2-2 3-7 7 0 5 6 12 10 18 15 3 2 3 3 1 5l-9 10-5 2zm-9 7l-1-3-10-9c-7-7-7-7-14 0l-2 2c-2 2-2 3 0 5l16 14 2 1 9-10zm20-21c0-2-1-2-2-3l-11-9c-7-6-7-6-13 1-2 3-2 4 0 6l11 10c7 6 5 6 12-1 1-1 3-2 3-4zM1430 1538l-20 21-1-1c3-4 1-7-2-9l-69-63c-3-2-4-4 0-6l7-7c2-2 4-2 6 0l70 64c3 3 6 1 9 1zm-7 4l-2-3-71-63c-1-1-3-1-4 1l-4 3c-3 2-3 4 0 6l67 63c1 1 3 4 5 2 4-2 7-6 9-9zM1466 1500c5-3 3-5 0-8l-50-40-22-16c-3-2-3-4 0-6s4-6 8-6c3-1 5 3 7 5l68 54 4 2c1 0 2-2 3 0l-2 3-11 11c-1 1-2 2-5 1zm13-14l-4-2-48-38-24-18c-4-3-5 2-7 3-2 2 1 3 2 4l70 57c1 1 3 3 5 1 2-1 4-3 6-7zM1448 1520c3-5 0-7-3-9-19-17-40-32-60-49l-11-8c-3-1-5-3-1-6 4-2 6-7 10-7 3 0 6 5 9 7l65 53 3 1c5 2 4 5 1 7-5 3-7 8-13 11zm5-6c2-2 5-4 6-7 2-3-2-4-3-5l-73-58h-1c-3 2-6 4-7 7-1 2 3 3 5 4l4 4 64 52 5 3zM1430 1538c-4-9-13-14-20-20l-55-46c-3-3-4-5 0-8l4-3c5-5 5-5 11 1l70 58c5 4 5 4 0 9-2 2-5 4-6 8l-4 1zm11-13l-2-4-68-56c-7-6-7-6-14 1-1 2-2 3 0 5l15 13 54 46c2 1 4 4 7 2l8-7zM1500 1495c-1-3 0-5 3-7l10-10 3-2v3c-1 2 0 3 1 4l19 16c1 1 2 2 3 1s2-2 3-1 0 3-1 4l-12 11c-1 1-3 3-3-1 0-2-1-3-3-4l-17-15c-3-3-3 2-6 1zm13-11l-1-1-5 6c-1 3 1 4 3 5l14 12c5 4 6 4 11-2v-3l-19-16-3-1zM1448 1593c2-3 0-4-1-6l-15-14c-2-2-4-4-5 0h-2l-1-1c2-2 1-5 3-6l13-13c1-1 1-2 3-1l1 3c-1 1 1 2 1 3a1967 1967 0 0018 16c1 0 3-2 4 0 0 2-2 3-3 4-5 5-9 11-16 15zm-7-35l-2 1-8 8c-2 2 0 2 1 3l10 10c12 10 7 9 18-1 2-2 2-4-1-6l-15-14-3-1zM1508 1533c-1-6-5-8-8-11l-6-6c-3-4-6-9-11-1v-5a673 673 0 0114-12c0 4 4 6 6 7 6 5 10 11 18 13 2 1 1 2 0 3l-13 12zm-13-30c-3 0-4 2-5 3-2 2 0 3 1 4l18 15c3 3 4-1 6-2 3-2 1-3 0-5l-19-14-1-1zM1538 1561l-17 15c2-3-2-5-5-8l-11-8-2-2c-5-2-5-2-1-5l9-10c2-1 4-3 3 1l2 4 15 13c2 2 4-1 7 0zm-27-13c-3 1-5 3-6 6-2 2 1 2 2 3l14 13c2 2 4 2 5 0l3-3c2-2 2-3 0-5l-16-13-2-1zM1484 1558v1l-13 13h-3c-1-7-7-9-11-13-3-3-6-7-11-8-2 0-3-2-1-3l12-12c1-1 2-2 4 0 5 8 13 13 21 19 1 1 2 1 2 3zm-27-19l-6 7c-2 2-2 3 0 5l13 11c7 7 8 7 14-1l1-1c1-1 1-3-1-4-5-6-11-10-17-15l-4-2zM1517 1540c3-7 9-11 13-16 3 6 8 8 12 12l7 6c1 1 3 2 4-1 1 0 2-2 3 0v3l-13 13c-1 1-3 2-3-1s-2-4-4-6l-10-9c-3-2-5-4-9-1zm12-11l-5 5a580 580 0 0017 17c3 3 4-1 6-2 1-1 3-2 1-5l-17-14-2-1zM1465 1533c-1-6 4-8 7-12 5-6 5-6 12-1 7 6 12 12 19 16 2 1 1 2 1 3l-11 11c-1 2-3 2-4 0-5-8-13-13-19-19-3-2-4 0-5 2zm35 6c0-2-1-2-2-3l-13-12c-7-6-7-6-13 0-2 3-2 4 0 6l16 14c2 1 3 3 5 2l7-7zM1528 1635l-1 2c-5 4-10 9-14 15l-2 2-2 1v-3c2-2 0-4-2-5-3-2-6-7-11-7v-3a1194 1194 0 0118-14c1 4 6 6 9 10l3 1c1-1 2 0 2 1zm-5 2v-1c-1-2-10-9-12-9l-3 1c-9 9-9 9 0 17 1 1 2 3 4 2 2 0 11-9 11-10zM1466 1668c1 8 8 13 15 17l-16 18c-2-10-10-14-19-16 8-5 14-11 20-19zm10 19c0-3-3-4-5-6-6-7-7-7-13-1l-4 4c0 2 11 13 13 13l9-10zM1559 1540a6721 6721 0 01-19-19h-2c-1 0-3 2-4 0l2-3 10-10c2-2 3-2 4 1v1c6 5 11 12 18 16 3 1 3 1 1 3l-10 11zm-12-29c-3 1-4 4-5 5-2 1-2 3 0 4l16 14c4 2 5-3 7-4 2-2 0-3-1-4l-15-13-2-2zM1424 1659c-3-1-5-4-8-7-5-4-4-4-9-1-1-2 1-2 2-3l16-18c2-2 2-3 4 0l16 17c1 2 2 1 5 1-6 9-14 14-20 22 1-6-5-7-6-11 4 0 4 8 9 5l8-8 3-3c2-2 1-3 0-5l-13-13c-3-3-5-3-8 0l-7 7c-3 3-3 4-1 7 3 3 7 6 9 10zM1556 1576c2 6 7 11 14 12a1083 1083 0 01-16 18v-2c2-2 0-3-1-4l-9-6c-4-2-3-3-1-5l13-13zm10 16c0-2-1-2-2-3l-7-5c-2-2-3-2-5 0-7 7-7 7 0 13h1c2 1 3 4 5 3l8-8zM1534 1629c-2-7-8-12-15-12l-1-1v-2c6-4 10-9 15-14h3c4 5 7 9 13 10 2 1 1 3 0 4l-15 15zm-1-25c-2 0-3 3-5 4-4 3-4 6 0 9 8 7 7 7 15-1 1-1 2-1 2-3-1-2-10-9-12-9zM1412 1613c-6-3-10-9-15-14l-2-1c-7-7-5-7-12 0l-14 13c-2 2-2 3 0 5l22 22c-4 0-6-3-8-5l-15-15c-2-2-5-3-7 1 0 1-1 2-4 1 13-11 24-23 37-33-4 3-1 6 1 8 6 6 12 11 17 18zM1574 1559c-1 6 5 12 14 12l-11 13c-1 1-1-1-2-2-2-4-6-5-9-8h-1c-1-2-4 2-5-2 0-2 3-3 5-4l9-9zm3 20l5-4c1-2-1-3-2-3l-8-6c-1-1-2 0-3 1-2 2-3 3-1 5 3 2 5 6 9 7zM1604 1555l-9 10h-3c-3-5-6-9-13-9-2 1-2-2-1-3l12-11h1l1 2c-3 2-1 3 1 4 3 3 6 7 11 7zm-15-7l-5 4v2l9 6h3c1-1 4-3 2-4l-9-8zM1391 1640c3 1 6 0 8-2l15-15c3-3 3-5 0-7l-2-3c3 2 5 7 10 4v2c-9 9-18 19-28 27 0 1-1 2-2 1-2-1-1-2 0-3 2-2 0-3-1-4zM1483 1474c3 0 4 4 6 3 3-2 7-4 8-8 0-2 1-1 2-2l2 1-1 2-12 12c-1 1-3 1-2-1 2-4-2-4-3-7zM762 1757c-8-1-15-6-23-9l-40-15-2-2 13 5 46 18c2 1 5 1 6 3zM733 1676c-11-3-22-7-33-13l33 13zM802 1715l30 13c-11-3-21-8-30-13zM831 1718c-6-1-11-5-17-7l-12-6 29 13zM806 1651c10 5 21 8 30 14-10-3-20-8-29-12l-1-2zM762 1698c-10-2-19-7-28-11l28 11zM682 1726l-25-10 1-1 24 10v1zM762 1757c8 2 14 6 21 9a73 73 0 01-21-9zM635 1698c7 2 13 6 20 9-7-3-14-5-20-9zM635 1708c3-2 5 0 7 1l12 6-18-8-1 1zM776 1704c6 1 12 5 17 8-6-3-12-4-17-8zM801 1773c-5 0-10-4-14-6 5 2 10 2 14 6zM751 1684c5 1 10 3 14 6-5-2-10-2-14-6zM762 1698c5 1 10 3 14 6-5 0-10-4-14-6zM751 1684c-5-1-9-3-14-6 5 1 10 3 14 6zM436 1210c5 6 7 14 11 21h-2l-9-21zM311 1297c-4 0-6-1-7-5s-4-7-4-12l7 14c1 2 2 3 4 3zM389 1225c-4-3-3-8-7-10v-2c1-2 1-1 1 0l6 12zM425 1242c-4-3-4-7-6-10v-2l2 1 4 11zM434 1206l-5-11h1l5 11h-1zM436 1235l-1 1h-1c-2-3-1-7-4-9v-2h2c0 4 2 7 4 10zM381 1269c-3-3-8-5-8-12 2 5 7 8 8 12zM278 1317c-2-4-6-7-5-13 0 5 6 8 5 13zM390 1198c3 3 4 8 5 12l-5-12zM636 1475c-5-2-9-6-14-9-2-2-4-3-5 1l-5 7c-4 4-2 6 2 8l12 8c2 2 3 2 5-1s3-7 6-10c2-1 0-2 0-3 3 0 4 2 2 4l-9 13c-1 2-1 2-3 0l-17-12-5-3c5-2 7-6 9-9 5-9 5-9 12-2 3 3 8 4 10 8zM642 1444c-6-4-8-1-11 3-7 8-7 8 1 15 12 10 13 10 20-4v-5c4 1 3 4 1 6-3 5-7 9-8 15l-21-17c-1-1-2-1-1-2l13-17 6 6zM610 1578c1 0 3 0 3 2-1 5-8 10-12 9-6-1-12-1-16-6-2-3-2-6 0-9 8-10 4-12 16-3 3 2 7 4 9 7l-15-9-4-2c-3 2-6 11-4 14 3 5 9 5 13 6 6 2 11-3 10-9zM556 1551v1c-4 9-2 13 7 16 8 4 14 2 18-6 1-2-1-3-2-4-3-2-6-3-8-6 4 1 7 5 11 7l1 1c1 2-6 12-8 12-6-1-12 0-17-4-8-6-9-9-2-17zM621 1585l-2 4c-6 8-3 16 7 18 4 1 9 2 12-3 1-3 2-5-2-7l-2-2h1c2 2 7 2 6 6-1 5-6 9-11 9-8 0-15-6-17-13v-2l7-10h1zM666 1491l-14-11c-2-2-2-3-2-5 3-5 7-9 9-15h2l1 1c1 2-1 1-1 1l-9 14c-1 2 0 3 1 3 4 4 10 7 13 12zM562 1449c4 0 6 3 9 5 2 1 3 2 5-1l9-11c3-3-2-3-2-5 5 2 6 4 2 8l-8 10c-1 2-3 3-6 1-3-3-7-3-9-7zM601 1431c-2 3-2 5 2 7l10 8c3 4 6 3 9 0l2-3c0 5-5 5-5 10l-21-16c-2-3 2-5 3-6zM520 1537c1 7 6 10 12 12l5 2c5 2 7-1 10-3-1 4-4 6-8 5-8-1-15-5-20-12-1-2-1-3 1-4zM608 1510c6 6 8 0 11-3l4-6c1-2 1-3-1-5 4 1 6 2 3 6-3 2-5 5-6 8-4 6-6 6-11 0zM653 1487c-8-2-8-2-12 5-3 6-3 6 2 11l-6-3c-2-1-1-2-1-4l7-11c3-4 4-4 10 2zM552 1514l-6-3c-3-2-5-1-7 2l-4 5c3 3 7 4 9 7l-10-5v-3l1-1c3-2 4-8 8-8l9 6zM677 1570c-4 9-7 18-14 25l13-26 1 1zM597 1533c7 1 7-5 9-9 3-3-2-4-3-6 2 1 7 2 6 4-1 5-5 9-8 13-1 1-3-1-4-2zM636 1583l8 5c2 2 4 1 5-1 2-3 5-5 4-9 2 0 5 0 2 3l-6 9c0 1-1 3-2 1-4-3-9-4-11-8zM622 1517l10-15 3 1 6 4-1 1c-7-3-7-3-11 3-2 2-3 5-7 6zM563 1511l2 1c4 4 7 2 10-2s3-7-1-9c7 3 7 3 2 9-6 7-6 7-13 1zM541 1532c-4 0-6-2-8-4-3-1-5-1-6 1l-7 8v-1c8-13 9-13 21-4zM665 1524c-5-1-13 11-11 15-4 0-4 0-3-3l8-12c1-2 3-3 6 0zM615 1552l10 6c2 1 1 2 0 3l-4 7-1-1c4-8 4-8-3-12l-3-2 1-1zM585 1550c1 0 3 2 5 0 2-4 5-7 3-12 3 1 4 4 2 6l-3 5c-2 4-4 5-7 1zM591 1468c2 0 4 1 5 3 4 2 6 2 8-2 1-1 1-2 3-2v1c-5 9-9 9-16 0zM577 1492c3-1 5 5 9 1l7-7c-1 4-5 7-7 10 0 2-2 1-2 0l-7-4s0-1 0 0zM582 1472c-4 1-5-5-9-2l-6 6c1-3 2-5 6-8 1-2 2-1 9 4zM651 1603c2-7 6-13 10-19l-10 19zM598 1556c2 5 9 5 13 11l-14-8c-1-1-1-1 1-3zM644 1503l9 6c3 2 4 2 6-1 1 3-2 4-2 7-4-6-11-6-13-12zM579 1530c-2 1-4-3-6-1-2 3-5 6-5 10-1 0-4 0-2-2l4-6c4-5 4-5 9-1zM628 1572c-1 4 1 6 4 8l4 3c-4 0-7-5-12-5l4-6zM615 1422c-3-1-5 0-7 2s-3 4-6 5l6-7c2-3 4-3 7 0zM596 1514c-5-1-10-8-13 1 2-8 4-8 13-1zM634 1547c3-4 3-8-2-10 8 2 8 3 2 10zM591 1468c-4-1-8-4-11-7-3-2 1-3 1-5-2 4 1 5 3 7 3 1 6 2 7 5zM625 1532c-8-3-8-3-11 0 2-7 3-7 11 0zM547 1548v-1c4-7 4-7-1-11 3 0 7 2 7 5 0 2-3 5-6 7zM562 1529c2-4 3-8-1-11l4 2h3l-6 9zM597 1429c0-4 3-5 5-8 1-1 4-3 4-6 2 3 0 5-2 6l-7 8zM565 1497l-6-4c-2-2-4-1-6 2 1-5 2-7 6-3 2 1 5 1 6 5zM648 1526c1-4 6-7 3-12 4 3 4 3-3 12zM699 1514c-1 5-4 10-8 14 3-4 4-10 8-14zM524 1521l-8 10c1-5 4-8 7-11l1 1zM607 1404c4 3 7 4 10-1l1-1v1c-4 8-5 8-11 1zM545 1472c5 1 8 5 13 6-1 1-2 2-3 1l-10-7zM599 1491c4-8 4-8 8-4-5-2-5 3-8 4zM561 1473l4-10c2 0 3 1 2 2-2 3-3 6-6 8zM1711 662c-6 6-14 8-22 13l-33 18-4 2 11-7 45-25 3-1zM1764 632c-3 4-8 5-12 8l-37 20-4 2c4-4 9-6 14-9l35-20 4-1zM1652 695c-4 4-10 6-15 9l-28 16-3 1c6-5 13-8 20-12 8-5 17-11 26-14zM497 611c0-5 4-8 9-7 4 2 8 3 11 6l1 1c1 4-3 7-5 11-2 2-3 2-6 1-6-5-10-8-10-12zm6-4c-2 0-3 2-3 4s7 10 10 9c3 0 4-4 5-7 1-1-8-6-12-6zM568 519c4 0 12 6 12 8l-9 11c-3 0-10-9-10-12 0-4 3-7 7-7zm8 8c0-1-5-5-8-5-2 0-4 1-4 4 0 2 5 8 7 8 4-1 3-4 5-7zM1055 1583c3-1 3-3 2-5-1-3 0-4 3-4l8-1c3-1 6-2 7 3 0 1 1 2 2 1 1 0 2 1 1 2-2 6 0 14 4 18v1l-1 2c1 6-1 8-7 9h-4c-4 2-6 2-8-5-1-6 0-12-3-17 0-3-1-4-4-4zm10 16c7 0 8-1 7-8l-2-5c-1-4-6-6-9-3l-1 2c2 3 2 7 2 10 1 2 1 4 3 4zm5 1c-1 1-6-2-6 3 0 2 0 5 3 4s7 2 7-4c0-2-1-4-4-3zm8-5l-3-13c0-2-1-2-2-2-2 0-2 2-2 3l3 12c0 2 1 2 3 2l1-2zm-14-20c-2 1-5-1-5 3 0 1 0 4 3 3 2-1 6 1 6-3 0-3-2-3-4-3zm16 27c-1-1 0-3-3-3-1 0-2 0-2 2s0 3 2 3 3 0 3-2zM1134 1567c-5 0-5 2-3 6 1 3 1 6 5 8 2 1-1 9-3 10l-6 2c-3 2-5 2-8-2s0-9-4-12c-2-1 0-5-4-5 1-3-1-6-1-9 0-2 3-1 5-2l6-1c3-1 6-2 7 3 1 3 4-1 6 2zm-13 19c4 0 6-3 5-7l-2-6c-2-4-5-2-7-1-4 1-2 3-1 5l3 7 2 2zm0-21c2-1 2 0 2 1s1 3 2 2c2-1 1-3 0-4l-3-1-8 2c-1 0-2 1-1 3 0 1 0 3 2 3 3-1 7-1 6-6zm11 15l-4-10-2-1-1 2a574 574 0 006 11l1-2zm-2 9c-1-1 0-4-3-3-3 0-6 0-6 3 0 1 0 4 3 4 2-1 5-1 6-4zm5-2c-1-1 0-3-3-3-1 0-2 0-2 2 1 1 0 3 3 4 1 0 2-1 2-3zM953 1572c-6-3-5 2-5 5 1 3-2 6 2 9v1l-2 1c2 8-3 6-7 5l-5-1c-1 0-3 0-2-1 1-4-3-7-1-11s1-12-3-15c3 0 5 0 4-3 0-2 1-2 3-1l8 2c3 0 4 1 4 4 0 4 3 2 4 5zm-12 4v-4c0-3-1-4-4-4-2 0-1 2-1 3l-1 6c0 3 1 5 4 5s1-3 2-5v-1zm1 0v5c0 2 2 3 3 3 2 0 2-2 2-3v-8c0-3-2-3-3-3-3 0-2 1-2 3v3zm-1 11c1-3-2-3-4-3-2-1-2 1-2 3 0 3 2 3 4 3 3 1 2-2 2-3zm6 2c0-2-1-3-3-4-2 0-2 2-2 3 0 2 1 4 3 4s1-2 2-3zM983 1576c2-1 5-1 4-4l3-2c5 0 9 3 13 2 2 0 1 2 1 3 0 2-1 4 2 5v1c-4 4-1 9-1 14l1 3c-1 7-1 7-8 5l-6-1c-3 0-4-2-4-4-2-6 0-11 0-17 0-3-2-4-5-5zm6 8v3c-1 5 3 6 6 6 3-1 1-4 2-6v-3c0-4-3-6-6-5-4 0-1 3-2 5zm14 8l-1-9c0-2-1-3-2-3s-2 0-2 2v10c0 2 2 3 4 2 2 0 1-1 1-2zm-6 6c0-3-1-4-5-4-2 0-3 0-3 2 0 4 3 5 6 5 2 0 2-1 2-3zm-4-21c2 0 3 1 3-1 0-3-2-3-5-3-1-1-2-1-2 1 0 3 3 3 4 3zm10 23c0-2 0-4-2-4s-2 1-2 2c0 2 0 4 2 4 3 1 2-1 2-2zm-6-24c0 2 1 3 3 3 1 0 2 0 2-2 0-1-1-3-3-3l-2 2zM1180 1576l-1-1c0-2 0-5-3-5 1-5-3-9-3-13 1-2 17-8 19-7l2 5c1 2 0 6 4 5 2 0 1 1 1 2l-1 2c4 7-2 7-6 8l-12 4zm7-13c-2-3-2-7-6-8-1 0-6 1-5 4 0 3 0 7 4 7 2 1 5 0 7-3zm7-3c-2-3 0-7-5-8-1 0-4 1-4 3 2 3 1 7 5 8 2 0 4-1 4-3zm-8 6c-2 2-6 0-6 4 0 2 1 4 3 3 2 0 6 0 7-3 0-2-1-4-4-4zm9 4s3 0 3-3c-1-1-1-4-5-3-1 0-4 1-3 3s1 4 5 3zM342 1129l2-2c0-2 1-1 1 0s2-1 1 1c-1 3 0 6 1 9 0 0 2 1 0 2h-1c-2 0 0-1 0-2 0-6-1-7-4-8zM302 1127c4-4 12 1 12-7l2 3c0 2 0 2-2 2l-12 2zM366 1124c6 0 2-5 2-10 3 6 3 11 3 16 0-4-2-7-5-6zM253 1127c3 4 3 9 3 15l-3-15zM250 1164l3 15c-3-5-3-10-3-15zM332 1129c3 12 3 12-1 13 6-4-2-8 1-13zM357 1127l-1-9c-1-1-1-2 1-2h1l-1 2c-1 1 0 3 1 4 0 2 2 3-1 5zM261 1143c8-2 8-2 9 4-1-6-6-2-9-4zM1377 1736h-21c-3 0-5-1-6-3l-15-17c-1-1-2-2-1-4s3-2 4-2l37-1h2c7-3 9 2 13 6l12 14c1 1 3 2 2 4l-4 2h-23v1zm25-4l-18-20-3-1c-13 0-26 0-39 2-4 0-5 2-2 5l12 14c1 2 3 2 5 2l26-1 19-1zM749 1570l31 14c-11-3-21-8-30-12l-1-2zM814 1645c-7-2-13-4-19-9 6 3 13 5 19 9zM777 1629l-19-8c7 1 13 4 19 8zM794 1636c-7-1-12-4-17-7 6 1 11 4 17 7zM436 955l-55 2-21 1c-3 1-4 2-3 5v1c1 7 1 7 8 6l19-1-25 4c-2 0-2-1-2-2l-2-10c0-2 0-4 3-4l78-3v1zM389 980l-24 3c-3 0-5 1-4 3 2 3-1 8 5 8a321 321 0 0038-3l-39 5c-2 0-4-1-4-3 0-3-2-6-1-10 0-1-1-1 1-2l28-2v1zM328 976l-1-7c-3-11-2-9 7-9l11-1c2 0 4 0 4 3 2 13 4 11-9 12l-12 2zm8-3l9-1c3 0 4-1 4-3-1-3 1-8-5-9l-15 1-2 2c-1 6 3 10 9 10zM331 985c7-1 13 0 19-2 2-1 3 1 3 2l2 10a5397 5397 0 01-19 5c-1 0-2 0-2-2l-3-13zm16 0l-10 1h-1l-3 2 3 9c1 2 3 0 5 0l8-1c2 0 5 0 4-3s1-9-6-8zM347 1036l10-1c4 0 4-2 3-5 0-2 1-7-4-5l-11 1c-4 2 2 6-1 10l-2-10c-1-2 0-1 1-1l21-3c-4 3-3 5-2 8 1 4 1 7-5 6-3 0-6 2-10 0zM358 1009c-3-1-1-5-4-5l-15 2-1 3c2 2 1 7 4 7 5 0 10 0 15-2l1-2c1 3 2 4-2 4l-14 2c-2 0-3 0-3-2l-3-11 16-2c4-1 6 0 5 4l1 2zM402 998l-33 4c-4 0-5 2-4 6 1 1 2 3 0 7l-1-6c-2-7-1-8 6-8l32-4v1z"/>
	<path d="M406 1010l-38 5v-2a48786 48786 0 0038-3zM424 966l-36 3v-1l36-3v1zM321 969a24580 24580 0 010 0zM1606 767c-1-4 1-6 6-8l23-11c5-2 5-2 6 3s-1 7-5 8l-23 12c-6 3-6 3-7-4zm3 4l27-14 2-1c1-2 2-4 0-6-1-2-3 0-4 1l-21 10c-4 2-5 5-4 10zM1768 688c-2-6 0-7 4-9l23-11c2-1 4-3 6-1 1 1 0 9-2 10l-30 15c-5 2 1-4-1-4zm31-15c0-4-1-5-4-3l-18 10-7 3c-2 1-2 4-1 5 1 3 3 1 4 0l23-11c2-1 4-2 3-4zM1713 713c-1-4 1-5 5-7l19-9c2-1 5-4 6-1s2 7-1 10l-5 2-17 10c-7 3-7 3-7-5zm29-12c0-2 0-4-3-3l-23 12c-2 1-1 4-1 5 1 2 3 1 4 0l19-9c2-1 4-3 4-5zM1662 756c0-3 1-4 4-5l22-11c2-1 5-2 5 0 0 3 4 6-1 9l-23 11c-6 3-6 3-7-4zm29-11c0-2 0-4-2-3l-24 12c-2 1-1 3 0 4 1 2 2 1 3 1l21-10c2-1 3-3 2-4zM1661 739c-1-3 1-4 4-6l23-11c3-2 3-1 4 2 1 5-1 8-6 10l-18 9c-6 3-7 3-7-4zm29-12c-1-1 0-4-3-3l-23 12c-2 1-2 3-1 5s3 1 4 0l20-9c2-1 3-3 3-5zM1608 783c-1-2 0-4 3-5l24-12c2-1 5-4 6 0 1 2 2 6-2 8l-14 8-11 5c-6 3-6 3-6-4zm31-14s1-3-2-2l-26 13c-2 1-2 4-1 5 1 3 3 1 4 0l24-12c1 0 2-1 1-4zM1801 691c1 4-2 6-5 7l-22 11c-5 2-5 2-6-4 0-3 0-6 5-7l22-11c5-2 5-2 6 4zm-2 1c0-4-1-5-5-3l-13 7-8 5c-3 1-3 3-2 5 1 3 3 1 4 0l22-10c2-1 2-2 2-4zM1746 718c2 3-1 5-4 7l-19 9c-3 1-5 3-7 0s0-8 3-9l22-11c5-3 5-3 5 4zm-2 1c0-3 0-4-3-3l-21 11c-3 1-2 3-2 5 1 2 3 1 4 0l19-9c2-1 3-2 3-4zM1679 933c8 0 14 0 19 5 4 4 4 10 0 14-4 6-10 8-17 9-4 1-7 0-10 4-2 2-9-1-10-5l-5-19c-1-2-1-4 2-4l12-3c3 0 7-2 9-1zm18 11h-2l-8 2c-7 1-7 1-5 7l1 3c1 2 2 2 3 2 5-2 10-5 12-10 1-2 2-4-1-4zm-24 17c3-2 8 1 8-5 0-2 1-8-4-8-3 0-9-1-9 3 0 3 0 8 5 10zm11-26c-2 1-6-1-5 3 0 2-1 7 4 7l12-2 2-2c0-2-1-2-2-3-3-2-7-2-11-3zm-14 12c2-2 7 2 8-3 1-4-3-9-5-8-3 1-8-1-8 3 0 3-1 8 5 8zm-2 12l-2-8-2-1c-1 1-3 1-3 3l3 7 3 1 1-2zm-10-17c2 1-1 6 4 6 1 0 3 0 2-2s1-7-4-8c-1 0-3 1-2 4zM1617 938c1 1 2 3 4 2 4-1 6 0 6 4 2 6 5 12 6 19 1 2 1 4-3 6l-9 1c-5 0-11-1-15 3h-6c-3 1-2-3-2-4l-4-18c-1-4 1-6 6-6 6 0 11-2 16-4l1-3zm-9 31l13-2c3 0 3-1 3-3-2-10-2-10-12-8h-1c-10 2-9 0-6 11v1c0 1 1 2 3 1zm-6-13l16-3c2 0 3-2 2-3-2-2 0-7-4-6-5 0-9 2-14 3-2 1-3 2-2 4s0 5 2 5zm29 7l-2-8c0-2-2-2-3-2-1 1-3 1-3 3l3 9c0 2 2 2 3 1 2 0 3 0 2-3zm-4-14c0-3-2-7-4-7s-4 1-3 3c1 3 0 7 4 7 2 0 4 0 3-3zm-27 10l-2 2 3 9h2l-2-9-1-2zM1663 880c-5-4-13-1-14 5-1-3-3-4-6-2-2 1-4 0-4-2l-4-19c-1-2 0-2 2-3 2 0 4-2 4-5 4 3 11 2 14-2h1c1 3 4 2 6 2 4 0 9 1 12 5 2 4 1 7-1 10-1 3-4 4-7 6-2 1-4 2-3 5zm-3-7c-2-3 1-8-4-8-3 1-9 0-9 4-1 3-1 9 3 9 3 0 8-1 10-5zm12-8c0-2-1-3-2-3l-6 2c-1 0-4-1-4 2l3 7 1 1c3-1 8-6 8-9zm-19-8l-7 1c-2 1-2 2-2 4 1 2 1 4 4 3l6-1c2 0 4-1 3-3 0-3-1-5-4-4zm-7 20l-1-7c-1-2-2-2-3-2-2 1-4 1-3 3l2 7c1 2 2 2 4 2 1-1 2-1 1-3zm26-17c-4-3-7-3-10-4-2 0-4 0-3 3 0 2 0 4 3 3l10-2zm-32 0c-2 1-3 1-3 4 0 1 1 3 3 2 1 0 4 0 3-2 0-2 0-4-3-4zM1673 919c-2-1-2-5-5-3s-9 0-8 9c-2-4-4-6-7-4-2 0-3-2-4-4l-4-17c-1-2 0-3 2-4 4-2 9-2 13-3 2 0 6 0 4-5 2 3 4 4 8 4s8 0 12 3c3 3 3 5 2 8-2 5-5 8-9 9-2 2-5 3-4 7zm-7-15l-8 2-2 2c0 7 3 9 9 7l4-2c3-2 0-4 0-6 0-1 0-3-3-3zm-13-5c2 2 1 6 4 5 4-1 9 1 10-4 0-2 0-6-4-5-3 0-7-1-10 4zm27 2l-7 2c-3 0-3 1-3 3 1 7 2 7 8 4l5-7c1-1 1-2-3-2zm-9-7c-1 0-4-1-3 2 0 2 0 6 3 5 4 0 11 0 11-3s-6-4-10-4h-1zm-15 20c-1-2 0-6-3-7-2 0-4 1-3 3 1 3 0 7 4 8 1 0 3-1 2-4zm-6-17c-1 1-3 1-3 3 0 3 0 5 4 6 1 0 3-1 2-3 0-2 0-5-3-6zM1577 869c1 4 3 4 6 3 4-2 10-2 14-6l6-1c1-1 2 0 2 1l7 24c0 1 0 2-2 2-8 4-17 3-24 9-3 2-8-1-9-5 0-6-2-12-4-17-1-2-1-4 1-4 3-1 2-3 3-6zm26 21l-2-5c0-3-1-5-5-3l-10 3c-6 1-2 5-2 8 1 4 2 5 6 3l11-3c1-1 2-1 2-3zm-7-20l-16 5c-2 1 0 4 1 6 0 2 1 3 3 2l13-3c2 0 3-1 2-3-1-3 0-6-3-7zm13 18c0-4-2-8-4-8-1 0-3 0-3 2 1 3 1 7 5 9 1 0 3-1 2-3zm-8-20l-2 1 3 9h3c2-2 0-4 0-5l-4-5zm-19 31c1-4 0-8-1-11h-2l-1 1 4 10zm-5-23l-2 2c0 2 0 5 2 6 1 1 2-1 2-2l-2-6zM1586 905c2 4 5 4 7 3 5-2 10-2 14-6h6c3-1 3 3 4 5l4 16c1 1 1 4-2 4-2 0-3 0-3 2l-2 1c-9 0-12 0-18 5-2 1-7-1-8-4l-4-12c0-4-3-7 2-10v-4zm21 10l-12 3c-3 0-3 2-3 4 3 9 3 9 12 7h1c9-3 9-3 6-12l-4-2zm2-4c-2-2 0-6-4-5l-14 4c-2 1-1 3-1 4 0 2 1 3 3 2l13-3c2 0 3 0 3-2zm10 11l-2-8-3-1c-2 0-3 2-2 3l2 8c0 1 1 2 3 2 1-1 3-2 2-4zm-4-14c0-1 0-4-3-4-2 0-3 1-3 3 1 2 0 5 4 5 1 0 3-1 2-4zm-23 21l-2-8-2-1-1 2 2 8c1 1 1 2 3 1v-2zM1693 876l7 21c-5-6-6-13-7-21zM311 1398l-17 10h-3l2-2 18-8zM333 1385c-5 4-10 8-17 9l17-9zM343 635c-1 3 2 2 4 3l10 4-10-2c-3-2-6-2-9 0 2-2 2-3-1-4l-7-2c4-1 8 3 13 1zM851 317c-3-2-3-5-3-8l-10-43v-4l10 43 3 12zM858 353c-3-9-5-18-6-28l6 28zM400 1059c2 2 0 5 0 7l-2 2c-4-3-8 1-14-1l8-1c6 1 8-2 8-7zM426 1050c3 4-1 6-1 9-1 3-1 5 3 4l-6 2 4-15zM600 376l-24-27c8 8 17 17 24 27zM542 308l-13-15c6 4 11 8 13 15zM1156 345c-3 6-4 13-6 20 0 2-1 2-3 2-5-2-9-7-15-9v-3l5-21 1-3c2-1 2 1 3 2 3 3 7 4 11 6 2 1 4 3 4 6zm-7-2c1-2 0-3-1-4l-6-3c-2-2-3-1-4 1l-3 16c-1 1-2 3 0 4 3 2 5 4 9 4l1-1c1-6 4-11 4-17zm3 0l-6 18 1 3c2 0 2-1 2-2 1-6 3-12 3-19zM1216 404l-1-1-14-7c-2-1-2-2-1-4l5-20c0-2 1-3 3-1l14 7 2 3c-4 7-5 14-6 22l-2 1zm0-24c1-2 1-2-3-5-6-3-6-3-7 3l-3 11c-2 3-1 6 3 7l3 2c2 1 3 1 3-1l4-17zm-1 20c3-6 5-13 5-20-3 7-6 13-5 20zM1192 363l-6 22c-1 2-2 3-4 1l-3-2c-4-3-10-4-11-7-1-4 1-9 3-13l2-11c-1-2 0-2 2-1l15 8 2 3zm-22 11c0 2 8 8 10 7l1-1 5-17c0-2-9-9-11-8l-1 2-4 17zm14 9c3-6 4-13 5-20-3 7-5 13-5 20zM1305 244l12 1c4-1 3 0 3 3l-10 36-20 71-17 62c-1 3-2 4-4 3l-28-6c-2-1-2-2-1-4l5-20 30-109 9-35c1-3 2-4 4-3l17 1zm-53 135c-4 0-3 5-4 7s0 4 2 4l24 6c5 1 3-4 5-6 1-2 0-4-2-4l-25-7zm56-122c7 0 9-1 9-7l-1-2-26-3c-5 0-5 4-6 7s3 3 4 3l20 2zm-5 31c1 0 3 1 4-1l2-8-2-1-27-3c-4 0-4 5-5 8 0 3 3 2 5 2l23 3zm-36 129c5 1 4-3 5-5 2-3-1-3-3-4l-22-6c-2 0-4 0-4 2 1 3-4 7 1 8 8 2 16 5 23 5zm8-120c-5-1-4 3-5 6s2 3 4 3l25 2c4 1 2-3 3-5 2-2 0-3-2-3l-25-3zm-4 109c4 1 4-2 4-4 1-3 0-3-2-4l-23-6c-2 0-4-1-4 2 0 2-3 5 1 7l24 5zm36-130c3 0 4-1 4-5 1-4-3-3-4-3l-24-3c-4 0-3 3-4 5-1 3 1 4 3 4l25 2zm-27 97c4 1 4-2 4-4 1-2 1-3-1-4l-25-6c-3-1-3 2-4 4 0 2-1 4 2 5l24 5zm-25-3c-3-1-2 2-3 3-1 3-1 4 2 5l23 5c3 1 4 1 4-2 0-2 2-5-2-6l-24-5zm45-73c5 1 4-1 5-3s0-4-3-4l-25-3c-4 0-3 3-4 5-1 3 1 3 3 3l24 2zm-7 31c2 1 3-1 4-4 1-4-2-3-4-4l-23-3c-4-1-4 3-5 5-1 3 2 3 3 3l25 3zm-20-21c-3 0-5 1-5 4 0 2-2 4 1 4l28 3c3 0 2-4 3-6s-2-1-3-1l-24-4zm-12 43c-3-1-4 2-4 4-1 1-1 3 1 3l25 6c3 0 3-2 4-4 0-2 0-3-2-4l-24-5zm26-4c3 0 4-2 5-4 1-4-2-3-4-3l-23-4c-3-1-4 1-4 3s0 3 2 4l24 4zm21-81h2c4 2 3-1 4-3s-1-2-3-2l-25-3c-4 0-4 2-4 4-1 4 2 3 3 3l23 1zm-39 62h-3c-2 0-3 2-3 4 0 1 0 2 2 2l26 3c3 1 3-2 3-3 1-2-1-3-2-3l-23-3zm17 26c3 1 3-1 3-2s1-3-1-3l-26-5-3 2c-1 2 1 3 2 3l25 5zM1370 321c0-2 0-5 2-7 0 2 1 2 3 3l26 2c3 0 4-4 4-7 1-2-2-2-4-2l-20-2c-4-1-7 0-8 5 0-5 2-10 4-14l15-43c0-2 0-3 3-3 12-1 23 2 35 2 2 0 2 1 1 2-13 25-22 51-33 77l-39 99c-3 8-3 8-11 6l-15-4c-2 0-4-1-2-3 5-8 6-17 9-25a2562 2562 0 0030-86c1 2-3 5 2 5l25 2c3 1 4-3 4-5 1-3-2-2-4-2l-20-2c-3-1-6 0-7 2zm46-32l-26-3c-7 0-7-1-10 7-1 2 0 3 3 3 8 2 16 2 25 3 2 0 3-1 4-3 1-3 1-6 4-7-1-3 1-5 2-7 1-3 1-4-3-4l-26-3c-5 0-4 4-5 6-1 4 2 3 4 3a570 570 0 0028 5zm12-31l-28-3c-5-1-7 1-8 6-1 2-1 3 2 3l20 2c7 1 12 0 14-7v-1zm-35 84c-9-2-17-3-26-3-4-1-3 3-4 5-1 3 1 4 3 4l20 3c2 0 4 0 5-3l2-6zm-20-14h-3c-4 1-3 4-4 7-1 1 0 2 2 2l24 3c4 0 4-4 5-7 1-4-3-2-4-3l-20-2zm10 34c4 0 4-4 5-6 1-4-2-3-4-3l-20-4c-5 0-4 4-5 6-1 3 2 3 3 3l21 4zm-37 41c-6 0-4 5-5 8s2 2 3 3l16 3c5 1 4-4 6-6 0-1 1-2-1-3-6-3-13-4-19-5zm27-20c5 1 5-3 6-6 1-4-2-3-4-3l-18-4c-5 0-4 4-5 7-1 2 1 2 3 3l18 3zm5-11c5 1 4-3 6-5 0-2 0-3-2-3l-23-4c-3 0-3 4-4 6s2 3 3 3l20 3zm-15 33c4 0 8-5 8-8l-2-1-19-4c-5-1-4 3-5 6-1 1 0 3 2 3l16 4zm52-129h4c2 0 2-3 3-5s-1-2-2-2l-28-3c-4 0-3 3-4 5-1 3 2 3 3 3l24 2zm-15 32h6c2 0 2-3 3-5 1-1 0-2-1-2l-28-3c-3 0-3 4-3 6-1 2 2 2 3 2l20 2zm-31 86c5 0 4-4 6-6 1-1 0-3-2-3l-20-4c-4-1-3 4-5 6-1 3 2 3 4 3l17 4zm-27 21c-4 0-4 4-5 6l1 2 18 4c4 1 4-3 5-5 1-4-2-3-3-4l-16-3zm-7 14c-1 3 1 5 4 5l13 3c5 1 4-4 5-6s-1-2-3-2l-14-4c-4-1-5 1-5 4z"/>
	<ellipse cx="376.5" cy="853.4" rx="50" ry=".5"/>
	<path d="M372 882h41-41zM417 839l-35-2c11 0 23 0 35 2zM345 883h18-18zM408 568c7 2 13 5 19 10l-19-10zM1804 649l-1 2-35 18-4-1-14-14c-2-3-3-4 1-7 10-6 21-10 31-17 1 0 3-1 4 1l17 17 1 1zm-4-1l-1-1-14-14h-4l-28 15c-2 2-3 3-1 5l11 12c1 1 3 2 5 1l30-15c1-1 2-1 2-3zM1691 708l-1 1c-6-1-10 3-14 5l-17 8h-4l-10-12c-3-2-2-3 1-5l27-15h3l14 16 1 2zm-33 12l7-3 19-10c2-1 3-2 1-4l-8-9c-2-2-4-2-6 0l-17 9c-8 5-8 5-2 12l3 4 3 1zM1747 679l-1 1c-11 4-20 9-30 14-2 1-3 2-5 0l-11-13c-2-2-3-4 1-6l25-14c3-2 5 0 6 2l14 14 1 2zm-4-1l-1-2-12-12h-4l-23 12c-2 1-2 3-1 4l10 11h4l25-11 2-2zM1627 715l1 1c3 5 8 8 11 12 1 2 1 3-2 4l-30 16c-2 1-3 1-5-1l-7-8c-3-3-2-5 1-6l25-14 6-4zm10 14l-2-2-5-6c-2-2-4-3-6-1l-22 12c-7 4-7 5-1 10 2 2 3 5 6 3l28-13c1-1 2-1 2-3zM1693 1057c-1 3 0 4 2 5 3 1 5 4 7 6 4 4 3 8-2 12-4 3-8 4-12 5-3 0-4 1-5 4-1-3-2-5-5-4s-7-1-11 1c-3 3-9-4-7-8l6-20c0-2 1-2 3-2s5 2 7-2h2c3 4 10 6 15 3zm-17 26h1c6 0 9-4 9-9l-1-2c-4-1-8-2-12-1-2 0-2 4-3 7-2 4 0 5 4 5h2zm8-13c5 0 5-4 5-7-1-5-7-4-10-4-6-1-5 6-5 8 2 5 7 1 10 3zm1 12c5 0 11-2 14-4l2-3c-1-2-2-1-3-2-9-2-9-2-12 7l-1 2zm-14-11l-3-1c-1-1-3-1-4 2l-2 8c-1 1 0 2 2 2 1 1 3 1 3-1l4-10zm27 1h3c1-2-1-4-2-5-3-1-5-6-8-3-3 2-2 6 3 7l4 1zm-32-7c-1 2 0 3 2 3 4 1 4-2 5-5 0-1 3-4-1-5-1 0-4-1-4 1l-2 6zM1651 1136c1 7 7 4 11 6 2 2 3 0 4-2 1 3 2 5 5 6s5 3 6 5c4 5 2 11-3 14-8 4-16 2-25 0h-3c-4 3-6-1-9-2-2-1-1-4 0-6l4-16c1-2 2-3 4-2 3 1 5 0 6-3zm0 17c-5 0-5 4-5 6 0 7 6 4 9 5 5 1 5-5 5-7-1-5-7-2-9-4zm-2-4c0 2 1 2 2 2l6 2c4 0 7-2 6-6 0-4-4-3-6-4-6-2-8 1-8 6zm15 15c4 0 8-1 11-3 1-2 1-3-1-4l-9-1c-4 0-3 4-4 6-1 3 2 2 3 2zm9-8c2 0 3 0 3-2 1-2-5-8-9-8-3 0-3 4-3 5 1 6 7 2 9 5zm-34 2c-1 2 1 4 2 4 4-1 3-5 4-7s0-3-2-3c-5-1-2 4-4 6zm10-15c0-2-2-2-3-2-4 0-3 4-4 7-1 2 2 2 3 2 4-1 3-5 4-7zM1663 1097c1 3 0 5 2 5 5-1 9 6 14 0-2 4 1 5 3 6 5 3 7 7 5 12-1 4-5 7-11 7-2 0-4 0-6 2 0 1 0 2-1 0-2-5-7-2-10-2l-9-2c-3-1-4-2-3-5l6-18c0-2 1-2 3-2 3 1 6 2 7-3zm2 27c1 0 4 2 5 0s3-5 2-7c0-2-3-2-5-2h-4c-4 0-6 2-6 7 0 4 3 2 5 2h3zm5-10c3 1 4-1 5-4 1-4-2-4-4-5l-6-1c-2-1-3 0-4 2-2 6-2 7 5 8h4zm2 11c6 0 9-1 12-4 1-1 1-2-1-4-4-2-8 0-10 4l-1 4zm-12-20c1-3-2-2-3-2-4 0-3 4-4 6-1 3 1 3 3 3 5 0 3-5 4-7zm-10 13c0 3 0 5 2 5 5 0 4-4 5-7 1-1-1-2-2-2-4 0-4 3-5 4zm31-2c2 0 3 1 3-1 0-4-3-6-5-7-3 0-3 3-3 4-1 5 4 2 5 4zM1606 1046c0 4 1 5 4 5l12 1c1 0 3 1 4-1 1-1 1-2 2 0l2 1c6 0 5 3 4 7l-6 24c0 2-1 3-3 3-2-1-5-2-6 1h-2c-4-6-12-4-18-4-10-2-10-2-7-12l5-17c0-3 2-4 4-4 3 0 4-1 5-4zm16 23c0-1-1-2-3-2l-14-1c-1 0-2-1-3 1l-3 12c1 3 5 2 7 2l9 1c1 1 3 0 3-1l4-12zm-6-4c2-1 5 2 7-1l2-9c-1-2-5-1-7-1l-9-1c-3-1-4 0-5 3-2 7-2 7 6 9h6zm4 17l3 2c2 0 3 0 4-2l2-10c0-2 2-4-1-4-3-1-5-1-5 3l-3 11zm8-16c2 0 3 0 3-2l2-6c0-2-1-3-3-4-2 0-3 0-4 2l-1 6c-1 3 0 4 3 4zm-35 11s-1 2 1 2c1 1 3 0 3-1l3-9c0-1 1-3-1-3-2-1-3 0-4 2l-2 9zm10-22c0-1 0-3-2-3-4 1-2 6-4 8-1 2 1 3 2 3 5-1 2-6 4-8zM1595 1089c2 5 18 7 21 3 0 4 2 4 5 4 4 1 4 2 3 5l-5 20c0 3-1 3-4 3l-22-4-10-2c-3-1-4-2-3-5l6-17c0-3 2-6 5-4 3 1 3-2 4-3zm0 16c-5 1-4 6-5 9s1 4 4 4l10 2c2 0 4 0 4-2 1-3 3-6 3-10l-2-1-14-2zm3-10c-4-1-3 3-4 5-2 2 1 3 2 3l14 2c4 1 3-3 3-5 2-3 0-3-2-3l-13-2zm13 23c-1 3 2 3 3 4 3 1 3-1 4-3l1-7c1-2 1-3-1-4-2 0-5-1-5 2l-2 8zm-28-6c0 2 1 4 3 4 2 1 2-1 2-3l2-5c0-2 1-3-1-4-2 0-4 0-4 2l-2 6zm35-5c4 0 3-4 4-6 1-3-2-3-4-3-4-1-3 4-4 6-1 3 2 2 4 3zm-28-5c3-1 2-4 3-6 1-1 0-2-2-2-4 0-4 3-5 5 0 3 2 3 4 3zM1606 1130c0 4 2 5 5 5 5 0 5 2 3 6l-4 16v2c-4 1-9 1-12-1-5-2-11-3-17-3l-10-3-1-3c3-5 4-11 5-16 1-4 3-5 7-5 4-1 5 2 8 2l11 3c2 0 4 0 5-3zm-7 15c5 0 3-4 4-7 2-2 0-3-2-4l-12-2c-2-1-4 0-4 2l-1 5c-1 2-1 4 2 4l13 2zm-14 0c-2-1-3 1-3 3-1 1-2 4 1 5l14 2c4 1 2-3 3-6 2-2-1-2-2-2l-13-2zm23 2c5 0 4-5 5-7 1-4-3-4-5-4-5 0-3 5-4 7-1 4 2 3 4 4zm-32-10c-1 4 2 5 3 4 5 0 3-5 4-8s-2-3-3-3c-4 1-3 5-4 7zm29 20c5 1 4-3 5-5 1-4-3-4-5-4-4 0-3 4-3 6-2 3 2 3 3 3zm-27-14c-4 0-4 2-4 5-1 2 1 3 3 3 4 0 3-3 3-5 1-3-1-2-2-3zM311 693c-5 1-8-2-12-2l6 1c2 0 3-1 3-2-1-3 1-5 2-8-2 7 4 4 6 6-7 0-8 0-6 5h1zM211 701l-16-3c7 0 11 1 16 3zM465 667c-5 0-9-2-13-3l-8-2c0-2-2-1-3-3 2 0 4 2 6 0 0 3 2 3 3 3l15 5zM468 686a4909 4909 0 000 0zM450 1483l18-17c0 3-3 5-5 6l-13 11zM523 1418c5-5 10-10 17-14-6 5-11 11-17 14zM563 1398zM540 1404c4-6 9-10 15-14l-15 14zM504 1436c4-6 8-10 14-13l-14 13zM567 1380c3-6 8-9 13-12l-13 12zM555 1390c4-3 6-8 12-10l-12 10zM475 1276c7 0 13 7 13 16 0 6-6 12-13 12-8 0-14-6-14-15 0-7 4-13 14-13zm-10 14c0 6 2 9 9 9 6 0 11-4 11-9s-6-10-12-10-8 3-8 10zM740 1560l119 51-1 1-118-51v-1zM337 923c0-8 0-8 7-9l42-2c4-1 6-1 5 5-1 4 0 9 1 13 0 3 0 4-3 4l-46 4c-2 0-4 0-4-3l-2-12zm14 13l16-2 19-1c3 0 5-2 4-5l-1-10c0-4-1-5-5-5l-34 3c-12 0-12 0-11 13 2 8 2 8 12 7zM327 948c-11 1-11 1-14-9-2-8-3-16-2-24 0-6 1-7 7-8h13c3 0 4 1 3 5-2 10-1 21 2 31 1 3 1 5-3 5h-6zm-14-26l-1 4c1 7 1 15 6 20 2 3 9 1 14 0 3 0 3 0 2-3-3-10-3-20-2-31 1-2 0-3-3-3h-4c-12 0-12 0-12 13zM419 915l13-1c3 0 3 1 3 3 0 10 0 10-9 10l-27 2c-3 0-4-1-5-4v-5c-1-3 1-4 4-4l21-1zm-3 1v1h-15c-5 0-5 2-5 5 0 4 1 6 5 5h11l18-2c6 0 2-4 3-7s-2-2-4-2h-13zM295 923c3 1 6-2 8 1l2 12c0 2-2 2-3 2l-8 1c-2-1-5 3-7-1-2-5-3-9 0-13 1-3 5-1 8-2zm0 2h-4c-3 0-4 2-3 4 0 3-1 7 1 7h13l1-2c1-5-3-9-8-9zM1669 1347l-4-2c-1-1 1-2 1-3l11-20 2-2 2 2c1 6 4 11 7 17 1 3 1 3-2 4l-17 4zm6-6c4 2 6 1 7 0 2 0 4-1 3-3l-6-13c-3 3-1 5 0 7 2 3 4 7-4 9zm-5-1c4 0 7 0 8-3 1-2 0-5-2-7-2 4-5 6-6 10zM1649 1383c-3 0-5-2-3-5 4-7 9-14 12-22 1-2 3-2 3 0l8 18c1 1 2 3 0 3-6 0-11 4-17 5l-3 1zm3-4l13-4c1-1 2-2 1-3l-5-11-2-1-1 2 3 6c1 3 1 5-2 7-2 1-5 1-7 4zm-2-3c4 0 8-2 10-5 1-2-1-4-3-8l-7 13zM379 1313l15-7-15 7zM411 1296c-3 5-8 5-13 7a2416 2416 0 0013-7zM1569 1266c-3 0-6-2-8 1l2-5 11-21c2-4 1-5-3-6l-24-9h-7l4-6c-1 3 2 3 3 4l27 10c2 1 3 0 4-1-1 3 2 3 3 4l59 22c2 1 5 1 7 3-9-1-17-5-25-8l-40-15c-3-2-5-1-6 2l-8 15c-3 4-4 7 1 10zM1607 1224l-6 13c-1 1-2 2-4 1l-8-3c-3-1-3-2-2-5 4 7 11 7 15 2 2-3 2-6 5-8zM1608 1236c0 2-1 4 2 5 4 2 8 3 11-3-1 3-2 7-4 7-3 0-8-1-10-4-2-2 0-4 1-5zM1625 1248c2-2 3 0 4 0 7 3 6 3 10-3 1-2 1-4 3-5l-5 11c0 1-1 2-2 1l-10-4zM1645 1249c-1 5 2 8 10 9 1 0 2-2 2 0 0 1-1 2-2 1l-11-3c-4-3 0-5 1-7zM1588 1213l10-19 1 1-10 19-1-1zM1606 1197l-7 13c2-4 3-9 7-13zM1578 1233c1-6 5-10 8-14-2 5-4 10-8 14zM400 1450l22-16c2-1 4-2 4-4 1 1 2 2 0 3-8 6-16 13-26 17zM423 1439l-14 10c4-4 9-8 14-10zM1541 505v2c-5 7-8 15-14 22-2 2-4 1-5 0a1017 1017 0 00-38-34l10-14c1-2 3-4 6-4 13 1 25 4 34 15 4 4 5 9 7 13zm-40-26c-3 0-4 1-5 3l-8 11c-2 3-1 5 1 7l33 25c1 1 2 2 3 1l13-19v-2c-2-8-6-15-13-19-8-4-16-7-24-7zM427 774h-13c-5 0-1-4-2-4 3 7 10 1 15 4zM399 765l17 1c-6 2-12 0-17-1zM396 757l14 2c-4 0-9 0-14-2zM1608 331c3-9 8-17 14-23 6-5 14-3 21 0 6 4 12 8 14 16l-1 5-11 18c-1 2-3 4-5 3-5-3-10-4-14-8 4 0 8 2 11 4 4 3 6 1 8-2 2-5 5-11 9-15v-5c-1-7-10-15-19-16s-12 0-17 8c-3 5-5 11-10 15z"/>
	<path d="M1626 342c-7-2-12-6-19-9l1-2 4 3c5 3 10 4 14 8zM452 716l16 3c-6 2-11-2-16-3zM1415 496l-1-2-27-30c-2-2-3-5-1-8l14-29 31-65 24-50 15-32 4-7c1-3 2-1 3 1l14 26 17 30c3 5 3 8-1 13-9 13-16 27-24 41l-43 71-22 38-3 3zm8-112c-5 5-5 9-1 13l27 29c4 4 5 3 7-1v-4l-10-12-23-25c3 0 4 3 5 4l27 29c1 1 3 4 5 1 1-2 4-3 0-6l-10-12-21-22c-1-1-2-4-3-1-2 2-4 4-3 7zm64-12c-3 0-3-1-4-2l-15-17-17-21c-1 0-2-2-3-1-3 1-4 8-2 10l32 37c3 3 4 3 6 0l10-17c3-4 2-6 0-9l-15-18-18-23c0-1-1-3-3-1-3 2-3 7-1 10 8 12 17 22 26 32l7 8c1 1 2 2 1 3s-2 0-3-1l-1-1-31-39c-1-1-2-3-4-1-2 1-3 7-1 9l21 24 15 18zm21-35l-1-4-30-55c-1-3-2-2-3 0l-6 11c-3 4-2 7 1 10l31 40c1 2 2 4 4 3s4-3 4-5zm-70 15l-4 6c-1 2-2 4 1 6l32 36 2 2c3-1 5-8 3-11l-32-37-2-2zm27-56l-2 3c-4 5-3 8 1 14l30 36c4 5 4 5 7-1 2-2 0-4-1-6l-33-43-2-3zm15 88l-2-3-33-38c-1-1-1-2-3-1-2 2-3 7-1 10 9 13 21 24 31 36 1 1 3 3 4 2 2-1 3-4 4-6zm-17 28c5-5 5-8 0-13l-29-33c-1-1-2-2-3 0-3 4-4 7 0 11l32 35zm-59 11l2 4 28 29c0 1 1 2 2 1 3-1 5-7 2-9l-27-29c-3-4-4-4-6 1l-1 3zm14-30l-4 7c-1 2 0 4 1 5l30 31c1 1 3 3 4 1s4-4 1-7l-30-33-2-4zm-5 12c-5 7-5 8 0 14l25 26c2 1 3 3 4 2 2-1 4-3 3-6l-2-3-30-33zm17 64l-2-4-25-27c-1-1-2-4-5-3l-2 6 2 5 25 25c1 1 2 4 4 3l3-5zm-39-16l-2 2c0 2-3 4-1 7l25 27c1 1 3 4 4 1 1-2 5-3 2-7l-26-28-2-2zm5-9c-2 0-3 1-3 2-1 2-3 4-1 6l28 29h3c1-2 3-4 0-7l-26-28-1-2zm39 17l-3-5-27-27c-1-1-1-4-3-2-1 1-3 3-2 6l3 3 26 27c1 1 1 3 3 2l3-4zM1504 1294c-2 8-2 8 6 11 5 2 9 4 14 2 4-1 7-3 7-7 1-4-1-8-4-10-6-3-11-6-17-5 0-2 0-4 2-5 0 2 1 3 3 3l12 6c5 2 7 7 6 12s-4 8-11 8c-6 1-12-2-18-4-1-1-2-2-4-1 0 2 2 2 3 3l27 11c3 2 3 0 5-2l12-24 3-4c0 2 1 4 3 5 7 2 14 4 20 8-7-1-14-5-20-7-4-1-5-1-6 2l-12 21c-1 3 1 3 3 4 9 5 20 9 30 13l2 1c-10-2-19-6-28-10-8-3-8-3-13 3-1-3 4-5 2-8l-8-3-22-9h-4l7-14zM1540 1227c0 3 1 4 3 4 5 1 9 4 13 7 5 4 7 9 6 14-2 5-8 9-13 10l-11-2-13-4c3-6 5-12 9-17l-6 12c0 1-2 3 1 4 6 2 12 5 19 5 5 0 10-4 11-8 2-6 0-10-4-13l-8-5c-7-3-8-2-12 4l-1 1 6-12z"/>
	<path d="M1514 1276c5 7 21 10 27 7 4-3 6-8 4-12a681 681 0 002 8c-2 5-6 7-11 7-5 1-9-1-13-3-4-1-7-3-11-3l2-4zM1544 1267l-18-7-3 1 2-5c0 1 0 2 2 3l12 4c2 1 5 1 5 4zM1486 1329c-4 8-8 17-13 24 3-9 8-17 13-24zM1558 1194c-2 8-7 15-11 22l11-22zM1698 840l3 4 14 35c-4-5-5-12-8-18l-9-21zM1726 904l13 28c-2 0-2-2-3-3-3-8-8-16-10-25zM1715 879c4 6 6 14 10 21-5-6-8-14-10-21zM1740 936c4 6 6 13 9 19-5-6-7-12-9-19zM1691 857l-4-14h1l4 13-1 1zM214 759h-24c-3 0-4-1-4-3 8 4 18 1 28 3zM215 760c7-1 13 1 20 1-6-1-13 1-20-1zM207 769c3 0 7-2 11 0h-11zM492 476c8 3 14 7 21 12-8-3-14-8-21-12zM476 466c6 2 11 6 16 10l-16-10zM1636 1296h3l-10 18c-1 3-2 3-4 2l-10-4c-2-1-2-2-1-4a596 596 0 0011-17c3 1 6 3 8-1 0 0 2 0 1 2-2 2 1 3 2 4-3 0-5-2-8-3-2 0-4-1-5 2l-7 12c0 1-1 3 1 4l9 3c3 0 3-3 4-5 2-4 6-8 6-13zM1590 1301c-4-3-8-4-12-5-2-1-1-2 0-3l8-14c1-2 2-2 4-2 9 4 9 4 5 13-1 3-4 6-4 10 1 1 0 1-1 1zm-3-4c3 1 3-1 4-2l3-7c4-7 4-6-3-9-3 0-4 0-5 2l-6 11 1 3 6 2zM1596 1247l-2 3-4 8c-4 9-7 10-17 5-1-1-2-2-1-4l8-14c1-3 3-5 6-3l7 3c2 0 2 1 3 2zm-13 18c2 0 2-1 3-3l6-10c2-4 2-6-2-7l-5-2c-2 0-3 0-4 2l-7 13c0 1-1 2 1 3l8 4zM1594 1304l9-19c1-1 2-2 4-1l2 1c8 3 8 3 4 12-2 4-3 9-6 10-2 2-7-2-11-3h-2zm11 2c2 0 2-1 3-2l4-9c4-7 4-7-4-9-3-1-4 0-5 2l-4 8c-1 2-3 4-2 6 2 3 6 3 8 4zM1581 1276l-9 16h-4c-13-6-13-2-6-14 5-9 5-9 15-5 4 1 4 1 4 3zm-12 14c2 1 2 0 3-1l3-6c4-8 4-10-6-11-1-1-2 0-3 1l-6 11c0 1-1 3 1 3 3 2 5 3 8 3zM1602 1250l-7 14c-1 2-2 4 1 6 3 1 6 3 9-1l4-8-2 7c-1 2-3 4 0 7-6 0-9-4-14-5-1-1-2-2-1-4l10-16zM1632 1284h1c9 3 9 3 13-5l3-6c2-3 2-5 0-7 4 1 5 3 2 6l-7 15-2 2c-3-2-7-2-10-5zM1648 1266c-10-1-10-1-14 8l-3 5c-1 2-1 4 1 5-4 0-5-1-3-5l7-13c1-3 4-4 7-2l5 2zM1569 1266c8 1 16 6 24 8l12 5c-5 0-9-2-14-4-7-3-15-5-22-9zM1611 1276l4 1c6 2 6 2 9-4l5-9v-6c2 1 3 2 2 5l-7 14c-2 3-3 4-6 2-2-1-5-1-7-3zM1550 1288l11-21c-2 8-6 15-11 21zM1596 1311l-23-10c8 2 16 5 23 10zM1618 1258c-1 5-4 9-6 13 0 2-2 3-1 5-3 0-2-2-1-3l8-15zM1611 1259c2-5 0-7-4-8l-5-1c5-2 8 1 11 3 2 1-1 4-2 6zM501 1493c1-5 6-7 8-11 1-1 3-3 2-5 3 1 4 2 1 5l-11 11zM543 450c-7-2-11-8-17-11a62 62 0 0117 11zM1695 1035c-4-3-13-2-16 2-2-3-4-3-7-3-7 0-8-2-8-8l-1-32c0-2 0-3 3-3h5c3 0 7 1 6-5 2 9 9 4 13 6 2 1 2-3 3-4 0 4 3 5 6 6 8 2 12 8 14 15 2 6 0 12-4 15-3 3-7 5-10 6s-4 2-4 5zm-2-15v-6c0-1 1-3-1-3h-12l-1 4a1742 1742 0 013 17c8 1 11-3 11-10v-2zm0-17v-2c-1-2 0-6-2-7l-11-1c-2 0-2 2-2 3 2 5-1 11 2 13s9 1 12 0c2-1 0-4 1-6zm-27 16v6c1 6 2 7 8 7 3 0 4-1 3-4v-11c0-5-2-6-6-6-7 0-5 5-5 8zm30 1c0 2-2 7 1 8 2 1 5-2 8-4l3-3c3-2 4-5 3-9-1-3-4-1-7-1-8 0-8 0-8 9zm-20-20c0-8 0-7-7-7-3 0-5 1-4 5l1 7c0 2-1 4 1 4h9v-1c-2-3 2-6 0-8zm27 9h5c2 0 3-1 2-3-4-5-7-9-14-11l-2 1 2 13h7zM523 468c7 3 13 7 19 12-7-3-13-7-19-12zM499 452l17 11c-7-2-13-5-17-11zM1586 1363l5-12c1-3 3-2 4-1l11 4c2 0 1 2 0 3l-17 34-3 1-11-5c-2 0-2-1-2-2l13-22c-1 6-5 11-8 16-3 7-3 7 4 10 4 2 6 1 8-3 3-8 8-15 12-23s4-8-5-11c-3-1-4-1-5 2-2 3-3 7-6 9zM1567 1383l-10-5c-2-1-1-2-1-4a1459 1459 0 0020-32l9 4c2 1 1 2 1 3l-17 32c0 1 0 2-2 2zm18-35c-1-2-4-2-5-3-3-1-6-2-7 2l-14 26c-2 5 3 5 5 6 2 2 3 2 5-1l14-27 2-3zM1555 1338c0-3 1-4 4-2s8 2 9 4c1 3-3 7-5 10l-11 23c0 2-1 1-3 1l-6-4c-5-2-5-2-2-7l9-17c1-3 2-6 5-8l-1 3-12 22c-1 3-2 5 2 6 2 1 5 5 8 0a367 367 0 0113-29c-3-1-6-4-10-2zM1530 1339l5-10c0-2 1-2 3-1l13 5c-7 9-11 19-15 28-2 4-4 4-8 3v-1c-3-1-7-2-9-4-2-3 3-6 4-8 2-4 4-9 7-12-1 6-5 11-7 16-2 3-2 4 1 5l4 2c3 2 5 1 6-2l10-19c4-8 4-8-5-11-2-1-3 0-4 2-2 3-2 6-5 7zM1519 1347c2-7 6-13 10-19-2 7-6 13-10 19zM1581 1339l16 7c-6-1-12-2-16-7zM454 508c7 3 14 7 20 12-7-3-14-7-20-12zM1611 1347c-3-5-9-5-13-7v-2l9-18c1-1 2-2 3-1h2l12 5-6 11-5 10c0 1 0 2-2 2zm-2-4c3 0 4-1 4-2l5-9c4-8 4-9-5-11-3 0-4 0-6 3l-6 12c0 1-2 2 0 3l8 4zM1603 1316l-9 19c-1 1-2 3-4 1l-2-1c-9-4-9-4-5-12l5-9c1-2 3-3 5-2l10 4zm-12 18l2-1 7-14v-2l-7-3c-3-1-3 1-4 2l-7 13c0 1-1 2 1 2l8 3zM1585 1309l-6 12c-1 3-2 7-4 8-2 0-5-3-8-3-5-1-5-3-3-7l7-13c1-1 1-2 3-1l10 4h1zm-10-2c-1 0-3 0-3 2l-7 12v2c3 1 5 3 8 3 3 1 2-2 3-4l4-7c3-6 3-6-3-7l-2-1zM1567 1302l-8 14c-2 4-3 5-8 3-9-4-9-4-5-12 6-10 6-10 17-6l4 1zm-13 17c2 0 2-1 3-2l7-12-1-3c-3-1-6-3-10-3-2 0-2 4-3 5l-5 8c0 1-1 3 1 4l8 3zM1444 1374l3 1 2-1c1-2 0-2-1-2l-5-3c3 0 5 2 7 3h3c1-1 0-2-1-3 2 1 5 1 6-2l4-1c-2 4-7 5-10 8l-6 4c0-2 0-3-2-4zM1425 1387c1 1 3 3 4 0 2 0 4 1 4-3h3v2c-2 1-5 2-5 5h-4l-2-4zM461 1171l4 8c1 1 2 3 4 2-1 1-2 1-2 3-3-4-5-8-6-13zM469 1187c1 2 3 3 5 1-4 2-3 5-1 7 1 1 2 2 1 4-2-3-5-7-5-12zM1649 1300c4 3 10 4 15 6 6 3 6 3 3 9l-6 10c-1 4-3 4-6 3l-16-7c-2 0-3-1-1-4l8-15c1-1 1-2 3-2zm1 3c-2-1-3 0-4 2l-6 11c-1 2 0 4 2 5l13 5c2 1 4 0 5-2l7-12c1-2 1-3-1-3l-16-6zM1650 1343c-1 6-6 10-7 15l-3 1c-4-4-9-5-14-7-4-2-5-4-3-8s5-7 6-11c2-4 4-5 8-2 1 0 3 0 4 2-3 1-7-4-9-1-3 2-4 6-5 9l-2 3c-2 4-1 6 3 7l9 4c3 2 5 1 6-2l7-10z"/>
	<path d="M1641 1333c4 0 7 3 11 3 2 0 2 2 1 3l-3 4c2-5 0-7-4-8-2 0-4 0-5-2zM1614 1363c1-5 2-6 7-3l13 6c2 1 3 1 2 3-7 12-14 24-19 36l-2 1c-5-3-11-4-15-8 4 0 8 4 12 5 2 0 3 1 4-1l18-32c1-2 0-3-2-4l-12-4c-2-2-4-1-6 1zM1600 1398c-4 0-5-2-3-6 3-4 4-9 8-12-1 5-4 8-6 12-1 2-1 4 1 6z"/>
	<path d="M1605 1380c2-6 5-12 9-17-3 6-5 12-9 17zM470 668c7 3 15 4 22 8l-19-5c-1-1-3-1-3-3zM1522 1393c0 1-3 2-2 4-3-1-4 1-6 3 3-4 2-6-2-7l-3-2 4 2c3 2 6 2 9 0zM1506 1426c-2 1-3 3 0 4-5-1-9 1-9 5h-4l-1-3c4 0 7 0 8-5 2 1 4-1 6-1zM1508 1420c3 2 5-1 8-3 0 3-3 3-3 5l5 3c-3 1-6-4-9-1l-1-4zM1518 1415c3-2 8-2 6-7 4 3 5-2 8-2-1 2-4 4-1 7-4-4-6-1-9 2-2 1 0 1 1 2s4 1 4 4c-3-2-6-6-10-4l1-2z"/>
</svg>
